<svg width="42" height="42" viewBox="0 0 42 42" fill="none" xmlns="http://www.w3.org/2000/svg">
<g clip-path="url(#clip0_443_3957)">
<rect x="1" y="1" width="40" height="40" rx="20" fill="white"/>
<path d="M20.9998 1C9.97153 1 1 9.97181 1 20.9996C1 32.0278 9.97153 41 20.9998 41C32.0274 41 40.9996 32.0278 40.9996 20.9996C40.9996 9.97181 32.0274 1 20.9998 1ZM26.6523 13.6254C26.6523 13.7201 26.6147 13.8109 26.5477 13.8779C26.4808 13.9448 26.3899 13.9825 26.2952 13.9825L24.0217 13.9839C22.5217 13.9839 22.2474 14.568 22.2474 15.7185V18.1052H26.1467C26.2492 18.1052 26.347 18.1495 26.4145 18.2266C26.482 18.3037 26.5134 18.4062 26.5009 18.508L25.9457 22.8046C25.9345 22.8907 25.8925 22.9698 25.8273 23.0271C25.7621 23.0844 25.6782 23.116 25.5914 23.116H22.2474V33.785C22.2474 33.8797 22.2098 33.9705 22.1428 34.0375C22.0759 34.1044 21.9851 34.1421 21.8904 34.1421H17.454C17.3593 34.1421 17.2685 34.1044 17.2016 34.0375C17.1346 33.9705 17.097 33.8797 17.097 33.785V23.116H13.7422C13.6475 23.116 13.5567 23.0784 13.4898 23.0114C13.4228 22.9445 13.3852 22.8536 13.3852 22.7589V18.4623C13.3852 18.3676 13.4228 18.2768 13.4898 18.2098C13.5567 18.1428 13.6475 18.1052 13.7422 18.1052H17.097V15.2933C17.097 11.569 19.3508 9.25588 22.9798 9.25588C24.5399 9.25588 25.9185 9.37193 26.342 9.42799C26.4278 9.43933 26.5066 9.48147 26.5637 9.54656C26.6208 9.61166 26.6523 9.69527 26.6523 9.78185V13.6254Z" fill="black"/>
</g>
<rect x="0.5" y="0.5" width="41" height="41" rx="20.5" stroke="white"/>
<defs>
<clipPath id="clip0_443_3957">
<rect x="1" y="1" width="40" height="40" rx="20" fill="white"/>
</clipPath>
</defs>
</svg>
