<svg width="42" height="42" viewBox="0 0 42 42" fill="none" xmlns="http://www.w3.org/2000/svg">
<g clip-path="url(#clip0_443_3956)">
<rect x="1" y="1" width="40" height="40" rx="20" fill="white"/>
<path d="M29.1205 14.8589C28.9469 14.4094 28.6812 14.0012 28.3403 13.6607C27.9994 13.3202 27.591 13.0548 27.1413 12.8818C26.5222 12.6524 25.8682 12.5312 25.208 12.5234C24.1101 12.4734 23.7809 12.4609 20.9997 12.4609C18.2184 12.4609 17.8893 12.4734 16.7913 12.5234C16.1304 12.531 15.4757 12.6522 14.8559 12.8818C14.4064 13.0553 13.9983 13.3211 13.6578 13.662C13.3173 14.0028 13.0519 14.4113 12.8788 14.8609C12.6495 15.4801 12.5283 16.1341 12.5205 16.7943C12.4705 17.8922 12.458 18.2214 12.458 21.0026C12.458 23.7838 12.4705 24.113 12.5205 25.2109C12.5281 25.8718 12.6493 26.5265 12.8788 27.1463C13.0524 27.5958 13.3182 28.004 13.659 28.3445C13.9999 28.685 14.4083 28.9504 14.858 29.1234C15.4772 29.3527 16.1311 29.474 16.7913 29.4818C17.8893 29.5318 18.2184 29.5443 20.9997 29.5443C23.7809 29.5443 24.1101 29.5318 25.208 29.4818C25.8689 29.4742 26.5236 29.353 27.1434 29.1234C27.5929 28.9499 28.001 28.6841 28.3416 28.3432C28.6821 28.0023 28.9474 27.5939 29.1205 27.1443C29.3498 26.5251 29.471 25.8711 29.4788 25.2109C29.5288 24.113 29.5413 23.7838 29.5413 21.0026C29.5413 18.2214 29.5288 17.8922 29.4788 16.7943C29.4713 16.1334 29.3501 15.4787 29.1205 14.8589ZM20.9997 26.3526C19.9415 26.3526 18.9072 26.0388 18.0274 25.451C17.1476 24.8631 16.4618 24.0275 16.0569 23.05C15.652 22.0724 15.546 20.9967 15.7525 19.9589C15.9589 18.9211 16.4684 17.9678 17.2166 17.2196C17.9649 16.4714 18.9181 15.9618 19.9559 15.7554C20.9937 15.549 22.0694 15.6549 23.047 16.0598C24.0246 16.4648 24.8602 17.1505 25.448 18.0303C26.0359 18.9101 26.3497 19.9445 26.3497 21.0026C26.3497 22.4215 25.786 23.7823 24.7827 24.7856C23.7794 25.7889 22.4186 26.3526 20.9997 26.3526ZM26.5601 16.6922C26.3129 16.6922 26.0712 16.6189 25.8656 16.4815C25.6601 16.3442 25.4998 16.1489 25.4052 15.9205C25.3106 15.6921 25.2859 15.4408 25.3341 15.1983C25.3823 14.9558 25.5014 14.7331 25.6762 14.5583C25.851 14.3835 26.0737 14.2644 26.3162 14.2162C26.5587 14.168 26.81 14.1927 27.0384 14.2873C27.2668 14.3819 27.4621 14.5422 27.5994 14.7477C27.7368 14.9533 27.8101 15.195 27.8101 15.4422C27.8101 15.7737 27.6784 16.0916 27.444 16.3261C27.2095 16.5605 26.8916 16.6922 26.5601 16.6922Z" fill="black"/>
<path d="M21.0003 24.4732C22.9183 24.4732 24.4732 22.9183 24.4732 21.0003C24.4732 19.0822 22.9183 17.5273 21.0003 17.5273C19.0822 17.5273 17.5273 19.0822 17.5273 21.0003C17.5273 22.9183 19.0822 24.4732 21.0003 24.4732Z" fill="black"/>
<path d="M21 1C17.0444 1 13.1776 2.17298 9.8886 4.37061C6.59962 6.56823 4.03617 9.69181 2.52242 13.3463C1.00867 17.0008 0.612599 21.0222 1.3843 24.9018C2.15601 28.7814 4.06082 32.3451 6.85787 35.1421C9.65492 37.9392 13.2186 39.844 17.0982 40.6157C20.9778 41.3874 24.9991 40.9913 28.6537 39.4776C32.3082 37.9638 35.4318 35.4004 37.6294 32.1114C39.827 28.8224 41 24.9556 41 21C41 15.6957 38.8929 10.6086 35.1421 6.85786C31.3914 3.10714 26.3043 1 21 1ZM31.3542 25.2958C31.3363 26.1596 31.1722 27.014 30.8688 27.8229C30.6012 28.5147 30.1921 29.143 29.6676 29.6675C29.143 30.1921 28.5147 30.6012 27.8229 30.8687C27.014 31.1722 26.1596 31.3363 25.2958 31.3542C24.1833 31.4042 23.8292 31.4167 21 31.4167C18.1708 31.4167 17.8167 31.4042 16.7042 31.3542C15.8404 31.3363 14.986 31.1722 14.1771 30.8687C13.4853 30.6012 12.857 30.1921 12.3325 29.6675C11.8079 29.143 11.3988 28.5147 11.1313 27.8229C10.8278 27.014 10.6637 26.1596 10.6458 25.2958C10.5958 24.1833 10.5833 23.8292 10.5833 21C10.5833 18.1708 10.5958 17.8167 10.6458 16.7042C10.6637 15.8404 10.8278 14.986 11.1313 14.1771C11.3988 13.4852 11.8079 12.8569 12.3325 12.3324C12.857 11.8079 13.4853 11.3988 14.1771 11.1312C14.986 10.8278 15.8404 10.6637 16.7042 10.6458C17.8167 10.5958 18.1708 10.5833 21 10.5833C23.8292 10.5833 24.1833 10.5958 25.2958 10.6458C26.1596 10.6637 27.014 10.8278 27.8229 11.1312C28.5147 11.3988 29.143 11.8079 29.6676 12.3324C30.1921 12.8569 30.6012 13.4852 30.8688 14.1771C31.1722 14.986 31.3363 15.8404 31.3542 16.7042C31.4042 17.8167 31.4167 18.1708 31.4167 21C31.4167 23.8292 31.4042 24.1833 31.3542 25.2958Z" fill="black"/>
</g>
<rect x="0.5" y="0.5" width="41" height="41" rx="20.5" stroke="white"/>
<defs>
<clipPath id="clip0_443_3956">
<rect x="1" y="1" width="40" height="40" rx="20" fill="white"/>
</clipPath>
</defs>
</svg>
