<svg width="42" height="42" viewBox="0 0 42 42" fill="none" xmlns="http://www.w3.org/2000/svg">
<g clip-path="url(#clip0_443_3959)">
<rect x="0.999512" y="1" width="40" height="40" rx="20" fill="white"/>
<path d="M22.9986 18.7028H23.0292V18.6546L22.9986 18.7028ZM22.9986 18.7028H23.0292V18.6546L22.9986 18.7028ZM22.9986 18.7028H23.0292V18.6546L22.9986 18.7028ZM22.9986 18.7028H23.0292V18.6546L22.9986 18.7028ZM22.9986 18.7028H23.0292V18.6546L22.9986 18.7028ZM22.9986 18.7028H23.0292V18.6546L22.9986 18.7028ZM22.9986 18.7028H23.0292V18.6546L22.9986 18.7028ZM22.9986 18.7028H23.0292V18.6546L22.9986 18.7028ZM22.9986 18.7028H23.0292V18.6546L22.9986 18.7028ZM22.9986 18.7028H23.0292V18.6546L22.9986 18.7028ZM22.9986 18.7028H23.0292V18.6546L22.9986 18.7028ZM22.9986 18.7028H23.0292V18.6546L22.9986 18.7028ZM22.9986 18.7028H23.0292V18.6546L22.9986 18.7028ZM22.9986 18.7028H23.0292V18.6546L22.9986 18.7028ZM22.9986 18.7028H23.0292V18.6546L22.9986 18.7028ZM22.9986 18.7028H23.0292V18.6546L22.9986 18.7028ZM21.0075 1.02344C17.0547 1.02344 13.1907 2.19557 9.90413 4.3916C6.61753 6.58764 4.05594 9.70895 2.54329 13.3608C1.03063 17.0127 0.634852 21.0311 1.406 24.9079C2.17714 28.7847 4.08058 32.3458 6.8756 35.1408C9.67062 37.9358 13.2317 39.8393 17.1085 40.6104C20.9853 41.3816 25.0037 40.9858 28.6556 39.4731C32.3075 37.9605 35.4288 35.3989 37.6248 32.1123C39.8209 28.8257 40.993 24.9617 40.993 21.0089C40.9872 15.7102 38.8797 10.6302 35.133 6.88345C31.3862 3.1367 26.3062 1.02923 21.0075 1.02344ZM16.01 30.0061C16.0089 30.0947 15.9729 30.1793 15.9098 30.2416C15.8467 30.3038 15.7617 30.3387 15.6731 30.3387H11.8221C11.7339 30.3387 11.6493 30.3037 11.5869 30.2413C11.5246 30.1789 11.4895 30.0943 11.4895 30.0061V17.0661C11.489 17.0221 11.4971 16.9783 11.5136 16.9375C11.53 16.8966 11.5544 16.8594 11.5854 16.8281C11.6163 16.7968 11.6532 16.7719 11.6938 16.7549C11.7345 16.7379 11.7781 16.7291 11.8221 16.7291H15.6731C15.7173 16.7291 15.7611 16.7379 15.802 16.7548C15.8429 16.7717 15.88 16.7965 15.9113 16.8278C15.9426 16.8591 15.9674 16.8963 15.9844 16.9372C16.0013 16.978 16.01 17.0219 16.01 17.0661V30.0061ZM13.6119 15.0006C13.1333 15.0006 12.6654 14.8587 12.2675 14.5928C11.8695 14.3269 11.5593 13.9489 11.3762 13.5067C11.193 13.0645 11.1451 12.5779 11.2385 12.1085C11.3318 11.6391 11.5623 11.2079 11.9008 10.8695C12.2392 10.531 12.6704 10.3005 13.1398 10.2072C13.6092 10.1138 14.0958 10.1617 14.538 10.3449C14.9802 10.528 15.3581 10.8382 15.6241 11.2362C15.89 11.6341 16.0319 12.102 16.0319 12.5806C16.0325 12.8986 15.9703 13.2135 15.8489 13.5074C15.7275 13.8013 15.5492 14.0683 15.3244 14.2931C15.0996 14.5179 14.8326 14.6962 14.5387 14.8176C14.2448 14.939 13.9299 15.0012 13.6119 15.0006ZM32.3065 30.0061C32.3053 30.0947 32.2693 30.1793 32.2063 30.2416C32.1432 30.3038 32.0581 30.3387 31.9695 30.3387H28.1186C28.0749 30.3387 28.0317 30.3301 27.9913 30.3134C27.951 30.2967 27.9143 30.2722 27.8834 30.2413C27.8525 30.2104 27.828 30.1738 27.8113 30.1334C27.7946 30.0931 27.786 30.0498 27.786 30.0061V23.0526C27.786 21.2234 27.134 19.9893 25.4973 19.9893C24.9873 19.9922 24.4907 20.1527 24.0755 20.4488C23.6603 20.7449 23.3468 21.1622 23.178 21.6435C23.0626 21.9992 23.0122 22.3727 23.0292 22.7462V30.0061C23.0292 30.0955 22.9937 30.1812 22.9305 30.2444C22.8673 30.3076 22.7816 30.3431 22.6923 30.3431H18.8413C18.7973 30.3431 18.7537 30.3344 18.713 30.3174C18.6724 30.3004 18.6355 30.2755 18.6046 30.2441C18.5737 30.2128 18.5493 30.1756 18.5328 30.1348C18.5163 30.0939 18.5082 30.0502 18.5088 30.0061C18.5088 28.1594 18.5569 19.1929 18.5088 17.0836C18.5082 17.0396 18.5163 16.9958 18.5328 16.955C18.5493 16.9141 18.5737 16.877 18.6046 16.8456C18.6355 16.8143 18.6724 16.7894 18.713 16.7724C18.7537 16.7554 18.7973 16.7466 18.8413 16.7467H22.6835C22.7279 16.7461 22.772 16.7544 22.8132 16.7711C22.8543 16.7878 22.8917 16.8126 22.9231 16.844C22.9545 16.8754 22.9793 16.9128 22.996 16.954C23.0128 16.9951 23.0211 17.0392 23.0205 17.0836V18.6721C23.4298 17.9616 24.0259 17.3767 24.7441 16.9809C25.4624 16.5852 26.2752 16.3937 27.0946 16.4272C30.0659 16.4272 32.2977 18.3702 32.2977 22.5537L32.3065 30.0061ZM23.0292 18.7159V18.6677L22.9986 18.7159H23.0292ZM22.9986 18.7159H23.0292V18.6677L22.9986 18.7159ZM22.9986 18.7159H23.0292V18.6677L22.9986 18.7159ZM22.9986 18.7159H23.0292V18.6677L22.9986 18.7159ZM22.9986 18.7159H23.0292V18.6677L22.9986 18.7159ZM22.9986 18.7159H23.0292V18.6677L22.9986 18.7159ZM22.9986 18.7159H23.0292V18.6677L22.9986 18.7159ZM22.9986 18.7159H23.0292V18.6677L22.9986 18.7159ZM22.9986 18.7159H23.0292V18.6677L22.9986 18.7159ZM22.9986 18.7159H23.0292V18.6677L22.9986 18.7159ZM22.9986 18.7159H23.0292V18.6677L22.9986 18.7159ZM22.9986 18.7159H23.0292V18.6677L22.9986 18.7159ZM22.9986 18.7159H23.0292V18.6677L22.9986 18.7159ZM22.9986 18.7159H23.0292V18.6677L22.9986 18.7159ZM22.9986 18.7159H23.0292V18.6677L22.9986 18.7159Z" fill="black"/>
</g>
<rect x="0.499512" y="0.5" width="41" height="41" rx="20.5" stroke="white"/>
<defs>
<clipPath id="clip0_443_3959">
<rect x="0.999512" y="1" width="40" height="40" rx="20" fill="white"/>
</clipPath>
</defs>
</svg>
