<svg width="42" height="42" viewBox="0 0 42 42" fill="none" xmlns="http://www.w3.org/2000/svg">
<g clip-path="url(#clip0_443_3960)">
<rect x="0.999512" y="1" width="40" height="40" rx="20" fill="white"/>
<path d="M20.9992 1.03516C9.97949 1.03516 1.04639 9.97375 1.04639 20.9994C1.04639 32.0248 9.97949 40.9644 20.9992 40.9644C32.0181 40.9644 40.9519 32.0251 40.9519 20.9994C40.9516 9.97375 32.0181 1.03516 20.9992 1.03516ZM29.6966 28.9984C29.6814 29.0799 29.6683 29.1582 29.6563 29.2331C29.5821 29.6812 29.4444 30.5159 28.4981 30.5159C28.297 30.5159 28.0503 30.4693 27.7091 30.4047C27.2637 30.3209 26.7096 30.2159 26.2149 30.2159C25.735 30.2159 25.5259 30.3184 25.4442 30.3795C25.3058 30.4824 25.1609 30.6043 25.005 30.7351C24.3139 31.3154 23.3676 32.109 21.8782 32.3838C21.5173 32.4504 21.2341 32.4832 21.0116 32.4846L21.0078 32.4849H20.9992C20.7628 32.4832 20.4796 32.45 20.1201 32.3838C18.6314 32.109 17.6851 31.315 16.994 30.7354C16.8381 30.6046 16.6936 30.4827 16.5552 30.3795C16.4548 30.305 16.2399 30.2159 15.7841 30.2159C15.2894 30.2159 14.7353 30.3209 14.2899 30.4047C13.9484 30.4696 13.7017 30.5159 13.5002 30.5159C12.5539 30.5159 12.4162 29.6815 12.3427 29.2335C12.3302 29.155 12.3167 29.0766 12.3024 28.9984C10.605 28.7706 9.06006 28.3435 8.97209 26.8022C8.96213 26.627 9.01922 26.4546 9.13175 26.32C9.24428 26.1854 9.40381 26.0988 9.57791 26.0777C12.7057 25.6972 14.1502 22.8314 14.2578 22.0958C14.3165 21.6943 13.8521 21.5952 13.759 21.5794C13.7428 21.5763 13.7265 21.5731 13.7107 21.5694C12.0871 21.1741 11.2639 20.599 11.2639 19.8606C11.2639 19.1374 11.828 18.632 12.636 18.632C12.9065 18.632 13.1835 18.6873 13.4374 18.7915C13.5306 18.8295 13.7017 18.8751 13.9898 18.8751C14.1109 18.8751 14.2313 18.8671 14.3451 18.8547C14.2175 18.2009 14.0909 17.1076 14.0909 15.3447C14.0909 11.0418 17.761 9.51464 20.9036 9.51464L21.0161 9.51602L21.0954 9.51464C21.5643 9.51464 23.2158 9.5709 24.7655 10.2965C26.8217 11.2589 27.9081 13.0046 27.9081 15.3447C27.9081 17.1073 27.7815 18.2009 27.6539 18.8547C27.7677 18.8668 27.8885 18.8751 28.0096 18.8751C28.298 18.8751 28.4691 18.8295 28.5623 18.7915C28.8165 18.6871 29.0885 18.6329 29.3634 18.632C30.1714 18.632 30.7358 19.1374 30.7358 19.8606C30.7358 20.5997 29.9123 21.1744 28.2883 21.5694C28.2724 21.5734 28.2563 21.5767 28.24 21.5794C28.0358 21.6184 27.6887 21.7399 27.7412 22.0958C27.8491 22.8314 29.2937 25.6972 32.4218 26.0777C32.5959 26.0989 32.7553 26.1855 32.8678 26.3201C32.9804 26.4547 33.0375 26.6271 33.0276 26.8022C32.9393 28.3432 31.3944 28.7706 29.6966 28.9984Z" fill="black"/>
</g>
<rect x="0.499512" y="0.5" width="41" height="41" rx="20.5" stroke="white"/>
<defs>
<clipPath id="clip0_443_3960">
<rect x="0.999512" y="1" width="40" height="40" rx="20" fill="white"/>
</clipPath>
</defs>
</svg>
