<svg width="42" height="42" viewBox="0 0 42 42" fill="none" xmlns="http://www.w3.org/2000/svg">
<rect x="0.5" y="0.5" width="41" height="41" rx="20.5" fill="white"/>
<rect x="0.5" y="0.5" width="41" height="41" rx="20.5" stroke="white"/>
<path d="M24.6153 20.7989L19.2645 17.7388C19.0328 17.6076 18.8273 17.7738 18.8273 18.0404V24.012C18.8273 24.2743 19.0372 24.4492 19.2645 24.318L24.576 21.4022C24.6318 21.3759 24.6796 21.3351 24.7144 21.2841C24.7491 21.2331 24.7696 21.1737 24.7736 21.1121C24.7776 21.0506 24.765 20.989 24.7372 20.9339C24.7094 20.8788 24.6673 20.8322 24.6153 20.7989ZM24.6153 20.7989L19.2645 17.7388C19.0328 17.6076 18.8273 17.7738 18.8273 18.0404V24.012C18.8273 24.2743 19.0372 24.4492 19.2645 24.318L24.576 21.4022C24.6318 21.3759 24.6796 21.3351 24.7144 21.2841C24.7491 21.2331 24.7696 21.1737 24.7736 21.1121C24.7776 21.0506 24.765 20.989 24.7372 20.9339C24.7094 20.8788 24.6673 20.8322 24.6153 20.7989ZM24.6153 20.7989L19.2645 17.7388C19.0328 17.6076 18.8273 17.7738 18.8273 18.0404V24.012C18.8273 24.2743 19.0372 24.4492 19.2645 24.318L24.576 21.4022C24.6318 21.3759 24.6796 21.3351 24.7144 21.2841C24.7491 21.2331 24.7696 21.1737 24.7736 21.1121C24.7776 21.0506 24.765 20.989 24.7372 20.9339C24.7094 20.8788 24.6673 20.8322 24.6153 20.7989ZM24.6153 20.7989L19.2645 17.7388C19.0328 17.6076 18.8273 17.7738 18.8273 18.0404V24.012C18.8273 24.2743 19.0372 24.4492 19.2645 24.318L24.576 21.4022C24.6318 21.3759 24.6796 21.3351 24.7144 21.2841C24.7491 21.2331 24.7696 21.1737 24.7736 21.1121C24.7776 21.0506 24.765 20.989 24.7372 20.9339C24.7094 20.8788 24.6673 20.8322 24.6153 20.7989ZM24.6153 20.7989L19.2645 17.7388C19.0328 17.6076 18.8273 17.7738 18.8273 18.0404V24.012C18.8273 24.2743 19.0372 24.4492 19.2645 24.318L24.576 21.4022C24.6318 21.3759 24.6796 21.3351 24.7144 21.2841C24.7491 21.2331 24.7696 21.1737 24.7736 21.1121C24.7776 21.0506 24.765 20.989 24.7372 20.9339C24.7094 20.8788 24.6673 20.8322 24.6153 20.7989ZM24.6153 20.7989L19.2645 17.7388C19.0328 17.6076 18.8273 17.7738 18.8273 18.0404V24.012C18.8273 24.2743 19.0372 24.4492 19.2645 24.318L24.576 21.4022C24.6318 21.3759 24.6796 21.3351 24.7144 21.2841C24.7491 21.2331 24.7696 21.1737 24.7736 21.1121C24.7776 21.0506 24.765 20.989 24.7372 20.9339C24.7094 20.8788 24.6673 20.8322 24.6153 20.7989ZM24.6153 20.7989L19.2645 17.7388C19.0328 17.6076 18.8273 17.7738 18.8273 18.0404V24.012C18.8273 24.2743 19.0372 24.4492 19.2645 24.318L24.576 21.4022C24.6318 21.3759 24.6796 21.3351 24.7144 21.2841C24.7491 21.2331 24.7696 21.1737 24.7736 21.1121C24.7776 21.0506 24.765 20.989 24.7372 20.9339C24.7094 20.8788 24.6673 20.8322 24.6153 20.7989ZM24.6153 20.7989L19.2645 17.7388C19.0328 17.6076 18.8273 17.7738 18.8273 18.0404V24.012C18.8273 24.2743 19.0372 24.4492 19.2645 24.318L24.576 21.4022C24.6318 21.3759 24.6796 21.3351 24.7144 21.2841C24.7491 21.2331 24.7696 21.1737 24.7736 21.1121C24.7776 21.0506 24.765 20.989 24.7372 20.9339C24.7094 20.8788 24.6673 20.8322 24.6153 20.7989ZM24.6153 20.7989L19.2645 17.7388C19.0328 17.6076 18.8273 17.7738 18.8273 18.0404V24.012C18.8273 24.2743 19.0372 24.4492 19.2645 24.318L24.576 21.4022C24.6318 21.3759 24.6796 21.3351 24.7144 21.2841C24.7491 21.2331 24.7696 21.1737 24.7736 21.1121C24.7776 21.0506 24.765 20.989 24.7372 20.9339C24.7094 20.8788 24.6673 20.8322 24.6153 20.7989ZM24.6153 20.7989L19.2645 17.7388C19.0328 17.6076 18.8273 17.7738 18.8273 18.0404V24.012C18.8273 24.2743 19.0372 24.4492 19.2645 24.318L24.576 21.4022C24.6318 21.3759 24.6796 21.3351 24.7144 21.2841C24.7491 21.2331 24.7696 21.1737 24.7736 21.1121C24.7776 21.0506 24.765 20.989 24.7372 20.9339C24.7094 20.8788 24.6673 20.8322 24.6153 20.7989ZM24.6153 20.7989L19.2645 17.7388C19.0328 17.6076 18.8273 17.7738 18.8273 18.0404V24.012C18.8273 24.2743 19.0372 24.4492 19.2645 24.318L24.576 21.4022C24.6318 21.3759 24.6796 21.3351 24.7144 21.2841C24.7491 21.2331 24.7696 21.1737 24.7736 21.1121C24.7776 21.0506 24.765 20.989 24.7372 20.9339C24.7094 20.8788 24.6673 20.8322 24.6153 20.7989ZM24.6153 20.7989L19.2645 17.7388C19.0328 17.6076 18.8273 17.7738 18.8273 18.0404V24.012C18.8273 24.2743 19.0372 24.4492 19.2645 24.318L24.576 21.4022C24.6318 21.3759 24.6796 21.3351 24.7144 21.2841C24.7491 21.2331 24.7696 21.1737 24.7736 21.1121C24.7776 21.0506 24.765 20.989 24.7372 20.9339C24.7094 20.8788 24.6673 20.8322 24.6153 20.7989ZM24.6153 20.7989L19.2645 17.7388C19.0328 17.6076 18.8273 17.7738 18.8273 18.0404V24.012C18.8273 24.2743 19.0372 24.4492 19.2645 24.318L24.576 21.4022C24.6318 21.3759 24.6796 21.3351 24.7144 21.2841C24.7491 21.2331 24.7696 21.1737 24.7736 21.1121C24.7776 21.0506 24.765 20.989 24.7372 20.9339C24.7094 20.8788 24.6673 20.8322 24.6153 20.7989ZM24.6153 20.7989L19.2645 17.7388C19.0328 17.6076 18.8273 17.7738 18.8273 18.0404V24.012C18.8273 24.2743 19.0372 24.4492 19.2645 24.318L24.576 21.4022C24.6318 21.3759 24.6796 21.3351 24.7144 21.2841C24.7491 21.2331 24.7696 21.1737 24.7736 21.1121C24.7776 21.0506 24.765 20.989 24.7372 20.9339C24.7094 20.8788 24.6673 20.8322 24.6153 20.7989ZM24.6153 20.7989L19.2645 17.7388C19.0328 17.6076 18.8273 17.7738 18.8273 18.0404V24.012C18.8273 24.2743 19.0372 24.4492 19.2645 24.318L24.576 21.4022C24.6318 21.3759 24.6796 21.3351 24.7144 21.2841C24.7491 21.2331 24.7696 21.1737 24.7736 21.1121C24.7776 21.0506 24.765 20.989 24.7372 20.9339C24.7094 20.8788 24.6673 20.8322 24.6153 20.7989ZM24.6153 20.7989L19.2645 17.7388C19.0328 17.6076 18.8273 17.7738 18.8273 18.0404V24.012C18.8273 24.2743 19.0372 24.4492 19.2645 24.318L24.576 21.4022C24.6318 21.3759 24.6796 21.3351 24.7144 21.2841C24.7491 21.2331 24.7696 21.1737 24.7736 21.1121C24.7776 21.0506 24.765 20.989 24.7372 20.9339C24.7094 20.8788 24.6673 20.8322 24.6153 20.7989ZM24.6153 20.7989L19.2645 17.7388C19.0328 17.6076 18.8273 17.7738 18.8273 18.0404V24.012C18.8273 24.2743 19.0372 24.4492 19.2645 24.318L24.576 21.4022C24.6318 21.3759 24.6796 21.3351 24.7144 21.2841C24.7491 21.2331 24.7696 21.1737 24.7736 21.1121C24.7776 21.0506 24.765 20.989 24.7372 20.9339C24.7094 20.8788 24.6673 20.8322 24.6153 20.7989ZM24.6153 20.7989L19.2645 17.7388C19.0328 17.6076 18.8273 17.7738 18.8273 18.0404V24.012C18.8273 24.2743 19.0372 24.4492 19.2645 24.318L24.576 21.4022C24.6318 21.3759 24.6796 21.3351 24.7144 21.2841C24.7491 21.2331 24.7696 21.1737 24.7736 21.1121C24.7776 21.0506 24.765 20.989 24.7372 20.9339C24.7094 20.8788 24.6673 20.8322 24.6153 20.7989ZM24.6153 20.7989L19.2645 17.7388C19.0328 17.6076 18.8273 17.7738 18.8273 18.0404V24.012C18.8273 24.2743 19.0372 24.4492 19.2645 24.318L24.576 21.4022C24.6318 21.3759 24.6796 21.3351 24.7144 21.2841C24.7491 21.2331 24.7696 21.1737 24.7736 21.1121C24.7776 21.0506 24.765 20.989 24.7372 20.9339C24.7094 20.8788 24.6673 20.8322 24.6153 20.7989ZM24.6153 20.7989L19.2645 17.7388C19.0328 17.6076 18.8273 17.7738 18.8273 18.0404V24.012C18.8273 24.2743 19.0372 24.4492 19.2645 24.318L24.576 21.4022C24.6318 21.3759 24.6796 21.3351 24.7144 21.2841C24.7491 21.2331 24.7696 21.1737 24.7736 21.1121C24.7776 21.0506 24.765 20.989 24.7372 20.9339C24.7094 20.8788 24.6673 20.8322 24.6153 20.7989ZM21 1C17.0444 1 13.1776 2.17298 9.8886 4.37061C6.59962 6.56823 4.03617 9.69181 2.52242 13.3463C1.00867 17.0008 0.612599 21.0222 1.3843 24.9018C2.15601 28.7814 4.06082 32.3451 6.85787 35.1421C9.65492 37.9392 13.2186 39.844 17.0982 40.6157C20.9778 41.3874 24.9991 40.9913 28.6537 39.4776C32.3082 37.9638 35.4318 35.4004 37.6294 32.1114C39.827 28.8224 41 24.9556 41 21C40.9942 15.6974 38.8852 10.6137 35.1357 6.86425C31.3863 3.11478 26.3026 1.00579 21 1ZM32.9738 24.2087C32.9738 25.5703 32.4332 26.8761 31.4708 27.8393C30.5085 28.8025 29.2031 29.3442 27.8415 29.3453H14.5169C13.1554 29.3442 11.85 28.8025 10.8876 27.8393C9.92528 26.8761 9.38471 25.5703 9.38471 24.2087V17.9661C9.38702 16.6065 9.92876 15.3033 10.891 14.3427C11.8532 13.3821 13.1573 12.8426 14.5169 12.8426H27.8415C29.2012 12.8426 30.5053 13.3821 31.4675 14.3427C32.4297 15.3033 32.9715 16.6065 32.9738 17.9661V24.2087ZM24.6153 20.7989L19.2645 17.7388C19.0328 17.6076 18.8273 17.7738 18.8273 18.0404V24.012C18.8273 24.2743 19.0372 24.4492 19.2645 24.318L24.576 21.4022C24.6318 21.3759 24.6796 21.3351 24.7144 21.2841C24.7491 21.2331 24.7696 21.1737 24.7736 21.1121C24.7776 21.0506 24.765 20.989 24.7372 20.9339C24.7094 20.8788 24.6673 20.8322 24.6153 20.7989ZM24.6153 20.7989L19.2645 17.7388C19.0328 17.6076 18.8273 17.7738 18.8273 18.0404V24.012C18.8273 24.2743 19.0372 24.4492 19.2645 24.318L24.576 21.4022C24.6318 21.3759 24.6796 21.3351 24.7144 21.2841C24.7491 21.2331 24.7696 21.1737 24.7736 21.1121C24.7776 21.0506 24.765 20.989 24.7372 20.9339C24.7094 20.8788 24.6673 20.8322 24.6153 20.7989ZM24.6153 20.7989L19.2645 17.7388C19.0328 17.6076 18.8273 17.7738 18.8273 18.0404V24.012C18.8273 24.2743 19.0372 24.4492 19.2645 24.318L24.576 21.4022C24.6318 21.3759 24.6796 21.3351 24.7144 21.2841C24.7491 21.2331 24.7696 21.1737 24.7736 21.1121C24.7776 21.0506 24.765 20.989 24.7372 20.9339C24.7094 20.8788 24.6673 20.8322 24.6153 20.7989ZM24.6153 20.7989L19.2645 17.7388C19.0328 17.6076 18.8273 17.7738 18.8273 18.0404V24.012C18.8273 24.2743 19.0372 24.4492 19.2645 24.318L24.576 21.4022C24.6318 21.3759 24.6796 21.3351 24.7144 21.2841C24.7491 21.2331 24.7696 21.1737 24.7736 21.1121C24.7776 21.0506 24.765 20.989 24.7372 20.9339C24.7094 20.8788 24.6673 20.8322 24.6153 20.7989ZM24.6153 20.7989L19.2645 17.7388C19.0328 17.6076 18.8273 17.7738 18.8273 18.0404V24.012C18.8273 24.2743 19.0372 24.4492 19.2645 24.318L24.576 21.4022C24.6318 21.3759 24.6796 21.3351 24.7144 21.2841C24.7491 21.2331 24.7696 21.1737 24.7736 21.1121C24.7776 21.0506 24.765 20.989 24.7372 20.9339C24.7094 20.8788 24.6673 20.8322 24.6153 20.7989ZM24.6153 20.7989L19.2645 17.7388C19.0328 17.6076 18.8273 17.7738 18.8273 18.0404V24.012C18.8273 24.2743 19.0372 24.4492 19.2645 24.318L24.576 21.4022C24.6318 21.3759 24.6796 21.3351 24.7144 21.2841C24.7491 21.2331 24.7696 21.1737 24.7736 21.1121C24.7776 21.0506 24.765 20.989 24.7372 20.9339C24.7094 20.8788 24.6673 20.8322 24.6153 20.7989ZM24.6153 20.7989L19.2645 17.7388C19.0328 17.6076 18.8273 17.7738 18.8273 18.0404V24.012C18.8273 24.2743 19.0372 24.4492 19.2645 24.318L24.576 21.4022C24.6318 21.3759 24.6796 21.3351 24.7144 21.2841C24.7491 21.2331 24.7696 21.1737 24.7736 21.1121C24.7776 21.0506 24.765 20.989 24.7372 20.9339C24.7094 20.8788 24.6673 20.8322 24.6153 20.7989ZM24.6153 20.7989L19.2645 17.7388C19.0328 17.6076 18.8273 17.7738 18.8273 18.0404V24.012C18.8273 24.2743 19.0372 24.4492 19.2645 24.318L24.576 21.4022C24.6318 21.3759 24.6796 21.3351 24.7144 21.2841C24.7491 21.2331 24.7696 21.1737 24.7736 21.1121C24.7776 21.0506 24.765 20.989 24.7372 20.9339C24.7094 20.8788 24.6673 20.8322 24.6153 20.7989ZM24.6153 20.7989L19.2645 17.7388C19.0328 17.6076 18.8273 17.7738 18.8273 18.0404V24.012C18.8273 24.2743 19.0372 24.4492 19.2645 24.318L24.576 21.4022C24.6318 21.3759 24.6796 21.3351 24.7144 21.2841C24.7491 21.2331 24.7696 21.1737 24.7736 21.1121C24.7776 21.0506 24.765 20.989 24.7372 20.9339C24.7094 20.8788 24.6673 20.8322 24.6153 20.7989ZM24.6153 20.7989L19.2645 17.7388C19.0328 17.6076 18.8273 17.7738 18.8273 18.0404V24.012C18.8273 24.2743 19.0372 24.4492 19.2645 24.318L24.576 21.4022C24.6318 21.3759 24.6796 21.3351 24.7144 21.2841C24.7491 21.2331 24.7696 21.1737 24.7736 21.1121C24.7776 21.0506 24.765 20.989 24.7372 20.9339C24.7094 20.8788 24.6673 20.8322 24.6153 20.7989ZM24.6153 20.7989L19.2645 17.7388C19.0328 17.6076 18.8273 17.7738 18.8273 18.0404V24.012C18.8273 24.2743 19.0372 24.4492 19.2645 24.318L24.576 21.4022C24.6318 21.3759 24.6796 21.3351 24.7144 21.2841C24.7491 21.2331 24.7696 21.1737 24.7736 21.1121C24.7776 21.0506 24.765 20.989 24.7372 20.9339C24.7094 20.8788 24.6673 20.8322 24.6153 20.7989ZM24.6153 20.7989L19.2645 17.7388C19.0328 17.6076 18.8273 17.7738 18.8273 18.0404V24.012C18.8273 24.2743 19.0372 24.4492 19.2645 24.318L24.576 21.4022C24.6318 21.3759 24.6796 21.3351 24.7144 21.2841C24.7491 21.2331 24.7696 21.1737 24.7736 21.1121C24.7776 21.0506 24.765 20.989 24.7372 20.9339C24.7094 20.8788 24.6673 20.8322 24.6153 20.7989ZM24.6153 20.7989L19.2645 17.7388C19.0328 17.6076 18.8273 17.7738 18.8273 18.0404V24.012C18.8273 24.2743 19.0372 24.4492 19.2645 24.318L24.576 21.4022C24.6318 21.3759 24.6796 21.3351 24.7144 21.2841C24.7491 21.2331 24.7696 21.1737 24.7736 21.1121C24.7776 21.0506 24.765 20.989 24.7372 20.9339C24.7094 20.8788 24.6673 20.8322 24.6153 20.7989ZM24.6153 20.7989L19.2645 17.7388C19.0328 17.6076 18.8273 17.7738 18.8273 18.0404V24.012C18.8273 24.2743 19.0372 24.4492 19.2645 24.318L24.576 21.4022C24.6318 21.3759 24.6796 21.3351 24.7144 21.2841C24.7491 21.2331 24.7696 21.1737 24.7736 21.1121C24.7776 21.0506 24.765 20.989 24.7372 20.9339C24.7094 20.8788 24.6673 20.8322 24.6153 20.7989ZM24.6153 20.7989L19.2645 17.7388C19.0328 17.6076 18.8273 17.7738 18.8273 18.0404V24.012C18.8273 24.2743 19.0372 24.4492 19.2645 24.318L24.576 21.4022C24.6318 21.3759 24.6796 21.3351 24.7144 21.2841C24.7491 21.2331 24.7696 21.1737 24.7736 21.1121C24.7776 21.0506 24.765 20.989 24.7372 20.9339C24.7094 20.8788 24.6673 20.8322 24.6153 20.7989ZM24.6153 20.7989L19.2645 17.7388C19.0328 17.6076 18.8273 17.7738 18.8273 18.0404V24.012C18.8273 24.2743 19.0372 24.4492 19.2645 24.318L24.576 21.4022C24.6318 21.3759 24.6796 21.3351 24.7144 21.2841C24.7491 21.2331 24.7696 21.1737 24.7736 21.1121C24.7776 21.0506 24.765 20.989 24.7372 20.9339C24.7094 20.8788 24.6673 20.8322 24.6153 20.7989ZM24.6153 20.7989L19.2645 17.7388C19.0328 17.6076 18.8273 17.7738 18.8273 18.0404V24.012C18.8273 24.2743 19.0372 24.4492 19.2645 24.318L24.576 21.4022C24.6318 21.3759 24.6796 21.3351 24.7144 21.2841C24.7491 21.2331 24.7696 21.1737 24.7736 21.1121C24.7776 21.0506 24.765 20.989 24.7372 20.9339C24.7094 20.8788 24.6673 20.8322 24.6153 20.7989ZM24.6153 20.7989L19.2645 17.7388C19.0328 17.6076 18.8273 17.7738 18.8273 18.0404V24.012C18.8273 24.2743 19.0372 24.4492 19.2645 24.318L24.576 21.4022C24.6318 21.3759 24.6796 21.3351 24.7144 21.2841C24.7491 21.2331 24.7696 21.1737 24.7736 21.1121C24.7776 21.0506 24.765 20.989 24.7372 20.9339C24.7094 20.8788 24.6673 20.8322 24.6153 20.7989ZM24.6153 20.7989L19.2645 17.7388C19.0328 17.6076 18.8273 17.7738 18.8273 18.0404V24.012C18.8273 24.2743 19.0372 24.4492 19.2645 24.318L24.576 21.4022C24.6318 21.3759 24.6796 21.3351 24.7144 21.2841C24.7491 21.2331 24.7696 21.1737 24.7736 21.1121C24.7776 21.0506 24.765 20.989 24.7372 20.9339C24.7094 20.8788 24.6673 20.8322 24.6153 20.7989Z" fill="black"/>
</svg>
