<svg width="52" height="52" viewBox="0 0 52 52" fill="none" xmlns="http://www.w3.org/2000/svg">
<g opacity="0.8">
<rect x="1" y="51" width="50" height="50" rx="4" transform="rotate(-90 1 51)" fill="url(#paint0_linear_1545_619)" fill-opacity="0.24"/>
<rect x="1" y="51" width="50" height="50" rx="4" transform="rotate(-90 1 51)" stroke="url(#paint1_linear_1545_619)" stroke-linecap="round" stroke-linejoin="round"/>
<path d="M31.3858 32.0918L26.0015 26.5533L20.6172 32.0918" stroke="url(#paint2_linear_1545_619)" stroke-width="1.38462" stroke-linecap="round" stroke-linejoin="round"/>
<path d="M31.3858 32.0918L26.0015 26.5533L20.6172 32.0918" stroke="url(#paint3_linear_1545_619)" stroke-width="1.38462" stroke-linecap="round" stroke-linejoin="round"/>
<path d="M32.4621 26.5547L26.0006 19.9085L19.5391 26.5547" stroke="url(#paint4_linear_1545_619)" stroke-width="1.38462" stroke-linecap="round" stroke-linejoin="round"/>
<path d="M32.4621 26.5547L26.0006 19.9085L19.5391 26.5547" stroke="url(#paint5_linear_1545_619)" stroke-width="1.38462" stroke-linecap="round" stroke-linejoin="round"/>
</g>
<defs>
<linearGradient id="paint0_linear_1545_619" x1="51" y1="76" x2="1" y2="76" gradientUnits="userSpaceOnUse">
<stop stop-color="#990939"/>
<stop offset="1" stop-color="#C84A01"/>
</linearGradient>
<linearGradient id="paint1_linear_1545_619" x1="51" y1="76" x2="1" y2="76" gradientUnits="userSpaceOnUse">
<stop stop-color="#FF9966"/>
<stop offset="1" stop-color="white"/>
</linearGradient>
<linearGradient id="paint2_linear_1545_619" x1="26.0015" y1="26.5533" x2="26.0015" y2="32.0918" gradientUnits="userSpaceOnUse">
<stop stop-color="#990939"/>
<stop offset="1" stop-color="#C84A01"/>
</linearGradient>
<linearGradient id="paint3_linear_1545_619" x1="26.0015" y1="26.5533" x2="26.0015" y2="32.0918" gradientUnits="userSpaceOnUse">
<stop stop-color="#FF9966"/>
<stop offset="1" stop-color="white"/>
</linearGradient>
<linearGradient id="paint4_linear_1545_619" x1="26.0006" y1="19.9085" x2="26.0006" y2="26.5547" gradientUnits="userSpaceOnUse">
<stop stop-color="#990939"/>
<stop offset="1" stop-color="#C84A01"/>
</linearGradient>
<linearGradient id="paint5_linear_1545_619" x1="26.0006" y1="19.9085" x2="26.0006" y2="26.5547" gradientUnits="userSpaceOnUse">
<stop stop-color="#FF9966"/>
<stop offset="1" stop-color="white"/>
</linearGradient>
</defs>
</svg>
