<svg width="290" height="240" viewBox="0 0 290 240" fill="none" xmlns="http://www.w3.org/2000/svg">
<path d="M262.08 173.891L169.767 227.535C164.157 230.799 157.225 230.809 151.605 227.564L27.546 155.942C22.3612 152.949 22.3515 141.122 27.5267 138.119L121.79 87.6899C126.927 84.7065 133.27 84.6968 138.416 87.6706L262.061 154.706C267.767 157.999 267.776 170.58 262.08 173.891Z" fill="url(#paint0_linear_456_2811)"/>
<path d="M262.08 173.484L169.767 227.128C164.157 230.392 157.225 230.401 151.605 227.157L27.546 155.535C22.3612 152.542 22.3515 140.714 27.5267 137.712L121.79 87.2827C126.927 84.2992 133.27 84.2896 138.416 87.2634L262.061 154.29C267.767 157.592 267.776 170.172 262.08 173.484Z" fill="url(#paint1_linear_456_2811)"/>
<path d="M262.08 169.139L169.767 222.783C164.157 226.047 157.225 226.056 151.605 222.812L27.546 151.181C22.3612 148.188 22.3515 140.714 27.5267 137.702L121.79 82.9282C126.927 79.9448 133.27 79.9351 138.416 82.9089L262.061 154.29C267.767 157.592 267.776 165.828 262.08 169.139Z" fill="url(#paint2_linear_456_2811)" fill-opacity="0.48"/>
<path d="M149.143 111.247C149.143 118.479 146.275 125.044 141.621 129.862C136.745 134.912 129.91 138.05 122.34 138.05C112.096 138.05 103.184 132.295 98.675 123.847C96.6668 120.091 95.5371 115.804 95.5371 111.247C95.5371 100.472 101.89 91.1836 111.053 86.9257C114.481 85.3326 118.304 84.4443 122.34 84.4443C125.053 84.4443 127.679 84.8499 130.151 85.603C141.148 88.9436 149.143 99.1588 149.143 111.247Z" fill="url(#paint3_linear_456_2811)" stroke="#682600" stroke-width="0.482759" stroke-miterlimit="10"/>
<path d="M122.329 94.8634C127.315 94.8634 131.357 92.5334 131.357 89.6592C131.357 86.785 127.315 84.4551 122.329 84.4551C117.344 84.4551 113.302 86.785 113.302 89.6592C113.302 92.5334 117.344 94.8634 122.329 94.8634Z" stroke="#682600" stroke-width="0.482759" stroke-miterlimit="10"/>
<path d="M122.33 94.8633V138.051" stroke="#682600" stroke-width="0.482759" stroke-miterlimit="10"/>
<path d="M113.302 90.0059C113.302 90.0059 104.313 98.2031 104.313 113.69C104.313 129.177 117.628 137.635 117.628 137.635M131.338 90.0059C131.338 90.0059 140.414 98.2031 140.414 113.69C140.414 129.177 127.1 137.635 127.1 137.635" stroke="#682600" stroke-width="0.482759" stroke-miterlimit="10"/>
<path d="M96.6475 103.602C96.6475 103.602 99.4764 119.156 122.446 119.204C145.464 119.253 148.399 104.963 148.399 104.963" stroke="#682600" stroke-width="0.482759" stroke-miterlimit="10"/>
<path d="M103.368 92.3232C103.368 92.3232 102.615 107.269 122.446 107.318C143.601 107.376 143.553 94.8626 143.553 94.8626M96.4258 118.112C96.4258 118.112 106.689 131.842 122.331 131.726C137.972 131.61 147.608 120.207 147.608 120.207" stroke="#682600" stroke-width="0.482759" stroke-miterlimit="10"/>
<path opacity="0.38" d="M149.143 111.248C149.143 118.479 146.275 125.045 141.621 129.863C141.351 129.834 141.167 129.805 141.1 129.776C140.694 129.573 135.085 130.819 134.08 130.828C133.076 130.838 128.954 130.732 128.046 130.886C127.138 131.041 124.107 130.152 123.469 129.872C122.832 129.592 117.425 130.056 115.861 130.075C114.287 130.095 115.658 130.075 115.658 129.699C115.658 129.332 113.631 125.248 113.631 125.064C113.631 124.881 110.126 122.979 110.126 122.979L114.77 122.747C114.77 122.747 114.654 123.655 114.596 124.157C114.538 124.659 119.694 124.524 119.694 124.524C119.694 124.524 122.04 126.088 122.784 124.91C123.527 123.732 124.194 123.751 124.792 122.988C125.381 122.226 126.685 120.893 127.08 120.246C127.486 119.599 129.098 118.759 130.064 117.552C131.029 116.346 130.981 114.415 130.981 114.415L132.072 112.59C132.072 112.59 132.787 110.108 132.526 109.819C132.265 109.529 130.595 107.627 130.518 107.318C130.44 107.009 130.064 104.866 130.064 104.866L130.981 104.383L132.526 102.954L133.743 100.946C133.743 100.946 132.507 99.3235 132.072 99.3235C131.638 99.3235 132.217 96.9387 132.526 96.7456C132.835 96.5525 134.505 96.4559 133.743 95.5097C132.98 94.5539 134.129 94.3608 132.526 91.0201C130.923 87.6697 132.217 89.118 130.064 88.4035C127.911 87.689 129.436 85.8739 129.436 85.8739C129.436 85.8739 129.697 85.7773 130.141 85.6035C141.148 88.9442 149.143 99.1594 149.143 111.248Z" fill="#682600"/>
<path opacity="0.38" d="M123.257 116.673V119.551L121.432 118.836C121.432 118.836 119.26 118.151 118.797 118.102C118.333 118.064 119.212 118.064 118.333 118.064C117.454 118.064 115.707 118.102 115.707 118.102C115.707 118.102 115.128 117.803 115.253 116.673C115.379 115.544 115.533 114.414 115.533 114.414H113.988L111.98 111.402H109.518L108.427 112.686L108.021 113.825C108.021 113.825 107.857 115.843 107.51 115.94C107.162 116.027 106.225 116.76 105.965 117.195C105.704 117.639 104.41 118.827 103.966 118.836C103.512 118.846 101.61 118.836 101.61 118.836C101.61 118.836 99.5248 118.276 99.3221 118.836C99.1193 119.396 98.9648 120.98 99.3221 121.327C99.6793 121.685 100.336 123.007 99.6021 123.596C99.4862 123.683 99.1579 123.77 98.6848 123.857C96.6765 120.101 95.5469 115.814 95.5469 111.257C95.5469 100.482 101.9 91.1935 111.063 86.9355C111.063 86.9355 109.943 89.4652 109.692 89.6583C109.441 89.8514 108.823 90.4886 109.518 91.4831C110.213 92.4776 110.445 93.4045 110.985 93.8776C111.526 94.3507 112.231 94.3507 112.154 96.0018C112.077 97.6528 112.231 97.5369 112.154 98.5314C112.077 99.5259 112.125 100.173 112.154 100.839C112.183 101.496 113.785 102.548 115.07 103.62C116.363 104.682 117.493 105.348 117.638 105.782C117.783 106.217 116.808 106.256 118.343 108.264C119.878 110.282 120.341 111.257 120.341 111.257L122.021 112.473L122.803 113.825L123.257 116.673ZM128.355 96.8031L125.439 98.3286V101.756L128.355 100.424L128.992 101.38C128.992 101.38 129.668 101.38 129.649 100.81C129.63 100.231 128.355 96.8031 128.355 96.8031Z" fill="#682600"/>
<path d="M156.365 81.3152V127.525C156.365 128.529 156.896 129.466 157.775 129.968L207.982 161.357C209.179 162.052 212.317 159.908 212.317 158.518V113.254C212.317 112.907 212.259 112.559 212.153 112.231C211.911 111.488 211.4 110.85 210.705 110.445L158.46 80.1083C157.524 79.5772 156.365 80.2435 156.365 81.3152Z" fill="#682600"/>
<path d="M154.299 81.646L159.377 94.246L186.953 124.023L212.153 112.243C211.911 111.5 211.4 110.863 210.704 110.457L158.46 80.1205C157.031 79.3577 154.299 80.5743 154.299 81.646Z" fill="#FF7728"/>
<path d="M156.172 81.1714L208.416 111.508C209.42 112.087 210.028 113.159 210.028 114.318V159.571C210.028 160.962 208.522 161.821 207.325 161.126L155.496 131.021C154.627 130.519 154.096 129.582 154.096 128.578V82.3686C154.096 81.2969 155.254 80.6307 156.172 81.1714Z" fill="url(#paint4_linear_456_2811)"/>
<path d="M155.447 128.395L208.676 159.33V114.666L155.447 83.7305V128.395Z" fill="white"/>
<path d="M208.676 114.666L155.447 83.7305V88.3167L208.676 119.252V114.666Z" fill="#973700"/>
<path d="M203.55 122.523L160.517 97.5166V102.103L203.55 127.11V122.523Z" fill="#973700"/>
<path d="M206.456 115.932L191.374 107.214C191.104 107.059 190.872 106.702 190.872 106.432V106.335C190.872 106.065 191.094 105.968 191.374 106.123L206.456 114.841C206.726 114.996 206.958 115.353 206.958 115.623V115.72C206.958 116 206.736 116.087 206.456 115.932Z" fill="white"/>
<path d="M192.234 132.827L203.849 139.624C204.187 139.827 204.467 139.711 204.467 139.363C204.467 139.025 204.187 138.581 203.849 138.378L192.234 131.581C191.896 131.378 191.616 131.494 191.616 131.842C191.616 132.189 191.896 132.634 192.234 132.827Z" fill="#973700"/>
<path d="M161.135 118.219L203.849 143.197C204.187 143.4 204.467 143.284 204.467 142.937C204.467 142.599 204.187 142.154 203.849 141.952L161.135 116.974C160.797 116.771 160.517 116.887 160.517 117.234C160.517 117.582 160.797 118.017 161.135 118.219ZM161.135 121.377L203.849 146.354C204.187 146.557 204.467 146.441 204.467 146.094C204.467 145.756 204.187 145.312 203.849 145.109L161.135 120.131C160.797 119.928 160.517 120.044 160.517 120.392C160.517 120.739 160.797 121.174 161.135 121.377ZM171.118 130.375L203.859 149.521C204.197 149.724 204.477 149.608 204.477 149.261C204.477 148.923 204.197 148.479 203.859 148.276L171.118 129.13C170.78 128.927 170.5 129.043 170.5 129.39C170.49 129.728 170.77 130.172 171.118 130.375Z" fill="#FFCFB3"/>
<path d="M84.8487 142.676L80.3107 135.136L67.3149 144.115C67.1507 144.183 66.9866 144.25 66.8321 144.347C65.1618 145.399 64.8624 147.939 66.1755 150.024C67.3342 151.868 69.3618 152.737 70.9742 152.187L70.9838 152.177C71.1866 152.11 71.3893 152.013 71.5728 151.897C71.8238 151.733 72.0459 151.54 72.239 151.318L84.8487 142.676Z" fill="#C74900"/>
<path d="M85.447 142.388C87.1185 141.34 87.4125 138.798 86.1036 136.711C84.7948 134.624 82.3787 133.781 80.7072 134.83C79.0357 135.878 78.7417 138.419 80.0505 140.507C81.3594 142.594 83.7754 143.436 85.447 142.388Z" fill="#FFB489"/>
<path d="M88.6046 130.916L82.7535 135.048C82.7535 135.048 80.3108 136.333 81.508 138.882C82.5701 141.16 84.4528 140.658 84.4528 140.658L91.8101 135.657L88.6046 130.916Z" fill="#C74900"/>
<path d="M81.8468 112.446C81.8178 123.839 89.8219 137.713 99.7474 143.439C105.579 146.808 110.764 146.596 114.056 143.545C114.375 143.323 114.684 143.072 114.983 142.801C115.302 142.579 115.611 142.328 115.91 142.058C118.768 140.05 120.516 136.226 120.535 130.935C120.564 119.542 112.56 105.668 102.644 99.9422C96.8123 96.5725 91.6178 96.7753 88.3254 99.836C88.0068 100.058 87.6978 100.309 87.3985 100.579C87.0799 100.801 86.7709 101.053 86.4716 101.323C83.6137 103.331 81.8661 107.155 81.8468 112.446ZM113.236 140.127C110.416 141.479 106.651 141.121 102.528 138.746C93.7902 133.706 86.7323 121.473 86.7612 111.441C86.7709 107.937 87.6399 105.166 89.1461 103.254C91.975 101.902 95.7309 102.259 99.8633 104.644C108.601 109.684 115.659 121.908 115.63 131.949C115.611 135.444 114.732 138.215 113.236 140.127Z" fill="#C74900"/>
<path d="M81.8468 112.447C81.8178 123.84 89.8219 137.715 99.7378 143.44C109.654 149.166 117.716 144.56 117.745 133.177C117.754 128.011 116.123 122.334 113.4 117.14C113.381 117.091 113.352 117.053 113.332 117.005C112.077 114.629 110.6 112.351 108.939 110.275C106.274 106.925 103.175 104.096 99.8537 102.184C89.9474 96.4584 81.8854 101.054 81.8468 112.447ZM83.9902 113.683C83.9999 108.836 85.6606 105.389 88.364 103.68C91.2509 101.856 95.335 102.029 99.8537 104.636C108.592 109.676 115.65 121.909 115.621 131.941C115.611 135.89 114.501 138.912 112.627 140.824C109.741 143.759 105.048 144.049 99.7474 140.988C91.0192 135.948 83.9612 123.715 83.9902 113.683Z" fill="#FFB489"/>
<path opacity="0.3" d="M85.3702 112.563C85.3412 122.594 92.3992 134.828 101.137 139.868C105.656 142.474 109.73 142.648 112.627 140.823C114.5 138.921 115.61 135.89 115.62 131.941C115.649 121.899 108.591 109.676 99.853 104.636C95.3343 102.029 91.2502 101.845 88.3633 103.68C86.4902 105.582 85.3799 108.614 85.3702 112.563Z" fill="white"/>
<path d="M112.414 159.697L165.005 190.275C166.27 191.008 167.834 190.999 169.09 190.246L207.865 167.006C208.965 166.349 209.216 162.333 208.106 161.695L154.79 133.261C153.69 132.624 152.338 132.633 151.256 133.29L111.796 154.56C110.608 155.265 111.226 159.002 112.414 159.697Z" fill="url(#paint5_linear_456_2811)"/>
<path d="M112.414 157.079L165.006 187.657C166.271 188.391 167.835 188.381 169.09 187.628L207.865 164.388C208.966 163.732 208.946 162.129 207.846 161.492L154.791 130.634C153.69 129.997 152.338 130.006 151.257 130.663L112.395 153.951C111.207 154.675 111.226 156.394 112.414 157.079Z" fill="url(#paint6_linear_456_2811)"/>
<path d="M183.466 176.834C183.07 176.834 182.684 176.728 182.346 176.535L129.754 145.957C129.735 145.938 129.735 145.918 129.745 145.909L152.164 132.198C152.425 132.044 152.734 131.957 153.033 131.957C153.332 131.957 153.622 132.034 153.883 132.189L206.793 162.96L184.605 176.535C184.267 176.728 183.872 176.834 183.466 176.834Z" fill="url(#paint7_linear_456_2811)"/>
<path d="M155.35 137.7C155.331 137.7 155.302 137.691 155.283 137.681L152.27 135.914L154.626 134.562C154.645 134.553 154.665 134.553 154.674 134.553C154.694 134.553 154.713 134.553 154.723 134.562L157.754 136.339L155.418 137.681C155.399 137.691 155.379 137.7 155.35 137.7ZM159.492 140.172C159.473 140.172 159.444 140.162 159.425 140.153L156.412 138.386L158.768 137.034C158.787 137.024 158.807 137.024 158.816 137.024C158.836 137.024 158.855 137.024 158.865 137.034L161.896 138.811L159.56 140.153C159.541 140.162 159.512 140.172 159.492 140.172ZM163.634 142.634C163.615 142.634 163.586 142.624 163.567 142.615L160.554 140.848L162.91 139.496C162.93 139.487 162.949 139.487 162.959 139.487C162.978 139.487 162.997 139.487 163.007 139.496L166.039 141.273L163.702 142.615C163.673 142.634 163.654 142.634 163.634 142.634ZM167.767 145.106C167.748 145.106 167.719 145.096 167.699 145.087L164.687 143.32L167.043 141.968C167.062 141.958 167.081 141.958 167.091 141.958C167.11 141.958 167.13 141.958 167.139 141.968L170.171 143.744L167.834 145.087C167.815 145.096 167.796 145.106 167.767 145.106ZM171.909 147.578C171.89 147.578 171.861 147.568 171.841 147.558L168.829 145.791L171.185 144.44C171.204 144.43 171.223 144.43 171.233 144.43C171.252 144.43 171.272 144.43 171.281 144.44L174.313 146.216L171.976 147.558C171.957 147.568 171.928 147.578 171.909 147.578ZM176.051 150.04C176.032 150.04 176.003 150.03 175.983 150.02L172.971 148.253L175.327 146.902C175.346 146.892 175.365 146.892 175.375 146.892C175.394 146.892 175.414 146.892 175.423 146.902L178.455 148.678L176.119 150.02C176.09 150.04 176.07 150.04 176.051 150.04ZM180.183 152.511C180.164 152.511 180.135 152.502 180.116 152.492L177.103 150.725L179.459 149.373C179.479 149.364 179.498 149.364 179.508 149.364C179.527 149.364 179.546 149.364 179.556 149.373L182.588 151.15L180.251 152.492C180.232 152.502 180.212 152.511 180.183 152.511ZM184.325 154.983C184.306 154.983 184.277 154.973 184.258 154.964L181.245 153.197L183.601 151.845C183.621 151.835 183.64 151.835 183.65 151.835C183.669 151.835 183.688 151.835 183.698 151.845L186.73 153.622L184.393 154.964C184.374 154.973 184.345 154.983 184.325 154.983ZM188.458 157.445C188.439 157.445 188.41 157.435 188.39 157.426L185.378 155.659L187.734 154.307C187.753 154.298 187.772 154.298 187.782 154.298C187.801 154.298 187.821 154.298 187.83 154.307L190.862 156.084L188.525 157.426C188.506 157.445 188.487 157.445 188.458 157.445ZM192.6 159.917C192.581 159.917 192.552 159.907 192.532 159.898L189.52 158.131L191.876 156.779C191.895 156.769 191.914 156.769 191.924 156.769C191.943 156.769 191.963 156.769 191.972 156.779L195.004 158.555L192.667 159.898C192.648 159.907 192.629 159.917 192.6 159.917ZM196.742 162.379C196.723 162.379 196.694 162.369 196.674 162.36L193.662 160.593L196.018 159.241C196.037 159.231 196.056 159.231 196.066 159.231C196.085 159.231 196.105 159.231 196.114 159.241L199.146 161.018L196.81 162.36C196.79 162.379 196.761 162.379 196.742 162.379ZM151.401 140.278C151.382 140.278 151.353 140.269 151.334 140.259L148.321 138.492L150.677 137.14C150.696 137.131 150.716 137.131 150.725 137.131C150.745 137.131 150.764 137.131 150.774 137.14L153.805 138.917L151.469 140.259C151.45 140.269 151.421 140.278 151.401 140.278ZM155.543 142.75C155.524 142.75 155.495 142.74 155.476 142.731L152.463 140.964L154.819 139.612C154.839 139.602 154.858 139.602 154.867 139.602C154.887 139.602 154.906 139.602 154.916 139.612L157.947 141.389L155.611 142.731C155.582 142.74 155.563 142.75 155.543 142.75ZM159.676 145.212C159.656 145.212 159.627 145.202 159.608 145.193L156.596 143.426L158.952 142.074C158.971 142.064 158.99 142.064 159 142.064C159.019 142.064 159.039 142.064 159.048 142.074L162.08 143.851L159.743 145.193C159.724 145.212 159.705 145.212 159.676 145.212ZM163.818 147.684C163.799 147.684 163.77 147.674 163.75 147.664L160.738 145.898L163.094 144.546C163.113 144.536 163.132 144.536 163.142 144.536C163.161 144.536 163.181 144.536 163.19 144.546L166.222 146.322L163.885 147.664C163.866 147.674 163.837 147.684 163.818 147.684ZM167.95 150.155C167.931 150.155 167.902 150.146 167.883 150.136L164.87 148.369L167.226 147.018C167.245 147.008 167.265 147.008 167.274 147.008C167.294 147.008 167.313 147.008 167.323 147.018L170.354 148.794L168.018 150.136C167.999 150.146 167.979 150.155 167.95 150.155ZM172.092 152.618C172.073 152.618 172.044 152.608 172.025 152.598L169.012 150.831L171.368 149.48C171.387 149.47 171.407 149.47 171.416 149.47C171.436 149.47 171.455 149.47 171.465 149.48L174.496 151.256L172.16 152.598C172.141 152.618 172.121 152.618 172.092 152.618ZM176.234 155.089C176.215 155.089 176.186 155.08 176.167 155.07L173.154 153.303L175.51 151.951C175.53 151.942 175.549 151.942 175.559 151.942C175.578 151.942 175.597 151.942 175.607 151.951L178.639 153.728L176.302 155.07C176.283 155.08 176.254 155.089 176.234 155.089ZM180.367 157.551C180.348 157.551 180.319 157.542 180.299 157.532L177.287 155.765L179.643 154.413C179.662 154.404 179.681 154.404 179.691 154.404C179.71 154.404 179.73 154.404 179.739 154.413L182.771 156.19L180.434 157.532C180.415 157.551 180.396 157.551 180.367 157.551ZM184.509 160.023C184.49 160.023 184.461 160.013 184.441 160.004L181.429 158.237L183.785 156.885C183.804 156.875 183.823 156.875 183.833 156.875C183.852 156.875 183.872 156.875 183.881 156.885L186.913 158.662L184.576 160.004C184.557 160.013 184.538 160.023 184.509 160.023ZM188.651 162.495C188.632 162.495 188.603 162.485 188.583 162.475L185.571 160.709L187.927 159.357C187.946 159.347 187.965 159.347 187.975 159.347C187.994 159.347 188.014 159.347 188.023 159.357L191.055 161.133L188.719 162.475C188.699 162.485 188.67 162.495 188.651 162.495ZM192.783 164.957C192.764 164.957 192.735 164.947 192.716 164.938L189.703 163.171L192.059 161.819C192.079 161.809 192.098 161.809 192.108 161.809C192.127 161.809 192.146 161.809 192.156 161.819L195.188 163.595L192.851 164.938C192.832 164.957 192.812 164.957 192.783 164.957Z" fill="#FFCFB3"/>
<path d="M147.452 142.857C147.433 142.857 147.404 142.847 147.384 142.837L144.372 141.07L146.728 139.719C146.747 139.709 146.767 139.709 146.776 139.709C146.796 139.709 146.815 139.709 146.824 139.719L149.856 141.495L147.52 142.837C147.491 142.847 147.471 142.857 147.452 142.857ZM151.584 145.328C151.565 145.328 151.536 145.319 151.517 145.309L148.504 143.542L150.86 142.19C150.88 142.181 150.899 142.181 150.909 142.181C150.928 142.181 150.947 142.181 150.957 142.19L153.989 143.967L151.652 145.309C151.633 145.319 151.613 145.328 151.584 145.328ZM155.727 147.79C155.707 147.79 155.678 147.781 155.659 147.771L152.647 146.004L155.002 144.652C155.022 144.643 155.041 144.643 155.051 144.643C155.07 144.643 155.089 144.643 155.099 144.652L158.131 146.429L155.794 147.771C155.775 147.79 155.746 147.79 155.727 147.79ZM159.859 150.262C159.84 150.262 159.811 150.252 159.791 150.243L156.779 148.476L159.135 147.124C159.154 147.115 159.173 147.114 159.183 147.114C159.202 147.114 159.222 147.115 159.231 147.124L162.263 148.901L159.927 150.243C159.907 150.252 159.888 150.262 159.859 150.262ZM164.001 152.724C163.982 152.724 163.953 152.714 163.933 152.705L160.921 150.938L163.277 149.586C163.296 149.577 163.316 149.577 163.325 149.577C163.344 149.577 163.364 149.577 163.373 149.586L166.405 151.363L164.069 152.705C164.049 152.724 164.03 152.724 164.001 152.724ZM168.143 155.196C168.124 155.196 168.095 155.186 168.076 155.177L165.063 153.41L167.419 152.058C167.438 152.048 167.458 152.048 167.467 152.048C167.487 152.048 167.506 152.048 167.516 152.058L170.547 153.835L168.211 155.177C168.191 155.186 168.162 155.196 168.143 155.196ZM172.276 157.668C172.256 157.668 172.227 157.658 172.208 157.648L169.196 155.881L171.551 154.53C171.571 154.52 171.59 154.52 171.6 154.52C171.619 154.52 171.638 154.52 171.648 154.53L174.68 156.306L172.343 157.648C172.324 157.658 172.304 157.668 172.276 157.668ZM176.418 160.13C176.398 160.13 176.369 160.12 176.35 160.11L173.338 158.343L175.693 156.992C175.713 156.982 175.732 156.982 175.742 156.982C175.761 156.982 175.78 156.982 175.79 156.992L178.822 158.768L176.485 160.11C176.466 160.13 176.447 160.13 176.418 160.13ZM180.56 162.601C180.54 162.601 180.511 162.592 180.492 162.582L177.48 160.815L179.836 159.463C179.855 159.454 179.874 159.454 179.884 159.454C179.903 159.454 179.922 159.454 179.932 159.463L182.964 161.24L180.627 162.582C180.608 162.592 180.579 162.601 180.56 162.601ZM184.692 165.073C184.673 165.073 184.644 165.063 184.624 165.054L181.612 163.287L183.968 161.935C183.987 161.926 184.007 161.926 184.016 161.926C184.036 161.926 184.055 161.926 184.064 161.935L187.096 163.712L184.76 165.054C184.74 165.063 184.721 165.073 184.692 165.073ZM188.834 167.535C188.815 167.535 188.786 167.526 188.767 167.516L185.754 165.749L188.11 164.397C188.129 164.388 188.149 164.388 188.158 164.388C188.178 164.388 188.197 164.388 188.207 164.397L191.238 166.174L188.902 167.516C188.882 167.535 188.853 167.535 188.834 167.535Z" fill="#FFCFB3"/>
<path d="M143.493 145.435C143.474 145.435 143.445 145.425 143.425 145.415L140.413 143.648L142.769 142.297C142.788 142.287 142.808 142.287 142.817 142.287C142.837 142.287 142.856 142.287 142.866 142.297L145.897 144.073L143.561 145.415C143.541 145.425 143.522 145.435 143.493 145.435ZM147.635 147.897C147.616 147.897 147.587 147.887 147.568 147.877L144.555 146.111L146.911 144.759C146.93 144.749 146.95 144.749 146.959 144.749C146.979 144.749 146.998 144.749 147.008 144.759L150.039 146.535L147.703 147.877C147.683 147.897 147.654 147.897 147.635 147.897ZM151.768 150.368C151.748 150.368 151.719 150.359 151.7 150.349L148.688 148.582L151.043 147.231C151.063 147.221 151.082 147.221 151.092 147.221C151.111 147.221 151.13 147.221 151.14 147.231L154.172 149.007L151.835 150.349C151.816 150.359 151.797 150.368 151.768 150.368ZM155.91 152.84C155.89 152.84 155.861 152.831 155.842 152.821L152.83 151.054L155.186 149.702C155.205 149.693 155.224 149.693 155.234 149.693C155.253 149.693 155.272 149.693 155.282 149.702L158.314 151.479L155.977 152.821C155.958 152.831 155.939 152.84 155.91 152.84ZM160.052 155.302C160.032 155.302 160.003 155.293 159.984 155.283L156.972 153.516L159.328 152.164C159.347 152.155 159.366 152.155 159.376 152.155C159.395 152.155 159.414 152.155 159.424 152.164L162.456 153.941L160.119 155.283C160.1 155.302 160.071 155.302 160.052 155.302ZM164.184 157.774C164.165 157.774 164.136 157.764 164.117 157.755L161.104 155.988L163.46 154.636C163.479 154.626 163.499 154.626 163.508 154.626C163.528 154.626 163.547 154.626 163.557 154.636L166.588 156.413L164.252 157.755C164.232 157.764 164.213 157.774 164.184 157.774ZM168.326 160.246C168.307 160.246 168.278 160.236 168.259 160.226L165.246 158.46L167.602 157.108C167.621 157.098 167.641 157.098 167.65 157.098C167.67 157.098 167.689 157.098 167.699 157.108L170.73 158.884L168.394 160.226C168.374 160.236 168.355 160.246 168.326 160.246ZM172.468 162.708C172.449 162.708 172.42 162.698 172.401 162.688L169.388 160.922L171.744 159.57C171.763 159.56 171.783 159.56 171.792 159.56C171.812 159.56 171.831 159.56 171.841 159.57L174.872 161.346L172.536 162.688C172.517 162.708 172.488 162.708 172.468 162.708ZM176.601 165.18C176.581 165.18 176.552 165.17 176.533 165.16L173.521 163.393L175.877 162.042C175.896 162.032 175.915 162.032 175.925 162.032C175.944 162.032 175.963 162.032 175.973 162.042L179.005 163.818L176.668 165.16C176.649 165.17 176.63 165.18 176.601 165.18ZM180.743 167.651C180.723 167.651 180.694 167.642 180.675 167.632L177.663 165.865L180.019 164.513C180.038 164.504 180.057 164.504 180.067 164.504C180.086 164.504 180.105 164.504 180.115 164.513L183.147 166.29L180.81 167.632C180.791 167.642 180.762 167.651 180.743 167.651ZM184.885 170.113C184.865 170.113 184.837 170.104 184.817 170.094L181.805 168.327L184.161 166.975C184.18 166.966 184.199 166.966 184.209 166.966C184.228 166.966 184.248 166.966 184.257 166.975L187.289 168.752L184.952 170.094C184.933 170.113 184.904 170.113 184.885 170.113Z" fill="#FFCFB3"/>
<path d="M139.545 148.013C139.526 148.013 139.497 148.003 139.477 147.994L136.465 146.227L138.821 144.875C138.84 144.865 138.859 144.865 138.869 144.865C138.888 144.865 138.908 144.865 138.917 144.875L141.949 146.651L139.612 147.994C139.593 148.003 139.564 148.013 139.545 148.013ZM143.677 150.475C143.658 150.475 143.629 150.465 143.61 150.456L140.597 148.689L142.953 147.337C142.972 147.327 142.992 147.327 143.001 147.327C143.021 147.327 143.04 147.327 143.05 147.337L146.081 149.114L143.745 150.456C143.726 150.475 143.706 150.475 143.677 150.475ZM147.819 152.947C147.8 152.947 147.771 152.937 147.752 152.927L144.739 151.16L147.095 149.809C147.114 149.799 147.134 149.799 147.143 149.799C147.163 149.799 147.182 149.799 147.192 149.809L150.223 151.585L147.887 152.927C147.868 152.937 147.848 152.947 147.819 152.947ZM151.961 155.418C151.942 155.418 151.913 155.409 151.894 155.399L148.881 153.632L151.237 152.28C151.257 152.271 151.276 152.271 151.286 152.271C151.305 152.271 151.324 152.271 151.334 152.28L154.366 154.057L152.029 155.399C152.01 155.409 151.981 155.418 151.961 155.418ZM156.094 157.88C156.075 157.88 156.046 157.871 156.026 157.861L153.014 156.094L155.37 154.742C155.389 154.733 155.408 154.733 155.418 154.733C155.437 154.733 155.457 154.733 155.466 154.742L158.498 156.519L156.161 157.861C156.142 157.88 156.123 157.88 156.094 157.88ZM160.236 160.352C160.217 160.352 160.188 160.342 160.168 160.333L157.156 158.566L159.512 157.214C159.531 157.205 159.55 157.205 159.56 157.205C159.579 157.205 159.599 157.205 159.608 157.214L162.64 158.991L160.303 160.333C160.284 160.342 160.255 160.352 160.236 160.352ZM164.378 162.824C164.359 162.824 164.33 162.814 164.31 162.805L161.298 161.038L163.654 159.686C163.673 159.676 163.692 159.676 163.702 159.676C163.721 159.676 163.741 159.676 163.75 159.686L166.782 161.462L164.446 162.805C164.426 162.814 164.397 162.824 164.378 162.824ZM168.51 165.286C168.491 165.286 168.462 165.276 168.443 165.267L165.43 163.5L167.786 162.148C167.806 162.138 167.825 162.138 167.834 162.138C167.854 162.138 167.873 162.138 167.883 162.148L170.915 163.925L168.578 165.267C168.559 165.286 168.539 165.286 168.51 165.286ZM172.652 167.758C172.633 167.758 172.604 167.748 172.585 167.738L169.572 165.971L171.928 164.62C171.948 164.61 171.967 164.61 171.977 164.61C171.996 164.61 172.015 164.61 172.025 164.62L175.057 166.396L172.72 167.738C172.701 167.748 172.672 167.758 172.652 167.758ZM176.795 170.22C176.775 170.22 176.746 170.21 176.727 170.2L173.715 168.434L176.07 167.082C176.09 167.072 176.109 167.072 176.119 167.072C176.138 167.072 176.157 167.072 176.167 167.082L179.199 168.858L176.862 170.2C176.843 170.22 176.814 170.22 176.795 170.22ZM180.927 172.691C180.908 172.691 180.879 172.682 180.859 172.672L177.847 170.905L180.203 169.554C180.222 169.544 180.241 169.544 180.251 169.544C180.27 169.544 180.29 169.544 180.299 169.554L183.331 171.33L180.995 172.672C180.975 172.682 180.956 172.691 180.927 172.691Z" fill="#FFCFB3"/>
<path d="M200.035 121.821L184.181 130.259C181.121 132.026 178.485 134.343 176.39 137.047C172.769 141.701 170.712 147.494 170.712 153.586V165.105C170.712 171.844 167.121 178.062 161.289 181.441L145.339 191.28L140.501 194.263C136.832 196.387 134.564 200.317 134.564 204.556V213.815L98.627 192.67V183.411C98.627 179.172 100.886 175.243 104.555 173.119L111.159 169.054L125.352 160.296C131.175 156.917 134.766 150.69 134.766 143.96V132.441C134.766 126.445 136.765 120.72 140.279 116.105C142.403 113.314 145.097 110.93 148.226 109.114L164.079 100.676L200.035 121.821Z" fill="url(#paint8_linear_456_2811)"/>
<path d="M176.399 137.055C172.779 141.709 170.722 147.502 170.722 153.595V165.113C170.722 171.853 167.13 178.071 161.299 181.45L145.348 191.288L111.169 169.062L125.362 160.305C131.184 156.926 134.776 150.698 134.776 143.968V132.45C134.776 126.454 136.774 120.728 140.289 116.113L176.399 137.055Z" fill="white"/>
<g opacity="0.42">
<path d="M163.896 151.653L140.82 138.329C140.772 138.3 140.762 138.252 140.791 138.204L141.544 136.91C141.573 136.862 141.621 136.852 141.67 136.881L164.746 150.205C164.794 150.234 164.804 150.282 164.775 150.331L164.021 151.624C164.002 151.663 163.944 151.682 163.896 151.653ZM185.697 121.211L162.621 107.886C162.573 107.857 162.564 107.809 162.593 107.761L163.346 106.467C163.375 106.419 163.423 106.409 163.471 106.438L186.547 119.762C186.595 119.791 186.605 119.84 186.576 119.888L185.823 121.182C185.794 121.22 185.736 121.24 185.697 121.211ZM178.997 125.497L155.921 112.173C155.873 112.144 155.863 112.096 155.892 112.048L156.645 110.754C156.674 110.706 156.722 110.696 156.77 110.725L179.846 124.049C179.895 124.078 179.904 124.126 179.875 124.175L179.122 125.469C179.103 125.507 179.045 125.526 178.997 125.497ZM163.259 158.257L140.183 144.933C140.135 144.904 140.125 144.856 140.154 144.808L140.907 143.514C140.936 143.466 140.984 143.456 141.033 143.485L164.108 156.809C164.157 156.838 164.166 156.886 164.137 156.935L163.384 158.229C163.355 158.267 163.297 158.277 163.259 158.257ZM163.259 165.846L140.183 152.522C140.135 152.493 140.125 152.445 140.154 152.397L140.907 151.103C140.936 151.055 140.984 151.045 141.033 151.074L164.108 164.398C164.157 164.427 164.166 164.475 164.137 164.524L163.384 165.817C163.355 165.856 163.297 165.875 163.259 165.846ZM159.377 171.263L136.301 157.939C136.253 157.91 136.244 157.862 136.273 157.813L137.026 156.52C137.055 156.471 137.103 156.462 137.151 156.491L160.227 169.815C160.275 169.844 160.285 169.892 160.256 169.94L159.503 171.234C159.474 171.273 159.426 171.282 159.377 171.263ZM155.235 176.274L132.159 162.95C132.111 162.921 132.101 162.873 132.13 162.824L132.884 161.531C132.913 161.482 132.961 161.473 133.009 161.502L156.085 174.826C156.133 174.855 156.143 174.903 156.114 174.951L155.361 176.245C155.341 176.284 155.284 176.303 155.235 176.274ZM149.597 179.692L126.521 166.368C126.473 166.339 126.463 166.291 126.492 166.242L127.245 164.949C127.274 164.9 127.322 164.891 127.37 164.92L150.446 178.244C150.495 178.273 150.504 178.321 150.475 178.369L149.722 179.663C149.693 179.702 149.645 179.721 149.597 179.692ZM143.958 183.11L120.882 169.786C120.834 169.757 120.824 169.709 120.853 169.66L121.606 168.366C121.635 168.318 121.684 168.309 121.732 168.337L144.808 181.662C144.856 181.691 144.866 181.739 144.837 181.787L144.084 183.081C144.055 183.12 143.997 183.129 143.958 183.11Z" fill="#FF7B2F"/>
<path d="M132.526 191.625L110.145 177.152C110.107 177.123 110.088 177.065 110.116 177.027L110.928 175.771C110.956 175.733 111.014 175.713 111.053 175.742L133.434 190.216C133.472 190.245 133.492 190.302 133.463 190.341L132.652 191.596C132.632 191.645 132.574 191.654 132.526 191.625Z" fill="white"/>
</g>
<path d="M111.966 192.45C112.439 192.203 112.623 191.62 112.376 191.147C112.13 190.675 111.547 190.491 111.074 190.737C110.601 190.984 110.418 191.567 110.664 192.04C110.91 192.513 111.494 192.696 111.966 192.45Z" fill="#FF7B2F"/>
<path d="M115.672 195.038C116.145 194.791 116.329 194.208 116.082 193.735C115.836 193.262 115.253 193.079 114.78 193.325C114.307 193.572 114.124 194.155 114.37 194.628C114.616 195.101 115.2 195.284 115.672 195.038Z" fill="#FF7B2F"/>
<path d="M119.38 197.625C119.852 197.378 120.036 196.795 119.79 196.322C119.543 195.849 118.96 195.666 118.487 195.912C118.014 196.159 117.831 196.742 118.077 197.215C118.324 197.687 118.907 197.871 119.38 197.625Z" fill="#FF7B2F"/>
<path d="M225.667 141.759L230.408 139.007L231.296 136.274L226.555 139.026L225.667 141.759Z" fill="#D95000"/>
<path d="M216.118 120.951L220.859 118.199L218.04 117.581L213.299 120.333L216.118 120.951Z" fill="#FFD8C1"/>
<path d="M220.213 127.063C220.203 127.006 220.194 126.957 220.184 126.899C220.184 126.87 220.174 126.851 220.174 126.822C220.174 126.812 220.174 126.812 220.174 126.803C220.155 126.687 220.145 126.571 220.136 126.455C220.136 126.426 220.136 126.407 220.136 126.378C220.126 126.262 220.126 126.146 220.126 126.021C220.126 124.737 220.58 123.839 221.314 123.414L226.054 120.662C225.33 121.087 224.876 121.985 224.867 123.269C224.867 123.385 224.867 123.501 224.876 123.626C224.876 123.655 224.876 123.675 224.876 123.703C224.886 123.819 224.896 123.935 224.915 124.051C224.915 124.08 224.925 124.119 224.925 124.148C224.934 124.206 224.944 124.254 224.954 124.312C224.963 124.35 224.963 124.389 224.973 124.418C224.983 124.466 224.992 124.524 225.002 124.572C225.011 124.611 225.021 124.659 225.031 124.698C225.04 124.737 225.05 124.766 225.06 124.804C225.069 124.852 225.079 124.901 225.098 124.939C225.108 124.978 225.118 125.007 225.127 125.046C225.137 125.075 225.147 125.103 225.147 125.132C225.176 125.248 225.214 125.364 225.253 125.48C225.253 125.49 225.263 125.499 225.263 125.509C225.301 125.625 225.34 125.731 225.388 125.847C225.398 125.876 225.407 125.905 225.417 125.934C225.456 126.03 225.494 126.127 225.533 126.223C225.543 126.233 225.543 126.252 225.552 126.262C225.6 126.368 225.649 126.475 225.697 126.571C225.707 126.6 225.726 126.629 225.736 126.648C225.774 126.726 225.813 126.812 225.861 126.89C225.871 126.919 225.89 126.938 225.9 126.967C225.958 127.073 226.006 127.17 226.064 127.266C226.074 127.286 226.083 127.305 226.093 127.324C226.141 127.411 226.199 127.498 226.247 127.585C226.267 127.614 226.276 127.633 226.296 127.662C226.363 127.768 226.431 127.865 226.498 127.971C226.508 127.99 226.518 128 226.527 128.019C226.605 128.126 226.672 128.222 226.749 128.328C226.759 128.338 226.769 128.357 226.778 128.367C226.875 128.492 226.971 128.608 227.078 128.734C227.087 128.753 227.107 128.763 227.116 128.782C227.184 128.85 227.242 128.927 227.309 128.995L227.319 129.004C227.387 129.081 227.454 129.149 227.522 129.217C227.57 129.265 227.609 129.303 227.657 129.342C227.667 129.352 227.686 129.361 227.696 129.381C227.754 129.439 227.811 129.487 227.879 129.545C227.898 129.555 227.908 129.574 227.927 129.583C227.976 129.622 228.014 129.661 228.063 129.699C228.082 129.719 228.111 129.738 228.13 129.757C228.169 129.786 228.207 129.825 228.246 129.854C228.275 129.873 228.294 129.892 228.323 129.912C228.362 129.941 228.4 129.97 228.439 129.999C228.458 130.018 228.487 130.037 228.507 130.047C228.545 130.076 228.594 130.105 228.642 130.134C228.661 130.143 228.68 130.163 228.7 130.172C228.767 130.211 228.825 130.25 228.893 130.288C228.98 130.337 229.067 130.385 229.154 130.423C229.183 130.433 229.202 130.443 229.231 130.462C229.298 130.491 229.356 130.52 229.424 130.549C229.443 130.559 229.472 130.568 229.491 130.578C229.549 130.607 229.607 130.626 229.675 130.646C229.694 130.655 229.704 130.655 229.723 130.665C229.8 130.694 229.868 130.713 229.945 130.732C229.984 130.742 230.032 130.752 230.071 130.761C230.09 130.761 230.109 130.771 230.129 130.771C230.187 130.781 230.254 130.8 230.312 130.81H230.322C230.38 130.819 230.428 130.829 230.486 130.829C230.505 130.829 230.525 130.829 230.544 130.829C230.573 130.829 230.611 130.829 230.64 130.839C230.718 130.839 230.795 130.839 230.872 130.839C230.882 130.839 230.901 130.839 230.911 130.839C230.969 130.839 231.036 130.829 231.094 130.819C231.114 130.819 231.133 130.81 231.152 130.81C231.22 130.8 231.287 130.781 231.355 130.761H231.365C231.423 130.742 231.49 130.723 231.548 130.694C231.567 130.684 231.587 130.675 231.596 130.675C231.645 130.655 231.693 130.626 231.751 130.597C231.77 130.588 231.78 130.578 231.799 130.568L227.058 133.32C227.049 133.32 227.039 133.33 227.039 133.33C227.029 133.33 227.02 133.339 227.01 133.339C226.962 133.368 226.914 133.388 226.865 133.417C226.856 133.417 226.846 133.426 226.836 133.426C226.827 133.426 226.817 133.436 226.817 133.436C226.759 133.455 226.701 133.484 226.634 133.503C226.634 133.503 226.634 133.503 226.624 133.503C226.556 133.523 226.489 133.542 226.421 133.552C226.411 133.552 226.402 133.552 226.402 133.561C226.392 133.561 226.383 133.561 226.373 133.561C226.315 133.571 226.247 133.581 226.189 133.581C226.18 133.581 226.17 133.581 226.16 133.581H226.151C226.074 133.581 225.996 133.581 225.919 133.581C225.909 133.581 225.9 133.581 225.9 133.581C225.871 133.581 225.851 133.581 225.823 133.571C225.803 133.571 225.784 133.571 225.765 133.571C225.707 133.561 225.658 133.561 225.6 133.552H225.591C225.533 133.542 225.465 133.532 225.407 133.513C225.388 133.513 225.369 133.503 225.349 133.494C225.311 133.484 225.272 133.475 225.234 133.465H225.224C225.156 133.446 225.079 133.426 225.002 133.397C224.983 133.388 224.973 133.388 224.954 133.378C224.896 133.359 224.838 133.33 224.77 133.31C224.76 133.31 224.751 133.301 224.751 133.301C224.731 133.291 224.722 133.291 224.703 133.281C224.635 133.252 224.577 133.223 224.509 133.195C224.48 133.185 224.461 133.175 224.432 133.156C224.345 133.117 224.258 133.069 224.171 133.021C224.104 132.982 224.046 132.943 223.978 132.905C223.959 132.895 223.94 132.876 223.911 132.866C223.863 132.837 223.824 132.808 223.785 132.779C223.756 132.76 223.737 132.75 223.718 132.731C223.679 132.702 223.64 132.673 223.602 132.644C223.573 132.625 223.554 132.606 223.525 132.586C223.486 132.557 223.447 132.528 223.409 132.49C223.389 132.47 223.36 132.451 223.341 132.432C223.293 132.393 223.254 132.355 223.206 132.316C223.187 132.306 223.177 132.287 223.158 132.277C223.1 132.229 223.042 132.171 222.974 132.113C222.965 132.103 222.945 132.084 222.936 132.075C222.897 132.036 222.858 131.997 222.82 131.959C222.81 131.949 222.81 131.949 222.8 131.939C222.733 131.872 222.665 131.795 222.598 131.727L222.588 131.717C222.52 131.65 222.463 131.572 222.395 131.505C222.385 131.495 222.385 131.495 222.376 131.486C222.366 131.476 222.356 131.466 222.356 131.457C222.25 131.341 222.154 131.215 222.057 131.09L222.047 131.08C222.038 131.07 222.038 131.061 222.028 131.051C221.951 130.955 221.874 130.848 221.806 130.742C221.796 130.732 221.787 130.723 221.787 130.713C221.787 130.703 221.777 130.703 221.777 130.694C221.709 130.597 221.642 130.491 221.574 130.385C221.565 130.375 221.565 130.366 221.555 130.356C221.545 130.337 221.536 130.327 221.526 130.308C221.468 130.221 221.42 130.134 221.371 130.047C221.362 130.037 221.352 130.018 221.343 130.008C221.343 129.999 221.333 129.999 221.333 129.989C221.275 129.892 221.217 129.786 221.169 129.69C221.169 129.68 221.159 129.67 221.159 129.661C221.149 129.641 221.14 129.622 221.13 129.612C221.091 129.535 221.043 129.448 221.005 129.371C220.995 129.352 220.985 129.342 220.976 129.323C220.966 129.313 220.966 129.303 220.966 129.294C220.918 129.188 220.869 129.091 220.821 128.985V128.975C220.811 128.966 220.811 128.956 220.811 128.937C220.773 128.84 220.734 128.743 220.696 128.657C220.686 128.637 220.686 128.628 220.676 128.608C220.667 128.599 220.667 128.579 220.667 128.57C220.628 128.454 220.58 128.348 220.541 128.232C220.541 128.232 220.541 128.232 220.541 128.222C220.541 128.212 220.541 128.212 220.531 128.203C220.493 128.087 220.454 127.971 220.425 127.855C220.425 127.836 220.416 127.826 220.416 127.807C220.416 127.797 220.406 127.778 220.406 127.768C220.396 127.73 220.387 127.701 220.377 127.662C220.367 127.614 220.358 127.566 220.338 127.527C220.329 127.488 220.319 127.459 220.309 127.421C220.3 127.392 220.3 127.372 220.29 127.343C220.29 127.324 220.28 127.305 220.28 127.295C220.271 127.247 220.261 127.189 220.251 127.141C220.223 127.131 220.213 127.102 220.213 127.063Z" fill="#E25300"/>
<mask id="mask0_456_2811" style="mask-type:luminance" maskUnits="userSpaceOnUse" x="231" y="138" width="7" height="4">
<path d="M231.982 141.845L236.723 139.093C236.878 139.006 237.013 138.9 237.148 138.784L232.407 141.536C232.282 141.652 232.137 141.758 231.982 141.845Z" fill="white"/>
</mask>
<g mask="url(#mask0_456_2811)">
<path d="M231.982 141.845L236.723 139.093C236.878 139.006 237.013 138.9 237.148 138.784L232.407 141.536C232.282 141.652 232.137 141.758 231.982 141.845Z" fill="#E25300"/>
</g>
<mask id="mask1_456_2811" style="mask-type:luminance" maskUnits="userSpaceOnUse" x="216" y="111" width="6" height="4">
<path d="M221.121 112.138L216.38 114.89C216.544 114.793 216.718 114.716 216.901 114.668L221.642 111.916C221.459 111.974 221.285 112.042 221.121 112.138Z" fill="white"/>
</mask>
<g mask="url(#mask1_456_2811)">
<path d="M216.902 114.668L221.642 111.916C221.555 111.945 221.478 111.974 221.401 112.003L216.66 114.755C216.737 114.726 216.815 114.697 216.902 114.668Z" fill="#FF711F"/>
<path d="M216.65 114.754L221.391 112.002C221.304 112.041 221.217 112.079 221.14 112.127L216.399 114.879C216.486 114.831 216.573 114.792 216.65 114.754Z" fill="#FF6C17"/>
<path d="M216.409 114.88L221.15 112.128C221.14 112.138 221.13 112.138 221.121 112.147L216.38 114.899C216.39 114.889 216.399 114.88 216.409 114.88Z" fill="#FF660E"/>
</g>
<path d="M232.407 141.535L237.148 138.774L237.679 138.291L232.938 141.043L232.407 141.535Z" fill="#D95000"/>
<path d="M217.587 114.462L222.328 111.7L221.642 111.913L216.901 114.664L217.587 114.462Z" fill="#FF7729"/>
<path d="M232.938 141.043L237.679 138.292L236.308 134.497L231.567 137.249L232.938 141.043Z" fill="#FFD8C1"/>
<path d="M220.194 117.551L224.934 114.79L222.328 111.7L217.587 114.462L220.194 117.551Z" fill="#FFD8C1"/>
<mask id="mask2_456_2811" style="mask-type:luminance" maskUnits="userSpaceOnUse" x="231" y="133" width="6" height="5">
<path d="M231.566 137.252L236.307 134.5C236.587 134.075 236.809 133.583 236.983 133.032L232.242 135.784C232.068 136.334 231.846 136.827 231.566 137.252Z" fill="white"/>
</mask>
<g mask="url(#mask2_456_2811)">
<path d="M231.566 137.252L236.307 134.5C236.587 134.075 236.809 133.583 236.983 133.032L232.242 135.784C232.068 136.334 231.846 136.827 231.566 137.252Z" fill="#E25300"/>
</g>
<path d="M221.352 117.62C221.236 117.601 221.111 117.582 220.995 117.572C220.985 117.572 220.975 117.572 220.966 117.572C220.84 117.563 220.715 117.553 220.599 117.553C220.579 117.553 220.55 117.553 220.531 117.553C220.415 117.553 220.299 117.553 220.184 117.553L224.924 114.801C225.04 114.792 225.156 114.792 225.272 114.801C225.291 114.801 225.32 114.801 225.339 114.801C225.359 114.801 225.378 114.801 225.397 114.801C225.504 114.801 225.61 114.811 225.706 114.82C225.716 114.82 225.726 114.82 225.735 114.82C225.832 114.83 225.928 114.84 226.025 114.859C226.044 114.859 226.073 114.869 226.093 114.869C226.122 114.869 226.141 114.878 226.17 114.878C226.295 114.898 226.421 114.927 226.546 114.956L221.806 117.707C221.68 117.678 221.555 117.649 221.429 117.63C221.41 117.63 221.381 117.63 221.352 117.62Z" fill="#FF823A"/>
<path d="M232.098 129.623C232.069 129.498 232.03 129.382 231.991 129.256C231.972 129.208 231.962 129.15 231.943 129.102C231.895 128.947 231.847 128.793 231.798 128.638C231.789 128.619 231.789 128.609 231.779 128.59C231.721 128.407 231.654 128.223 231.586 128.04L236.327 125.288C236.394 125.472 236.452 125.645 236.52 125.829V125.838C236.529 125.858 236.529 125.867 236.529 125.887C236.578 126.041 236.626 126.196 236.674 126.35C236.694 126.398 236.703 126.456 236.722 126.505C236.742 126.563 236.761 126.62 236.771 126.688C236.79 126.756 236.8 126.814 236.819 126.881C236.829 126.929 236.848 126.978 236.858 127.036C236.896 127.2 236.945 127.374 236.983 127.538L232.242 130.289C232.204 130.125 232.165 129.952 232.117 129.787C232.127 129.72 232.107 129.672 232.098 129.623Z" fill="#FF6106"/>
<path d="M227.618 121.501C227.57 121.443 227.522 121.395 227.464 121.337C227.348 121.211 227.222 121.086 227.097 120.96C227.068 120.931 227.049 120.912 227.02 120.883C226.875 120.748 226.74 120.612 226.595 120.477L231.335 117.726C231.48 117.861 231.625 117.996 231.76 118.131C231.76 118.131 231.77 118.131 231.77 118.141C231.789 118.16 231.818 118.189 231.837 118.208C231.963 118.334 232.079 118.45 232.204 118.585C232.253 118.643 232.301 118.691 232.349 118.749C232.446 118.846 232.533 118.952 232.629 119.058C232.649 119.077 232.668 119.097 232.687 119.116C232.774 119.222 232.861 119.319 232.948 119.425L228.207 122.177C228.101 122.051 227.995 121.926 227.889 121.8C227.802 121.704 227.715 121.597 227.618 121.501Z" fill="#FF985C"/>
<path d="M235.072 132.904L239.813 130.152L237.003 127.517L232.263 130.268L235.072 132.904Z" fill="#FFD8C1"/>
<path d="M235.178 135.493C235.236 135.02 235.236 134.508 235.178 133.957L235.062 132.905L239.803 130.153L239.919 131.206C239.977 131.746 239.977 132.268 239.919 132.741L239.803 133.658L235.062 136.41L235.178 135.493Z" fill="#F65A00"/>
<path d="M227.435 112.224L228.294 112.591C228.516 112.687 228.738 112.793 228.961 112.928C229.183 113.054 229.405 113.199 229.627 113.363L230.486 113.991L225.745 116.742L224.886 116.115C224.664 115.951 224.442 115.806 224.22 115.68C223.998 115.555 223.776 115.439 223.554 115.342L222.694 114.975L227.435 112.224Z" fill="#FFD8C1"/>
<path d="M226.605 120.477L231.346 117.726L230.477 113.979L225.736 116.731L226.605 120.477Z" fill="#FF640A"/>
<path d="M231.596 128.038L236.336 125.277L237.717 123.075L232.976 125.827L231.596 128.038Z" fill="#D95000"/>
<path d="M230.833 122.111L235.574 119.35L232.957 119.427L228.217 122.179L230.833 122.111Z" fill="#FF8C4A"/>
<path d="M232.137 124.119C232.099 124.042 232.051 123.965 232.002 123.888C231.973 123.83 231.935 123.772 231.896 123.714C231.848 123.637 231.8 123.55 231.751 123.472C231.674 123.347 231.597 123.231 231.52 123.115L230.834 122.111L235.575 119.359L236.26 120.364C236.337 120.47 236.405 120.576 236.473 120.692C236.482 120.701 236.482 120.711 236.492 120.721C236.54 120.798 236.588 120.885 236.637 120.962C236.666 121.01 236.695 121.059 236.724 121.107C236.724 121.117 236.733 121.126 236.733 121.136C236.782 121.213 236.82 121.29 236.868 121.368C236.897 121.426 236.926 121.474 236.955 121.532C236.955 121.541 236.965 121.541 236.965 121.551C237.004 121.628 237.052 121.715 237.091 121.792C237.12 121.85 237.148 121.899 237.177 121.957C237.177 121.966 237.187 121.976 237.187 121.986L237.708 123.077L232.968 125.828L232.446 124.737C232.417 124.67 232.379 124.612 232.35 124.544C232.311 124.457 232.273 124.38 232.224 124.303C232.205 124.235 232.166 124.177 232.137 124.119Z" fill="#FFD8C1"/>
<path d="M213.299 120.332L216.118 120.95C216.292 120.4 216.514 119.907 216.794 119.483L215.423 115.688L215.954 115.205C216.225 114.954 216.543 114.771 216.9 114.665L217.586 114.462L220.193 117.552C220.705 117.532 221.245 117.581 221.805 117.716L222.694 114.983L223.553 115.35C223.775 115.447 223.997 115.553 224.219 115.688C224.441 115.814 224.663 115.958 224.885 116.123L225.745 116.75L226.614 120.496C227.174 121.018 227.714 121.587 228.226 122.196L230.843 122.128L231.528 123.132C231.885 123.644 232.194 124.194 232.465 124.764L232.986 125.855L231.605 128.066C231.876 128.81 232.098 129.563 232.271 130.306L235.091 132.942L235.207 133.994C235.265 134.535 235.265 135.056 235.207 135.529L235.091 136.447L232.271 135.819C232.098 136.369 231.876 136.862 231.596 137.287L232.967 141.081L232.436 141.564C232.165 141.815 231.847 141.998 231.489 142.105L230.804 142.307L228.197 139.218C227.685 139.237 227.145 139.189 226.585 139.054L225.696 141.786L224.837 141.419C224.615 141.323 224.393 141.216 224.171 141.081C223.949 140.956 223.727 140.811 223.505 140.647L222.645 140.019L221.776 136.273C221.216 135.752 220.676 135.182 220.164 134.574L217.547 134.641L216.862 133.647C216.505 133.125 216.196 132.585 215.925 132.015L215.404 130.924L216.785 128.713C216.514 127.969 216.283 127.216 216.118 126.473L213.299 123.837L213.193 122.785C213.135 122.244 213.135 121.723 213.193 121.25L213.299 120.332ZM224.171 133.038C226.411 134.332 228.236 133.29 228.245 130.721C228.255 128.143 226.44 125.005 224.2 123.712C221.96 122.418 220.135 123.461 220.125 126.029C220.116 128.597 221.921 131.735 224.171 133.038Z" fill="#FFB489"/>
<path d="M213.309 109.491L219.565 105.851L220.724 102.25L214.477 105.88L213.309 109.491Z" fill="#D95000"/>
<path d="M200.718 82.0496L206.965 78.4096L203.248 77.5889L196.991 81.2289L200.718 82.0496Z" fill="#FFD8C1"/>
<path d="M206.106 90.1017C206.096 90.0341 206.087 89.9569 206.077 89.8893C206.077 89.8507 206.067 89.8217 206.058 89.7831C206.058 89.7734 206.058 89.7638 206.058 89.7541C206.038 89.5996 206.019 89.4452 206.009 89.2907C206.009 89.2617 206.009 89.2231 206 89.1941C205.99 89.0396 205.98 88.8852 205.98 88.7307C205.98 87.041 206.579 85.8534 207.545 85.2934L213.801 81.6631C212.836 82.2231 212.247 83.4107 212.237 85.1003C212.237 85.2548 212.247 85.4093 212.256 85.5638C212.256 85.5927 212.256 85.6314 212.266 85.6603C212.276 85.8148 212.295 85.9693 212.314 86.1238C212.324 86.1624 212.324 86.2107 212.334 86.2493C212.343 86.3169 212.353 86.3941 212.363 86.4617C212.372 86.51 212.382 86.5583 212.391 86.6065C212.401 86.6741 212.42 86.7417 212.43 86.819C212.44 86.8769 212.449 86.9348 212.469 86.9831C212.478 87.0314 212.488 87.0796 212.498 87.1279C212.517 87.1858 212.527 87.2534 212.546 87.3114C212.556 87.3596 212.565 87.4079 212.585 87.4465C212.594 87.4852 212.604 87.5238 212.614 87.5527C212.662 87.7072 212.7 87.8617 212.758 88.0162C212.758 88.0258 212.768 88.0355 212.768 88.0548C212.816 88.1996 212.874 88.3541 212.932 88.4989C212.942 88.5376 212.961 88.5762 212.971 88.6148C213.019 88.7403 213.067 88.8658 213.125 88.9914C213.135 89.0107 213.145 89.03 213.145 89.0493C213.203 89.1845 213.27 89.3196 213.328 89.4645C213.347 89.5031 213.367 89.5321 213.376 89.5707C213.425 89.6769 213.483 89.7831 213.54 89.8893C213.56 89.9183 213.579 89.9569 213.589 89.9858C213.656 90.121 213.734 90.2562 213.811 90.3817C213.83 90.4107 213.84 90.43 213.859 90.459C213.927 90.5748 213.994 90.6907 214.062 90.7969C214.081 90.8258 214.1 90.8645 214.12 90.8934C214.207 91.0286 214.294 91.1638 214.39 91.2989C214.4 91.3183 214.419 91.3376 214.429 91.3569C214.525 91.492 214.622 91.6272 214.728 91.7624C214.738 91.7817 214.757 91.801 214.767 91.8107C214.892 91.9748 215.027 92.139 215.163 92.2934C215.182 92.3127 215.201 92.3321 215.211 92.3514C215.298 92.4479 215.375 92.5348 215.462 92.6314C215.462 92.6314 215.471 92.641 215.471 92.6507C215.558 92.7472 215.655 92.8438 215.742 92.9307C215.8 92.9886 215.858 93.0465 215.916 93.1045C215.935 93.1238 215.945 93.1334 215.964 93.1527C216.041 93.23 216.118 93.2976 216.196 93.3652C216.215 93.3845 216.244 93.4038 216.263 93.4231C216.321 93.4714 216.379 93.5196 216.437 93.5679C216.466 93.5969 216.495 93.6162 216.524 93.6355C216.572 93.6741 216.63 93.7224 216.678 93.761C216.707 93.79 216.746 93.8093 216.775 93.8286C216.823 93.8672 216.881 93.9058 216.929 93.9445C216.958 93.9638 216.997 93.9927 217.026 94.012C217.084 94.0507 217.142 94.0893 217.2 94.1279C217.229 94.1472 217.258 94.1665 217.277 94.1858C217.364 94.2438 217.451 94.2921 217.538 94.3403C217.654 94.4079 217.76 94.4658 217.876 94.5238C217.905 94.5431 217.943 94.5527 217.972 94.5721C218.059 94.6107 218.146 94.6493 218.223 94.6879C218.252 94.6976 218.281 94.7169 218.31 94.7265C218.387 94.7555 218.465 94.7845 218.551 94.8134C218.571 94.8231 218.59 94.8327 218.609 94.8327C218.706 94.8617 218.803 94.9003 218.899 94.9196C218.957 94.9389 219.015 94.9486 219.063 94.9583C219.092 94.9679 219.111 94.9679 219.14 94.9776C219.218 94.9969 219.305 95.0065 219.382 95.0258H219.391C219.469 95.0355 219.536 95.0452 219.604 95.0548C219.633 95.0548 219.652 95.0548 219.671 95.0645C219.72 95.0645 219.758 95.0741 219.807 95.0741C219.913 95.0741 220.019 95.0741 220.116 95.0741C220.135 95.0741 220.154 95.0741 220.164 95.0741C220.251 95.0645 220.328 95.0548 220.405 95.0452C220.434 95.0452 220.454 95.0355 220.483 95.0355C220.569 95.0162 220.666 94.9969 220.753 94.9776H220.763C220.849 94.9486 220.927 94.9196 221.004 94.8907C221.023 94.881 221.052 94.8714 221.071 94.8617C221.139 94.8327 221.207 94.8038 221.265 94.7652C221.284 94.7555 221.303 94.7458 221.332 94.7362L215.076 98.3665C215.066 98.3762 215.056 98.3762 215.047 98.3858C215.037 98.3955 215.027 98.3955 215.008 98.4052C214.94 98.4438 214.883 98.4727 214.815 98.5017C214.805 98.5114 214.786 98.5114 214.776 98.521C214.767 98.521 214.757 98.5307 214.747 98.5307C214.67 98.5596 214.593 98.5886 214.506 98.6176H214.496C214.409 98.6465 214.323 98.6658 214.226 98.6755C214.216 98.6755 214.207 98.6852 214.197 98.6852C214.187 98.6852 214.168 98.6852 214.158 98.6948C214.081 98.7045 213.994 98.7141 213.917 98.7238C213.907 98.7238 213.888 98.7238 213.878 98.7238H213.869C213.772 98.7334 213.666 98.7334 213.56 98.7238C213.55 98.7238 213.54 98.7238 213.531 98.7238C213.502 98.7238 213.463 98.7141 213.434 98.7141C213.415 98.7141 213.386 98.7141 213.367 98.7045C213.299 98.6948 213.222 98.6852 213.154 98.6755H213.145C213.067 98.6658 212.98 98.6465 212.903 98.6272C212.874 98.6176 212.855 98.6176 212.826 98.6079C212.778 98.5983 212.729 98.5886 212.671 98.5693C212.662 98.5693 212.662 98.5693 212.652 98.5693C212.556 98.5403 212.459 98.5114 212.363 98.4824C212.343 98.4727 212.324 98.4631 212.305 98.4631C212.227 98.4341 212.15 98.4052 212.073 98.3762C212.063 98.3762 212.054 98.3665 212.044 98.3665C212.025 98.3569 212.005 98.3472 211.986 98.3376C211.899 98.2989 211.812 98.2603 211.735 98.2217C211.706 98.2024 211.667 98.1927 211.638 98.1734C211.523 98.1155 211.416 98.0576 211.3 97.99C211.214 97.9417 211.127 97.8838 211.04 97.8355C211.011 97.8162 210.982 97.7969 210.953 97.7776C210.895 97.7389 210.837 97.7003 210.779 97.6617C210.75 97.6424 210.711 97.6134 210.683 97.5941C210.634 97.5555 210.576 97.5169 210.528 97.4783C210.499 97.4589 210.46 97.43 210.431 97.4107C210.383 97.3721 210.325 97.3334 210.277 97.2852C210.248 97.2658 210.219 97.2369 210.19 97.2176C210.132 97.1693 210.074 97.121 210.016 97.0727C209.997 97.0534 209.978 97.0341 209.949 97.0148C209.871 96.9472 209.794 96.87 209.717 96.8024C209.698 96.7831 209.688 96.7734 209.669 96.7541C209.62 96.7058 209.563 96.6576 209.514 96.6093C209.505 96.5996 209.495 96.59 209.495 96.59C209.398 96.5031 209.311 96.4065 209.225 96.31L209.215 96.3003C209.128 96.2038 209.041 96.1169 208.964 96.0203C208.954 96.0107 208.945 96.001 208.945 95.9914C208.935 95.9817 208.925 95.9721 208.916 95.9527C208.78 95.7983 208.645 95.6341 208.52 95.47L208.51 95.4603C208.5 95.4507 208.491 95.4314 208.481 95.4217C208.375 95.2865 208.278 95.1514 208.182 95.0162C208.172 95.0065 208.163 94.9872 208.153 94.9776C208.153 94.9679 208.143 94.9679 208.143 94.9583C208.047 94.8231 207.96 94.6879 207.873 94.5527C207.863 94.5431 207.854 94.5238 207.844 94.5141C207.834 94.4948 207.825 94.4755 207.805 94.4562C207.738 94.3403 207.67 94.2341 207.603 94.1183C207.593 94.099 207.583 94.0796 207.574 94.0603C207.574 94.0507 207.564 94.0507 207.564 94.041C207.487 93.9058 207.409 93.7803 207.342 93.6452C207.332 93.6355 207.332 93.6258 207.323 93.6162C207.313 93.5969 207.303 93.5679 207.294 93.5486C207.236 93.4424 207.187 93.3362 207.129 93.23C207.12 93.2107 207.11 93.1817 207.1 93.1624C207.091 93.1527 207.091 93.1334 207.081 93.1238C207.014 92.9886 206.956 92.8534 206.888 92.7086C206.888 92.7086 206.888 92.6989 206.878 92.6989C206.869 92.6796 206.869 92.67 206.859 92.6507C206.801 92.5252 206.753 92.3996 206.705 92.2741C206.695 92.2548 206.685 92.2355 206.676 92.2162C206.666 92.1969 206.666 92.1776 206.656 92.1679C206.598 92.0231 206.55 91.8686 206.492 91.7238V91.7141C206.492 91.7045 206.483 91.6948 206.483 91.6852C206.434 91.5307 206.386 91.3762 206.338 91.2217C206.328 91.2024 206.328 91.1831 206.318 91.1638C206.309 91.1445 206.309 91.1252 206.309 91.1058C206.299 91.0576 206.28 91.0093 206.27 90.9707C206.251 90.9127 206.241 90.8452 206.222 90.7872C206.212 90.739 206.203 90.6907 206.193 90.6424C206.183 90.6134 206.174 90.5748 206.174 90.5458C206.164 90.5265 206.164 90.4976 206.164 90.4783C206.154 90.4107 206.135 90.3431 206.125 90.2658C206.125 90.1983 206.116 90.15 206.106 90.1017Z" fill="#E25300"/>
<mask id="mask3_456_2811" style="mask-type:luminance" maskUnits="userSpaceOnUse" x="221" y="105" width="8" height="5">
<path d="M221.641 109.597L227.897 105.967C228.1 105.851 228.283 105.716 228.457 105.552L222.201 109.182C222.027 109.346 221.843 109.481 221.641 109.597Z" fill="white"/>
</mask>
<g mask="url(#mask3_456_2811)">
<path d="M221.641 109.597L227.897 105.967C228.1 105.851 228.283 105.716 228.457 105.552L222.201 109.182C222.027 109.346 221.843 109.481 221.641 109.597Z" fill="#E25300"/>
</g>
<mask id="mask4_456_2811" style="mask-type:luminance" maskUnits="userSpaceOnUse" x="201" y="70" width="7" height="5">
<path d="M207.313 70.4155L201.057 74.0459C201.269 73.9204 201.501 73.8238 201.742 73.7466L207.999 70.1162C207.757 70.1935 207.526 70.29 207.313 70.4155Z" fill="white"/>
</mask>
<g mask="url(#mask4_456_2811)">
<path d="M201.742 73.7553L207.999 70.125C207.893 70.154 207.777 70.1926 207.68 70.2409L201.424 73.8712C201.53 73.8229 201.636 73.7843 201.742 73.7553Z" fill="#FF711F"/>
<path d="M201.424 73.8706L207.681 70.2402C207.565 70.2885 207.458 70.3368 207.352 70.4044L201.096 74.0347C201.202 73.9671 201.308 73.9189 201.424 73.8706Z" fill="#FF6C17"/>
<path d="M201.095 74.0249L207.352 70.3945C207.342 70.4042 207.332 70.4042 207.313 70.4138L201.057 74.0442C201.066 74.0442 201.076 74.0345 201.095 74.0249Z" fill="#FF660E"/>
</g>
<path d="M222.201 109.181L228.448 105.55L229.143 104.913L222.896 108.543L222.201 109.181Z" fill="#D95000"/>
<path d="M202.65 73.477L208.906 69.8467L207.999 70.117L201.742 73.757L202.65 73.477Z" fill="#FF7729"/>
<path d="M222.896 108.545L229.143 104.914L227.347 99.9033L221.091 103.543L222.896 108.545Z" fill="#FFD8C1"/>
<path d="M206.087 77.5515L212.343 73.9212L208.906 69.8467L202.649 73.477L206.087 77.5515Z" fill="#FFD8C1"/>
<mask id="mask5_456_2811" style="mask-type:luminance" maskUnits="userSpaceOnUse" x="221" y="97" width="8" height="7">
<path d="M221.092 103.544L227.348 99.9134C227.715 99.3534 228.015 98.7064 228.237 97.9727L221.98 101.603C221.758 102.327 221.459 102.974 221.092 103.544Z" fill="white"/>
</mask>
<g mask="url(#mask5_456_2811)">
<path d="M221.092 103.544L227.348 99.9134C227.715 99.3534 228.015 98.7064 228.237 97.9727L221.98 101.603C221.758 102.327 221.459 102.974 221.092 103.544Z" fill="#E25300"/>
</g>
<path d="M207.622 77.6472C207.468 77.6183 207.313 77.599 207.159 77.5796C207.149 77.5796 207.139 77.5796 207.12 77.5796C206.956 77.5603 206.792 77.5507 206.637 77.5507C206.608 77.5507 206.579 77.5507 206.55 77.5507C206.396 77.5507 206.241 77.5507 206.087 77.5507L212.343 73.9203C212.498 73.9107 212.652 73.9107 212.807 73.9203C212.836 73.9203 212.865 73.9203 212.894 73.9203C212.913 73.9203 212.942 73.9203 212.961 73.9203C213.097 73.93 213.232 73.9396 213.377 73.9493C213.386 73.9493 213.396 73.9493 213.415 73.9493C213.541 73.959 213.666 73.9783 213.792 73.9976C213.821 73.9976 213.85 74.0072 213.879 74.0169C213.917 74.0265 213.946 74.0265 213.985 74.0362C214.149 74.0652 214.313 74.0941 214.477 74.1327L208.221 77.7631C208.057 77.7245 207.892 77.6955 207.728 77.6665C207.69 77.6665 207.661 77.6569 207.622 77.6472Z" fill="#FF823A"/>
<path d="M221.786 93.4738C221.748 93.3096 221.7 93.1455 221.651 92.991C221.632 92.9234 221.613 92.8559 221.593 92.7883C221.535 92.5855 221.468 92.3827 221.4 92.18C221.391 92.1607 221.391 92.1414 221.381 92.1221C221.304 91.8807 221.217 91.6393 221.13 91.3979L227.386 87.7676C227.473 88.009 227.56 88.2407 227.637 88.4821V88.4917C227.647 88.511 227.647 88.5303 227.657 88.5496C227.724 88.7524 227.792 88.9552 227.85 89.1579C227.869 89.2255 227.888 89.2931 227.908 89.3607C227.927 89.4379 227.956 89.5152 227.975 89.6021C227.995 89.689 228.024 89.7662 228.043 89.8531C228.062 89.9207 228.082 89.9883 228.091 90.0559C228.149 90.2779 228.197 90.5 228.255 90.7221L221.999 94.3524C221.951 94.1303 221.893 93.9083 221.835 93.6862C221.825 93.609 221.806 93.5414 221.786 93.4738Z" fill="#FF6106"/>
<path d="M215.887 82.7653C215.819 82.6977 215.752 82.6204 215.684 82.5529C215.53 82.3887 215.366 82.2246 215.201 82.0604C215.173 82.0315 215.134 81.9929 215.105 81.9542C214.921 81.7708 214.728 81.597 214.545 81.4136L220.801 77.7832C220.995 77.957 221.178 78.1404 221.361 78.3239L221.371 78.3335C221.4 78.3625 221.429 78.3915 221.458 78.4301C221.622 78.5942 221.777 78.7584 221.941 78.9225C222.008 78.9901 222.076 79.0673 222.134 79.1349C222.259 79.2701 222.375 79.4053 222.501 79.5404C222.53 79.5694 222.549 79.5984 222.578 79.6177C222.694 79.7529 222.81 79.888 222.926 80.0232L216.669 83.6536C216.534 83.4894 216.389 83.3253 216.244 83.1611C216.128 83.0356 216.003 82.9004 215.887 82.7653Z" fill="#FF985C"/>
<path d="M225.716 97.8074L231.973 94.177L228.256 90.7012L221.999 94.3315L225.716 97.8074Z" fill="#FFD8C1"/>
<path d="M225.862 101.216C225.939 100.589 225.939 99.913 225.871 99.1985L225.726 97.8178L231.983 94.1875L232.128 95.5682C232.205 96.2827 232.205 96.9682 232.118 97.5861L231.964 98.793L225.707 102.423L225.862 101.216Z" fill="#F65A00"/>
<path d="M215.636 70.5303L216.766 71.013C217.056 71.1385 217.355 71.2834 217.645 71.4572C217.934 71.631 218.234 71.8144 218.523 72.0365L219.653 72.8572L213.396 76.4875L212.267 75.6668C211.977 75.4544 211.678 75.2613 211.388 75.0875C211.099 74.9137 210.799 74.7689 210.51 74.6434L209.38 74.1606L215.636 70.5303Z" fill="#FFD8C1"/>
<path d="M214.545 81.4234L220.801 77.7834L219.652 72.8496L213.405 76.48L214.545 81.4234Z" fill="#FF640A"/>
<path d="M221.13 91.387L227.377 87.747L229.202 84.8408L222.955 88.4712L221.13 91.387Z" fill="#D95000"/>
<path d="M220.116 83.5669L226.372 79.9365L222.926 80.0331L216.669 83.6634L220.116 83.5669Z" fill="#FF8C4A"/>
<path d="M221.835 86.2124C221.777 86.1062 221.719 86.0096 221.661 85.9034C221.613 85.8262 221.574 85.7489 221.526 85.6814C221.458 85.5751 221.4 85.4689 221.333 85.3627C221.236 85.1986 221.13 85.0441 221.024 84.8896L220.116 83.5669L226.373 79.9365L227.28 81.2593C227.377 81.4041 227.473 81.5393 227.56 81.6841C227.57 81.6938 227.58 81.7131 227.589 81.7324C227.657 81.8386 227.715 81.9448 227.782 82.051C227.821 82.1186 227.86 82.1765 227.898 82.2441C227.908 82.2538 227.908 82.2634 227.918 82.2731C227.976 82.3793 228.033 82.4758 228.091 82.582C228.13 82.6496 228.169 82.7269 228.207 82.7945C228.207 82.8041 228.217 82.8138 228.217 82.8234C228.275 82.9296 228.323 83.0358 228.381 83.1517C228.42 83.2289 228.458 83.2965 228.487 83.3641C228.497 83.3738 228.497 83.3931 228.507 83.4027L229.192 84.8413L222.936 88.4717L222.25 87.0331C222.211 86.9462 222.163 86.8593 222.124 86.782C222.067 86.6758 222.018 86.5696 221.96 86.4538C221.931 86.3765 221.883 86.2896 221.835 86.2124Z" fill="#FFD8C1"/>
<path d="M196.992 81.2298L200.719 82.0505C200.941 81.3263 201.241 80.6794 201.607 80.1194L199.802 75.1084L200.497 74.4712C200.854 74.1429 201.279 73.9015 201.743 73.7567L202.65 73.4863L206.087 77.5608C206.754 77.5318 207.468 77.5994 208.221 77.7732L209.39 74.1622L210.519 74.6449C210.809 74.7705 211.108 74.9153 211.398 75.0891C211.687 75.2629 211.987 75.4463 212.276 75.6684L213.406 76.4891L214.545 81.4325C215.289 82.1181 216.003 82.8712 216.67 83.6725L220.116 83.576L221.024 84.8987C221.487 85.5746 221.903 86.2987 222.26 87.0422L222.945 88.4808L221.121 91.3967C221.478 92.3718 221.777 93.3663 221.99 94.3512L225.707 97.827L225.852 99.2077C225.929 99.9222 225.929 100.608 225.842 101.226L225.687 102.433L221.961 101.612C221.739 102.346 221.439 102.983 221.072 103.553L222.878 108.554L222.183 109.191C221.825 109.519 221.401 109.761 220.937 109.906L220.03 110.176L216.592 106.102C215.916 106.13 215.212 106.063 214.458 105.889L213.29 109.5L212.161 109.017C211.871 108.892 211.572 108.747 211.282 108.573C210.992 108.399 210.693 108.216 210.403 107.994L209.274 107.173L208.134 102.23C207.391 101.544 206.676 100.791 206.01 99.9898L202.554 100.086L201.656 98.7732C201.192 98.0877 200.767 97.3732 200.42 96.6298L199.734 95.1912L201.559 92.2753C201.192 91.2905 200.903 90.3056 200.681 89.3208L196.963 85.8449L196.818 84.4643C196.741 83.7498 196.741 83.0739 196.828 82.4463L196.992 81.2298ZM211.33 97.9815C214.285 99.6905 216.689 98.3194 216.699 94.9208C216.708 91.5222 214.323 87.3801 211.359 85.6808C208.405 83.9719 206.001 85.3429 205.991 88.7415C205.981 92.1305 208.376 96.2725 211.33 97.9815Z" fill="#FFB489"/>
<path d="M165.663 25.3832C165.663 25.3542 165.663 25.3156 165.663 25.2866C165.663 25.2577 165.663 25.219 165.653 25.1901C165.653 25.1611 165.644 25.1225 165.644 25.0839C165.644 25.0453 165.634 25.0163 165.624 24.9777C165.624 24.9777 165.624 24.9777 165.624 24.968C165.615 24.939 165.615 24.9004 165.605 24.8715C165.595 24.8328 165.595 24.8039 165.586 24.7653C165.576 24.7266 165.567 24.688 165.557 24.659C165.547 24.6204 165.538 24.5818 165.528 24.5528C165.518 24.5239 165.509 24.4949 165.499 24.4659C165.499 24.4659 165.499 24.4659 165.499 24.4563V24.4466C165.489 24.408 165.48 24.379 165.46 24.3404C165.451 24.3018 165.431 24.2728 165.422 24.2342C165.412 24.1956 165.393 24.1666 165.383 24.128C165.373 24.0894 165.354 24.0604 165.344 24.0218C165.335 23.9928 165.325 23.9639 165.306 23.9446C165.306 23.9446 165.306 23.9446 165.306 23.9349C165.306 23.9253 165.306 23.9253 165.296 23.9156C165.277 23.8866 165.267 23.848 165.248 23.819C165.229 23.7804 165.209 23.7418 165.19 23.7032C165.171 23.6646 165.151 23.6163 165.122 23.5777C165.103 23.5294 165.074 23.4908 165.045 23.4425C165.045 23.4328 165.035 23.4232 165.035 23.4135C165.026 23.4039 165.026 23.3942 165.016 23.3846C164.968 23.2977 164.91 23.2204 164.862 23.1335C164.823 23.0756 164.775 23.008 164.736 22.9501C164.707 22.9115 164.678 22.8728 164.64 22.8246C164.611 22.7956 164.582 22.757 164.562 22.728C164.533 22.699 164.504 22.6604 164.485 22.6315C164.456 22.6025 164.427 22.5735 164.408 22.5446C164.408 22.5349 164.398 22.5349 164.398 22.5253C164.398 22.5253 164.398 22.5253 164.389 22.5156C164.369 22.4963 164.35 22.4673 164.321 22.448C164.292 22.419 164.263 22.3901 164.234 22.3611C164.205 22.3322 164.176 22.3032 164.147 22.2742C164.118 22.2453 164.089 22.2163 164.051 22.197C164.031 22.1873 164.022 22.168 164.002 22.1584L163.993 22.1487C163.983 22.139 163.964 22.1294 163.954 22.1197C163.925 22.1004 163.896 22.0715 163.867 22.0521C163.838 22.0328 163.809 22.0135 163.78 21.9846C163.751 21.9653 163.722 21.9459 163.693 21.9266C163.664 21.9073 163.635 21.888 163.607 21.8687C163.597 21.8687 163.597 21.859 163.587 21.859L148.226 12.9859C148.207 12.9763 148.178 12.957 148.158 12.9473C148.129 12.928 148.1 12.9184 148.071 12.899C148.042 12.8894 148.013 12.8701 147.984 12.8604C147.955 12.8508 147.927 12.8411 147.898 12.8218C147.869 12.8122 147.84 12.8025 147.811 12.7928C147.801 12.7928 147.801 12.7928 147.791 12.7832C147.791 12.7832 147.791 12.7832 147.782 12.7832C147.762 12.7735 147.743 12.7735 147.724 12.7639C147.695 12.7542 147.666 12.7446 147.637 12.7446C147.608 12.7349 147.579 12.7349 147.55 12.7253C147.521 12.7156 147.492 12.7156 147.463 12.7059C147.444 12.7059 147.424 12.7059 147.395 12.6963H147.386C147.376 12.6963 147.376 12.6963 147.367 12.6963C147.338 12.6963 147.299 12.6963 147.27 12.6963C147.231 12.6963 147.193 12.6963 147.164 12.7059C147.125 12.7059 147.086 12.7156 147.048 12.7253C147.048 12.7253 147.048 12.7253 147.038 12.7253C146.99 12.7349 146.942 12.7446 146.903 12.7639C146.845 12.7832 146.787 12.8122 146.739 12.8411L144.489 14.1446C144.586 14.0866 144.682 14.048 144.798 14.0287C144.798 14.0287 144.798 14.0287 144.808 14.0287C144.914 14.0094 145.03 13.9997 145.155 14.0094H145.165C145.291 14.019 145.416 14.048 145.551 14.0963C145.551 14.0963 145.551 14.0963 145.561 14.0963C145.696 14.1446 145.831 14.2025 145.976 14.2894L161.338 23.1625C161.482 23.2397 161.618 23.3459 161.753 23.4521L161.762 23.4618C161.898 23.568 162.023 23.6935 162.149 23.819C162.149 23.819 162.149 23.819 162.158 23.8287C162.284 23.9639 162.4 24.099 162.506 24.2535C162.612 24.3984 162.718 24.5528 162.805 24.717C162.805 24.7266 162.815 24.7363 162.815 24.7363C162.902 24.8908 162.989 25.0549 163.056 25.219C163.056 25.219 163.056 25.219 163.056 25.2287C163.133 25.4025 163.191 25.5666 163.249 25.7404C163.249 25.7404 163.249 25.7404 163.249 25.7501C163.298 25.9239 163.346 26.0977 163.365 26.2618C163.394 26.4356 163.404 26.5997 163.404 26.7639L163.365 38.939C163.365 39.1032 163.346 39.248 163.327 39.3832V39.3928C163.298 39.528 163.259 39.6535 163.211 39.7597C163.182 39.8273 163.133 39.8853 163.085 39.9432C162.998 40.0687 162.892 40.1846 162.767 40.2618L165.016 38.9584C165.142 38.8811 165.248 38.7749 165.335 38.6397C165.344 38.6204 165.364 38.6204 165.373 38.6011C165.402 38.5528 165.431 38.5046 165.451 38.4563C165.47 38.4177 165.48 38.3887 165.499 38.3501C165.509 38.3115 165.528 38.2825 165.538 38.2439C165.547 38.2053 165.557 38.1763 165.567 38.1377C165.567 38.128 165.576 38.1087 165.576 38.0894V38.0797C165.576 38.0604 165.586 38.0508 165.586 38.0315C165.595 38.0025 165.595 37.9639 165.605 37.9349C165.605 37.9059 165.615 37.8673 165.615 37.8384C165.615 37.8094 165.615 37.7708 165.624 37.7418C165.624 37.7128 165.624 37.6742 165.624 37.6453C165.624 37.6453 165.624 37.6453 165.624 37.6356L165.663 25.4604C165.673 25.4411 165.663 25.4121 165.663 25.3832Z" fill="#B84300"/>
<path d="M161.338 23.1821C162.487 23.8483 163.424 25.4607 163.414 26.7835L163.375 38.9587C163.375 40.2814 162.429 40.8125 161.28 40.1463L145.928 31.2828C144.779 30.6166 143.853 29.0042 143.853 27.6911L143.891 15.5159C143.891 14.1931 144.828 13.6525 145.977 14.3187L161.338 23.1821Z" fill="#FF5E00"/>
<path d="M161.395 29.0049L155.361 25.4518C155.062 25.278 154.82 24.9015 154.82 24.6022C154.82 24.3028 155.062 24.2063 155.361 24.3704L161.395 27.9235C161.695 28.0973 161.936 28.4739 161.936 28.7732C161.927 29.0725 161.685 29.1691 161.395 29.0049ZM161.395 32.6449L155.361 29.0918C155.062 28.918 154.82 28.5415 154.82 28.2422C154.82 27.9428 155.062 27.8463 155.361 28.0104L161.395 31.5635C161.695 31.7373 161.936 32.1139 161.936 32.4132C161.927 32.7125 161.685 32.8091 161.395 32.6449ZM161.395 36.2753L155.361 32.7222C155.062 32.5484 154.82 32.1718 154.82 31.8725C154.82 31.5732 155.062 31.4766 155.361 31.6408L161.395 35.1939C161.695 35.3677 161.936 35.7442 161.936 36.0435C161.927 36.3428 161.685 36.4491 161.395 36.2753Z" fill="#FFFEFE"/>
<path d="M146.14 19.5039L152.879 23.3949V31.0225L146.14 27.1315V19.5039Z" fill="#FFFEFE"/>
<path d="M134.158 35.599C134.158 35.57 134.158 35.5314 134.158 35.5025C134.158 35.4735 134.158 35.4349 134.149 35.4059C134.149 35.3769 134.139 35.3383 134.139 35.2997C134.139 35.2611 134.129 35.2321 134.12 35.1935C134.12 35.1935 134.12 35.1935 134.12 35.1838C134.11 35.1549 134.11 35.1162 134.1 35.0873C134.091 35.0487 134.091 35.0197 134.081 34.9811C134.071 34.9425 134.062 34.9038 134.052 34.8749C134.042 34.8362 134.033 34.7976 134.023 34.7687C134.013 34.7397 134.004 34.7107 133.994 34.6818C133.994 34.6818 133.994 34.6818 133.994 34.6721V34.6625C133.984 34.6238 133.975 34.5949 133.955 34.5562C133.946 34.5176 133.926 34.4887 133.917 34.45C133.907 34.4114 133.888 34.3825 133.878 34.3438C133.869 34.3052 133.849 34.2762 133.84 34.2376C133.83 34.2087 133.82 34.1797 133.801 34.1604C133.801 34.1604 133.801 34.1604 133.801 34.1507C133.801 34.1411 133.801 34.1411 133.791 34.1314C133.772 34.1025 133.762 34.0638 133.743 34.0349C133.724 33.9962 133.704 33.9576 133.685 33.919C133.666 33.8804 133.646 33.8321 133.617 33.7935C133.598 33.7452 133.569 33.7066 133.54 33.6583C133.54 33.6487 133.531 33.639 133.531 33.6293C133.521 33.6197 133.521 33.61 133.511 33.6004C133.463 33.5135 133.405 33.4362 133.357 33.3494C133.318 33.2914 133.27 33.2238 133.231 33.1659C133.202 33.1273 133.173 33.0887 133.135 33.0404C133.106 33.0114 133.077 32.9728 133.057 32.9438C133.029 32.9149 133 32.8762 132.98 32.8473C132.951 32.8183 132.922 32.7893 132.903 32.7604C132.903 32.7507 132.893 32.7507 132.893 32.7411C132.893 32.7411 132.893 32.7411 132.884 32.7314C132.864 32.7121 132.845 32.6831 132.816 32.6638C132.787 32.6349 132.758 32.6059 132.729 32.5769C132.7 32.548 132.671 32.519 132.642 32.49C132.613 32.4611 132.584 32.4321 132.546 32.4128C132.526 32.4031 132.517 32.3838 132.497 32.3742L132.488 32.3645C132.478 32.3549 132.459 32.3452 132.449 32.3356C132.42 32.3162 132.391 32.2873 132.362 32.268C132.333 32.2487 132.304 32.2294 132.275 32.2004C132.246 32.1811 132.217 32.1618 132.189 32.1425C132.16 32.1231 132.131 32.1038 132.102 32.0845C132.092 32.0845 132.092 32.0749 132.082 32.0749L116.721 23.2018C116.702 23.1921 116.673 23.1728 116.653 23.1631C116.624 23.1438 116.595 23.1342 116.566 23.1149C116.537 23.1052 116.509 23.0859 116.48 23.0762C116.451 23.0666 116.422 23.0569 116.393 23.0376C116.364 23.028 116.335 23.0183 116.306 23.0087C116.296 23.0087 116.296 23.0087 116.286 22.999C116.286 22.999 116.286 22.999 116.277 22.999C116.257 22.9894 116.238 22.9894 116.219 22.9797C116.19 22.97 116.161 22.9604 116.132 22.9604C116.103 22.9507 116.074 22.9507 116.045 22.9411C116.016 22.9314 115.987 22.9314 115.958 22.9218C115.939 22.9218 115.92 22.9218 115.891 22.9121H115.881C115.871 22.9121 115.871 22.9121 115.862 22.9121C115.833 22.9121 115.794 22.9121 115.765 22.9121C115.726 22.9121 115.697 22.9121 115.659 22.9218C115.62 22.9218 115.582 22.9314 115.543 22.9411C115.543 22.9411 115.543 22.9411 115.533 22.9411C115.485 22.9507 115.437 22.9604 115.398 22.9797C115.34 22.999 115.282 23.028 115.234 23.0569L112.984 24.3604C113.081 24.3025 113.177 24.2638 113.293 24.2445C113.293 24.2445 113.293 24.2445 113.303 24.2445C113.409 24.2252 113.525 24.2156 113.651 24.2252H113.66C113.786 24.2349 113.911 24.2638 114.046 24.3121C114.046 24.3121 114.046 24.3121 114.056 24.3121C114.191 24.3604 114.326 24.4183 114.471 24.5052L129.833 33.3783C129.977 33.4556 130.113 33.5618 130.248 33.668L130.257 33.6776C130.393 33.7838 130.518 33.9094 130.644 34.0349C130.644 34.0349 130.644 34.0349 130.653 34.0445C130.779 34.1797 130.895 34.3149 131.001 34.4694C131.107 34.6142 131.213 34.7687 131.3 34.9328C131.3 34.9425 131.31 34.9521 131.31 34.9521C131.397 35.1066 131.484 35.2707 131.551 35.4349C131.551 35.4349 131.551 35.4349 131.551 35.4445C131.629 35.6183 131.686 35.7825 131.744 35.9562C131.744 35.9562 131.744 35.9562 131.744 35.9659C131.793 36.1397 131.841 36.3135 131.86 36.4776C131.889 36.6514 131.899 36.8156 131.899 36.9797L131.86 49.1549C131.86 49.319 131.841 49.4638 131.822 49.599V49.6087C131.793 49.7438 131.754 49.8693 131.706 49.9756C131.677 50.0431 131.629 50.1011 131.58 50.159C131.493 50.2845 131.387 50.4004 131.262 50.4776L133.511 49.1742C133.637 49.0969 133.743 48.9907 133.83 48.8556C133.84 48.8362 133.859 48.8362 133.869 48.8169C133.897 48.7687 133.926 48.7204 133.946 48.6721C133.965 48.6335 133.975 48.6045 133.994 48.5659C134.004 48.5273 134.023 48.4983 134.033 48.4597C134.042 48.4211 134.052 48.3921 134.062 48.3535C134.062 48.3438 134.071 48.3245 134.071 48.3052V48.2956C134.071 48.2762 134.081 48.2666 134.081 48.2473C134.091 48.2183 134.091 48.1797 134.1 48.1507C134.1 48.1218 134.11 48.0831 134.11 48.0542C134.11 48.0252 134.11 47.9866 134.12 47.9576C134.12 47.9287 134.12 47.89 134.12 47.8611C134.12 47.8611 134.12 47.8611 134.12 47.8514L134.158 35.6762C134.168 35.6569 134.168 35.628 134.158 35.599Z" fill="#B84300"/>
<path d="M129.832 33.3978C130.981 34.064 131.918 35.6764 131.908 36.9992L131.869 49.1744C131.869 50.4971 130.923 51.0282 129.774 50.362L114.413 41.4889C113.264 40.8227 112.337 39.2102 112.337 37.8971L112.376 25.722C112.376 24.3992 113.312 23.8585 114.461 24.5247L129.832 33.3978Z" fill="#FF5E00"/>
<path opacity="0.49" d="M113.834 26.3486L120.206 41.5362L130.702 35.9169L120.728 39.3928L113.834 26.3486Z" fill="#FFFEFE"/>
<path d="M131.436 65.9261C131.436 65.8972 131.436 65.8586 131.436 65.8296C131.436 65.8006 131.436 65.762 131.426 65.733C131.426 65.7041 131.416 65.6655 131.416 65.6268C131.416 65.5882 131.407 65.5593 131.397 65.5206C131.397 65.5206 131.397 65.5206 131.397 65.511C131.387 65.482 131.387 65.4434 131.378 65.4144C131.368 65.3758 131.368 65.3468 131.358 65.3082C131.349 65.2696 131.339 65.231 131.329 65.202C131.32 65.1634 131.31 65.1248 131.3 65.0958C131.291 65.0668 131.281 65.0379 131.271 65.0089C131.271 65.0089 131.271 65.0089 131.271 64.9993V64.9896C131.262 64.951 131.252 64.922 131.233 64.8834C131.223 64.8448 131.204 64.8158 131.194 64.7772C131.184 64.7386 131.165 64.7096 131.156 64.671C131.146 64.6324 131.127 64.6034 131.117 64.5648C131.107 64.5358 131.098 64.5068 131.078 64.4875C131.078 64.4875 131.078 64.4875 131.078 64.4779C131.078 64.4682 131.078 64.4682 131.069 64.4586C131.049 64.4296 131.04 64.391 131.02 64.362C131.001 64.3234 130.982 64.2848 130.962 64.2462C130.943 64.2075 130.924 64.1593 130.895 64.1206C130.876 64.0724 130.847 64.0337 130.818 63.9855C130.818 63.9758 130.808 63.9662 130.808 63.9565C130.798 63.9468 130.798 63.9372 130.789 63.9275C130.74 63.8406 130.682 63.7634 130.634 63.6765C130.596 63.6186 130.547 63.551 130.509 63.493C130.48 63.4544 130.451 63.4158 130.412 63.3675C130.383 63.3386 130.354 63.2999 130.335 63.271C130.306 63.242 130.277 63.2034 130.258 63.1744C130.229 63.1455 130.2 63.1165 130.18 63.0875C130.18 63.0779 130.171 63.0779 130.171 63.0682C130.171 63.0682 130.171 63.0682 130.161 63.0586C130.142 63.0393 130.113 63.0103 130.093 62.991C130.064 62.962 130.036 62.933 130.007 62.9041C129.978 62.8751 129.949 62.8461 129.92 62.8172C129.891 62.7882 129.862 62.7593 129.823 62.7399C129.804 62.7303 129.794 62.711 129.775 62.7013L129.765 62.6917C129.756 62.682 129.736 62.6724 129.727 62.6627C129.698 62.6434 129.669 62.6144 129.64 62.5951C129.611 62.5758 129.582 62.5565 129.553 62.5275C129.524 62.5082 129.495 62.4889 129.466 62.4696C129.437 62.4503 129.408 62.431 129.379 62.4117C129.369 62.4117 129.369 62.402 129.36 62.402L113.998 53.5289C113.979 53.5193 113.95 53.4999 113.931 53.4903C113.902 53.471 113.873 53.4613 113.844 53.442C113.815 53.4324 113.786 53.413 113.757 53.4034C113.728 53.3937 113.699 53.3841 113.67 53.3648C113.641 53.3551 113.612 53.3455 113.583 53.3358C113.573 53.3358 113.573 53.3358 113.564 53.3262C113.564 53.3262 113.564 53.3262 113.554 53.3262C113.535 53.3165 113.516 53.3165 113.496 53.3068C113.467 53.2972 113.438 53.2875 113.409 53.2875C113.38 53.2779 113.351 53.2779 113.322 53.2682C113.293 53.2586 113.264 53.2586 113.236 53.2489C113.216 53.2489 113.197 53.2489 113.168 53.2393H113.158C113.149 53.2393 113.149 53.2393 113.139 53.2393C113.11 53.2393 113.071 53.2393 113.042 53.2393C113.004 53.2393 112.965 53.2393 112.936 53.2489C112.898 53.2489 112.859 53.2586 112.82 53.2682C112.82 53.2682 112.82 53.2682 112.811 53.2682C112.762 53.2779 112.714 53.2875 112.676 53.3068C112.618 53.3261 112.56 53.3551 112.511 53.3841L110.262 54.6875C110.358 54.6296 110.455 54.591 110.571 54.5717C110.571 54.5717 110.571 54.5717 110.58 54.5717C110.687 54.5524 110.802 54.5427 110.928 54.5524H110.938C111.063 54.562 111.189 54.591 111.324 54.6393C111.324 54.6393 111.324 54.6393 111.333 54.6393C111.469 54.6875 111.604 54.7455 111.749 54.8324L127.11 63.7055C127.255 63.7827 127.39 63.8889 127.525 63.9951L127.535 64.0048C127.67 64.111 127.796 64.2365 127.921 64.362C127.921 64.362 127.921 64.362 127.931 64.3717C128.056 64.5068 128.172 64.642 128.278 64.7965C128.384 64.9413 128.491 65.0958 128.578 65.2599C128.578 65.2696 128.587 65.2793 128.587 65.2793C128.674 65.4337 128.761 65.5979 128.829 65.762C128.829 65.762 128.829 65.762 128.829 65.7717C128.906 65.9455 128.964 66.1096 129.022 66.2834C129.022 66.2834 129.022 66.2834 129.022 66.293C129.07 66.4668 129.118 66.6406 129.138 66.8048C129.167 66.9786 129.176 67.1427 129.176 67.3068L129.138 79.482C129.138 79.6462 129.118 79.791 129.099 79.9261V79.9358C129.07 80.071 129.031 80.1965 128.983 80.3027C128.954 80.3703 128.906 80.4282 128.858 80.4861C128.771 80.6117 128.664 80.7275 128.539 80.8048L130.789 79.5013C130.914 79.4241 131.02 79.3179 131.107 79.1827C131.117 79.1634 131.136 79.1634 131.146 79.1441C131.175 79.0958 131.204 79.0475 131.223 78.9993C131.242 78.9606 131.252 78.9317 131.271 78.893C131.281 78.8544 131.3 78.8255 131.31 78.7868C131.32 78.7482 131.329 78.7193 131.339 78.6806C131.339 78.671 131.349 78.6517 131.349 78.6324V78.6227C131.349 78.6034 131.358 78.5937 131.358 78.5744C131.368 78.5455 131.368 78.5068 131.378 78.4779C131.378 78.4489 131.387 78.4103 131.387 78.3813C131.387 78.3524 131.387 78.3137 131.397 78.2848C131.397 78.2558 131.397 78.2172 131.397 78.1882C131.397 78.1882 131.397 78.1882 131.397 78.1786L131.436 66.0034C131.436 65.9937 131.436 65.9648 131.436 65.9261Z" fill="url(#paint9_linear_456_2811)"/>
<path d="M127.109 63.7251C128.258 64.3913 129.195 66.0037 129.185 67.3265L129.147 79.5016C129.147 80.8244 128.2 81.3554 127.051 80.6892L111.69 71.8258C110.541 71.1596 109.614 69.5472 109.614 68.234L109.653 56.0589C109.653 54.7361 110.589 54.1954 111.738 54.8616L127.109 63.7251Z" fill="url(#paint10_linear_456_2811)"/>
<path d="M127.158 69.546L111.99 60.7887C111.691 60.6149 111.449 60.2384 111.449 59.9391C111.449 59.6398 111.691 59.5432 111.99 59.7073L127.158 68.4646C127.457 68.6384 127.699 69.0149 127.699 69.3142C127.699 69.6136 127.457 69.7198 127.158 69.546ZM127.158 73.186L111.99 64.4287C111.691 64.2549 111.449 63.8784 111.449 63.5791C111.449 63.2798 111.691 63.1832 111.99 63.3473L127.158 72.1046C127.457 72.2784 127.699 72.6549 127.699 72.9542C127.699 73.2536 127.457 73.3598 127.158 73.186ZM127.158 76.826L111.99 68.0687C111.691 67.8949 111.449 67.5184 111.449 67.2191C111.449 66.9198 111.691 66.8232 111.99 66.9873L127.158 75.7446C127.457 75.9184 127.699 76.2949 127.699 76.5942C127.699 76.8936 127.457 76.9901 127.158 76.826Z" fill="#FF7B2F"/>
<path d="M177.499 62.9535C177.499 62.9245 177.499 62.8859 177.499 62.8569C177.499 62.828 177.499 62.7894 177.489 62.7604C177.489 62.7314 177.48 62.6928 177.48 62.6542C177.48 62.6156 177.47 62.5866 177.46 62.548C177.46 62.548 177.46 62.548 177.46 62.5383C177.451 62.5094 177.451 62.4707 177.441 62.4418C177.431 62.4032 177.431 62.3742 177.422 62.3356C177.412 62.2969 177.402 62.2583 177.393 62.2294C177.383 62.1907 177.373 62.1521 177.364 62.1232C177.354 62.0942 177.345 62.0652 177.335 62.0363C177.335 62.0363 177.335 62.0363 177.335 62.0266V62.0169C177.325 61.9783 177.316 61.9494 177.296 61.9107C177.287 61.8721 177.267 61.8432 177.258 61.8045C177.248 61.7659 177.229 61.7369 177.219 61.6983C177.209 61.6597 177.19 61.6307 177.18 61.5921C177.171 61.5632 177.161 61.5342 177.142 61.5149C177.142 61.5149 177.142 61.5149 177.142 61.5052C177.142 61.4956 177.142 61.4956 177.132 61.4859C177.113 61.4569 177.103 61.4183 177.084 61.3894C177.065 61.3507 177.045 61.3121 177.026 61.2735C177.007 61.2349 176.987 61.1866 176.958 61.148C176.939 61.0997 176.91 61.0611 176.881 61.0128C176.881 61.0032 176.871 60.9935 176.871 60.9838C176.862 60.9742 176.862 60.9645 176.852 60.9549C176.804 60.868 176.746 60.7907 176.698 60.7038C176.659 60.6459 176.611 60.5783 176.572 60.5204C176.543 60.4818 176.514 60.4432 176.476 60.3949C176.447 60.3659 176.418 60.3273 176.398 60.2983C176.369 60.2694 176.34 60.2307 176.321 60.2018C176.292 60.1728 176.263 60.1438 176.244 60.1149C176.244 60.1052 176.234 60.1052 176.234 60.0956C176.234 60.0956 176.234 60.0956 176.225 60.0859C176.205 60.0666 176.186 60.0376 176.157 60.0183C176.128 59.9894 176.099 59.9604 176.07 59.9314C176.041 59.9025 176.012 59.8735 175.983 59.8445C175.954 59.8156 175.925 59.7866 175.887 59.7673C175.867 59.7576 175.858 59.7383 175.838 59.7287L175.829 59.719C175.819 59.7094 175.8 59.6997 175.79 59.6901C175.761 59.6707 175.732 59.6418 175.703 59.6225C175.674 59.6032 175.645 59.5838 175.616 59.5549C175.587 59.5356 175.558 59.5163 175.529 59.4969C175.5 59.4776 175.471 59.4583 175.442 59.439C175.433 59.439 175.433 59.4294 175.423 59.4294L160.062 50.5563C160.042 50.5466 160.013 50.5273 159.994 50.5176C159.965 50.4983 159.936 50.4887 159.907 50.4694C159.878 50.4597 159.849 50.4404 159.82 50.4307C159.791 50.4211 159.762 50.4114 159.733 50.3921C159.704 50.3825 159.676 50.3728 159.647 50.3632C159.637 50.3632 159.637 50.3632 159.627 50.3535C159.627 50.3535 159.627 50.3535 159.618 50.3535C159.598 50.3438 159.579 50.3438 159.56 50.3342C159.531 50.3245 159.502 50.3149 159.473 50.3149C159.444 50.3052 159.415 50.3052 159.386 50.2956C159.357 50.2859 159.328 50.2859 159.299 50.2763C159.28 50.2763 159.26 50.2763 159.231 50.2666H159.222C159.212 50.2666 159.212 50.2666 159.202 50.2666C159.173 50.2666 159.135 50.2666 159.106 50.2666C159.067 50.2666 159.038 50.2666 159 50.2763C158.961 50.2763 158.922 50.2859 158.884 50.2956C158.884 50.2956 158.884 50.2956 158.874 50.2956C158.826 50.3052 158.778 50.3149 158.739 50.3342C158.681 50.3535 158.623 50.3825 158.575 50.4114L156.325 51.7149C156.422 51.6569 156.518 51.6183 156.634 51.599C156.634 51.599 156.634 51.599 156.644 51.599C156.75 51.5797 156.866 51.5701 156.991 51.5797H157.001C157.127 51.5894 157.252 51.6183 157.387 51.6666C157.387 51.6666 157.387 51.6666 157.397 51.6666C157.532 51.7149 157.667 51.7728 157.812 51.8597L173.173 60.7328C173.318 60.8101 173.453 60.9163 173.589 61.0225L173.598 61.0321C173.733 61.1383 173.859 61.2638 173.984 61.3894C173.984 61.3894 173.985 61.3894 173.994 61.399C174.12 61.5342 174.236 61.6694 174.342 61.8238C174.448 61.9687 174.554 62.1232 174.641 62.2873C174.641 62.2969 174.651 62.3066 174.651 62.3066C174.738 62.4611 174.824 62.6252 174.892 62.7894C174.892 62.7894 174.892 62.7894 174.892 62.799C174.969 62.9728 175.027 63.1369 175.085 63.3107C175.085 63.3107 175.085 63.3107 175.085 63.3204C175.133 63.4942 175.182 63.668 175.201 63.8321C175.23 64.0059 175.24 64.17 175.24 64.3342L175.201 76.5094C175.201 76.6735 175.182 76.8183 175.162 76.9535V76.9632C175.133 77.0983 175.095 77.2238 175.047 77.3301C175.018 77.3976 174.969 77.4556 174.921 77.5135C174.834 77.639 174.728 77.7549 174.602 77.8321L176.852 76.5287C176.978 76.4514 177.084 76.3452 177.171 76.21C177.18 76.1907 177.2 76.1907 177.209 76.1714C177.238 76.1232 177.267 76.0749 177.287 76.0266C177.306 75.988 177.316 75.959 177.335 75.9204C177.345 75.8818 177.364 75.8528 177.373 75.8142C177.383 75.7756 177.393 75.7466 177.402 75.708C177.402 75.6983 177.412 75.679 177.412 75.6597V75.65C177.412 75.6307 177.422 75.6211 177.422 75.6018C177.431 75.5728 177.431 75.5342 177.441 75.5052C177.441 75.4763 177.451 75.4376 177.451 75.4087C177.451 75.3797 177.451 75.3411 177.46 75.3121C177.46 75.2832 177.46 75.2445 177.46 75.2156C177.46 75.2156 177.46 75.2156 177.46 75.2059L177.499 63.0307C177.499 63.0114 177.499 62.9825 177.499 62.9535Z" fill="#B84300"/>
<path d="M173.174 60.7533C174.323 61.4195 175.259 63.0319 175.25 64.3547L175.211 76.5298C175.211 77.8526 174.265 78.3836 173.116 77.7174L157.755 68.8443C156.606 68.1781 155.679 66.5657 155.679 65.2526L155.717 53.0774C155.717 51.7547 156.654 51.214 157.803 51.8802L173.174 60.7533Z" fill="#FF5E00"/>
<path d="M173.222 66.5743L158.053 57.817C157.754 57.6433 157.513 57.2667 157.513 56.9674C157.513 56.6681 157.754 56.5715 158.053 56.7357L173.222 65.4929C173.521 65.6667 173.762 66.0433 173.762 66.3426C173.762 66.6419 173.521 66.7481 173.222 66.5743ZM173.222 70.2143L158.053 61.457C157.754 61.2833 157.513 60.9067 157.513 60.6074C157.513 60.3081 157.754 60.2115 158.053 60.3757L173.222 69.1329C173.521 69.3067 173.762 69.6833 173.762 69.9826C173.762 70.2819 173.521 70.3784 173.222 70.2143ZM173.222 73.8543L158.053 65.0971C157.754 64.9233 157.513 64.5467 157.513 64.2474C157.513 63.9481 157.754 63.8515 158.053 64.0157L173.222 72.7729C173.521 72.9467 173.762 73.3233 173.762 73.6226C173.762 73.9219 173.521 74.0184 173.222 73.8543Z" fill="#FFFEFE"/>
<path d="M155.689 60.2971L147.028 54.6006C145.763 53.7702 145.001 52.3509 145.001 50.8351V45.9013C145.001 44.2502 144.112 42.7247 142.674 41.9137L132.835 36.362M109.624 63.2806L103.512 59.5633C102.064 58.6847 101.186 57.1206 101.186 55.4309V45.544C101.186 43.7868 103.107 42.7054 104.613 43.613L117.715 51.5592C118.951 52.3123 120.535 51.4144 120.535 49.9758V45.0227M155.448 18.4516V12.6971C155.448 10.6213 157.697 9.32748 159.493 10.3799L175.231 19.5716C176.641 20.3923 177.5 21.8985 177.5 23.5302V46.3068C177.5 48.0158 175.598 49.0392 174.169 48.1027L171.321 46.2199C170.017 45.3606 168.27 46.2971 168.27 47.8613V55.1027M176.399 68.9385L185.91 74.2875C187.619 75.253 188.681 77.0585 188.681 79.0282V98.3095M129.746 72.0861L140.569 78.5647C141.988 79.4144 142.857 80.9495 142.857 82.6006V105.387" stroke="#FF7B2F" stroke-width="0.482759" stroke-miterlimit="10"/>
<defs>
<linearGradient id="paint0_linear_456_2811" x1="219.733" y1="156.277" x2="106.064" y2="158.477" gradientUnits="userSpaceOnUse">
<stop stop-color="#FF8037"/>
<stop offset="1" stop-color="#662500"/>
</linearGradient>
<linearGradient id="paint1_linear_456_2811" x1="219.733" y1="155.869" x2="106.064" y2="158.069" gradientUnits="userSpaceOnUse">
<stop stop-color="#FFF9F5"/>
<stop offset="1" stop-color="#FFA571"/>
</linearGradient>
<linearGradient id="paint2_linear_456_2811" x1="266.346" y1="152.961" x2="23.6514" y2="152.961" gradientUnits="userSpaceOnUse">
<stop stop-color="#FF9966"/>
<stop offset="1" stop-color="#641A15"/>
</linearGradient>
<linearGradient id="paint3_linear_456_2811" x1="136.428" y1="136.543" x2="106.045" y2="81.9852" gradientUnits="userSpaceOnUse">
<stop stop-color="#973700"/>
<stop offset="0.581" stop-color="#FA5C00"/>
<stop offset="1" stop-color="#FFF9F5"/>
</linearGradient>
<linearGradient id="paint4_linear_456_2811" x1="154.092" y1="121.176" x2="210.034" y2="121.176" gradientUnits="userSpaceOnUse">
<stop stop-color="#FF8037"/>
<stop offset="1" stop-color="#662500"/>
</linearGradient>
<linearGradient id="paint5_linear_456_2811" x1="111.155" y1="161.796" x2="208.822" y2="161.796" gradientUnits="userSpaceOnUse">
<stop stop-color="#FF8037"/>
<stop offset="1" stop-color="#662500"/>
</linearGradient>
<linearGradient id="paint6_linear_456_2811" x1="140.499" y1="185.254" x2="186.975" y2="123.478" gradientUnits="userSpaceOnUse">
<stop stop-color="#FFF9F5"/>
<stop offset="1" stop-color="#FFA571"/>
</linearGradient>
<linearGradient id="paint7_linear_456_2811" x1="129.746" y1="154.391" x2="206.805" y2="154.391" gradientUnits="userSpaceOnUse">
<stop stop-color="#FF8037"/>
<stop offset="1" stop-color="#662500"/>
</linearGradient>
<linearGradient id="paint8_linear_456_2811" x1="118.258" y1="186.939" x2="184.262" y2="111.175" gradientUnits="userSpaceOnUse">
<stop stop-color="#FFF9F5"/>
<stop offset="1" stop-color="white"/>
</linearGradient>
<linearGradient id="paint9_linear_456_2811" x1="129.352" y1="77.832" x2="119.61" y2="57.3588" gradientUnits="userSpaceOnUse">
<stop stop-color="#FFF9F5"/>
<stop offset="1" stop-color="#FFD5BC"/>
</linearGradient>
<linearGradient id="paint10_linear_456_2811" x1="109.62" y1="67.7791" x2="129.184" y2="67.7791" gradientUnits="userSpaceOnUse">
<stop stop-color="#FFF9F5"/>
<stop offset="1" stop-color="#FFD5BC"/>
</linearGradient>
</defs>
</svg>
