<svg width="264" height="222" viewBox="0 0 264 222" fill="none" xmlns="http://www.w3.org/2000/svg">
<g clip-path="url(#clip0_456_6404)">
<path d="M71.3334 54.9903L52.809 35.6183C49.106 31.746 50.7228 25.375 55.7957 23.6506C61.6881 21.6475 68.3491 22.7061 75.3827 25.8572C81.8662 28.7617 87.0639 33.9459 90.2411 40.3002L92.5933 45.0046M181.095 199.947H154.614C150.274 199.947 146.756 196.428 146.756 192.088V147.501H196.468L188.847 193.376C188.217 197.167 184.938 199.947 181.095 199.947Z" fill="#FFDFCE"/>
<path d="M191.515 199.946H165.034C160.694 199.946 157.176 196.427 157.176 192.087V147.5H206.888L199.267 193.375C198.637 197.166 195.358 199.946 191.515 199.946Z" fill="#FF9966"/>
<path d="M88.2129 199.946H114.694C119.034 199.946 122.552 196.427 122.552 192.087V147.5H72.8398L80.4608 193.375C81.0906 197.166 84.3699 199.946 88.2129 199.946Z" fill="#F3A54B"/>
<path d="M98.6328 199.946H125.114C129.454 199.946 132.972 196.427 132.972 192.087V147.5H83.2598L90.8807 193.375C91.5105 197.166 94.7898 199.946 98.6328 199.946Z" fill="#FCBB70"/>
<path d="M205.724 165.813C169.927 196.295 113.719 197.449 76.3857 168.306C56.4759 152.746 43.915 129.967 43.915 104.583C43.915 63.9763 76.0482 30.0433 118.999 21.7194C125.617 20.4259 132.478 19.751 139.527 19.751C180.959 19.751 216.242 43.1291 229.496 75.8435C241.922 106.366 233.794 141.894 205.724 165.813Z" fill="#FFB48B"/>
<path d="M235.119 105.446C234.876 129.18 223.627 150.552 205.723 165.813C169.926 196.295 113.718 197.449 76.3843 168.306C52.824 149.892 40.4754 122.169 44.7386 93.3535V94.1409C44.7386 119.525 57.2994 142.303 77.2092 157.864C94.0444 171.006 116.129 178.992 140.351 178.992C166.035 178.992 189.375 169.993 206.548 155.37C221.79 142.378 232.195 124.962 235.119 105.446Z" fill="#D87340"/>
<path d="M229.495 75.8435L209.079 153.102L205.724 165.813C169.926 196.295 113.718 197.449 76.3848 168.306C77.2284 165.4 78.0908 162.382 79.0095 159.232C90.0142 121.119 105.987 65.9636 118.998 21.7194C125.616 20.4259 132.477 19.751 139.526 19.751C180.958 19.751 216.241 43.1291 229.495 75.8435Z" fill="#FFCBAC"/>
<path d="M209.079 153.102L205.724 165.812C169.926 196.295 113.718 197.449 76.3848 168.306C77.2284 165.4 78.0908 162.382 79.0095 159.232C95.6009 171.549 116.973 178.992 140.351 178.992C166.035 178.992 189.376 169.993 206.548 155.37C207.411 154.639 208.255 153.889 209.079 153.102Z" fill="#FF9966"/>
<path d="M169.084 32.7452C169.084 33.4861 168.908 34.1686 168.596 34.7535C167.855 36.1963 166.335 37.1322 164.658 37.1322C164.268 37.1322 163.897 37.0933 163.507 36.9958C162.065 36.6254 160.641 36.2938 159.198 36.0209C158.301 35.8454 157.405 35.6699 156.508 35.5335C156.313 35.4944 156.118 35.4749 155.923 35.4554C155.416 35.3579 154.928 35.2995 154.421 35.241C154.402 35.241 154.402 35.241 154.402 35.241C144.809 33.9483 134.989 34.6785 126.208 36.9958C124.083 37.5417 122.016 36.5084 121.119 34.7145C120.827 34.1296 120.651 33.4667 120.651 32.7452V32.6673C120.651 30.6395 121.997 28.8457 123.966 28.3777C124.18 28.3193 124.414 28.2803 124.629 28.2218C125.623 28.0073 126.637 27.7928 127.632 27.6174C128.45 27.4614 129.25 27.3249 130.049 27.2079C130.381 27.1494 130.693 27.0909 131.024 27.0519C132.019 26.8959 133.033 26.7595 134.046 26.6425C145.177 25.3961 157.729 26.4534 165.652 28.4363C167.66 28.8652 169.084 30.6784 169.084 32.7452Z" fill="white"/>
<path d="M168.596 34.7527C167.855 36.1955 166.334 37.1314 164.657 37.1314C164.268 37.1314 163.897 37.0925 163.507 36.995C151.087 33.7973 138.648 33.8169 126.208 36.995C124.083 37.5409 122.016 36.5076 121.119 34.7137C121.645 33.5634 122.679 32.686 123.966 32.3934C137.497 29.2348 151.399 29.3713 165.652 32.4325C166.958 32.725 168.031 33.6023 168.596 34.7527Z" fill="#4E4133"/>
<path d="M58.7148 150.735C75.2073 150.735 88.5771 133.065 88.5771 111.267C88.5771 89.4694 75.2073 71.7988 58.7148 71.7988C42.2223 71.7988 28.8525 89.4694 28.8525 111.267C28.8525 133.065 42.2223 150.735 58.7148 150.735Z" fill="#FFDFCE"/>
<path d="M97.5277 46.2598L79.0033 26.8879C75.3004 23.0155 76.9172 16.6445 81.99 14.9201C87.8824 12.9171 94.5435 13.9757 101.577 17.1267C104.994 18.6574 108.099 20.851 110.717 23.5252C113.042 25.9004 116.141 29.1466 115.413 32.7473C114.824 35.6579 113.251 38.3604 111.011 40.3099" fill="#FFE9D4"/>
<path d="M87.9446 62.887C86.2498 60.9499 84.518 59.9679 82.7976 59.9679H82.7894C80.496 59.972 78.9579 61.7128 78.9423 61.73C78.6385 62.0823 78.1048 62.1176 77.7566 61.8138C77.406 61.5092 77.3682 60.9787 77.6728 60.6281C77.7558 60.532 79.7364 58.2919 82.7861 58.2861C83.189 58.3938 85.8685 57.9603 89.2108 61.7801C89.5163 62.1291 89.481 62.6604 89.1312 62.9667C88.7843 63.2706 88.2523 63.2387 87.9446 62.887ZM70.4065 62.887C68.7116 60.9499 66.9798 59.9679 65.2595 59.9679H65.2513C62.9578 59.972 61.4198 61.7128 61.4042 61.73C61.1003 62.0823 60.5674 62.1176 60.2184 61.8138C59.8678 61.5092 59.83 60.9787 60.1347 60.6281C60.2176 60.532 62.1982 58.2919 65.248 58.2861C65.6508 58.3938 68.3303 57.9603 71.6727 61.7801C71.9781 62.1291 71.9428 62.6604 71.593 62.9667C71.2462 63.2706 70.7142 63.2387 70.4065 62.887Z" fill="#4E4133"/>
<path d="M210.394 76.0714H184.243L184.176 72.4053H210.463L210.394 76.0714Z" fill="#7D6447"/>
<path d="M209.929 101.035H184.702L184.64 97.624H209.993L209.929 101.035Z" fill="#7D6447"/>
<path d="M209.495 124.293H185.13L185.071 121.113H209.555L209.495 124.293Z" fill="#7D6447"/>
<path d="M211.931 146.018H182.693L182.624 143.045H212L211.931 146.018Z" fill="#7D6447"/>
<path d="M211.462 166.353H183.157L183.093 163.566H211.526L211.462 166.353Z" fill="#7D6447"/>
<path d="M211.021 185.431H183.594L183.533 182.814H211.081L211.021 185.431Z" fill="#7D6447"/>
<path d="M211.021 185.431H183.594L183.533 182.814H211.081L211.021 185.431Z" fill="#492401"/>
<path d="M210.607 203.362H184.003L183.946 200.9H210.664L210.607 203.362Z" fill="#7D6447"/>
<path d="M210.394 76.0714H184.243L184.176 72.4053H210.463L210.394 76.0714Z" fill="#492401"/>
<path opacity="0.65" d="M209.929 101.035H184.702L184.64 97.624H209.993L209.929 101.035Z" fill="#7D6447"/>
<path opacity="0.65" d="M209.495 124.293H185.13L185.071 121.113H209.555L209.495 124.293Z" fill="#7D6447"/>
<path d="M211.931 146.018H182.693L182.624 143.045H212L211.931 146.018Z" fill="#492401"/>
<path d="M211.462 166.353H183.157L183.093 163.566H211.526L211.462 166.353Z" fill="#492401"/>
<path d="M210.607 203.362H184.003L183.946 200.9H210.664L210.607 203.362Z" fill="#492401"/>
<path d="M184.306 215.718L186.186 56.4529C186.195 55.6407 185.703 54.9902 185.082 54.9902C184.46 54.9902 183.936 55.6407 183.906 56.4529L177.894 215.718H184.306ZM216.601 215.718L210.589 56.4529C210.559 55.6407 210.035 54.9902 209.413 54.9902C208.792 54.9902 208.3 55.6407 208.309 56.4529L210.189 215.718H216.601Z" fill="#FFF5EA"/>
<path d="M141.487 197.72V204.65C141.487 207.187 139.089 209.523 135.067 211.38H135.052C134.727 211.534 134.418 211.674 134.062 211.813H134.046C131.185 213.004 127.642 213.963 123.604 214.597H123.589C123.264 214.659 122.939 214.705 122.599 214.752H122.584C119.335 215.232 115.823 215.494 112.126 215.525H111.09C107.408 215.494 103.896 215.232 100.648 214.752H100.633C100.292 214.705 99.9671 214.659 99.6423 214.597H99.6265C95.5891 213.963 92.0315 213.004 89.1544 211.813H89.1385C88.7978 211.658 88.473 211.519 88.1482 211.364L88.1331 211.349C84.157 209.508 81.7754 207.187 81.7754 204.65V197.658L88.1022 195.137C88.2752 195.186 92.6484 196.438 92.3714 196.359C103.587 192.915 119.87 192.945 130.891 196.359C131.064 196.309 135.304 195.091 135.036 195.168L141.487 197.72Z" fill="#582F00"/>
<path d="M89.1389 211.813C88.7982 211.658 88.4734 211.519 88.1486 211.364L88.1335 211.349C88.1176 207.543 88.1176 203.645 88.1025 199.793L89.1238 200.087C89.1238 203.939 89.1389 207.884 89.1389 211.813ZM100.633 214.752C100.292 214.706 99.9675 214.659 99.6427 214.597H99.6268C99.6117 209.663 99.5966 204.465 99.5808 199.375C99.9214 199.314 100.246 199.267 100.586 199.221C100.602 204.295 100.617 209.57 100.633 214.752ZM112.111 215.526H111.09C111.09 210.018 111.075 204.156 111.059 198.447H112.064C112.095 204.016 112.111 209.817 112.111 215.526ZM123.589 214.597C123.265 214.659 122.94 214.706 122.599 214.752H122.584C122.584 209.709 122.568 204.403 122.553 199.19C122.893 199.236 123.218 199.283 123.558 199.344C123.558 204.341 123.574 209.508 123.589 214.597ZM135.053 211.38C134.728 211.534 134.418 211.674 134.062 211.813H134.046C134.031 207.976 134.031 204.032 134.016 200.118L135.037 199.824C135.037 203.614 135.053 207.497 135.053 211.38Z" fill="#FB9B2E"/>
<path d="M111.63 208.964C128.115 208.964 141.479 204.101 141.479 198.101C141.479 192.102 128.115 187.239 111.63 187.239C95.145 187.239 81.7812 192.102 81.7812 198.101C81.7812 204.101 95.145 208.964 111.63 208.964Z" fill="#FFAA7C"/>
<path d="M111.635 206.493C99.6048 206.493 89.2353 203.908 86.4179 200.207C85.9006 199.523 85.6387 198.815 85.6387 198.099C85.6387 193.391 97.0576 189.704 111.635 189.704C126.212 189.704 137.63 193.391 137.63 198.099C137.63 198.816 137.368 199.524 136.852 200.206C134.023 203.908 123.653 206.493 111.635 206.493ZM111.635 190.545C97.9995 190.545 86.4795 194.004 86.4795 198.099C86.4795 198.635 86.6783 199.158 87.0872 199.698C89.7132 203.148 100.037 205.653 111.635 205.653C123.222 205.653 133.546 203.148 136.183 199.697C136.59 199.159 136.789 198.636 136.789 198.099C136.789 194.004 125.27 190.545 111.635 190.545Z" fill="#582F00"/>
<path d="M128.041 198.704L127.578 199.855L123.429 199.718C122.98 200.762 121.804 201.837 120.529 202.432L117.947 201.909C117.962 201.909 117.962 201.891 117.977 201.89L117.886 201.892L118.308 200.991C118.308 200.991 119.272 200.759 119.725 200.697C119.74 200.697 119.74 200.697 119.74 200.697C121.973 198.668 120.63 197.147 117.569 197.041C111.618 196.821 111.242 201.955 103.568 201.675C100.161 201.56 97.9912 200.403 98.0355 198.706L93.8867 198.551L94.3352 197.435L98.3168 197.558C98.8265 196.477 99.7819 195.763 100.695 195.246L102.093 195.559C102.164 195.326 102.236 195.128 102.251 195.128C102.281 195.109 103.594 194.889 103.594 194.889L103.232 195.806C100.263 197.389 99.6751 199.956 103.69 200.101C109.207 200.276 109.416 195.145 117.903 195.445C121.158 195.563 123.796 196.657 123.756 198.569L128.041 198.704Z" fill="#DD7703"/>
<path d="M127.946 198.944L123.795 198.8C123.337 199.855 122.165 200.921 120.886 201.522L118.305 200.989C122.05 199.126 122.392 196.277 117.935 196.122C111.907 195.913 111.665 201.036 103.933 200.766C100.522 200.647 98.356 199.482 98.4014 197.786L94.248 197.641L94.6941 196.512L98.6833 196.651C99.1966 195.562 100.15 194.839 101.057 194.336L103.589 194.885C100.443 196.662 100.18 199.05 104.057 199.183C106.195 199.258 107.531 198.62 109.636 197.089C112.104 195.274 114.614 194.402 118.272 194.529C121.521 194.642 124.167 195.75 124.125 197.649L128.399 197.797L127.946 198.944Z" fill="#FBDDBB"/>
<path d="M130.488 186.048V192.978C130.488 195.515 128.09 197.851 124.068 199.708H124.053C123.728 199.862 123.419 200.002 123.063 200.141H123.047C120.186 201.332 116.643 202.291 112.605 202.925H112.59C112.265 202.987 111.94 203.034 111.6 203.08H111.585C101.482 204.571 87.373 203.957 78.1553 200.141H78.1395C77.7988 199.986 77.474 199.847 77.1492 199.692L77.1341 199.677C73.158 197.836 70.7764 195.515 70.7764 192.978V185.986L77.1031 183.465C77.2761 183.514 81.6494 184.766 81.3723 184.687C92.4689 181.28 108.754 181.237 119.892 184.687C120.065 184.637 124.304 183.419 124.037 183.496L130.488 186.048Z" fill="#582F00"/>
<path d="M78.1398 200.142C77.7992 199.987 77.4744 199.848 77.1496 199.693L77.1345 199.678C77.1186 195.872 77.1186 191.974 77.1035 188.122L78.1247 188.416C78.1247 192.268 78.1398 196.213 78.1398 200.142ZM89.6339 203.081C89.0018 202.995 88.9295 202.976 88.6278 202.926C88.6127 197.992 88.5976 192.794 88.5817 187.704C88.9224 187.643 89.2472 187.596 89.5871 187.55C89.603 192.624 89.6181 197.899 89.6339 203.081ZM101.112 203.855H100.091C100.091 198.347 100.076 192.485 100.06 186.776H101.065C101.096 192.345 101.112 198.146 101.112 203.855ZM112.59 202.926C112.266 202.988 111.941 203.035 111.6 203.081H111.585C111.585 198.038 111.569 192.732 111.554 187.519C111.894 187.565 112.219 187.612 112.559 187.674C112.559 192.67 112.575 197.837 112.59 202.926ZM124.054 199.709C123.729 199.863 123.419 200.003 123.063 200.142H123.047C123.032 196.306 123.032 192.361 123.017 188.447L124.038 188.153C124.038 191.943 124.054 195.826 124.054 199.709Z" fill="#FB9B2E"/>
<path d="M100.632 197.292C117.117 197.292 130.481 192.429 130.481 186.43C130.481 180.431 117.117 175.567 100.632 175.567C84.147 175.567 70.7832 180.431 70.7832 186.43C70.7832 192.429 84.147 197.292 100.632 197.292Z" fill="#FFAA7C"/>
<path d="M75.4199 188.534C74.9026 187.852 74.6406 187.143 74.6406 186.427C74.6406 181.719 86.0596 178.032 100.637 178.032C115.214 178.032 126.632 181.719 126.632 186.427C126.632 187.144 126.37 187.852 125.854 188.533C119.483 196.869 81.7892 196.905 75.4199 188.534ZM100.637 178.873C87.0014 178.873 75.4815 182.333 75.4815 186.427C75.4815 186.963 75.6802 187.486 76.0891 188.026C78.7144 191.475 89.0387 193.98 100.637 193.98C112.224 193.98 122.547 191.475 125.185 188.024C125.592 187.487 125.791 186.964 125.791 186.427C125.791 182.333 114.272 178.873 100.637 178.873Z" fill="#582F00"/>
<path d="M117.042 187.033L116.579 188.184L112.43 188.047C111.981 189.091 110.805 190.167 109.53 190.761L106.948 190.238C106.963 190.238 106.963 190.22 106.978 190.22L106.887 190.221L107.309 189.32C107.309 189.32 108.273 189.088 108.726 189.026C108.741 189.026 108.741 189.026 108.741 189.026C110.974 186.997 109.631 185.476 106.57 185.37C100.619 185.15 100.243 190.284 92.5691 190.004C89.1625 189.889 86.9922 188.732 87.0365 187.035L82.8877 186.88L83.3362 185.764L87.3178 185.887C87.8275 184.806 88.7829 184.092 89.6961 183.575L91.0938 183.888C91.1652 183.655 91.2373 183.457 91.2524 183.457C91.2824 183.438 92.5945 183.218 92.5945 183.218L92.2332 184.135C89.2641 185.719 88.6761 188.286 92.691 188.43C98.2084 188.605 98.4174 183.475 106.904 183.774C110.159 183.893 112.797 184.987 112.757 186.898L117.042 187.033Z" fill="#DD7703"/>
<path d="M116.947 187.273L112.796 187.129C112.338 188.184 111.166 189.25 109.887 189.851L107.306 189.318C111.051 187.455 111.393 184.606 106.936 184.451C100.908 184.242 100.666 189.365 92.9338 189.095C89.5226 188.977 87.357 187.811 87.4024 186.115L83.249 185.97L83.6951 184.842L87.6843 184.98C88.1976 183.891 89.1506 183.168 90.0581 182.665L92.5899 183.215C89.444 184.991 89.1813 187.379 93.0581 187.512C98.552 187.704 98.7855 182.564 107.273 182.858C110.522 182.971 113.168 184.079 113.126 185.978L117.4 186.126L116.947 187.273Z" fill="white"/>
<path d="M175.418 167.543C175.265 168.002 175.018 168.096 174.541 168.215C174.503 168.215 174.428 168.234 174.372 168.234L174.055 171.164L172.954 170.343L167.485 179.359L167.373 175.476C164.983 179.553 161.272 181.04 159.16 180.759C161.369 178.896 161.823 177.152 162.315 176.354C163.311 174.66 164.234 171.476 164.722 170.119C165.421 168.214 166.403 166.357 167.093 164.426C167.093 161.811 166.9 173.87 167.634 137.865L167.746 132.284H177.77C177.651 133.579 178.414 125.261 175.175 160.562C175.469 163.982 175.901 166.425 175.418 167.543Z" fill="#FFDBB2"/>
<path d="M175.251 159.723L175.716 139.733L167.636 137.866L167.747 132.284H177.77L175.251 159.723Z" fill="#F7BB76"/>
<path d="M175.037 170.816C174.503 175.412 174.244 180.559 173.968 184.968C173.424 184.92 172.311 185.017 171.766 184.968C171.904 179.909 171.931 174.585 171.565 169.537" fill="#181716"/>
<path d="M169.117 170.672C169.675 170.089 170.955 169.037 171.755 169.121C172.277 169.176 172.685 169.637 172.839 170.139C173.312 171.679 171.94 173.14 171.282 174.195C170.696 175.133 170.281 176.16 170.017 177.221C169.73 178.371 169.285 179.472 169.035 180.638C168.771 181.868 168.528 183.237 167.535 184.009C165.87 185.303 160.275 184.988 158.17 184.71C157.748 184.655 157.297 184.575 156.998 184.272C156.5 183.768 156.687 182.872 157.181 182.364C157.675 181.856 158.376 181.622 159.029 181.347C163.744 179.361 166.676 174.796 170.234 171.37" fill="#181716"/>
<path d="M159.605 180.083C158.687 180.596 157.431 180.989 156.868 181.935C156.514 182.53 156.002 183.751 156.992 184.003C159.181 184.56 161.496 184.618 163.71 184.169C164.413 184.027 165.142 183.814 165.644 183.302C166.76 182.165 168.499 175.001 170.302 173.072C171.741 171.533 173.986 171.481 175.094 170.861C176.936 169.83 176.217 166.89 175.718 165.276C175.483 164.517 174.134 164.84 173.534 164.892C162.737 165.842 165.351 176.874 159.605 180.083Z" fill="#BE5D02"/>
<path d="M174.789 172.435C175.323 171.418 175.803 170.373 176.225 169.305C175.49 169.284 174.748 169.264 174.028 169.407C171.381 169.936 169.754 172.318 168.897 174.882C168.431 176.274 168.155 177.739 167.5 179.053C168.672 178.702 168.791 177.271 169.596 175.404C170.05 174.352 171.246 172.472 172.22 172.903C172.468 173.013 172.624 173.266 172.711 173.524C172.798 173.781 172.831 174.054 172.919 174.311" fill="#181716"/>
<path d="M174.731 43.8783C174.783 44.019 183.684 51.8231 185.449 51.5416C187.208 51.266 194.091 46.294 194.326 46.0653C194.554 45.8308 196.278 42.9519 196.278 42.9519C196.24 42.7835 195.092 37.7381 195.164 38.056L191.846 37.5283H175.727C175.699 37.6994 174.664 43.702 174.731 43.8783Z" fill="#FFDDB7"/>
<path d="M199.463 45.4216C199.203 45.9868 198.869 46.6272 198.486 47.3143C197.087 49.8223 195.03 52.9403 193.494 55.194C192.292 56.9577 191.409 58.192 191.409 58.192L188.692 49.7569L197.203 38.0391C197.203 38.0391 201.417 41.1785 199.463 45.4216Z" fill="#F3EEE8"/>
<path d="M198.474 47.3136C197.074 49.8216 195.018 52.9397 193.481 55.1933C193.212 55.2435 192.989 55.2417 192.83 55.1727C191.632 54.6496 190.452 48.3204 190.452 48.3204L196.315 42.3487C196.985 41.6669 198.17 42.1135 198.189 43.0538C198.215 44.3042 198.289 45.8448 198.474 47.3136Z" fill="#F3A54B"/>
<path d="M175.728 22.5141C175.728 23.0887 176.209 23.5519 176.795 23.5519H177.188V25.8914C177.188 28.0256 178.859 29.8139 181.057 30.0309L181.954 30.1188V37.53H191.846L191.424 28.8582L192.725 22.5669C192.977 20.7317 192.743 19.2775 192.303 18.1459C191.289 15.5602 189.178 14.6221 189.178 14.6221L177.012 15.7068L177.088 21.4059L176.584 21.4998C176.085 21.5994 175.728 22.0216 175.728 22.5141Z" fill="#FFDDB7"/>
<path d="M174.972 42.1316C178.73 48.011 190.042 49.4992 195.968 41.5746L195.165 38.0566L191.846 37.5289L191.424 28.8571L192.726 22.5657C192.978 20.7305 192.743 19.2764 192.304 18.1448C192.128 18.0158 191.946 17.8927 191.764 17.7695L183.767 26.3124C184.57 27.9541 186.352 29.0681 188.182 29.0623C188.205 31.8825 188.188 34.7028 188.129 37.5289C188.105 38.6605 188.07 39.798 188.035 40.9355C183.814 41.9381 179.223 41.2286 175.476 39.0534C175.324 39.9797 175.13 41.17 174.972 42.1316Z" fill="#F7BB76"/>
<path d="M181.109 24.7852H180.846C180.421 24.7852 180.077 24.4411 180.077 24.0166V21.0513C180.077 20.013 181.878 20.0101 181.878 21.0513V24.0166C181.878 24.4411 181.534 24.7852 181.109 24.7852Z" fill="#F7BB76"/>
<path d="M194.156 25.5725C193.578 26.6055 193.494 26.6518 192.831 27.663C192.831 27.663 189.49 27.8871 186.167 27.663C185.066 27.6071 184.114 26.9911 183.368 26.2072C182.06 24.8997 181.46 23.4163 181.016 22.474C180.381 22.2688 179.747 22.1754 179.112 21.9887C179.056 21.3355 179.018 20.6821 179.018 20.0289C179 19.4129 179.056 18.7969 178.944 18.1997C178.869 18.7222 178.776 19.2449 178.701 19.7675C178.048 19.8795 177.376 20.0102 176.722 20.1222C176.666 20.1222 176.573 16.7063 176.573 16.389C176.573 12.4095 178.706 9.83349 181.184 9.24009C182.796 8.70286 184.022 9.42705 184.693 9.6508C187.552 10.5783 189.111 8.49152 191.972 9.98676C191.991 10.0054 192.028 10.0054 192.047 10.0241C192.39 10.1953 192.659 10.5331 192.962 10.7894C193.525 11.2529 194.299 11.4709 194.53 12.208C194.66 12.6 194.828 12.7866 195.108 13.1039C198.356 16.8183 195.892 22.53 194.156 25.5725Z" fill="#86411F"/>
<path d="M197.648 42.0164C197.666 44.8162 197.2 48.848 195.147 53.0665C194.96 53.4584 194.773 53.8317 194.587 54.205C191.297 60.966 190.871 62.5154 191.189 67.663C191.414 70.7988 191.992 74.5878 192.888 76.7344H170.639C170.63 76.5653 170.387 71.8067 170.303 70.1641C170.307 69.9945 170.661 57.401 170.639 58.1995C170.644 58.0269 170.818 52.509 170.807 52.8611L170.863 50.6026L170.919 49.0907L171.031 45.0403C171.036 44.871 171.25 37.4175 171.236 37.8913C172.588 37.7846 175.906 37.5224 175.734 37.5367C175.902 37.6696 179.197 44.5418 187.344 44.1443C195.557 43.7524 195.184 38.0593 195.184 38.0593H197.218C197.274 38.1527 197.648 39.6459 197.648 42.0164Z" fill="#F3EEE8"/>
<path d="M191.19 67.6631C191.414 70.7989 191.992 74.5879 192.888 76.7345H177.508C175.137 75.6893 173.42 74.9053 173.42 74.9053L189.248 72.0121V68.2976C180.942 69.7909 170.602 62.698 170.602 62.698L183.35 51.8906C184.396 52.2079 191.283 53.5145 194.587 54.2051C191.297 60.966 190.872 62.5155 191.19 67.6631Z" fill="#AEA9A3"/>
<path d="M176.077 47.8566C174.867 50.3604 172.771 53.5957 170.689 56.9154L170.802 52.8643L170.872 50.6136L174.712 47.097C175.317 46.5484 176.415 47.1392 176.077 47.8566Z" fill="#F3A54B"/>
<path d="M195.968 176.802C195.968 177.988 194.057 176.952 193.485 176.933C190.139 176.835 187.974 178.247 185.739 178.706C186.446 172.229 187.545 170.429 187.942 167.19C188.091 165.808 188.147 164.427 188.297 163.065C187.968 159.16 189.486 177.196 185.086 124.912L194.046 125.341L196.08 126.163L195.054 161.665L195.091 162.729C195.756 168.069 196.348 171.107 195.968 176.802Z" fill="#FFDBB2"/>
<path d="M196.081 126.161L195.053 161.662L194.102 138.853L185.701 132.19L185.086 124.91L194.046 125.339L196.081 126.161Z" fill="#F7BB76"/>
<path d="M186.678 182.099C187.745 183.129 189.34 182.863 190.695 182.863H193.313C194.866 183.032 196.565 182.971 197.573 181.769C198.677 180.449 198.469 178.476 198.396 176.887C198.326 175.332 198.156 173.783 197.89 172.251C197.618 170.679 197.312 168.702 196.075 167.882C195.013 167.177 193.525 167.47 192.505 168.239C190.393 169.828 188.398 175.219 186.752 176.94C186.484 177.22 186.034 177.604 185.837 177.916C185.326 178.692 185.398 180.861 186.678 182.099Z" fill="#181716"/>
<path d="M195.143 182.628L194.618 185.221H192.563L192.038 180.112" fill="#181716"/>
<path d="M185.838 177.885C188.022 177.6 189.168 173.934 190.466 172.241C191.932 170.331 194.06 169.647 195.242 169.886C196.471 170.137 197.297 171.231 197.891 172.22C197.619 170.648 197.313 168.671 196.076 167.851C195.014 167.145 193.526 167.439 192.506 168.207C190.375 169.811 188.368 175.22 186.753 176.909C186.485 177.189 186.035 177.573 185.838 177.885Z" fill="#BE5D02"/>
<path d="M179.773 23.7236V20.7583C179.773 19.72 181.574 19.7171 181.574 20.7583V23.7236C181.574 24.7619 179.773 24.7648 179.773 23.7236Z" fill="#FFDBB2"/>
<path d="M180.922 20.9455L180.888 21.8029L180.062 22.1392L180.11 20.9154C180.13 20.3961 180.943 20.4273 180.922 20.9455Z" fill="#F7BB76"/>
<path d="M180.028 22.9779L180.853 22.6865L180.821 23.4903C180.801 24.0096 179.989 23.9785 180.009 23.4602L180.028 22.9779Z" fill="#F7BB76"/>
<path d="M218.404 124.687C218.292 124.799 218.161 124.892 217.994 124.948C217.191 125.303 216.313 125.583 215.455 125.751C215.698 126.05 215.865 126.33 216.015 126.628C216.556 127.636 216.201 128.849 215.231 129.447C212.319 131.257 208.773 132.564 205.618 133.59C204.638 133.925 194.094 137.035 193.71 136.073L192.048 131.911C191.656 130.921 190.667 130.305 189.603 130.343C188.408 130.399 187.177 130.436 185.963 130.436C184.899 130.436 183.891 131.089 183.574 132.116C183.387 132.769 183.219 133.404 183.07 134.057C182.902 134.729 182.51 135.289 181.969 135.644C181.651 135.849 181.297 135.98 180.923 135.998C179.3 136.129 177.638 136.054 176.033 135.83C175.212 135.718 174.353 135.569 173.551 135.364C173.439 135.961 173.289 136.558 173.159 137.137C169.78 136.708 166.383 136.446 162.967 136.372C161.941 136.353 161.138 135.494 161.194 134.449L161.287 132.713C161.287 132.583 161.287 132.433 161.269 132.321V132.284C161.138 131.556 160.578 130.977 159.831 130.828L158.786 130.623C158.432 130.548 158.095 130.361 157.871 130.137C157.498 129.783 157.274 129.26 157.312 128.719C158.471 110.711 161.23 90.0104 170.527 74.5139L192.291 74.3086C195.203 76.5298 198.805 80.0389 200.747 83.1C214.91 105.315 216.619 117.639 219.02 122.055C219.524 122.988 219.225 124.108 218.404 124.687Z" fill="#F2783B"/>
<g opacity="0.3">
<path d="M217.66 118.704L194.261 81.4801C192.643 78.9067 189.97 77.1815 186.958 76.7681L170.534 74.5135L192.285 74.3164C195.201 76.523 198.806 80.0299 200.756 83.1034C207.847 94.2432 212.735 103.928 217.66 118.704Z" fill="#C38136"/>
</g>
<g opacity="0.3">
<path d="M166.375 95.5557L161.272 132.279C161.134 131.55 160.583 130.979 159.834 130.821L158.79 130.624L166.375 95.5557Z" fill="#C38136"/>
</g>
<g opacity="0.3">
<path d="M176.03 135.827C175.203 135.728 174.356 135.571 173.548 135.374L174.73 105.723L176.03 135.827Z" fill="#C38136"/>
</g>
<g opacity="0.3">
<path d="M183.576 132.12C183.379 132.77 183.222 133.401 183.064 134.051C182.907 134.721 182.512 135.292 181.961 135.647L180.621 99.79L183.576 132.12Z" fill="#C38136"/>
</g>
<g opacity="0.3">
<path d="M196.204 136.041C194.825 136.278 193.82 136.357 193.702 136.081L192.047 131.904L188.284 104.933L196.204 136.041Z" fill="#C38136"/>
</g>
<g opacity="0.3">
<path d="M218.408 124.693C218.29 124.791 218.152 124.89 217.994 124.949C217.187 125.303 216.32 125.579 215.453 125.757L199.455 94.1553L218.408 124.693Z" fill="#C38136"/>
</g>
<path d="M156.508 35.5336C156.313 35.4945 156.118 35.475 155.923 35.4555C155.416 35.358 154.929 35.2996 154.422 35.241C154.402 35.241 154.402 35.241 154.402 35.241C146.046 34.115 138.111 34.5364 130.42 36.0404C127.732 33.8271 125.835 31.136 124.629 28.2219C124.415 27.7149 124.22 27.1885 124.044 26.6426C123.947 26.3501 123.869 26.0771 123.791 25.7847C123.381 24.2443 123.128 22.6261 123.108 20.9492C123.089 20.8322 123.089 20.6763 123.089 20.5398C123.089 20.3838 123.089 20.2473 123.108 20.1108C123.128 18.434 123.362 16.8352 123.791 15.2949C123.869 15.0024 123.947 14.7294 124.044 14.437C124.59 12.7212 125.351 11.1028 126.326 9.62099C126.52 9.32859 126.716 9.03608 126.91 8.76308C128.275 6.87186 129.952 5.25351 131.882 3.92768C132.331 3.63517 132.779 3.34278 133.247 3.0893C136.172 1.41252 139.564 0.457031 143.172 0.457031C143.289 0.457031 143.406 0.457031 143.542 0.476548C143.542 0.457031 143.542 0.457031 143.542 0.457031H145.804V0.476548L145.862 0.65208C151.134 1.36019 155.67 4.08891 158.672 7.76868C165.608 16.1669 164.497 28.5427 156.508 35.5336Z" fill="#582F00"/>
<path d="M154.454 3.93675H131.883C132.325 3.63082 132.784 3.35041 133.251 3.08691H153.095C153.562 3.35041 154.012 3.63082 154.454 3.93675ZM155.882 8.76382V9.61365H126.325C126.512 9.32469 126.707 9.03572 126.911 8.76382H155.882ZM155.882 14.4407V15.2905H123.792C123.869 15.0015 123.946 14.7211 124.039 14.4407H155.882ZM155.882 20.109V20.9589H123.104C123.096 20.8229 123.096 20.6784 123.096 20.5339C123.096 20.3895 123.096 20.2535 123.104 20.109H155.882ZM155.882 25.7859V26.6357H124.047C123.954 26.3553 123.869 26.0748 123.801 25.7859H155.882ZM155.882 31.4627V32.3126H126.911C126.707 32.0322 126.52 31.7517 126.333 31.4627H155.882Z" fill="#FB9B2E"/>
<path d="M164.95 28.2998C163.683 31.322 161.694 33.9736 159.198 36.021C158.301 35.8455 157.405 35.6699 156.508 35.5335C156.313 35.4945 156.118 35.475 155.923 35.4555C155.416 35.358 154.928 35.2996 154.421 35.241C154.402 35.241 154.402 35.241 154.402 35.241C147.616 34.3265 140.463 34.3716 133.11 35.5529C130.569 33.3238 128.685 30.4532 127.632 27.6175C127.515 27.3054 127.398 26.974 127.281 26.6426C127.203 26.3696 127.125 26.0771 127.027 25.7847C126.618 24.2443 126.384 22.6261 126.345 20.9492V20.1108C126.384 18.4535 126.618 16.8352 127.027 15.2949C127.125 15.0024 127.203 14.7099 127.281 14.437C127.846 12.7212 128.606 11.1028 129.581 9.62099C129.757 9.32859 129.952 9.03608 130.166 8.76308C131.531 6.87186 133.208 5.234 135.138 3.92768C135.567 3.63517 136.016 3.34278 136.483 3.0893C139.233 1.50999 142.411 0.574013 145.803 0.476548C146.018 0.457031 146.213 0.457031 146.427 0.457031C160.855 0.457031 170.483 15.2137 164.95 28.2998Z" fill="#FFAA7C"/>
<path d="M158.672 7.76819C151.307 0.734316 139.812 1.37184 133.228 8.76259C132.974 9.03559 132.74 9.3281 132.526 9.62049C131.375 11.0633 130.478 12.6817 129.816 14.4365C129.718 14.7289 129.621 15.0019 129.543 15.2944C129.055 16.8347 128.782 18.4335 128.743 20.1103V20.9487C128.782 22.6256 129.055 24.2633 129.543 25.7842C129.621 26.0766 129.718 26.3496 129.816 26.6421C129.894 26.8175 129.972 27.0126 130.049 27.2075C131.355 30.4307 133.655 33.2246 136.406 35.104C136.913 35.0261 137.4 34.9871 137.907 34.9286C134.57 32.8835 132.341 30.087 131.024 27.0515C130.985 26.915 130.927 26.7785 130.868 26.6421C130.751 26.3691 130.654 26.0766 130.576 25.7842C130.049 24.2633 129.757 22.6256 129.718 20.9487V20.5393C129.718 20.4028 129.718 20.2468 129.738 20.1103C129.757 18.4335 130.049 16.8152 130.576 15.2944C130.654 15.0019 130.751 14.7094 130.868 14.4365C133.615 7.49263 140.684 3.01806 148.416 3.92719C156.703 4.90208 163.157 11.9798 163.157 20.5393C163.157 26.501 159.935 32.1891 154.422 35.2405C154.929 35.2991 155.416 35.3575 155.923 35.455C165.67 29.149 166.927 15.6893 158.672 7.76819Z" fill="#582F00"/>
<path d="M152.502 24.6941C152.502 27.2616 150.716 29.6707 147.367 30.2201V33.6013H145.317V30.3153C143.436 30.2835 141.481 29.7024 140.351 28.8888L141.122 26.7122H142.052C142.052 26.7122 142.073 26.9763 142.084 27.2616C145.616 28.9218 149.67 28.1096 149.67 24.9265C149.67 20.1338 140.636 21.5396 140.636 15.4276C140.636 12.7332 142.559 10.6834 145.549 10.1973V6.92188H147.557V10.0706C149.511 10.1339 150.843 10.6517 151.783 11.2117L151.424 12.1415C151.582 12.5007 151.9 13.3566 151.9 13.3566H150.97C150.293 12.9657 148.962 12.2472 146.881 12.2472C144.376 12.2472 143.436 13.7475 143.436 15.0472C143.436 19.3928 152.502 17.9852 152.502 24.6941Z" fill="#DD7703"/>
<path d="M151.985 20.9495C151.693 20.6571 151.362 20.3646 150.991 20.1111C148.471 18.291 144.362 17.9816 144.362 15.0418C144.362 14.8467 144.381 14.6323 144.44 14.4373C144.674 13.3844 145.512 12.429 147.267 12.273H147.326C147.353 12.273 147.376 12.273 147.404 12.273C147.54 12.2536 147.677 12.2536 147.813 12.2536C149.86 12.2536 151.206 12.936 151.888 13.326C151.888 13.3455 151.908 13.3455 151.908 13.3455L152.707 11.2007C151.771 10.6548 150.445 10.1283 148.495 10.0699V6.91113H146.468V10.2063C143.348 10.7224 141.574 12.9239 141.574 15.2953V15.4318C141.574 21.4632 150.601 20.188 150.601 24.9271C150.601 25.4622 150.403 26.276 150.036 26.6429C148.467 28.8979 144.353 28.2579 142.061 26.7014V26.7209L141.281 28.8851C142.412 29.704 144.362 30.289 146.253 30.3279V33.6035H148.3V30.2305C153.625 29.343 154.743 23.8197 151.985 20.9495Z" fill="white"/>
<path d="M149.666 60.6756C148.016 61.16 146.202 60.3757 145.441 58.7756C134.431 35.5485 138.228 43.5595 137.407 41.8265C128.952 36.8535 133.047 39.9523 127.964 33.589C127.82 33.3862 127.717 33.1888 127.646 32.967L127.648 32.9531C127.452 32.3751 127.476 31.7401 127.748 31.165L132.932 34.4352C131.902 31.7665 131.241 31.4465 132.235 30.5602C132.669 30.2751 133.243 30.3341 133.605 30.7206L137.127 34.4595L140.254 36.5173C141.758 37.5033 142.774 39.1075 143.013 40.8965L150.073 52.0349L152.199 55.3831C153.38 57.3726 151.821 60.0614 149.666 60.6756Z" fill="#FFDDB7"/>
<path d="M149.666 60.6762C148.016 61.1607 146.201 60.3763 145.441 58.7763C134.431 35.5491 138.228 43.5602 137.407 41.8271L145.61 54.1182C145.61 54.1182 150.06 52.1332 150.073 52.0355L152.198 55.3837C153.38 57.3733 151.821 60.0621 149.666 60.6762Z" fill="#F7BB76"/>
<path d="M173.687 46.2959L166.69 52.1447L154.173 62.5608C151.192 65.0265 146.344 63.2298 145.987 59.1376C145.892 57.7303 146.428 56.2761 147.678 55.1824L167.181 38.9552C168.778 37.6019 171.28 37.5224 172.788 38.4492C175.768 39.9975 176.34 44.1112 173.687 46.2959Z" fill="#F3EEE8"/>
<path d="M170.201 44.2139L164.829 48.7022L152.319 59.0994C150.479 60.6217 147.811 60.5967 145.987 59.1394C145.892 57.7321 146.428 56.2779 147.678 55.1843L166.657 39.3955L170.201 44.2139Z" fill="white"/>
<path d="M185.367 65.9455C185.329 64.191 185.143 62.4364 184.807 60.7379C184.975 62.2685 184.023 64.975 183.519 66.2256C179.132 65.3856 174.69 64.5269 170.602 62.6977C166.272 60.7565 161.4 57.1354 160.467 52.1517C166.328 53.0663 172.599 50.3411 175.922 45.4321C177.658 42.8749 178.572 39.8884 179.17 36.8832C179.786 33.8594 180.458 30.6863 180.7 27.6251C180.901 24.675 180.553 24.5396 181.671 21.5588L185.777 15.1005L185.964 14.8205L188.372 11.0314C189.567 10.0235 190.817 9.76213 192.049 10.0235C195.875 10.7887 199.478 16.4444 200.206 19.6175C202.229 28.2332 197.885 34.9134 198.6 48.8292C198.675 50.8264 198.843 52.8237 199.067 54.8022C199.441 57.882 200 60.9432 200.766 63.9483C200.766 64.0043 186.953 65.7776 185.367 65.9455Z" fill="#86411F"/>
<path d="M75.8792 103.739C75.8792 107.376 74.0606 110.45 71.5672 111.519C70.9486 111.781 70.2924 111.931 69.5987 111.931C66.1305 111.931 63.3184 108.275 63.3184 103.739C63.3184 99.2204 66.1305 95.5459 69.5987 95.5459C70.2924 95.5459 70.9486 95.6959 71.5672 95.9584C74.0606 97.027 75.8792 100.12 75.8792 103.739Z" fill="#FFB186"/>
<path d="M48.2265 111.501C44.4043 113.238 39.9775 109.576 39.9775 103.739C39.9775 97.8435 44.4428 94.2578 48.2265 95.9778C53.946 98.4109 53.9786 109.054 48.2265 111.501Z" fill="#FFB186"/>
<path d="M75.8798 103.74C75.8798 107.377 74.0612 110.452 71.5678 111.52C69.0744 110.452 67.2559 107.377 67.2559 103.74C67.2559 100.122 69.0744 97.0286 71.5678 95.96C74.0612 97.0286 75.8798 100.122 75.8798 103.74Z" fill="#4E4133"/>
<path d="M48.2256 111.502C42.4688 109.054 42.5085 98.4113 48.2256 95.9795C53.9451 98.4125 53.9777 109.055 48.2256 111.502Z" fill="#4E4133"/>
<path d="M178.678 63.5706C174.892 58.8189 176.376 51.6837 181.897 48.904C183.877 47.9058 186.058 47.6465 187.982 46.7402C192.401 44.6578 194.904 38.9869 193.802 33.5493C192.743 28.3265 188.917 23.9243 190.394 15.2507C190.812 12.8045 191.682 11.1959 193.054 10.3345C193.527 10.0406 193.972 10.7509 193.501 11.0472C192.343 11.7739 191.598 13.1954 191.223 15.3919C189.776 23.8897 193.523 27.937 194.627 33.3817C195.802 39.1881 193.099 45.2581 188.34 47.5006C186.367 48.43 184.137 48.7185 182.274 49.6545C177.32 52.15 175.819 58.6325 179.335 63.0467C179.481 63.2281 179.45 63.4926 179.269 63.6371C179.092 63.7799 178.825 63.7553 178.678 63.5706Z" fill="#181716"/>
</g>
<defs>
<clipPath id="clip0_456_6404">
<rect width="262.348" height="221.538" fill="white" transform="translate(0.826172 0.230469)"/>
</clipPath>
</defs>
</svg>
