<svg width="37" height="37" viewBox="0 0 37 37" fill="none" xmlns="http://www.w3.org/2000/svg">
<path d="M36.1497 17.4059C36.2871 20.0472 35.83 22.6857 34.8119 25.1267C31.8449 32.1252 24.0982 36.7783 16.5257 36.1165C11.7268 35.6973 7.23752 33.1611 4.15564 29.4922C1.02344 25.7589 -0.467837 20.9445 0.129448 16.0965C0.722862 11.2886 3.20617 6.6922 7.0208 3.68256C7.57369 3.2464 8.15364 2.84569 8.75718 2.48283C15.2718 -1.43371 24.2737 -0.644208 30.0104 4.33918C33.7528 7.59135 35.9188 12.4677 36.1497 17.4059ZM16.7025 18.803C19.6324 20.2795 22.7035 21.4572 25.8694 22.3183C26.4061 21.1222 26.7843 19.8611 26.9943 18.5669C27.4135 15.9638 27.1581 13.2966 26.2526 10.8203C25.8243 9.65927 24.7497 7.63779 24.4182 7.36818C21.3279 10.8031 18.7311 14.6517 16.7025 18.803ZM24.3924 24.9178C21.3295 24.0354 18.3536 22.8756 15.5015 21.4527C14.1695 24.6458 13.1839 27.9724 12.5615 31.3757C14.8954 31.2762 17.1754 30.6423 19.2257 29.5226C21.276 28.403 23.0419 26.8276 24.3872 24.9178H24.3924ZM9.20353 14.1408C9.86402 14.7343 13.7625 17.2963 14.1534 17.3943C16.1674 13.3105 18.6943 9.50032 21.673 6.05621C20.42 6.12279 19.1815 6.35575 17.9899 6.74896C15.9589 7.40858 14.0889 8.48707 12.5008 9.9147C11.1574 11.1144 10.0405 12.5459 9.20353 14.1408ZM32.357 23.6084C33.1173 21.67 33.4726 19.5965 33.4009 17.5157C33.3292 15.4348 32.8322 13.3906 31.9403 11.5092C31.3451 10.2555 30.5836 9.08786 29.6763 8.0377C28.8572 7.08566 26.9892 5.45764 26.5725 5.33509C28.4137 7.84829 29.5801 10.7914 29.9604 13.8836C30.3407 16.9757 29.9222 20.1137 28.7449 22.9982C29.9498 23.2485 31.1418 23.4497 32.357 23.6084ZM8.07733 16.9312C7.3123 19.4627 7.22334 22.1503 7.81932 24.7268C8.22239 26.4765 8.9373 28.1392 9.92981 29.6354C10.6284 26.3611 11.6348 23.16 12.9356 20.075C11.2598 19.1168 9.63794 18.0673 8.07733 16.9312ZM4.81613 10.4501C5.49598 11.0951 6.18227 11.704 6.89437 12.3025C8.37498 9.6858 10.4851 7.47987 13.0336 5.88464C15.5727 4.28536 18.467 3.33672 21.4601 3.12268C18.1847 2.40801 14.9996 2.67762 11.9307 4.03861C8.86167 5.39959 6.5151 7.55781 4.81613 10.4501ZM17.8454 33.3159C20.417 33.3796 22.9615 32.7779 25.2322 31.5692C27.5498 30.3502 29.5165 28.5577 30.9444 26.3626L27.3697 25.6969C25.0658 29.3181 21.9 31.8736 17.8429 33.3184L17.8454 33.3159ZM3.57383 13.2752C3.22158 14.3399 2.98965 15.4407 2.88237 16.5571C2.77441 17.6702 2.78782 18.7918 2.92237 19.9021C3.05879 21.0166 3.31838 22.1125 3.69638 23.1698C4.06404 24.2095 4.9232 25.9395 5.18121 26.1613C4.16733 22.5028 4.32249 18.6189 5.62498 15.0529L3.57383 13.2752Z" fill="black"/>
<path d="M4.57759 10.5547C4.57759 10.5547 8.42318 14.3074 14.2064 17.6499C14.2296 17.7453 13.1111 20.2299 13.1111 20.2299C13.1111 20.2299 10.2641 18.5129 8.0194 16.912C6.41847 22.4797 8.2774 27.378 9.92864 29.6355C11.8637 32.2956 11.3361 34.339 11.3361 34.339C11.3361 34.339 6.91126 31.9215 5.18133 26.1615C4.24089 23.0293 4.19187 19.3243 5.6251 15.053C5.38773 14.8363 3.38818 13.2728 3.38818 13.2728L4.57759 10.5547Z" fill="white" stroke="black" stroke-width="0.645016" stroke-miterlimit="10"/>
</svg>
