<svg width="433" height="432" viewBox="0 0 433 432" fill="none" xmlns="http://www.w3.org/2000/svg">
<circle cx="357.654" cy="173.805" r="10.5488" stroke="white" stroke-width="3.01395"/>
<circle cx="216.501" cy="216.503" r="202.437" stroke="white" stroke-width="18.0837"/>
<path d="M291.18 155.785C277.279 158.599 266.189 166.663 258.668 179.368C252.06 190.703 249.705 202.19 250.389 220.448C250.844 233.99 252.44 241.065 257.149 250.498C261.327 259.018 270.367 268.375 277.583 271.799C294.067 279.482 314.956 278.95 333.339 270.353L339.796 267.31V257.801C339.796 252.552 339.568 248.216 339.34 248.216C339.112 248.216 337.061 249.737 334.706 251.639C325.211 259.399 317.159 262.594 305.917 263.202C299.46 263.583 297.333 263.354 292.851 261.985C284.571 259.475 276.823 252.78 272.569 244.488C266.113 231.631 264.745 212.384 269.227 196.485C273.329 181.726 282.976 171.76 295.89 169.022C301.967 167.652 312.601 168.565 318.83 170.924C324.983 173.282 327.414 174.651 333.719 179.748C336.301 181.878 338.732 183.552 339.112 183.552C339.492 183.552 339.796 179.292 339.796 174.043C339.796 163.088 340.403 163.925 330.3 159.893C318.071 155.024 302.878 153.426 291.18 155.785Z" fill="white"/>
<path d="M93.6795 163.011V169.097H101.276H108.872V215.883V262.669H101.276H93.6035L93.8314 268.907L94.0593 275.222H116.848H139.636V269.136V263.05L132.268 262.821L124.824 262.593V215.883V169.173L132.268 168.945L139.636 168.717L139.864 162.783L140.092 156.925H116.848H93.6795V163.011Z" fill="white"/>
<path d="M175.111 189.41C169.11 207.363 160.298 233.609 155.513 247.759C150.727 261.985 146.853 274.081 146.853 274.614C146.853 275.45 148.448 275.603 154.601 275.45L162.349 275.222L167.743 258.866L173.06 242.51L195.545 242.282L218.029 242.13L223.499 258.866L229.044 275.603H236.792C241.122 275.603 244.768 275.374 245.072 275.146C245.3 274.918 237.248 250.346 227.221 220.6C217.194 190.779 208.306 164.305 207.395 161.642L205.799 156.926H195.848H185.973L175.111 189.41ZM204.508 200.441C209.218 214.819 213.244 226.991 213.472 227.447C213.775 228.208 209.901 228.436 195.924 228.436C186.049 228.436 177.997 228.208 177.997 227.828C177.997 226.686 195.089 174.423 195.469 174.423C195.696 174.423 199.798 186.139 204.508 200.441Z" fill="white"/>
<path d="M353.101 179.26V167.847H358.068C358.582 167.847 359.054 167.955 359.482 168.169C359.911 168.383 360.281 168.667 360.592 169.021C360.913 169.374 361.16 169.771 361.331 170.21C361.513 170.65 361.604 171.1 361.604 171.561C361.604 172.064 361.513 172.547 361.331 173.007C361.149 173.468 360.886 173.865 360.543 174.197C360.211 174.529 359.82 174.77 359.37 174.92L362.054 179.26H360.029L357.554 175.29H354.901V179.26H353.101ZM354.901 173.699H358.052C358.384 173.699 358.679 173.602 358.936 173.409C359.193 173.216 359.397 172.959 359.547 172.638C359.697 172.305 359.772 171.946 359.772 171.561C359.772 171.164 359.686 170.81 359.515 170.5C359.343 170.178 359.118 169.921 358.839 169.728C358.572 169.535 358.277 169.439 357.955 169.439H354.901V173.699Z" fill="white"/>
</svg>
