<svg width="369" height="208" viewBox="0 0 369 208" fill="none" xmlns="http://www.w3.org/2000/svg">
<g clip-path="url(#clip0_817_28325)">
<rect x="0.515625" width="367.657" height="208" rx="32" fill="black" fill-opacity="0.08"/>
<g filter="url(#filter1_f_817_28325)">
<circle cx="284.984" cy="163.258" r="88.2576" fill="#BE5D02" fill-opacity="0.64"/>
</g>
<rect x="24.5156" y="24" width="319.657" height="160" rx="21.5057" fill="white"/>
<path fill-rule="evenodd" clip-rule="evenodd" d="M250.182 37.2988C250.182 67.317 250.182 97.3356 250.182 127.354C205.155 127.354 160.127 127.354 115.1 127.354C115.1 97.3356 115.1 67.317 115.1 37.2988C160.127 37.2988 205.155 37.2988 250.182 37.2988Z" fill="#003398"/>
<path fill-rule="evenodd" clip-rule="evenodd" d="M182.642 48.0518C183.239 49.0615 183.575 50.1815 183.65 51.412C187.804 50.8764 188.196 51.5484 184.826 53.4282C184.983 54.6802 185.207 55.9121 185.498 57.1245C184.592 56.3872 183.641 55.7152 182.642 55.1083C181.799 55.5858 181.014 56.1459 180.29 56.7884C180.178 56.6204 180.066 56.4524 179.954 56.2844C180.411 55.367 180.579 54.4151 180.458 53.4282C179.618 52.8122 178.778 52.196 177.938 51.58C179.165 51.4124 180.397 51.3566 181.634 51.412C181.836 50.2467 182.172 49.1267 182.642 48.0518Z" fill="#EAC01A"/>
<path fill-rule="evenodd" clip-rule="evenodd" d="M167.857 52.084C168.331 53.1062 168.778 54.1704 169.201 55.2762C170.321 55.3881 171.441 55.5004 172.561 55.6123C171.608 56.2867 170.712 57.0148 169.873 57.7964C170.404 58.8794 170.684 59.9994 170.713 61.1567C169.871 60.401 168.975 59.7289 168.025 59.1405C167.078 59.6143 166.182 60.1745 165.337 60.8207C165.517 59.7138 165.629 58.5938 165.673 57.4604C164.922 56.7211 164.082 56.1052 163.152 55.6123C164.38 55.4446 165.611 55.3888 166.849 55.4442C167.051 54.2789 167.387 53.1589 167.857 52.084Z" fill="#EEC11A"/>
<path fill-rule="evenodd" clip-rule="evenodd" d="M197.427 52.084C198.024 53.0937 198.36 54.2137 198.435 55.4442C199.672 55.3888 200.904 55.4446 202.131 55.6123C201.178 56.2867 200.282 57.0148 199.443 57.7964C199.941 58.8922 200.221 60.0125 200.283 61.1567C199.441 60.401 198.545 59.7289 197.595 59.1405C196.613 59.5622 195.717 60.1224 194.907 60.8207C195.088 59.7138 195.2 58.5938 195.243 57.4604C194.403 56.8445 193.563 56.2282 192.723 55.6123C193.95 55.4446 195.182 55.3888 196.419 55.4442C196.621 54.2789 196.957 53.1589 197.427 52.084Z" fill="#EFC218"/>
<path fill-rule="evenodd" clip-rule="evenodd" d="M208.179 62.8369C208.653 63.8591 209.101 64.9233 209.523 66.0292C210.643 66.1411 211.763 66.2533 212.883 66.3652C211.93 67.0396 211.034 67.7678 210.195 68.5494C210.726 69.6324 211.006 70.7523 211.035 71.9096C210.172 71.1136 209.219 70.4415 208.179 69.8935C207.336 70.3709 206.552 70.9311 205.827 71.5736C205.715 71.4056 205.603 71.2376 205.491 71.0695C205.948 70.1522 206.116 69.2002 205.995 68.2133C205.173 67.717 204.445 67.1011 203.811 66.3652C204.947 66.306 206.067 66.138 207.171 65.8611C207.457 64.8269 207.793 63.8188 208.179 62.8369Z" fill="#E9BF1C"/>
<path fill-rule="evenodd" clip-rule="evenodd" d="M156.767 63.1729C157.187 63.1987 157.467 63.4229 157.607 63.8449C157.829 64.6221 157.997 65.4061 158.111 66.1971C162.265 65.6615 162.657 66.3335 159.287 68.2132C159.444 69.4653 159.668 70.6971 159.959 71.9095C159.053 71.1723 158.101 70.5002 157.103 69.8934C156.26 70.3709 155.475 70.931 154.751 71.5735C154.639 71.4055 154.526 71.2375 154.415 71.0695C154.777 70.1303 154.945 69.178 154.919 68.2132C154.079 67.5973 153.239 66.981 152.398 66.3651C153.626 66.1974 154.857 66.1416 156.095 66.1971C156.319 65.189 156.543 64.1809 156.767 63.1729Z" fill="#EBC01A"/>
<path fill-rule="evenodd" clip-rule="evenodd" d="M153.072 77.6221C153.545 78.6443 153.993 79.7085 154.416 80.8143C155.536 80.9262 156.656 81.0384 157.776 81.1503C156.823 81.8247 155.927 82.5529 155.088 83.3345C155.619 84.4175 155.899 85.5375 155.928 86.6948C155.064 85.8987 154.112 85.2267 153.072 84.6786C152.228 85.1561 151.444 85.7163 150.719 86.3587C150.607 86.1907 150.495 86.0227 150.383 85.8547C150.841 84.9374 151.009 83.9854 150.887 82.9985C150.047 82.3825 149.207 81.7663 148.367 81.1503C149.614 81.0915 150.846 80.9235 152.063 80.6463C152.349 79.612 152.685 78.6039 153.072 77.6221Z" fill="#EABF1B"/>
<path fill-rule="evenodd" clip-rule="evenodd" d="M211.876 77.6221C212.638 78.5502 213.086 79.6701 213.22 80.9823C214.457 80.9269 215.689 80.9827 216.917 81.1503C216.076 81.7663 215.236 82.3825 214.396 82.9985C214.577 84.1054 214.689 85.2253 214.732 86.3587C213.938 85.7327 213.098 85.1729 212.212 84.6786C211.326 85.1729 210.486 85.7327 209.692 86.3587C209.735 85.2253 209.847 84.1054 210.028 82.9985C209.188 82.3825 208.348 81.7663 207.508 81.1503C208.735 80.9827 209.967 80.9269 211.204 80.9823C211.358 79.8476 211.582 78.7273 211.876 77.6221Z" fill="#EFC217"/>
<path fill-rule="evenodd" clip-rule="evenodd" d="M208.179 92.4072C208.776 93.417 209.112 94.537 209.187 95.7675C210.424 95.712 211.656 95.7678 212.883 95.9355C211.881 96.6022 210.985 97.3861 210.195 98.2877C210.759 99.3021 211.039 100.366 211.035 101.48C210.13 100.743 209.178 100.071 208.179 99.4638C207.336 99.9413 206.552 100.501 205.827 101.144C205.715 100.976 205.603 100.808 205.491 100.64C205.948 99.7225 206.116 98.7705 205.995 97.7836C205.155 97.1677 204.315 96.5514 203.475 95.9355C204.722 95.8767 205.954 95.7087 207.171 95.4315C207.457 94.3972 207.793 93.3891 208.179 92.4072Z" fill="#EABF1C"/>
<path fill-rule="evenodd" clip-rule="evenodd" d="M157.103 92.7432C157.765 93.6115 158.101 94.6195 158.111 95.7674C159.348 95.712 160.58 95.7677 161.807 95.9354C160.967 96.5513 160.127 97.1676 159.287 97.7836C159.444 99.0356 159.668 100.267 159.959 101.48C159.053 100.743 158.101 100.071 157.103 99.4637C156.26 99.9412 155.475 100.501 154.751 101.144C154.639 100.976 154.526 100.808 154.415 100.64C154.777 99.7006 154.945 98.7483 154.919 97.7836C154.079 97.1676 153.239 96.5513 152.398 95.9354C153.626 95.7677 154.857 95.712 156.095 95.7674C156.231 94.6871 156.567 93.679 157.103 92.7432Z" fill="#EBC01A"/>
<path fill-rule="evenodd" clip-rule="evenodd" d="M168.865 106.184C169.889 106.728 171.009 107.064 172.225 107.192C171.392 107.666 170.608 108.226 169.873 108.872C170.268 109.995 170.548 111.115 170.713 112.232C169.807 111.495 168.855 110.823 167.857 110.216C166.986 110.848 166.146 111.52 165.336 112.232C165.448 111 165.56 109.768 165.672 108.536C165.003 108.144 164.387 107.697 163.824 107.192C164.832 106.968 165.84 106.744 166.848 106.52C167.489 102.821 168.161 102.709 168.865 106.184Z" fill="#F0C316"/>
<path fill-rule="evenodd" clip-rule="evenodd" d="M197.091 103.496C197.916 104.275 198.364 105.283 198.435 106.52C199.672 106.465 200.904 106.521 202.131 106.688C201.129 107.355 200.233 108.139 199.443 109.041C199.746 110.005 200.082 110.957 200.451 111.897C200.339 112.009 200.227 112.121 200.115 112.233C199.314 111.431 198.418 110.759 197.427 110.217C196.468 111.026 195.46 111.643 194.403 112.065C195.034 110.959 195.314 109.783 195.243 108.536C191.873 106.657 192.265 105.985 196.419 106.52C196.643 105.512 196.867 104.504 197.091 103.496Z" fill="#E6BD21"/>
<path fill-rule="evenodd" clip-rule="evenodd" d="M166.849 106.52C165.841 106.744 164.832 106.968 163.824 107.192C163.559 107.097 163.335 106.929 163.152 106.688C164.38 106.52 165.611 106.464 166.849 106.52Z" fill="#7F7E4E"/>
<path fill-rule="evenodd" clip-rule="evenodd" d="M168.865 106.184C170.085 106.385 171.317 106.609 172.562 106.856C172.52 107.06 172.408 107.172 172.225 107.192C171.009 107.064 169.889 106.728 168.865 106.184Z" fill="#83804D"/>
<path fill-rule="evenodd" clip-rule="evenodd" d="M182.642 107.192C183.239 108.202 183.575 109.322 183.65 110.553C184.887 110.497 186.119 110.553 187.346 110.721C186.506 111.337 185.666 111.953 184.826 112.569C184.983 113.821 185.207 115.053 185.498 116.265C184.592 115.528 183.641 114.856 182.642 114.249C181.799 114.726 181.014 115.287 180.29 115.929C180.178 115.761 180.066 115.593 179.954 115.425C180.411 114.508 180.579 113.556 180.458 112.569C179.618 111.953 178.778 111.337 177.938 110.721C179.165 110.553 180.397 110.497 181.634 110.553C181.836 109.387 182.172 108.267 182.642 107.192Z" fill="#EABF1B"/>
<path fill-rule="evenodd" clip-rule="evenodd" d="M250.182 37.2988C250.518 67.3725 250.63 97.5029 250.518 127.69C205.322 127.802 160.183 127.69 115.1 127.354C160.127 127.354 205.155 127.354 250.182 127.354C250.182 97.3356 250.182 67.317 250.182 37.2988Z" fill="#5473BA"/>
<path fill-rule="evenodd" clip-rule="evenodd" d="M144.334 139.45C149.982 139.188 152.278 141.876 151.223 147.515C149.05 151.488 146.081 152.215 142.318 149.699C139.592 145.554 140.264 142.138 144.334 139.45Z" fill="#1C3D9E"/>
<path fill-rule="evenodd" clip-rule="evenodd" d="M212.883 139.45C218.181 139.317 220.477 141.893 219.772 147.179C217.917 151.159 215.061 152.111 211.203 150.035C208.929 147.376 208.649 144.52 210.363 141.466C211.073 140.586 211.913 139.914 212.883 139.45Z" fill="#1A3D9E"/>
<path fill-rule="evenodd" clip-rule="evenodd" d="M114.765 139.786C115.325 139.786 115.885 139.786 116.445 139.786C116.389 142.589 116.445 145.389 116.613 148.187C117.744 149.904 119.256 150.296 121.149 149.363C121.553 149.059 121.833 148.668 121.989 148.187C122.157 145.389 122.213 142.589 122.157 139.786C122.717 139.786 123.277 139.786 123.837 139.786C123.977 142.95 123.809 146.086 123.333 149.195C122.296 150.637 120.896 151.197 119.133 150.875C117.438 151.225 116.15 150.665 115.269 149.195C114.792 146.086 114.624 142.95 114.765 139.786Z" fill="#153B9D"/>
<path fill-rule="evenodd" clip-rule="evenodd" d="M126.189 139.787C126.85 139.707 127.467 139.818 128.038 140.123C129.914 142.866 131.706 145.666 133.414 148.524C133.582 145.614 133.638 142.701 133.582 139.787C134.03 139.787 134.478 139.787 134.926 139.787C134.926 143.483 134.926 147.179 134.926 150.876C134.265 150.956 133.649 150.844 133.078 150.54C131.37 147.682 129.578 144.882 127.702 142.139C127.534 145.049 127.478 147.961 127.534 150.876C127.086 150.876 126.637 150.876 126.189 150.876C126.189 147.179 126.189 143.483 126.189 139.787Z" fill="#0B369A"/>
<path fill-rule="evenodd" clip-rule="evenodd" d="M137.615 139.786C137.615 143.371 137.615 146.955 137.615 150.539C138.063 150.539 138.512 150.539 138.959 150.539C138.483 150.859 137.923 150.97 137.279 150.875C137.169 147.119 137.281 143.422 137.615 139.786Z" fill="#7A94CA"/>
<path fill-rule="evenodd" clip-rule="evenodd" d="M137.613 139.786C138.061 139.786 138.509 139.786 138.957 139.786C138.957 143.371 138.957 146.955 138.957 150.539C138.509 150.539 138.061 150.539 137.613 150.539C137.613 146.955 137.613 143.371 137.613 139.786Z" fill="#003398"/>
<path fill-rule="evenodd" clip-rule="evenodd" d="M153.408 139.786C153.408 143.371 153.408 146.955 153.408 150.539C153.856 150.539 154.304 150.539 154.752 150.539C154.276 150.859 153.716 150.97 153.072 150.875C152.962 147.119 153.074 143.422 153.408 139.786Z" fill="#7A94C9"/>
<path fill-rule="evenodd" clip-rule="evenodd" d="M153.408 139.786C154.009 139.69 154.569 139.802 155.088 140.122C156.936 142.922 158.785 145.723 160.633 148.523C160.801 145.613 160.857 142.7 160.801 139.786C161.249 139.786 161.697 139.786 162.145 139.786C162.145 143.482 162.145 147.179 162.145 150.875C161.484 150.955 160.868 150.843 160.297 150.539C158.421 147.796 156.629 144.995 154.92 142.138C154.752 144.936 154.697 147.736 154.752 150.539C154.304 150.539 153.856 150.539 153.408 150.539C153.408 146.954 153.408 143.37 153.408 139.786Z" fill="#08369A"/>
<path fill-rule="evenodd" clip-rule="evenodd" d="M164.496 139.786C167.072 139.786 169.648 139.786 172.225 139.786C172.225 140.234 172.225 140.682 172.225 141.13C170.209 141.13 168.192 141.13 166.176 141.13C166.176 142.25 166.176 143.371 166.176 144.49C168.08 144.49 169.984 144.49 171.889 144.49C171.889 144.938 171.889 145.387 171.889 145.835C169.984 145.835 168.08 145.835 166.176 145.835C166.176 147.067 166.176 148.299 166.176 149.531C168.192 149.531 170.209 149.531 172.225 149.531C172.225 149.979 172.225 150.427 172.225 150.875C169.648 150.875 167.072 150.875 164.496 150.875C164.496 147.179 164.496 143.482 164.496 139.786Z" fill="#173C9E"/>
<path fill-rule="evenodd" clip-rule="evenodd" d="M178.609 139.786C178.609 143.371 178.609 146.955 178.609 150.539C181.074 150.539 183.538 150.539 186.002 150.539C186.002 150.203 186.002 149.867 186.002 149.531C186.316 149.89 186.428 150.338 186.338 150.875C183.65 150.875 180.962 150.875 178.273 150.875C178.163 147.119 178.275 143.422 178.609 139.786Z" fill="#4569B3"/>
<path fill-rule="evenodd" clip-rule="evenodd" d="M178.609 139.786C181.186 139.786 183.762 139.786 186.338 139.786C186.338 140.234 186.338 140.682 186.338 141.13C184.21 141.13 182.082 141.13 179.953 141.13C179.953 142.25 179.953 143.371 179.953 144.49C181.858 144.49 183.762 144.49 185.666 144.49C185.666 144.938 185.666 145.387 185.666 145.835C183.762 145.835 181.858 145.835 179.953 145.835C179.953 147.067 179.953 148.299 179.953 149.531C181.97 149.531 183.986 149.531 186.002 149.531C186.002 149.867 186.002 150.203 186.002 150.539C183.538 150.539 181.073 150.539 178.609 150.539C178.609 146.955 178.609 143.371 178.609 139.786Z" fill="#11399C"/>
<path fill-rule="evenodd" clip-rule="evenodd" d="M188.017 139.786C188.465 139.786 188.913 139.786 189.361 139.786C189.305 142.477 189.361 145.165 189.529 147.851C190.551 149.823 192.063 150.327 194.066 149.363C194.733 148.92 195.125 148.304 195.242 147.515C195.41 144.941 195.465 142.365 195.41 139.786C195.858 139.786 196.306 139.786 196.754 139.786C196.81 142.7 196.754 145.613 196.586 148.523C195.732 150.351 194.276 151.135 192.217 150.875C190.717 151.117 189.485 150.669 188.521 149.531C188.044 146.31 187.876 143.061 188.017 139.786Z" fill="#09369A"/>
<path fill-rule="evenodd" clip-rule="evenodd" d="M199.107 139.786C201.713 139.653 204.289 139.821 206.836 140.29C208.205 142.052 208.093 143.732 206.5 145.331C206.904 145.634 207.184 146.026 207.34 146.507C207.402 147.901 207.682 149.245 208.18 150.539C207.557 150.963 206.942 150.963 206.332 150.539C206.22 149.419 206.108 148.299 205.996 147.179C205.892 146.907 205.724 146.683 205.492 146.507C203.946 146.19 202.378 146.078 200.788 146.171C200.788 147.739 200.788 149.307 200.788 150.875C200.227 150.875 199.668 150.875 199.107 150.875C199.107 147.179 199.107 143.483 199.107 139.786Z" fill="#1E40A0"/>
<path fill-rule="evenodd" clip-rule="evenodd" d="M221.621 139.787C223.752 139.731 225.88 139.787 228.006 139.955C229.886 140.746 230.502 142.146 229.854 144.155C229.762 144.769 229.482 145.273 229.014 145.667C227.151 146.139 225.247 146.307 223.301 146.171C223.301 147.739 223.301 149.307 223.301 150.875C222.741 150.875 222.181 150.875 221.621 150.875C221.621 147.179 221.621 143.483 221.621 139.787Z" fill="#173C9E"/>
<path fill-rule="evenodd" clip-rule="evenodd" d="M232.037 139.786C232.037 143.371 232.037 146.955 232.037 150.539C234.501 150.539 236.966 150.539 239.43 150.539C239.43 150.203 239.43 149.867 239.43 149.531C239.744 149.89 239.856 150.338 239.766 150.875C237.078 150.875 234.389 150.875 231.701 150.875C231.591 147.119 231.703 143.422 232.037 139.786Z" fill="#4367B4"/>
<path fill-rule="evenodd" clip-rule="evenodd" d="M232.037 139.786C234.501 139.786 236.966 139.786 239.43 139.786C239.43 140.234 239.43 140.682 239.43 141.13C237.414 141.13 235.397 141.13 233.381 141.13C233.381 142.25 233.381 143.371 233.381 144.49C235.285 144.49 237.189 144.49 239.094 144.49C239.094 144.938 239.094 145.387 239.094 145.835C237.189 145.835 235.285 145.835 233.381 145.835C233.381 147.067 233.381 148.299 233.381 149.531C235.397 149.531 237.414 149.531 239.43 149.531C239.43 149.867 239.43 150.203 239.43 150.539C236.966 150.539 234.501 150.539 232.037 150.539C232.037 146.955 232.037 143.371 232.037 139.786Z" fill="#0E389B"/>
<path fill-rule="evenodd" clip-rule="evenodd" d="M244.47 139.787C245.131 139.707 245.747 139.818 246.318 140.123C247.553 143.659 248.953 147.131 250.518 150.54C249.881 150.864 249.209 150.976 248.502 150.876C248.38 149.826 248.1 148.818 247.662 147.852C246.067 147.47 244.443 147.414 242.79 147.683C242.285 148.693 241.949 149.757 241.782 150.876C241.181 150.972 240.621 150.86 240.102 150.54C241.429 146.892 242.885 143.307 244.47 139.787Z" fill="#163B9D"/>
<path fill-rule="evenodd" clip-rule="evenodd" d="M144.67 140.794C147.284 140.405 149.02 141.413 149.879 143.818C150.405 146.388 149.565 148.348 147.359 149.699C144.773 150.142 143.149 149.078 142.486 146.507C141.917 144.067 142.645 142.163 144.67 140.794Z" fill="#F7F8FB"/>
<path fill-rule="evenodd" clip-rule="evenodd" d="M213.221 140.795C217.521 140.79 219.145 142.918 218.093 147.179C216.756 149.753 214.795 150.37 212.213 149.028C210.961 147.266 210.569 145.306 211.037 143.147C211.606 142.187 212.334 141.403 213.221 140.795Z" fill="#F9FAFC"/>
<path fill-rule="evenodd" clip-rule="evenodd" d="M200.787 141.131C202.359 141.075 203.927 141.132 205.491 141.299C206.156 142.138 206.324 143.091 205.996 144.155C205.743 144.366 205.463 144.534 205.155 144.659C203.703 144.827 202.247 144.883 200.787 144.827C200.787 143.595 200.787 142.363 200.787 141.131Z" fill="#FAFBFD"/>
<path fill-rule="evenodd" clip-rule="evenodd" d="M223.301 141.131C224.761 141.075 226.217 141.132 227.669 141.299C228.334 142.138 228.502 143.091 228.173 144.155C227.87 144.559 227.478 144.839 226.997 144.996C225.77 145.163 224.538 145.219 223.301 145.164C223.301 143.819 223.301 142.475 223.301 141.131Z" fill="#F4F6FA"/>
<path fill-rule="evenodd" clip-rule="evenodd" d="M244.807 141.467C245.227 141.493 245.507 141.717 245.647 142.139C246.143 143.459 246.536 144.804 246.823 146.171C245.703 146.171 244.583 146.171 243.463 146.171C243.978 144.626 244.426 143.058 244.807 141.467Z" fill="#EDF0F7"/>
<path fill-rule="evenodd" clip-rule="evenodd" d="M73.0974 160.956C73.0974 161.292 73.0974 161.628 73.0974 161.964C71.4173 161.964 69.7371 161.964 68.057 161.964C68.057 163.645 68.057 165.325 68.057 167.005C67.609 167.005 67.1609 167.005 66.7129 167.005C66.7129 163.42 66.7129 159.836 66.7129 156.252C69.1771 156.252 71.6414 156.252 74.1055 156.252C74.1055 156.7 74.1055 157.148 74.1055 157.596C72.0893 157.596 70.0731 157.596 68.057 157.596C68.057 158.716 68.057 159.836 68.057 160.956C69.7371 160.956 71.4173 160.956 73.0974 160.956Z" fill="#023399"/>
<path fill-rule="evenodd" clip-rule="evenodd" d="M96.6202 156.252C97.0681 156.252 97.5164 156.252 97.9643 156.252C97.9643 159.836 97.9643 163.42 97.9643 167.005C97.3087 167.097 96.8047 166.873 96.4522 166.333C94.2126 167.957 92.5324 167.509 91.4118 164.989C91.0529 163.218 91.277 161.538 92.0838 159.948C93.5644 158.63 95.0204 158.63 96.4522 159.948C96.6199 158.721 96.6756 157.489 96.6202 156.252Z" fill="#153A9C"/>
<path fill-rule="evenodd" clip-rule="evenodd" d="M174.912 156.252C175.36 156.252 175.808 156.252 176.256 156.252C176.256 159.836 176.256 163.42 176.256 167.005C175.601 167.097 175.097 166.873 174.744 166.333C172.699 167.877 171.019 167.541 169.704 165.325C169.337 163.444 169.561 161.652 170.376 159.948C171.832 158.604 173.288 158.604 174.744 159.948C174.912 158.721 174.968 157.489 174.912 156.252Z" fill="#153A9D"/>
<path fill-rule="evenodd" clip-rule="evenodd" d="M178.273 156.252C178.609 156.252 178.945 156.252 179.282 156.252C179.282 156.812 179.282 157.372 179.282 157.932C178.945 157.932 178.609 157.932 178.273 157.932C178.273 157.372 178.273 156.812 178.273 156.252Z" fill="#153B9D"/>
<path fill-rule="evenodd" clip-rule="evenodd" d="M200.115 156.252C200.563 156.252 201.011 156.252 201.459 156.252C201.459 156.812 201.459 157.372 201.459 157.932C201.011 157.932 200.563 157.932 200.115 157.932C200.115 157.372 200.115 156.812 200.115 156.252Z" fill="#153B9D"/>
<path fill-rule="evenodd" clip-rule="evenodd" d="M203.475 156.252C203.923 156.252 204.371 156.252 204.819 156.252C204.819 159.836 204.819 163.42 204.819 167.005C204.371 167.005 203.923 167.005 203.475 167.005C203.475 163.42 203.475 159.836 203.475 156.252Z" fill="#173D9E"/>
<path fill-rule="evenodd" clip-rule="evenodd" d="M292.186 156.252C292.633 156.252 293.082 156.252 293.53 156.252C293.53 159.836 293.53 163.42 293.53 167.005C293.082 167.005 292.633 167.005 292.186 167.005C292.186 163.42 292.186 159.836 292.186 156.252Z" fill="#173C9E"/>
<path fill-rule="evenodd" clip-rule="evenodd" d="M264.297 156.252C264.857 156.252 265.417 156.252 265.977 156.252C265.977 156.812 265.977 157.372 265.977 157.932C265.417 157.932 264.857 157.932 264.297 157.932C264.297 157.372 264.297 156.812 264.297 156.252Z" fill="#4661B1"/>
<path fill-rule="evenodd" clip-rule="evenodd" d="M77.1299 158.94C81.6316 159.08 83.0318 161.32 81.3302 165.661C80.2045 167.201 78.6924 167.705 76.7938 167.173C74.9739 165.746 74.358 163.898 74.9457 161.629C75.3842 160.466 76.112 159.569 77.1299 158.94Z" fill="#1A3D9E"/>
<path fill-rule="evenodd" clip-rule="evenodd" d="M101.659 158.94C106.082 159.178 107.482 161.419 105.859 165.661C104.145 167.554 102.241 167.778 100.147 166.333C98.6218 163.379 99.1258 160.915 101.659 158.94Z" fill="#183C9D"/>
<path fill-rule="evenodd" clip-rule="evenodd" d="M134.926 158.94C139.697 159.159 141.097 161.511 139.127 165.997C137.986 167.241 136.585 167.633 134.926 167.173C134.086 166.781 133.47 166.165 133.078 165.325C132.854 163.869 132.854 162.413 133.078 160.957C133.535 160.109 134.151 159.437 134.926 158.94Z" fill="#2040A0"/>
<path fill-rule="evenodd" clip-rule="evenodd" d="M159.456 158.941C163.63 158.875 165.143 160.892 163.992 164.989C163.03 167.069 161.406 167.797 159.12 167.174C156.329 164.261 156.441 161.517 159.456 158.941Z" fill="#2140A0"/>
<path fill-rule="evenodd" clip-rule="evenodd" d="M232.71 158.94C237.531 159.168 238.931 161.52 236.91 165.997C235.769 167.241 234.369 167.633 232.71 167.173C231.87 166.781 231.254 166.165 230.861 165.325C230.637 163.869 230.637 162.413 230.861 160.957C231.318 160.109 231.934 159.437 232.71 158.94Z" fill="#1C3E9F"/>
<path fill-rule="evenodd" clip-rule="evenodd" d="M270.008 158.94C272.925 158.829 274.381 160.229 274.376 163.14C274.374 165.718 273.086 167.118 270.512 167.34C269.566 167.371 268.782 167.035 268.16 166.332C267.222 164.468 267.111 162.564 267.824 160.62C268.43 159.838 269.158 159.278 270.008 158.94Z" fill="#183C9D"/>
<path fill-rule="evenodd" clip-rule="evenodd" d="M86.2019 158.94C87.8081 158.651 88.9842 159.211 89.7301 160.62C89.8982 162.745 89.9539 164.873 89.8982 167.004C89.4502 167.004 89.002 167.004 88.5541 167.004C88.6098 165.097 88.5537 163.193 88.386 161.292C87.3245 159.969 86.2046 159.969 85.0258 161.292C84.8581 163.193 84.802 165.097 84.8578 167.004C84.4099 167.004 83.9616 167.004 83.5137 167.004C83.5137 164.428 83.5137 161.852 83.5137 159.276C84.1693 159.184 84.6733 159.408 85.0258 159.948C85.4105 159.566 85.8027 159.23 86.2019 158.94Z" fill="#133A9C"/>
<path fill-rule="evenodd" clip-rule="evenodd" d="M114.092 158.94C117.341 158.828 118.909 160.396 118.797 163.645C116.892 163.645 114.988 163.645 113.084 163.645C113.247 165.76 114.367 166.488 116.444 165.829C116.799 164.734 117.471 164.454 118.461 164.989C117.506 166.971 115.938 167.699 113.756 167.173C112.788 166.752 112.172 166.025 111.908 164.989C111.142 162.37 111.869 160.354 114.092 158.94Z" fill="#1D3F9F"/>
<path fill-rule="evenodd" clip-rule="evenodd" d="M126.19 159.276C126.19 161.853 126.19 164.429 126.19 167.005C125.638 167.012 125.19 166.788 124.846 166.333C124.642 166.375 124.53 166.486 124.51 166.669C123.104 167.675 121.816 167.563 120.646 166.333C120.181 164.011 120.013 161.658 120.142 159.276C120.59 159.276 121.038 159.276 121.486 159.276C121.43 161.296 121.486 163.312 121.654 165.325C122.932 166.346 123.94 166.122 124.678 164.653C124.846 162.864 124.902 161.072 124.846 159.276C125.294 159.276 125.742 159.276 126.19 159.276Z" fill="#11399C"/>
<path fill-rule="evenodd" clip-rule="evenodd" d="M126.19 159.276C126.523 161.903 126.635 164.591 126.526 167.341C125.724 167.422 125.052 167.198 124.51 166.669C124.53 166.486 124.642 166.375 124.846 166.333C125.19 166.788 125.638 167.012 126.19 167.005C126.19 164.429 126.19 161.853 126.19 159.276Z" fill="#89A1D0"/>
<path fill-rule="evenodd" clip-rule="evenodd" d="M130.893 158.94C131.341 158.94 131.789 158.94 132.237 158.94C132.237 159.501 132.237 160.06 132.237 160.621C131.382 160.487 130.654 160.712 130.053 161.293C129.885 163.194 129.829 165.098 129.885 167.005C129.437 167.005 128.989 167.005 128.541 167.005C128.541 164.429 128.541 161.853 128.541 159.276C128.877 159.276 129.213 159.276 129.549 159.276C129.499 159.63 129.555 159.966 129.717 160.285C130.179 159.88 130.571 159.432 130.893 158.94Z" fill="#2843A1"/>
<path fill-rule="evenodd" clip-rule="evenodd" d="M143.999 158.94C147.593 159.168 148.881 161.072 147.863 164.653C146.976 167.141 145.352 167.813 142.991 166.669C142.659 167.767 142.547 168.887 142.655 170.029C142.207 170.029 141.758 170.029 141.311 170.029C141.311 166.445 141.311 162.861 141.311 159.276C141.966 159.185 142.47 159.409 142.823 159.949C143.207 159.567 143.6 159.231 143.999 158.94Z" fill="#11399C"/>
<path fill-rule="evenodd" clip-rule="evenodd" d="M151.39 158.94C154.862 158.604 156.431 160.172 156.095 163.644C154.303 163.644 152.51 163.644 150.718 163.644C150.632 165.839 151.64 166.567 153.743 165.829C154.27 164.845 155.054 164.509 156.095 164.82C155.172 166.85 153.604 167.634 151.39 167.173C149.417 165.849 148.689 164.001 149.206 161.628C149.703 160.51 150.431 159.614 151.39 158.94Z" fill="#1D3F9F"/>
<path fill-rule="evenodd" clip-rule="evenodd" d="M178.273 159.276C178.609 159.276 178.945 159.276 179.282 159.276C179.282 161.853 179.282 164.429 179.282 167.005C178.945 167.005 178.609 167.005 178.273 167.005C178.273 164.429 178.273 161.853 178.273 159.276Z" fill="#003298"/>
<path fill-rule="evenodd" clip-rule="evenodd" d="M192.051 159.277C192.603 159.205 193.107 159.317 193.563 159.613C194.237 161.421 194.909 163.213 195.579 164.99C196.162 163.185 196.778 161.393 197.427 159.613C197.827 159.301 198.275 159.189 198.771 159.277C197.918 161.835 197.135 164.411 196.419 167.006C195.818 167.101 195.258 166.99 194.739 166.67C193.642 164.275 192.746 161.81 192.051 159.277Z" fill="#193C9D"/>
<path fill-rule="evenodd" clip-rule="evenodd" d="M200.115 159.276C200.563 159.276 201.011 159.276 201.459 159.276C201.459 161.853 201.459 164.429 201.459 167.005C201.011 167.005 200.563 167.005 200.115 167.005C200.115 164.429 200.115 161.853 200.115 159.276Z" fill="#003298"/>
<path fill-rule="evenodd" clip-rule="evenodd" d="M206.499 159.276C206.947 159.276 207.395 159.276 207.843 159.276C207.787 161.296 207.844 163.312 208.011 165.325C209.118 166.269 210.126 166.158 211.035 164.989C211.203 163.088 211.259 161.184 211.203 159.276C211.651 159.276 212.1 159.276 212.548 159.276C212.548 161.853 212.548 164.429 212.548 167.005C211.995 167.012 211.548 166.788 211.203 166.333C209.766 167.632 208.366 167.632 207.003 166.333C206.538 164.011 206.37 161.658 206.499 159.276Z" fill="#203F9F"/>
<path fill-rule="evenodd" clip-rule="evenodd" d="M217.253 158.94C219.986 158.872 221.442 160.216 221.621 162.972C221.699 165.58 220.467 167.036 217.925 167.341C217.114 167.372 216.498 167.036 216.077 166.332C215.909 167.672 215.853 169.016 215.909 170.365C215.461 170.365 215.012 170.365 214.564 170.365C214.564 166.669 214.564 162.972 214.564 159.276C215.22 159.184 215.724 159.408 216.077 159.948C216.461 159.566 216.853 159.23 217.253 158.94Z" fill="#2141A0"/>
<path fill-rule="evenodd" clip-rule="evenodd" d="M223.973 170.029C223.637 170.029 223.301 170.029 222.965 170.029C222.965 166.445 222.965 162.861 222.965 159.276C223.557 159.228 224.117 159.341 224.645 159.612C227.669 158.44 229.349 159.504 229.685 162.805C229.895 165.335 228.775 166.847 226.325 167.341C225.448 167.322 224.72 166.986 224.141 166.333C223.973 167.56 223.917 168.792 223.973 170.029Z" fill="#1B3C9E"/>
<path fill-rule="evenodd" clip-rule="evenodd" d="M244.807 159.949C244.498 160.139 244.385 159.915 244.471 159.276C244.135 159.276 243.799 159.276 243.463 159.276C243.463 161.853 243.463 164.429 243.463 167.005C243.129 164.379 243.017 161.69 243.127 158.94C243.687 158.94 244.247 158.94 244.807 158.94C244.807 159.276 244.807 159.612 244.807 159.949Z" fill="#8AA1CF"/>
<path fill-rule="evenodd" clip-rule="evenodd" d="M243.463 167.005C243.463 164.429 243.463 161.853 243.463 159.277C243.799 159.277 244.135 159.277 244.471 159.277C244.386 159.916 244.498 160.139 244.807 159.949C245.383 159.159 246.167 158.823 247.159 158.941C247.159 159.501 247.159 160.061 247.159 160.621C246.304 160.488 245.576 160.712 244.975 161.293C244.807 163.194 244.751 165.098 244.807 167.005C244.359 167.005 243.911 167.005 243.463 167.005Z" fill="#193D9E"/>
<path fill-rule="evenodd" clip-rule="evenodd" d="M250.184 158.941C253.426 158.822 254.994 160.39 254.888 163.645C252.984 163.645 251.08 163.645 249.176 163.645C249.353 165.779 250.473 166.507 252.536 165.829C252.879 165.307 253.327 164.915 253.88 164.653C254.104 164.765 254.328 164.877 254.552 164.989C253.085 167.546 251.125 167.995 248.672 166.333C247.136 163.368 247.64 160.904 250.184 158.941Z" fill="#1E3F9F"/>
<path fill-rule="evenodd" clip-rule="evenodd" d="M258.248 158.94C259.378 158.795 260.33 159.131 261.104 159.948C261.457 159.408 261.961 159.184 262.616 159.276C262.767 162.56 262.599 165.808 262.112 169.021C260.344 170.655 258.496 170.767 256.568 169.357C256.317 168.941 256.205 168.493 256.232 168.013C257.191 168.453 258.199 168.789 259.256 169.021C260.935 168.922 261.55 168.026 261.104 166.332C260.035 167.012 258.859 167.18 257.576 166.836C256.886 166.524 256.382 166.02 256.064 165.324C255.278 162.603 256.006 160.474 258.248 158.94Z" fill="#183B9D"/>
<path fill-rule="evenodd" clip-rule="evenodd" d="M264.633 159.276C265.081 159.276 265.529 159.276 265.977 159.276C265.977 161.853 265.977 164.429 265.977 167.005C265.529 167.005 265.081 167.005 264.633 167.005C264.633 164.429 264.633 161.853 264.633 159.276Z" fill="#173C9D"/>
<path fill-rule="evenodd" clip-rule="evenodd" d="M278.745 158.94C280.151 158.673 281.215 159.121 281.937 160.284C282.105 162.522 282.161 164.762 282.105 167.005C281.657 167.005 281.209 167.005 280.761 167.005C280.817 164.986 280.761 162.97 280.593 160.956C279.486 160.012 278.478 160.124 277.569 161.292C277.401 163.193 277.345 165.098 277.401 167.005C276.953 167.005 276.505 167.005 276.057 167.005C276.057 164.429 276.057 161.853 276.057 159.276C276.609 159.27 277.057 159.494 277.401 159.948C277.872 159.605 278.32 159.269 278.745 158.94Z" fill="#183D9E"/>
<path fill-rule="evenodd" clip-rule="evenodd" d="M285.802 158.941C287.301 158.734 288.645 159.07 289.835 159.949C290.156 161.945 290.268 163.961 290.171 165.997C290.507 165.997 290.843 165.997 291.179 165.997C291.179 166.445 291.179 166.894 291.179 167.342C290.139 167.541 289.355 167.205 288.827 166.333C287.467 167.381 286.011 167.55 284.458 166.837C283.275 164.855 283.723 163.399 285.802 162.469C286.699 162.357 287.594 162.245 288.491 162.133C289.161 160.743 288.712 160.127 287.147 160.285C285.985 160.041 285.424 160.489 285.466 161.629C285.018 161.629 284.57 161.629 284.122 161.629C284.134 160.386 284.695 159.49 285.802 158.941Z" fill="#1C3E9E"/>
<path fill-rule="evenodd" clip-rule="evenodd" d="M297.562 158.94C300.784 158.802 302.353 160.37 302.266 163.644C300.362 163.644 298.458 163.644 296.554 163.644C296.673 165.612 297.681 166.34 299.578 165.829C300.042 165.282 300.602 164.89 301.258 164.652C301.482 164.764 301.706 164.877 301.93 164.988C301.011 167.072 299.443 167.8 297.226 167.173C296.626 166.909 296.122 166.517 295.714 165.997C294.546 163.093 295.163 160.741 297.562 158.94Z" fill="#1F3F9F"/>
<path fill-rule="evenodd" clip-rule="evenodd" d="M77.4654 160.284C80.3653 160.327 81.3176 161.783 80.3217 164.653C79.6318 165.927 78.5679 166.319 77.1294 165.829C75.7097 163.851 75.8219 162.003 77.4654 160.284Z" fill="#F6F7FB"/>
<path fill-rule="evenodd" clip-rule="evenodd" d="M93.9301 160.284C95.0931 160.165 95.9332 160.613 96.4503 161.628C96.8512 163.192 96.5713 164.592 95.6103 165.829C94.2746 166.292 93.3223 165.9 92.754 164.653C92.5299 163.645 92.5299 162.637 92.754 161.628C92.9859 161.007 93.3777 160.559 93.9301 160.284Z" fill="#F8F9FC"/>
<path fill-rule="evenodd" clip-rule="evenodd" d="M101.659 160.285C102.451 160.23 103.235 160.286 104.012 160.453C105.356 162.245 105.356 164.037 104.012 165.829C101.124 166.185 100.06 164.897 100.819 161.965C101.104 161.396 101.384 160.836 101.659 160.285Z" fill="#F5F7FA"/>
<path fill-rule="evenodd" clip-rule="evenodd" d="M114.092 160.285C116.003 159.959 117.011 160.743 117.116 162.637C115.772 162.637 114.428 162.637 113.084 162.637C113.147 161.727 113.483 160.944 114.092 160.285Z" fill="#E5E9F4"/>
<path fill-rule="evenodd" clip-rule="evenodd" d="M135.261 160.284C137.374 159.933 138.494 160.829 138.622 162.973C138.536 165.248 137.416 166.2 135.261 165.829C134.982 165.549 134.701 165.269 134.421 164.989C134.02 163.265 134.3 161.696 135.261 160.284Z" fill="#F8F9FC"/>
<path fill-rule="evenodd" clip-rule="evenodd" d="M143.662 160.285C145.003 159.988 145.955 160.436 146.518 161.629C146.919 163.192 146.639 164.593 145.678 165.83C144.343 166.293 143.39 165.901 142.822 164.653C142.433 163.038 142.713 161.582 143.662 160.285Z" fill="#F8F9FB"/>
<path fill-rule="evenodd" clip-rule="evenodd" d="M151.726 160.284C153.623 159.942 154.631 160.726 154.75 162.636C153.406 162.636 152.062 162.636 150.718 162.636C150.601 161.644 150.937 160.86 151.726 160.284Z" fill="#E4E9F3"/>
<path fill-rule="evenodd" clip-rule="evenodd" d="M159.792 160.284C162.692 160.327 163.645 161.783 162.649 164.653C161.959 165.927 160.895 166.319 159.456 165.829C158.469 163.879 158.581 162.031 159.792 160.284Z" fill="#FAFBFC"/>
<path fill-rule="evenodd" clip-rule="evenodd" d="M172.225 160.285C173.463 160.024 174.303 160.473 174.746 161.629C175.107 163.178 174.826 164.578 173.906 165.829C172.363 166.372 171.411 165.868 171.049 164.317C170.577 162.656 170.968 161.312 172.225 160.285Z" fill="#F8F9FC"/>
<path fill-rule="evenodd" clip-rule="evenodd" d="M216.916 160.285C218.082 160.075 219.035 160.411 219.773 161.293C219.997 162.525 219.997 163.757 219.773 164.99C218.374 166.417 217.142 166.305 216.076 164.654C215.728 163.065 216.008 161.609 216.916 160.285Z" fill="#F6F7FB"/>
<path fill-rule="evenodd" clip-rule="evenodd" d="M225.316 160.284C227.811 160.442 228.763 161.786 228.172 164.316C227.613 165.841 226.549 166.345 224.98 165.829C223.992 163.879 224.104 162.031 225.316 160.284Z" fill="#F7F8FB"/>
<path fill-rule="evenodd" clip-rule="evenodd" d="M233.046 160.284C235.817 159.992 236.881 161.224 236.238 163.98C235.951 165.869 234.886 166.485 233.046 165.828C231.714 163.981 231.714 162.133 233.046 160.284Z" fill="#F5F7FB"/>
<path fill-rule="evenodd" clip-rule="evenodd" d="M253.208 161.964C252.659 162.186 252.043 162.298 251.36 162.3C250.589 162.285 249.972 162.061 249.512 161.628C249.761 160.742 250.377 160.294 251.36 160.284C252.462 160.323 253.079 160.883 253.208 161.964Z" fill="#F6F8FB"/>
<path fill-rule="evenodd" clip-rule="evenodd" d="M258.247 160.284C261.147 160.327 262.099 161.783 261.103 164.653C260.491 165.826 259.539 166.217 258.247 165.829C256.915 163.981 256.915 162.133 258.247 160.284Z" fill="#F4F6FA"/>
<path fill-rule="evenodd" clip-rule="evenodd" d="M269.673 160.284C272.444 159.992 273.508 161.224 272.865 163.98C272.276 166.1 271.044 166.548 269.169 165.324C268.373 163.517 268.541 161.837 269.673 160.284Z" fill="#F5F7FA"/>
<path fill-rule="evenodd" clip-rule="evenodd" d="M297.562 160.285C299.474 159.959 300.482 160.743 300.586 162.637C299.242 162.637 297.898 162.637 296.554 162.637C296.437 161.644 296.773 160.86 297.562 160.285Z" fill="#E3E8F3"/>
<path fill-rule="evenodd" clip-rule="evenodd" d="M73.097 160.957C73.4109 161.316 73.5231 161.764 73.4331 162.301C71.7529 162.301 70.0728 162.301 68.3927 162.301C68.5 163.935 68.388 165.503 68.0566 167.005C68.0566 165.325 68.0566 163.645 68.0566 161.965C69.7368 161.965 71.4169 161.965 73.097 161.965C73.097 161.629 73.097 161.293 73.097 160.957Z" fill="#5575BA"/>
<path fill-rule="evenodd" clip-rule="evenodd" d="M249.511 161.628C249.972 162.06 250.588 162.284 251.359 162.3C252.043 162.298 252.658 162.186 253.208 161.964C253.39 161.984 253.502 162.096 253.544 162.3C252.104 162.633 250.648 162.746 249.175 162.636C249.096 162.202 249.207 161.866 249.511 161.628Z" fill="#7C96CA"/>
<path fill-rule="evenodd" clip-rule="evenodd" d="M186.674 158.941C188.892 158.482 190.461 159.266 191.379 161.293C190.859 161.613 190.299 161.725 189.699 161.629C189.756 161.185 189.644 160.792 189.362 160.453C188.579 160.229 187.794 160.229 187.01 160.453C186.553 161.104 186.665 161.664 187.346 162.133C188.773 162.315 190.061 162.819 191.211 163.645C191.662 166.162 190.598 167.395 188.018 167.341C186.32 167.435 185.312 166.65 184.994 164.989C185.218 164.877 185.442 164.765 185.666 164.653C186.719 165.91 188.063 166.302 189.699 165.829C190.118 165.327 190.118 164.823 189.699 164.317C188.237 163.902 186.837 163.342 185.498 162.637C185.049 161.097 185.441 159.864 186.674 158.941Z" fill="#1C3E9E"/>
<path fill-rule="evenodd" clip-rule="evenodd" d="M287.481 163.309C287.929 163.309 288.377 163.309 288.825 163.309C288.779 165.761 287.603 166.545 285.297 165.661C285.073 165.213 285.073 164.765 285.297 164.317C285.984 163.837 286.712 163.501 287.481 163.309Z" fill="#F0F3F9"/>
<path fill-rule="evenodd" clip-rule="evenodd" d="M222.965 159.276C222.965 162.861 222.965 166.445 222.965 170.029C223.301 170.029 223.637 170.029 223.973 170.029C223.614 170.343 223.166 170.455 222.629 170.365C222.519 166.609 222.631 162.913 222.965 159.276Z" fill="#8099CC"/>
</g>
<rect x="1.51562" y="1" width="365.657" height="206" rx="31" stroke="white" stroke-opacity="0.64" stroke-width="2"/>
<defs>
<filter id="filter1_f_817_28325" x="45.2114" y="-76.5151" width="479.546" height="479.546" filterUnits="userSpaceOnUse" color-interpolation-filters="sRGB">
<feFlood flood-opacity="0" result="BackgroundImageFix"/>
<feBlend mode="normal" in="SourceGraphic" in2="BackgroundImageFix" result="shape"/>
<feGaussianBlur stdDeviation="75.7576" result="effect1_foregroundBlur_817_28325"/>
</filter>
<clipPath id="clip0_817_28325">
<rect x="0.515625" width="367.657" height="208" rx="32" fill="white"/>
</clipPath>
</defs>
</svg>
