<svg width="368" height="208" viewBox="0 0 368 208" fill="none" xmlns="http://www.w3.org/2000/svg">
<g clip-path="url(#clip0_817_28516)">
<rect x="0.171875" width="367.657" height="208" rx="32" fill="black" fill-opacity="0.08"/>
<g filter="url(#filter1_f_817_28516)">
<circle cx="284.64" cy="163.258" r="88.2576" fill="#BE5D02" fill-opacity="0.64"/>
</g>
<rect x="24.1719" y="24" width="319.657" height="160" rx="21.5057" fill="white"/>
<path fill-rule="evenodd" clip-rule="evenodd" d="M98.2285 60.1484C101.065 60.1484 103.904 60.1484 106.741 60.1484C106.741 60.7424 106.741 61.3363 106.741 61.9302C103.936 61.9454 101.099 61.9454 98.2285 61.9302C98.2285 61.3363 98.2285 60.7424 98.2285 60.1484Z" fill="#02A642"/>
<path fill-rule="evenodd" clip-rule="evenodd" d="M106.741 60.1484C106.935 60.7671 107.001 61.427 106.939 62.1282C106.773 62.1958 106.708 62.3278 106.741 62.5241C106.611 62.6781 106.446 62.8101 106.246 62.9201C103.738 62.9417 101.198 62.9087 98.6245 62.8211C98.6898 62.7551 98.7571 62.6891 98.8224 62.6231C98.6344 62.5275 98.4364 62.4945 98.2285 62.5241C98.2285 62.3262 98.2285 62.1282 98.2285 61.9302C101.099 61.9454 103.936 61.9454 106.741 61.9302C106.741 61.3363 106.741 60.7424 106.741 60.1484Z" fill="#0B9948"/>
<path fill-rule="evenodd" clip-rule="evenodd" d="M98.2285 62.5251C98.4364 62.4955 98.6344 62.5285 98.8224 62.6241C98.7571 62.6901 98.6898 62.7561 98.6245 62.8221C101.198 62.9097 103.738 62.9427 106.246 62.9211C106.446 62.8111 106.611 62.6791 106.741 62.5251C106.741 63.0531 106.741 63.581 106.741 64.1089C103.904 64.1089 101.065 64.1089 98.2285 64.1089C98.2285 63.581 98.2285 63.0531 98.2285 62.5251Z" fill="#088949"/>
<path fill-rule="evenodd" clip-rule="evenodd" d="M106.939 62.1289C106.939 62.8548 106.939 63.5807 106.939 64.3066C106.747 64.7238 106.682 65.1858 106.741 65.6924C103.904 65.6924 101.065 65.6924 98.2285 65.6924C98.2285 65.1645 98.2285 64.6366 98.2285 64.1087C101.065 64.1087 103.904 64.1087 106.741 64.1087C106.741 63.5807 106.741 63.0528 106.741 62.5249C106.708 62.3285 106.773 62.1966 106.939 62.1289Z" fill="#0D7B4E"/>
<path fill-rule="evenodd" clip-rule="evenodd" d="M136.438 66.2858C136.385 66.7494 136.218 66.7494 135.943 66.2858C135.811 66.4178 135.68 66.5497 135.547 66.6817C132.148 66.419 128.751 66.419 125.352 66.6817C125.352 65.8239 125.352 64.966 125.352 64.1081C128.519 64.0751 131.687 64.1081 134.854 64.2071C135.425 64.8755 135.953 65.5684 136.438 66.2858Z" fill="#04A842"/>
<path fill-rule="evenodd" clip-rule="evenodd" d="M178.803 65.2959C178.803 70.2453 178.803 75.1946 178.803 80.144C178.209 80.144 177.615 80.144 177.021 80.144C177.021 75.1946 177.021 70.2453 177.021 65.2959C177.615 65.2959 178.209 65.2959 178.803 65.2959Z" fill="#1A355D"/>
<path fill-rule="evenodd" clip-rule="evenodd" d="M245.323 67.0777C245.128 68.4265 245.062 69.8123 245.126 71.2351C247.105 71.2351 249.085 71.2351 251.065 71.2351C251.065 71.8291 251.065 72.423 251.065 73.0169C249.085 73.0169 247.105 73.0169 245.126 73.0169C245.126 74.8646 245.126 76.7125 245.126 78.5602C247.238 78.5602 249.348 78.5602 251.461 78.5602C251.461 79.1541 251.461 79.748 251.461 80.342C248.754 80.342 246.05 80.342 243.344 80.342C243.344 75.3267 243.344 70.3112 243.344 65.2959C245.983 65.2959 248.624 65.2959 251.263 65.2959C251.263 65.8898 251.263 66.4837 251.263 67.0777C249.283 67.0777 247.303 67.0777 245.323 67.0777Z" fill="#1E385F"/>
<path fill-rule="evenodd" clip-rule="evenodd" d="M53.4863 64.1081C58.898 64.0751 64.3096 64.1081 69.7202 64.2071C71.6762 64.3328 73.5233 64.8278 75.2635 65.6919C75.2813 65.889 75.214 66.054 75.0655 66.1868C75.5842 66.3662 75.5506 66.4652 74.9666 66.4838C68.2295 66.5396 61.431 66.4737 54.5752 66.2858C54.3772 66.8138 54.1792 66.8138 53.9813 66.2858C53.8288 66.5032 53.6639 66.5032 53.4863 66.2858C53.4863 65.5599 53.4863 64.834 53.4863 64.1081Z" fill="#03A842"/>
<path fill-rule="evenodd" clip-rule="evenodd" d="M199.988 65.2953C202.083 65.1391 204.13 65.3701 206.125 65.9882C207.957 67.1907 208.584 68.8735 208.006 71.0366C207.367 72.7305 206.147 73.6875 204.344 73.9072C203.488 74.006 202.631 74.0391 201.77 74.0062C201.77 76.118 201.77 78.2296 201.77 80.3414C201.176 80.3414 200.582 80.3414 199.988 80.3414C199.988 75.3261 199.988 70.3106 199.988 65.2953Z" fill="#1D375E"/>
<path fill-rule="evenodd" clip-rule="evenodd" d="M106.939 64.3066C106.939 65.4285 106.939 66.5503 106.939 67.6722C106.874 67.6722 106.807 67.6722 106.741 67.6722C106.793 67.3796 106.728 67.1157 106.543 66.8803C106.252 66.9245 105.955 66.9904 105.653 67.0783C103.178 66.9445 100.703 66.8124 98.2285 66.6823C98.2285 66.3523 98.2285 66.0225 98.2285 65.6925C101.065 65.6925 103.904 65.6925 106.741 65.6925C106.682 65.1858 106.747 64.7239 106.939 64.3066Z" fill="#136A52"/>
<path fill-rule="evenodd" clip-rule="evenodd" d="M178.803 65.2959C179.001 70.2771 179.067 75.2926 179.001 80.342C178.3 80.4039 177.639 80.3378 177.021 80.144C177.615 80.144 178.209 80.144 178.803 80.144C178.803 75.1946 178.803 70.2453 178.803 65.2959Z" fill="#8795A9"/>
<path fill-rule="evenodd" clip-rule="evenodd" d="M229.287 71.2351C229.287 71.7631 229.287 72.2909 229.287 72.8189C227.308 72.8189 225.328 72.8189 223.348 72.8189C223.283 74.7686 223.35 76.6822 223.546 78.5602C225.591 78.5602 227.638 78.5602 229.683 78.5602C229.683 79.1541 229.683 79.748 229.683 80.342C226.977 80.342 224.273 80.342 221.566 80.342C221.566 75.3267 221.566 70.3112 221.566 65.2959C224.273 65.2959 226.977 65.2959 229.683 65.2959C229.683 65.8898 229.683 66.4837 229.683 67.0777C227.571 67.0777 225.461 67.0777 223.348 67.0777C223.348 68.4635 223.348 69.8493 223.348 71.2351C225.328 71.2351 227.308 71.2351 229.287 71.2351Z" fill="#1D375E"/>
<path fill-rule="evenodd" clip-rule="evenodd" d="M98.2285 66.6816C100.703 66.8117 103.178 66.9438 105.653 67.0776C105.955 66.9897 106.252 66.9238 106.543 66.8796C106.728 67.115 106.793 67.3789 106.741 67.6715C103.938 67.8687 101.101 67.9346 98.2285 67.8695C98.2285 67.4735 98.2285 67.0776 98.2285 66.6816Z" fill="#125E53"/>
<path fill-rule="evenodd" clip-rule="evenodd" d="M201.77 67.0773C202.993 66.9995 204.181 67.1644 205.333 67.5722C206.266 68.3918 206.562 69.4146 206.224 70.6408C205.689 71.618 204.866 72.1791 203.749 72.3236C203.092 72.4222 202.433 72.4553 201.77 72.4226C201.77 70.6408 201.77 68.8591 201.77 67.0773Z" fill="#F7F8F9"/>
<path fill-rule="evenodd" clip-rule="evenodd" d="M75.2639 65.6924C76.6992 66.3358 77.8197 67.3257 78.6294 68.662C78.6433 68.7487 78.6096 68.8148 78.5304 68.86C70.4135 68.7279 62.2965 68.5961 54.1796 68.464C54.0475 68.5961 53.9157 68.7279 53.7836 68.86C53.5003 68.0414 53.4013 67.1835 53.4867 66.2863C53.6642 66.5037 53.8292 66.5037 53.9816 66.2863C54.1796 66.8143 54.3775 66.8143 54.5755 66.2863C61.4314 66.4742 68.2298 66.5401 74.9669 66.4843C75.5509 66.4657 75.5846 66.3667 75.0659 66.1873C75.2144 66.0545 75.2817 65.8895 75.2639 65.6924Z" fill="#069C45"/>
<path fill-rule="evenodd" clip-rule="evenodd" d="M136.438 66.2852C136.903 66.7524 137.299 67.2804 137.626 67.869C137.4 68.0618 137.202 68.2928 137.032 68.5619C133.271 68.6939 129.509 68.6939 125.748 68.5619C125.641 68.4199 125.508 68.3209 125.352 68.2649C125.352 67.7369 125.352 67.2091 125.352 66.6811C128.751 66.4184 132.148 66.4184 135.547 66.6811C135.68 66.5491 135.811 66.4172 135.943 66.2852C136.218 66.7488 136.385 66.7488 136.438 66.2852Z" fill="#059B45"/>
<path fill-rule="evenodd" clip-rule="evenodd" d="M267.299 66.8799C267.487 67.1608 267.553 67.4906 267.497 67.8698C265.65 67.8698 263.801 67.8698 261.954 67.8698C261.954 69.3876 261.954 70.9053 261.954 72.4232C263.771 72.3584 265.553 72.4246 267.299 72.6211C265.452 72.6211 263.603 72.6211 261.756 72.6211C261.756 70.9714 261.756 69.3215 261.756 67.6718C263.603 67.6718 265.452 67.6718 267.299 67.6718C267.299 67.4079 267.299 67.1438 267.299 66.8799Z" fill="#B5BDCA"/>
<path fill-rule="evenodd" clip-rule="evenodd" d="M106.741 67.6719C106.807 67.6719 106.874 67.6719 106.939 67.6719C106.939 71.5654 106.939 75.4588 106.939 79.3524C106.874 79.3524 106.807 79.3524 106.741 79.3524C106.775 76.1181 106.741 72.8845 106.642 69.6516C103.853 69.4556 101.05 69.3895 98.2285 69.4536C98.2285 68.9256 98.2285 68.3978 98.2285 67.8698C101.101 67.935 103.938 67.8691 106.741 67.6719Z" fill="#1F515D"/>
<path fill-rule="evenodd" clip-rule="evenodd" d="M95.0608 69.651C93.1979 69.6064 91.3172 69.6726 89.4186 69.849C88.6544 69.6882 87.9615 69.5561 87.3398 69.453C89.4107 66.9979 91.9843 65.2822 95.0608 64.3057C95.0608 66.0874 95.0608 67.8692 95.0608 69.651Z" fill="#089946"/>
<path fill-rule="evenodd" clip-rule="evenodd" d="M117.829 69.651C115.333 69.6846 112.759 69.6846 110.108 69.651C110.168 69.1444 110.102 68.6823 109.91 68.2652C109.91 66.9453 109.91 65.6255 109.91 64.3057C113.082 65.2997 115.721 67.0815 117.829 69.651Z" fill="#0B9947"/>
<path fill-rule="evenodd" clip-rule="evenodd" d="M53.4859 64.1074C53.4859 64.8333 53.4859 65.5592 53.4859 66.2851C53.4006 67.1824 53.4996 68.0402 53.7829 68.8588C53.9149 68.7268 54.0468 68.5949 54.1788 68.4629C62.2958 68.5949 70.4127 68.7268 78.5297 68.8588C78.6089 68.8137 78.6425 68.7475 78.6287 68.6608C79.2226 69.1876 79.6186 69.8477 79.8165 70.6406C79.8423 70.7869 79.8086 70.9189 79.7175 71.0365C79.2681 70.6536 78.8722 70.6536 78.5297 71.0365C70.1969 70.8391 61.8484 70.7732 53.4859 70.8386C53.4859 71.5645 53.4859 72.2903 53.4859 73.0163C53.42 73.0163 53.3539 73.0163 53.2879 73.0163C53.2228 70.0118 53.2887 67.0422 53.4859 64.1074Z" fill="#0D8F4A"/>
<path fill-rule="evenodd" clip-rule="evenodd" d="M137.626 67.8691C138.313 68.5826 138.907 69.3745 139.408 70.2448C139.408 70.4428 139.408 70.6408 139.408 70.8388C134.722 70.8388 130.038 70.8388 125.352 70.8388C125.352 69.9809 125.352 69.1229 125.352 68.2651C125.508 68.3211 125.641 68.4201 125.748 68.5621C129.509 68.6941 133.271 68.6941 137.032 68.5621C137.202 68.293 137.4 68.062 137.626 67.8691Z" fill="#088E48"/>
<path fill-rule="evenodd" clip-rule="evenodd" d="M152.078 64.1074C152.078 64.9653 152.078 65.8232 152.078 66.6811C152.044 67.5415 152.078 68.3993 152.177 69.2548C152.379 69.0303 152.509 69.0962 152.573 69.4527C152.672 69.3537 152.771 69.2548 152.87 69.1558C155.576 69.0898 158.28 69.0237 160.986 68.9578C161.177 68.2194 161.242 67.4605 161.184 66.6811C161.184 65.8232 161.184 64.9653 161.184 64.1074C161.38 65.9853 161.448 67.899 161.382 69.8487C161.194 70.1296 161.129 70.4594 161.184 70.8386C158.15 70.8386 155.113 70.8386 152.078 70.8386C152.133 70.4594 152.068 70.1296 151.88 69.8487C151.814 67.899 151.882 65.9853 152.078 64.1074Z" fill="#10904B"/>
<path fill-rule="evenodd" clip-rule="evenodd" d="M161.186 66.6818C161.243 67.4612 161.178 68.2201 160.988 68.9585C158.282 69.0244 155.577 69.0906 152.871 69.1565C152.772 69.2555 152.673 69.3545 152.574 69.4535C152.511 69.0969 152.38 69.031 152.178 69.2555C152.079 68.4 152.045 67.5422 152.079 66.6818C155.005 66.6268 157.943 66.4288 160.889 66.0879C160.934 66.3328 161.033 66.5308 161.186 66.6818Z" fill="#059A45"/>
<path fill-rule="evenodd" clip-rule="evenodd" d="M152.078 64.1074C155.113 64.1074 158.15 64.1074 161.185 64.1074C161.185 64.9653 161.185 65.8232 161.185 66.6811C161.033 66.53 160.934 66.3321 160.888 66.0872C157.942 66.4281 155.004 66.6261 152.078 66.6811C152.078 65.8232 152.078 64.9653 152.078 64.1074Z" fill="#01A841"/>
<path fill-rule="evenodd" clip-rule="evenodd" d="M98.2283 60.1484C98.2283 60.7424 98.2283 61.3363 98.2283 61.9302C98.2283 62.1282 98.2283 62.3262 98.2283 62.5241C98.2283 63.0521 98.2283 63.58 98.2283 64.1079C98.2283 64.6359 98.2283 65.1638 98.2283 65.6917C98.2283 66.0217 98.2283 66.3516 98.2283 66.6816C98.2283 67.0775 98.2283 67.4735 98.2283 67.8694C98.2283 68.3974 98.2283 68.9252 98.2283 69.4532C98.2283 72.7529 98.2283 76.0523 98.2283 79.352C101.065 79.352 103.904 79.352 106.741 79.352C106.807 79.352 106.874 79.352 106.939 79.352C104.005 79.5491 101.036 79.6151 98.0303 79.5499C97.965 73.0489 98.0303 66.5818 98.2283 60.1484Z" fill="#99AEB5"/>
<path fill-rule="evenodd" clip-rule="evenodd" d="M98.2285 69.4534C101.05 69.3892 103.853 69.4554 106.642 69.6514C106.741 72.8843 106.775 76.1178 106.741 79.3521C103.904 79.3521 101.065 79.3521 98.2285 79.3521C98.2285 76.0525 98.2285 72.753 98.2285 69.4534Z" fill="#1A365C"/>
<path fill-rule="evenodd" clip-rule="evenodd" d="M87.3401 69.4531C87.9617 69.5563 88.6546 69.6883 89.4188 69.8491C91.3174 69.6727 93.1982 69.6066 95.0611 69.6511C95.0611 70.443 95.0611 71.2349 95.0611 72.0268C92.1133 71.7732 89.11 71.7732 86.0533 72.0268C85.8474 71.8795 85.7484 71.6815 85.7563 71.4329C86.1899 70.699 86.7185 70.0391 87.3401 69.4531Z" fill="#0B884A"/>
<path fill-rule="evenodd" clip-rule="evenodd" d="M79.8169 70.6406C79.9951 70.781 80.0624 70.979 80.0149 71.2345C80.0149 71.4325 80.0149 71.6305 80.0149 71.8285C76.7404 71.7667 73.4738 71.8328 70.2152 72.0264C70.0152 71.9488 69.9162 71.8168 69.9182 71.6305C69.5698 71.7364 69.3065 71.9344 69.1263 72.2244C67.0515 71.7113 64.9392 71.5133 62.7911 71.6305C62.6011 71.9799 62.5357 72.3759 62.5932 72.8183C59.8118 72.7558 57.0402 72.8217 54.2782 73.0163C54.0846 72.9219 53.9197 72.79 53.7833 72.6204C53.7283 72.8017 53.6293 72.9336 53.4863 73.0163C53.4863 72.2903 53.4863 71.5646 53.4863 70.8386C61.8488 70.7733 70.1974 70.8392 78.5301 71.0366C78.8726 70.6537 79.2685 70.6537 79.718 71.0366C79.809 70.919 79.8427 70.7869 79.8169 70.6406Z" fill="#0B854A"/>
<path fill-rule="evenodd" clip-rule="evenodd" d="M110.107 69.6514C112.758 69.685 115.332 69.685 117.828 69.6514C118.434 70.1362 118.896 70.7301 119.214 71.4331C116.227 71.8212 113.19 71.953 110.107 71.8291C110.107 71.1031 110.107 70.3773 110.107 69.6514Z" fill="#0A884A"/>
<path fill-rule="evenodd" clip-rule="evenodd" d="M234.831 65.0985C236.938 64.69 238.688 65.2839 240.077 66.8803C239.98 67.5053 239.584 67.9012 238.89 68.0681C238.397 67.708 237.902 67.3451 237.405 66.9792C235.577 66.4732 234.39 67.1 233.841 68.86C233.968 69.4189 234.231 69.9138 234.633 70.3448C235.9 71.0441 237.221 71.638 238.593 72.1266C240.982 73.9228 241.412 76.1336 239.879 78.7587C238.412 80.3722 236.597 80.9331 234.435 80.4415C232.703 79.7155 231.646 78.4287 231.268 76.581C231.873 76.2346 232.535 76.0366 233.247 75.9871C233.321 77.2238 233.914 78.1147 235.029 78.6597C238.104 78.9508 239.258 77.598 238.494 74.6013C238.262 74.3702 238.032 74.1394 237.801 73.9083C236.324 73.2192 234.873 72.4932 233.445 71.7306C231.98 70.3385 231.683 68.7216 232.554 66.8803C233.18 66.0866 233.938 65.4926 234.831 65.0985Z" fill="#1F395F"/>
<path fill-rule="evenodd" clip-rule="evenodd" d="M245.325 67.0771C245.325 68.397 245.325 69.7167 245.325 71.0366C247.305 71.0366 249.284 71.0366 251.264 71.0366C251.325 71.7379 251.26 72.3977 251.066 73.0164C251.066 72.4225 251.066 71.8285 251.066 71.2346C249.086 71.2346 247.107 71.2346 245.127 71.2346C245.064 69.8118 245.129 68.4259 245.325 67.0771Z" fill="#BDC6D1"/>
<path fill-rule="evenodd" clip-rule="evenodd" d="M139.408 70.2451C140.071 70.9085 140.665 71.6345 141.19 72.4228C141.067 72.646 140.9 72.8439 140.695 73.0168C135.587 72.7552 130.471 72.7552 125.352 73.0168C125.352 72.2908 125.352 71.565 125.352 70.839C130.038 70.839 134.722 70.839 139.408 70.839C139.408 70.6411 139.408 70.4431 139.408 70.2451Z" fill="#0B824B"/>
<path fill-rule="evenodd" clip-rule="evenodd" d="M62.793 71.6313C64.941 71.5141 67.0534 71.7121 69.1282 72.2252C69.726 72.6257 70.1873 73.1537 70.514 73.809C70.7991 74.2224 70.9317 74.6843 70.9099 75.1949C70.9555 76.2629 70.8901 77.3187 70.7119 78.3625C70.3912 79.0126 69.9299 79.5406 69.3261 79.9462C68.7956 80.09 68.267 80.2549 67.7423 80.4412C66.0932 80.5402 64.4441 80.573 62.793 80.5402C62.793 78.5604 62.793 76.5807 62.793 74.6009C62.793 73.6111 62.793 72.6212 62.793 71.6313Z" fill="#FCFDFD"/>
<path fill-rule="evenodd" clip-rule="evenodd" d="M109.909 68.2656C110.101 68.6828 110.166 69.1448 110.107 69.6514C110.107 70.3774 110.107 71.1032 110.107 71.8292C113.189 71.9531 116.226 71.8212 119.214 71.4332C119.887 72.1845 120.415 73.0424 120.798 74.0069C117.24 73.8196 113.676 73.7537 110.107 73.8089C110.107 74.2708 110.107 74.7329 110.107 75.1947C109.911 72.9204 109.844 70.6106 109.909 68.2656Z" fill="#107D4E"/>
<path fill-rule="evenodd" clip-rule="evenodd" d="M80.0156 71.2354C80.457 72.0841 80.655 73.008 80.6095 74.007C80.3818 74.2832 80.1838 74.2501 80.0156 73.908C77.2301 73.9359 74.4901 73.7708 71.7996 73.4131C71.663 73.5827 71.4987 73.7146 71.3047 73.809C71.0334 73.5503 70.7701 73.5503 70.5128 73.809C70.1861 73.1537 69.7248 72.6257 69.127 72.2252C69.3071 71.9352 69.5704 71.7372 69.9189 71.6313C69.9169 71.8176 70.0159 71.9496 70.2158 72.0272C73.4745 71.8336 76.7411 71.7675 80.0156 71.8293C80.0156 71.6313 80.0156 71.4333 80.0156 71.2354Z" fill="#0E7C4D"/>
<path fill-rule="evenodd" clip-rule="evenodd" d="M85.7562 71.4336C85.7483 71.6822 85.8473 71.8802 86.0532 72.0275C89.1099 71.7739 92.1132 71.7739 95.061 72.0275C95.061 72.6214 95.061 73.2154 95.061 73.8093C91.6281 73.8423 88.1972 73.8093 84.7663 73.7103C84.6555 73.6345 84.5901 73.5355 84.5684 73.4133C84.8653 72.6862 85.2613 72.0263 85.7562 71.4336Z" fill="#0D7C4D"/>
<path fill-rule="evenodd" clip-rule="evenodd" d="M229.288 71.2354C229.482 71.7871 229.547 72.381 229.486 73.0171C227.506 73.0171 225.526 73.0171 223.546 73.0171C223.546 74.8648 223.546 76.7127 223.546 78.5604C223.35 76.6824 223.283 74.7688 223.348 72.8191C225.328 72.8191 227.308 72.8191 229.288 72.8191C229.288 72.2911 229.288 71.7633 229.288 71.2354Z" fill="#77879E"/>
<path fill-rule="evenodd" clip-rule="evenodd" d="M62.7911 71.6318C62.7911 72.6217 62.7911 73.6116 62.7911 74.6015C60.0524 74.7317 57.3138 74.8638 54.5752 74.9974C54.2992 74.6209 53.9363 74.5549 53.4863 74.7994C53.4863 74.2055 53.4863 73.6116 53.4863 73.0177C53.6293 72.9349 53.7283 72.8031 53.7833 72.6217C53.9197 72.7914 54.0846 72.9232 54.2782 73.0177C57.0402 72.823 59.8118 72.7571 62.5932 72.8197C62.5357 72.3772 62.6011 71.9813 62.7911 71.6318Z" fill="#0E764E"/>
<path fill-rule="evenodd" clip-rule="evenodd" d="M141.19 72.4229C141.766 73.112 142.294 73.838 142.773 74.6006C142.712 74.7942 142.579 74.9262 142.377 74.9965C136.676 74.8027 131 74.7368 125.352 74.7985C125.352 74.2046 125.352 73.6107 125.352 73.0168C130.471 72.7553 135.587 72.7553 140.695 73.0168C140.9 72.8439 141.067 72.646 141.19 72.4229Z" fill="#0D764E"/>
<path fill-rule="evenodd" clip-rule="evenodd" d="M151.879 69.8496C152.067 70.1305 152.132 70.4604 152.077 70.8395C152.077 71.4993 152.077 72.1594 152.077 72.8192C155.094 72.7551 158.097 72.821 161.085 73.0172C161.184 72.2942 161.217 71.5684 161.184 70.8395C161.128 70.4604 161.194 70.1305 161.382 69.8496C161.382 72.3574 161.382 74.8649 161.382 77.3726C161.316 77.3726 161.249 77.3726 161.184 77.3726C161.184 77.3067 161.184 77.2406 161.184 77.1747C161.217 76.38 161.184 75.5881 161.085 74.799C158.246 74.737 155.375 74.8029 152.473 74.9969C152.336 74.893 152.237 74.761 152.176 74.601C152.077 75.0583 152.045 75.5202 152.077 75.9868C152.012 75.9868 151.944 75.9868 151.879 75.9868C151.879 73.9411 151.879 71.8953 151.879 69.8496Z" fill="#1A7B54"/>
<path fill-rule="evenodd" clip-rule="evenodd" d="M152.078 70.8389C155.113 70.8389 158.15 70.8389 161.185 70.8389C161.219 71.5678 161.185 72.2936 161.086 73.0166C158.099 72.8204 155.095 72.7545 152.078 72.8186C152.078 72.1588 152.078 71.4987 152.078 70.8389Z" fill="#0A814B"/>
<path fill-rule="evenodd" clip-rule="evenodd" d="M267.3 66.8799C267.3 67.1438 267.3 67.4079 267.3 67.6718C265.453 67.6718 263.604 67.6718 261.757 67.6718C261.757 69.3215 261.757 70.9714 261.757 72.6211C263.604 72.6211 265.453 72.6211 267.3 72.6211C267.3 72.885 267.3 73.1491 267.3 73.413C265.518 73.413 263.736 73.413 261.955 73.413C261.759 75.4231 261.691 77.4687 261.757 79.5503C263.604 79.5503 265.453 79.5503 267.3 79.5503C267.3 79.7482 267.3 79.9462 267.3 80.1442C265.188 80.1442 263.077 80.1442 260.965 80.1442C260.965 75.7228 260.965 71.3012 260.965 66.8799C263.077 66.8799 265.188 66.8799 267.3 66.8799Z" fill="#1A365D"/>
<path fill-rule="evenodd" clip-rule="evenodd" d="M84.5687 73.4131C84.5905 73.5352 84.6558 73.6342 84.7667 73.71C88.1976 73.809 91.6285 73.8421 95.0614 73.809C95.2277 74.7185 94.9643 75.4445 94.2695 75.9868C94.1368 75.8349 93.9705 75.7029 93.7745 75.5908C90.2743 75.7387 86.8098 75.8707 83.3809 75.9868C83.7036 75.0798 84.0995 74.222 84.5687 73.4131Z" fill="#117150"/>
<path fill-rule="evenodd" clip-rule="evenodd" d="M120.798 74.0069C121.164 74.6087 121.428 75.2686 121.59 75.9866C118.258 75.7239 114.924 75.7239 111.592 75.9866C111.329 75.8546 111.064 75.7227 110.8 75.5907C110.709 75.7083 110.676 75.8403 110.701 75.9866C110.41 75.8013 110.212 75.5372 110.107 75.1947C110.107 74.7329 110.107 74.2708 110.107 73.8089C113.677 73.7537 117.24 73.8196 120.798 74.0069Z" fill="#117150"/>
<path fill-rule="evenodd" clip-rule="evenodd" d="M80.6084 74.007C80.6084 74.6009 80.6084 75.1949 80.6084 75.7888C77.4032 75.7318 74.2693 75.7977 71.2046 75.9868C71.1631 75.6783 71.0641 75.4144 70.9077 75.1949C70.9294 74.6843 70.7968 74.2224 70.5117 73.809C70.7691 73.5503 71.0324 73.5503 71.3036 73.809C71.4976 73.7146 71.662 73.5828 71.7986 73.4131C74.489 73.7708 77.229 73.9359 80.0145 73.908C80.1828 74.2501 80.3807 74.2832 80.6084 74.007Z" fill="#0E704F"/>
<path fill-rule="evenodd" clip-rule="evenodd" d="M142.773 74.6006C143.195 74.9156 143.526 75.3115 143.763 75.7884C143.502 75.8221 143.27 75.7562 143.07 75.5905C142.934 75.7601 142.769 75.892 142.575 75.9864C142.377 75.7225 142.179 75.7225 141.981 75.9864C136.597 75.8552 131.22 75.7233 125.846 75.5905C125.678 75.8025 125.512 76.0005 125.352 76.1844C125.352 75.7225 125.352 75.2604 125.352 74.7986C131 74.7368 136.676 74.8027 142.377 74.9965C142.579 74.9263 142.712 74.7942 142.773 74.6006Z" fill="#0F6E50"/>
<path fill-rule="evenodd" clip-rule="evenodd" d="M210.283 65.296C212.223 65.1916 214.138 65.3566 216.024 65.7909C218.038 66.8833 218.798 68.5661 218.301 70.8392C217.761 72.4682 216.672 73.524 215.035 74.0068C216.513 76.1133 218.032 78.192 219.588 80.243C218.796 80.3751 218.004 80.3751 217.212 80.243C215.838 78.1423 214.385 76.0967 212.857 74.1058C212.601 74.0088 212.336 73.9758 212.065 74.0068C212.065 76.1186 212.065 78.2302 212.065 80.342C211.471 80.342 210.877 80.342 210.283 80.342C210.283 75.3267 210.283 70.3112 210.283 65.296Z" fill="#1F395F"/>
<path fill-rule="evenodd" clip-rule="evenodd" d="M212.064 67.0786C213.395 66.9303 214.648 67.1614 215.826 67.7715C216.913 69.1405 216.848 70.4604 215.628 71.731C214.511 72.3115 213.324 72.5425 212.064 72.4239C212.064 70.6422 212.064 68.8604 212.064 67.0786Z" fill="#F8F9FA"/>
<path fill-rule="evenodd" clip-rule="evenodd" d="M53.2891 73.0176C53.355 73.0176 53.4211 73.0176 53.487 73.0176C53.487 73.6115 53.487 74.2054 53.487 74.7993C53.937 74.5548 54.2999 74.6208 54.5759 74.9973C57.3145 74.8637 60.0531 74.7316 62.7918 74.6014C62.7918 76.5811 62.7918 78.5609 62.7918 80.5406C62.5998 80.1235 62.5345 79.6614 62.5939 79.1548C62.5939 78.4949 62.5939 77.8349 62.5939 77.175C59.6648 77.2279 56.7942 77.162 53.982 76.9771C53.6442 77.137 53.4793 77.4009 53.487 77.769C53.4211 77.769 53.355 77.769 53.2891 77.769C53.2891 76.1852 53.2891 74.6014 53.2891 73.0176Z" fill="#156B53"/>
<path fill-rule="evenodd" clip-rule="evenodd" d="M143.763 75.7888C144.092 76.1768 144.42 76.5728 144.753 76.9766C144.575 77.194 144.411 77.194 144.258 76.9766C143.995 77.5046 143.73 77.5046 143.466 76.9766C137.402 77.1714 131.364 77.2374 125.352 77.1746C125.352 76.8446 125.352 76.5148 125.352 76.1847C125.512 76.0008 125.678 75.8029 125.846 75.5908C131.22 75.7237 136.597 75.8555 141.981 75.9868C142.179 75.7229 142.377 75.7229 142.575 75.9868C142.769 75.8923 142.934 75.7605 143.07 75.5908C143.27 75.7565 143.502 75.8225 143.763 75.7888Z" fill="#116651"/>
<path fill-rule="evenodd" clip-rule="evenodd" d="M161.185 77.1743C158.179 77.1665 155.21 77.1665 152.276 77.1743C152.084 76.7989 152.018 76.4029 152.078 75.9864C152.046 75.5198 152.078 75.0579 152.177 74.6006C152.238 74.7605 152.337 74.8926 152.474 74.9965C155.376 74.8025 158.247 74.7366 161.086 74.7986C161.185 75.5877 161.218 76.3796 161.185 77.1743Z" fill="#106851"/>
<path fill-rule="evenodd" clip-rule="evenodd" d="M184.151 64.7021C185.996 68.5248 187.744 72.4184 189.398 76.3826C191.059 72.4659 192.775 68.5724 194.545 64.7021C195.63 69.8382 196.653 74.9855 197.614 80.1442C196.966 80.3396 196.307 80.4055 195.634 80.3421C195.135 77.0912 194.541 73.8577 193.852 70.6414C192.387 73.9474 190.902 77.2468 189.398 80.5401C187.964 77.211 186.479 73.9115 184.943 70.6414C184.27 73.7209 183.708 76.8225 183.26 79.9462C182.637 80.3148 181.944 80.4469 181.182 80.3421C182.197 75.135 183.187 69.9217 184.151 64.7021Z" fill="#203960"/>
<path fill-rule="evenodd" clip-rule="evenodd" d="M80.6097 74.0068C80.873 75.3927 80.873 76.7785 80.6097 78.1643C77.7232 78.1002 74.8526 78.1663 71.9978 78.3623C71.58 77.881 71.1524 77.881 70.7109 78.3623C70.8891 77.3186 70.9544 76.2628 70.9089 75.1947C71.0653 75.4142 71.1643 75.6781 71.2059 75.9866C74.2705 75.7975 77.4045 75.7316 80.6097 75.7886C80.6097 75.1947 80.6097 74.6008 80.6097 74.0068Z" fill="#156454"/>
<path fill-rule="evenodd" clip-rule="evenodd" d="M94.2689 75.9868C93.8037 76.7856 93.3424 77.5775 92.8831 78.3625C89.6027 78.2278 86.3024 78.0958 82.9844 77.9665C82.9943 77.2797 83.1249 76.6199 83.3803 75.9868C86.8092 75.8708 90.2738 75.7387 93.774 75.5908C93.97 75.7029 94.1363 75.8349 94.2689 75.9868Z" fill="#136353"/>
<path fill-rule="evenodd" clip-rule="evenodd" d="M121.59 75.9868C121.788 76.7745 121.986 77.5664 122.184 78.3625C121.883 78.3603 121.654 78.2284 121.491 77.9665C121.426 78.0986 121.359 78.2304 121.293 78.3625C118.435 78.2223 115.564 78.0902 112.681 77.9665C112.438 77.9705 112.24 78.0364 112.088 78.1645C111.678 77.4122 111.216 76.6864 110.702 75.9868C110.676 75.8405 110.71 75.7084 110.801 75.5908C111.064 75.7229 111.329 75.8547 111.593 75.9868C114.925 75.7241 118.258 75.7241 121.59 75.9868Z" fill="#126353"/>
<path fill-rule="evenodd" clip-rule="evenodd" d="M144.753 76.9756C145.315 77.5721 145.777 78.2319 146.139 78.9553C142.959 79.2068 139.725 79.2068 136.438 78.9553C136.373 79.7472 136.305 79.7472 136.24 78.9553C135.985 78.9084 135.787 78.9743 135.646 79.1533C135.45 78.8969 135.252 78.633 135.052 78.3614C135.04 78.2539 134.975 78.188 134.854 78.1634C134.666 78.4693 134.599 78.7993 134.656 79.1533C131.738 79.2064 128.8 79.1404 125.846 78.9553C125.706 79.1297 125.542 79.2616 125.352 79.3513C125.352 78.6253 125.352 77.8995 125.352 77.1736C131.364 77.2363 137.402 77.1704 143.466 76.9756C143.73 77.5036 143.995 77.5036 144.258 76.9756C144.411 77.193 144.575 77.193 144.753 76.9756Z" fill="#135D54"/>
<path fill-rule="evenodd" clip-rule="evenodd" d="M151.879 75.9863C151.944 75.9863 152.012 75.9863 152.077 75.9863C152.017 76.4029 152.083 76.7988 152.275 77.1742C155.209 77.1665 158.178 77.1665 161.184 77.1742C161.184 77.2401 161.184 77.3062 161.184 77.3721C161.215 77.9696 161.184 78.5636 161.085 79.1539C158.246 79.2159 155.375 79.15 152.473 78.9559C152.172 79.3758 151.974 79.8377 151.879 80.3418C151.879 78.89 151.879 77.4381 151.879 75.9863Z" fill="#155D55"/>
<path fill-rule="evenodd" clip-rule="evenodd" d="M62.593 79.1533C59.7317 79.1422 56.8941 79.1422 54.0801 79.1533C53.5794 78.8439 53.3814 78.382 53.4862 77.7675C53.4784 77.3994 53.6434 77.1355 53.9811 76.9756C56.7933 77.1605 59.664 77.2264 62.593 77.1736C62.593 77.8334 62.593 78.4935 62.593 79.1533Z" fill="#125C54"/>
<path fill-rule="evenodd" clip-rule="evenodd" d="M80.6088 78.1649C80.5791 78.9345 80.4484 79.6604 80.2128 80.3427C80.2386 80.1964 80.2049 80.0643 80.1138 79.9467C76.5226 80.207 72.9274 80.207 69.3242 79.9467C69.928 79.5411 70.3893 79.0131 70.71 78.3629C71.1515 77.8816 71.5791 77.8816 71.9969 78.3629C74.8517 78.1669 77.7223 78.1008 80.6088 78.1649Z" fill="#155655"/>
<path fill-rule="evenodd" clip-rule="evenodd" d="M82.9838 77.9658C86.3019 78.0951 89.6021 78.2271 92.8826 78.3618C92.7757 78.8999 92.643 79.4279 92.4866 79.9456C92.2253 79.6579 92.059 79.724 91.9917 80.1435C88.9528 80.1287 85.8188 80.1287 82.5879 80.1435C82.6176 79.374 82.7482 78.648 82.9838 77.9658Z" fill="#175756"/>
<path fill-rule="evenodd" clip-rule="evenodd" d="M122.183 78.3618C122.198 78.8975 122.264 79.4255 122.381 79.9456C119.312 80.2081 116.243 80.2081 113.175 79.9456C112.979 80.0576 112.813 80.1897 112.68 80.3415C112.456 79.6448 112.258 78.9189 112.086 78.1638C112.238 78.0357 112.436 77.9698 112.68 77.9658C115.562 78.0896 118.433 78.2216 121.292 78.3618C121.357 78.2297 121.424 78.0979 121.49 77.9658C121.652 78.2277 121.882 78.3596 122.183 78.3618Z" fill="#155655"/>
<path fill-rule="evenodd" clip-rule="evenodd" d="M261.955 73.4131C261.955 75.3928 261.955 77.3726 261.955 79.3523C263.802 79.3523 265.651 79.3523 267.498 79.3523C267.498 79.6823 267.498 80.0122 267.498 80.3422C265.285 80.4071 263.107 80.3412 260.965 80.1442C263.077 80.1442 265.188 80.1442 267.3 80.1442C267.3 79.9462 267.3 79.7483 267.3 79.5503C265.453 79.5503 263.604 79.5503 261.757 79.5503C261.691 77.4688 261.759 75.4231 261.955 73.4131Z" fill="#7E8DA3"/>
<path fill-rule="evenodd" clip-rule="evenodd" d="M134.656 79.154C134.656 80.2098 134.656 81.2658 134.656 82.3216C131.54 82.2589 128.438 82.3248 125.352 82.5196C125.352 81.4638 125.352 80.4078 125.352 79.352C125.542 79.2623 125.706 79.1305 125.846 78.9561C128.8 79.1412 131.738 79.2071 134.656 79.154Z" fill="#164D57"/>
<path fill-rule="evenodd" clip-rule="evenodd" d="M53.2891 77.7686C53.355 77.7686 53.4211 77.7686 53.487 77.7686C53.3823 78.3831 53.5803 78.8449 54.081 79.1544C56.895 79.1433 59.7325 79.1433 62.5939 79.1544C62.5345 79.661 62.5998 80.1231 62.7918 80.5402C64.4429 80.5731 66.0921 80.5402 67.7412 80.4412C68.2658 80.2549 68.7944 80.09 69.325 79.9463C72.9281 80.2066 76.5233 80.2066 80.1146 79.9463C80.2057 80.0639 80.2393 80.1959 80.2136 80.3422C80.1958 80.7948 80.0631 81.1907 79.8176 81.5301C79.8434 81.3838 79.8097 81.2517 79.7187 81.1341C71.1087 81.0729 62.3662 81.1391 53.487 81.3321C53.487 81.5301 53.487 81.728 53.487 81.926C53.5401 82.2426 53.474 82.5065 53.2891 82.7179C53.2891 81.0682 53.2891 79.4183 53.2891 77.7686Z" fill="#195059"/>
<path fill-rule="evenodd" clip-rule="evenodd" d="M161.184 77.3721C161.25 77.3721 161.317 77.3721 161.382 77.3721C161.448 84.9949 161.382 92.5838 161.184 100.139C161.184 94.7279 161.184 89.3165 161.184 83.9052C161.184 83.3772 161.184 82.8494 161.184 82.3214C158.149 82.3214 155.113 82.3214 152.078 82.3214C152.078 82.9154 152.078 83.5093 152.078 84.1032C152.141 84.7759 152.076 85.436 151.88 86.0829C151.759 86.0584 151.694 85.9925 151.682 85.885C151.878 84.0731 151.945 82.2254 151.88 80.3417C151.975 79.8376 152.173 79.3758 152.474 78.9559C155.376 79.1499 158.246 79.2158 161.085 79.1538C161.184 78.5635 161.216 77.9696 161.184 77.3721Z" fill="#20515D"/>
<path fill-rule="evenodd" clip-rule="evenodd" d="M146.139 78.957C146.868 79.6862 147.527 80.4781 148.119 81.3327C145.064 81.1296 141.831 81.1296 138.418 81.3327C138.123 81.4596 137.925 81.6576 137.824 81.9266C137.1 81.0104 136.375 80.0867 135.646 79.155C135.787 78.976 135.985 78.9101 136.24 78.957C136.306 79.7489 136.373 79.7489 136.438 78.957C139.725 79.2084 142.96 79.2084 146.139 78.957Z" fill="#175058"/>
<path fill-rule="evenodd" clip-rule="evenodd" d="M306.103 80.3418C306.988 81.3936 307.846 82.4825 308.677 83.6084C308.38 84.0453 307.984 84.1774 307.489 84.0043C306.658 83.1067 305.767 82.2817 304.817 81.5296C304.694 81.3418 304.727 81.1769 304.915 81.0347C305.357 80.8484 305.753 80.6174 306.103 80.3418Z" fill="#223B61"/>
<path fill-rule="evenodd" clip-rule="evenodd" d="M79.8169 81.5293C79.7318 82.0553 79.5338 82.5174 79.223 82.9152C79.1062 82.7863 78.9736 82.6542 78.8271 82.5192C70.3379 82.4507 61.8903 82.2527 53.4863 81.9253C53.4863 81.7273 53.4863 81.5293 53.4863 81.3314C62.3655 81.1383 71.108 81.0722 79.718 81.1334C79.809 81.251 79.8427 81.383 79.8169 81.5293Z" fill="#174758"/>
<path fill-rule="evenodd" clip-rule="evenodd" d="M92.4866 79.946C92.4866 80.9358 92.4866 81.9257 92.4866 82.9156C92.3025 82.7041 92.2352 82.4402 92.2886 82.1237C89.0458 82.2498 85.8129 82.3818 82.5879 82.5196C82.5879 81.7277 82.5879 80.9358 82.5879 80.1439C85.8188 80.1291 88.9528 80.1291 91.9917 80.1439C92.059 79.7244 92.2253 79.6583 92.4866 79.946Z" fill="#184A59"/>
<path fill-rule="evenodd" clip-rule="evenodd" d="M122.382 79.9453C122.382 80.7372 122.382 81.5291 122.382 82.321C119.191 82.3089 115.958 82.3089 112.682 82.321C112.682 81.6612 112.682 81.0011 112.682 80.3413C112.814 80.1894 112.981 80.0574 113.177 79.9453C116.245 80.2078 119.314 80.2078 122.382 79.9453Z" fill="#174958"/>
<path fill-rule="evenodd" clip-rule="evenodd" d="M148.119 81.332C148.626 81.8824 149.089 82.4763 149.505 83.1138C149.166 83.2302 148.838 83.2961 148.515 83.3118C145.704 83.1813 142.9 83.0495 140.101 82.9158C139.725 82.9778 139.428 83.2419 139.21 83.7077C138.679 83.1752 138.216 82.5812 137.824 81.926C137.925 81.6569 138.123 81.4589 138.418 81.332C141.831 81.1289 145.064 81.1289 148.119 81.332Z" fill="#19435A"/>
<path fill-rule="evenodd" clip-rule="evenodd" d="M92.4866 82.9159C92.453 83.3358 92.5183 83.7318 92.6846 84.1038C89.4596 84.0751 86.1594 84.0751 82.7859 84.1038C82.6691 83.5837 82.6037 83.0557 82.5879 82.52C85.8129 82.3822 89.0458 82.2501 92.2886 82.124C92.2352 82.4406 92.3025 82.7045 92.4866 82.9159Z" fill="#1A3D5B"/>
<path fill-rule="evenodd" clip-rule="evenodd" d="M122.382 82.3216C122.443 83.0228 122.378 83.6826 122.184 84.3013C121.974 84.0835 121.81 83.8194 121.689 83.5094C121.616 83.6907 121.517 83.8559 121.392 84.0043C118.638 84.1673 115.9 84.1342 113.176 83.9054C112.913 84.1196 112.616 84.2516 112.285 84.3013C112.442 83.6476 112.574 82.9877 112.681 82.3216C115.958 82.3095 119.191 82.3095 122.382 82.3216Z" fill="#1B3E5C"/>
<path fill-rule="evenodd" clip-rule="evenodd" d="M53.4861 81.9258C61.8902 82.2532 70.3377 82.4512 78.8269 82.5197C78.9734 82.6547 79.106 82.7868 79.2228 82.9157C78.9714 83.6193 78.5755 84.2132 78.035 84.6974C77.7618 84.0708 77.3995 83.9388 76.9461 84.3015C69.1954 84.2352 61.4744 84.0372 53.7831 83.7076C53.4895 89.1673 53.3905 94.6447 53.4861 100.139C53.2886 94.3661 53.2226 88.5589 53.2882 82.7177C53.4731 82.5062 53.5392 82.2423 53.4861 81.9258Z" fill="#1B3E5C"/>
<path fill-rule="evenodd" clip-rule="evenodd" d="M134.656 82.3218C134.656 82.9157 134.656 83.5096 134.656 84.1036C131.518 84.0929 128.418 84.0929 125.352 84.1036C125.352 83.5756 125.352 83.0478 125.352 82.5198C128.438 82.3249 131.54 82.259 134.656 82.3218Z" fill="#193D5B"/>
<path fill-rule="evenodd" clip-rule="evenodd" d="M161.185 83.9061C158.314 84.0365 155.444 84.1684 152.573 84.302C152.44 84.1531 152.276 84.087 152.078 84.104C152.078 83.5101 152.078 82.9162 152.078 82.3223C155.113 82.3223 158.15 82.3223 161.185 82.3223C161.185 82.8503 161.185 83.3781 161.185 83.9061Z" fill="#193D5B"/>
<path fill-rule="evenodd" clip-rule="evenodd" d="M134.656 84.1037C134.656 89.449 134.656 94.7943 134.656 100.14C131.554 100.14 128.454 100.14 125.352 100.14C125.352 94.7943 125.352 89.449 125.352 84.1037C128.418 84.093 131.518 84.093 134.656 84.1037Z" fill="#1A365D"/>
<path fill-rule="evenodd" clip-rule="evenodd" d="M135.053 78.363C134.92 85.6221 134.789 92.8811 134.657 100.14C134.657 94.7949 134.657 89.4496 134.657 84.1043C134.657 83.5104 134.657 82.9164 134.657 82.3225C134.657 81.2667 134.657 80.2107 134.657 79.1549C134.599 78.8009 134.666 78.4709 134.855 78.165C134.975 78.1896 135.041 78.2555 135.053 78.363Z" fill="#8C9CAC"/>
<path fill-rule="evenodd" clip-rule="evenodd" d="M149.504 83.113C150.224 84.032 150.949 84.956 151.681 85.8847C151.693 85.9922 151.759 86.0581 151.879 86.0826C152.075 85.4357 152.141 84.7756 152.077 84.1029C152.275 84.0859 152.44 84.152 152.572 84.3009C155.443 84.1672 158.314 84.0354 161.184 83.9049C161.184 89.3161 161.184 94.7276 161.184 100.139C158.082 100.172 154.98 100.139 151.879 100.04C147.613 94.6201 143.39 89.1758 139.209 83.7069C139.427 83.2411 139.724 82.977 140.1 82.915C142.899 83.0487 145.703 83.1805 148.514 83.311C148.836 83.2953 149.165 83.2294 149.504 83.113Z" fill="#1A365D"/>
<path fill-rule="evenodd" clip-rule="evenodd" d="M78.0352 84.6979C76.5247 86.2787 74.6776 87.3016 72.492 87.7665C69.2749 88.2133 66.042 88.3784 62.7912 88.2614C62.7912 92.2209 62.7912 96.1804 62.7912 100.14C59.6895 100.14 56.5881 100.14 53.4864 100.14C53.3908 94.6451 53.4898 89.1677 53.7834 83.708C61.4747 84.0376 69.1957 84.2356 76.9464 84.3019C77.3998 83.9392 77.762 84.0713 78.0352 84.6979Z" fill="#1B375D"/>
<path fill-rule="evenodd" clip-rule="evenodd" d="M122.184 84.3017C120.743 93.4982 115.463 99.0745 106.346 101.031C98.8567 102.273 92.4879 100.195 87.2415 94.7943C84.7253 91.6752 83.2405 88.1117 82.7871 84.1037C86.1606 84.075 89.4608 84.075 92.6858 84.1037C93.5431 87.5669 95.5881 90.0415 98.823 91.5277C103.856 93.0504 107.914 91.6976 110.998 87.4693C111.596 86.4744 112.024 85.4186 112.285 84.3017C112.616 84.252 112.913 84.1199 113.176 83.9057C115.9 84.1346 118.638 84.1676 121.392 84.0047C121.517 83.8562 121.616 83.6911 121.689 83.5098C121.81 83.8198 121.974 84.0839 122.184 84.3017Z" fill="#1B365D"/>
<path fill-rule="evenodd" clip-rule="evenodd" d="M300.757 86.8745C300.757 86.3465 300.757 85.8187 300.757 85.2907C297.853 85.2907 294.951 85.2907 292.046 85.2907C292.046 85.8187 292.046 86.3465 292.046 86.8745C291.852 86.3228 291.787 85.7289 291.848 85.0928C294.883 85.0928 297.92 85.0928 300.955 85.0928C301.017 85.7289 300.951 86.3228 300.757 86.8745Z" fill="#546885"/>
<path fill-rule="evenodd" clip-rule="evenodd" d="M223.943 85.0927C225.967 84.9985 227.946 85.2295 229.883 85.7857C231.003 86.2473 231.696 87.0723 231.961 88.2603C232.478 91.1557 231.324 92.9703 228.497 93.7046C227.576 93.8034 226.652 93.8365 225.725 93.8036C225.725 95.9154 225.725 98.027 225.725 100.139C225.131 100.139 224.537 100.139 223.943 100.139C223.943 95.1235 223.943 90.108 223.943 85.0927Z" fill="#1C375E"/>
<path fill-rule="evenodd" clip-rule="evenodd" d="M242.157 85.2906C239.518 85.2906 236.877 85.2906 234.238 85.2906C234.238 90.24 234.238 95.1893 234.238 100.139C234.04 95.1575 233.975 90.142 234.04 85.0926C236.78 85.0275 239.486 85.0934 242.157 85.2906Z" fill="#546887"/>
<path fill-rule="evenodd" clip-rule="evenodd" d="M256.807 85.2908C256.213 85.2908 255.619 85.2908 255.025 85.2908C255.025 90.2401 255.025 95.1895 255.025 100.139C254.827 95.1576 254.762 90.1421 254.827 85.0928C255.528 85.0308 256.189 85.097 256.807 85.2908Z" fill="#546785"/>
<path fill-rule="evenodd" clip-rule="evenodd" d="M256.807 85.292C256.807 90.2414 256.807 95.1907 256.807 100.14C256.213 100.14 255.619 100.14 255.025 100.14C255.025 95.1907 255.025 90.2414 255.025 85.292C255.619 85.292 256.213 85.292 256.807 85.292Z" fill="#1A355D"/>
<path fill-rule="evenodd" clip-rule="evenodd" d="M269.676 85.292C270.27 85.292 270.864 85.292 271.458 85.292C271.458 90.2414 271.458 95.1907 271.458 100.14C270.864 100.14 270.27 100.14 269.676 100.14C269.676 95.1907 269.676 90.2414 269.676 85.292Z" fill="#1B355D"/>
<path fill-rule="evenodd" clip-rule="evenodd" d="M269.676 85.2908C270.293 85.097 270.955 85.0308 271.656 85.0928C271.721 90.1421 271.656 95.1576 271.458 100.139C271.458 95.1895 271.458 90.2401 271.458 85.2908C270.864 85.2908 270.27 85.2908 269.676 85.2908Z" fill="#546988"/>
<path fill-rule="evenodd" clip-rule="evenodd" d="M288.086 85.292C288.68 85.292 289.274 85.292 289.868 85.292C289.868 90.2414 289.868 95.1907 289.868 100.14C289.274 100.14 288.68 100.14 288.086 100.14C288.086 95.1907 288.086 90.2414 288.086 85.292Z" fill="#1A365D"/>
<path fill-rule="evenodd" clip-rule="evenodd" d="M288.086 85.2908C288.704 85.097 289.365 85.0308 290.066 85.0928C290.131 90.1421 290.066 95.1576 289.868 100.139C289.868 95.1895 289.868 90.2401 289.868 85.2908C289.274 85.2908 288.68 85.2908 288.086 85.2908Z" fill="#8795A9"/>
<path fill-rule="evenodd" clip-rule="evenodd" d="M242.157 85.292C242.157 85.82 242.157 86.3478 242.157 86.8758C240.112 86.8758 238.065 86.8758 236.02 86.8758C236.02 88.2616 236.02 89.6474 236.02 91.0333C238 91.0333 239.98 91.0333 241.959 91.0333C241.959 91.6272 241.959 92.2211 241.959 92.815C239.98 92.815 238 92.815 236.02 92.815C236.02 94.6627 236.02 96.5106 236.02 98.3583C238.065 98.3583 240.112 98.3583 242.157 98.3583C242.157 98.9522 242.157 99.5462 242.157 100.14C239.518 100.14 236.877 100.14 234.238 100.14C234.238 95.1907 234.238 90.2414 234.238 85.292C236.877 85.292 239.518 85.292 242.157 85.292Z" fill="#1B375D"/>
<path fill-rule="evenodd" clip-rule="evenodd" d="M300.756 86.8758C299.633 86.8758 298.513 86.8758 297.39 86.8758C297.39 91.2972 297.39 95.7187 297.39 100.14C296.731 100.14 296.07 100.14 295.41 100.14C295.41 95.7187 295.41 91.2972 295.41 86.8758C294.288 86.8758 293.167 86.8758 292.045 86.8758C292.045 86.3478 292.045 85.82 292.045 85.292C294.949 85.292 297.852 85.292 300.756 85.292C300.756 85.82 300.756 86.3478 300.756 86.8758Z" fill="#223B62"/>
<path fill-rule="evenodd" clip-rule="evenodd" d="M243.938 85.0928C246.907 85.0928 249.877 85.0928 252.846 85.0928C252.846 85.6867 252.846 86.2806 252.846 86.8745C251.659 86.8745 250.471 86.8745 249.283 86.8745C249.283 91.2959 249.283 95.7175 249.283 100.139C248.689 100.139 248.095 100.139 247.501 100.139C247.501 95.7175 247.501 91.2959 247.501 86.8745C246.313 86.8745 245.125 86.8745 243.938 86.8745C243.938 86.2806 243.938 85.6867 243.938 85.0928Z" fill="#1C365D"/>
<path fill-rule="evenodd" clip-rule="evenodd" d="M258.787 85.0928C261.757 85.0928 264.726 85.0928 267.696 85.0928C267.696 85.6867 267.696 86.2806 267.696 86.8745C266.508 86.8745 265.32 86.8745 264.132 86.8745C264.132 91.2959 264.132 95.7175 264.132 100.139C263.538 100.139 262.945 100.139 262.351 100.139C262.351 95.7175 262.351 91.2959 262.351 86.8745C261.163 86.8745 259.975 86.8745 258.787 86.8745C258.787 86.2806 258.787 85.6867 258.787 85.0928Z" fill="#1C365D"/>
<path fill-rule="evenodd" clip-rule="evenodd" d="M225.725 86.8745C227.213 86.7161 228.566 87.0461 229.783 87.8643C230.771 90.2113 230.013 91.63 227.506 92.1208C226.916 92.2194 226.322 92.2524 225.725 92.2198C225.725 90.438 225.725 88.6562 225.725 86.8745Z" fill="#FAFAFB"/>
<path fill-rule="evenodd" clip-rule="evenodd" d="M273.438 85.0929C274.111 85.0296 274.77 85.0955 275.417 85.2909C276.851 88.8831 278.335 92.4467 279.872 95.9815C281.39 92.3839 282.808 88.7545 284.128 85.0929C284.867 85.029 285.591 85.0951 286.306 85.2909C284.142 90.4962 281.998 95.7095 279.872 100.931C277.559 95.7127 275.413 90.4333 273.438 85.0929Z" fill="#1F395F"/>
<path fill-rule="evenodd" clip-rule="evenodd" d="M194.049 84.8954C197.341 84.4213 200.079 85.4112 202.264 87.8651C204.019 90.6492 204.216 93.5529 202.858 96.5759C200.803 99.639 197.933 100.86 194.246 100.238C189.81 98.898 187.798 95.8953 188.208 91.2306C189.097 88.1319 191.043 86.0201 194.049 84.8954Z" fill="#203960"/>
<path fill-rule="evenodd" clip-rule="evenodd" d="M194.444 86.6776C198.794 86.2124 201.302 88.126 201.967 92.4189C201.459 97.0517 198.885 99.0645 194.246 98.4571C190.417 96.5732 189.263 93.6364 190.782 89.6472C191.69 88.2404 192.912 87.2506 194.444 86.6776Z" fill="#FDFDFD"/>
<path fill-rule="evenodd" clip-rule="evenodd" d="M208.106 84.5C209.849 88.3817 211.597 92.2753 213.353 96.1805C214.984 92.3238 216.667 88.4963 218.401 84.698C219.579 89.8045 220.569 94.9519 221.371 100.14C220.711 100.14 220.05 100.14 219.391 100.14C218.975 96.8667 218.413 93.6332 217.708 90.4392C216.257 93.7389 214.804 97.0383 213.353 100.338C211.834 97.0383 210.318 93.7389 208.799 90.4392C208.11 93.6484 207.55 96.8819 207.116 100.14C206.457 100.14 205.796 100.14 205.137 100.14C206.071 94.9135 207.061 89.7002 208.106 84.5Z" fill="#203960"/>
<path fill-rule="evenodd" clip-rule="evenodd" d="M307.29 84.6982C307.621 84.8651 307.853 85.129 307.983 85.4901C310.157 90.3607 312.367 95.2111 314.615 100.041C313.893 100.14 313.166 100.173 312.438 100.14C311.994 98.8883 311.466 97.6674 310.854 96.4777C308.542 96.3128 306.231 96.3459 303.925 96.5767C303.422 97.7463 302.895 98.9013 302.341 100.041C301.672 100.204 301.011 100.171 300.361 99.9423C302.727 94.8803 305.037 89.7989 307.29 84.6982Z" fill="#1E385F"/>
<path fill-rule="evenodd" clip-rule="evenodd" d="M307.29 88.8545C308.337 90.6531 309.262 92.5338 310.061 94.4968C308.341 94.6615 306.627 94.6284 304.914 94.3978C305.746 92.5616 306.537 90.7137 307.29 88.8545Z" fill="#F9FAFB"/>
<path fill-rule="evenodd" clip-rule="evenodd" d="M181.379 84.8959C183.24 84.7013 185.021 84.9654 186.724 85.6878C186.987 86.4138 186.987 87.1396 186.724 87.8655C182.511 85.4976 179.377 86.4874 177.32 90.8351C176.687 94.6858 178.171 97.2923 181.774 98.6551C183.699 98.9571 185.382 98.4621 186.823 97.1703C186.987 97.9703 186.954 98.7622 186.724 99.546C182.073 101.46 178.476 100.272 175.934 95.9825C174.218 90.5073 176.033 86.8119 181.379 84.8959Z" fill="#1F395F"/>
<path fill-rule="evenodd" clip-rule="evenodd" d="M207.312 106.673C207.312 109.312 207.312 111.952 207.312 114.592C207.708 114.592 208.104 114.592 208.5 114.592C208.5 115.12 208.5 115.647 208.5 116.175C208.104 116.175 207.708 116.175 207.312 116.175C207.312 116.901 207.312 117.627 207.312 118.353C206.653 118.353 205.992 118.353 205.332 118.353C205.332 117.693 205.332 117.033 205.332 116.373C203.683 116.373 202.032 116.373 200.383 116.373C200.351 115.907 200.383 115.445 200.482 114.988C202.099 112.282 203.715 109.576 205.332 106.871C205.98 106.675 206.639 106.609 207.312 106.673Z" fill="#1D375E"/>
<path fill-rule="evenodd" clip-rule="evenodd" d="M195.039 107.068C196.227 107.068 197.415 107.068 198.603 107.068C198.603 110.83 198.603 114.591 198.603 118.353C197.876 118.353 197.151 118.353 196.425 118.353C196.425 115.185 196.425 112.018 196.425 108.85C195.964 108.85 195.5 108.85 195.039 108.85C195.039 108.256 195.039 107.662 195.039 107.068Z" fill="#1D375E"/>
<path fill-rule="evenodd" clip-rule="evenodd" d="M229.09 106.672C231.974 106.552 233.657 107.938 234.138 110.83C234.374 112.662 234.176 114.444 233.544 116.175C232.479 118.334 230.796 119.027 228.496 118.254C226.777 116.664 225.986 114.684 226.12 112.315C226.053 109.84 227.043 107.96 229.09 106.672Z" fill="#1E385F"/>
<path fill-rule="evenodd" clip-rule="evenodd" d="M179.397 106.871C182.737 106.501 184.222 107.953 183.852 111.226C183.572 111.852 183.242 112.446 182.862 113.008C181.51 114.493 180.155 115.978 178.803 117.462C180.518 117.561 182.234 117.594 183.951 117.561C183.951 117.825 183.951 118.089 183.951 118.353C181.64 118.386 179.33 118.353 177.021 118.254C178.859 116.26 180.674 114.247 182.466 112.216C183.98 109.836 183.386 108.252 180.684 107.465C178.95 107.583 178.059 108.506 178.011 110.236C177.748 110.236 177.483 110.236 177.219 110.236C177.152 109.517 177.316 108.858 177.714 108.257C178.235 107.72 178.795 107.258 179.397 106.871Z" fill="#253D63"/>
<path fill-rule="evenodd" clip-rule="evenodd" d="M207.312 106.672C207.51 109.211 207.576 111.784 207.51 114.393C207.906 114.393 208.302 114.393 208.698 114.393C208.698 115.053 208.698 115.713 208.698 116.373C208.302 116.373 207.906 116.373 207.51 116.373C207.572 117.074 207.507 117.734 207.312 118.352C207.312 117.626 207.312 116.901 207.312 116.175C207.708 116.175 208.104 116.175 208.5 116.175C208.5 115.647 208.5 115.119 208.5 114.591C208.104 114.591 207.708 114.591 207.312 114.591C207.312 111.951 207.312 109.311 207.312 106.672Z" fill="#8290A5"/>
<path fill-rule="evenodd" clip-rule="evenodd" d="M229.685 108.652C230.857 108.536 231.55 109.064 231.763 110.236C232.173 111.968 232.108 113.684 231.565 115.384C231.268 116.484 230.576 116.847 229.487 116.472C228.667 115.221 228.271 113.836 228.299 112.315C228.206 110.869 228.667 109.648 229.685 108.652Z" fill="#F9F9FA"/>
<path fill-rule="evenodd" clip-rule="evenodd" d="M188.308 106.87C191.082 106.657 192.764 107.911 193.356 110.631C193.863 113.255 193.303 115.597 191.673 117.66C189.779 119.001 188.096 118.77 186.625 116.967C184.917 114.058 184.917 111.154 186.625 108.256C187.108 107.671 187.668 107.209 188.308 106.87Z" fill="#263E64"/>
<path fill-rule="evenodd" clip-rule="evenodd" d="M188.704 107.465C190.541 107.419 191.762 108.277 192.366 110.038C193.11 112.235 192.913 114.347 191.772 116.373C190.307 118.104 188.789 118.17 187.219 116.571C185.712 113.816 185.779 111.111 187.417 108.454C187.878 108.144 188.306 107.815 188.704 107.465Z" fill="#FBFBFC"/>
<path fill-rule="evenodd" clip-rule="evenodd" d="M205.135 110.236C205.331 111.651 205.396 113.103 205.333 114.592C204.531 114.656 203.739 114.59 202.957 114.394C203.739 113.028 204.466 111.642 205.135 110.236Z" fill="#EAEDF0"/>
<path fill-rule="evenodd" clip-rule="evenodd" d="M210.481 110.236C212.596 111.096 214.706 111.953 216.816 112.81C216.816 113.14 216.816 113.47 216.816 113.8C214.797 114.545 212.817 115.403 210.877 116.374C210.614 116.176 210.614 115.978 210.877 115.78C212.602 114.974 214.318 114.149 216.025 113.305C214.267 112.459 212.485 111.667 210.679 110.929C210.513 110.729 210.448 110.498 210.481 110.236Z" fill="#2A4166"/>
<path fill-rule="evenodd" clip-rule="evenodd" d="M220.776 106.673C224.445 106.678 225.864 108.46 225.033 112.018C224.172 113.606 223.083 115.025 221.766 116.275C223.017 116.374 224.272 116.406 225.528 116.374C225.528 117.033 225.528 117.693 225.528 118.353C222.954 118.386 220.38 118.353 217.807 118.254C219.61 116.066 221.293 113.789 222.855 111.424C223.374 110.324 223.144 109.433 222.162 108.752C220.885 108.676 220.291 109.303 220.38 110.632C219.588 110.632 218.797 110.632 218.005 110.632C217.961 108.6 218.886 107.281 220.776 106.673Z" fill="#1E385F"/>
<path fill-rule="evenodd" clip-rule="evenodd" d="M158.809 128.449C159.27 128.449 159.733 128.449 160.194 128.449C160.194 133.399 160.194 138.348 160.194 143.297C159.733 143.297 159.27 143.297 158.809 143.297C158.809 138.348 158.809 133.399 158.809 128.449Z" fill="#1A355D"/>
<path fill-rule="evenodd" clip-rule="evenodd" d="M195.039 128.449C195.5 128.449 195.964 128.449 196.425 128.449C196.425 133.399 196.425 138.348 196.425 143.297C195.964 143.297 195.5 143.297 195.039 143.297C195.039 138.348 195.039 133.399 195.039 128.449Z" fill="#1A365D"/>
<path fill-rule="evenodd" clip-rule="evenodd" d="M53.2891 130.431C55.1009 130.322 56.8827 130.488 58.6344 130.925C60.5739 132.396 60.937 134.21 59.7232 136.37C59.0761 137.039 58.317 137.534 57.4465 137.855C58.6761 139.621 59.9299 141.37 61.208 143.101C60.5482 143.365 59.8881 143.365 59.2283 143.101C58.1008 141.544 57.012 139.96 55.9617 138.349C55.6758 138.022 55.3128 137.89 54.8729 137.954C54.8729 139.735 54.8729 141.517 54.8729 143.299C54.3449 143.299 53.8171 143.299 53.2891 143.299C53.2891 139.009 53.2891 134.72 53.2891 130.431Z" fill="#203960"/>
<path fill-rule="evenodd" clip-rule="evenodd" d="M62.7932 130.626C64.375 130.527 64.771 131.154 63.9811 132.507C62.1439 132.751 61.7479 132.124 62.7932 130.626Z" fill="#263E64"/>
<path fill-rule="evenodd" clip-rule="evenodd" d="M118.028 130.626C119.609 130.527 120.005 131.154 119.215 132.507C118.253 132.854 117.659 132.557 117.434 131.616C117.55 131.236 117.748 130.906 118.028 130.626Z" fill="#223B61"/>
<path fill-rule="evenodd" clip-rule="evenodd" d="M56.4561 132.014C58.5889 132.263 59.2818 133.385 58.5349 135.379C58.133 135.986 57.5719 136.315 56.8521 136.369C56.2582 136.369 55.6642 136.369 55.0703 136.369C55.0703 134.917 55.0703 133.465 55.0703 132.014C55.5322 132.014 55.9943 132.014 56.4561 132.014Z" fill="#FDFDFD"/>
<path fill-rule="evenodd" clip-rule="evenodd" d="M191.475 130.628C192.964 130.606 193.36 131.233 192.663 132.508C191.7 132.855 191.107 132.558 190.881 131.617C190.932 131.183 191.13 130.853 191.475 130.628Z" fill="#213A60"/>
<path fill-rule="evenodd" clip-rule="evenodd" d="M56.4568 132.013C55.995 132.013 55.5329 132.013 55.071 132.013C55.071 133.464 55.071 134.916 55.071 136.368C55.6649 136.368 56.2589 136.368 56.8528 136.368C56.2341 136.562 55.5743 136.628 54.873 136.566C54.873 134.982 54.873 133.399 54.873 131.815C55.4442 131.754 55.9722 131.82 56.4568 132.013Z" fill="#8E9BAE"/>
<path fill-rule="evenodd" clip-rule="evenodd" d="M62.5938 135.181C63.1223 135.181 63.649 135.181 64.1775 135.181C64.1775 137.886 64.1775 140.592 64.1775 143.298C63.649 143.298 63.1223 143.298 62.5938 143.298C62.5938 140.592 62.5938 137.886 62.5938 135.181Z" fill="#243C63"/>
<path fill-rule="evenodd" clip-rule="evenodd" d="M210.679 134.983C214.116 135.12 215.6 136.902 215.133 140.329C214.444 142.935 212.761 143.958 210.085 143.397C209.598 143.109 209.168 142.746 208.798 142.308C208.699 144.155 208.665 146.003 208.699 147.852C208.17 147.852 207.644 147.852 207.115 147.852C207.115 143.628 207.115 139.405 207.115 135.181C207.644 135.181 208.17 135.181 208.699 135.181C208.667 135.583 208.699 135.979 208.798 136.369C209.35 135.782 209.978 135.32 210.679 134.983Z" fill="#223B61"/>
<path fill-rule="evenodd" clip-rule="evenodd" d="M102.584 134.983C103.994 134.89 105.083 135.418 105.851 136.567C106.134 138.795 106.233 141.039 106.148 143.298C105.619 143.298 105.093 143.298 104.564 143.298C104.598 141.383 104.564 139.469 104.465 137.557C104.172 136.769 103.612 136.439 102.782 136.567C101.796 136.529 101.169 136.991 100.902 137.953C100.803 139.733 100.769 141.515 100.803 143.298C100.274 143.298 99.7473 143.298 99.2188 143.298C99.2188 140.592 99.2188 137.887 99.2188 135.181C99.7473 135.181 100.274 135.181 100.803 135.181C100.771 135.517 100.805 135.848 100.902 136.171C101.361 135.598 101.923 135.202 102.584 134.983Z" fill="#233C62"/>
<path fill-rule="evenodd" clip-rule="evenodd" d="M117.828 135.181C118.357 135.181 118.883 135.181 119.412 135.181C119.412 137.886 119.412 140.592 119.412 143.298C118.883 143.298 118.357 143.298 117.828 143.298C117.828 140.592 117.828 137.886 117.828 135.181Z" fill="#243C62"/>
<path fill-rule="evenodd" clip-rule="evenodd" d="M123.768 134.983C125.282 134.881 126.504 135.409 127.43 136.567C127.529 136.109 127.561 135.648 127.529 135.181C128.058 135.181 128.585 135.181 129.113 135.181C129.113 137.887 129.113 140.592 129.113 143.298C128.585 143.298 128.058 143.298 127.529 143.298C127.587 142.944 127.519 142.614 127.331 142.308C126.252 143.426 124.932 143.789 123.372 143.397C122.186 142.87 121.426 141.98 121.095 140.724C120.503 138.083 121.394 136.169 123.768 134.983Z" fill="#243C62"/>
<path fill-rule="evenodd" clip-rule="evenodd" d="M191.277 135.379C191.739 135.379 192.202 135.379 192.663 135.379C192.663 138.019 192.663 140.658 192.663 143.298C192.202 143.298 191.739 143.298 191.277 143.298C191.277 140.658 191.277 138.019 191.277 135.379Z" fill="#1A365D"/>
<path fill-rule="evenodd" clip-rule="evenodd" d="M199.987 135.379C199.526 135.379 199.062 135.379 198.601 135.379C198.601 137.293 198.601 139.206 198.601 141.12C198.405 139.176 198.338 137.197 198.403 135.181C198.975 135.12 199.502 135.186 199.987 135.379Z" fill="#61738F"/>
<path fill-rule="evenodd" clip-rule="evenodd" d="M123.966 136.567C125.551 136.222 126.708 136.75 127.43 138.151C127.846 141.482 126.492 142.637 123.372 141.615C122.633 140.577 122.404 139.422 122.679 138.151C122.972 137.492 123.401 136.964 123.966 136.567Z" fill="#FBFCFC"/>
<path fill-rule="evenodd" clip-rule="evenodd" d="M210.084 136.567C212.775 136.387 213.931 137.641 213.549 140.328C212.908 141.919 211.751 142.48 210.084 142.011C209.445 141.702 209.015 141.207 208.798 140.526C208.344 138.879 208.774 137.559 210.084 136.567Z" fill="#FBFBFC"/>
<path fill-rule="evenodd" clip-rule="evenodd" d="M229.09 134.983C232.727 134.956 234.41 136.738 234.139 140.328C233.208 143.021 231.328 144.044 228.497 143.397C225.822 142.036 225.062 139.958 226.22 137.16C226.915 136.072 227.873 135.346 229.09 134.983Z" fill="#203A60"/>
<path fill-rule="evenodd" clip-rule="evenodd" d="M229.09 136.567C230.628 136.396 231.782 136.99 232.555 138.349C232.897 140.072 232.269 141.293 230.674 142.011C229.058 142.312 227.969 141.685 227.407 140.13C227.071 138.495 227.631 137.307 229.09 136.567Z" fill="#FAFAFB"/>
<path fill-rule="evenodd" clip-rule="evenodd" d="M164.946 134.983C168.678 134.855 170.428 136.637 170.193 140.328C169.242 142.982 167.362 144.005 164.55 143.397C161.666 141.901 160.973 139.69 162.472 136.765C163.194 135.994 164.02 135.401 164.946 134.983Z" fill="#213A60"/>
<path fill-rule="evenodd" clip-rule="evenodd" d="M165.144 136.566C168.147 136.632 169.168 138.083 168.212 140.922C166.369 142.655 164.785 142.457 163.461 140.328C163.065 138.615 163.625 137.362 165.144 136.566Z" fill="#FAFAFB"/>
<path fill-rule="evenodd" clip-rule="evenodd" d="M134.062 134.983C135.274 134.945 136.23 135.407 136.933 136.368C138.78 134.423 140.429 134.555 141.882 136.764C141.981 138.941 142.015 141.119 141.981 143.298C141.52 143.298 141.057 143.298 140.595 143.298C140.629 141.449 140.595 139.601 140.496 137.754C140.134 136.634 139.376 136.271 138.22 136.665C137.746 137.052 137.449 137.547 137.329 138.15C137.23 139.865 137.196 141.581 137.23 143.298C136.768 143.298 136.305 143.298 135.844 143.298C135.878 141.515 135.844 139.733 135.745 137.952C135.499 136.651 134.741 136.222 133.468 136.665C133.048 137.008 132.752 137.437 132.577 137.952C132.478 139.733 132.445 141.515 132.478 143.298C131.95 143.298 131.423 143.298 130.895 143.298C130.895 140.592 130.895 137.886 130.895 135.181C131.423 135.181 131.95 135.181 132.478 135.181C132.447 135.517 132.48 135.847 132.577 136.17C132.995 135.652 133.49 135.256 134.062 134.983Z" fill="#1F395F"/>
<path fill-rule="evenodd" clip-rule="evenodd" d="M178.607 134.983C179.797 134.917 180.721 135.379 181.378 136.368C181.058 136.728 180.662 136.992 180.19 137.16C179.806 136.599 179.278 136.434 178.607 136.665C178.343 137.061 178.343 137.457 178.607 137.853C179.84 138.321 180.929 139.014 181.873 139.932C182.105 142.735 180.818 143.89 178.013 143.397C177.417 143.064 176.954 142.602 176.627 142.011C176.88 141.601 177.243 141.304 177.716 141.12C178.393 142.159 179.25 142.357 180.289 141.714C180.422 141.318 180.422 140.922 180.289 140.526C179.399 140.031 178.508 139.536 177.617 139.041C176.334 137.301 176.665 135.949 178.607 134.983Z" fill="#233C62"/>
<path fill-rule="evenodd" clip-rule="evenodd" d="M86.1519 134.983C87.116 134.922 88.0406 135.087 88.9235 135.478C89.1789 136.097 89.1789 136.723 88.9235 137.359C87.1457 136.092 85.6609 136.356 84.4691 138.151C83.9385 140.851 85.0274 142.138 87.7357 142.011C88.1633 141.83 88.5593 141.599 88.9235 141.318C89.1512 141.901 89.1849 142.495 89.0225 143.1C84.6354 144.191 82.5903 142.475 82.8853 137.953C83.5129 136.433 84.6017 135.443 86.1519 134.983Z" fill="#203960"/>
<path fill-rule="evenodd" clip-rule="evenodd" d="M93.2794 134.983C96.451 134.855 97.9694 136.373 97.8328 139.536C95.8531 139.536 93.8733 139.536 91.8936 139.536C91.9926 141.583 93.0498 142.408 95.0612 142.011C95.7462 141.719 96.3084 141.29 96.744 140.724C97.1637 140.917 97.526 141.181 97.8328 141.516C96.5915 143.328 94.8751 143.955 92.6855 143.397C91.4996 142.871 90.7394 141.98 90.4088 140.724C89.7139 137.91 90.6701 135.996 93.2794 134.983Z" fill="#1F395F"/>
<path fill-rule="evenodd" clip-rule="evenodd" d="M93.4783 136.369C95.0186 136.196 95.9431 136.856 96.25 138.348C94.7929 138.414 93.3397 138.348 91.8945 138.15C92.2905 137.425 92.8191 136.831 93.4783 136.369Z" fill="#F7F7F9"/>
<path fill-rule="evenodd" clip-rule="evenodd" d="M68.7306 134.984C70.2075 134.848 71.3617 135.376 72.1951 136.567C72.2941 136.177 72.3258 135.781 72.2941 135.38C72.8227 135.38 73.3493 135.38 73.8779 135.38C73.8779 138.019 73.8779 140.659 73.8779 143.299C73.3493 143.299 72.8227 143.299 72.2941 143.299C72.3258 142.897 72.2941 142.501 72.1951 142.111C71.8467 142.699 71.3518 143.128 70.7103 143.398C68.1565 143.986 66.539 143.029 65.8599 140.527C65.3135 137.858 66.2698 136.01 68.7306 134.984Z" fill="#213A60"/>
<path fill-rule="evenodd" clip-rule="evenodd" d="M68.731 136.567C71.5303 136.431 72.6845 137.751 72.1955 140.527C71.4571 141.968 70.3029 142.463 68.731 142.011C68.0915 141.702 67.6619 141.207 67.4441 140.527C66.9908 138.88 67.4204 137.56 68.731 136.567Z" fill="#FAFBFB"/>
<path fill-rule="evenodd" clip-rule="evenodd" d="M182.17 135.577C182.736 135.319 183.33 135.319 183.952 135.577C184.603 137.07 185.33 138.522 186.129 139.932C186.874 138.511 187.567 137.059 188.208 135.577C188.816 135.356 189.444 135.323 190.089 135.478C188.816 138.19 187.462 140.863 186.03 143.496C184.789 140.814 183.502 138.174 182.17 135.577Z" fill="#203A60"/>
<path fill-rule="evenodd" clip-rule="evenodd" d="M146.732 134.983C150.326 134.98 152.076 136.762 151.979 140.329C150.662 143.343 148.451 144.234 145.347 143.001C142.797 140.682 142.729 138.307 145.149 135.874C145.663 135.519 146.192 135.222 146.732 134.983Z" fill="#203960"/>
<path fill-rule="evenodd" clip-rule="evenodd" d="M146.931 136.566C150.106 136.717 151.063 138.235 149.801 141.12C147.729 142.724 146.145 142.328 145.05 139.932C144.856 138.341 145.482 137.219 146.931 136.566Z" fill="#F8F9FA"/>
<path fill-rule="evenodd" clip-rule="evenodd" d="M78.0362 135.18C79.2913 135.093 80.5128 135.225 81.6987 135.576C81.8313 136.236 81.8313 136.896 81.6987 137.556C80.2475 136.236 78.7944 136.236 77.3433 137.556C76.6959 138.738 76.6959 139.926 77.3433 141.12C78.7885 142.424 80.2416 142.424 81.6987 141.12C81.7324 141.45 81.764 141.78 81.7977 142.11C81.7759 142.533 81.6433 142.897 81.4017 143.198C77.0542 144.129 75.0408 142.38 75.3635 137.952C75.8961 136.662 76.7869 135.738 78.0362 135.18Z" fill="#203A60"/>
<path fill-rule="evenodd" clip-rule="evenodd" d="M114.066 128.449C114.595 128.449 115.122 128.449 115.65 128.449C115.65 133.399 115.65 138.348 115.65 143.297C115.122 143.297 114.595 143.297 114.066 143.297C114.098 142.961 114.064 142.631 113.967 142.307C113.583 142.823 113.088 143.186 112.483 143.396C109.301 143.813 107.65 142.394 107.533 139.14C107.729 136.27 109.246 134.917 112.087 135.081C112.833 135.339 113.461 135.768 113.967 136.368C114.066 133.729 114.1 131.09 114.066 128.449Z" fill="#213A60"/>
<path fill-rule="evenodd" clip-rule="evenodd" d="M110.701 136.567C113.291 136.351 114.445 137.539 114.166 140.13C113.623 141.87 112.469 142.497 110.701 142.011C109.385 141.146 108.89 139.925 109.217 138.349C109.541 137.596 110.036 137.002 110.701 136.567Z" fill="#FAFAFB"/>
<path fill-rule="evenodd" clip-rule="evenodd" d="M199.987 135.379C199.954 137.162 199.987 138.944 200.086 140.724C200.629 142.119 201.587 142.482 202.957 141.813C203.195 141.634 203.359 141.403 203.452 141.12C203.727 139.22 203.826 137.306 203.749 135.379C204.21 135.379 204.673 135.379 205.135 135.379C205.168 137.36 205.135 139.34 205.036 141.318C204.846 142.104 204.416 142.731 203.749 143.199C202.644 143.499 201.522 143.565 200.383 143.397C199.388 142.955 198.794 142.196 198.602 141.12C198.602 139.206 198.602 137.293 198.602 135.379C199.063 135.379 199.526 135.379 199.987 135.379Z" fill="#1D375E"/>
<path fill-rule="evenodd" clip-rule="evenodd" d="M220.379 134.983C222.677 134.874 224.095 135.93 224.635 138.151C225.18 141.961 223.562 143.71 219.785 143.397C219.236 143.107 218.741 142.744 218.3 142.308C218.201 144.155 218.167 146.003 218.201 147.852C217.672 147.852 217.146 147.852 216.617 147.852C216.617 143.694 216.617 139.537 216.617 135.379C217.146 135.379 217.672 135.379 218.201 135.379C218.169 135.781 218.201 136.176 218.3 136.567C218.856 135.845 219.549 135.317 220.379 134.983Z" fill="#1F3960"/>
<path fill-rule="evenodd" clip-rule="evenodd" d="M219.588 136.567C221.174 136.222 222.33 136.75 223.053 138.151C223.589 141.021 222.433 142.308 219.588 142.011C218.297 141.045 217.87 139.758 218.301 138.151C218.594 137.492 219.024 136.964 219.588 136.567Z" fill="#FBFBFC"/>
</g>
<rect x="1.17187" y="1" width="365.657" height="206" rx="31" stroke="white" stroke-opacity="0.64" stroke-width="2"/>
<defs>
<filter id="filter1_f_817_28516" x="44.8677" y="-76.5151" width="479.546" height="479.546" filterUnits="userSpaceOnUse" color-interpolation-filters="sRGB">
<feFlood flood-opacity="0" result="BackgroundImageFix"/>
<feBlend mode="normal" in="SourceGraphic" in2="BackgroundImageFix" result="shape"/>
<feGaussianBlur stdDeviation="75.7576" result="effect1_foregroundBlur_817_28516"/>
</filter>
<clipPath id="clip0_817_28516">
<rect x="0.171875" width="367.657" height="208" rx="32" fill="white"/>
</clipPath>
</defs>
</svg>
