<svg width="369" height="208" viewBox="0 0 369 208" fill="none" xmlns="http://www.w3.org/2000/svg">
<g clip-path="url(#clip0_817_28821)">
<rect x="0.828125" width="367.657" height="208" rx="32" fill="black" fill-opacity="0.08"/>
<g filter="url(#filter1_f_817_28821)">
<circle cx="285.297" cy="163.258" r="88.2576" fill="#BE5D02" fill-opacity="0.64"/>
</g>
<rect x="24.8281" y="24" width="319.657" height="160" rx="21.5057" fill="white"/>
<path fill-rule="evenodd" clip-rule="evenodd" d="M180.847 65.1885C181.087 65.1885 181.329 65.1885 181.569 65.1885C181.466 65.8768 181.165 66.4792 180.666 66.9955C181.306 67.0464 181.967 67.0464 182.654 66.9955C182.361 67.9046 181.819 68.6574 181.027 69.2542C179.397 70.3403 177.65 71.1834 175.787 71.7841C175.178 73.1827 175.42 73.3332 176.51 72.2358C177.047 72.8815 177.65 72.9418 178.317 72.4165C178.492 72.0112 178.554 71.5896 178.498 71.1516C179.193 70.9904 179.885 70.8097 180.576 70.6095C181.006 70.7463 181.367 70.9873 181.66 71.3323C182.511 71.3169 182.903 70.8954 182.834 70.0674C183.74 70.0374 184.643 70.0676 185.545 70.1577C185.641 70.8549 186.031 71.2465 186.719 71.3323C187.144 71.1444 187.536 70.9033 187.894 70.6095C188.601 70.8656 189.323 71.0463 190.062 71.1516C189.876 72.0846 190.238 72.6267 191.147 72.7779C191.503 72.5603 191.864 72.4098 192.231 72.3262C192.804 72.7779 193.375 73.2297 193.947 73.6814C193.919 74.099 193.919 74.5206 193.947 74.9463C194.188 75.1872 194.43 75.4282 194.67 75.6691C194.612 74.7794 194.372 73.936 193.947 73.1393C193.114 72.245 192.242 71.4319 191.327 70.6999C190.303 70.2783 189.28 69.8565 188.255 69.4349C187.439 69.0215 186.685 68.5094 185.997 67.899C185.581 67.079 185.671 66.326 186.268 65.6402C187.15 65.3593 188.053 65.2991 188.978 65.4595C191.322 66.6473 193.732 67.6713 196.206 68.5314C197.243 69.4481 198.147 70.4722 198.917 71.6034C201.226 72.5079 202.46 74.2246 202.621 76.7533C202.97 77.3764 203.21 78.039 203.344 78.741C203.364 79.6127 203.516 80.4559 203.796 81.2708C203.543 82.1962 203.241 83.0997 202.892 83.9814C203.649 84.1191 204.312 84.4505 204.88 84.9752C205.183 85.3681 205.364 85.8198 205.422 86.3305C205.05 87.6451 204.717 88.9701 204.428 90.3059C203.834 91.3512 203.292 92.4354 202.802 93.5585C202.088 94.329 201.515 95.1722 201.085 96.0883C200.502 96.3371 200.442 96.6382 200.904 96.9918C201.044 97.4098 201.165 97.8314 201.266 98.2567C201.913 98.3005 202.576 98.3306 203.254 98.3471C203.404 98.4976 203.555 98.6483 203.705 98.7988C204.327 100.257 204.688 101.763 204.79 103.316C203.147 105.197 201.19 106.673 198.917 107.744C198.263 108.012 197.601 108.253 196.929 108.466C195.474 108.495 194.029 108.525 192.592 108.557C193.581 109.473 194.726 110.105 196.026 110.454C196.622 110.815 197.224 111.176 197.833 111.538C197.15 111.934 196.486 112.355 195.845 112.803C195.158 113.156 194.435 113.276 193.676 113.165C193.525 112.982 193.465 112.771 193.496 112.532C192.901 112.394 192.421 112.063 192.05 111.538C191.409 111.318 190.805 111.017 190.243 110.635C189.889 110.099 189.468 109.618 188.978 109.189C188.035 108.727 187.191 108.125 186.448 107.382C185.596 107.342 184.752 107.252 183.919 107.111C181.7 108.628 179.56 110.254 177.504 111.99C177.193 112.81 176.589 113.231 175.697 113.255C174.497 113.016 173.413 112.535 172.444 111.809C172.309 111.604 172.339 111.423 172.534 111.267C173.36 111.122 174.143 110.851 174.884 110.454C175.691 109.659 176.595 108.996 177.594 108.466C176.369 108.614 175.133 108.765 173.89 108.918C172.717 108.888 171.602 108.617 170.547 108.105C168.498 107.081 166.57 105.877 164.764 104.491C163.948 103.793 163.557 102.92 163.59 101.871C164.011 100.728 164.432 99.5838 164.855 98.4374C165.59 97.9739 166.342 97.9739 167.113 98.4374C167.441 97.8785 167.621 97.2762 167.656 96.6304C168.61 96.7654 169.361 97.2473 169.914 98.076C170.005 99.0137 169.793 99.887 169.282 100.696C169.329 100.924 169.45 101.105 169.643 101.238C170.849 101.961 172.052 102.684 173.257 103.407C175.057 103.947 175.811 103.315 175.516 101.509C174.578 101.14 173.644 100.749 172.715 100.335C171.871 99.0097 170.787 97.9255 169.463 97.0822C167.652 95.3941 166.116 93.4967 164.855 91.3901C164.242 89.4573 164.092 87.4998 164.403 85.5173C164.643 85.3968 164.885 85.3968 165.126 85.5173C165.518 85.9089 165.908 86.3003 166.3 86.6919C164.013 81.4765 164.645 76.6277 168.198 72.1455C168.438 72.0249 168.68 72.0249 168.92 72.1455C169.166 72.4969 169.318 72.8885 169.372 73.32C170.175 71.1328 171.47 69.2956 173.257 67.8086C173.552 67.7194 173.854 67.6894 174.161 67.7183C174.13 68.3236 174.161 68.9259 174.251 69.5253C175.946 67.2799 178.143 65.8343 180.847 65.1885Z" fill="#7A7E81"/>
<path fill-rule="evenodd" clip-rule="evenodd" d="M196.567 89.583C196.868 90.2068 197.049 90.8996 197.109 91.6611C196.807 91.6009 196.507 91.5405 196.205 91.4804C196.518 91.7314 196.758 92.0326 196.928 92.3839C196.868 92.4742 196.807 92.5646 196.747 92.6549C196.464 92.3089 196.102 92.1282 195.663 92.1128C195.634 91.6273 195.663 91.1453 195.753 90.6672C196.005 90.2693 196.276 89.9079 196.567 89.583Z" fill="#F3F4F4"/>
<path fill-rule="evenodd" clip-rule="evenodd" d="M169.281 93.9202C169.242 93.0655 169.303 92.2222 169.462 91.3904C169.807 90.0211 170.38 88.7562 171.179 87.5957C171.074 88.894 170.653 90.0988 169.914 91.2097C169.684 92.3555 169.473 93.259 169.281 93.9202Z" fill="#F3F3F3"/>
<path fill-rule="evenodd" clip-rule="evenodd" d="M195.303 86.8741C195.751 86.793 196.112 86.9133 196.387 87.2355C196.248 87.9484 196.157 88.6712 196.116 89.4039C195.843 88.8927 195.812 88.3808 196.026 87.868C195.619 87.6408 195.379 87.3096 195.303 86.8741Z" fill="#E8E9EA"/>
<path fill-rule="evenodd" clip-rule="evenodd" d="M164.764 86.1504C165.292 86.5288 165.744 87.0107 166.12 87.596C167.052 89.2472 167.654 90.9939 167.927 92.8363C166.608 91.0517 165.704 89.064 165.216 86.8732C165.343 87.9673 165.462 89.0515 165.578 90.1258C166.772 91.7957 167.797 93.5425 168.65 95.3661C165.762 92.9641 164.466 89.8922 164.764 86.1504Z" fill="#F3F3F3"/>
<path fill-rule="evenodd" clip-rule="evenodd" d="M168.56 86.3302C169.826 86.2632 170.278 86.8655 169.915 88.1372C169.517 88.3787 169.187 88.6797 168.921 89.0407C169.071 89.3973 169.102 89.7587 169.011 90.1249C168.637 89.2028 168.307 88.2692 168.018 87.3241C168.05 86.8947 168.231 86.5635 168.56 86.3302Z" fill="#F5F5F6"/>
<path fill-rule="evenodd" clip-rule="evenodd" d="M172.533 85.2471C172.835 85.3994 173.047 85.6403 173.166 85.9699C173.197 86.5721 173.226 87.1746 173.256 87.7769C173.106 89.3457 172.895 90.9119 172.624 92.4751C172.495 90.545 172.526 88.6177 172.714 86.6927C172.683 86.3914 172.655 86.0904 172.624 85.7892C172.564 85.9699 172.503 86.1506 172.443 86.3313C172.237 89.0371 172.116 91.7476 172.082 94.4628C171.534 92.3871 171.353 90.2789 171.54 88.1383C171.711 87.1126 172.042 86.1489 172.533 85.2471Z" fill="#F7F7F7"/>
<path fill-rule="evenodd" clip-rule="evenodd" d="M200 85.0664C200.205 85.512 200.235 85.9939 200.091 86.512C199.785 86.7912 199.424 86.9719 199.007 87.0541C198.947 87.4757 198.886 87.8974 198.826 88.319C198.305 87.7912 198.246 87.1889 198.645 86.512C199.623 86.5285 200.075 86.0467 200 85.0664Z" fill="#F5F5F6"/>
<path fill-rule="evenodd" clip-rule="evenodd" d="M196.205 84.7041C196.458 85.0436 196.76 85.1038 197.109 84.8848C197.157 85.8031 197.4 86.7066 197.831 87.5953C197.488 88.023 197.398 88.505 197.56 89.0409C197.761 88.7632 198.032 88.6428 198.374 88.6795C198.404 89.2849 198.374 89.8871 198.283 90.4865C197.936 90.9061 197.694 91.388 197.56 91.9321C197.445 91.3835 197.476 90.8414 197.651 90.3058C197.62 90.1853 197.591 90.065 197.56 89.9444C197.485 90.1562 197.363 90.3369 197.199 90.4865C197.264 88.6878 197.022 86.941 196.476 85.2462C196.348 85.6797 196.379 86.1013 196.567 86.5111C196.294 86.7364 196.023 86.7364 195.753 86.5111C195.547 85.8026 195.697 85.2003 196.205 84.7041Z" fill="#F1F1F2"/>
<path fill-rule="evenodd" clip-rule="evenodd" d="M173.618 84.5244C175.644 85.2497 177.632 86.0629 179.582 86.9639C178.412 88.732 177.269 90.5089 176.148 92.2945C174.368 90.0251 173.524 87.435 173.618 84.5244Z" fill="#FCFCFC"/>
<path fill-rule="evenodd" clip-rule="evenodd" d="M194.941 84.1621C195.141 87.0869 194.328 89.7373 192.501 92.1129C191.422 90.2821 190.307 88.4751 189.158 86.6919C191.083 85.8106 193.011 84.9673 194.941 84.1621Z" fill="#FCFCFC"/>
<path fill-rule="evenodd" clip-rule="evenodd" d="M169.102 83.9824C169.339 84.6183 169.339 85.2808 169.102 85.9701C168.648 85.3341 168.648 84.6714 169.102 83.9824Z" fill="#F3F3F4"/>
<path fill-rule="evenodd" clip-rule="evenodd" d="M169.642 79.2832C169.74 79.294 169.801 79.3542 169.823 79.4639C169.111 80.7687 168.6 82.154 168.287 83.62C168.284 82.0346 168.735 80.5889 169.642 79.2832Z" fill="#E6E6E7"/>
<path fill-rule="evenodd" clip-rule="evenodd" d="M173.438 75.6692C173.619 75.6638 173.738 75.7541 173.799 75.9402C172.948 78.6589 171.503 80.8575 169.462 82.5358C170.72 80.4118 172.045 78.3338 173.438 76.3016C173.317 76.1811 173.198 76.1811 173.076 76.3016C171.578 78.2431 170.283 80.3211 169.191 82.5358C169.251 81.2736 169.672 80.1292 170.456 79.1025C171.363 77.8652 172.357 76.7209 173.438 75.6692Z" fill="#F0F1F1"/>
<path fill-rule="evenodd" clip-rule="evenodd" d="M196.025 74.5864C196.205 74.5708 196.355 74.6312 196.476 74.7671C196.565 75.0623 196.596 75.3636 196.567 75.6706C197.57 75.404 198.05 75.8256 198.012 76.9355C197.871 77.2873 197.691 77.6185 197.47 77.9293C197.494 78.1207 197.584 78.2712 197.741 78.3811C197.922 78.2004 198.103 78.0197 198.283 77.839C198.625 78.339 198.806 78.8811 198.826 79.4653C198.766 79.5255 198.704 79.5858 198.645 79.646C198.32 78.921 198.139 78.9814 198.103 79.8267C197.376 78.8952 196.865 77.8712 196.567 76.7548C196.247 76.2963 195.976 75.8146 195.754 75.3092C195.752 75.9082 195.902 76.4803 196.205 77.0258C196.097 77.3083 195.945 77.2781 195.754 76.9355C195.723 76.9957 195.694 77.056 195.663 77.1162C196.287 77.8525 196.89 78.6055 197.47 79.3749C197.29 79.4351 197.109 79.4955 196.928 79.5556C197.89 80.0992 198.37 80.8823 198.374 81.9048C198.554 82.0855 198.735 82.2662 198.916 82.4469C199.093 82.5537 199.214 82.4933 199.277 82.2662C199.037 81.7241 198.795 81.182 198.554 80.6398C198.773 80.594 198.985 80.4434 199.187 80.1881C199.404 81.3099 199.644 82.3941 199.91 83.4407C199.836 83.3581 199.745 83.2978 199.639 83.26C199.501 83.4969 199.321 83.5873 199.097 83.5311C198.923 83.2746 198.773 83.0036 198.645 82.7179C198.229 82.3093 197.777 81.9479 197.29 81.6337C197.53 81.5132 197.772 81.3928 198.012 81.2723C197.982 81.2121 197.953 81.1518 197.922 81.0916C197.543 80.8222 197.122 80.6415 196.657 80.5495C196.386 80.0074 196.115 79.4653 195.844 78.9232C196.003 78.7875 196.184 78.6971 196.386 78.6521C196.185 78.178 195.824 77.9069 195.302 77.839C195.199 77.2922 195.018 76.7803 194.76 76.303C195.385 75.9575 195.445 75.536 194.94 75.0381C195.387 75.0314 195.748 74.8809 196.025 74.5864Z" fill="#F4F4F5"/>
<path fill-rule="evenodd" clip-rule="evenodd" d="M167.474 79.4644C167.274 79.8437 167.153 80.2654 167.113 80.7293C166.99 81.0752 166.9 81.4366 166.842 81.8135C166.721 81.2714 166.721 80.7293 166.842 80.1872C167.223 78.5658 167.525 76.9395 167.745 75.3083C166.41 78.5042 165.987 81.8171 166.481 85.2468C166.547 85.5016 166.697 85.6823 166.932 85.7889C167.306 84.5528 167.548 83.2878 167.655 81.9942C167.816 81.8567 167.937 81.676 168.016 81.4521C167.848 81.223 167.82 80.9821 167.926 80.7293C168.307 80.1581 168.64 79.5558 168.92 78.9223C168.481 78.3484 168.45 77.7461 168.83 77.1153C168.947 76.8992 169.037 76.8992 169.101 77.1153C168.801 77.4608 168.741 77.8222 168.92 78.1995C169.404 77.6677 169.525 77.7279 169.281 78.3802C169.372 78.5647 169.493 78.5949 169.643 78.4705C170.319 77.7889 170.77 76.9758 170.998 76.0311C171.958 74.3789 173.253 73.0539 174.883 72.0557C173.109 74.1778 171.361 76.4366 169.643 78.8319C169.471 78.9192 169.29 78.9492 169.101 78.9223C168.391 80.9207 167.848 82.9685 167.474 85.0661C167.505 85.307 167.534 85.548 167.565 85.7889C168.031 85.4138 168.333 84.9319 168.468 84.3433C168.568 84.8708 168.447 85.3527 168.107 85.7889C167.924 85.9402 167.713 86.0003 167.474 85.9696C167.384 87.0569 167.565 88.0809 168.016 89.0415C167.778 89.0723 167.567 89.0121 167.384 88.8608C167.323 88.1039 167.232 87.3509 167.113 86.6021C166.213 85.4882 165.761 84.1933 165.758 82.717C165.36 80.1816 165.722 77.7723 166.842 75.489C167.353 74.4644 167.957 73.5007 168.649 72.5978C168.748 73.5094 168.689 74.4129 168.468 75.3083C168.118 76.6919 167.785 78.0773 167.474 79.4644Z" fill="#EDEEEE"/>
<path fill-rule="evenodd" clip-rule="evenodd" d="M167.113 80.7296C167.171 81.5999 167.202 82.5034 167.203 83.4401C167.254 82.9058 167.404 82.424 167.655 81.9945C167.548 83.2882 167.306 84.5531 166.932 85.7892C166.697 85.6826 166.547 85.5019 166.481 85.2471C165.987 81.8174 166.41 78.5045 167.745 75.3086C167.525 76.9398 167.223 78.5661 166.842 80.1875C166.721 80.7296 166.721 81.2717 166.842 81.8138C166.9 81.4369 166.99 81.0755 167.113 80.7296Z" fill="#777B7E"/>
<path fill-rule="evenodd" clip-rule="evenodd" d="M167.655 81.9948C167.404 82.4243 167.254 82.9061 167.204 83.4404C167.202 82.5037 167.171 81.6002 167.113 80.7299C167.153 80.266 167.274 79.8443 167.475 79.465C167.451 79.6233 167.511 79.7438 167.655 79.8264C167.836 79.465 168.017 79.1036 168.197 78.7422C168.369 79.4064 168.219 80.0087 167.746 80.5492C167.655 81.0273 167.626 81.5093 167.655 81.9948Z" fill="#ABADB0"/>
<path fill-rule="evenodd" clip-rule="evenodd" d="M174.342 72.96C174.451 73.0024 174.51 73.0928 174.523 73.231C173.882 74.3559 173.097 75.3799 172.174 76.3029C172.053 76.4235 171.934 76.4235 171.812 76.3029C172.694 75.211 173.538 74.0966 174.342 72.96Z" fill="#EEEFEF"/>
<path fill-rule="evenodd" clip-rule="evenodd" d="M173.258 71.5137C173.391 71.49 173.512 71.5202 173.619 71.604C172.941 72.7045 172.188 73.7587 171.36 74.7663C171.239 74.6458 171.239 74.5254 171.36 74.4049C172.108 73.5081 172.741 72.5444 173.258 71.5137Z" fill="#E5E6E7"/>
<path fill-rule="evenodd" clip-rule="evenodd" d="M183.378 70.7914C183.983 70.7616 184.585 70.7918 185.185 70.8817C185.291 71.1544 185.412 71.4255 185.546 71.6949C186.442 72.2043 187.225 72.1139 187.895 71.4238C188.994 71.22 189.597 71.6718 189.702 72.7791C190.224 73.0702 190.766 73.3111 191.328 73.5019C191.618 73.4226 191.889 73.302 192.142 73.1405C192.637 73.3734 193.088 73.6745 193.497 74.044C193.376 74.2849 193.256 74.5259 193.135 74.7668C193.434 75.1553 193.764 75.5167 194.129 75.851C194.326 76.8996 194.778 77.8031 195.485 78.5615C195.425 78.6821 195.363 78.8024 195.304 78.9229C195.741 80.2608 196.464 81.4052 197.472 82.3562C197.62 82.8888 197.711 83.4309 197.743 83.9825C198.05 84.1463 198.381 84.2064 198.737 84.1632C198.856 85.2588 198.647 86.2829 198.105 87.2352C197.94 86.3685 197.7 85.5252 197.382 84.7054C196.898 84.0695 196.355 84.0093 195.756 84.5247C195.719 84.089 195.51 83.7879 195.123 83.6211C192.946 84.437 190.808 85.3405 188.708 86.3317C188.587 86.5725 188.587 86.8136 188.708 87.0545C189.838 88.7709 190.922 90.5178 191.961 92.2948C192.095 92.4889 192.275 92.6094 192.503 92.6562C192.982 92.4175 193.343 92.0561 193.587 91.572C194.27 90.3644 194.812 89.0995 195.213 87.7773C195.45 88.3148 195.6 88.8871 195.665 89.4939C195.392 90.1616 195.212 90.8542 195.123 91.572C195.273 92.2666 195.696 92.7483 196.388 93.0176C196.142 93.5105 195.812 93.9321 195.394 94.2825C195.154 94.162 194.912 94.0416 194.671 93.9211C194.229 94.3839 193.748 94.8054 193.226 95.186C193.148 95.5779 193.238 95.9393 193.497 96.2702C193.088 96.6397 192.637 96.9408 192.142 97.1737C191.847 97.0311 191.576 96.8504 191.328 96.6316C190.815 96.9786 190.273 97.2798 189.702 97.5351C189.527 97.8777 189.467 98.2391 189.521 98.6193C189.057 98.6835 188.605 98.8038 188.166 98.9807C187.873 98.6358 187.512 98.3947 187.082 98.2579C186.46 98.3148 185.887 98.4955 185.365 98.8C185.23 99.0234 185.17 99.2644 185.185 99.5228C184.583 99.5228 183.979 99.5228 183.378 99.5228C183.378 99.2216 183.378 98.9205 183.378 98.6193C182.754 98.6124 182.152 98.4919 181.571 98.2579C181.153 98.4652 180.763 98.7061 180.396 98.9807C179.95 98.8322 179.498 98.7117 179.041 98.6193C179.088 98.2051 179.026 97.8136 178.86 97.4448C178.399 97.1838 177.917 96.9729 177.414 96.8123C176.524 97.3053 175.801 97.0946 175.246 96.1799C175.41 95.8566 175.441 95.5252 175.336 95.186C174.915 94.7644 174.492 94.3427 174.071 93.9211C173.423 94.4975 173.031 94.3772 172.897 93.5597C173.206 91.8862 173.417 90.1996 173.529 88.5001C173.871 89.5024 174.292 90.4661 174.794 91.3913C175.082 92.0698 175.533 92.6119 176.15 93.0176C176.576 92.7422 176.907 92.3808 177.143 91.9334C178.002 90.3976 178.905 88.8918 179.854 87.4159C179.975 87.1146 179.975 86.8136 179.854 86.5124C177.808 85.5953 175.73 84.752 173.62 83.9825C173.45 84.0021 173.298 84.0622 173.168 84.1632C173.108 84.4645 173.047 84.7655 172.987 85.0668C172.747 84.8259 172.505 84.8259 172.264 85.0668C171.948 85.7583 171.587 86.4207 171.18 87.0545C171.075 86.3767 170.683 86.0754 170.006 86.151C169.948 85.5369 170.008 84.9345 170.186 84.344C170.41 84.2091 170.651 84.149 170.909 84.1632C171.028 83.2655 171.119 82.362 171.18 81.4527C172.601 80.1192 173.504 78.4929 173.891 76.5738C174.464 76.0015 175.035 75.4294 175.607 74.8572C175.401 74.5438 175.311 74.2124 175.336 73.8633C175.714 73.5473 176.135 73.3062 176.601 73.1405C176.854 73.302 177.125 73.4226 177.414 73.5019C177.917 73.3413 178.399 73.1304 178.86 72.8694C178.97 72.4815 179.091 72.0899 179.221 71.6949C179.684 71.531 180.136 71.3503 180.577 71.1528C180.86 71.421 181.103 71.7222 181.299 72.0563C181.831 71.9195 182.373 71.7992 182.926 71.6949C183.266 71.4927 183.416 71.1915 183.378 70.7914Z" fill="#FBFBFB"/>
<path fill-rule="evenodd" clip-rule="evenodd" d="M184.279 74.7666C185.143 77.179 185.866 79.6486 186.448 82.1753C188.978 82.1452 191.507 82.1753 194.037 82.2657C192.013 83.7164 189.966 85.132 187.893 86.5122C188.909 88.8942 189.691 91.3034 190.242 93.7402C188.305 92.165 186.318 90.6591 184.279 89.2227C182.339 90.7503 180.38 92.2563 178.407 93.7402C178.943 91.4695 179.666 89.2409 180.575 87.0543C180.696 86.8134 180.696 86.5723 180.575 86.3315C178.542 84.9986 176.524 83.6433 174.521 82.2657C177.051 82.1753 179.581 82.1452 182.111 82.1753C182.761 79.6817 183.484 77.2122 184.279 74.7666Z" fill="#787C7F"/>
<path fill-rule="evenodd" clip-rule="evenodd" d="M186.268 74.043C189.394 74.8073 191.893 76.4938 193.767 79.1026C193.888 79.3435 193.888 79.5845 193.767 79.8254C191.501 80.6105 189.183 81.1225 186.81 81.3614C186.342 78.9351 186.161 76.4956 186.268 74.043Z" fill="#7B7E81"/>
<path fill-rule="evenodd" clip-rule="evenodd" d="M184.28 76.9355C184.985 78.8109 185.588 80.7384 186.087 82.718C188.136 82.6878 190.183 82.718 192.231 82.8083C190.505 83.9406 188.819 85.1151 187.171 86.332C188.008 88.2106 188.64 90.1381 189.068 92.1144C187.522 90.8439 185.924 89.6392 184.28 88.5004C182.657 89.6704 181.062 90.875 179.491 92.1144C180.044 90.2143 180.677 88.317 181.389 86.4223C181.342 86.1945 181.221 86.0138 181.027 85.8802C179.49 84.901 177.984 83.877 176.51 82.8083C178.557 82.718 180.604 82.6878 182.654 82.718C183.084 80.7538 183.626 78.8262 184.28 76.9355Z" fill="#FBFBFB"/>
<path fill-rule="evenodd" clip-rule="evenodd" d="M181.208 74.2244C181.816 74.1111 182.177 74.352 182.293 74.9473C181.998 77.1489 181.756 79.3475 181.57 81.5428C181.087 81.6634 180.607 81.6634 180.124 81.5428C178.192 81.1363 176.295 80.6241 174.432 80.0069C174.356 79.5934 174.477 79.232 174.794 78.9227C176.559 76.8231 178.697 75.2572 181.208 74.2244Z" fill="#7B7F82"/>
<path fill-rule="evenodd" clip-rule="evenodd" d="M181.389 74.7666C181.604 74.8515 181.725 75.0322 181.75 75.3087C181.461 77.2252 181.342 79.1528 181.389 81.0911C179.313 80.7903 177.265 80.3385 175.245 79.7359C175.162 79.6611 175.102 79.5707 175.064 79.4648C176.752 77.3268 178.859 75.7608 181.389 74.7666Z" fill="#FBFBFB"/>
<path fill-rule="evenodd" clip-rule="evenodd" d="M186.629 74.585C189.417 75.446 191.645 77.0723 193.315 79.4639C191.242 80.1475 189.135 80.6896 186.99 81.0902C186.947 78.9173 186.826 76.7489 186.629 74.585Z" fill="#FBFBFB"/>
<path fill-rule="evenodd" clip-rule="evenodd" d="M194.579 68.622C195.239 68.5609 195.541 68.862 195.483 69.5255C195.721 69.5562 195.933 69.496 196.115 69.3448C196.323 69.7317 196.594 70.0629 196.928 70.3386C196.672 71.3518 196.883 71.5025 197.561 70.7904C197.832 71.212 198.103 71.6337 198.374 72.0553C197.969 72.4252 197.91 72.8468 198.193 73.3202C198.168 73.6106 198.049 73.8516 197.832 74.043C197.684 73.5719 197.593 73.09 197.561 72.5974C197.407 72.891 197.227 72.9512 197.019 72.7781C196.717 72.0553 196.417 71.3325 196.115 70.6097C196.056 70.7904 195.994 70.9711 195.935 71.1518C195.459 70.4955 194.917 69.8932 194.308 69.3448C194.393 69.9805 194.726 70.4924 195.302 70.8807C195.121 70.9409 194.941 71.0013 194.76 71.0614C195.729 71.4855 196.361 72.1784 196.657 73.1395C196.468 72.9557 196.256 72.9256 196.025 73.0492C196.948 73.365 197.4 73.9975 197.38 74.9465C196.984 74.6053 196.654 74.2138 196.386 73.772C196.01 73.7373 195.649 73.6469 195.302 73.5009C195.23 72.7929 194.899 72.2508 194.308 71.8746C194.133 71.4303 193.922 71.0087 193.676 70.6097C193.786 70.1317 193.876 69.6498 193.947 69.1641C194.221 69.0443 194.433 68.8636 194.579 68.622Z" fill="#F7F7F8"/>
<path fill-rule="evenodd" clip-rule="evenodd" d="M173.257 68.6224C173.523 68.1287 173.703 68.1589 173.799 68.7127C172.95 71.2865 171.654 73.6054 169.914 75.6697C170.234 74.4831 170.716 73.3385 171.36 72.2364C172.045 71.0158 172.798 69.8412 173.618 68.7127C173.512 68.6289 173.391 68.5987 173.257 68.6224Z" fill="#F1F2F2"/>
<path fill-rule="evenodd" clip-rule="evenodd" d="M173.257 68.623C171.624 70.9252 170.268 73.3948 169.191 76.0318C169.641 73.7461 170.545 71.6379 171.902 69.7073C172.283 69.2342 172.735 68.8728 173.257 68.623Z" fill="#EEEFEF"/>
<path fill-rule="evenodd" clip-rule="evenodd" d="M192.231 68.2611C192.776 68.2313 193.318 68.2615 193.857 68.3515C193.94 68.4263 194 68.5166 194.038 68.6225C193.532 69.391 192.989 69.4512 192.411 68.8032C192.352 68.8634 192.29 68.9237 192.231 68.9839C192.592 69.2248 192.894 69.526 193.134 69.8874C193.013 70.008 192.894 70.1283 192.773 70.2488C193.228 70.5669 193.378 70.9884 193.224 71.5137C192.534 71.4566 192.082 71.0952 191.869 70.4295C192.068 69.9848 192.068 69.5331 191.869 69.0743C191.873 68.743 191.994 68.472 192.231 68.2611Z" fill="#F3F3F4"/>
<path fill-rule="evenodd" clip-rule="evenodd" d="M181.028 67.3577C181.351 67.3062 181.651 67.3663 181.931 67.5384C180.561 68.8876 178.995 69.9719 177.233 70.791C177.049 70.7003 177.018 70.5799 177.143 70.4296C178.483 69.5936 179.839 68.7805 181.208 67.9901C181.425 67.8719 181.425 67.7816 181.208 67.7191C178.924 68.8286 176.756 70.0633 174.703 71.4234C176.584 69.701 178.691 68.3457 181.028 67.3577Z" fill="#EDEEEE"/>
<path fill-rule="evenodd" clip-rule="evenodd" d="M187.532 65.7305C188.126 66.0188 188.73 66.32 189.339 66.634C189.51 66.546 189.691 66.4858 189.881 66.4533C190.352 66.8396 190.894 67.0805 191.507 67.1761C191.507 67.3568 191.507 67.5375 191.507 67.7182C191.774 67.6708 192.015 67.731 192.23 67.8989C191.952 68.2505 191.59 68.3409 191.146 68.1699C190.763 67.9672 190.43 67.6961 190.152 67.3568C190.096 67.5028 190.005 67.6233 189.881 67.7182C189.339 67.5075 188.856 67.2063 188.435 66.8147C187.853 66.9807 187.311 66.8604 186.809 66.4533C186.749 66.5134 186.688 66.5738 186.628 66.634C187.241 67.0606 187.902 67.3918 188.616 67.6278C188.495 67.688 188.375 67.7484 188.254 67.8085C188.945 67.851 189.608 68.0015 190.242 68.2603C190.121 68.3808 190.002 68.5012 189.881 68.6217C189.94 68.6819 190.002 68.7422 190.061 68.8024C190.528 68.641 191.01 68.5808 191.507 68.6217C191.507 68.9831 191.507 69.3445 191.507 69.7059C190.524 69.5669 189.561 69.3562 188.616 69.0734C188.556 69.0133 188.495 68.9529 188.435 68.8927C188.867 68.8414 188.986 68.6607 188.796 68.3506C188.318 68.2608 187.837 68.2306 187.351 68.2603C187.34 67.6766 187.038 67.3454 186.447 67.2664C186.073 66.1658 186.435 65.8346 187.532 66.2726C187.532 66.0919 187.532 65.9112 187.532 65.7305Z" fill="#F4F5F5"/>
<path fill-rule="evenodd" clip-rule="evenodd" d="M180.667 65.7305C180.8 65.7068 180.922 65.7369 181.028 65.8208C179.756 67.3582 178.189 68.4424 176.33 69.0734C177.564 68.1853 178.829 67.3421 180.125 66.5436C180.341 66.4254 180.341 66.335 180.125 66.2726C178.787 66.9789 177.523 67.7921 176.33 68.712C175.551 68.8875 174.978 69.3392 174.613 70.0673C175.079 68.9957 175.831 68.1222 176.872 67.4471C178.066 66.6683 179.331 66.0961 180.667 65.7305Z" fill="#F0F0F1"/>
<path fill-rule="evenodd" clip-rule="evenodd" d="M184.098 89.7637C184.597 89.8078 184.989 90.0486 185.273 90.4865C186.373 91.9052 187.519 93.2906 188.706 94.6426C188.977 94.995 189.006 95.3564 188.796 95.7268C185.726 96.7394 182.683 96.6793 179.671 95.5461C179.55 95.3052 179.55 95.0642 179.671 94.8233C181.116 93.1065 182.593 91.42 184.098 89.7637Z" fill="#7B7E81"/>
<path fill-rule="evenodd" clip-rule="evenodd" d="M184.279 90.3066C185.757 91.8758 187.143 93.5323 188.435 95.2759C187.864 95.5237 187.263 95.7044 186.628 95.818C185.242 95.9385 183.858 95.9385 182.472 95.818C181.659 95.6442 180.875 95.4033 180.123 95.0952C181.478 93.4687 182.864 91.8726 184.279 90.3066Z" fill="#FCFCFC"/>
<path fill-rule="evenodd" clip-rule="evenodd" d="M169.463 91.3911C169.304 92.2228 169.243 93.0662 169.283 93.9209C169.134 93.414 169.044 92.8719 169.012 92.2946C168.972 92.5544 168.881 92.7953 168.74 93.0174C168.524 92.433 168.283 91.8607 168.018 91.3007C168.164 91.2451 168.283 91.1547 168.379 91.0297C168.224 90.4697 167.983 89.9576 167.656 89.4937C167.752 89.3687 167.871 89.2783 168.018 89.2227C168.307 89.8763 168.578 90.5387 168.831 91.2104C169.002 91.5488 169.214 91.609 169.463 91.3911Z" fill="#B2B4B6"/>
<path fill-rule="evenodd" clip-rule="evenodd" d="M170.185 94.4619C170.411 94.6126 170.53 94.8535 170.546 95.1847C170.533 96.1202 170.412 96.1202 170.185 95.1847C170.004 95.0342 169.823 94.8835 169.643 94.733C169.867 94.691 170.047 94.6007 170.185 94.4619Z" fill="#EBECEC"/>
<path fill-rule="evenodd" clip-rule="evenodd" d="M173.618 94.6436C174.112 94.8627 174.533 95.194 174.883 95.6374C174.605 95.9263 174.515 96.2578 174.612 96.6313C175.185 97.083 175.756 97.5348 176.329 97.9865C176.696 97.9029 177.057 97.7523 177.413 97.5348C178.322 97.686 178.683 98.2281 178.497 99.1611C179.193 99.3223 179.885 99.503 180.575 99.7032C180.966 99.7041 181.237 99.5234 181.388 99.1611C182.503 98.6739 183.045 99.0353 183.015 100.245C183.918 100.245 184.822 100.245 185.725 100.245C185.814 99.8286 185.875 99.407 185.906 98.9804C186.73 98.8282 187.393 99.0691 187.894 99.7032C188.562 99.5106 189.224 99.2999 189.881 99.0707C190.165 98.7025 190.346 98.2809 190.423 97.8058C190.709 97.6781 190.98 97.5275 191.237 97.3541C191.538 97.5949 191.838 97.836 192.14 98.0769C192.816 97.5129 193.51 96.9708 194.218 96.4506C193.678 95.75 193.799 95.1777 194.58 94.7339C194.87 94.7373 195.17 94.7673 195.483 94.8243C194.863 96.0411 194.292 97.306 193.766 98.619C193.47 99.0666 193.138 99.4881 192.773 99.8839C192.682 99.4784 192.44 99.2373 192.05 99.1611C190.629 99.6448 189.243 100.217 187.894 100.878C187.585 101.127 187.343 101.428 187.171 101.781C185.993 101.621 184.789 101.47 183.557 101.329C183.033 101.411 182.55 101.592 182.111 101.872C181.428 101.4 180.765 100.888 180.124 100.336C179.227 99.7755 178.262 99.4742 177.232 99.4321C176.961 99.7032 176.69 99.9742 176.419 100.245C174.657 99.0463 173.544 97.39 173.076 95.276C173.179 94.9871 173.36 94.7762 173.618 94.6436Z" fill="#F9FAFA"/>
<path fill-rule="evenodd" clip-rule="evenodd" d="M173.981 98.799C173.605 98.7034 173.272 98.5227 172.987 98.2569C172.365 96.5312 171.462 94.9651 170.276 93.5587C170.152 93.4083 170.182 93.288 170.367 93.1973C170.508 93.4208 170.688 93.6015 170.909 93.7394C171.033 93.6445 171.124 93.524 171.18 93.378C171.408 94.5261 171.98 95.4598 172.896 96.1788C172.813 96.2536 172.754 96.344 172.716 96.4499C173.093 97.2657 173.514 98.0487 173.981 98.799Z" fill="#F2F3F3"/>
<path fill-rule="evenodd" clip-rule="evenodd" d="M199.819 72.417C199.971 72.8312 200.152 73.2527 200.362 73.6819C200.483 73.6217 200.602 73.5614 200.723 73.5012C200.853 73.9656 201.064 74.3872 201.355 74.7661C201.446 75.1835 201.475 75.6051 201.446 76.031C201.626 76.031 201.807 76.031 201.988 76.031C201.963 76.5823 202.024 77.1244 202.169 77.6573C201.845 78.1539 201.755 78.696 201.897 79.2836C201.972 79.3662 202.062 79.4266 202.169 79.4643C202.29 79.2234 202.409 78.9824 202.53 78.7415C202.59 78.7717 202.651 78.8017 202.711 78.8319C202.908 79.2048 202.938 79.5964 202.801 80.0064C202.523 80.3324 202.221 80.6336 201.897 80.9099C201.813 80.5944 201.691 80.2932 201.536 80.0064C201.476 80.1871 201.415 80.3678 201.355 80.5485C201.204 80.2762 200.994 80.1859 200.723 80.2775C200.992 80.7265 201.323 81.1181 201.717 81.452C201.776 82.0543 201.838 82.6568 201.897 83.259C202.127 82.5093 202.248 81.7263 202.259 80.9099C202.338 81.3037 202.519 81.424 202.801 81.2713C202.922 81.5122 202.922 81.7533 202.801 81.9941C202.586 82.3778 202.465 82.7995 202.44 83.259C201.993 83.7791 201.57 84.3212 201.175 84.8853C200.83 86.8499 200.349 88.7773 199.729 90.6678C199.201 91.4206 198.721 92.2036 198.283 93.0169C198.056 93.4227 197.725 93.6636 197.29 93.7397C197.319 93.9878 197.288 94.2288 197.199 94.4625C196.476 95.5467 195.754 96.6309 195.031 97.7151C194.91 98.3174 194.91 98.9198 195.031 99.5221C195.233 99.2603 195.352 98.959 195.392 98.6186C196.115 97.7753 196.838 96.9321 197.561 96.0888C197.656 95.5879 197.806 95.1061 198.012 94.6432C198.119 94.681 198.209 94.7413 198.283 94.8239C198.374 95.1804 198.403 95.5418 198.374 95.9081C198.193 95.9081 198.012 95.9081 197.832 95.9081C197.796 96.2831 197.765 96.6445 197.741 96.9923C199.062 96.6356 199.904 95.7924 200.271 94.4625C200.669 94.0035 201.12 93.6119 201.626 93.2879C201.455 93.2007 201.274 93.1707 201.084 93.1976C201.312 92.4854 201.522 91.7626 201.717 91.0292C202.159 90.6441 202.611 90.2827 203.072 89.945C203.041 89.8848 203.012 89.8244 202.982 89.7643C202.687 90.0917 202.416 90.1219 202.169 89.8546C202.579 89.0238 203.061 88.2408 203.614 87.5055C203.554 87.4152 203.493 87.3248 203.433 87.2345C203.238 87.445 203.086 87.6858 202.982 87.9573C203.003 87.1087 203.065 86.2654 203.162 85.4275C202.826 86.1716 202.586 86.9547 202.44 87.7766C202.225 87.3929 202.103 86.9712 202.078 86.5117C202.019 86.5718 201.957 86.6322 201.897 86.6924C202.084 87.9775 201.963 89.2424 201.536 90.4871C201.178 90.1511 200.998 89.7296 200.994 89.2222C201.034 90.123 201.034 91.0265 200.994 91.9327C200.828 92.4027 200.707 92.8846 200.633 93.3783C200.566 93.6331 200.416 93.8138 200.181 93.9204C199.969 93.3208 199.969 92.7185 200.181 92.1134C200.141 91.8324 200.02 91.5913 199.819 91.3906C200.23 90.205 200.591 89.0003 200.904 87.7766C201.084 87.7766 201.265 87.7766 201.446 87.7766C201.415 87.0512 201.446 86.3284 201.536 85.6082C201.946 85.1855 202.217 85.306 202.349 85.9696C202.478 85.5129 202.599 85.0612 202.711 84.6143C202.801 84.5841 202.891 84.5541 202.982 84.5239C203.414 84.9412 203.927 85.2424 204.518 85.4275C204.256 85.6714 204.135 85.9724 204.156 86.331C204.337 86.331 204.518 86.331 204.698 86.331C204.552 87.1575 204.191 87.8803 203.614 88.4994C203.793 88.7099 203.974 88.9208 204.156 89.1318C203.759 89.7191 203.426 90.3515 203.162 91.0292C202.848 91.2923 202.515 91.5331 202.169 91.752C202.225 91.898 202.315 92.0185 202.44 92.1134C202.57 91.9415 202.72 91.9115 202.891 92.023C202.416 92.761 201.964 93.5138 201.536 94.2818C201.234 94.4625 200.934 94.6432 200.633 94.8239C200.573 95.1853 200.511 95.5467 200.452 95.9081C200.202 96.098 200.022 96.3389 199.91 96.6309C199.165 96.7422 198.442 97.0434 197.741 97.5344C197.62 97.4139 197.501 97.2935 197.38 97.173C196.513 98.0384 195.79 99.0022 195.212 100.064C194.986 99.8703 194.745 99.8703 194.489 100.064C194.154 100.459 193.762 100.79 193.314 101.058C193.023 101.188 192.752 101.158 192.501 100.968C192.23 101.239 191.959 101.51 191.688 101.781C192.12 101.906 192.12 102.086 191.688 102.323C191.048 102.595 190.385 102.655 189.7 102.504C189.501 102.09 189.651 101.818 190.152 101.691C190.336 101.905 190.548 102.086 190.784 102.233C190.893 101.864 190.893 101.533 190.784 101.239C192.06 101.158 193.054 100.586 193.766 99.5221C195.674 95.9139 197.693 92.3902 199.819 88.9511C199.478 88.4273 199.388 87.855 199.548 87.2345C199.733 87.5735 199.883 87.9349 200 88.3187C200.125 88.2238 200.215 88.1033 200.271 87.9573C200.54 86.8846 200.661 85.8004 200.633 84.7046C200.313 84.5594 200.042 84.3485 199.819 84.0722C199.968 83.7672 200.148 83.737 200.362 83.9818C200.58 83.3599 200.519 82.7574 200.181 82.1748C200.336 82.0315 200.486 82.0917 200.633 82.3555C200.727 82.9735 200.877 83.5758 201.084 84.1625C201.375 83.973 201.556 83.7019 201.626 83.3494C201.399 83.016 201.218 82.6546 201.084 82.2652C201.234 82.0005 201.265 81.7294 201.175 81.452C200.351 80.7824 200.051 79.9994 200.271 79.1029C199.843 78.7345 199.481 78.3129 199.187 77.838C199.05 77.4208 199.14 77.0594 199.458 76.7538C199.221 76.4257 198.95 76.1244 198.645 75.8503C198.529 75.4416 198.377 75.05 198.193 74.6758C198.502 74.0807 198.683 73.4483 198.735 72.7784C199.189 72.859 199.55 72.7386 199.819 72.417Z" fill="#F2F3F3"/>
<path fill-rule="evenodd" clip-rule="evenodd" d="M199.639 74.585C199.971 74.6974 200.181 74.9384 200.271 75.3078C200.331 75.1271 200.392 74.9464 200.452 74.7657C200.62 75.9951 200.891 77.1999 201.265 78.3797C201.41 78.0945 201.5 77.7935 201.536 77.4762C201.612 78.2657 201.552 79.0488 201.355 79.8253C201.068 79.3119 200.737 78.8302 200.361 78.3797C200.566 78.1802 200.716 78.2404 200.813 78.5604C200.645 77.6766 200.313 76.8332 199.819 76.0306C199.94 75.9704 200.06 75.91 200.181 75.8499C200.033 75.4028 199.852 74.9812 199.639 74.585Z" fill="#828588"/>
<path fill-rule="evenodd" clip-rule="evenodd" d="M168.016 97.1738C168.362 97.2271 168.664 97.3777 168.919 97.6256C168.594 97.6829 168.534 97.8034 168.738 97.987C168.661 98.6361 168.299 98.9071 167.654 98.8001C167.636 98.2233 167.757 97.6812 168.016 97.1738Z" fill="#F0F0F1"/>
<path fill-rule="evenodd" clip-rule="evenodd" d="M199.821 97.3543C200.754 97.2885 201.084 97.7103 200.815 98.6192C200.633 98.3014 200.362 98.0905 200.002 97.9868C200.219 97.8686 200.219 97.7782 200.002 97.7157C199.8 97.9566 199.559 98.0469 199.279 97.9868C199.498 97.799 199.679 97.5881 199.821 97.3543Z" fill="#F0F0F1"/>
<path fill-rule="evenodd" clip-rule="evenodd" d="M198.194 97.7158C198.462 97.6685 198.702 97.7287 198.917 97.8965C198.429 98.7753 198.519 99.6186 199.188 100.426C199.309 100.667 199.309 100.908 199.188 101.149C198.118 101.919 197.003 102.612 195.845 103.227C194.007 103.767 193.344 103.135 193.857 101.33C194.559 101.005 195.281 100.734 196.026 100.517C196.503 100.051 196.774 99.4789 196.839 98.8C197.287 98.4135 197.739 98.0521 198.194 97.7158Z" fill="#FBFBFB"/>
<path fill-rule="evenodd" clip-rule="evenodd" d="M165.307 98.6182C165.994 99.3314 166.776 99.9638 167.656 100.516C169.494 101.645 171.36 102.729 173.258 103.768C173.859 103.889 174.463 103.889 175.065 103.768C177.235 103.405 179.403 103.044 181.57 102.684C182.352 102.563 183.137 102.563 183.919 102.684C184.687 103.797 185.018 105.032 184.913 106.388C181.584 106.997 178.241 107.569 174.884 108.105C174.04 108.225 173.198 108.225 172.354 108.105C169.566 106.697 166.946 105.04 164.494 103.136C164.411 102.911 164.501 102.76 164.765 102.684C164.618 102.27 164.768 101.939 165.217 101.69C165.251 102.047 165.22 102.409 165.126 102.774C165.097 103.103 165.218 103.344 165.488 103.497C165.636 103.026 165.726 102.544 165.759 102.051C167.136 101.153 167.045 100.37 165.488 99.7024C165.54 99.9819 165.45 100.283 165.217 100.606C164.976 100.967 164.734 101.329 164.494 101.69C164.376 101.906 164.286 101.906 164.223 101.69C164.658 100.686 165.02 99.6623 165.307 98.6182Z" fill="#F3F3F3"/>
<path fill-rule="evenodd" clip-rule="evenodd" d="M173.979 98.7993C175.36 100.214 176.986 101.268 178.858 101.962C178.979 102.142 179.099 102.323 179.22 102.504C178.799 102.624 178.376 102.624 177.955 102.504C176.778 101.704 175.635 100.861 174.521 99.9738C174.281 99.9738 174.039 99.9738 173.799 99.9738C174.017 99.8125 174.017 99.6619 173.799 99.5221C173.553 99.9464 173.251 99.9765 172.895 99.6124C172.319 98.9456 171.777 98.253 171.269 97.5344C170.777 97.4442 170.356 97.2335 170.004 96.9019C170.194 96.813 170.374 96.843 170.546 96.9923C170.667 96.8717 170.786 96.7514 170.907 96.6309C171.131 96.7657 171.372 96.8258 171.63 96.8116C171.766 98.1045 172.458 98.9478 173.708 99.3414C173.896 99.2069 173.987 99.0262 173.979 98.7993Z" fill="#F1F1F2"/>
<path fill-rule="evenodd" clip-rule="evenodd" d="M167.656 99.3409C167.7 99.233 167.79 99.1728 167.927 99.1602C168.347 99.4079 168.798 99.5284 169.283 99.5216C169.125 100.985 168.645 101.136 167.837 99.9733C168.325 99.6423 168.265 99.4314 167.656 99.3409Z" fill="#EEEFEF"/>
<path fill-rule="evenodd" clip-rule="evenodd" d="M199.46 99.5225C199.827 99.4933 200.188 99.5234 200.544 99.6129C200.373 99.7002 200.192 99.7302 200.002 99.7032C200.017 101.056 199.776 101.116 199.279 99.8839C199.344 99.7605 199.406 99.64 199.46 99.5225Z" fill="#EFEFF0"/>
<path fill-rule="evenodd" clip-rule="evenodd" d="M177.232 99.8838C178.944 99.9866 180.33 100.709 181.389 102.052C180.98 102.259 180.557 102.29 180.124 102.143C179.383 101.7 178.599 101.339 177.775 101.058C177.44 100.861 177.139 100.62 176.871 100.336C177.03 100.208 177.151 100.057 177.232 99.8838Z" fill="#F7F7F7"/>
<path fill-rule="evenodd" clip-rule="evenodd" d="M191.508 99.7031C192.131 99.5687 192.433 99.8097 192.411 100.426C191.808 100.496 191.206 100.587 190.604 100.697C190.008 101.294 189.314 101.745 188.526 102.052C188.264 101.632 187.963 101.632 187.623 102.052C187.531 101.782 187.621 101.571 187.894 101.42C189.094 100.791 190.299 100.219 191.508 99.7031Z" fill="#F3F4F4"/>
<path fill-rule="evenodd" clip-rule="evenodd" d="M165.849 100.426C166.326 100.816 166.266 101.177 165.668 101.51C165.493 101.127 165.553 100.766 165.849 100.426Z" fill="#F3F3F4"/>
<path fill-rule="evenodd" clip-rule="evenodd" d="M202.893 98.7996C203.018 98.5694 203.168 98.5694 203.345 98.7996C203.823 100.17 204.185 101.556 204.429 102.956C204.14 103.447 203.749 103.839 203.254 104.13C201.35 105.414 199.362 106.559 197.291 107.564C193.999 108.074 190.775 107.803 187.624 106.75C187.855 106.198 188.007 105.595 188.075 104.943C187.882 104.192 187.58 103.469 187.172 102.775C187.322 102.715 187.474 102.655 187.624 102.594C190.387 103.291 193.187 103.622 196.026 103.588C198.538 102.398 200.858 100.922 202.983 99.161C203.108 98.9917 203.079 98.8714 202.893 98.7996Z" fill="#F3F3F3"/>
<path fill-rule="evenodd" clip-rule="evenodd" d="M201.447 100.787C202.318 101.506 203.222 102.198 204.158 102.865C203.946 103.061 203.706 103.212 203.435 103.317C203.258 103.049 203.046 102.808 202.803 102.594C202.253 102.912 202.222 103.273 202.712 103.678C202.653 103.859 202.531 103.98 202.351 104.04C202.118 103.586 201.997 103.104 201.989 102.594C202.651 102.508 202.68 102.268 202.08 101.871C202.02 102.052 201.959 102.233 201.899 102.413C201.693 101.884 201.541 101.341 201.447 100.787Z" fill="#7A7D80"/>
<path fill-rule="evenodd" clip-rule="evenodd" d="M183.196 101.691C183.934 101.804 184.626 102.045 185.274 102.414C185.365 102.384 185.455 102.354 185.545 102.324C185.327 102.162 185.327 102.012 185.545 101.872C187.105 102.961 187.647 104.376 187.172 106.119C186.973 106.197 186.852 106.106 186.81 105.848C186.996 105.475 186.996 105.114 186.81 104.763C186.626 105.323 186.415 105.865 186.178 106.39C186.147 106.299 186.118 106.209 186.088 106.119C186.261 105.735 186.292 105.344 186.178 104.944C186.003 105.537 185.732 106.079 185.365 106.57C185.305 106.48 185.244 106.39 185.184 106.299C185.553 105.457 185.704 104.584 185.636 103.679C185.56 103.467 185.439 103.287 185.274 103.137C185.244 103.197 185.215 103.258 185.184 103.318C185.372 103.728 185.403 104.149 185.274 104.583C185.15 103.134 184.396 102.261 183.016 101.962C183.117 101.893 183.176 101.803 183.196 101.691Z" fill="#F3F4F4"/>
<path fill-rule="evenodd" clip-rule="evenodd" d="M176.149 102.232C177.377 102.698 177.316 102.999 175.968 103.136C175.944 102.812 176.004 102.511 176.149 102.232Z" fill="#F0F1F1"/>
<path fill-rule="evenodd" clip-rule="evenodd" d="M192.952 102.053C193.274 102.322 193.395 102.683 193.314 103.137C192.372 102.939 192.251 102.577 192.952 102.053Z" fill="#E2E3E4"/>
<path fill-rule="evenodd" clip-rule="evenodd" d="M167.474 104.581C166.867 104.367 166.325 104.036 165.848 103.587C166.54 102.96 167.082 102.207 167.474 101.329C167.436 101.223 167.376 101.132 167.293 101.058C167.859 101.22 168.401 101.491 168.92 101.871C168.594 102.78 168.383 102.78 168.287 101.871C167.835 101.681 167.564 101.862 167.474 102.413C167.673 102.503 167.853 102.563 168.016 102.594C167.801 103.375 167.561 103.435 167.293 102.774C166.963 103.133 166.782 103.555 166.751 104.039C167.152 104.097 167.485 103.977 167.745 103.678C167.855 104.038 167.765 104.34 167.474 104.581Z" fill="#7C7F82"/>
<path fill-rule="evenodd" clip-rule="evenodd" d="M200.182 101.51C200.82 102.357 201.422 103.26 201.989 104.22C201.929 104.28 201.868 104.341 201.808 104.401C201.086 104.04 200.363 103.678 199.64 103.317C199.566 103.454 199.535 103.635 199.55 103.859C199.322 103.33 198.93 102.999 198.375 102.865C198.586 102.669 198.827 102.519 199.098 102.413C199.739 102.796 200.402 103.067 201.086 103.226C200.805 102.629 200.383 102.178 199.821 101.871C199.954 101.748 200.075 101.627 200.182 101.51Z" fill="#7C8082"/>
<path fill-rule="evenodd" clip-rule="evenodd" d="M196.205 103.859C196.512 103.83 196.814 103.86 197.109 103.95C196.904 105.005 197.085 105.999 197.651 106.931C197.304 107.137 196.942 107.168 196.567 107.022C196.668 106.891 196.727 106.74 196.747 106.57C196.57 106.071 196.451 105.559 196.386 105.034C196.366 104.626 196.185 104.325 195.844 104.13C196.01 104.08 196.129 103.99 196.205 103.859Z" fill="#7E8184"/>
<path fill-rule="evenodd" clip-rule="evenodd" d="M178.499 103.498C178.865 103.469 179.227 103.499 179.583 103.588C179.384 104.435 179.445 105.279 179.763 106.118C179.838 106.289 179.957 106.41 180.125 106.48C179.727 106.728 179.306 106.788 178.86 106.66C179.071 105.791 179.042 104.918 178.77 104.04C178.379 103.941 178.289 103.76 178.499 103.498Z" fill="#7F8285"/>
<path fill-rule="evenodd" clip-rule="evenodd" d="M183.016 102.955C183.196 102.95 183.316 103.04 183.377 103.226C183.605 104.225 184.028 105.129 184.642 105.937C184.281 106.057 183.919 106.057 183.558 105.937C183.764 105.337 183.524 105.066 182.835 105.124C182.81 105.442 182.869 105.743 183.016 106.027C182.775 106.268 182.533 106.268 182.293 106.027C182.416 105.596 182.566 105.174 182.745 104.762C183.397 104.986 183.518 104.806 183.106 104.22C183.046 104.341 182.985 104.461 182.925 104.582C182.835 104.034 182.866 103.492 183.016 102.955Z" fill="#7D8083"/>
<path fill-rule="evenodd" clip-rule="evenodd" d="M197.289 103.497C198.16 104.216 199.064 104.908 200 105.575C199.788 105.771 199.548 105.922 199.277 106.027C198.986 105.3 198.565 105.179 198.012 105.665C197.661 104.986 197.419 104.263 197.289 103.497Z" fill="#808386"/>
<path fill-rule="evenodd" clip-rule="evenodd" d="M190.062 103.498C190.661 103.629 191.265 103.779 191.869 103.95C192.058 104.201 192.089 104.472 191.959 104.763C191.852 104.336 191.581 104.155 191.146 104.221C191.142 104.962 191.021 105.685 190.784 106.389C190.842 106.597 190.961 106.747 191.146 106.841C190.699 106.969 190.278 106.908 189.881 106.66C190.32 105.949 190.62 105.166 190.784 104.311C190.764 104.08 190.643 103.929 190.423 103.859C189.877 104.54 189.756 104.419 190.062 103.498Z" fill="#7C8083"/>
<path fill-rule="evenodd" clip-rule="evenodd" d="M167.475 104.583C167.749 104.581 167.959 104.46 168.107 104.221C168.548 103.521 168.938 102.798 169.282 102.053C169.878 102.558 170.539 102.95 171.269 103.227C171.781 103.572 171.721 103.723 171.089 103.679C170.937 104.221 170.846 104.763 170.818 105.305C171.446 104.844 171.837 104.302 171.992 103.679C172.706 104.08 173.398 104.502 174.07 104.944C174.356 105.775 174.085 106.107 173.257 105.938C173.622 105.657 173.682 105.325 173.438 104.944C172.863 105.664 172.561 106.447 172.534 107.293C172.775 107.112 173.017 106.932 173.257 106.751C173.723 107.002 173.723 107.273 173.257 107.564C172.565 107.701 171.963 107.52 171.45 107.022C172.137 106.281 172.558 105.408 172.715 104.402C172.467 104.373 172.225 104.404 171.992 104.492C171.41 105.166 170.747 105.738 170.004 106.209C169.945 106.149 169.883 106.088 169.824 106.028C170.158 105.064 170.429 104.1 170.637 103.137C170.4 104.102 169.829 104.434 168.92 104.131C168.541 104.492 168.36 104.884 168.378 105.305C168.031 105.104 167.729 104.863 167.475 104.583Z" fill="#7A7E80"/>
<path fill-rule="evenodd" clip-rule="evenodd" d="M169.644 102.776C169.824 102.77 169.944 102.861 170.005 103.047C169.944 103.688 169.642 103.898 169.102 103.679C169.329 103.403 169.51 103.102 169.644 102.776Z" fill="#E7E8E8"/>
<path fill-rule="evenodd" clip-rule="evenodd" d="M188.616 103.498C188.952 103.264 189.314 103.264 189.701 103.498C189.227 104.45 189.046 105.444 189.158 106.479C188.772 106.594 188.41 106.533 188.074 106.298C188.427 105.566 188.669 104.783 188.797 103.949C188.792 103.756 188.732 103.605 188.616 103.498Z" fill="#7D8184"/>
<path fill-rule="evenodd" clip-rule="evenodd" d="M174.16 104.402C174.812 104.35 175.445 104.41 176.058 104.583C176.191 104.933 176.162 105.265 175.967 105.577C176.513 106.024 176.634 106.566 176.329 107.203C175.799 107.441 175.257 107.562 174.702 107.564C174.887 106.456 174.706 105.402 174.16 104.402Z" fill="#84888A"/>
<path fill-rule="evenodd" clip-rule="evenodd" d="M180.305 103.317C180.726 103.317 181.149 103.317 181.57 103.317C181.599 103.565 181.568 103.807 181.479 104.04C181.212 103.409 180.851 103.349 180.395 103.859C180.247 104.625 180.366 105.348 180.757 106.028C181.38 106.256 181.741 106.015 181.841 105.305C182.03 106.061 181.729 106.482 180.937 106.57C180.332 106.447 179.971 106.086 179.853 105.486C179.631 104.661 179.783 103.939 180.305 103.317Z" fill="#7B7E81"/>
<path fill-rule="evenodd" clip-rule="evenodd" d="M176.148 104.039C176.515 104.01 176.877 104.04 177.233 104.129C177.139 104.231 177.077 104.351 177.052 104.491C177.222 105.249 177.403 106.002 177.594 106.75C178.105 106.781 178.407 106.54 178.498 106.027C178.669 106.306 178.731 106.607 178.678 106.93C178.093 106.979 177.52 107.099 176.962 107.292C176.871 107.232 176.781 107.171 176.691 107.111C176.902 106.267 176.871 105.423 176.6 104.581C176.344 104.477 176.194 104.296 176.148 104.039Z" fill="#818587"/>
<path fill-rule="evenodd" clip-rule="evenodd" d="M192.773 104.04C192.981 104.093 193.102 104.243 193.134 104.492C193.308 105.301 193.459 106.114 193.586 106.931C193.676 107.022 193.767 107.112 193.857 107.202C193.396 107.356 192.973 107.296 192.592 107.022C192.883 106.832 193.002 106.561 192.953 106.208C192.198 106.088 191.958 106.359 192.231 107.022C191.97 107.163 191.728 107.133 191.508 106.931C192.028 106.011 192.449 105.048 192.773 104.04Z" fill="#838588"/>
<path fill-rule="evenodd" clip-rule="evenodd" d="M194.219 104.04C194.598 103.986 194.96 104.046 195.303 104.22C195.131 105.112 195.072 106.016 195.122 106.931C195.363 106.931 195.605 106.931 195.845 106.931C195.805 106.719 195.865 106.538 196.026 106.389C196.197 106.668 196.259 106.969 196.206 107.292C195.541 107.322 194.878 107.292 194.219 107.202C194.448 106.154 194.448 105.099 194.219 104.04Z" fill="#84878A"/>
<path fill-rule="evenodd" clip-rule="evenodd" d="M189.158 107.835C189.437 107.872 189.679 107.992 189.881 108.196C190.006 108.101 190.096 107.981 190.152 107.835C190.889 108.21 191.522 108.722 192.049 109.371C192.221 109.482 192.371 109.452 192.501 109.281C192.863 109.762 193.224 110.244 193.585 110.726C193.631 110.523 193.721 110.342 193.856 110.184C194.117 110.431 194.357 110.702 194.579 110.997C195.378 111.073 196.16 111.223 196.928 111.449C195.94 111.58 194.975 111.731 194.037 111.901C194.218 111.75 194.399 111.6 194.579 111.449C194.111 111.321 193.75 111.501 193.495 111.991C192.78 111.576 192.176 111.034 191.688 110.365C191.319 110.232 190.958 110.081 190.604 109.913C190.445 109.668 190.385 109.397 190.423 109.1C189.787 109.022 189.245 108.751 188.797 108.287C189.025 108.211 189.144 108.061 189.158 107.835Z" fill="#F4F4F4"/>
<path fill-rule="evenodd" clip-rule="evenodd" d="M179.582 108.376C179.81 108.369 179.991 108.46 180.124 108.647C179.145 109.554 178.182 110.458 177.233 111.358C176.993 111.418 176.751 111.478 176.51 111.539C176.958 111.827 176.989 112.158 176.601 112.532C176.472 112.247 176.322 111.976 176.149 111.719C175.558 111.54 174.956 111.389 174.342 111.268C174.794 110.951 175.276 110.68 175.787 110.454C176.454 109.488 177.358 109.067 178.498 109.19C178.715 109.026 178.865 108.816 178.95 108.557C179.235 108.792 179.447 108.732 179.582 108.376Z" fill="#F3F3F4"/>
<path fill-rule="evenodd" clip-rule="evenodd" d="M178.136 109.461C178.27 109.437 178.391 109.467 178.498 109.551C177.896 109.913 177.413 110.395 177.052 110.997C176.75 111.117 176.45 111.117 176.148 110.997C176.488 110.783 176.85 110.602 177.233 110.455C177.448 110.029 177.749 109.698 178.136 109.461Z" fill="#7E8184"/>
<path fill-rule="evenodd" clip-rule="evenodd" d="M261.439 115.605C262.285 115.575 263.129 115.605 263.969 115.695C261.672 115.756 259.504 116.298 257.464 117.322C255.637 118.35 255.064 119.826 255.747 121.749C256.967 122.936 258.441 123.478 260.174 123.375C260.978 123.382 261.761 123.262 262.523 123.014C262.572 121.751 262.964 120.606 263.698 119.58C265.868 116.891 268.669 115.596 272.1 115.695C272.785 116.066 272.997 116.638 272.733 117.412C271.251 119.796 269.173 121.452 266.499 122.381C265.398 122.852 264.254 123.123 263.065 123.194C263.065 123.435 263.065 123.676 263.065 123.917C263.73 123.887 264.394 123.917 265.053 124.008C265.837 124.557 265.958 125.219 265.414 125.995C264.032 126.358 263.188 125.846 262.885 124.459C262.091 124.322 261.309 124.412 260.536 124.73C257.532 126.167 255.395 128.426 254.121 131.507C253.526 133.111 253.859 134.466 255.115 135.572C259.417 136.207 262.7 134.671 264.963 130.965C265.579 128.447 264.585 127.454 261.981 127.983C259.263 128.864 257.397 130.641 256.379 133.314C256.258 133.555 256.139 133.555 256.018 133.314C257.314 129.967 259.724 128.04 263.246 127.531C265.024 127.6 265.778 128.504 265.505 130.242C264.937 132.196 263.763 133.671 261.981 134.669C259.983 135.938 257.814 136.36 255.476 135.934C254.18 135.603 253.367 134.789 253.036 133.494C252.565 131.42 253.045 129.613 254.482 128.073C256.703 125.834 259.383 124.479 262.523 124.008C262.675 123.825 262.735 123.614 262.704 123.375C261.143 123.564 259.576 123.594 258.006 123.465C255.646 122.991 254.712 121.576 255.205 119.219C256.752 117.105 258.83 115.9 261.439 115.605Z" fill="#7D8083"/>
<path fill-rule="evenodd" clip-rule="evenodd" d="M270.474 115.785C272.422 115.653 272.933 116.436 272.01 118.134C269.959 120.478 267.4 122.014 264.33 122.742C263.954 122.888 263.593 122.858 263.246 122.651C264.581 119.216 266.99 116.927 270.474 115.785Z" fill="#FCFCFC"/>
<path fill-rule="evenodd" clip-rule="evenodd" d="M148.501 133.132C147.616 134.388 146.411 135.02 144.887 135.029C144.587 134.091 144.737 133.217 145.339 132.409C146.416 131.031 147.56 129.705 148.772 128.434C148.893 128.313 148.893 128.193 148.772 128.072C146.707 129.989 144.567 131.796 142.357 133.493C144.678 131.264 147.088 129.125 149.585 127.078C152.101 124.715 154.45 122.215 156.633 119.579C157.166 119.371 157.708 119.341 158.259 119.489C153.825 124.344 149.459 129.253 145.158 134.216C145.07 134.45 145.039 134.691 145.068 134.939C145.576 134.88 146.058 134.729 146.514 134.487C147.186 134.032 147.849 133.58 148.501 133.132Z" fill="#777B7E"/>
<path fill-rule="evenodd" clip-rule="evenodd" d="M58.6932 129.699C56.9277 131.253 55.1804 132.849 53.4529 134.488C52.5692 135.366 51.5157 135.938 50.2906 136.204C49.9816 136.215 49.7413 136.095 49.5678 135.843C49.4214 134.964 49.5425 134.121 49.9292 133.313C51.0297 131.009 52.4156 128.901 54.0853 126.989C57.1807 123.591 60.343 120.248 63.5721 116.96C63.5125 116.93 63.451 116.9 63.3914 116.869C57.5512 121.655 52.2205 126.955 47.3994 132.771C46.72 133.543 45.9664 134.205 45.1406 134.759C49.4287 129.898 53.8865 125.169 58.5125 120.574C60.4894 118.743 62.5981 117.087 64.837 115.604C64.8966 115.665 64.9581 115.725 65.0177 115.785C60.0394 121.515 55.3719 127.478 51.0134 133.675C50.5327 134.333 50.2021 135.056 50.0195 135.843C50.9971 135.848 51.841 135.517 52.5494 134.849C53.9353 133.584 55.3195 132.319 56.7055 131.054C57.3162 130.51 57.9776 130.058 58.6932 129.699Z" fill="#797D80"/>
<path fill-rule="evenodd" clip-rule="evenodd" d="M182.473 115.423C183.378 115.393 184.281 115.424 185.183 115.514C181.679 115.597 178.488 116.621 175.606 118.586C173.779 119.92 173.026 121.697 173.347 123.916C174.265 125.882 175.83 126.786 178.045 126.627C179.395 126.525 180.72 126.285 182.021 125.904C183.497 123.797 185.064 121.749 186.719 119.76C188.226 118.18 189.943 116.885 191.869 115.875C192.778 115.495 193.653 115.525 194.489 115.965C194.46 117.289 193.98 118.433 193.044 119.399C190.451 122.247 187.348 124.355 183.738 125.723C182.012 129.406 179.422 132.328 175.967 134.487C172.785 136.203 169.473 136.564 166.029 135.571C165.095 134.866 164.914 134.023 165.487 133.042C165.843 132.952 166.204 132.922 166.571 132.951C166.77 133.832 166.468 134.134 165.667 133.855C165.595 134.725 166.016 135.297 166.932 135.571C171.063 136.493 174.587 135.439 177.503 132.409C179.128 130.603 180.545 128.646 181.75 126.536C180.958 126.538 180.174 126.658 179.401 126.898C177.606 127.178 175.92 126.876 174.341 125.994C172.561 124.506 172.231 122.729 173.347 120.664C174.748 118.71 176.585 117.294 178.859 116.417C180.071 116.026 181.275 115.695 182.473 115.423Z" fill="#7B7F81"/>
<path fill-rule="evenodd" clip-rule="evenodd" d="M192.953 115.785C193.629 115.637 194.05 115.878 194.218 116.508C194.158 117.019 194.008 117.501 193.766 117.954C191.188 121.333 187.906 123.712 183.918 125.092C185.28 122.125 187.207 119.596 189.7 117.502C190.721 116.781 191.806 116.209 192.953 115.785Z" fill="#FCFCFC"/>
<path fill-rule="evenodd" clip-rule="evenodd" d="M263.246 124.098C263.875 124.041 264.477 124.131 265.053 124.369C265.436 124.769 265.496 125.221 265.234 125.724C264.003 125.942 263.34 125.4 263.246 124.098Z" fill="#F8F8F8"/>
<path fill-rule="evenodd" clip-rule="evenodd" d="M45.14 134.759C43.0926 136.978 42.4005 136.617 43.0619 133.675C44.1624 131.531 45.4887 129.544 47.0373 127.711C50.3134 124.133 53.6564 120.61 57.0662 117.14C57.0066 117.11 56.9451 117.08 56.8855 117.05C54.6972 118.725 52.5903 120.502 50.561 122.381C46.8259 126.175 43.0926 129.97 39.3575 133.765C37.9914 134.93 36.4248 135.713 34.6593 136.114C33.2968 136.5 32.2433 136.109 31.4971 134.939C31.376 134.578 31.376 134.217 31.4971 133.855C31.5657 133.755 31.6561 133.695 31.7681 133.675C31.5079 135.134 32.1403 135.856 33.6655 135.843C35.4707 135.836 37.0681 135.264 38.454 134.126C42.6607 129.92 46.8765 125.703 51.1031 121.477C53.4414 119.346 55.9115 117.388 58.5118 115.604C58.6961 115.695 58.7269 115.816 58.6022 115.966C53.707 121.704 48.9491 127.546 44.3268 133.494C43.8895 134.188 43.4974 134.911 43.1523 135.662C43.3077 135.858 43.4884 135.888 43.6944 135.753C44.1588 135.377 44.6394 135.046 45.14 134.759Z" fill="#7F8285"/>
<path fill-rule="evenodd" clip-rule="evenodd" d="M198.916 125.001C199.633 125.105 199.814 125.496 199.458 126.176C198.491 126.207 198.311 125.816 198.916 125.001Z" fill="#808386"/>
<path fill-rule="evenodd" clip-rule="evenodd" d="M322.878 125.001C323.321 124.926 323.561 125.107 323.601 125.543C323.55 125.924 323.341 126.165 322.968 126.266C322.405 125.91 322.374 125.489 322.878 125.001Z" fill="#7A7E81"/>
<path fill-rule="evenodd" clip-rule="evenodd" d="M80.0157 125.001C80.256 125.001 80.4982 125.001 80.7385 125.001C80.7674 125.367 80.7385 125.729 80.6482 126.085C80.144 126.389 79.8133 126.269 79.6543 125.724C79.6995 125.44 79.8205 125.199 80.0157 125.001Z" fill="#818387"/>
<path fill-rule="evenodd" clip-rule="evenodd" d="M62.4883 125.001C63.2057 125.105 63.3864 125.496 63.0304 126.176C62.0637 126.207 61.883 125.816 62.4883 125.001Z" fill="#7F8386"/>
<path fill-rule="evenodd" clip-rule="evenodd" d="M265.596 134.759C267.105 135.009 268.491 134.677 269.752 133.765C271.262 132.708 272.708 131.563 274.089 130.332C275.514 129.167 277.141 128.685 278.968 128.886C279.455 129.215 279.607 129.667 279.419 130.242C279.356 130.791 279.145 131.272 278.787 131.687C279.369 131.914 279.911 131.824 280.413 131.416C281.461 130.44 282.605 129.597 283.846 128.886C284.961 128.555 285.352 128.946 285.021 130.061C284.712 130.851 284.26 131.544 283.666 132.139C285.048 131.293 286.434 130.389 287.822 129.428C289.961 128.144 290.715 128.656 290.081 130.964C289.696 131.53 289.244 132.042 288.725 132.5C287.927 132.936 287.235 133.508 286.647 134.217C286.483 134.654 286.633 134.895 287.099 134.94C288.136 134.572 289.099 134.06 289.99 133.404C291.436 132.199 292.882 130.995 294.327 129.79C295.596 128.946 296.982 128.645 298.483 128.886C298.978 129.833 298.917 130.766 298.303 131.687C298.453 131.747 298.604 131.808 298.754 131.868C299.264 131.779 299.716 131.568 300.11 131.235C301.037 130.321 302.059 129.538 303.181 128.886C303.603 128.766 304.025 128.766 304.446 128.886C304.551 129.048 304.611 129.228 304.627 129.428C304.403 130.322 304.072 131.135 303.633 131.868C304.938 130.718 306.353 129.725 307.88 128.886C308.362 128.766 308.843 128.766 309.325 128.886C309.522 129.259 309.553 129.651 309.416 130.061C309.025 130.8 308.664 131.523 308.331 132.229C310.021 130.778 311.888 129.634 313.933 128.796C314.853 128.859 315.155 129.341 314.837 130.242C314.656 130.603 314.475 130.964 314.295 131.326C313.245 132.332 312.16 133.296 311.042 134.217C310.878 134.654 311.028 134.895 311.494 134.94C312.117 134.719 312.719 134.448 313.301 134.127C315.375 132.397 317.484 130.71 319.625 129.067C320.272 128.764 320.935 128.734 321.613 128.977C320.043 130.697 318.507 132.443 317.005 134.217C316.917 134.451 316.886 134.692 316.915 134.94C317.558 134.856 318.16 134.645 318.722 134.307C320.505 133.187 322.132 131.862 323.601 130.332C324.555 129.704 325.579 129.222 326.673 128.886C327.336 128.766 327.997 128.766 328.66 128.886C329.193 129.596 329.072 130.198 328.299 130.693C327.269 130.932 327.029 130.631 327.576 129.79C327.89 129.672 328.19 129.702 328.48 129.88C328.727 129.237 328.485 128.936 327.757 128.977C325.245 129.983 323.438 131.729 322.336 134.217C322.341 134.493 322.462 134.704 322.697 134.849C324.199 134.871 325.585 134.45 326.853 133.585C328.283 132.637 329.609 131.553 330.829 130.332C332.112 129.434 333.528 128.862 335.075 128.615C336.186 128.831 336.548 129.494 336.159 130.603C336.065 131.061 335.856 131.452 335.527 131.777C336.299 131.861 336.991 131.65 337.605 131.145C337.636 131.205 337.665 131.266 337.695 131.326C337 132.004 336.158 132.335 335.166 132.32C334.06 133.445 332.795 134.348 331.371 135.03C329.257 135.386 328.443 134.513 328.931 132.41C327.636 133.585 326.159 134.458 324.504 135.03C322.218 135.454 321.344 134.52 321.884 132.229C320.59 133.583 319.054 134.547 317.276 135.12C317.047 135.108 316.835 135.048 316.644 134.94C316.468 133.783 316.768 132.759 317.547 131.868C318.022 131.212 318.565 130.609 319.173 130.061C319.295 129.94 319.295 129.82 319.173 129.699C317.45 131.243 315.673 132.719 313.843 134.127C313.142 134.658 312.359 134.989 311.494 135.12C311.205 135.111 310.934 135.051 310.681 134.94C310.63 133.834 310.991 132.871 311.765 132.049C312.493 131.259 313.277 130.536 314.114 129.88C314.296 129.605 314.387 129.303 314.385 128.977C313.612 129.092 312.889 129.363 312.217 129.79C309.884 131.399 307.656 133.145 305.531 135.03C304.988 135.151 304.446 135.151 303.904 135.03C305.628 133.247 307.283 131.41 308.874 129.519C308.96 129.347 308.991 129.167 308.964 128.977C308.716 128.948 308.474 128.978 308.241 129.067C305.453 130.71 302.923 132.698 300.652 135.03C300.101 135.178 299.558 135.148 299.025 134.94C300.78 133.066 302.466 131.138 304.085 129.157C303.995 129.097 303.904 129.037 303.814 128.977C302.471 129.693 301.237 130.567 300.11 131.597C299.403 132.085 298.621 132.326 297.76 132.32C296.68 133.582 295.354 134.485 293.785 135.03C292.39 135.498 291.608 135.016 291.436 133.585C291.519 133.187 291.55 132.796 291.526 132.41C290.391 133.424 289.157 134.297 287.822 135.03C286.123 135.174 285.731 134.482 286.647 132.952C287.762 131.717 288.875 130.482 289.99 129.248C289.88 129.09 289.73 129 289.539 128.977C286.387 130.502 283.586 132.52 281.136 135.03C280.643 135.178 280.162 135.148 279.69 134.94C281.073 133.347 282.488 131.781 283.937 130.242C284.277 129.875 284.488 129.454 284.569 128.977C283.903 129.099 283.301 129.37 282.762 129.79C281.98 130.452 281.196 131.115 280.413 131.777C279.73 132.108 279.007 132.288 278.245 132.32C277.177 133.509 275.912 134.412 274.45 135.03C273.715 135.203 273.021 135.113 272.372 134.759C272.108 133.968 272.018 133.185 272.101 132.41C270.605 133.866 268.827 134.77 266.77 135.12C266.44 135.09 266.107 135.06 265.776 135.03C265.675 134.961 265.616 134.871 265.596 134.759Z" fill="#797D80"/>
<path fill-rule="evenodd" clip-rule="evenodd" d="M334.443 128.976C335.285 128.766 335.765 129.067 335.888 129.879C334.912 132.151 333.286 133.807 331.009 134.848C329.819 135.254 329.367 134.862 329.654 133.674C330.872 131.703 332.468 130.137 334.443 128.976Z" fill="#FBFBFC"/>
<path fill-rule="evenodd" clip-rule="evenodd" d="M297.037 128.977C298.139 128.753 298.65 129.175 298.573 130.242C297.494 132.406 295.837 133.942 293.604 134.85C292.599 135.181 292.147 134.85 292.248 133.856C293.519 131.894 295.114 130.267 297.037 128.977Z" fill="#FBFBFB"/>
<path fill-rule="evenodd" clip-rule="evenodd" d="M277.522 128.977C277.948 128.947 278.369 128.977 278.786 129.067C279.038 129.24 279.159 129.481 279.148 129.79C278.17 132.273 276.423 133.96 273.907 134.85C273.243 135.087 272.821 134.876 272.643 134.217C273.833 132.063 275.46 130.316 277.522 128.977Z" fill="#FBFBFB"/>
<path fill-rule="evenodd" clip-rule="evenodd" d="M265.596 134.759C264.725 133.248 264.965 131.893 266.319 130.694C267.943 129.277 269.81 128.705 271.92 128.977C272.345 130.206 271.924 130.778 270.655 130.694C270.336 130.131 270.486 129.8 271.107 129.7C271.348 129.746 271.528 129.866 271.649 130.061C272.013 129.704 271.984 129.372 271.559 129.067C270.545 129 269.642 129.301 268.848 129.971C267.721 130.978 266.727 132.092 265.867 133.314C265.672 133.777 265.581 134.259 265.596 134.759Z" fill="#787C7F"/>
<path fill-rule="evenodd" clip-rule="evenodd" d="M142.356 133.493C141.617 134.586 140.593 135.098 139.284 135.029C139.024 134.826 138.903 134.555 138.923 134.216C139.167 133.306 139.559 132.463 140.098 131.686C141.316 130.45 142.369 129.185 143.26 127.892C141.299 129.566 139.371 131.282 137.477 133.042C136.543 133.781 135.519 134.383 134.406 134.849C131.769 135.822 130.654 134.949 131.063 132.228C129.868 133.302 128.574 134.236 127.178 135.029C126.822 135.119 126.46 135.149 126.093 135.12C126.068 134.361 126.158 133.638 126.364 132.951C125.251 134.316 123.835 135.008 122.118 135.029C121.968 134.879 121.816 134.728 121.666 134.578C121.303 132.384 122.116 130.788 124.106 129.789C125.34 129.056 126.664 128.694 128.081 128.705C128.466 128.998 128.706 129.389 128.804 129.879C131.816 126.446 134.827 123.013 137.839 119.579C138.372 119.371 138.914 119.341 139.465 119.489C135.027 124.439 130.69 129.468 126.455 134.578C126.514 134.758 126.635 134.879 126.816 134.939C129.046 133.584 131.093 131.988 132.96 130.15C134.418 129.088 136.045 128.666 137.839 128.885C138.392 129.835 138.151 130.558 137.116 131.054C135.716 131.581 134.27 131.912 132.779 132.048C130.685 134.621 131.227 135.434 134.406 134.487C135.007 134.186 135.611 133.885 136.213 133.584C141.617 129.383 146.558 124.685 151.03 119.489C151.512 119.368 151.993 119.368 152.476 119.489C148.166 124.227 143.919 129.015 139.736 133.855C139.621 134.12 139.471 134.361 139.284 134.578C139.355 134.798 139.505 134.919 139.736 134.939C140.679 134.565 141.552 134.083 142.356 133.493Z" fill="#787C7F"/>
<path fill-rule="evenodd" clip-rule="evenodd" d="M136.394 128.976C137.751 128.848 138.051 129.3 137.298 130.332C136.11 131.21 134.784 131.571 133.322 131.416C134.276 130.49 135.299 129.677 136.394 128.976Z" fill="#F7F7F7"/>
<path fill-rule="evenodd" clip-rule="evenodd" d="M126.999 128.977C127.366 128.947 127.727 128.978 128.083 129.067C128.191 129.259 128.251 129.47 128.264 129.699C127.227 132.031 125.541 133.748 123.204 134.849C122.196 135.077 121.865 134.686 122.21 133.675C123.428 131.704 125.024 130.138 126.999 128.977Z" fill="#FCFCFC"/>
<path fill-rule="evenodd" clip-rule="evenodd" d="M148.502 133.132C150.15 131.134 152.197 129.719 154.646 128.886C156.451 128.342 157.143 128.974 156.724 130.783C156.574 131.085 156.422 131.386 156.272 131.687C157.006 131.845 157.669 131.664 158.26 131.145C158.319 131.205 158.381 131.265 158.44 131.325C157.669 131.994 156.765 132.326 155.73 132.319C154.662 133.509 153.397 134.412 151.935 135.03C150.481 135.533 149.637 135.051 149.405 133.584C149.483 133.11 149.574 132.659 149.677 132.229C149.355 132.643 148.965 132.944 148.502 133.132Z" fill="#787C7F"/>
<path fill-rule="evenodd" clip-rule="evenodd" d="M155.007 128.977C155.433 128.947 155.854 128.977 156.272 129.067C156.523 129.24 156.644 129.481 156.633 129.79C155.655 132.273 153.908 133.96 151.393 134.85C150.489 135.09 150.099 134.758 150.218 133.856C151.489 131.893 153.084 130.267 155.007 128.977Z" fill="#FBFBFB"/>
<path fill-rule="evenodd" clip-rule="evenodd" d="M195.122 129.699C194.314 130.477 193.47 131.23 192.592 131.958C191.844 132.385 191.06 132.506 190.243 132.32C188.911 133.843 187.254 134.777 185.274 135.12C184.755 135.209 184.394 135.028 184.189 134.578C184.085 134.08 184.144 133.598 184.37 133.133C185.454 131.808 186.66 130.603 187.984 129.519C188.071 129.347 188.102 129.167 188.075 128.977C187.625 128.94 187.204 129.03 186.81 129.248C185.823 129.932 184.891 130.685 184.009 131.506C183.888 131.386 183.888 131.266 184.009 131.145C185.16 129.834 186.577 129.051 188.255 128.796C188.347 129.631 188.196 130.414 187.803 131.145C186.891 132.147 185.926 133.11 184.912 134.036C184.824 134.331 184.793 134.633 184.822 134.94C187.312 134.432 189.33 133.167 190.875 131.145C191.206 130.455 191.448 129.732 191.598 128.977C191.781 128.825 191.992 128.765 192.231 128.796C192.092 129.977 191.611 131.001 190.785 131.868C191.43 132.112 192.032 132.022 192.592 131.597C193.365 130.851 194.209 130.219 195.122 129.699Z" fill="#7A7E81"/>
<path fill-rule="evenodd" clip-rule="evenodd" d="M58.6919 129.699C59.3858 128.841 60.2893 128.57 61.4024 128.886C59.6695 130.699 58.0432 132.596 56.5235 134.578C56.594 134.798 56.7439 134.919 56.9752 134.939C59.3063 133.754 61.3843 132.218 63.2094 130.331C63.9322 129.849 64.655 129.367 65.3778 128.886C65.7392 128.765 66.1006 128.765 66.462 128.886C66.5723 129.108 66.6319 129.349 66.6427 129.608C66.3843 130.575 65.9922 131.448 65.4682 132.229C67.0746 131.043 68.7316 129.929 70.4374 128.886C70.9308 128.738 71.4114 128.768 71.883 128.976C72.0981 129.814 71.9463 130.597 71.4313 131.325C70.5748 132.303 69.6116 133.146 68.5401 133.855C68.1172 134.327 68.1787 134.689 68.7208 134.939C69.6333 134.569 70.5079 134.118 71.3409 133.584C73.1642 131.881 75.0905 130.315 77.1234 128.886C77.7251 128.765 78.3286 128.765 78.9304 128.886C77.3727 130.585 75.8368 132.302 74.3225 134.036C73.8798 134.493 73.9701 134.734 74.5936 134.758C75.844 134.323 76.9878 133.691 78.0269 132.861C80.32 130.869 82.548 128.821 84.7128 126.717C84.8845 126.63 85.0652 126.6 85.2549 126.627C85.2007 127.195 84.8989 127.586 84.3514 127.801C85.2477 129.013 85.6091 130.368 85.4356 131.867C86.1765 131.891 86.8397 131.68 87.4233 131.235C89.7977 129.043 91.8469 127.357 93.5671 126.175C94.5303 125.091 95.4952 124.007 96.4584 122.922C97.0005 122.802 97.5426 122.802 98.0847 122.922C97.1812 123.946 96.2777 124.97 95.3742 125.994C96.0446 126.026 96.7077 126.116 97.3619 126.265C96.5252 126.415 95.6813 126.505 94.8321 126.536C92.5426 129.187 90.2549 131.837 87.9654 134.487C88.1335 134.666 88.3449 134.757 88.5979 134.758C90.1772 134.315 91.5921 133.562 92.8443 132.5C94.1562 131.006 95.7229 129.862 97.5426 129.066C98.4334 128.81 99.3369 128.75 100.253 128.886C100.797 129.653 100.678 130.316 99.8917 130.873C98.4605 131.533 96.9553 131.894 95.3742 131.957C94.6929 132.565 94.2719 133.318 94.1092 134.216C94.1472 134.486 94.2683 134.697 94.4706 134.849C95.3489 134.995 96.1927 134.874 97.0005 134.487C97.9347 133.991 98.8382 133.449 99.711 132.861C101.31 131.472 102.936 130.116 104.59 128.795C104.729 128.368 104.879 127.947 105.042 127.53C105.354 127.15 105.716 127.09 106.126 127.35C106.256 128.269 105.956 128.45 105.222 127.892C105.101 128.133 105.101 128.374 105.222 128.615C106.888 128.517 107.311 129.18 106.487 130.602C105.589 131.681 104.626 132.705 103.596 133.674C103.253 134.025 103.101 134.446 103.144 134.939C104.102 134.792 104.944 134.4 105.674 133.764C107.49 132.25 109.357 130.804 111.276 129.428C112.14 129.029 113.043 128.758 113.986 128.615C115.146 128.72 115.537 129.322 115.161 130.422C115.024 130.909 114.812 131.36 114.528 131.777C115.271 131.841 115.934 131.63 116.516 131.144C116.576 131.204 116.637 131.265 116.697 131.325C115.925 131.994 115.022 132.325 113.986 132.319C112.938 133.535 111.673 134.438 110.192 135.029C109.275 135.3 108.522 135.089 107.933 134.397C107.866 133.686 107.837 133.023 107.843 132.409C106.563 133.59 105.118 134.494 103.506 135.12C103.276 135.107 103.065 135.047 102.873 134.939C102.712 134.113 102.833 133.33 103.235 132.59C104.1 131.423 105.034 130.308 106.036 129.247C105.663 129.191 105.302 129.1 104.951 128.976C103.065 130.349 101.258 131.825 99.5303 133.403C98.2726 134.365 96.8559 134.937 95.2838 135.12C94.8086 135.126 94.3568 135.036 93.9285 134.849C93.6557 134.068 93.475 133.255 93.3864 132.409C91.9932 133.738 90.3669 134.642 88.5075 135.12C88.1696 135.14 87.8986 135.019 87.6944 134.758C87.5733 134.337 87.5733 133.915 87.6944 133.493C88.8256 131.444 90.2404 129.607 91.9408 127.982C90.3019 128.952 88.7948 130.157 87.4233 131.596C86.6969 132.004 85.9127 132.276 85.0742 132.409C83.6069 134.416 81.6192 135.289 79.1111 135.029C78.2564 134.501 78.1949 133.899 78.9304 133.222C79.908 132.879 80.3308 133.21 80.1953 134.216C79.7237 134.179 79.3008 134.179 78.9304 134.216C79.1852 134.66 79.5773 134.841 80.1049 134.758C82.2408 134.249 83.6268 132.924 84.2611 130.783C84.3821 130.06 84.3821 129.337 84.2611 128.615C84.1852 128.403 84.0641 128.222 83.8997 128.072C81.5198 130.09 79.1418 132.108 76.762 134.126C75.9181 134.819 74.955 135.15 73.8708 135.12C73.6774 133.821 74.0081 132.676 74.8646 131.686C75.3127 131.063 75.8241 130.491 76.4006 129.97C76.3409 129.94 76.2795 129.91 76.2199 129.879C74.2412 131.708 72.1324 133.365 69.8953 134.849C69.3099 135.096 68.7081 135.156 68.0883 135.029C67.6438 134.548 67.6149 134.036 67.998 133.493C68.1931 133.042 68.4335 132.621 68.7208 132.229C69.6406 131.322 70.5441 130.418 71.4313 129.518C71.5415 129.204 71.4223 129.023 71.0699 128.976C68.0179 130.641 65.217 132.659 62.6673 135.029C62.1848 135.15 61.7042 135.15 61.2217 135.029C62.6312 133.319 64.1057 131.663 65.6489 130.06C65.9308 129.75 66.0807 129.388 66.1006 128.976C65.3832 129.178 64.7201 129.51 64.1129 129.97C62.2896 131.673 60.3634 133.239 58.3305 134.668C57.6655 135.085 56.9734 135.176 56.2524 134.939C56.1928 133.729 56.5542 132.645 57.3366 131.686C57.8426 131 58.4136 130.367 59.0533 129.789C58.9467 129.705 58.8256 129.675 58.6919 129.699Z" fill="#797C7F"/>
<path fill-rule="evenodd" clip-rule="evenodd" d="M113.444 128.976C114.286 128.766 114.767 129.067 114.89 129.879C113.898 132.226 112.212 133.882 109.83 134.848C109.165 135.083 108.685 134.902 108.385 134.306C109.552 132.025 111.238 130.248 113.444 128.976Z" fill="#FBFBFB"/>
<path fill-rule="evenodd" clip-rule="evenodd" d="M98.9899 128.977C100.446 128.988 100.627 129.5 99.532 130.513C98.4207 131.212 97.2154 131.513 95.918 131.416C96.7673 130.352 97.7918 129.539 98.9899 128.977Z" fill="#F9FAFA"/>
<path fill-rule="evenodd" clip-rule="evenodd" d="M230.359 130.603C231.282 129.72 232.367 129.117 233.612 128.796C234.452 128.914 234.723 129.396 234.425 130.242C234.244 130.603 234.063 130.964 233.883 131.326C232.952 132.212 231.989 133.055 230.991 133.856C230.569 134.328 230.63 134.689 231.172 134.94C231.965 134.619 232.717 134.227 233.431 133.765C235.025 132.397 236.651 131.072 238.31 129.79C239.585 128.981 240.97 128.68 242.466 128.886C242.941 129.827 242.881 130.76 242.285 131.687C243.017 131.912 243.649 131.731 244.183 131.145C244.199 131.555 243.987 131.826 243.55 131.958C242.963 132.145 242.359 132.266 241.743 132.32C240.679 133.504 239.414 134.407 237.948 135.03C235.675 135.337 234.923 134.403 235.69 132.229C234.506 133.318 233.21 134.251 231.805 135.03C230.634 135.422 230.122 135.03 230.269 133.856C231.026 132.316 232.11 131.051 233.521 130.061C233.803 129.751 233.953 129.389 233.973 128.977C233.725 128.948 233.483 128.978 233.25 129.067C232.258 129.553 231.293 130.065 230.359 130.603Z" fill="#7A7E81"/>
<path fill-rule="evenodd" clip-rule="evenodd" d="M241.02 128.977C241.58 128.914 242.093 129.035 242.556 129.338C242.63 130.155 242.389 130.878 241.833 131.507C240.832 132.836 239.596 133.89 238.129 134.669C237.588 134.826 237.046 134.886 236.502 134.85C236.173 134.585 236.083 134.254 236.231 133.856C237.501 131.894 239.097 130.267 241.02 128.977Z" fill="#FBFBFB"/>
<path fill-rule="evenodd" clip-rule="evenodd" d="M31.7676 133.675C31.7875 133.563 31.8471 133.473 31.9483 133.404C32.3043 133.314 32.6657 133.284 33.0325 133.314C33.0325 133.675 33.0325 134.036 33.0325 134.398C32.7307 134.398 32.4308 134.398 32.129 134.398C32.1904 134.039 32.0712 133.798 31.7676 133.675Z" fill="#75787B"/>
<path fill-rule="evenodd" clip-rule="evenodd" d="M230.358 130.603C228.752 131.818 227.216 133.143 225.75 134.578C223.439 137.432 221.059 140.233 218.613 142.981C218.071 143.101 217.529 143.101 216.986 142.981C221.688 137.74 226.296 132.47 230.81 127.17C228.425 129.375 225.985 131.513 223.492 133.584C222.756 134.138 221.974 134.62 221.143 135.03C219.879 135.392 219.368 134.941 219.607 133.675C220.61 132.129 221.813 130.744 223.221 129.519C223.307 129.347 223.338 129.167 223.311 128.977C222.386 129.085 221.544 129.416 220.781 129.97C218.553 131.354 216.535 133.01 214.728 134.94C212.538 137.673 210.279 140.354 207.951 142.981C207.409 143.101 206.867 143.101 206.325 142.981C210.967 137.801 215.516 132.59 219.968 127.35C217.576 129.624 215.075 131.762 212.469 133.765C211.621 134.46 210.658 134.912 209.578 135.12C209.348 135.108 209.137 135.048 208.945 134.94C208.824 134.578 208.824 134.217 208.945 133.856C209.401 133.052 209.823 132.269 210.21 131.506C208.754 132.962 207.099 134.136 205.241 135.03C204.831 135.167 204.439 135.137 204.066 134.94C203.891 134.166 204.012 133.443 204.428 132.771C205.076 131.761 205.859 130.858 206.777 130.061C206.898 129.94 206.898 129.82 206.777 129.699C204.758 131.356 202.742 133.012 200.723 134.669C200.028 135.194 199.336 135.224 198.645 134.759C198.562 133.837 198.803 132.993 199.368 132.229C200.535 130.76 201.77 129.345 203.073 127.983C203.013 127.953 202.951 127.923 202.892 127.892C200.696 129.756 198.528 131.654 196.387 133.584C195.723 134.006 195.062 134.428 194.399 134.849C192.682 135.542 192.171 135.03 192.863 133.313C193.528 131.986 194.401 130.811 195.483 129.79C195.376 129.706 195.255 129.676 195.122 129.699C195.816 128.842 196.719 128.571 197.832 128.886C196.099 130.699 194.473 132.597 192.953 134.578C193.024 134.799 193.174 134.919 193.405 134.94C195.169 134.134 196.764 133.08 198.194 131.777C200.293 129.765 202.462 127.838 204.699 125.995C206.753 123.881 208.741 121.712 210.662 119.49C211.144 119.369 211.625 119.369 212.108 119.49C207.72 124.442 203.353 129.411 199.007 134.398C198.897 134.712 199.016 134.892 199.368 134.94C199.831 134.754 200.282 134.543 200.723 134.307C202.583 132.869 204.39 131.364 206.144 129.79C206.79 129.204 207.541 128.873 208.403 128.796C208.674 128.826 208.945 128.856 209.216 128.886C207.807 130.596 206.332 132.253 204.789 133.856C204.507 134.166 204.357 134.527 204.337 134.94C205.413 134.734 206.376 134.282 207.229 133.584C209.142 132.153 210.949 130.587 212.65 128.886C213.143 128.738 213.624 128.768 214.095 128.977C212.559 130.723 211.023 132.47 209.487 134.217C209.399 134.451 209.368 134.692 209.397 134.94C210.04 134.856 210.642 134.645 211.204 134.307C215.093 131.385 218.766 128.192 222.227 124.73C222.588 124.61 222.95 124.61 223.311 124.73C221.229 127.143 219.182 129.583 217.167 132.049C217.198 132.109 217.227 132.169 217.258 132.229C218.998 130.73 220.926 129.525 223.04 128.615C223.616 128.743 223.887 129.104 223.853 129.699C223.55 130.816 222.948 131.75 222.046 132.5C221.397 132.991 220.765 133.503 220.149 134.036C220.019 134.328 220.049 134.599 220.239 134.849C220.817 134.834 221.359 134.653 221.865 134.307C225.759 131.318 229.495 128.126 233.069 124.73C233.371 124.61 233.671 124.61 233.972 124.73C231.963 127.093 229.975 129.472 228.009 131.868C228.1 132.052 228.221 132.082 228.371 131.958C228.965 131.391 229.628 130.939 230.358 130.603Z" fill="#787C7E"/>
</g>
<rect x="1.82812" y="1" width="365.657" height="206" rx="31" stroke="white" stroke-opacity="0.64" stroke-width="2"/>
<defs>
<filter id="filter1_f_817_28821" x="45.5239" y="-76.5151" width="479.546" height="479.546" filterUnits="userSpaceOnUse" color-interpolation-filters="sRGB">
<feFlood flood-opacity="0" result="BackgroundImageFix"/>
<feBlend mode="normal" in="SourceGraphic" in2="BackgroundImageFix" result="shape"/>
<feGaussianBlur stdDeviation="75.7576" result="effect1_foregroundBlur_817_28821"/>
</filter>
<clipPath id="clip0_817_28821">
<rect x="0.828125" width="367.657" height="208" rx="32" fill="white"/>
</clipPath>
</defs>
</svg>
