<svg width="296" height="240" viewBox="0 0 296 240" fill="none" xmlns="http://www.w3.org/2000/svg">
<g clip-path="url(#clip0_756_5658)">
<path d="M237.589 143.037C233.507 151.892 238.796 159.328 249.792 162.644C251.879 153.916 248.25 142.99 237.589 143.037Z" fill="#E6D2BB"/>
<path d="M128.457 88.7339C123.529 78.3981 129.625 69.5853 142.486 65.5215C145.071 75.7396 140.977 88.6253 128.457 88.7339Z" fill="#F8E4CE"/>
<path d="M237.104 136.836C239.754 150.418 252.014 154.589 267.425 149.282C262.584 137.502 249.338 127.934 237.104 136.836ZM127.558 88.3981C134.528 74.4266 126.419 62.2734 108.969 56.4355C105.202 70.3005 110.482 87.9579 127.558 88.3981Z" fill="#F8EBDD"/>
<path d="M127.557 88.3976C123.937 82.9201 116.903 68.6027 111.43 60.2422" stroke="#F8E4CE" stroke-width="0.536146" stroke-linecap="round" stroke-linejoin="round"/>
<path d="M59.7783 197.88C55.1722 208.363 44.5173 209.505 33.0391 202.422C39.0871 193.79 51.5175 188.471 59.7783 197.88Z" fill="#F8EBDD"/>
<path d="M231.167 135.009C228.291 132.362 223.381 123.493 229.169 117.192C231.788 114.34 232.643 113.746 234.202 113.761C235.217 113.771 236.066 114.295 236.71 113.659C237.886 112.493 233.528 108.092 237.391 103.454C241.254 98.8163 245.183 100.788 246.212 99.5241C247.242 98.2594 245.846 96.1149 248.346 94.6808C250.848 93.2465 253.285 97.3076 256.754 95.9082C260.361 94.4531 266.877 93.3635 268.258 96.789C269.64 100.213 266.799 101.2 266.139 103.643C265.479 106.087 268.376 112.777 263.045 114.926C257.749 117.063 255.473 117.08 255.648 124.229C255.825 131.38 249.931 135.456 246.438 135.22C242.943 134.983 244.032 136.694 245.923 137.499C247.813 138.302 245.227 140.115 242.666 140.086C240.106 140.058 234.777 138.332 231.167 135.009Z" fill="#FC8906"/>
<path d="M230.33 136.782C237.101 119.315 250.71 106.259 262.39 99.8739M253.396 105.886C253.297 104.975 252.375 101.208 251.032 99.3594M255.676 104.153C257.075 104.334 260.207 105.665 261.032 106.183M244.571 114.114C244.534 112.733 244.315 109.953 241.864 106.642M247.855 110.742C249.145 110.607 253.315 111.925 255.076 112.674M238.637 121.452C240.546 121.404 242.643 122.522 244.116 123.149M235.715 125.891C235.908 124.057 234.986 120.686 233.759 118.434" stroke="#ED7E00" stroke-width="0.536146" stroke-linecap="round" stroke-linejoin="round"/>
<path d="M74.0193 186.335C78.0193 183.788 80.6738 176.35 78.6617 172.146C76.6496 167.942 72.2896 168.715 71.8326 166.136C71.3754 163.556 74.5854 158.982 72.5184 156.069C68.8447 150.892 61.5229 158.366 58.4259 154.829C55.3284 151.293 59.6718 147.387 57.2951 143.628C54.9183 139.868 49.2327 146.387 44.7862 143.28C40.3396 140.172 29.6994 135.299 27.6225 141.777C25.9809 146.898 32.7624 146.221 33.533 148.41C34.4126 150.908 31.3776 152.403 32.9495 154.943C35.1706 158.533 40.4483 156.687 41.784 159.933C43.1199 163.18 39.2701 165.764 43.0657 168.416C47.7653 171.701 52.5832 164.037 56.1074 170.697C59.6321 177.356 49.9464 178.047 51.5424 182.465C53.2841 187.287 61.6018 183.224 61.9838 186.695C62.5038 191.416 67.8152 190.285 74.0193 186.335Z" fill="#F7F0E9"/>
<path d="M75.0226 185.57C74.5003 184.413 74.7217 181.016 72.7696 179.652C70.8173 178.287 68.306 177.71 66.5664 175.747C62.6858 171.368 64.4314 166.561 62.2106 163.798C60.562 161.747 58.547 163.739 55.7995 161.82C53.0517 159.9 54.9743 158.499 51.6288 156.161C48.6643 154.089 47.4863 156.172 44.3162 154.171C39.5553 151.167 40.0683 146.91 38.402 145.868C36.9418 144.955 35.832 145.708 35.832 145.708" stroke="#F8E4CE" stroke-width="0.536146" stroke-linecap="round" stroke-linejoin="round"/>
<path d="M73.4108 194.581C57.7431 203.954 42.8417 195.598 34.4648 175.794C50.2951 170.16 71.3628 174.727 73.4108 194.581Z" fill="#E6D2BB"/>
<path d="M73.4097 194.58C66.696 190.854 49.3666 183.945 39.125 178.317" stroke="#D0BBA3" stroke-width="0.536146" stroke-linecap="round" stroke-linejoin="round"/>
<path d="M195.725 209.734C195.725 206.724 208.995 204.284 225.364 204.284C241.734 204.284 255.003 206.724 255.003 209.734C255.003 212.744 241.734 215.183 225.364 215.183C208.995 215.183 195.725 212.744 195.725 209.734Z" fill="#FFF5E9"/>
<path d="M195.725 209.734C195.725 206.724 208.995 204.284 225.364 204.284C241.734 204.284 255.003 206.724 255.003 209.734C255.003 212.744 241.734 215.183 225.364 215.183C208.995 215.183 195.725 212.744 195.725 209.734Z" fill="url(#paint0_linear_756_5658)"/>
<path d="M227.211 170.155C228.487 176.218 237.355 203.532 237.719 207.285C238.725 207.132 239.739 207.046 240.756 207.026C240.33 205.004 238.815 179.312 234.266 170.244C235.905 161.97 225.934 164.091 227.211 170.155Z" fill="#F7E2C9"/>
<path d="M239.277 211.31C239.554 211.336 239.814 211.448 240.022 211.632C240.231 211.815 240.376 212.059 240.436 212.33C241.088 212.304 241.262 212.298 241.286 212.297C241.759 211.288 241.854 210.141 241.553 209.068C241.232 207.939 240.951 208.224 240.667 208.531C240.013 209.106 237.268 209.393 237.017 208.475C236.31 208.61 229.078 210.998 229.104 211.674C229.146 212.77 230.005 212.733 230.591 212.71C237.508 212.443 236.575 212.054 239.277 211.31Z" fill="#94642E"/>
<path d="M237.72 207.285C237.918 206.234 240.511 205.087 240.779 207.167C240.801 207.561 240.882 207.951 241.019 208.321L241.018 208.322C240.549 209.081 234.141 211.086 233.05 209.776C233.76 209.359 237.763 208.391 237.72 207.285ZM209.926 170.077C211.203 176.14 218.933 198.862 219.297 202.615C220.302 202.462 221.317 202.376 222.333 202.356C221.907 200.334 220.393 174.642 215.844 165.574C212.074 163.33 208.65 164.013 209.926 170.077Z" fill="#F7E2C9"/>
<path d="M220.854 206.64C221.13 206.666 221.39 206.779 221.599 206.962C221.807 207.145 221.952 207.389 222.013 207.66C222.665 207.634 222.838 207.628 222.862 207.627C223.336 206.618 223.43 205.471 223.129 204.398C222.809 203.27 222.527 203.554 222.243 203.861C221.589 204.436 218.844 204.723 218.593 203.805C217.886 203.94 210.654 206.328 210.68 207.004C210.722 208.1 211.582 208.063 212.167 208.04C219.084 207.773 218.152 207.384 220.854 206.64Z" fill="#94642E"/>
<path d="M219.295 202.615C219.493 201.564 222.085 200.417 222.353 202.497C222.376 202.892 222.457 203.281 222.594 203.652L222.592 203.652C222.124 204.411 215.715 206.417 214.625 205.106C215.335 204.689 219.338 203.721 219.295 202.615Z" fill="#F7E2C9"/>
<path d="M32.4863 216.035L35.3389 218.936C36.4951 220.092 37.8677 221.01 39.3784 221.635C40.8892 222.261 42.5083 222.583 44.1435 222.583H218.435C221.737 222.583 224.904 221.271 227.239 218.936L230.141 216.035L32.4863 216.035ZM77.2463 110.159H185.358C186.229 110.159 187.091 110.331 187.895 110.664C188.7 110.997 189.431 111.485 190.046 112.101C190.662 112.716 191.15 113.447 191.483 114.252C191.816 115.056 191.988 115.918 191.988 116.788V190.778H70.617V116.788C70.617 115.03 71.3154 113.344 72.5587 112.101C73.8019 110.858 75.4881 110.159 77.2463 110.159Z" fill="url(#paint1_linear_756_5658)"/>
<path d="M188.1 116.789H74.5039V186.891H188.1V116.789Z" fill="#FFB387"/>
<path d="M191.988 190.778H70.6163L32.6458 214.944C32.5128 215.028 32.4109 215.154 32.3554 215.301C32.2998 215.449 32.2936 215.61 32.3376 215.761C32.3817 215.913 32.4737 216.046 32.5998 216.14C32.7259 216.235 32.8792 216.286 33.0368 216.286H229.567C229.725 216.286 229.878 216.235 230.004 216.14C230.13 216.046 230.222 215.913 230.266 215.761C230.31 215.61 230.304 215.449 230.249 215.301C230.193 215.154 230.091 215.028 229.958 214.944L191.988 190.778Z" fill="url(#paint2_linear_756_5658)"/>
<path d="M151.807 214.527H109.865L113.929 202.606H147.744L151.807 214.527Z" fill="#6E2800"/>
<path d="M182.488 193.44L180.33 191.857H174.883L176.771 193.44H182.488ZM141.37 193.44L140.83 191.857H134.957L135.227 193.44H141.37ZM155.097 193.44L154.018 191.857H148.24L149.049 193.44H155.097ZM134.224 191.857H128.331V193.44H134.494L134.224 191.857ZM175.645 193.44L173.757 191.857H168.215L169.834 193.44H175.645ZM161.951 193.44L160.602 191.857H154.893L155.972 193.44H161.951ZM148.237 193.44L147.428 191.857H141.594L142.133 193.44H148.237ZM120.596 198.42H127.608V196.498H120.923L120.596 198.42ZM127.608 194.163H121.322L121.047 195.775H127.608V194.163ZM134.617 194.163H128.331V195.775H134.892L134.617 194.163ZM120.981 191.857H115.108L114.569 193.44H120.711L120.981 191.857ZM127.608 191.857H121.715L121.445 193.44H127.608V191.857ZM91.9977 195.775H98.3744L99.4738 194.163H93.3719L91.9977 195.775ZM135.015 196.498H128.331V198.42H135.343L135.015 196.498ZM149.419 194.163L150.243 195.775H156.689L155.59 194.163H149.419ZM163.517 194.163L164.891 195.775H171.188L169.539 194.163H163.517ZM156.465 194.163L157.564 195.775H163.941L162.567 194.163H156.465ZM178.432 195.775L176.508 194.163H170.573L172.222 195.775H178.432ZM143.068 198.42L142.413 196.498H135.749L136.076 198.42H143.068ZM148.607 194.163H142.38L142.93 195.775H149.431L148.607 194.163ZM135.35 194.163L135.625 195.775H142.166L141.616 194.163H135.35ZM189.279 198.42L186.658 196.498H180.42L182.714 198.42H189.279ZM181.587 198.42L179.294 196.498H172.962L174.927 198.42H181.587ZM189.811 193.44L187.39 191.857H181.552L183.711 193.44H189.811ZM173.893 198.42L171.928 196.498H165.507L167.145 198.42H173.893ZM166.195 198.42L164.557 196.498H158.057L159.368 198.42H166.195ZM150.784 198.42L149.801 196.498H143.176L143.831 198.42H150.784ZM158.493 198.42L157.182 196.498H150.613L151.596 198.42H158.493ZM168.8 193.44L167.181 191.857H161.552L162.9 193.44H168.8ZM73.4886 199.143L70.8846 201.326H78.0399L80.272 199.143H73.4886ZM65.0622 199.143L62.0859 201.326H69.7586L72.3628 199.143H65.0622ZM81.306 199.143L79.074 201.326H86.3174L88.1775 199.143H81.306ZM75.5186 196.498H68.669L66.048 198.42H73.2254L75.5186 196.498ZM81.0563 191.857H74.9977L72.8394 193.44H79.1677L81.0563 191.857ZM78.3051 194.163H71.8533L69.6548 195.775H76.3812L78.3051 194.163ZM89.1273 199.143L87.2674 201.326H94.59L96.0781 199.143H89.1273ZM198.536 199.143H191.488L194.464 201.326H201.874L198.536 199.143ZM175.667 199.143L177.899 201.326H185.055L182.45 199.143H175.667ZM96.9533 199.143L95.4652 201.326H160.474L158.985 199.143H96.9533ZM86.1048 193.44L87.7235 191.857H82.1821L80.2935 193.44H86.1048ZM183.576 199.143L186.18 201.326H193.241L190.265 199.143H183.576ZM167.761 199.143L169.621 201.326H176.865L174.633 199.143H167.761ZM159.861 199.143L161.349 201.326H168.672L166.812 199.143H159.861ZM97.8816 196.498H91.3815L89.7436 198.42H96.5711L97.8816 196.498ZM90.4317 196.498H84.0112L82.0455 198.42H88.7936L90.4317 196.498ZM106.52 194.163H100.349L99.2496 195.775H105.695L106.52 194.163ZM105.326 196.498H98.7566L97.4463 198.42H104.343L105.326 196.498ZM84.7506 195.775H91.0478L92.4219 194.163H86.3995L84.7506 195.775ZM74.3514 198.42H81.0114L82.977 196.498H76.6446L74.3514 198.42ZM112.762 196.498H106.138L105.155 198.42H112.107L112.762 196.498ZM77.5072 195.775H83.7164L85.3654 194.163H79.4309L77.5072 195.775ZM113.558 194.163H107.332L106.507 195.775H113.009L113.558 194.163ZM106.89 193.44L107.699 191.857H101.921L100.842 193.44H106.89ZM99.9668 193.44L101.046 191.857H95.3371L93.9881 193.44H99.9668ZM114.345 191.857H108.511L107.702 193.44H113.805L114.345 191.857ZM93.0381 193.44L94.3871 191.857H88.7576L87.1389 193.44H93.0381ZM120.19 196.498H113.526L112.871 198.42H119.862L120.19 196.498ZM120.588 194.163H114.322L113.773 195.775H120.313L120.588 194.163ZM179.557 195.775H186.896L187.881 196.498L190.502 198.42H197.43L190.917 194.163H177.634L179.557 195.775Z" fill="#492401"/>
<path d="M53.695 99.2962C52.8533 97.1825 52.6574 94.8666 53.1319 92.6415C53.6064 90.4164 54.73 88.3819 56.3608 86.7954C57.9915 85.2089 60.0561 84.1416 62.2934 83.7284C64.5307 83.3152 66.8403 83.5748 68.9301 84.4742C71.0199 85.3736 72.7961 86.8725 74.034 88.7814C75.272 90.6903 75.9161 92.9234 75.8849 95.1983C75.8537 97.4732 75.1487 99.6879 73.8589 101.562C72.5691 103.436 70.7525 104.886 68.6388 105.728C67.2353 106.287 65.7354 106.564 64.2248 106.543C62.7142 106.522 61.2225 106.204 59.8348 105.607C58.4471 105.01 57.1907 104.145 56.1372 103.062C55.0837 101.98 54.2539 100.7 53.695 99.2962Z" fill="#FC8906"/>
<path d="M59.2109 98.9922C59.3752 99.4062 59.5811 99.8025 59.8254 100.175C61.225 101.574 65.0244 101.769 67.003 100.981C68.9814 100.193 70.6643 97.9232 71.2215 95.6361C71.1424 95.1979 71.019 94.7688 70.8533 94.3555L59.2109 98.9922Z" fill="white"/>
<path d="M60.9303 94.8342C60.8429 94.6579 60.706 94.5109 60.5363 94.4111C60.3667 94.3113 60.1717 94.2631 59.9751 94.2724C59.7785 94.2817 59.5889 94.348 59.4294 94.4633C59.2699 94.5785 59.1474 94.7378 59.077 94.9215C59.0065 95.1053 58.991 95.3055 59.0325 95.4979C59.074 95.6903 59.1707 95.8664 59.3106 96.0047C59.4506 96.1431 59.6278 96.2377 59.8206 96.2769C60.0135 96.3162 60.2136 96.2985 60.3965 96.2259C60.6514 96.1116 60.8507 95.901 60.9507 95.6402C61.0508 95.3794 61.0434 95.0896 60.9303 94.8342ZM68.6206 91.7711C68.5331 91.5949 68.3962 91.448 68.2266 91.3484C68.057 91.2488 67.862 91.2008 67.6655 91.2101C67.469 91.2195 67.2795 91.2859 67.1202 91.4012C66.9608 91.5165 66.8385 91.6757 66.7681 91.8594C66.6978 92.0431 66.6824 92.2433 66.724 92.4355C66.7655 92.6278 66.8622 92.8038 67.0021 92.942C67.142 93.0803 67.3192 93.1747 67.512 93.2139C67.7047 93.2531 67.9047 93.2353 68.0875 93.1627C68.3426 93.0486 68.5419 92.838 68.6419 92.5771C68.7418 92.3162 68.7342 92.0263 68.6206 91.7711Z" fill="#94642E"/>
<path d="M198.395 43.7087C198.519 42.5756 198.977 41.5048 199.709 40.6315C200.442 39.7583 201.417 39.1218 202.511 38.8027C203.605 38.4836 204.769 38.4962 205.857 38.8387C206.944 39.1813 207.905 39.8386 208.618 40.7274C209.332 41.6162 209.766 42.6967 209.865 43.8321C209.965 44.9676 209.725 46.1071 209.177 47.1065C208.629 48.1059 207.797 48.9203 206.786 49.4468C205.775 49.9732 204.631 50.1881 203.498 50.0642C201.979 49.898 200.587 49.135 199.63 47.9431C198.674 46.7512 198.229 45.2281 198.395 43.7087Z" fill="#FC8906"/>
<path d="M206.849 45.9925L202.778 47.8036L200.967 43.7331C200.778 43.3096 200.755 42.8306 200.903 42.3913C201.052 41.952 201.36 41.5845 201.767 41.3621C202.173 41.1396 202.649 41.0784 203.099 41.1907C203.549 41.3029 203.94 41.5804 204.195 41.9679L204.695 42.8127L205.632 42.52C206.081 42.4029 206.557 42.4587 206.966 42.6766C207.376 42.8944 207.688 43.2582 207.841 43.6957C207.994 44.1332 207.977 44.6124 207.793 45.0379C207.61 45.4635 207.272 45.8042 206.849 45.9925Z" fill="#EF9936"/>
<path d="M91.4922 59.5958C91.4922 58.6356 91.777 57.697 92.3105 56.8987C92.8439 56.1003 93.6021 55.4781 94.4892 55.1107C95.3763 54.7433 96.3525 54.6472 97.2942 54.8345C98.2359 55.0219 99.1009 55.4842 99.7799 56.1632C100.459 56.8422 100.921 57.7072 101.108 58.6489C101.296 59.5907 101.2 60.5668 100.832 61.4539C100.465 62.3409 99.8425 63.0991 99.0441 63.6326C98.2457 64.166 97.3071 64.4507 96.3469 64.4507C95.0594 64.4507 93.8245 63.9392 92.9141 63.0287C92.0036 62.1182 91.4922 60.8834 91.4922 59.5958Z" fill="#FBC07D"/>
<path d="M96.9866 62.3784L95.7148 56.8164" stroke="#CC9352" stroke-width="0.80422" stroke-linecap="round" stroke-linejoin="round"/>
<path d="M99.1303 58.96L93.5684 60.2322" stroke="#CC9352" stroke-width="0.80422" stroke-linecap="round" stroke-linejoin="round"/>
<path d="M33.8445 167.161C33.1602 165.987 32.8395 164.635 32.9232 163.278C33.0068 161.921 33.4909 160.62 34.3144 159.538C35.1378 158.456 36.2635 157.643 37.5492 157.201C38.8348 156.759 40.2227 156.708 41.5373 157.054C42.8519 157.401 44.0341 158.13 44.9345 159.149C45.8349 160.167 46.413 161.43 46.5958 162.777C46.7785 164.124 46.5576 165.496 45.9611 166.717C45.3646 167.939 44.4192 168.956 43.2444 169.641C42.4645 170.095 41.6026 170.392 40.708 170.513C39.8135 170.634 38.9038 170.578 38.0309 170.348C37.158 170.118 36.339 169.718 35.6207 169.171C34.9024 168.624 34.2989 167.941 33.8445 167.161Z" fill="#AF7A3E"/>
<path d="M40.6406 163.021C40.748 162.768 40.7995 162.494 40.7917 162.218C40.7838 161.942 40.7167 161.672 40.595 161.425L40.5963 161.424L40.5845 161.403C40.5659 161.366 40.3269 160.949 40.3059 160.913C40.189 160.695 40.0295 160.503 39.8368 160.349C39.6441 160.194 39.4223 160.08 39.1845 160.013C38.9468 159.945 38.6979 159.927 38.4528 159.958C38.2077 159.989 37.9713 160.069 37.7578 160.194C37.5443 160.318 37.3581 160.484 37.2101 160.682C37.0622 160.88 36.9556 161.105 36.8968 161.345C36.8379 161.585 36.8279 161.835 36.8675 162.079C36.907 162.323 36.9953 162.556 37.127 162.765L37.423 163.273L37.4294 163.269C37.5844 163.497 37.7868 163.689 38.0227 163.831C38.2585 163.974 38.5223 164.064 38.7961 164.096C38.2212 164.487 36.5761 166.482 38.1857 168.16C38.8295 167.786 41.3317 166.328 41.3317 166.328C41.3317 166.328 43.8345 164.87 44.4777 164.496C43.6756 162.276 41.2584 162.715 40.6406 163.021Z" fill="#FBC07D"/>
<path d="M197.019 90.9925C199.18 85.7753 196.702 79.7941 191.485 77.6331C186.268 75.4721 180.287 77.9496 178.126 83.1667C175.965 88.3839 178.442 94.3651 183.659 96.5262C188.877 98.6872 194.858 96.2097 197.019 90.9925Z" fill="#FBC07D"/>
<path d="M193.9 82.7949L187.84 84.5857C187.784 84.4585 187.691 84.3505 187.574 84.2745C187.458 84.1985 187.321 84.1578 187.182 84.1573H183.687C183.495 84.1578 183.312 84.2342 183.176 84.3697C183.041 84.5051 182.965 84.6887 182.964 84.8803C182.501 84.8803 182.056 85.0645 181.729 85.3922C181.401 85.7199 181.217 86.1643 181.217 86.6276C181.217 87.091 181.401 87.5354 181.729 87.8631C182.056 88.1907 182.501 88.3748 182.964 88.3748C182.965 88.5664 183.041 88.7501 183.176 88.8856C183.312 89.0211 183.495 89.0974 183.687 89.098H184.303C184.496 90.1899 184.869 91.5124 185.467 92.2774C185.586 92.428 185.759 92.5256 185.949 92.5486C186.139 92.5716 186.331 92.5183 186.481 92.4003C186.632 92.2823 186.73 92.1092 186.754 91.9191C186.777 91.7291 186.724 91.5374 186.606 91.3864C186.224 90.898 185.944 89.9516 185.774 89.098H187.182C187.321 89.0975 187.458 89.0568 187.574 88.9808C187.691 88.9048 187.783 88.7968 187.84 88.6696L193.9 90.4604L193.9 82.7949Z" fill="#AF7A3E"/>
<path d="M175.728 103.605L156.874 84.751H90.9159C89.8462 84.7541 88.8212 85.1804 88.0648 85.9368C87.3084 86.6932 86.882 87.7182 86.8789 88.7879V186.891H175.728V103.605Z" fill="#FFF5E9"/>
<path d="M156.871 99.5682C156.874 100.638 157.301 101.663 158.057 102.419C158.813 103.176 159.838 103.602 160.908 103.605H175.725L156.871 84.751V99.5682Z" fill="#F8E4CE"/>
<path d="M132.645 151.866H93.2402V183.137H132.645V151.866Z" fill="#F8EBDD"/>
<path d="M131.198 153.312H94.6855V181.691H131.198V153.312Z" fill="white"/>
<path d="M99.5293 163.412C99.5292 161.739 100.025 160.103 100.955 158.711C101.885 157.32 103.206 156.236 104.752 155.595C106.298 154.955 107.999 154.787 109.64 155.114C111.281 155.44 112.789 156.246 113.972 157.429C115.155 158.612 115.961 160.12 116.288 161.761C116.614 163.402 116.446 165.103 115.806 166.649C115.166 168.195 114.081 169.517 112.69 170.446C111.299 171.376 109.663 171.872 107.99 171.872C105.746 171.872 103.594 170.981 102.007 169.394C100.421 167.808 99.5293 165.656 99.5293 163.412Z" fill="#AF7A3E"/>
<path d="M126.368 166.936H110.682V178.136H126.368V166.936Z" fill="#FC8906"/>
<path d="M104.547 163.468L106.116 161.899L107.685 163.468L109.254 161.899L110.823 163.468L112.393 161.899L113.962 163.468L115.531 161.899L117.1 163.468L118.669 161.899L120.238 163.468L121.807 161.899" stroke="#131147" stroke-width="0.536146" stroke-linecap="round" stroke-linejoin="round"/>
<path d="M130.475 96.2539H97.457V103.002H130.475V96.2539Z" fill="#EEBD88"/>
<path d="M165.145 107.099H97.457V119.39H165.145V107.099Z" fill="#EEBD88"/>
<path d="M104.568 113.245H120.595" stroke="#7F4400" stroke-width="1.07229" stroke-linecap="round" stroke-linejoin="round"/>
<path d="M124.934 113.245H129.874" stroke="#7F4400" stroke-width="1.07229" stroke-linecap="round" stroke-linejoin="round"/>
<path d="M134.934 113.245H150.961" stroke="#7F4400" stroke-width="1.07229" stroke-linecap="round" stroke-linejoin="round"/>
<path d="M155.299 113.245H157.348" stroke="#7F4400" stroke-width="1.07229" stroke-linecap="round" stroke-linejoin="round"/>
<path d="M165.146 132.947H132.129V139.696H165.146V132.947Z" fill="#EEBD88"/>
<path d="M165.145 143.793H97.457V156.084H165.145V143.793Z" fill="#EEBD88"/>
<path d="M104.568 149.938H131.302" stroke="#7F4400" stroke-width="1.07229" stroke-linecap="round" stroke-linejoin="round"/>
<path d="M134.934 149.938H146.019" stroke="#7F4400" stroke-width="1.07229" stroke-linecap="round" stroke-linejoin="round"/>
<path d="M149.635 149.938H157.347" stroke="#7F4400" stroke-width="1.07229" stroke-linecap="round" stroke-linejoin="round"/>
<path d="M222.278 102.427C224.503 104.575 222.629 120.496 209.946 126.68C201.709 130.699 190.963 130.116 190.963 130.116C190.87 128.755 190.639 126.762 190.639 126.762C193.078 126.524 204.988 122.376 209.162 120.052C216.574 115.926 217.568 97.8804 222.278 102.427Z" fill="#E6D2BB"/>
<path d="M225.177 99.2803C227.762 101.791 230.33 102.622 232.667 111.85C234.786 120.216 236.758 128.79 236.758 128.79C235.377 128.964 221.334 130.718 221.334 130.718C220.671 127.396 221.686 126.279 218.359 121.726C216.495 119.174 213.569 115.226 214.887 111.558C216.942 105.839 218.385 102.409 219.499 100.972C223.236 100.501 225.177 99.2803 225.177 99.2803Z" fill="#F7F0E9"/>
<path d="M171.885 164.5L184.056 170.552L173.923 180.73L169.887 178.725L171.885 164.5Z" fill="white"/>
<path d="M169.886 178.724L173.923 180.73L168.896 185.778L169.886 178.724Z" fill="#472E11"/>
<path d="M228.775 79.8067L232.489 72.3352C232.588 72.1368 232.647 71.9207 232.662 71.6994C232.678 71.4781 232.649 71.2559 232.579 71.0457C232.508 70.8354 232.397 70.6411 232.251 70.4739C232.105 70.3068 231.928 70.17 231.729 70.0716L223.217 65.8387C222.816 65.6393 222.352 65.6074 221.927 65.75C221.503 65.8927 221.152 66.1982 220.953 66.5993L217.238 74.0704L228.775 79.8067Z" fill="#E6D2BB"/>
<path d="M227.766 82.6362L229.094 79.9668L216.921 73.9141L215.594 76.5836L227.766 82.6362Z" fill="#FBF9F6"/>
<path d="M226.44 85.3064L227.768 82.6348L215.593 76.5844L214.265 79.2561L226.44 85.3064Z" fill="#F8EBDD"/>
<path d="M225.109 87.9788L226.438 85.3086L214.266 79.2537L212.937 81.9239L225.109 87.9788Z" fill="#FBF9F6"/>
<path d="M223.781 90.6497L225.109 87.9785L212.938 81.9245L211.61 84.5957L223.781 90.6497Z" fill="#F8EBDD"/>
<path d="M222.454 93.3185L223.781 90.6475L211.608 84.5987L210.281 87.2697L222.454 93.3185Z" fill="#FBF9F6"/>
<path d="M177.971 167.527L216.367 90.2946L210.281 87.2686L171.885 164.5L172.468 167.898C172.513 168.16 172.619 168.407 172.778 168.62C172.936 168.833 173.143 169.006 173.381 169.124C173.619 169.243 173.881 169.303 174.147 169.301C174.412 169.299 174.674 169.235 174.91 169.113L177.971 167.527Z" fill="#FC8906"/>
<path d="M184.056 170.551L222.454 93.3191L216.367 90.2939L177.971 167.526L178.553 170.923C178.598 171.185 178.705 171.432 178.863 171.646C179.022 171.859 179.229 172.032 179.467 172.15C179.705 172.268 179.967 172.329 180.233 172.327C180.499 172.325 180.76 172.26 180.996 172.138L184.056 170.551Z" fill="#E17800"/>
<path d="M190.017 125.958C190.658 125.644 191.531 125.289 191.83 125.587C192.129 125.886 190.862 126.515 190.862 126.515C191.944 126.659 194.55 127.504 193.046 129.008C191.938 130.115 188.915 130.457 188.522 130.064C187.752 129.294 187.915 126.989 190.017 125.958ZM195.437 121.632C194.461 121.206 194.952 120.416 194.18 119.383C193.446 118.401 192.746 118.76 192.853 119.151C192.305 118.692 190.314 123.401 191.217 123.651C192.145 123.957 193.055 124.318 193.941 124.731C194.216 124.256 195.437 121.632 195.437 121.632Z" fill="#F8E5D0"/>
<path d="M227.833 104.554C230.897 106.624 225.055 125.296 216.368 128.139C211.798 129.635 193.637 125.07 193.637 125.07C194.332 123.896 195.536 121.44 195.536 121.44C197.681 122.626 212.857 123.483 214.558 121.952C218.729 118.193 221.781 100.467 227.833 104.554Z" fill="white"/>
<path d="M225.83 99.879C226.655 100.562 222.049 102.269 220.253 102.872C218.829 103.35 218.457 102.596 218.881 101.858C219.869 100.141 219.201 99.3605 218.953 98.6097C217.197 99.4883 216.222 98.7297 215.486 96.0732C215.186 96.1817 214.86 96.1898 214.555 96.0964C214.437 95.7372 214.858 94.6886 214.587 93.8681C214.223 92.9123 213.971 91.9176 213.836 90.9038C213.652 89.4863 214.532 86.8085 217.746 86.0449C221.509 85.1503 223.235 87.4244 224.167 90.6205C225.201 94.169 220.601 95.5514 225.83 99.879Z" fill="#F7E2C9"/>
<path d="M213.23 89.7954C213.283 91.4273 214.91 93.3037 217.958 93.138C221.617 92.9394 221.585 95.1526 221.209 96.6559C220.566 99.2275 222.35 103.149 225.2 104.118C229.023 105.419 233.542 103.662 235.417 100.759C238.096 96.6106 233.566 96.7659 229.943 97.6086C228.304 97.9898 226.75 95.0313 226.517 92.7989C226.317 90.8797 225.803 88.7421 224.927 87.297C223.101 84.2817 220.227 83.0924 217.266 84.0703C214.306 85.048 213.135 86.9269 213.23 89.7954Z" fill="#6F4719"/>
<path d="M221.334 130.718C222.162 137.477 208.319 161.58 208.681 166.936C209.042 172.291 209.042 174.702 209.042 174.702C219.406 176.75 230.974 178.678 239.65 176.148C239.168 173.858 237.571 172.9 237.842 170.065C238.114 167.23 244.57 141.322 236.758 128.79C231.994 129.366 221.334 130.718 221.334 130.718Z" fill="#682600"/>
<path d="M234.749 161.085C229.166 171.206 227.716 174.216 229.645 177.351C233.217 177.372 236.611 177.034 239.65 176.148C239.168 173.858 237.571 172.9 237.842 170.065C238.113 167.23 244.57 141.322 236.757 128.79C239.047 134.936 240.331 150.963 234.749 161.085Z" fill="white"/>
<path d="M49.7206 39.453L45.6249 37.8258C45.5152 37.7823 45.396 37.7683 45.2792 37.7854C45.1624 37.8025 45.0522 37.8501 44.9596 37.9232L41.5032 40.6557C41.4107 40.7289 41.339 40.825 41.2955 40.9346C41.252 41.0442 41.238 41.1633 41.2551 41.2799L41.8939 45.6406C41.911 45.7571 41.9584 45.8671 42.0315 45.9595C42.1045 46.0519 42.2006 46.1235 42.3101 46.167L46.4055 47.7949C46.515 47.8384 46.634 47.8523 46.7506 47.8353C46.8672 47.8182 46.9773 47.7708 47.0697 47.6977L50.5273 44.9642C50.6197 44.8912 50.6913 44.7951 50.7348 44.6855C50.7783 44.576 50.7922 44.457 50.7752 44.3404L50.137 39.9796C50.1199 39.863 50.0724 39.753 49.9994 39.6605C49.9263 39.5681 49.8301 39.4965 49.7206 39.453Z" fill="#F7F0E9"/>
<path d="M210.336 226.941L210.052 233.371C210.045 233.529 210.08 233.687 210.153 233.828C210.226 233.969 210.335 234.088 210.469 234.174C210.603 234.259 210.757 234.308 210.916 234.315C211.075 234.322 211.233 234.287 211.374 234.214L217.084 231.246C217.226 231.173 217.345 231.064 217.43 230.93C217.516 230.796 217.565 230.642 217.572 230.483C217.579 230.324 217.544 230.166 217.47 230.025C217.397 229.884 217.288 229.765 217.154 229.68L211.728 226.217C211.594 226.132 211.44 226.083 211.281 226.076C211.122 226.069 210.964 226.104 210.823 226.177C210.682 226.251 210.563 226.36 210.477 226.494C210.392 226.628 210.343 226.782 210.336 226.941Z" fill="#FC8906"/>
<path d="M162.286 22.8184C162.286 22.8184 162.281 22.8215 162.271 22.8256C162.263 22.809 162.258 22.8018 162.258 22.8018L162.286 22.8184Z" fill="url(#paint3_linear_756_5658)"/>
<path d="M170.318 18.1703C170.31 18.1547 170.305 18.1475 170.305 18.1475L170.333 18.1641L170.32 18.1703C170.319 18.1703 170.319 18.1713 170.318 18.1703Z" fill="url(#paint4_linear_756_5658)"/>
<path d="M182.685 66.4617C180.466 69.1828 177.661 70.8349 173.916 72.1092C172.58 72.5636 171.124 72.971 169.533 73.359C167.685 73.8124 170.243 70.9861 167.797 70.3101H167.796C167.606 70.258 167.414 70.2019 167.221 70.1406C154.044 59.021 149.848 40.3179 148.534 28.2763C148.516 28.1079 148.497 27.9414 148.481 27.775C148.38 26.7988 148.298 25.8697 148.231 24.9946C148.148 23.9276 148.089 22.9402 148.047 22.0498C156.95 25.4888 161.974 22.978 162.271 22.8238C162.62 23.4068 169.496 34.7806 181.521 41.8802C181.522 41.8812 181.523 41.8812 181.523 41.8812L181.902 41.6617L189.572 37.2281C189.571 37.2292 191.646 55.4687 182.685 66.4617Z" fill="url(#paint5_linear_756_5658)"/>
<g opacity="0.45">
<path d="M162.805 73.3176C162.81 73.3196 162.815 73.3206 162.82 73.3227C162.825 73.3268 162.828 73.3298 162.833 73.3339L162.805 73.3176ZM162.832 23.155C162.832 23.155 162.827 23.1581 162.818 23.1622C162.81 23.1458 162.805 23.1387 162.805 23.1387L162.832 23.155Z" fill="white"/>
<path d="M174.597 70.369C171.806 73.1525 167.955 74.4156 162.65 72.7675C142.041 55.3745 143.397 19.4355 143.397 19.4355C145.189 20.4474 146.866 21.2316 148.425 21.8341C157.327 25.2731 162.352 22.7632 162.649 22.608C162.997 23.1911 169.874 34.5649 181.899 41.6655C181.9 41.6665 181.901 41.6665 181.901 41.6665C181.901 41.6665 182.649 62.3413 174.597 70.369Z" fill="white"/>
<path opacity="0.45" d="M179.617 43.5149C179.551 46.8027 179.214 52.7107 177.769 58.1878C176.671 62.3558 175.134 65.5416 173.195 67.6767C172.979 67.9156 172.757 68.1402 172.531 68.3526C172.328 68.5433 172.117 68.7255 171.899 68.8989C170.765 69.8036 169.507 70.405 168.152 70.6909C166.545 71.0299 164.753 70.9329 162.816 70.405C160.869 68.6896 159.069 66.7056 157.458 64.4991C155.841 62.2874 154.363 59.7868 153.067 57.0666C150.812 52.3329 149.05 46.8558 147.834 40.7855C146.408 33.6717 146.075 27.4482 146.012 24.1123C146.116 24.1634 146.22 24.2134 146.323 24.2624C146.858 24.5197 147.39 24.7586 147.919 24.9833C151.714 26.5935 155.32 27.39 158.683 27.3563C160.456 27.3379 161.838 27.0857 162.816 26.8171C163.793 28.215 165.175 30.0632 166.948 32.1278C170.871 36.6971 175.123 40.517 179.617 43.5149Z" fill="white"/>
<path d="M179.619 43.5151C179.552 46.803 179.215 52.711 177.77 58.1881C176.672 62.3561 175.135 65.5419 173.196 67.6769C173.077 67.7995 172.955 67.9189 172.832 68.0343C172.629 68.225 172.419 68.4073 172.2 68.5806C171.066 69.4853 169.808 70.0867 168.453 70.3726C166.846 70.7116 165.054 70.6146 163.117 70.0867C161.171 68.3713 159.371 66.3873 157.759 64.1808C156.142 61.9691 154.664 59.4685 153.369 56.7473C151.113 52.0136 149.352 46.5365 148.136 40.4662C146.775 33.674 146.408 27.6925 146.324 24.2627C146.859 24.52 147.391 24.7589 147.92 24.9836C151.716 26.5938 155.321 27.3903 158.684 27.3566C160.457 27.3382 161.84 27.086 162.817 26.8174C163.794 28.2153 165.176 30.0635 166.949 32.1281C170.872 36.6974 175.124 40.5173 179.619 43.5151Z" fill="white"/>
<path d="M179.622 43.514C179.556 46.8019 179.219 52.7099 177.774 58.1869C176.552 62.8206 174.789 66.2402 172.536 68.3518C172.333 68.5425 172.122 68.7247 171.904 68.8981C171.294 69.184 170.659 69.3984 170.001 69.5373C168.393 69.8763 166.601 69.7803 164.664 69.2524C162.72 67.537 160.919 65.553 159.307 63.3465C157.689 61.1348 156.213 58.6342 154.917 55.913C152.662 51.1793 150.9 45.7022 149.683 39.6319C148.509 33.7729 148.076 28.5174 147.924 24.9814C151.719 26.5917 155.325 27.3881 158.688 27.3544C160.461 27.3361 161.843 27.0838 162.82 26.8153C163.798 28.2132 165.18 30.0613 166.953 32.1259C170.876 36.6963 175.127 40.5161 179.622 43.514Z" fill="white"/>
<path d="M153.383 44.5068L158.588 55.5294L176.708 44.6355" fill="white"/>
</g>
<path d="M154.61 27.251C154.61 27.251 154.605 27.2541 154.596 27.2582C154.587 27.2416 154.582 27.2344 154.582 27.2344L154.61 27.251Z" fill="url(#paint6_linear_756_5658)"/>
<path d="M162.646 22.6039C162.638 22.5883 162.633 22.5811 162.633 22.5811L162.661 22.5977L162.648 22.6039C162.647 22.6039 162.647 22.6049 162.646 22.6039Z" fill="url(#paint7_linear_756_5658)"/>
<path d="M162.286 22.8184C162.286 22.8184 162.281 22.8215 162.271 22.8256C162.263 22.809 162.258 22.8018 162.258 22.8018L162.286 22.8184Z" fill="url(#paint8_linear_756_5658)"/>
<path d="M174.218 70.5878C171.427 73.3712 167.576 74.6343 162.271 72.9863C141.662 55.5932 143.018 19.6543 143.018 19.6543C144.81 20.6662 146.487 21.4504 148.046 22.0528C156.948 25.4918 161.973 22.982 162.27 22.8268C162.618 23.4098 169.495 34.7836 181.52 41.8842C181.521 41.8852 181.522 41.8852 181.522 41.8852C181.522 41.8852 182.27 62.5601 174.218 70.5878Z" fill="url(#paint9_linear_756_5658)"/>
<path opacity="0.45" d="M179.071 43.177C179.004 46.4649 178.667 52.3729 177.222 57.8499C176.124 62.018 174.587 65.2037 172.648 67.3388C172.433 67.5777 172.21 67.8024 171.984 68.0148C171.781 68.2054 171.57 68.3877 171.352 68.561C170.218 69.4657 168.96 70.0671 167.605 70.353C165.998 70.692 164.206 70.595 162.269 70.0671C160.323 68.3517 158.522 66.3678 156.911 64.1612C155.294 61.9496 153.816 59.4489 152.521 56.7278C150.265 51.994 148.504 46.517 147.287 40.4466C145.861 33.3328 145.528 27.1093 145.465 23.7734C145.569 23.8245 145.673 23.8745 145.776 23.9235C146.311 24.1808 146.843 24.4198 147.372 24.6444C151.168 26.2547 154.773 27.0511 158.136 27.0174C159.909 26.999 161.292 26.7468 162.269 26.4783C163.246 27.8761 164.628 29.7243 166.401 31.7889C170.324 36.3593 174.576 40.1791 179.071 43.177Z" fill="white"/>
<path d="M179.072 43.1763C179.005 46.4642 178.668 52.3721 177.224 57.8492C176.125 62.0172 174.588 65.203 172.649 67.3381C172.53 67.4606 172.408 67.5801 172.286 67.6955C172.082 67.8861 171.872 68.0684 171.654 68.2417C170.519 69.1464 169.261 69.7478 167.906 70.0337C166.299 70.3727 164.507 70.2757 162.57 69.7478C160.624 68.0324 158.824 66.0485 157.212 63.8419C155.595 61.6302 154.118 59.1296 152.822 56.4084C150.566 51.6747 148.805 46.1977 147.589 40.1273C146.228 33.3351 145.861 27.3536 145.777 23.9238C146.312 24.1811 146.844 24.4201 147.373 24.6447C151.169 26.255 154.774 27.0514 158.138 27.0177C159.91 26.9993 161.293 26.7471 162.27 26.4786C163.247 27.8764 164.63 29.7246 166.402 31.7892C170.325 36.3585 174.577 40.1784 179.072 43.1763Z" fill="url(#paint10_linear_756_5658)"/>
<path d="M179.073 43.1761C179.007 46.464 178.67 52.3719 177.225 57.849C176.003 62.4827 174.241 65.9023 171.987 68.0139C171.784 68.2045 171.573 68.3868 171.355 68.5601C170.745 68.846 170.11 69.0605 169.452 69.1993C167.845 69.5383 166.053 69.4423 164.116 68.9144C162.171 67.199 160.37 65.2151 158.758 63.0085C157.141 60.7969 155.664 58.2962 154.368 55.5761C152.113 50.8424 150.351 45.3653 149.134 39.295C147.96 33.436 147.527 28.1805 147.375 24.6445C151.17 26.2548 154.776 27.0512 158.139 27.0175C159.912 26.9991 161.294 26.7469 162.272 26.4784C163.249 27.8762 164.631 29.7244 166.404 31.789C170.327 36.3584 174.579 40.1782 179.073 43.1761Z" fill="url(#paint11_linear_756_5658)"/>
<path d="M152.836 44.1699L158.04 55.1925L176.161 44.2986" stroke="white" stroke-width="2.37585" stroke-miterlimit="10" stroke-linejoin="round"/>
<path d="M189.573 37.2299L181.902 41.6634L181.523 41.883C181.523 41.883 181.522 41.883 181.521 41.882C169.496 34.7824 162.619 23.4086 162.271 22.8256C162.281 22.8215 162.285 22.8174 162.285 22.8174L162.259 22.8031C162.26 22.8062 162.265 22.8133 162.27 22.8256C161.973 22.9797 156.949 25.4906 148.046 22.0516C146.488 21.4491 144.812 20.6649 143.02 19.6531L143.406 19.4305L151.068 15C151.068 15 151.069 15.001 151.072 15.002C161.602 20.9447 168.183 19.0486 169.889 18.3624C169.922 18.3491 169.954 18.3359 169.982 18.3236C170.002 18.3144 170.022 18.3073 170.039 18.2991C170.152 18.2521 170.231 18.2154 170.279 18.1899C170.286 18.1868 170.292 18.1837 170.298 18.1807C170.307 18.1766 170.312 18.1725 170.318 18.1705C170.329 18.1888 170.348 18.2174 170.37 18.2552C171.1 19.455 177.917 30.3499 189.573 37.2299Z" fill="url(#paint12_linear_756_5658)"/>
<path opacity="0.45" d="M189.573 37.2299L181.902 41.6634L181.523 41.883C181.523 41.883 181.522 41.883 181.521 41.882C169.496 34.7824 162.619 23.4086 162.271 22.8256C162.281 22.8215 162.285 22.8174 162.285 22.8174L162.259 22.8031C162.26 22.8062 162.265 22.8133 162.27 22.8256C161.973 22.9797 156.949 25.4906 148.046 22.0516C146.488 21.4491 144.812 20.6649 143.02 19.6531L143.406 19.4305L151.068 15C151.068 15 151.069 15.001 151.072 15.002C161.602 20.9447 168.183 19.0486 169.889 18.3624C169.922 18.3491 169.954 18.3359 169.982 18.3236C170.002 18.3144 170.022 18.3073 170.039 18.2991C170.152 18.2521 170.231 18.2154 170.279 18.1899C170.286 18.1868 170.292 18.1837 170.298 18.1807C170.307 18.1766 170.312 18.1725 170.318 18.1705C170.329 18.1888 170.348 18.2174 170.37 18.2552C171.1 19.455 177.917 30.3499 189.573 37.2299Z" fill="white"/>
<path d="M189.572 37.2309L181.902 41.6644C169.801 34.3381 162.889 22.9051 162.534 22.3119C162.544 22.3078 162.549 22.3037 162.549 22.3037L162.521 22.2894C162.523 22.2925 162.528 22.3006 162.533 22.3119C162.228 22.4722 157.052 25.0575 147.883 21.5154C146.482 20.9742 144.989 20.2901 143.404 19.4324L151.066 15.002C151.066 15.002 151.068 15.003 151.071 15.004C161.601 20.9467 168.182 19.0505 169.888 18.3644C169.921 18.3511 169.952 18.3378 169.981 18.3256C170 18.3164 170.021 18.3092 170.038 18.3011C170.15 18.2541 170.23 18.2173 170.278 18.1918C170.285 18.1887 170.29 18.1857 170.296 18.1826C170.306 18.1785 170.311 18.1744 170.317 18.1724C170.328 18.1908 170.347 18.2194 170.369 18.2572C171.1 19.4559 177.917 30.3508 189.572 37.2309Z" fill="url(#paint13_linear_756_5658)"/>
<path d="M162.286 22.8184C162.286 22.8184 162.281 22.8215 162.271 22.8256C162.263 22.809 162.258 22.8018 162.258 22.8018L162.286 22.8184Z" fill="url(#paint14_linear_756_5658)"/>
<path d="M170.278 18.1914C170.23 18.2159 170.151 18.2537 170.039 18.3007C170.149 18.2506 170.23 18.2139 170.278 18.1914Z" fill="url(#paint15_linear_756_5658)"/>
<path d="M170.367 18.2569C170.345 18.2181 170.328 18.1895 170.316 18.1722V18.1712H170.318C170.327 18.1661 170.331 18.165 170.331 18.165L170.367 18.2569Z" fill="url(#paint16_linear_756_5658)"/>
</g>
<defs>
<linearGradient id="paint0_linear_756_5658" x1="255.003" y1="209.733" x2="195.725" y2="209.733" gradientUnits="userSpaceOnUse">
<stop stop-color="#FF9966"/>
<stop offset="1" stop-color="white"/>
</linearGradient>
<linearGradient id="paint1_linear_756_5658" x1="230.141" y1="166.371" x2="32.4863" y2="166.371" gradientUnits="userSpaceOnUse">
<stop stop-color="#541C00"/>
<stop offset="1" stop-color="#641A15"/>
</linearGradient>
<linearGradient id="paint2_linear_756_5658" x1="230.295" y1="203.532" x2="32.3086" y2="203.532" gradientUnits="userSpaceOnUse">
<stop stop-color="white"/>
<stop offset="1" stop-color="#FF9966"/>
</linearGradient>
<linearGradient id="paint3_linear_756_5658" x1="139.649" y1="63.6517" x2="153.998" y2="37.7462" gradientUnits="userSpaceOnUse">
<stop stop-color="#FF8800"/>
<stop offset="1" stop-color="#FF8800"/>
</linearGradient>
<linearGradient id="paint4_linear_756_5658" x1="145.292" y1="63.3359" x2="159.638" y2="37.4335" gradientUnits="userSpaceOnUse">
<stop stop-color="#FF8800"/>
<stop offset="1" stop-color="#FF8800"/>
</linearGradient>
<linearGradient id="paint5_linear_756_5658" x1="165.829" y1="34.7649" x2="180.889" y2="51.7331" gradientUnits="userSpaceOnUse">
<stop stop-color="#FFB374"/>
<stop offset="0.365" stop-color="#FF8E31"/>
<stop offset="1" stop-color="#C05600"/>
</linearGradient>
<linearGradient id="paint6_linear_756_5658" x1="131.973" y1="68.0841" x2="146.322" y2="42.1786" gradientUnits="userSpaceOnUse">
<stop stop-color="#FF8800"/>
<stop offset="1" stop-color="#FF8800"/>
</linearGradient>
<linearGradient id="paint7_linear_756_5658" x1="137.642" y1="67.7693" x2="151.996" y2="41.8779" gradientUnits="userSpaceOnUse">
<stop stop-color="#FF8800"/>
<stop offset="1" stop-color="#FF8800"/>
</linearGradient>
<linearGradient id="paint8_linear_756_5658" x1="162.272" y1="22.8218" x2="162.272" y2="22.8035" gradientUnits="userSpaceOnUse">
<stop stop-color="#FFC98C"/>
<stop offset="1" stop-color="#FFBA6C"/>
</linearGradient>
<linearGradient id="paint9_linear_756_5658" x1="160.342" y1="10.175" x2="165.874" y2="76.5615" gradientUnits="userSpaceOnUse">
<stop stop-color="#FF8800"/>
<stop offset="1" stop-color="#FF8800"/>
</linearGradient>
<linearGradient id="paint10_linear_756_5658" x1="178.965" y1="71.0475" x2="138.484" y2="5.86603" gradientUnits="userSpaceOnUse">
<stop stop-color="#FF8800"/>
<stop offset="1" stop-color="#FF8800"/>
</linearGradient>
<linearGradient id="paint11_linear_756_5658" x1="147.375" y1="47.0209" x2="179.073" y2="47.0209" gradientUnits="userSpaceOnUse">
<stop stop-color="#A54A00"/>
<stop offset="1" stop-color="#562700"/>
</linearGradient>
<linearGradient id="paint12_linear_756_5658" x1="184.742" y1="34.2848" x2="133.202" y2="9.40348" gradientUnits="userSpaceOnUse">
<stop stop-color="#FF8800"/>
<stop offset="1" stop-color="#FF8800"/>
</linearGradient>
<linearGradient id="paint13_linear_756_5658" x1="197.104" y1="41.1961" x2="195.207" y2="13.8294" gradientUnits="userSpaceOnUse">
<stop stop-color="#FFDEC3"/>
<stop offset="0.741" stop-color="#FFF7F1"/>
</linearGradient>
<linearGradient id="paint14_linear_756_5658" x1="162.269" y1="22.7922" x2="162.272" y2="22.8105" gradientUnits="userSpaceOnUse">
<stop stop-color="#FFC98C"/>
<stop offset="1" stop-color="#FFBA6C"/>
</linearGradient>
<linearGradient id="paint15_linear_756_5658" x1="170.15" y1="18.1948" x2="170.158" y2="18.2407" gradientUnits="userSpaceOnUse">
<stop stop-color="#FFC98C"/>
<stop offset="1" stop-color="#FFBA6C"/>
</linearGradient>
<linearGradient id="paint16_linear_756_5658" x1="170.327" y1="18.1347" x2="170.34" y2="18.2042" gradientUnits="userSpaceOnUse">
<stop stop-color="#FFC98C"/>
<stop offset="1" stop-color="#FFBA6C"/>
</linearGradient>
<clipPath id="clip0_756_5658">
<rect width="294.881" height="240" fill="white" transform="translate(0.560547)"/>
</clipPath>
</defs>
</svg>
