<svg width="290" height="240" viewBox="0 0 290 240" fill="none" xmlns="http://www.w3.org/2000/svg">
<path d="M262.079 173.891L169.766 227.535C164.156 230.799 157.224 230.809 151.604 227.564L27.5451 155.942C22.3602 152.949 22.3506 141.122 27.5257 138.119L121.789 87.6899C126.926 84.7065 133.269 84.6968 138.415 87.6706L262.06 154.706C267.766 157.999 267.775 170.58 262.079 173.891Z" fill="url(#paint0_linear_739_1840)"/>
<path d="M262.079 173.484L169.766 227.128C164.156 230.392 157.224 230.401 151.604 227.157L27.5451 155.535C22.3602 152.542 22.3506 140.714 27.5257 137.712L121.789 87.2827C126.926 84.2992 133.269 84.2896 138.415 87.2634L262.06 154.29C267.766 157.592 267.775 170.172 262.079 173.484Z" fill="url(#paint1_linear_739_1840)"/>
<path d="M262.079 169.139L169.766 222.783C164.156 226.047 157.224 226.056 151.604 222.812L27.5451 151.181C22.3602 148.188 22.3506 140.714 27.5257 137.702L121.789 82.9282C126.926 79.9448 133.269 79.9351 138.415 82.9089L262.06 154.29C267.766 157.592 267.775 165.828 262.079 169.139Z" fill="url(#paint2_linear_739_1840)" fill-opacity="0.48"/>
<path d="M149.141 111.247C149.141 118.479 146.273 125.044 141.619 129.862C136.743 134.912 129.908 138.05 122.338 138.05C112.094 138.05 103.182 132.295 98.6731 123.847C96.6648 120.091 95.5352 115.804 95.5352 111.247C95.5352 100.472 101.888 91.1836 111.051 86.9257C114.479 85.3326 118.302 84.4443 122.338 84.4443C125.051 84.4443 127.677 84.8499 130.149 85.603C141.146 88.9436 149.141 99.1588 149.141 111.247Z" fill="url(#paint3_linear_739_1840)" stroke="#682600" stroke-width="0.482759" stroke-miterlimit="10"/>
<path d="M122.328 94.8634C127.314 94.8634 131.356 92.5334 131.356 89.6592C131.356 86.785 127.314 84.4551 122.328 84.4551C117.343 84.4551 113.301 86.785 113.301 89.6592C113.301 92.5334 117.343 94.8634 122.328 94.8634Z" stroke="#682600" stroke-width="0.482759" stroke-miterlimit="10"/>
<path d="M122.33 94.8633V138.051" stroke="#682600" stroke-width="0.482759" stroke-miterlimit="10"/>
<path d="M113.301 90.0059C113.301 90.0059 104.312 98.2031 104.312 113.69C104.312 129.177 117.627 137.635 117.627 137.635M131.337 90.0059C131.337 90.0059 140.413 98.2031 140.413 113.69C140.413 129.177 127.099 137.635 127.099 137.635" stroke="#682600" stroke-width="0.482759" stroke-miterlimit="10"/>
<path d="M96.6465 103.602C96.6465 103.602 99.4755 119.156 122.445 119.204C145.463 119.253 148.398 104.963 148.398 104.963" stroke="#682600" stroke-width="0.482759" stroke-miterlimit="10"/>
<path d="M103.368 92.3232C103.368 92.3232 102.615 107.269 122.446 107.318C143.601 107.376 143.553 94.8626 143.553 94.8626M96.4258 118.112C96.4258 118.112 106.689 131.842 122.331 131.726C137.972 131.61 147.608 120.207 147.608 120.207" stroke="#682600" stroke-width="0.482759" stroke-miterlimit="10"/>
<path opacity="0.38" d="M149.142 111.248C149.142 118.479 146.274 125.045 141.62 129.863C141.35 129.834 141.166 129.805 141.099 129.776C140.693 129.573 135.084 130.819 134.079 130.828C133.075 130.838 128.953 130.732 128.045 130.886C127.137 131.041 124.106 130.152 123.468 129.872C122.831 129.592 117.424 130.056 115.86 130.075C114.286 130.095 115.657 130.075 115.657 129.699C115.657 129.332 113.63 125.248 113.63 125.064C113.63 124.881 110.125 122.979 110.125 122.979L114.769 122.747C114.769 122.747 114.653 123.655 114.595 124.157C114.537 124.659 119.693 124.524 119.693 124.524C119.693 124.524 122.039 126.088 122.783 124.91C123.526 123.732 124.193 123.751 124.791 122.988C125.38 122.226 126.684 120.893 127.079 120.246C127.485 119.599 129.097 118.759 130.063 117.552C131.028 116.346 130.98 114.415 130.98 114.415L132.071 112.59C132.071 112.59 132.786 110.108 132.525 109.819C132.264 109.529 130.594 107.627 130.517 107.318C130.439 107.009 130.063 104.866 130.063 104.866L130.98 104.383L132.525 102.954L133.742 100.946C133.742 100.946 132.506 99.3235 132.071 99.3235C131.637 99.3235 132.216 96.9387 132.525 96.7456C132.834 96.5525 134.504 96.4559 133.742 95.5097C132.979 94.5539 134.128 94.3608 132.525 91.0201C130.922 87.6697 132.216 89.118 130.063 88.4035C127.91 87.689 129.435 85.8739 129.435 85.8739C129.435 85.8739 129.696 85.7773 130.14 85.6035C141.147 88.9442 149.142 99.1594 149.142 111.248Z" fill="#682600"/>
<path opacity="0.38" d="M123.257 116.673V119.551L121.432 118.836C121.432 118.836 119.26 118.151 118.797 118.102C118.333 118.064 119.212 118.064 118.333 118.064C117.454 118.064 115.707 118.102 115.707 118.102C115.707 118.102 115.128 117.803 115.253 116.673C115.379 115.544 115.533 114.414 115.533 114.414H113.988L111.98 111.402H109.518L108.427 112.686L108.021 113.825C108.021 113.825 107.857 115.843 107.51 115.94C107.162 116.027 106.225 116.76 105.965 117.195C105.704 117.639 104.41 118.827 103.966 118.836C103.512 118.846 101.61 118.836 101.61 118.836C101.61 118.836 99.5248 118.276 99.3221 118.836C99.1193 119.396 98.9648 120.98 99.3221 121.327C99.6793 121.685 100.336 123.007 99.6021 123.596C99.4862 123.683 99.1579 123.77 98.6848 123.857C96.6765 120.101 95.5469 115.814 95.5469 111.257C95.5469 100.482 101.9 91.1935 111.063 86.9355C111.063 86.9355 109.943 89.4652 109.692 89.6583C109.441 89.8514 108.823 90.4886 109.518 91.4831C110.213 92.4776 110.445 93.4045 110.985 93.8776C111.526 94.3507 112.231 94.3507 112.154 96.0018C112.077 97.6528 112.231 97.5369 112.154 98.5314C112.077 99.5259 112.125 100.173 112.154 100.839C112.183 101.496 113.785 102.548 115.07 103.62C116.363 104.682 117.493 105.348 117.638 105.782C117.783 106.217 116.808 106.256 118.343 108.264C119.878 110.282 120.341 111.257 120.341 111.257L122.021 112.473L122.803 113.825L123.257 116.673ZM128.355 96.8031L125.439 98.3286V101.756L128.355 100.424L128.992 101.38C128.992 101.38 129.668 101.38 129.649 100.81C129.63 100.231 128.355 96.8031 128.355 96.8031Z" fill="#682600"/>
<path d="M156.363 81.3152V127.525C156.363 128.529 156.894 129.466 157.773 129.968L207.98 161.357C209.177 162.052 212.315 159.908 212.315 158.518V113.254C212.315 112.907 212.257 112.559 212.151 112.231C211.909 111.488 211.398 110.85 210.703 110.445L158.458 80.1083C157.522 79.5772 156.363 80.2435 156.363 81.3152Z" fill="#682600"/>
<path d="M154.297 81.646L159.375 94.246L186.951 124.023L212.151 112.243C211.909 111.5 211.398 110.863 210.702 110.457L158.458 80.1205C157.029 79.3577 154.297 80.5743 154.297 81.646Z" fill="#FF7728"/>
<path d="M156.17 81.1714L208.414 111.508C209.418 112.087 210.026 113.159 210.026 114.318V159.571C210.026 160.962 208.52 161.821 207.323 161.126L155.494 131.021C154.625 130.519 154.094 129.582 154.094 128.578V82.3686C154.094 81.2969 155.252 80.6307 156.17 81.1714Z" fill="url(#paint4_linear_739_1840)"/>
<path d="M155.445 128.395L208.674 159.33V114.666L155.445 83.7305V128.395Z" fill="white"/>
<path d="M208.674 114.666L155.445 83.7305V88.3167L208.674 119.252V114.666Z" fill="#973700"/>
<path d="M203.549 122.523L160.516 97.5166V102.103L203.549 127.11V122.523Z" fill="#973700"/>
<path d="M206.455 115.932L191.373 107.214C191.103 107.059 190.871 106.702 190.871 106.432V106.335C190.871 106.065 191.093 105.968 191.373 106.123L206.455 114.841C206.725 114.996 206.957 115.353 206.957 115.623V115.72C206.957 116 206.735 116.087 206.455 115.932Z" fill="white"/>
<path d="M192.233 132.827L203.848 139.624C204.186 139.827 204.466 139.711 204.466 139.363C204.466 139.025 204.186 138.581 203.848 138.378L192.233 131.581C191.895 131.378 191.615 131.494 191.615 131.842C191.615 132.189 191.895 132.634 192.233 132.827Z" fill="#973700"/>
<path d="M161.134 118.219L203.848 143.197C204.186 143.4 204.466 143.284 204.466 142.937C204.466 142.599 204.186 142.154 203.848 141.952L161.134 116.974C160.796 116.771 160.516 116.887 160.516 117.234C160.516 117.582 160.796 118.017 161.134 118.219ZM161.134 121.377L203.848 146.354C204.186 146.557 204.466 146.441 204.466 146.094C204.466 145.756 204.186 145.312 203.848 145.109L161.134 120.131C160.796 119.928 160.516 120.044 160.516 120.392C160.516 120.739 160.796 121.174 161.134 121.377ZM171.117 130.375L203.858 149.521C204.196 149.724 204.476 149.608 204.476 149.261C204.476 148.923 204.196 148.479 203.858 148.276L171.117 129.13C170.779 128.927 170.499 129.043 170.499 129.39C170.489 129.728 170.769 130.172 171.117 130.375Z" fill="#FFCFB3"/>
<path d="M84.8477 142.676L80.3097 135.136L67.3139 144.115C67.1497 144.183 66.9856 144.25 66.8311 144.347C65.1608 145.399 64.8615 147.939 66.1746 150.024C67.3332 151.868 69.3608 152.737 70.9732 152.187L70.9829 152.177C71.1856 152.11 71.3884 152.013 71.5718 151.897C71.8228 151.733 72.0449 151.54 72.238 151.318L84.8477 142.676Z" fill="#C74900"/>
<path d="M85.446 142.388C87.1175 141.34 87.4115 138.798 86.1026 136.711C84.7938 134.624 82.3777 133.781 80.7062 134.83C79.0347 135.878 78.7407 138.419 80.0496 140.507C81.3584 142.594 83.7745 143.436 85.446 142.388Z" fill="#FFB489"/>
<path d="M88.6026 130.916L82.7516 135.048C82.7516 135.048 80.3088 136.333 81.5061 138.882C82.5681 141.16 84.4509 140.658 84.4509 140.658L91.8081 135.657L88.6026 130.916Z" fill="#C74900"/>
<path d="M81.8458 112.446C81.8168 123.839 89.821 137.713 99.7465 143.439C105.578 146.808 110.763 146.596 114.055 143.545C114.374 143.323 114.683 143.072 114.982 142.801C115.301 142.579 115.61 142.328 115.909 142.058C118.767 140.05 120.515 136.226 120.534 130.935C120.563 119.542 112.559 105.668 102.643 99.9422C96.8113 96.5725 91.6168 96.7753 88.3244 99.836C88.0058 100.058 87.6968 100.309 87.3975 100.579C87.0789 100.801 86.7699 101.053 86.4706 101.323C83.6127 103.331 81.8651 107.155 81.8458 112.446ZM113.235 140.127C110.415 141.479 106.65 141.121 102.527 138.746C93.7892 133.706 86.7313 121.473 86.7603 111.441C86.7699 107.937 87.6389 105.166 89.1451 103.254C91.9741 101.902 95.7299 102.259 99.8623 104.644C108.6 109.684 115.658 121.908 115.629 131.949C115.61 135.444 114.731 138.215 113.235 140.127Z" fill="#C74900"/>
<path d="M81.8458 112.447C81.8168 123.84 89.8209 137.715 99.7368 143.44C109.653 149.166 117.715 144.56 117.744 133.177C117.753 128.011 116.122 122.334 113.399 117.14C113.38 117.091 113.351 117.053 113.331 117.005C112.076 114.629 110.599 112.351 108.938 110.275C106.273 106.925 103.174 104.096 99.8527 102.184C89.9465 96.4584 81.8844 101.054 81.8458 112.447ZM83.9892 113.683C83.9989 108.836 85.6596 105.389 88.363 103.68C91.2499 101.856 95.3341 102.029 99.8527 104.636C108.591 109.676 115.649 121.909 115.62 131.941C115.61 135.89 114.5 138.912 112.626 140.824C109.74 143.759 105.047 144.049 99.7465 140.988C91.0182 135.948 83.9603 123.715 83.9892 113.683Z" fill="#FFB489"/>
<path opacity="0.3" d="M85.3692 112.563C85.3403 122.594 92.3982 134.828 101.136 139.868C105.655 142.474 109.729 142.648 112.626 140.823C114.499 138.921 115.609 135.89 115.619 131.941C115.648 121.899 108.59 109.676 99.852 104.636C95.3334 102.029 91.2492 101.845 88.3623 103.68C86.4892 105.582 85.3789 108.614 85.3692 112.563Z" fill="white"/>
<path d="M112.414 159.697L165.005 190.275C166.27 191.008 167.834 190.999 169.09 190.246L207.865 167.006C208.965 166.349 209.216 162.333 208.106 161.695L154.79 133.261C153.69 132.624 152.338 132.633 151.256 133.29L111.796 154.56C110.608 155.265 111.226 159.002 112.414 159.697Z" fill="url(#paint5_linear_739_1840)"/>
<path d="M112.414 157.079L165.006 187.657C166.271 188.391 167.835 188.381 169.09 187.628L207.865 164.388C208.966 163.732 208.946 162.129 207.846 161.492L154.791 130.634C153.69 129.997 152.338 130.006 151.257 130.663L112.395 153.951C111.207 154.675 111.226 156.394 112.414 157.079Z" fill="url(#paint6_linear_739_1840)"/>
<path d="M183.466 176.834C183.07 176.834 182.684 176.728 182.346 176.535L129.754 145.957C129.735 145.938 129.735 145.918 129.745 145.909L152.164 132.198C152.425 132.044 152.734 131.957 153.033 131.957C153.332 131.957 153.622 132.034 153.883 132.189L206.793 162.96L184.605 176.535C184.267 176.728 183.872 176.834 183.466 176.834Z" fill="url(#paint7_linear_739_1840)"/>
<path d="M155.349 137.7C155.33 137.7 155.301 137.691 155.282 137.681L152.269 135.914L154.625 134.562C154.644 134.553 154.664 134.553 154.673 134.553C154.693 134.553 154.712 134.553 154.722 134.562L157.753 136.339L155.417 137.681C155.398 137.691 155.378 137.7 155.349 137.7ZM159.491 140.172C159.472 140.172 159.443 140.162 159.424 140.153L156.411 138.386L158.767 137.034C158.787 137.024 158.806 137.024 158.815 137.024C158.835 137.024 158.854 137.024 158.864 137.034L161.895 138.811L159.559 140.153C159.54 140.162 159.511 140.172 159.491 140.172ZM163.633 142.634C163.614 142.634 163.585 142.624 163.566 142.615L160.553 140.848L162.909 139.496C162.929 139.487 162.948 139.487 162.958 139.487C162.977 139.487 162.996 139.487 163.006 139.496L166.038 141.273L163.701 142.615C163.672 142.634 163.653 142.634 163.633 142.634ZM167.766 145.106C167.747 145.106 167.718 145.096 167.698 145.087L164.686 143.32L167.042 141.968C167.061 141.958 167.08 141.958 167.09 141.958C167.109 141.958 167.129 141.958 167.138 141.968L170.17 143.744L167.833 145.087C167.814 145.096 167.795 145.106 167.766 145.106ZM171.908 147.578C171.889 147.578 171.86 147.568 171.84 147.558L168.828 145.791L171.184 144.44C171.203 144.43 171.222 144.43 171.232 144.43C171.251 144.43 171.271 144.43 171.28 144.44L174.312 146.216L171.975 147.558C171.956 147.568 171.927 147.578 171.908 147.578ZM176.05 150.04C176.031 150.04 176.002 150.03 175.982 150.02L172.97 148.253L175.326 146.902C175.345 146.892 175.364 146.892 175.374 146.892C175.393 146.892 175.413 146.892 175.422 146.902L178.454 148.678L176.118 150.02C176.089 150.04 176.069 150.04 176.05 150.04ZM180.182 152.511C180.163 152.511 180.134 152.502 180.115 152.492L177.102 150.725L179.458 149.373C179.478 149.364 179.497 149.364 179.507 149.364C179.526 149.364 179.545 149.364 179.555 149.373L182.587 151.15L180.25 152.492C180.231 152.502 180.211 152.511 180.182 152.511ZM184.324 154.983C184.305 154.983 184.276 154.973 184.257 154.964L181.244 153.197L183.6 151.845C183.62 151.835 183.639 151.835 183.649 151.835C183.668 151.835 183.687 151.835 183.697 151.845L186.729 153.622L184.392 154.964C184.373 154.973 184.344 154.983 184.324 154.983ZM188.457 157.445C188.438 157.445 188.409 157.435 188.389 157.426L185.377 155.659L187.733 154.307C187.752 154.298 187.771 154.298 187.781 154.298C187.8 154.298 187.82 154.298 187.829 154.307L190.861 156.084L188.524 157.426C188.505 157.445 188.486 157.445 188.457 157.445ZM192.599 159.917C192.58 159.917 192.551 159.907 192.531 159.898L189.519 158.131L191.875 156.779C191.894 156.769 191.913 156.769 191.923 156.769C191.942 156.769 191.962 156.769 191.971 156.779L195.003 158.555L192.667 159.898C192.647 159.907 192.628 159.917 192.599 159.917ZM196.741 162.379C196.722 162.379 196.693 162.369 196.673 162.36L193.661 160.593L196.017 159.241C196.036 159.231 196.055 159.231 196.065 159.231C196.084 159.231 196.104 159.231 196.113 159.241L199.145 161.018L196.809 162.36C196.789 162.379 196.76 162.379 196.741 162.379ZM151.4 140.278C151.381 140.278 151.352 140.269 151.333 140.259L148.32 138.492L150.676 137.14C150.695 137.131 150.715 137.131 150.724 137.131C150.744 137.131 150.763 137.131 150.773 137.14L153.804 138.917L151.468 140.259C151.449 140.269 151.42 140.278 151.4 140.278ZM155.542 142.75C155.523 142.75 155.494 142.74 155.475 142.731L152.462 140.964L154.818 139.612C154.838 139.602 154.857 139.602 154.867 139.602C154.886 139.602 154.905 139.602 154.915 139.612L157.947 141.389L155.61 142.731C155.581 142.74 155.562 142.75 155.542 142.75ZM159.675 145.212C159.655 145.212 159.627 145.202 159.607 145.193L156.595 143.426L158.951 142.074C158.97 142.064 158.989 142.064 158.999 142.064C159.018 142.064 159.038 142.064 159.047 142.074L162.079 143.851L159.742 145.193C159.723 145.212 159.704 145.212 159.675 145.212ZM163.817 147.684C163.798 147.684 163.769 147.674 163.749 147.664L160.737 145.898L163.093 144.546C163.112 144.536 163.131 144.536 163.141 144.536C163.16 144.536 163.18 144.536 163.189 144.546L166.221 146.322L163.884 147.664C163.865 147.674 163.836 147.684 163.817 147.684ZM167.949 150.155C167.93 150.155 167.901 150.146 167.882 150.136L164.869 148.369L167.225 147.018C167.244 147.008 167.264 147.008 167.273 147.008C167.293 147.008 167.312 147.008 167.322 147.018L170.353 148.794L168.017 150.136C167.998 150.146 167.978 150.155 167.949 150.155ZM172.091 152.618C172.072 152.618 172.043 152.608 172.024 152.598L169.011 150.831L171.367 149.48C171.387 149.47 171.406 149.47 171.415 149.47C171.435 149.47 171.454 149.47 171.464 149.48L174.495 151.256L172.159 152.598C172.14 152.618 172.12 152.618 172.091 152.618ZM176.233 155.089C176.214 155.089 176.185 155.08 176.166 155.07L173.153 153.303L175.509 151.951C175.529 151.942 175.548 151.942 175.558 151.942C175.577 151.942 175.596 151.942 175.606 151.951L178.638 153.728L176.301 155.07C176.282 155.08 176.253 155.089 176.233 155.089ZM180.366 157.551C180.347 157.551 180.318 157.542 180.298 157.532L177.286 155.765L179.642 154.413C179.661 154.404 179.68 154.404 179.69 154.404C179.709 154.404 179.729 154.404 179.738 154.413L182.77 156.19L180.433 157.532C180.414 157.551 180.395 157.551 180.366 157.551ZM184.508 160.023C184.489 160.023 184.46 160.013 184.44 160.004L181.428 158.237L183.784 156.885C183.803 156.875 183.822 156.875 183.832 156.875C183.851 156.875 183.871 156.875 183.88 156.885L186.912 158.662L184.575 160.004C184.556 160.013 184.537 160.023 184.508 160.023ZM188.65 162.495C188.631 162.495 188.602 162.485 188.582 162.475L185.57 160.709L187.926 159.357C187.945 159.347 187.964 159.347 187.974 159.347C187.993 159.347 188.013 159.347 188.022 159.357L191.054 161.133L188.718 162.475C188.698 162.485 188.669 162.495 188.65 162.495ZM192.782 164.957C192.763 164.957 192.734 164.947 192.715 164.938L189.702 163.171L192.058 161.819C192.078 161.809 192.097 161.809 192.107 161.809C192.126 161.809 192.145 161.809 192.155 161.819L195.187 163.595L192.85 164.938C192.831 164.957 192.811 164.957 192.782 164.957Z" fill="#FFCFB3"/>
<path d="M147.451 142.857C147.432 142.857 147.403 142.847 147.384 142.837L144.371 141.07L146.727 139.719C146.746 139.709 146.766 139.709 146.775 139.709C146.795 139.709 146.814 139.709 146.824 139.719L149.855 141.495L147.519 142.837C147.49 142.847 147.47 142.857 147.451 142.857ZM151.584 145.328C151.564 145.328 151.535 145.319 151.516 145.309L148.504 143.542L150.859 142.19C150.879 142.181 150.898 142.181 150.908 142.181C150.927 142.181 150.946 142.181 150.956 142.19L153.988 143.967L151.651 145.309C151.632 145.319 151.612 145.328 151.584 145.328ZM155.726 147.79C155.706 147.79 155.677 147.781 155.658 147.771L152.646 146.004L155.001 144.652C155.021 144.643 155.04 144.643 155.05 144.643C155.069 144.643 155.088 144.643 155.098 144.652L158.13 146.429L155.793 147.771C155.774 147.79 155.745 147.79 155.726 147.79ZM159.858 150.262C159.839 150.262 159.81 150.252 159.79 150.243L156.778 148.476L159.134 147.124C159.153 147.115 159.172 147.114 159.182 147.114C159.201 147.114 159.221 147.115 159.23 147.124L162.262 148.901L159.926 150.243C159.906 150.252 159.887 150.262 159.858 150.262ZM164 152.724C163.981 152.724 163.952 152.714 163.932 152.705L160.92 150.938L163.276 149.586C163.295 149.577 163.315 149.577 163.324 149.577C163.344 149.577 163.363 149.577 163.372 149.586L166.404 151.363L164.068 152.705C164.048 152.724 164.029 152.724 164 152.724ZM168.142 155.196C168.123 155.196 168.094 155.186 168.075 155.177L165.062 153.41L167.418 152.058C167.437 152.048 167.457 152.048 167.466 152.048C167.486 152.048 167.505 152.048 167.515 152.058L170.546 153.835L168.21 155.177C168.19 155.186 168.161 155.196 168.142 155.196ZM172.275 157.668C172.255 157.668 172.226 157.658 172.207 157.648L169.195 155.881L171.55 154.53C171.57 154.52 171.589 154.52 171.599 154.52C171.618 154.52 171.637 154.52 171.647 154.53L174.679 156.306L172.342 157.648C172.323 157.658 172.304 157.668 172.275 157.668ZM176.417 160.13C176.397 160.13 176.368 160.12 176.349 160.11L173.337 158.343L175.692 156.992C175.712 156.982 175.731 156.982 175.741 156.982C175.76 156.982 175.779 156.982 175.789 156.992L178.821 158.768L176.484 160.11C176.465 160.13 176.446 160.13 176.417 160.13ZM180.559 162.601C180.539 162.601 180.51 162.592 180.491 162.582L177.479 160.815L179.835 159.463C179.854 159.454 179.873 159.454 179.883 159.454C179.902 159.454 179.921 159.454 179.931 159.463L182.963 161.24L180.626 162.582C180.607 162.592 180.578 162.601 180.559 162.601ZM184.691 165.073C184.672 165.073 184.643 165.063 184.624 165.054L181.611 163.287L183.967 161.935C183.986 161.926 184.006 161.926 184.015 161.926C184.035 161.926 184.054 161.926 184.064 161.935L187.095 163.712L184.759 165.054C184.739 165.063 184.72 165.073 184.691 165.073ZM188.833 167.535C188.814 167.535 188.785 167.526 188.766 167.516L185.753 165.749L188.109 164.397C188.128 164.388 188.148 164.388 188.157 164.388C188.177 164.388 188.196 164.388 188.206 164.397L191.237 166.174L188.901 167.516C188.881 167.535 188.852 167.535 188.833 167.535Z" fill="#FFCFB3"/>
<path d="M143.494 145.435C143.475 145.435 143.446 145.425 143.426 145.415L140.414 143.648L142.77 142.297C142.789 142.287 142.809 142.287 142.818 142.287C142.838 142.287 142.857 142.287 142.866 142.297L145.898 144.073L143.562 145.415C143.542 145.425 143.523 145.435 143.494 145.435ZM147.636 147.897C147.617 147.897 147.588 147.887 147.569 147.877L144.556 146.111L146.912 144.759C146.931 144.749 146.951 144.749 146.96 144.749C146.98 144.749 146.999 144.749 147.009 144.759L150.04 146.535L147.704 147.877C147.684 147.897 147.655 147.897 147.636 147.897ZM151.769 150.368C151.749 150.368 151.72 150.359 151.701 150.349L148.689 148.582L151.044 147.231C151.064 147.221 151.083 147.221 151.093 147.221C151.112 147.221 151.131 147.221 151.141 147.231L154.173 149.007L151.836 150.349C151.817 150.359 151.798 150.368 151.769 150.368ZM155.911 152.84C155.891 152.84 155.862 152.831 155.843 152.821L152.831 151.054L155.186 149.702C155.206 149.693 155.225 149.693 155.235 149.693C155.254 149.693 155.273 149.693 155.283 149.702L158.315 151.479L155.978 152.821C155.959 152.831 155.94 152.84 155.911 152.84ZM160.053 155.302C160.033 155.302 160.004 155.293 159.985 155.283L156.973 153.516L159.329 152.164C159.348 152.155 159.367 152.155 159.377 152.155C159.396 152.155 159.415 152.155 159.425 152.164L162.457 153.941L160.12 155.283C160.101 155.302 160.072 155.302 160.053 155.302ZM164.185 157.774C164.166 157.774 164.137 157.764 164.118 157.755L161.105 155.988L163.461 154.636C163.48 154.626 163.5 154.626 163.509 154.626C163.529 154.626 163.548 154.626 163.558 154.636L166.589 156.413L164.253 157.755C164.233 157.764 164.214 157.774 164.185 157.774ZM168.327 160.246C168.308 160.246 168.279 160.236 168.26 160.226L165.247 158.46L167.603 157.108C167.622 157.098 167.642 157.098 167.651 157.098C167.671 157.098 167.69 157.098 167.7 157.108L170.731 158.884L168.395 160.226C168.375 160.236 168.356 160.246 168.327 160.246ZM172.469 162.708C172.45 162.708 172.421 162.698 172.402 162.688L169.389 160.922L171.745 159.57C171.764 159.56 171.784 159.56 171.793 159.56C171.813 159.56 171.832 159.56 171.842 159.57L174.873 161.346L172.537 162.688C172.518 162.708 172.489 162.708 172.469 162.708ZM176.602 165.18C176.582 165.18 176.553 165.17 176.534 165.16L173.522 163.393L175.878 162.042C175.897 162.032 175.916 162.032 175.926 162.032C175.945 162.032 175.964 162.032 175.974 162.042L179.006 163.818L176.669 165.16C176.65 165.17 176.631 165.18 176.602 165.18ZM180.744 167.651C180.724 167.651 180.695 167.642 180.676 167.632L177.664 165.865L180.02 164.513C180.039 164.504 180.058 164.504 180.068 164.504C180.087 164.504 180.106 164.504 180.116 164.513L183.148 166.29L180.811 167.632C180.792 167.642 180.763 167.651 180.744 167.651ZM184.886 170.113C184.866 170.113 184.838 170.104 184.818 170.094L181.806 168.327L184.162 166.975C184.181 166.966 184.2 166.966 184.21 166.966C184.229 166.966 184.249 166.966 184.258 166.975L187.29 168.752L184.953 170.094C184.934 170.113 184.905 170.113 184.886 170.113Z" fill="#FFCFB3"/>
<path d="M139.545 148.013C139.526 148.013 139.497 148.003 139.477 147.994L136.465 146.227L138.821 144.875C138.84 144.865 138.859 144.865 138.869 144.865C138.888 144.865 138.908 144.865 138.917 144.875L141.949 146.651L139.612 147.994C139.593 148.003 139.564 148.013 139.545 148.013ZM143.677 150.475C143.658 150.475 143.629 150.465 143.61 150.456L140.597 148.689L142.953 147.337C142.972 147.327 142.992 147.327 143.001 147.327C143.021 147.327 143.04 147.327 143.05 147.337L146.081 149.114L143.745 150.456C143.726 150.475 143.706 150.475 143.677 150.475ZM147.819 152.947C147.8 152.947 147.771 152.937 147.752 152.927L144.739 151.16L147.095 149.809C147.114 149.799 147.134 149.799 147.143 149.799C147.163 149.799 147.182 149.799 147.192 149.809L150.223 151.585L147.887 152.927C147.868 152.937 147.848 152.947 147.819 152.947ZM151.961 155.418C151.942 155.418 151.913 155.409 151.894 155.399L148.881 153.632L151.237 152.28C151.257 152.271 151.276 152.271 151.286 152.271C151.305 152.271 151.324 152.271 151.334 152.28L154.366 154.057L152.029 155.399C152.01 155.409 151.981 155.418 151.961 155.418ZM156.094 157.88C156.075 157.88 156.046 157.871 156.026 157.861L153.014 156.094L155.37 154.742C155.389 154.733 155.408 154.733 155.418 154.733C155.437 154.733 155.457 154.733 155.466 154.742L158.498 156.519L156.161 157.861C156.142 157.88 156.123 157.88 156.094 157.88ZM160.236 160.352C160.217 160.352 160.188 160.342 160.168 160.333L157.156 158.566L159.512 157.214C159.531 157.205 159.55 157.205 159.56 157.205C159.579 157.205 159.599 157.205 159.608 157.214L162.64 158.991L160.303 160.333C160.284 160.342 160.255 160.352 160.236 160.352ZM164.378 162.824C164.359 162.824 164.33 162.814 164.31 162.805L161.298 161.038L163.654 159.686C163.673 159.676 163.692 159.676 163.702 159.676C163.721 159.676 163.741 159.676 163.75 159.686L166.782 161.462L164.446 162.805C164.426 162.814 164.397 162.824 164.378 162.824ZM168.51 165.286C168.491 165.286 168.462 165.276 168.443 165.267L165.43 163.5L167.786 162.148C167.806 162.138 167.825 162.138 167.834 162.138C167.854 162.138 167.873 162.138 167.883 162.148L170.915 163.925L168.578 165.267C168.559 165.286 168.539 165.286 168.51 165.286ZM172.652 167.758C172.633 167.758 172.604 167.748 172.585 167.738L169.572 165.971L171.928 164.62C171.948 164.61 171.967 164.61 171.977 164.61C171.996 164.61 172.015 164.61 172.025 164.62L175.057 166.396L172.72 167.738C172.701 167.748 172.672 167.758 172.652 167.758ZM176.795 170.22C176.775 170.22 176.746 170.21 176.727 170.2L173.715 168.434L176.07 167.082C176.09 167.072 176.109 167.072 176.119 167.072C176.138 167.072 176.157 167.072 176.167 167.082L179.199 168.858L176.862 170.2C176.843 170.22 176.814 170.22 176.795 170.22ZM180.927 172.691C180.908 172.691 180.879 172.682 180.859 172.672L177.847 170.905L180.203 169.554C180.222 169.544 180.241 169.544 180.251 169.544C180.27 169.544 180.29 169.544 180.299 169.554L183.331 171.33L180.995 172.672C180.975 172.682 180.956 172.691 180.927 172.691Z" fill="#FFCFB3"/>
<path d="M200.033 121.821L184.179 130.259C181.119 132.026 178.483 134.343 176.388 137.047C172.767 141.701 170.711 147.494 170.711 153.586V165.105C170.711 171.844 167.119 178.062 161.287 181.441L145.337 191.28L140.499 194.263C136.831 196.387 134.562 200.317 134.562 204.556V213.815L98.625 192.67V183.411C98.625 179.172 100.884 175.243 104.553 173.119L111.157 169.054L125.351 160.296C131.173 156.917 134.764 150.69 134.764 143.96V132.441C134.764 126.445 136.763 120.72 140.277 116.105C142.402 113.314 145.095 110.93 148.224 109.114L164.077 100.676L200.033 121.821Z" fill="url(#paint8_linear_739_1840)"/>
<path d="M176.398 137.055C172.778 141.709 170.721 147.502 170.721 153.595V165.113C170.721 171.853 167.129 178.071 161.298 181.45L145.347 191.288L111.168 169.062L125.361 160.305C131.183 156.926 134.775 150.698 134.775 143.968V132.45C134.775 126.454 136.773 120.728 140.288 116.113L176.398 137.055Z" fill="white"/>
<g opacity="0.42">
<path d="M163.895 151.653L140.819 138.329C140.771 138.3 140.761 138.252 140.79 138.204L141.543 136.91C141.572 136.862 141.621 136.852 141.669 136.881L164.745 150.205C164.793 150.234 164.803 150.282 164.774 150.331L164.021 151.624C164.001 151.663 163.943 151.682 163.895 151.653ZM185.696 121.211L162.621 107.886C162.572 107.857 162.563 107.809 162.592 107.761L163.345 106.467C163.374 106.419 163.422 106.409 163.47 106.438L186.546 119.762C186.594 119.791 186.604 119.84 186.575 119.888L185.822 121.182C185.793 121.22 185.735 121.24 185.696 121.211ZM178.996 125.497L155.92 112.173C155.872 112.144 155.862 112.096 155.891 112.048L156.644 110.754C156.673 110.706 156.721 110.696 156.769 110.725L179.845 124.049C179.894 124.078 179.903 124.126 179.874 124.175L179.121 125.469C179.102 125.507 179.044 125.526 178.996 125.497ZM163.258 158.257L140.182 144.933C140.134 144.904 140.124 144.856 140.153 144.808L140.906 143.514C140.935 143.466 140.983 143.456 141.032 143.485L164.107 156.809C164.156 156.838 164.165 156.886 164.136 156.935L163.383 158.229C163.354 158.267 163.296 158.277 163.258 158.257ZM163.258 165.846L140.182 152.522C140.134 152.493 140.124 152.445 140.153 152.397L140.906 151.103C140.935 151.055 140.983 151.045 141.032 151.074L164.107 164.398C164.156 164.427 164.165 164.475 164.136 164.524L163.383 165.817C163.354 165.856 163.296 165.875 163.258 165.846ZM159.376 171.263L136.301 157.939C136.252 157.91 136.243 157.862 136.272 157.813L137.025 156.52C137.054 156.471 137.102 156.462 137.15 156.491L160.226 169.815C160.274 169.844 160.284 169.892 160.255 169.94L159.502 171.234C159.473 171.273 159.425 171.282 159.376 171.263ZM155.234 176.274L132.158 162.95C132.11 162.921 132.101 162.873 132.129 162.824L132.883 161.531C132.912 161.482 132.96 161.473 133.008 161.502L156.084 174.826C156.132 174.855 156.142 174.903 156.113 174.951L155.36 176.245C155.341 176.284 155.283 176.303 155.234 176.274ZM149.596 179.692L126.52 166.368C126.472 166.339 126.462 166.291 126.491 166.242L127.244 164.949C127.273 164.9 127.321 164.891 127.369 164.92L150.445 178.244C150.494 178.273 150.503 178.321 150.474 178.369L149.721 179.663C149.692 179.702 149.644 179.721 149.596 179.692ZM143.957 183.11L120.881 169.786C120.833 169.757 120.823 169.709 120.852 169.66L121.605 168.366C121.634 168.318 121.683 168.309 121.731 168.337L144.807 181.662C144.855 181.691 144.865 181.739 144.836 181.787L144.083 183.081C144.054 183.12 143.996 183.129 143.957 183.11Z" fill="#FF7B2F"/>
<path d="M132.525 191.625L110.144 177.152C110.106 177.123 110.087 177.065 110.116 177.027L110.927 175.771C110.956 175.733 111.013 175.713 111.052 175.742L133.433 190.216C133.471 190.245 133.491 190.302 133.462 190.341L132.651 191.596C132.631 191.645 132.573 191.654 132.525 191.625Z" fill="white"/>
</g>
<path d="M111.965 192.45C112.438 192.203 112.622 191.62 112.375 191.147C112.129 190.675 111.546 190.491 111.073 190.737C110.6 190.984 110.417 191.567 110.663 192.04C110.909 192.513 111.493 192.696 111.965 192.45Z" fill="#FF7B2F"/>
<path d="M115.671 195.038C116.143 194.791 116.327 194.208 116.081 193.735C115.834 193.262 115.251 193.079 114.778 193.325C114.305 193.572 114.122 194.155 114.368 194.628C114.615 195.101 115.198 195.284 115.671 195.038Z" fill="#FF7B2F"/>
<path d="M119.378 197.625C119.85 197.378 120.034 196.795 119.788 196.322C119.541 195.849 118.958 195.666 118.485 195.912C118.012 196.159 117.829 196.742 118.075 197.215C118.322 197.687 118.905 197.871 119.378 197.625Z" fill="#FF7B2F"/>
<path d="M225.668 141.759L230.409 139.007L231.297 136.274L226.556 139.026L225.668 141.759Z" fill="#D95000"/>
<path d="M216.118 120.951L220.859 118.199L218.04 117.581L213.299 120.333L216.118 120.951Z" fill="#FFD8C1"/>
<path d="M220.212 127.063C220.202 127.006 220.193 126.957 220.183 126.899C220.183 126.87 220.173 126.851 220.173 126.822C220.173 126.812 220.173 126.812 220.173 126.803C220.154 126.687 220.144 126.571 220.135 126.455C220.135 126.426 220.135 126.407 220.135 126.378C220.125 126.262 220.125 126.146 220.125 126.021C220.125 124.737 220.579 123.839 221.313 123.414L226.053 120.662C225.329 121.087 224.875 121.985 224.866 123.269C224.866 123.385 224.866 123.501 224.875 123.626C224.875 123.655 224.875 123.675 224.875 123.703C224.885 123.819 224.895 123.935 224.914 124.051C224.914 124.08 224.924 124.119 224.924 124.148C224.933 124.206 224.943 124.254 224.953 124.312C224.962 124.35 224.962 124.389 224.972 124.418C224.982 124.466 224.991 124.524 225.001 124.572C225.011 124.611 225.02 124.659 225.03 124.698C225.039 124.737 225.049 124.766 225.059 124.804C225.068 124.852 225.078 124.901 225.097 124.939C225.107 124.978 225.117 125.007 225.126 125.046C225.136 125.075 225.146 125.103 225.146 125.132C225.175 125.248 225.213 125.364 225.252 125.48C225.252 125.49 225.262 125.499 225.262 125.509C225.3 125.625 225.339 125.731 225.387 125.847C225.397 125.876 225.406 125.905 225.416 125.934C225.455 126.03 225.493 126.127 225.532 126.223C225.542 126.233 225.542 126.252 225.551 126.262C225.599 126.368 225.648 126.475 225.696 126.571C225.706 126.6 225.725 126.629 225.735 126.648C225.773 126.726 225.812 126.812 225.86 126.89C225.87 126.919 225.889 126.938 225.899 126.967C225.957 127.073 226.005 127.17 226.063 127.266C226.073 127.286 226.082 127.305 226.092 127.324C226.14 127.411 226.198 127.498 226.246 127.585C226.266 127.614 226.275 127.633 226.295 127.662C226.362 127.768 226.43 127.865 226.497 127.971C226.507 127.99 226.517 128 226.526 128.019C226.604 128.126 226.671 128.222 226.748 128.328C226.758 128.338 226.768 128.357 226.777 128.367C226.874 128.492 226.971 128.608 227.077 128.734C227.086 128.753 227.106 128.763 227.115 128.782C227.183 128.85 227.241 128.927 227.308 128.995L227.318 129.004C227.386 129.081 227.453 129.149 227.521 129.217C227.569 129.265 227.608 129.303 227.656 129.342C227.666 129.352 227.685 129.361 227.695 129.381C227.753 129.439 227.81 129.487 227.878 129.545C227.897 129.555 227.907 129.574 227.926 129.583C227.975 129.622 228.013 129.661 228.062 129.699C228.081 129.719 228.11 129.738 228.129 129.757C228.168 129.786 228.206 129.825 228.245 129.854C228.274 129.873 228.293 129.892 228.322 129.912C228.361 129.941 228.399 129.97 228.438 129.999C228.457 130.018 228.486 130.037 228.506 130.047C228.544 130.076 228.593 130.105 228.641 130.134C228.66 130.143 228.679 130.163 228.699 130.172C228.766 130.211 228.824 130.25 228.892 130.288C228.979 130.337 229.066 130.385 229.153 130.423C229.182 130.433 229.201 130.443 229.23 130.462C229.297 130.491 229.355 130.52 229.423 130.549C229.442 130.559 229.471 130.568 229.491 130.578C229.548 130.607 229.606 130.626 229.674 130.646C229.693 130.655 229.703 130.655 229.722 130.665C229.799 130.694 229.867 130.713 229.944 130.732C229.983 130.742 230.031 130.752 230.07 130.761C230.089 130.761 230.108 130.771 230.128 130.771C230.186 130.781 230.253 130.8 230.311 130.81H230.321C230.379 130.819 230.427 130.829 230.485 130.829C230.504 130.829 230.524 130.829 230.543 130.829C230.572 130.829 230.611 130.829 230.639 130.839C230.717 130.839 230.794 130.839 230.871 130.839C230.881 130.839 230.9 130.839 230.91 130.839C230.968 130.839 231.035 130.829 231.093 130.819C231.113 130.819 231.132 130.81 231.151 130.81C231.219 130.8 231.286 130.781 231.354 130.761H231.364C231.422 130.742 231.489 130.723 231.547 130.694C231.566 130.684 231.586 130.675 231.595 130.675C231.644 130.655 231.692 130.626 231.75 130.597C231.769 130.588 231.779 130.578 231.798 130.568L227.057 133.32C227.048 133.32 227.038 133.33 227.038 133.33C227.028 133.33 227.019 133.339 227.009 133.339C226.961 133.368 226.913 133.388 226.864 133.417C226.855 133.417 226.845 133.426 226.835 133.426C226.826 133.426 226.816 133.436 226.816 133.436C226.758 133.455 226.7 133.484 226.633 133.503C226.633 133.503 226.633 133.503 226.623 133.503C226.555 133.523 226.488 133.542 226.42 133.552C226.411 133.552 226.401 133.552 226.401 133.561C226.391 133.561 226.382 133.561 226.372 133.561C226.314 133.571 226.246 133.581 226.188 133.581C226.179 133.581 226.169 133.581 226.159 133.581H226.15C226.073 133.581 225.995 133.581 225.918 133.581C225.908 133.581 225.899 133.581 225.899 133.581C225.87 133.581 225.851 133.581 225.822 133.571C225.802 133.571 225.783 133.571 225.764 133.571C225.706 133.561 225.657 133.561 225.599 133.552H225.59C225.532 133.542 225.464 133.532 225.406 133.513C225.387 133.513 225.368 133.503 225.348 133.494C225.31 133.484 225.271 133.475 225.233 133.465H225.223C225.155 133.446 225.078 133.426 225.001 133.397C224.982 133.388 224.972 133.388 224.953 133.378C224.895 133.359 224.837 133.33 224.769 133.31C224.759 133.31 224.75 133.301 224.75 133.301C224.731 133.291 224.721 133.291 224.702 133.281C224.634 133.252 224.576 133.223 224.508 133.195C224.479 133.185 224.46 133.175 224.431 133.156C224.344 133.117 224.257 133.069 224.171 133.021C224.103 132.982 224.045 132.943 223.977 132.905C223.958 132.895 223.939 132.876 223.91 132.866C223.862 132.837 223.823 132.808 223.784 132.779C223.755 132.76 223.736 132.75 223.717 132.731C223.678 132.702 223.639 132.673 223.601 132.644C223.572 132.625 223.553 132.606 223.524 132.586C223.485 132.557 223.446 132.528 223.408 132.49C223.388 132.47 223.359 132.451 223.34 132.432C223.292 132.393 223.253 132.355 223.205 132.316C223.186 132.306 223.176 132.287 223.157 132.277C223.099 132.229 223.041 132.171 222.973 132.113C222.964 132.103 222.944 132.084 222.935 132.075C222.896 132.036 222.857 131.997 222.819 131.959C222.809 131.949 222.809 131.949 222.799 131.939C222.732 131.872 222.664 131.795 222.597 131.727L222.587 131.717C222.519 131.65 222.462 131.572 222.394 131.505C222.384 131.495 222.384 131.495 222.375 131.486C222.365 131.476 222.355 131.466 222.355 131.457C222.249 131.341 222.153 131.215 222.056 131.09L222.046 131.08C222.037 131.07 222.037 131.061 222.027 131.051C221.95 130.955 221.873 130.848 221.805 130.742C221.795 130.732 221.786 130.723 221.786 130.713C221.786 130.703 221.776 130.703 221.776 130.694C221.708 130.597 221.641 130.491 221.573 130.385C221.564 130.375 221.564 130.366 221.554 130.356C221.544 130.337 221.535 130.327 221.525 130.308C221.467 130.221 221.419 130.134 221.371 130.047C221.361 130.037 221.351 130.018 221.342 130.008C221.342 129.999 221.332 129.999 221.332 129.989C221.274 129.892 221.216 129.786 221.168 129.69C221.168 129.68 221.158 129.67 221.158 129.661C221.148 129.641 221.139 129.622 221.129 129.612C221.091 129.535 221.042 129.448 221.004 129.371C220.994 129.352 220.984 129.342 220.975 129.323C220.965 129.313 220.965 129.303 220.965 129.294C220.917 129.188 220.868 129.091 220.82 128.985V128.975C220.811 128.966 220.811 128.956 220.811 128.937C220.772 128.84 220.733 128.743 220.695 128.657C220.685 128.637 220.685 128.628 220.675 128.608C220.666 128.599 220.666 128.579 220.666 128.57C220.627 128.454 220.579 128.348 220.54 128.232C220.54 128.232 220.54 128.232 220.54 128.222C220.54 128.212 220.54 128.212 220.531 128.203C220.492 128.087 220.453 127.971 220.424 127.855C220.424 127.836 220.415 127.826 220.415 127.807C220.415 127.797 220.405 127.778 220.405 127.768C220.395 127.73 220.386 127.701 220.376 127.662C220.366 127.614 220.357 127.566 220.337 127.527C220.328 127.488 220.318 127.459 220.308 127.421C220.299 127.392 220.299 127.372 220.289 127.343C220.289 127.324 220.279 127.305 220.279 127.295C220.27 127.247 220.26 127.189 220.25 127.141C220.222 127.131 220.212 127.102 220.212 127.063Z" fill="#E25300"/>
<mask id="mask0_739_1840" style="mask-type:luminance" maskUnits="userSpaceOnUse" x="231" y="138" width="7" height="4">
<path d="M231.982 141.845L236.723 139.093C236.878 139.006 237.013 138.9 237.148 138.784L232.407 141.536C232.282 141.652 232.137 141.758 231.982 141.845Z" fill="white"/>
</mask>
<g mask="url(#mask0_739_1840)">
<path d="M231.982 141.845L236.723 139.093C236.878 139.006 237.013 138.9 237.148 138.784L232.407 141.536C232.282 141.652 232.137 141.758 231.982 141.845Z" fill="#E25300"/>
</g>
<mask id="mask1_739_1840" style="mask-type:luminance" maskUnits="userSpaceOnUse" x="216" y="111" width="6" height="4">
<path d="M221.12 112.138L216.379 114.89C216.543 114.793 216.717 114.716 216.9 114.668L221.641 111.916C221.458 111.974 221.284 112.042 221.12 112.138Z" fill="white"/>
</mask>
<g mask="url(#mask1_739_1840)">
<path d="M216.9 114.668L221.64 111.916C221.553 111.945 221.476 111.974 221.399 112.003L216.658 114.755C216.735 114.726 216.813 114.697 216.9 114.668Z" fill="#FF711F"/>
<path d="M216.649 114.754L221.39 112.002C221.303 112.041 221.216 112.079 221.139 112.127L216.398 114.879C216.485 114.831 216.572 114.792 216.649 114.754Z" fill="#FF6C17"/>
<path d="M216.408 114.88L221.149 112.128C221.139 112.138 221.129 112.138 221.12 112.147L216.379 114.899C216.389 114.889 216.398 114.88 216.408 114.88Z" fill="#FF660E"/>
</g>
<path d="M232.406 141.535L237.147 138.774L237.678 138.291L232.937 141.043L232.406 141.535Z" fill="#D95000"/>
<path d="M217.586 114.462L222.327 111.7L221.641 111.913L216.9 114.664L217.586 114.462Z" fill="#FF7729"/>
<path d="M232.937 141.043L237.678 138.292L236.307 134.497L231.566 137.249L232.937 141.043Z" fill="#FFD8C1"/>
<path d="M220.193 117.551L224.934 114.79L222.327 111.7L217.586 114.462L220.193 117.551Z" fill="#FFD8C1"/>
<mask id="mask2_739_1840" style="mask-type:luminance" maskUnits="userSpaceOnUse" x="231" y="133" width="6" height="5">
<path d="M231.566 137.252L236.307 134.5C236.587 134.075 236.809 133.583 236.983 133.032L232.242 135.784C232.068 136.334 231.846 136.827 231.566 137.252Z" fill="white"/>
</mask>
<g mask="url(#mask2_739_1840)">
<path d="M231.566 137.252L236.307 134.5C236.587 134.075 236.809 133.583 236.983 133.032L232.242 135.784C232.068 136.334 231.846 136.827 231.566 137.252Z" fill="#E25300"/>
</g>
<path d="M221.352 117.62C221.236 117.601 221.111 117.582 220.995 117.572C220.985 117.572 220.975 117.572 220.966 117.572C220.84 117.563 220.715 117.553 220.599 117.553C220.579 117.553 220.55 117.553 220.531 117.553C220.415 117.553 220.299 117.553 220.184 117.553L224.924 114.801C225.04 114.792 225.156 114.792 225.272 114.801C225.291 114.801 225.32 114.801 225.339 114.801C225.359 114.801 225.378 114.801 225.397 114.801C225.504 114.801 225.61 114.811 225.706 114.82C225.716 114.82 225.726 114.82 225.735 114.82C225.832 114.83 225.928 114.84 226.025 114.859C226.044 114.859 226.073 114.869 226.093 114.869C226.122 114.869 226.141 114.878 226.17 114.878C226.295 114.898 226.421 114.927 226.546 114.956L221.806 117.707C221.68 117.678 221.555 117.649 221.429 117.63C221.41 117.63 221.381 117.63 221.352 117.62Z" fill="#FF823A"/>
<path d="M232.098 129.623C232.069 129.498 232.03 129.382 231.991 129.256C231.972 129.208 231.962 129.15 231.943 129.102C231.895 128.947 231.847 128.793 231.798 128.638C231.789 128.619 231.789 128.609 231.779 128.59C231.721 128.407 231.654 128.223 231.586 128.04L236.327 125.288C236.394 125.472 236.452 125.645 236.52 125.829V125.838C236.529 125.858 236.529 125.867 236.529 125.887C236.578 126.041 236.626 126.196 236.674 126.35C236.694 126.398 236.703 126.456 236.722 126.505C236.742 126.563 236.761 126.62 236.771 126.688C236.79 126.756 236.8 126.814 236.819 126.881C236.829 126.929 236.848 126.978 236.858 127.036C236.896 127.2 236.945 127.374 236.983 127.538L232.242 130.289C232.204 130.125 232.165 129.952 232.117 129.787C232.127 129.72 232.107 129.672 232.098 129.623Z" fill="#FF6106"/>
<path d="M227.619 121.501C227.571 121.443 227.523 121.395 227.465 121.337C227.349 121.211 227.223 121.086 227.098 120.96C227.069 120.931 227.049 120.912 227.021 120.883C226.876 120.748 226.741 120.612 226.596 120.477L231.336 117.726C231.481 117.861 231.626 117.996 231.761 118.131C231.761 118.131 231.771 118.131 231.771 118.141C231.79 118.16 231.819 118.189 231.838 118.208C231.964 118.334 232.08 118.45 232.205 118.585C232.254 118.643 232.302 118.691 232.35 118.749C232.447 118.846 232.534 118.952 232.63 119.058C232.649 119.077 232.669 119.097 232.688 119.116C232.775 119.222 232.862 119.319 232.949 119.425L228.208 122.177C228.102 122.051 227.996 121.926 227.889 121.8C227.803 121.704 227.716 121.597 227.619 121.501Z" fill="#FF985C"/>
<path d="M235.071 132.904L239.812 130.152L237.002 127.517L232.262 130.268L235.071 132.904Z" fill="#FFD8C1"/>
<path d="M235.178 135.493C235.236 135.02 235.236 134.508 235.178 133.957L235.062 132.905L239.803 130.153L239.919 131.206C239.977 131.746 239.977 132.268 239.919 132.741L239.803 133.658L235.062 136.41L235.178 135.493Z" fill="#F65A00"/>
<path d="M227.436 112.224L228.295 112.591C228.517 112.687 228.739 112.793 228.962 112.928C229.184 113.054 229.406 113.199 229.628 113.363L230.487 113.991L225.746 116.742L224.887 116.115C224.665 115.951 224.443 115.806 224.221 115.68C223.999 115.555 223.777 115.439 223.555 115.342L222.695 114.975L227.436 112.224Z" fill="#FFD8C1"/>
<path d="M226.605 120.477L231.346 117.726L230.477 113.979L225.736 116.731L226.605 120.477Z" fill="#FF640A"/>
<path d="M231.596 128.038L236.336 125.277L237.717 123.075L232.976 125.827L231.596 128.038Z" fill="#D95000"/>
<path d="M230.833 122.111L235.574 119.35L232.957 119.427L228.217 122.179L230.833 122.111Z" fill="#FF8C4A"/>
<path d="M232.137 124.119C232.099 124.042 232.051 123.965 232.002 123.888C231.973 123.83 231.935 123.772 231.896 123.714C231.848 123.637 231.8 123.55 231.751 123.472C231.674 123.347 231.597 123.231 231.52 123.115L230.834 122.111L235.575 119.359L236.26 120.364C236.337 120.47 236.405 120.576 236.473 120.692C236.482 120.701 236.482 120.711 236.492 120.721C236.54 120.798 236.588 120.885 236.637 120.962C236.666 121.01 236.695 121.059 236.724 121.107C236.724 121.117 236.733 121.126 236.733 121.136C236.782 121.213 236.82 121.29 236.868 121.368C236.897 121.426 236.926 121.474 236.955 121.532C236.955 121.541 236.965 121.541 236.965 121.551C237.004 121.628 237.052 121.715 237.091 121.792C237.12 121.85 237.148 121.899 237.177 121.957C237.177 121.966 237.187 121.976 237.187 121.986L237.708 123.077L232.968 125.828L232.446 124.737C232.417 124.67 232.379 124.612 232.35 124.544C232.311 124.457 232.273 124.38 232.224 124.303C232.205 124.235 232.166 124.177 232.137 124.119Z" fill="#FFD8C1"/>
<path d="M213.298 120.332L216.117 120.95C216.291 120.4 216.513 119.907 216.793 119.483L215.422 115.688L215.953 115.205C216.224 114.954 216.542 114.771 216.899 114.665L217.585 114.462L220.192 117.552C220.704 117.532 221.244 117.581 221.804 117.716L222.693 114.983L223.552 115.35C223.774 115.447 223.996 115.553 224.218 115.688C224.44 115.814 224.662 115.958 224.884 116.123L225.744 116.75L226.613 120.496C227.173 121.018 227.713 121.587 228.225 122.196L230.842 122.128L231.527 123.132C231.884 123.644 232.193 124.194 232.464 124.764L232.985 125.855L231.604 128.066C231.875 128.81 232.097 129.563 232.27 130.306L235.09 132.942L235.206 133.994C235.264 134.535 235.264 135.056 235.206 135.529L235.09 136.447L232.27 135.819C232.097 136.369 231.875 136.862 231.595 137.287L232.966 141.081L232.435 141.564C232.164 141.815 231.846 141.998 231.488 142.105L230.803 142.307L228.196 139.218C227.684 139.237 227.144 139.189 226.584 139.054L225.695 141.786L224.836 141.419C224.614 141.323 224.392 141.216 224.17 141.081C223.948 140.956 223.726 140.811 223.504 140.647L222.644 140.019L221.775 136.273C221.215 135.752 220.675 135.182 220.163 134.574L217.546 134.641L216.861 133.647C216.504 133.125 216.195 132.585 215.924 132.015L215.403 130.924L216.784 128.713C216.513 127.969 216.282 127.216 216.117 126.473L213.298 123.837L213.192 122.785C213.134 122.244 213.134 121.723 213.192 121.25L213.298 120.332ZM224.17 133.038C226.41 134.332 228.235 133.29 228.244 130.721C228.254 128.143 226.439 125.005 224.199 123.712C221.959 122.418 220.134 123.461 220.124 126.029C220.115 128.597 221.92 131.735 224.17 133.038Z" fill="#FFB489"/>
<path d="M213.309 109.491L219.565 105.851L220.724 102.25L214.477 105.88L213.309 109.491Z" fill="#D95000"/>
<path d="M200.719 82.0496L206.966 78.4096L203.249 77.5889L196.992 81.2289L200.719 82.0496Z" fill="#FFD8C1"/>
<path d="M206.106 90.1017C206.096 90.0341 206.087 89.9569 206.077 89.8893C206.077 89.8507 206.067 89.8217 206.058 89.7831C206.058 89.7734 206.058 89.7638 206.058 89.7541C206.038 89.5996 206.019 89.4452 206.009 89.2907C206.009 89.2617 206.009 89.2231 206 89.1941C205.99 89.0396 205.98 88.8852 205.98 88.7307C205.98 87.041 206.579 85.8534 207.545 85.2934L213.801 81.6631C212.836 82.2231 212.247 83.4107 212.237 85.1003C212.237 85.2548 212.247 85.4093 212.256 85.5638C212.256 85.5927 212.256 85.6314 212.266 85.6603C212.276 85.8148 212.295 85.9693 212.314 86.1238C212.324 86.1624 212.324 86.2107 212.334 86.2493C212.343 86.3169 212.353 86.3941 212.363 86.4617C212.372 86.51 212.382 86.5583 212.391 86.6065C212.401 86.6741 212.42 86.7417 212.43 86.819C212.44 86.8769 212.449 86.9348 212.469 86.9831C212.478 87.0314 212.488 87.0796 212.498 87.1279C212.517 87.1858 212.527 87.2534 212.546 87.3114C212.556 87.3596 212.565 87.4079 212.585 87.4465C212.594 87.4852 212.604 87.5238 212.614 87.5527C212.662 87.7072 212.7 87.8617 212.758 88.0162C212.758 88.0258 212.768 88.0355 212.768 88.0548C212.816 88.1996 212.874 88.3541 212.932 88.4989C212.942 88.5376 212.961 88.5762 212.971 88.6148C213.019 88.7403 213.067 88.8658 213.125 88.9914C213.135 89.0107 213.145 89.03 213.145 89.0493C213.203 89.1845 213.27 89.3196 213.328 89.4645C213.347 89.5031 213.367 89.5321 213.376 89.5707C213.425 89.6769 213.483 89.7831 213.54 89.8893C213.56 89.9183 213.579 89.9569 213.589 89.9858C213.656 90.121 213.734 90.2562 213.811 90.3817C213.83 90.4107 213.84 90.43 213.859 90.459C213.927 90.5748 213.994 90.6907 214.062 90.7969C214.081 90.8258 214.1 90.8645 214.12 90.8934C214.207 91.0286 214.294 91.1638 214.39 91.2989C214.4 91.3183 214.419 91.3376 214.429 91.3569C214.525 91.492 214.622 91.6272 214.728 91.7624C214.738 91.7817 214.757 91.801 214.767 91.8107C214.892 91.9748 215.027 92.139 215.163 92.2934C215.182 92.3127 215.201 92.3321 215.211 92.3514C215.298 92.4479 215.375 92.5348 215.462 92.6314C215.462 92.6314 215.471 92.641 215.471 92.6507C215.558 92.7472 215.655 92.8438 215.742 92.9307C215.8 92.9886 215.858 93.0465 215.916 93.1045C215.935 93.1238 215.945 93.1334 215.964 93.1527C216.041 93.23 216.118 93.2976 216.196 93.3652C216.215 93.3845 216.244 93.4038 216.263 93.4231C216.321 93.4714 216.379 93.5196 216.437 93.5679C216.466 93.5969 216.495 93.6162 216.524 93.6355C216.572 93.6741 216.63 93.7224 216.678 93.761C216.707 93.79 216.746 93.8093 216.775 93.8286C216.823 93.8672 216.881 93.9058 216.929 93.9445C216.958 93.9638 216.997 93.9927 217.026 94.012C217.084 94.0507 217.142 94.0893 217.2 94.1279C217.229 94.1472 217.258 94.1665 217.277 94.1858C217.364 94.2438 217.451 94.2921 217.538 94.3403C217.654 94.4079 217.76 94.4658 217.876 94.5238C217.905 94.5431 217.943 94.5527 217.972 94.5721C218.059 94.6107 218.146 94.6493 218.223 94.6879C218.252 94.6976 218.281 94.7169 218.31 94.7265C218.387 94.7555 218.465 94.7845 218.551 94.8134C218.571 94.8231 218.59 94.8327 218.609 94.8327C218.706 94.8617 218.803 94.9003 218.899 94.9196C218.957 94.9389 219.015 94.9486 219.063 94.9583C219.092 94.9679 219.111 94.9679 219.14 94.9776C219.218 94.9969 219.305 95.0065 219.382 95.0258H219.391C219.469 95.0355 219.536 95.0452 219.604 95.0548C219.633 95.0548 219.652 95.0548 219.671 95.0645C219.72 95.0645 219.758 95.0741 219.807 95.0741C219.913 95.0741 220.019 95.0741 220.116 95.0741C220.135 95.0741 220.154 95.0741 220.164 95.0741C220.251 95.0645 220.328 95.0548 220.405 95.0452C220.434 95.0452 220.454 95.0355 220.483 95.0355C220.569 95.0162 220.666 94.9969 220.753 94.9776H220.763C220.849 94.9486 220.927 94.9196 221.004 94.8907C221.023 94.881 221.052 94.8714 221.071 94.8617C221.139 94.8327 221.207 94.8038 221.265 94.7652C221.284 94.7555 221.303 94.7458 221.332 94.7362L215.076 98.3665C215.066 98.3762 215.056 98.3762 215.047 98.3858C215.037 98.3955 215.027 98.3955 215.008 98.4052C214.94 98.4438 214.883 98.4727 214.815 98.5017C214.805 98.5114 214.786 98.5114 214.776 98.521C214.767 98.521 214.757 98.5307 214.747 98.5307C214.67 98.5596 214.593 98.5886 214.506 98.6176H214.496C214.409 98.6465 214.323 98.6658 214.226 98.6755C214.216 98.6755 214.207 98.6852 214.197 98.6852C214.187 98.6852 214.168 98.6852 214.158 98.6948C214.081 98.7045 213.994 98.7141 213.917 98.7238C213.907 98.7238 213.888 98.7238 213.878 98.7238H213.869C213.772 98.7334 213.666 98.7334 213.56 98.7238C213.55 98.7238 213.54 98.7238 213.531 98.7238C213.502 98.7238 213.463 98.7141 213.434 98.7141C213.415 98.7141 213.386 98.7141 213.367 98.7045C213.299 98.6948 213.222 98.6852 213.154 98.6755H213.145C213.067 98.6658 212.98 98.6465 212.903 98.6272C212.874 98.6176 212.855 98.6176 212.826 98.6079C212.778 98.5983 212.729 98.5886 212.671 98.5693C212.662 98.5693 212.662 98.5693 212.652 98.5693C212.556 98.5403 212.459 98.5114 212.363 98.4824C212.343 98.4727 212.324 98.4631 212.305 98.4631C212.227 98.4341 212.15 98.4052 212.073 98.3762C212.063 98.3762 212.054 98.3665 212.044 98.3665C212.025 98.3569 212.005 98.3472 211.986 98.3376C211.899 98.2989 211.812 98.2603 211.735 98.2217C211.706 98.2024 211.667 98.1927 211.638 98.1734C211.523 98.1155 211.416 98.0576 211.3 97.99C211.214 97.9417 211.127 97.8838 211.04 97.8355C211.011 97.8162 210.982 97.7969 210.953 97.7776C210.895 97.7389 210.837 97.7003 210.779 97.6617C210.75 97.6424 210.711 97.6134 210.683 97.5941C210.634 97.5555 210.576 97.5169 210.528 97.4783C210.499 97.4589 210.46 97.43 210.431 97.4107C210.383 97.3721 210.325 97.3334 210.277 97.2852C210.248 97.2658 210.219 97.2369 210.19 97.2176C210.132 97.1693 210.074 97.121 210.016 97.0727C209.997 97.0534 209.978 97.0341 209.949 97.0148C209.871 96.9472 209.794 96.87 209.717 96.8024C209.698 96.7831 209.688 96.7734 209.669 96.7541C209.62 96.7058 209.563 96.6576 209.514 96.6093C209.505 96.5996 209.495 96.59 209.495 96.59C209.398 96.5031 209.311 96.4065 209.225 96.31L209.215 96.3003C209.128 96.2038 209.041 96.1169 208.964 96.0203C208.954 96.0107 208.945 96.001 208.945 95.9914C208.935 95.9817 208.925 95.9721 208.916 95.9527C208.78 95.7983 208.645 95.6341 208.52 95.47L208.51 95.4603C208.5 95.4507 208.491 95.4314 208.481 95.4217C208.375 95.2865 208.278 95.1514 208.182 95.0162C208.172 95.0065 208.163 94.9872 208.153 94.9776C208.153 94.9679 208.143 94.9679 208.143 94.9583C208.047 94.8231 207.96 94.6879 207.873 94.5527C207.863 94.5431 207.854 94.5238 207.844 94.5141C207.834 94.4948 207.825 94.4755 207.805 94.4562C207.738 94.3403 207.67 94.2341 207.603 94.1183C207.593 94.099 207.583 94.0796 207.574 94.0603C207.574 94.0507 207.564 94.0507 207.564 94.041C207.487 93.9058 207.409 93.7803 207.342 93.6452C207.332 93.6355 207.332 93.6258 207.323 93.6162C207.313 93.5969 207.303 93.5679 207.294 93.5486C207.236 93.4424 207.187 93.3362 207.129 93.23C207.12 93.2107 207.11 93.1817 207.1 93.1624C207.091 93.1527 207.091 93.1334 207.081 93.1238C207.014 92.9886 206.956 92.8534 206.888 92.7086C206.888 92.7086 206.888 92.6989 206.878 92.6989C206.869 92.6796 206.869 92.67 206.859 92.6507C206.801 92.5252 206.753 92.3996 206.705 92.2741C206.695 92.2548 206.685 92.2355 206.676 92.2162C206.666 92.1969 206.666 92.1776 206.656 92.1679C206.598 92.0231 206.55 91.8686 206.492 91.7238V91.7141C206.492 91.7045 206.483 91.6948 206.483 91.6852C206.434 91.5307 206.386 91.3762 206.338 91.2217C206.328 91.2024 206.328 91.1831 206.318 91.1638C206.309 91.1445 206.309 91.1252 206.309 91.1058C206.299 91.0576 206.28 91.0093 206.27 90.9707C206.251 90.9127 206.241 90.8452 206.222 90.7872C206.212 90.739 206.203 90.6907 206.193 90.6424C206.183 90.6134 206.174 90.5748 206.174 90.5458C206.164 90.5265 206.164 90.4976 206.164 90.4783C206.154 90.4107 206.135 90.3431 206.125 90.2658C206.125 90.1983 206.116 90.15 206.106 90.1017Z" fill="#E25300"/>
<mask id="mask3_739_1840" style="mask-type:luminance" maskUnits="userSpaceOnUse" x="221" y="105" width="8" height="5">
<path d="M221.641 109.597L227.897 105.967C228.1 105.851 228.283 105.716 228.457 105.552L222.201 109.182C222.027 109.346 221.843 109.481 221.641 109.597Z" fill="white"/>
</mask>
<g mask="url(#mask3_739_1840)">
<path d="M221.641 109.597L227.897 105.967C228.1 105.851 228.283 105.716 228.457 105.552L222.201 109.182C222.027 109.346 221.843 109.481 221.641 109.597Z" fill="#E25300"/>
</g>
<mask id="mask4_739_1840" style="mask-type:luminance" maskUnits="userSpaceOnUse" x="201" y="70" width="7" height="5">
<path d="M207.313 70.4155L201.057 74.0459C201.269 73.9204 201.501 73.8238 201.742 73.7466L207.999 70.1162C207.757 70.1935 207.526 70.29 207.313 70.4155Z" fill="white"/>
</mask>
<g mask="url(#mask4_739_1840)">
<path d="M201.742 73.7553L207.999 70.125C207.893 70.154 207.777 70.1926 207.68 70.2409L201.424 73.8712C201.53 73.8229 201.636 73.7843 201.742 73.7553Z" fill="#FF711F"/>
<path d="M201.424 73.8706L207.681 70.2402C207.565 70.2885 207.458 70.3368 207.352 70.4044L201.096 74.0347C201.202 73.9671 201.308 73.9189 201.424 73.8706Z" fill="#FF6C17"/>
<path d="M201.095 74.0249L207.352 70.3945C207.342 70.4042 207.332 70.4042 207.313 70.4138L201.057 74.0442C201.066 74.0442 201.076 74.0345 201.095 74.0249Z" fill="#FF660E"/>
</g>
<path d="M222.201 109.181L228.448 105.55L229.143 104.913L222.896 108.543L222.201 109.181Z" fill="#D95000"/>
<path d="M202.65 73.477L208.906 69.8467L207.999 70.117L201.742 73.757L202.65 73.477Z" fill="#FF7729"/>
<path d="M222.895 108.545L229.142 104.914L227.346 99.9033L221.09 103.543L222.895 108.545Z" fill="#FFD8C1"/>
<path d="M206.086 77.5515L212.342 73.9212L208.905 69.8467L202.648 73.477L206.086 77.5515Z" fill="#FFD8C1"/>
<mask id="mask5_739_1840" style="mask-type:luminance" maskUnits="userSpaceOnUse" x="221" y="97" width="8" height="7">
<path d="M221.092 103.544L227.348 99.9134C227.715 99.3534 228.015 98.7064 228.237 97.9727L221.98 101.603C221.758 102.327 221.459 102.974 221.092 103.544Z" fill="white"/>
</mask>
<g mask="url(#mask5_739_1840)">
<path d="M221.092 103.544L227.348 99.9134C227.715 99.3534 228.015 98.7064 228.237 97.9727L221.98 101.603C221.758 102.327 221.459 102.974 221.092 103.544Z" fill="#E25300"/>
</g>
<path d="M207.623 77.6472C207.469 77.6183 207.314 77.599 207.16 77.5796C207.15 77.5796 207.14 77.5796 207.121 77.5796C206.957 77.5603 206.793 77.5507 206.638 77.5507C206.609 77.5507 206.58 77.5507 206.551 77.5507C206.397 77.5507 206.242 77.5507 206.088 77.5507L212.344 73.9203C212.499 73.9107 212.653 73.9107 212.808 73.9203C212.837 73.9203 212.866 73.9203 212.895 73.9203C212.914 73.9203 212.943 73.9203 212.962 73.9203C213.098 73.93 213.233 73.9396 213.378 73.9493C213.387 73.9493 213.397 73.9493 213.416 73.9493C213.542 73.959 213.667 73.9783 213.793 73.9976C213.822 73.9976 213.851 74.0072 213.88 74.0169C213.918 74.0265 213.947 74.0265 213.986 74.0362C214.15 74.0652 214.314 74.0941 214.478 74.1327L208.222 77.7631C208.058 77.7245 207.893 77.6955 207.729 77.6665C207.691 77.6665 207.662 77.6569 207.623 77.6472Z" fill="#FF823A"/>
<path d="M221.785 93.4738C221.747 93.3096 221.699 93.1455 221.65 92.991C221.631 92.9234 221.612 92.8559 221.592 92.7883C221.534 92.5855 221.467 92.3827 221.399 92.18C221.39 92.1607 221.39 92.1414 221.38 92.1221C221.303 91.8807 221.216 91.6393 221.129 91.3979L227.385 87.7676C227.472 88.009 227.559 88.2407 227.636 88.4821V88.4917C227.646 88.511 227.646 88.5303 227.656 88.5496C227.723 88.7524 227.791 88.9552 227.849 89.1579C227.868 89.2255 227.888 89.2931 227.907 89.3607C227.926 89.4379 227.955 89.5152 227.974 89.6021C227.994 89.689 228.023 89.7662 228.042 89.8531C228.061 89.9207 228.081 89.9883 228.09 90.0559C228.148 90.2779 228.196 90.5 228.254 90.7221L221.998 94.3524C221.95 94.1303 221.892 93.9083 221.834 93.6862C221.824 93.609 221.805 93.5414 221.785 93.4738Z" fill="#FF6106"/>
<path d="M215.887 82.7653C215.819 82.6977 215.752 82.6204 215.684 82.5529C215.53 82.3887 215.366 82.2246 215.201 82.0604C215.173 82.0315 215.134 81.9929 215.105 81.9542C214.921 81.7708 214.728 81.597 214.545 81.4136L220.801 77.7832C220.995 77.957 221.178 78.1404 221.361 78.3239L221.371 78.3335C221.4 78.3625 221.429 78.3915 221.458 78.4301C221.622 78.5942 221.777 78.7584 221.941 78.9225C222.008 78.9901 222.076 79.0673 222.134 79.1349C222.259 79.2701 222.375 79.4053 222.501 79.5404C222.53 79.5694 222.549 79.5984 222.578 79.6177C222.694 79.7529 222.81 79.888 222.926 80.0232L216.669 83.6536C216.534 83.4894 216.389 83.3253 216.244 83.1611C216.128 83.0356 216.003 82.9004 215.887 82.7653Z" fill="#FF985C"/>
<path d="M225.717 97.8074L231.974 94.177L228.257 90.7012L222 94.3315L225.717 97.8074Z" fill="#FFD8C1"/>
<path d="M225.862 101.216C225.939 100.589 225.939 99.913 225.871 99.1985L225.726 97.8178L231.983 94.1875L232.128 95.5682C232.205 96.2827 232.205 96.9682 232.118 97.5861L231.964 98.793L225.707 102.423L225.862 101.216Z" fill="#F65A00"/>
<path d="M215.635 70.5303L216.765 71.013C217.055 71.1385 217.354 71.2834 217.644 71.4572C217.933 71.631 218.233 71.8144 218.522 72.0365L219.652 72.8572L213.395 76.4875L212.266 75.6668C211.976 75.4544 211.677 75.2613 211.387 75.0875C211.098 74.9137 210.798 74.7689 210.509 74.6434L209.379 74.1606L215.635 70.5303Z" fill="#FFD8C1"/>
<path d="M214.546 81.4234L220.802 77.7834L219.653 72.8496L213.406 76.48L214.546 81.4234Z" fill="#FF640A"/>
<path d="M221.131 91.387L227.378 87.747L229.203 84.8408L222.956 88.4712L221.131 91.387Z" fill="#D95000"/>
<path d="M220.117 83.5669L226.373 79.9365L222.926 80.0331L216.67 83.6634L220.117 83.5669Z" fill="#FF8C4A"/>
<path d="M221.836 86.2124C221.778 86.1062 221.72 86.0096 221.662 85.9034C221.614 85.8262 221.575 85.7489 221.527 85.6814C221.459 85.5751 221.401 85.4689 221.334 85.3627C221.237 85.1986 221.131 85.0441 221.025 84.8896L220.117 83.5669L226.374 79.9365L227.281 81.2593C227.378 81.4041 227.474 81.5393 227.561 81.6841C227.571 81.6938 227.581 81.7131 227.59 81.7324C227.658 81.8386 227.716 81.9448 227.783 82.051C227.822 82.1186 227.861 82.1765 227.899 82.2441C227.909 82.2538 227.909 82.2634 227.919 82.2731C227.977 82.3793 228.034 82.4758 228.092 82.582C228.131 82.6496 228.17 82.7269 228.208 82.7945C228.208 82.8041 228.218 82.8138 228.218 82.8234C228.276 82.9296 228.324 83.0358 228.382 83.1517C228.421 83.2289 228.459 83.2965 228.488 83.3641C228.498 83.3738 228.498 83.3931 228.508 83.4027L229.193 84.8413L222.936 88.4717L222.251 87.0331C222.212 86.9462 222.164 86.8593 222.125 86.782C222.068 86.6758 222.019 86.5696 221.961 86.4538C221.932 86.3765 221.884 86.2896 221.836 86.2124Z" fill="#FFD8C1"/>
<path d="M196.992 81.2298L200.719 82.0505C200.941 81.3263 201.241 80.6794 201.607 80.1194L199.802 75.1084L200.497 74.4712C200.854 74.1429 201.279 73.9015 201.743 73.7567L202.65 73.4863L206.087 77.5608C206.754 77.5318 207.468 77.5994 208.221 77.7732L209.39 74.1622L210.519 74.6449C210.809 74.7705 211.108 74.9153 211.398 75.0891C211.687 75.2629 211.987 75.4463 212.276 75.6684L213.406 76.4891L214.545 81.4325C215.289 82.1181 216.003 82.8712 216.67 83.6725L220.116 83.576L221.024 84.8987C221.487 85.5746 221.903 86.2987 222.26 87.0422L222.945 88.4808L221.121 91.3967C221.478 92.3718 221.777 93.3663 221.99 94.3512L225.707 97.827L225.852 99.2077C225.929 99.9222 225.929 100.608 225.842 101.226L225.687 102.433L221.961 101.612C221.739 102.346 221.439 102.983 221.072 103.553L222.878 108.554L222.183 109.191C221.825 109.519 221.401 109.761 220.937 109.906L220.03 110.176L216.592 106.102C215.916 106.13 215.212 106.063 214.458 105.889L213.29 109.5L212.161 109.017C211.871 108.892 211.572 108.747 211.282 108.573C210.992 108.399 210.693 108.216 210.403 107.994L209.274 107.173L208.134 102.23C207.391 101.544 206.676 100.791 206.01 99.9898L202.554 100.086L201.656 98.7732C201.192 98.0877 200.767 97.3732 200.42 96.6298L199.734 95.1912L201.559 92.2753C201.192 91.2905 200.903 90.3056 200.681 89.3208L196.963 85.8449L196.818 84.4643C196.741 83.7498 196.741 83.0739 196.828 82.4463L196.992 81.2298ZM211.33 97.9815C214.285 99.6905 216.689 98.3194 216.699 94.9208C216.708 91.5222 214.323 87.3801 211.359 85.6808C208.405 83.9719 206.001 85.3429 205.991 88.7415C205.981 92.1305 208.376 96.2725 211.33 97.9815Z" fill="#FFB489"/>
<path d="M165.662 25.3832C165.662 25.3542 165.662 25.3156 165.662 25.2866C165.662 25.2577 165.662 25.219 165.652 25.1901C165.652 25.1611 165.643 25.1225 165.643 25.0839C165.643 25.0453 165.633 25.0163 165.623 24.9777C165.623 24.9777 165.623 24.9777 165.623 24.968C165.614 24.939 165.614 24.9004 165.604 24.8715C165.594 24.8328 165.594 24.8039 165.585 24.7653C165.575 24.7266 165.566 24.688 165.556 24.659C165.546 24.6204 165.537 24.5818 165.527 24.5528C165.517 24.5239 165.508 24.4949 165.498 24.4659C165.498 24.4659 165.498 24.4659 165.498 24.4563V24.4466C165.488 24.408 165.479 24.379 165.459 24.3404C165.45 24.3018 165.43 24.2728 165.421 24.2342C165.411 24.1956 165.392 24.1666 165.382 24.128C165.372 24.0894 165.353 24.0604 165.343 24.0218C165.334 23.9928 165.324 23.9639 165.305 23.9446C165.305 23.9446 165.305 23.9446 165.305 23.9349C165.305 23.9253 165.305 23.9253 165.295 23.9156C165.276 23.8866 165.266 23.848 165.247 23.819C165.228 23.7804 165.208 23.7418 165.189 23.7032C165.17 23.6646 165.15 23.6163 165.121 23.5777C165.102 23.5294 165.073 23.4908 165.044 23.4425C165.044 23.4328 165.034 23.4232 165.034 23.4135C165.025 23.4039 165.025 23.3942 165.015 23.3846C164.967 23.2977 164.909 23.2204 164.861 23.1335C164.822 23.0756 164.774 23.008 164.735 22.9501C164.706 22.9115 164.677 22.8728 164.639 22.8246C164.61 22.7956 164.581 22.757 164.561 22.728C164.532 22.699 164.503 22.6604 164.484 22.6315C164.455 22.6025 164.426 22.5735 164.407 22.5446C164.407 22.5349 164.397 22.5349 164.397 22.5253C164.397 22.5253 164.397 22.5253 164.388 22.5156C164.368 22.4963 164.349 22.4673 164.32 22.448C164.291 22.419 164.262 22.3901 164.233 22.3611C164.204 22.3322 164.175 22.3032 164.146 22.2742C164.117 22.2453 164.088 22.2163 164.05 22.197C164.03 22.1873 164.021 22.168 164.001 22.1584L163.992 22.1487C163.982 22.139 163.963 22.1294 163.953 22.1197C163.924 22.1004 163.895 22.0715 163.866 22.0521C163.837 22.0328 163.808 22.0135 163.779 21.9846C163.75 21.9653 163.721 21.9459 163.692 21.9266C163.663 21.9073 163.634 21.888 163.606 21.8687C163.596 21.8687 163.596 21.859 163.586 21.859L148.225 12.9859C148.206 12.9763 148.177 12.957 148.157 12.9473C148.128 12.928 148.099 12.9184 148.07 12.899C148.041 12.8894 148.012 12.8701 147.983 12.8604C147.954 12.8508 147.926 12.8411 147.897 12.8218C147.868 12.8122 147.839 12.8025 147.81 12.7928C147.8 12.7928 147.8 12.7928 147.79 12.7832C147.79 12.7832 147.79 12.7832 147.781 12.7832C147.761 12.7735 147.742 12.7735 147.723 12.7639C147.694 12.7542 147.665 12.7446 147.636 12.7446C147.607 12.7349 147.578 12.7349 147.549 12.7253C147.52 12.7156 147.491 12.7156 147.462 12.7059C147.443 12.7059 147.423 12.7059 147.394 12.6963H147.385C147.375 12.6963 147.375 12.6963 147.366 12.6963C147.337 12.6963 147.298 12.6963 147.269 12.6963C147.23 12.6963 147.192 12.6963 147.163 12.7059C147.124 12.7059 147.086 12.7156 147.047 12.7253C147.047 12.7253 147.047 12.7253 147.037 12.7253C146.989 12.7349 146.941 12.7446 146.902 12.7639C146.844 12.7832 146.786 12.8122 146.738 12.8411L144.488 14.1446C144.585 14.0866 144.681 14.048 144.797 14.0287C144.797 14.0287 144.797 14.0287 144.807 14.0287C144.913 14.0094 145.029 13.9997 145.154 14.0094H145.164C145.29 14.019 145.415 14.048 145.55 14.0963C145.55 14.0963 145.55 14.0963 145.56 14.0963C145.695 14.1446 145.83 14.2025 145.975 14.2894L161.337 23.1625C161.481 23.2397 161.617 23.3459 161.752 23.4521L161.761 23.4618C161.897 23.568 162.022 23.6935 162.148 23.819C162.148 23.819 162.148 23.819 162.157 23.8287C162.283 23.9639 162.399 24.099 162.505 24.2535C162.611 24.3984 162.717 24.5528 162.804 24.717C162.804 24.7266 162.814 24.7363 162.814 24.7363C162.901 24.8908 162.988 25.0549 163.055 25.219C163.055 25.219 163.055 25.219 163.055 25.2287C163.132 25.4025 163.19 25.5666 163.248 25.7404C163.248 25.7404 163.248 25.7404 163.248 25.7501C163.297 25.9239 163.345 26.0977 163.364 26.2618C163.393 26.4356 163.403 26.5997 163.403 26.7639L163.364 38.939C163.364 39.1032 163.345 39.248 163.326 39.3832V39.3928C163.297 39.528 163.258 39.6535 163.21 39.7597C163.181 39.8273 163.132 39.8853 163.084 39.9432C162.997 40.0687 162.891 40.1846 162.766 40.2618L165.015 38.9584C165.141 38.8811 165.247 38.7749 165.334 38.6397C165.343 38.6204 165.363 38.6204 165.372 38.6011C165.401 38.5528 165.43 38.5046 165.45 38.4563C165.469 38.4177 165.479 38.3887 165.498 38.3501C165.508 38.3115 165.527 38.2825 165.537 38.2439C165.546 38.2053 165.556 38.1763 165.566 38.1377C165.566 38.128 165.575 38.1087 165.575 38.0894V38.0797C165.575 38.0604 165.585 38.0508 165.585 38.0315C165.594 38.0025 165.594 37.9639 165.604 37.9349C165.604 37.9059 165.614 37.8673 165.614 37.8384C165.614 37.8094 165.614 37.7708 165.623 37.7418C165.623 37.7128 165.623 37.6742 165.623 37.6453C165.623 37.6453 165.623 37.6453 165.623 37.6356L165.662 25.4604C165.672 25.4411 165.662 25.4121 165.662 25.3832Z" fill="#B84300"/>
<path d="M161.337 23.1821C162.486 23.8483 163.423 25.4607 163.413 26.7835L163.374 38.9587C163.374 40.2814 162.428 40.8125 161.279 40.1463L145.927 31.2828C144.778 30.6166 143.852 29.0042 143.852 27.6911L143.89 15.5159C143.89 14.1931 144.827 13.6525 145.976 14.3187L161.337 23.1821Z" fill="#FF5E00"/>
<path d="M161.394 29.0049L155.359 25.4518C155.06 25.278 154.818 24.9015 154.818 24.6022C154.818 24.3028 155.06 24.2063 155.359 24.3704L161.394 27.9235C161.693 28.0973 161.934 28.4739 161.934 28.7732C161.925 29.0725 161.683 29.1691 161.394 29.0049ZM161.394 32.6449L155.359 29.0918C155.06 28.918 154.818 28.5415 154.818 28.2422C154.818 27.9428 155.06 27.8463 155.359 28.0104L161.394 31.5635C161.693 31.7373 161.934 32.1139 161.934 32.4132C161.925 32.7125 161.683 32.8091 161.394 32.6449ZM161.394 36.2753L155.359 32.7222C155.06 32.5484 154.818 32.1718 154.818 31.8725C154.818 31.5732 155.06 31.4766 155.359 31.6408L161.394 35.1939C161.693 35.3677 161.934 35.7442 161.934 36.0435C161.925 36.3428 161.683 36.4491 161.394 36.2753Z" fill="#FFFEFE"/>
<path d="M146.137 19.5039L152.876 23.3949V31.0225L146.137 27.1315V19.5039Z" fill="#FFFEFE"/>
<path d="M134.156 35.599C134.156 35.57 134.156 35.5314 134.156 35.5025C134.156 35.4735 134.156 35.4349 134.147 35.4059C134.147 35.3769 134.137 35.3383 134.137 35.2997C134.137 35.2611 134.127 35.2321 134.118 35.1935C134.118 35.1935 134.118 35.1935 134.118 35.1838C134.108 35.1549 134.108 35.1162 134.098 35.0873C134.089 35.0487 134.089 35.0197 134.079 34.9811C134.069 34.9425 134.06 34.9038 134.05 34.8749C134.04 34.8362 134.031 34.7976 134.021 34.7687C134.011 34.7397 134.002 34.7107 133.992 34.6818C133.992 34.6818 133.992 34.6818 133.992 34.6721V34.6625C133.982 34.6238 133.973 34.5949 133.953 34.5562C133.944 34.5176 133.924 34.4887 133.915 34.45C133.905 34.4114 133.886 34.3825 133.876 34.3438C133.867 34.3052 133.847 34.2762 133.838 34.2376C133.828 34.2087 133.818 34.1797 133.799 34.1604C133.799 34.1604 133.799 34.1604 133.799 34.1507C133.799 34.1411 133.799 34.1411 133.789 34.1314C133.77 34.1025 133.76 34.0638 133.741 34.0349C133.722 33.9962 133.702 33.9576 133.683 33.919C133.664 33.8804 133.644 33.8321 133.616 33.7935C133.596 33.7452 133.567 33.7066 133.538 33.6583C133.538 33.6487 133.529 33.639 133.529 33.6293C133.519 33.6197 133.519 33.61 133.509 33.6004C133.461 33.5135 133.403 33.4362 133.355 33.3494C133.316 33.2914 133.268 33.2238 133.229 33.1659C133.2 33.1273 133.171 33.0887 133.133 33.0404C133.104 33.0114 133.075 32.9728 133.056 32.9438C133.027 32.9149 132.998 32.8762 132.978 32.8473C132.949 32.8183 132.92 32.7893 132.901 32.7604C132.901 32.7507 132.891 32.7507 132.891 32.7411C132.891 32.7411 132.891 32.7411 132.882 32.7314C132.862 32.7121 132.843 32.6831 132.814 32.6638C132.785 32.6349 132.756 32.6059 132.727 32.5769C132.698 32.548 132.669 32.519 132.64 32.49C132.611 32.4611 132.582 32.4321 132.544 32.4128C132.524 32.4031 132.515 32.3838 132.496 32.3742L132.486 32.3645C132.476 32.3549 132.457 32.3452 132.447 32.3356C132.418 32.3162 132.389 32.2873 132.36 32.268C132.331 32.2487 132.302 32.2294 132.273 32.2004C132.244 32.1811 132.216 32.1618 132.187 32.1425C132.158 32.1231 132.129 32.1038 132.1 32.0845C132.09 32.0845 132.09 32.0749 132.08 32.0749L116.719 23.2018C116.7 23.1921 116.671 23.1728 116.651 23.1631C116.622 23.1438 116.593 23.1342 116.564 23.1149C116.536 23.1052 116.507 23.0859 116.478 23.0762C116.449 23.0666 116.42 23.0569 116.391 23.0376C116.362 23.028 116.333 23.0183 116.304 23.0087C116.294 23.0087 116.294 23.0087 116.284 22.999C116.284 22.999 116.284 22.999 116.275 22.999C116.256 22.9894 116.236 22.9894 116.217 22.9797C116.188 22.97 116.159 22.9604 116.13 22.9604C116.101 22.9507 116.072 22.9507 116.043 22.9411C116.014 22.9314 115.985 22.9314 115.956 22.9218C115.937 22.9218 115.918 22.9218 115.889 22.9121H115.879C115.869 22.9121 115.869 22.9121 115.86 22.9121C115.831 22.9121 115.792 22.9121 115.763 22.9121C115.724 22.9121 115.696 22.9121 115.657 22.9218C115.618 22.9218 115.58 22.9314 115.541 22.9411C115.541 22.9411 115.541 22.9411 115.531 22.9411C115.483 22.9507 115.435 22.9604 115.396 22.9797C115.338 22.999 115.28 23.028 115.232 23.0569L112.982 24.3604C113.079 24.3025 113.176 24.2638 113.291 24.2445C113.291 24.2445 113.291 24.2445 113.301 24.2445C113.407 24.2252 113.523 24.2156 113.649 24.2252H113.658C113.784 24.2349 113.909 24.2638 114.044 24.3121C114.044 24.3121 114.044 24.3121 114.054 24.3121C114.189 24.3604 114.324 24.4183 114.469 24.5052L129.831 33.3783C129.976 33.4556 130.111 33.5618 130.246 33.668L130.256 33.6776C130.391 33.7838 130.516 33.9094 130.642 34.0349C130.642 34.0349 130.642 34.0349 130.651 34.0445C130.777 34.1797 130.893 34.3149 130.999 34.4694C131.105 34.6142 131.211 34.7687 131.298 34.9328C131.298 34.9425 131.308 34.9521 131.308 34.9521C131.395 35.1066 131.482 35.2707 131.549 35.4349C131.549 35.4349 131.549 35.4349 131.549 35.4445C131.627 35.6183 131.684 35.7825 131.742 35.9562C131.742 35.9562 131.742 35.9562 131.742 35.9659C131.791 36.1397 131.839 36.3135 131.858 36.4776C131.887 36.6514 131.897 36.8156 131.897 36.9797L131.858 49.1549C131.858 49.319 131.839 49.4638 131.82 49.599V49.6087C131.791 49.7438 131.752 49.8693 131.704 49.9756C131.675 50.0431 131.627 50.1011 131.578 50.159C131.491 50.2845 131.385 50.4004 131.26 50.4776L133.509 49.1742C133.635 49.0969 133.741 48.9907 133.828 48.8556C133.838 48.8362 133.857 48.8362 133.867 48.8169C133.896 48.7687 133.924 48.7204 133.944 48.6721C133.963 48.6335 133.973 48.6045 133.992 48.5659C134.002 48.5273 134.021 48.4983 134.031 48.4597C134.04 48.4211 134.05 48.3921 134.06 48.3535C134.06 48.3438 134.069 48.3245 134.069 48.3052V48.2956C134.069 48.2762 134.079 48.2666 134.079 48.2473C134.089 48.2183 134.089 48.1797 134.098 48.1507C134.098 48.1218 134.108 48.0831 134.108 48.0542C134.108 48.0252 134.108 47.9866 134.118 47.9576C134.118 47.9287 134.118 47.89 134.118 47.8611C134.118 47.8611 134.118 47.8611 134.118 47.8514L134.156 35.6762C134.166 35.6569 134.166 35.628 134.156 35.599Z" fill="#B84300"/>
<path d="M129.831 33.3978C130.98 34.064 131.917 35.6764 131.907 36.9992L131.868 49.1744C131.868 50.4971 130.922 51.0282 129.773 50.362L114.412 41.4889C113.263 40.8227 112.336 39.2102 112.336 37.8971L112.375 25.722C112.375 24.3992 113.311 23.8585 114.46 24.5247L129.831 33.3978Z" fill="#FF5E00"/>
<path opacity="0.49" d="M113.832 26.3486L120.204 41.5362L130.7 35.9169L120.726 39.3928L113.832 26.3486Z" fill="#FFFEFE"/>
<path d="M131.434 65.9261C131.434 65.8972 131.434 65.8586 131.434 65.8296C131.434 65.8006 131.434 65.762 131.424 65.733C131.424 65.7041 131.414 65.6655 131.414 65.6268C131.414 65.5882 131.405 65.5593 131.395 65.5206C131.395 65.5206 131.395 65.5206 131.395 65.511C131.385 65.482 131.385 65.4434 131.376 65.4144C131.366 65.3758 131.366 65.3468 131.356 65.3082C131.347 65.2696 131.337 65.231 131.327 65.202C131.318 65.1634 131.308 65.1248 131.298 65.0958C131.289 65.0668 131.279 65.0379 131.269 65.0089C131.269 65.0089 131.269 65.0089 131.269 64.9993V64.9896C131.26 64.951 131.25 64.922 131.231 64.8834C131.221 64.8448 131.202 64.8158 131.192 64.7772C131.183 64.7386 131.163 64.7096 131.154 64.671C131.144 64.6324 131.125 64.6034 131.115 64.5648C131.105 64.5358 131.096 64.5068 131.076 64.4875C131.076 64.4875 131.076 64.4875 131.076 64.4779C131.076 64.4682 131.076 64.4682 131.067 64.4586C131.047 64.4296 131.038 64.391 131.018 64.362C130.999 64.3234 130.98 64.2848 130.96 64.2462C130.941 64.2075 130.922 64.1593 130.893 64.1206C130.874 64.0724 130.845 64.0337 130.816 63.9855C130.816 63.9758 130.806 63.9662 130.806 63.9565C130.796 63.9468 130.796 63.9372 130.787 63.9275C130.738 63.8406 130.68 63.7634 130.632 63.6765C130.594 63.6186 130.545 63.551 130.507 63.493C130.478 63.4544 130.449 63.4158 130.41 63.3675C130.381 63.3386 130.352 63.2999 130.333 63.271C130.304 63.242 130.275 63.2034 130.256 63.1744C130.227 63.1455 130.198 63.1165 130.178 63.0875C130.178 63.0779 130.169 63.0779 130.169 63.0682C130.169 63.0682 130.169 63.0682 130.159 63.0586C130.14 63.0393 130.111 63.0103 130.091 62.991C130.063 62.962 130.034 62.933 130.005 62.9041C129.976 62.8751 129.947 62.8461 129.918 62.8172C129.889 62.7882 129.86 62.7593 129.821 62.7399C129.802 62.7303 129.792 62.711 129.773 62.7013L129.763 62.6917C129.754 62.682 129.734 62.6724 129.725 62.6627C129.696 62.6434 129.667 62.6144 129.638 62.5951C129.609 62.5758 129.58 62.5565 129.551 62.5275C129.522 62.5082 129.493 62.4889 129.464 62.4696C129.435 62.4503 129.406 62.431 129.377 62.4117C129.367 62.4117 129.367 62.402 129.358 62.402L113.996 53.5289C113.977 53.5193 113.948 53.4999 113.929 53.4903C113.9 53.471 113.871 53.4613 113.842 53.442C113.813 53.4324 113.784 53.413 113.755 53.4034C113.726 53.3937 113.697 53.3841 113.668 53.3648C113.639 53.3551 113.61 53.3455 113.581 53.3358C113.571 53.3358 113.571 53.3358 113.562 53.3262C113.562 53.3262 113.562 53.3262 113.552 53.3262C113.533 53.3165 113.514 53.3165 113.494 53.3068C113.465 53.2972 113.436 53.2875 113.407 53.2875C113.378 53.2779 113.349 53.2779 113.32 53.2682C113.291 53.2586 113.263 53.2586 113.234 53.2489C113.214 53.2489 113.195 53.2489 113.166 53.2393H113.156C113.147 53.2393 113.147 53.2393 113.137 53.2393C113.108 53.2393 113.069 53.2393 113.04 53.2393C113.002 53.2393 112.963 53.2393 112.934 53.2489C112.896 53.2489 112.857 53.2586 112.818 53.2682C112.818 53.2682 112.818 53.2682 112.809 53.2682C112.76 53.2779 112.712 53.2875 112.674 53.3068C112.616 53.3261 112.558 53.3551 112.509 53.3841L110.26 54.6875C110.356 54.6296 110.453 54.591 110.569 54.5717C110.569 54.5717 110.569 54.5717 110.578 54.5717C110.685 54.5524 110.8 54.5427 110.926 54.5524H110.936C111.061 54.562 111.187 54.591 111.322 54.6393C111.322 54.6393 111.322 54.6393 111.331 54.6393C111.467 54.6875 111.602 54.7455 111.747 54.8324L127.108 63.7055C127.253 63.7827 127.388 63.8889 127.523 63.9951L127.533 64.0048C127.668 64.111 127.794 64.2365 127.919 64.362C127.919 64.362 127.919 64.362 127.929 64.3717C128.054 64.5068 128.17 64.642 128.276 64.7965C128.383 64.9413 128.489 65.0958 128.576 65.2599C128.576 65.2696 128.585 65.2793 128.585 65.2793C128.672 65.4337 128.759 65.5979 128.827 65.762C128.827 65.762 128.827 65.762 128.827 65.7717C128.904 65.9455 128.962 66.1096 129.02 66.2834C129.02 66.2834 129.02 66.2834 129.02 66.293C129.068 66.4668 129.116 66.6406 129.136 66.8048C129.165 66.9786 129.174 67.1427 129.174 67.3068L129.136 79.482C129.136 79.6462 129.116 79.791 129.097 79.9261V79.9358C129.068 80.071 129.029 80.1965 128.981 80.3027C128.952 80.3703 128.904 80.4282 128.856 80.4861C128.769 80.6117 128.663 80.7275 128.537 80.8048L130.787 79.5013C130.912 79.4241 131.018 79.3179 131.105 79.1827C131.115 79.1634 131.134 79.1634 131.144 79.1441C131.173 79.0958 131.202 79.0475 131.221 78.9993C131.24 78.9606 131.25 78.9317 131.269 78.893C131.279 78.8544 131.298 78.8255 131.308 78.7868C131.318 78.7482 131.327 78.7193 131.337 78.6806C131.337 78.671 131.347 78.6517 131.347 78.6324V78.6227C131.347 78.6034 131.356 78.5937 131.356 78.5744C131.366 78.5455 131.366 78.5068 131.376 78.4779C131.376 78.4489 131.385 78.4103 131.385 78.3813C131.385 78.3524 131.385 78.3137 131.395 78.2848C131.395 78.2558 131.395 78.2172 131.395 78.1882C131.395 78.1882 131.395 78.1882 131.395 78.1786L131.434 66.0034C131.434 65.9937 131.434 65.9648 131.434 65.9261Z" fill="url(#paint9_linear_739_1840)"/>
<path d="M127.108 63.7251C128.257 64.3913 129.194 66.0037 129.184 67.3265L129.146 79.5016C129.146 80.8244 128.199 81.3554 127.051 80.6892L111.689 71.8258C110.54 71.1596 109.613 69.5472 109.613 68.234L109.652 56.0589C109.652 54.7361 110.588 54.1954 111.737 54.8616L127.108 63.7251Z" fill="url(#paint10_linear_739_1840)"/>
<path d="M127.156 69.546L111.988 60.7887C111.689 60.6149 111.447 60.2384 111.447 59.9391C111.447 59.6398 111.689 59.5432 111.988 59.7073L127.156 68.4646C127.456 68.6384 127.697 69.0149 127.697 69.3142C127.697 69.6136 127.456 69.7198 127.156 69.546ZM127.156 73.186L111.988 64.4287C111.689 64.2549 111.447 63.8784 111.447 63.5791C111.447 63.2798 111.689 63.1832 111.988 63.3473L127.156 72.1046C127.456 72.2784 127.697 72.6549 127.697 72.9542C127.697 73.2536 127.456 73.3598 127.156 73.186ZM127.156 76.826L111.988 68.0687C111.689 67.8949 111.447 67.5184 111.447 67.2191C111.447 66.9198 111.689 66.8232 111.988 66.9873L127.156 75.7446C127.456 75.9184 127.697 76.2949 127.697 76.5942C127.697 76.8936 127.456 76.9901 127.156 76.826Z" fill="#FF7B2F"/>
<path d="M177.496 62.9535C177.496 62.9245 177.496 62.8859 177.496 62.8569C177.496 62.828 177.496 62.7894 177.486 62.7604C177.486 62.7314 177.477 62.6928 177.477 62.6542C177.477 62.6156 177.467 62.5866 177.457 62.548C177.457 62.548 177.457 62.548 177.457 62.5383C177.448 62.5094 177.448 62.4707 177.438 62.4418C177.428 62.4032 177.428 62.3742 177.419 62.3356C177.409 62.2969 177.4 62.2583 177.39 62.2294C177.38 62.1907 177.371 62.1521 177.361 62.1232C177.351 62.0942 177.342 62.0652 177.332 62.0363C177.332 62.0363 177.332 62.0363 177.332 62.0266V62.0169C177.322 61.9783 177.313 61.9494 177.293 61.9107C177.284 61.8721 177.264 61.8432 177.255 61.8045C177.245 61.7659 177.226 61.7369 177.216 61.6983C177.206 61.6597 177.187 61.6307 177.177 61.5921C177.168 61.5632 177.158 61.5342 177.139 61.5149C177.139 61.5149 177.139 61.5149 177.139 61.5052C177.139 61.4956 177.139 61.4956 177.129 61.4859C177.11 61.4569 177.1 61.4183 177.081 61.3894C177.062 61.3507 177.042 61.3121 177.023 61.2735C177.004 61.2349 176.984 61.1866 176.955 61.148C176.936 61.0997 176.907 61.0611 176.878 61.0128C176.878 61.0032 176.868 60.9935 176.868 60.9838C176.859 60.9742 176.859 60.9645 176.849 60.9549C176.801 60.868 176.743 60.7907 176.695 60.7038C176.656 60.6459 176.608 60.5783 176.569 60.5204C176.54 60.4818 176.511 60.4432 176.473 60.3949C176.444 60.3659 176.415 60.3273 176.395 60.2983C176.366 60.2694 176.337 60.2307 176.318 60.2018C176.289 60.1728 176.26 60.1438 176.241 60.1149C176.241 60.1052 176.231 60.1052 176.231 60.0956C176.231 60.0956 176.231 60.0956 176.222 60.0859C176.202 60.0666 176.183 60.0376 176.154 60.0183C176.125 59.9894 176.096 59.9604 176.067 59.9314C176.038 59.9025 176.009 59.8735 175.98 59.8445C175.951 59.8156 175.922 59.7866 175.884 59.7673C175.864 59.7576 175.855 59.7383 175.835 59.7287L175.826 59.719C175.816 59.7094 175.797 59.6997 175.787 59.6901C175.758 59.6707 175.729 59.6418 175.7 59.6225C175.671 59.6032 175.642 59.5838 175.613 59.5549C175.584 59.5356 175.555 59.5163 175.526 59.4969C175.497 59.4776 175.468 59.4583 175.44 59.439C175.43 59.439 175.43 59.4294 175.42 59.4294L160.059 50.5563C160.04 50.5466 160.011 50.5273 159.991 50.5176C159.962 50.4983 159.933 50.4887 159.904 50.4694C159.875 50.4597 159.846 50.4404 159.817 50.4307C159.788 50.4211 159.76 50.4114 159.731 50.3921C159.702 50.3825 159.673 50.3728 159.644 50.3632C159.634 50.3632 159.634 50.3632 159.624 50.3535C159.624 50.3535 159.624 50.3535 159.615 50.3535C159.595 50.3438 159.576 50.3438 159.557 50.3342C159.528 50.3245 159.499 50.3149 159.47 50.3149C159.441 50.3052 159.412 50.3052 159.383 50.2956C159.354 50.2859 159.325 50.2859 159.296 50.2763C159.277 50.2763 159.257 50.2763 159.228 50.2666H159.219C159.209 50.2666 159.209 50.2666 159.199 50.2666C159.171 50.2666 159.132 50.2666 159.103 50.2666C159.064 50.2666 159.035 50.2666 158.997 50.2763C158.958 50.2763 158.92 50.2859 158.881 50.2956C158.881 50.2956 158.881 50.2956 158.871 50.2956C158.823 50.3052 158.775 50.3149 158.736 50.3342C158.678 50.3535 158.62 50.3825 158.572 50.4114L156.322 51.7149C156.419 51.6569 156.515 51.6183 156.631 51.599C156.631 51.599 156.631 51.599 156.641 51.599C156.747 51.5797 156.863 51.5701 156.988 51.5797H156.998C157.124 51.5894 157.249 51.6183 157.384 51.6666C157.384 51.6666 157.384 51.6666 157.394 51.6666C157.529 51.7149 157.664 51.7728 157.809 51.8597L173.171 60.7328C173.315 60.8101 173.451 60.9163 173.586 61.0225L173.595 61.0321C173.731 61.1383 173.856 61.2638 173.982 61.3894C173.982 61.3894 173.982 61.3894 173.991 61.399C174.117 61.5342 174.233 61.6694 174.339 61.8238C174.445 61.9687 174.551 62.1232 174.638 62.2873C174.638 62.2969 174.648 62.3066 174.648 62.3066C174.735 62.4611 174.822 62.6252 174.889 62.7894C174.889 62.7894 174.889 62.7894 174.889 62.799C174.966 62.9728 175.024 63.1369 175.082 63.3107C175.082 63.3107 175.082 63.3107 175.082 63.3204C175.131 63.4942 175.179 63.668 175.198 63.8321C175.227 64.0059 175.237 64.17 175.237 64.3342L175.198 76.5094C175.198 76.6735 175.179 76.8183 175.16 76.9535V76.9632C175.131 77.0983 175.092 77.2238 175.044 77.3301C175.015 77.3976 174.966 77.4556 174.918 77.5135C174.831 77.639 174.725 77.7549 174.6 77.8321L176.849 76.5287C176.975 76.4514 177.081 76.3452 177.168 76.21C177.177 76.1907 177.197 76.1907 177.206 76.1714C177.235 76.1232 177.264 76.0749 177.284 76.0266C177.303 75.988 177.313 75.959 177.332 75.9204C177.342 75.8818 177.361 75.8528 177.371 75.8142C177.38 75.7756 177.39 75.7466 177.399 75.708C177.399 75.6983 177.409 75.679 177.409 75.6597V75.65C177.409 75.6307 177.419 75.6211 177.419 75.6018C177.428 75.5728 177.428 75.5342 177.438 75.5052C177.438 75.4763 177.448 75.4376 177.448 75.4087C177.448 75.3797 177.448 75.3411 177.457 75.3121C177.457 75.2832 177.457 75.2445 177.457 75.2156C177.457 75.2156 177.457 75.2156 177.457 75.2059L177.496 63.0307C177.496 63.0114 177.496 62.9825 177.496 62.9535Z" fill="#B84300"/>
<path d="M173.171 60.7533C174.32 61.4195 175.256 63.0319 175.247 64.3547L175.208 76.5298C175.208 77.8526 174.262 78.3836 173.113 77.7174L157.752 68.8443C156.603 68.1781 155.676 66.5657 155.676 65.2526L155.714 53.0774C155.714 51.7547 156.651 51.214 157.8 51.8802L173.171 60.7533Z" fill="#FF5E00"/>
<path d="M173.219 66.5743L158.05 57.817C157.751 57.6433 157.51 57.2667 157.51 56.9674C157.51 56.6681 157.751 56.5715 158.05 56.7357L173.219 65.4929C173.518 65.6667 173.759 66.0433 173.759 66.3426C173.759 66.6419 173.518 66.7481 173.219 66.5743ZM173.219 70.2143L158.05 61.457C157.751 61.2833 157.51 60.9067 157.51 60.6074C157.51 60.3081 157.751 60.2115 158.05 60.3757L173.219 69.1329C173.518 69.3067 173.759 69.6833 173.759 69.9826C173.759 70.2819 173.518 70.3784 173.219 70.2143ZM173.219 73.8543L158.05 65.0971C157.751 64.9233 157.51 64.5467 157.51 64.2474C157.51 63.9481 157.751 63.8515 158.05 64.0157L173.219 72.7729C173.518 72.9467 173.759 73.3233 173.759 73.6226C173.759 73.9219 173.518 74.0184 173.219 73.8543Z" fill="#FFFEFE"/>
<path d="M155.687 60.2971L147.026 54.6006C145.762 53.7702 144.999 52.3509 144.999 50.8351V45.9013C144.999 44.2502 144.11 42.7247 142.672 41.9137L132.833 36.362M109.622 63.2806L103.51 59.5633C102.062 58.6847 101.184 57.1206 101.184 55.4309V45.544C101.184 43.7868 103.105 42.7054 104.611 43.613L117.713 51.5592C118.949 52.3123 120.533 51.4144 120.533 49.9758V45.0227M155.446 18.4516V12.6971C155.446 10.6213 157.695 9.32748 159.491 10.3799L175.229 19.5716C176.639 20.3923 177.498 21.8985 177.498 23.5302V46.3068C177.498 48.0158 175.596 49.0392 174.167 48.1027L171.319 46.2199C170.015 45.3606 168.268 46.2971 168.268 47.8613V55.1027M176.397 68.9385L185.908 74.2875C187.617 75.253 188.679 77.0585 188.679 79.0282V98.3095M129.744 72.0861L140.567 78.5647C141.986 79.4144 142.855 80.9495 142.855 82.6006V105.387" stroke="#FF7B2F" stroke-width="0.482759" stroke-miterlimit="10"/>
<defs>
<linearGradient id="paint0_linear_739_1840" x1="219.732" y1="156.277" x2="106.063" y2="158.477" gradientUnits="userSpaceOnUse">
<stop stop-color="#FF8037"/>
<stop offset="1" stop-color="#662500"/>
</linearGradient>
<linearGradient id="paint1_linear_739_1840" x1="219.732" y1="155.869" x2="106.063" y2="158.069" gradientUnits="userSpaceOnUse">
<stop stop-color="#FFF9F5"/>
<stop offset="1" stop-color="#FFA571"/>
</linearGradient>
<linearGradient id="paint2_linear_739_1840" x1="266.345" y1="152.961" x2="23.6504" y2="152.961" gradientUnits="userSpaceOnUse">
<stop stop-color="#FF9966"/>
<stop offset="1" stop-color="#641A15"/>
</linearGradient>
<linearGradient id="paint3_linear_739_1840" x1="136.426" y1="136.543" x2="106.043" y2="81.9852" gradientUnits="userSpaceOnUse">
<stop stop-color="#973700"/>
<stop offset="0.581" stop-color="#FA5C00"/>
<stop offset="1" stop-color="#FFF9F5"/>
</linearGradient>
<linearGradient id="paint4_linear_739_1840" x1="154.09" y1="121.176" x2="210.032" y2="121.176" gradientUnits="userSpaceOnUse">
<stop stop-color="#FF8037"/>
<stop offset="1" stop-color="#662500"/>
</linearGradient>
<linearGradient id="paint5_linear_739_1840" x1="111.155" y1="161.796" x2="208.822" y2="161.796" gradientUnits="userSpaceOnUse">
<stop stop-color="#FF8037"/>
<stop offset="1" stop-color="#662500"/>
</linearGradient>
<linearGradient id="paint6_linear_739_1840" x1="140.499" y1="185.254" x2="186.975" y2="123.478" gradientUnits="userSpaceOnUse">
<stop stop-color="#FFF9F5"/>
<stop offset="1" stop-color="#FFA571"/>
</linearGradient>
<linearGradient id="paint7_linear_739_1840" x1="129.746" y1="154.391" x2="206.805" y2="154.391" gradientUnits="userSpaceOnUse">
<stop stop-color="#FF8037"/>
<stop offset="1" stop-color="#662500"/>
</linearGradient>
<linearGradient id="paint8_linear_739_1840" x1="118.256" y1="186.939" x2="184.26" y2="111.175" gradientUnits="userSpaceOnUse">
<stop stop-color="#FFF9F5"/>
<stop offset="1" stop-color="white"/>
</linearGradient>
<linearGradient id="paint9_linear_739_1840" x1="129.35" y1="77.832" x2="119.608" y2="57.3588" gradientUnits="userSpaceOnUse">
<stop stop-color="#FFF9F5"/>
<stop offset="1" stop-color="#FFD5BC"/>
</linearGradient>
<linearGradient id="paint10_linear_739_1840" x1="109.619" y1="67.7791" x2="129.183" y2="67.7791" gradientUnits="userSpaceOnUse">
<stop stop-color="#FFF9F5"/>
<stop offset="1" stop-color="#FFD5BC"/>
</linearGradient>
</defs>
</svg>
