<svg width="302" height="240" viewBox="0 0 302 240" fill="none" xmlns="http://www.w3.org/2000/svg">
<g clip-path="url(#clip0_756_348)">
<path d="M187.252 171.734C178.944 185.329 160.818 205.342 155.909 202.322C151 199.301 160.818 174 169.126 160.783C177.433 147.189 184.986 144.168 189.895 147.189C194.804 150.21 195.559 158.517 187.252 171.734Z" fill="url(#paint0_linear_756_348)"/>
<path d="M181.965 174C170.259 181.552 152.888 197.79 155.531 202.322C158.175 206.475 180.455 197.412 192.161 189.86C203.867 182.308 206.51 175.51 203.49 171.356C200.846 166.825 193.671 166.447 181.965 174Z" fill="url(#paint1_linear_756_348)"/>
<path d="M69.4335 178.154C75.4755 186.839 87.937 200.056 91.3356 197.79C94.7342 195.525 87.1818 178.909 81.5174 169.846C75.4755 161.161 70.5664 158.895 67.1678 161.161C63.7692 163.427 63.3916 169.469 69.4335 178.154Z" fill="url(#paint2_linear_756_348)"/>
<path d="M72.8319 179.664C80.762 184.573 93.2235 195.147 91.3354 198.168C89.4473 201.189 74.3424 195.524 66.4124 190.615C58.4823 185.706 56.5942 181.175 58.1047 178.154C59.6151 175.133 64.5242 174.755 72.8319 179.664Z" fill="url(#paint3_linear_756_348)"/>
<path d="M21.4766 194.014C25.2528 204.965 81.8961 213.65 151.001 213.65C220.106 213.65 276.749 204.965 280.526 194.014H21.4766Z" fill="#FFF6EF"/>
<path d="M81 183.812V41.1875C81 35.5278 86.3739 31 93.0913 31H171.909C178.626 31 184 35.5278 184 41.1875V183.812C184 189.472 178.626 194 171.909 194H93.0913C86.3739 194 81 189.472 81 183.812Z" fill="url(#paint4_linear_756_348)" fill-opacity="0.64"/>
<path d="M118 68.6434V48.6294C118 47.1189 119.133 45.6084 121.021 45.6084H134.238C135.748 45.6084 137.259 46.7413 137.259 48.6294V68.6434C137.259 70.1539 136.126 71.6643 134.238 71.6643H121.021C119.133 71.2867 118 70.1539 118 68.6434Z" fill="white"/>
<path d="M129.329 55.049H136.881V52.4056H131.972V45.6084H129.329V49.3846H125.93V45.6084H122.909V52.4056H118V55.049H125.552V52.028H129.329V55.049ZM129.329 71.6643H131.972V64.8671H136.881V62.2238H129.329V65.2448H125.552V62.2238H118V64.8671H122.909V71.6643H125.552V67.8881H128.951V71.6643H129.329Z" fill="#FFE5D2"/>
<path d="M95.8659 50.8954V49.0073H101.53L101.153 47.1191H102.663L103.796 50.5177L95.8659 50.8954ZM99.2645 59.9583C98.1316 59.9583 97.3764 59.5807 96.6212 59.2031C95.8659 58.8254 95.8659 58.0702 95.8659 57.3149C95.8659 56.5597 96.2435 55.8045 96.6212 55.4268C96.9988 55.0492 98.1316 54.6716 99.2645 54.6716H100.775C101.908 54.6716 102.663 55.0492 103.418 55.4268C104.174 55.8045 104.174 56.5597 104.174 57.3149C104.174 58.0702 103.796 58.8254 103.418 59.2031C102.663 59.5807 101.908 59.9583 100.775 59.9583H99.2645ZM100.775 58.0702C101.53 58.0702 101.908 58.0702 101.908 57.6926C102.285 57.6926 102.285 57.3149 102.285 56.9373C102.285 56.5597 102.285 56.5597 101.908 56.1821C101.53 56.1821 101.153 55.8045 100.775 55.8045H98.8869C98.1316 55.8045 97.754 55.8045 97.754 56.1821C97.3764 56.1821 97.3764 56.5597 97.3764 56.9373C97.3764 57.3149 97.3764 57.3149 97.754 57.6926C98.1316 57.6926 98.5093 58.0702 98.8869 58.0702H100.775ZM95.8659 67.5107V61.8464H96.9988L99.6421 64.4898C100.397 65.245 100.775 65.245 101.153 65.245C101.53 65.245 101.908 65.245 101.908 64.8674C101.908 64.8674 102.285 64.4898 102.285 64.1121C102.285 63.7345 102.285 63.7345 101.908 63.3569C101.53 62.9793 101.53 62.9793 101.153 62.9793V61.0912C101.53 61.0912 101.908 61.0912 102.663 61.4688C103.041 61.8464 103.418 62.224 103.796 62.6017C104.174 62.9793 104.174 63.3569 104.174 64.1121C104.174 64.8674 103.796 65.6226 103.418 66.0003C103.041 67.1331 102.285 67.1331 101.53 67.1331C101.153 67.1331 100.775 67.1331 100.775 67.1331C100.397 67.1331 100.02 66.7555 100.02 66.7555C100.02 66.7555 99.2645 66.0003 98.8869 65.6226L97.754 64.4898V67.5107H95.8659ZM95.8659 73.5527V71.6646H101.908L101.53 69.7765H103.041L104.174 73.1751L95.8659 73.5527ZM99.2645 86.3919C98.1316 86.3919 97.3764 86.0142 96.6212 85.6366C95.8659 85.259 95.8659 84.5038 95.8659 83.7485C95.8659 82.9933 96.2435 82.238 96.6212 81.8604C96.9988 81.4828 98.1316 81.1052 99.2645 81.1052H100.775C101.908 81.1052 102.663 81.4828 103.418 81.8604C104.174 82.238 104.174 82.9933 104.174 83.7485C104.174 84.5038 103.796 85.259 103.418 85.6366C102.663 86.0142 101.908 86.3919 100.775 86.3919H99.2645ZM100.775 84.5038C101.53 84.5038 101.908 84.5038 101.908 84.1261C102.285 84.1261 102.285 83.7485 102.285 83.3709C102.285 82.9933 102.285 82.9933 101.908 82.6156C101.53 82.6156 101.153 82.238 100.775 82.238H98.8869C98.1316 82.238 97.754 82.238 97.754 82.6156C97.3764 82.6156 97.3764 82.9933 97.3764 83.3709C97.3764 83.7485 97.3764 83.7485 97.754 84.1261C98.1316 84.1261 98.5093 84.5038 98.8869 84.5038H100.775ZM100.775 90.1681V90.9233C100.775 91.6786 101.153 92.0562 101.908 92.0562C102.285 92.0562 102.285 92.0562 102.663 91.6786C103.041 91.301 103.041 91.301 103.041 90.9233C103.041 90.5457 103.041 90.5457 102.663 90.1681L102.285 89.7905V87.9024C102.663 87.9024 103.041 87.9024 103.418 88.28C103.796 88.6576 104.174 88.6576 104.174 89.4128C104.174 89.7905 104.551 90.1681 104.551 90.9233C104.551 91.6786 104.174 92.4338 103.796 92.8114C103.418 93.1891 102.663 93.5667 102.285 93.5667C101.908 93.5667 101.53 93.5667 101.153 93.1891C100.775 92.8115 100.775 92.8115 100.397 92.4338C100.397 92.8115 100.02 93.1891 99.6421 93.5667C99.2645 93.9443 98.8869 93.9443 98.5093 93.9443C97.754 93.9443 97.3764 93.5667 96.9988 93.1891C96.6212 92.8115 96.2435 92.0562 96.2435 90.9233C96.2435 90.5457 96.2435 89.7905 96.6212 89.4128C96.9988 89.0352 96.9988 88.6576 97.3764 88.28C97.754 87.9024 98.1316 87.9024 98.5093 87.9024V89.7905C98.1316 89.7905 98.1316 89.7905 97.754 90.1681C97.754 90.5457 97.3764 90.5457 97.3764 90.9233C97.3764 91.301 97.3764 91.6786 97.754 91.6786C98.1316 91.6786 98.1316 92.0562 98.5093 92.0562C98.8869 92.0562 99.2645 92.0562 99.2645 91.6786C99.2645 91.301 99.6421 91.301 99.6421 90.9233V90.1681H100.775ZM95.8659 101.497V95.8324H96.9988L99.6421 98.4758C100.397 99.231 100.775 99.231 101.153 99.231C101.53 99.231 101.908 99.231 101.908 98.8534C101.908 98.8534 102.285 98.4758 102.285 98.0982C102.285 97.7205 102.285 97.7205 101.908 97.3429C101.53 96.9653 101.53 96.9653 101.153 96.9653V95.0772C101.53 95.0772 101.908 95.0772 102.663 95.4548C103.041 95.8324 103.418 96.21 103.796 96.5877C104.174 96.9653 104.174 97.3429 104.174 98.0982C104.174 98.8534 103.796 99.6087 103.418 99.9863C103.041 101.119 102.285 101.119 101.53 101.119C101.153 101.119 100.775 101.119 100.775 101.119C100.397 101.119 100.02 100.742 100.02 100.742C100.02 100.742 99.2645 99.9863 98.8869 99.6086L97.754 98.4758V101.497H95.8659ZM95.8659 107.539V105.651H101.908L101.53 103.763H103.041L104.174 107.161H95.8659V107.539ZM100.775 116.602V117.357C100.775 118.112 101.153 118.49 101.908 118.49C102.285 118.49 102.285 118.49 102.663 118.112C103.041 117.735 103.041 117.735 103.041 117.357C103.041 116.979 103.041 116.979 102.663 116.602L102.285 116.224V114.336C102.663 114.336 103.041 114.336 103.418 114.714C103.796 115.091 104.174 115.091 104.174 115.846C104.174 116.224 104.551 116.602 104.551 117.357C104.551 118.112 104.174 118.867 103.796 119.245C103.418 119.623 102.663 120 102.285 120C101.908 120 101.53 120 101.153 119.623C100.775 119.245 100.775 119.245 100.397 118.867C100.397 119.245 100.02 119.623 99.6421 120C99.2645 120.378 98.8869 120.378 98.5093 120.378C97.754 120.378 97.3764 120 96.9988 119.623C96.6212 119.245 96.2435 118.49 96.2435 117.357C96.2435 116.979 96.2435 116.224 96.6212 115.846C96.9988 115.469 96.9988 115.091 97.3764 114.714C97.754 114.336 98.1316 114.336 98.5093 114.336V116.224C98.1316 116.224 98.1316 116.224 97.754 116.602C97.754 116.979 97.3764 116.979 97.3764 117.357C97.3764 117.735 97.3764 118.112 97.754 118.112C98.1316 118.112 98.1316 118.49 98.5093 118.49C98.8869 118.49 99.2645 118.49 99.2645 118.112C99.2645 117.735 99.6421 117.735 99.6421 117.357V116.602H100.775ZM103.796 126.797H102.285C102.285 126.042 102.285 125.665 101.908 125.287C101.53 124.909 101.153 124.532 100.397 124.532C100.775 124.909 101.153 125.287 101.153 126.042C101.153 126.797 100.775 127.175 100.397 127.553C100.02 127.93 99.2645 128.308 98.5093 128.308C98.1316 128.308 97.3764 128.308 96.9988 127.93C96.6212 127.553 96.2435 127.553 95.8659 126.797C95.4883 126.42 95.4883 126.042 95.4883 125.287C95.4883 124.909 95.4883 124.154 95.8659 123.776C96.2435 123.399 96.6212 123.021 96.9988 122.644C97.3764 122.266 98.1316 122.266 98.5093 122.266H99.2645C100.02 122.266 100.775 122.266 101.53 122.644C102.285 123.021 102.663 123.399 103.041 124.154C103.796 124.909 103.796 125.665 103.796 126.797ZM99.6421 125.287C99.6421 124.909 99.6421 124.909 99.6421 124.532L99.2645 124.154H98.8869C97.754 124.154 97.3764 124.532 97.3764 125.287C97.3764 125.665 97.3764 125.665 97.754 126.042C98.1316 126.042 98.1316 126.42 98.5093 126.42C98.8869 126.42 99.2645 126.42 99.6421 126.042C99.6421 125.665 99.6421 125.665 99.6421 125.287ZM99.6421 130.196L103.796 130.574V135.105H102.285V132.084H100.775C100.775 132.084 100.775 132.462 101.153 132.462C101.153 132.839 101.153 132.839 101.153 133.217C101.153 133.972 100.775 134.728 100.397 135.105C100.02 135.483 99.2645 135.86 98.5093 135.86C98.1316 135.86 97.3764 135.86 96.9988 135.483C96.6212 135.105 96.2435 135.105 95.8659 134.35C95.4883 133.972 95.4883 133.595 95.4883 132.839C95.4883 132.462 95.4883 131.707 95.8659 131.329C96.2435 130.951 96.2435 130.574 96.6212 130.196C96.9988 129.818 97.3764 129.818 97.754 129.818V131.707C97.3764 131.707 97.3764 131.707 96.9988 132.084C96.9988 132.084 96.6212 132.462 96.6212 132.839C96.6212 133.595 96.9988 133.595 98.1316 133.595C98.8869 133.595 99.2645 133.217 99.2645 132.462C99.2645 132.084 99.2645 131.707 98.8869 131.329L99.6421 130.196ZM98.8869 142.28V143.035H97.3764V142.28H95.8659V140.392H97.3764V137.371H98.5093L103.418 140.392V142.28H98.8869ZM98.8869 138.881V140.392H101.153L98.8869 138.881ZM99.2645 154.364C98.1316 154.364 97.3764 153.986 96.6212 153.609C95.8659 153.231 95.8659 152.476 95.8659 151.721C95.8659 150.965 96.2435 150.21 96.6212 149.832C96.9988 149.455 98.1316 149.077 99.2645 149.077H100.775C101.908 149.077 102.663 149.455 103.418 149.832C104.174 150.21 104.174 150.965 104.174 151.721C104.174 152.476 103.796 153.231 103.418 153.609C102.663 153.986 101.908 154.364 100.775 154.364H99.2645ZM100.775 152.476C101.53 152.476 101.908 152.476 101.908 152.098C102.285 152.098 102.285 151.721 102.285 151.343C102.285 150.965 102.285 150.965 101.908 150.588C101.53 150.588 101.153 150.21 100.775 150.21H98.8869C98.1316 150.21 97.754 150.21 97.754 150.588C97.3764 150.588 97.3764 150.965 97.3764 151.343C97.3764 151.721 97.3764 151.721 97.754 152.098C98.1316 152.098 98.5093 152.476 98.8869 152.476H100.775ZM100.775 158.14V158.895C100.775 159.651 101.153 160.028 101.908 160.028C102.285 160.028 102.285 160.028 102.663 159.651C103.041 159.273 103.041 159.273 103.041 158.895C103.041 158.518 103.041 158.518 102.663 158.14L102.285 157.762V155.874C102.663 155.874 103.041 155.874 103.418 156.252C103.796 156.63 104.174 156.63 104.174 157.385C104.174 157.763 104.551 158.14 104.551 158.895C104.551 159.651 104.174 160.406 103.796 160.783C103.418 161.161 102.663 161.539 102.285 161.539C101.908 161.539 101.53 161.539 101.153 161.161C100.775 160.783 100.775 160.783 100.397 160.406C100.397 160.783 100.02 161.161 99.6421 161.539C99.2645 161.916 98.8869 161.916 98.5093 161.916C97.754 161.916 97.3764 161.539 96.9988 161.161C96.6212 160.783 96.2435 160.028 96.2435 158.895C96.2435 158.518 96.2435 157.763 96.6212 157.385C96.9988 157.007 96.9988 156.63 97.3764 156.252C97.754 155.874 98.1316 155.874 98.5093 155.874V157.762C98.1316 157.762 98.1316 157.762 97.754 158.14C97.754 158.518 97.3764 158.518 97.3764 158.895C97.3764 159.273 97.3764 159.651 97.754 159.651C98.1316 159.651 98.1316 160.028 98.5093 160.028C98.8869 160.028 99.2645 160.028 99.2645 159.651C99.2645 159.273 99.6421 159.273 99.6421 158.895V158.14H100.775ZM98.8869 168.714V169.469H97.3764V168.714H95.8659V166.825H97.3764V163.804H98.5093L103.418 166.825V168.714H98.8869ZM98.8869 165.693V167.203H101.153L98.8869 165.693ZM99.6421 171.735L103.796 172.112V176.644H102.285V173.623H100.775C100.775 173.623 100.775 174 101.153 174C101.153 174.378 101.153 174.378 101.153 174.756C101.153 175.511 100.775 176.266 100.397 176.644C100.02 177.021 99.2645 177.399 98.5093 177.399C98.1316 177.399 97.3764 177.399 96.9988 177.021C96.6212 176.644 96.2435 176.644 95.8659 175.888C95.4883 175.511 95.4883 175.133 95.4883 174.378C95.4883 174 95.4883 173.245 95.8659 172.867C96.2435 172.49 96.2435 172.112 96.6212 171.735C96.9988 171.357 97.3764 171.357 97.754 171.357V173.245C97.3764 173.245 97.3764 173.245 96.9988 173.623C96.9988 173.623 96.6212 174 96.6212 174.378C96.6212 175.133 96.9988 175.133 98.1316 175.133C98.8869 175.133 99.2645 174.756 99.2645 174C99.2645 173.623 99.2645 173.245 98.8869 172.867L99.6421 171.735Z" fill="#FFCBA4"/>
<path opacity="0.3" d="M165.024 194.014C165.024 193.259 164.647 192.503 164.647 191.748C169.556 189.482 174.465 185.706 178.997 181.552L183.906 186.461C184.283 185.706 184.283 184.951 184.283 183.818V182.685L180.885 179.664C182.017 178.531 183.15 177.398 184.283 175.888V171.356C182.773 173.622 180.885 175.51 178.997 177.398L167.668 166.07L176.731 157.007C178.996 159.273 181.64 160.783 184.283 162.294V158.517C182.395 157.384 180.507 156.252 178.997 154.741L184.283 149.454V145.678L177.108 152.853C174.087 149.454 171.822 146.056 170.689 141.902C171.822 141.524 172.955 141.147 174.087 140.769C177.864 139.636 181.64 139.259 184.283 140.014V135.105C170.311 126.797 152.185 128.685 140.479 140.391C126.507 154.363 126.507 177.021 140.479 190.993C141.234 191.748 142.367 192.503 143.122 193.636H158.983C160.115 193.259 160.871 192.881 162.003 192.503C162.003 192.881 162.003 193.259 162.381 193.636H165.024V194.014ZM176.731 179.287C172.577 183.44 168.045 186.461 163.514 188.727C162.003 184.573 159.738 180.419 156.339 176.643L165.402 167.58L176.731 179.287ZM174.087 155.119L165.024 164.182L153.696 152.853C157.85 148.699 162.381 145.678 166.913 143.412C168.423 147.566 171.066 151.72 174.087 155.119ZM180.885 136.615C178.241 136.615 175.598 136.993 172.577 137.748C171.444 138.126 170.311 138.503 169.178 138.881C168.801 136.993 168.423 134.727 168.423 132.839C172.577 133.217 177.108 134.727 180.885 136.615ZM165.024 132.839C165.024 135.482 165.402 138.126 166.157 140.391C161.248 142.657 156.339 146.433 151.808 150.587L142.745 141.524C149.164 135.86 157.094 132.839 165.024 132.839ZM132.171 165.692C132.171 157.762 135.192 149.832 140.857 143.412L149.92 152.475C145.766 157.007 142.367 161.916 139.724 166.825C137.458 166.07 134.815 165.692 132.171 165.692ZM151.808 154.741L163.136 166.07L154.073 175.133C150.675 171.734 146.521 169.468 141.99 167.958C144.633 163.049 148.031 158.895 151.808 154.741ZM132.171 169.091C134.437 169.091 136.325 169.468 138.213 169.846C137.836 170.979 137.458 172.112 137.08 173.245C136.325 176.266 135.948 178.909 135.948 181.552C134.059 177.776 132.549 173.622 132.171 169.091ZM139.724 174.377C140.101 173.245 140.479 172.112 140.857 170.979C145.01 172.489 148.409 174.377 151.808 177.398L140.857 188.349C138.591 185.328 138.213 180.042 139.724 174.377ZM142.745 190.238L153.696 179.287C156.717 182.685 158.983 186.084 160.115 190.238C158.983 190.615 157.85 190.993 156.717 191.37C151.052 193.259 146.143 192.881 142.745 190.238Z" fill="white"/>
<path d="M166.483 86.0142H201.979C212.553 86.0142 220.86 77.3289 220.86 67.1331C220.86 56.5596 212.175 48.252 201.979 48.252H166.483C155.909 48.252 147.602 56.9373 147.602 67.1331C147.602 77.3289 155.909 86.0142 166.483 86.0142Z" fill="url(#paint5_linear_756_348)"/>
<path d="M202.357 79.5943C209.448 79.5943 215.196 73.846 215.196 66.7552C215.196 59.6643 209.448 53.916 202.357 53.916C195.266 53.916 189.518 59.6643 189.518 66.7552C189.518 73.846 195.266 79.5943 202.357 79.5943Z" fill="url(#paint6_linear_756_348)"/>
<path d="M202.357 79.5943C209.448 79.5943 215.196 73.846 215.196 66.7552C215.196 59.6643 209.448 53.916 202.357 53.916C195.266 53.916 189.518 59.6643 189.518 66.7552C189.518 73.846 195.266 79.5943 202.357 79.5943Z" fill="url(#paint7_linear_756_348)" fill-opacity="0.48"/>
<path d="M157.797 68.2659V72.0422H155.531V61.4688H159.685C160.44 61.4688 161.196 61.4688 161.951 61.8464C162.706 62.224 163.084 62.6016 163.461 62.9792C163.839 63.3569 163.839 64.1121 163.839 64.8673C163.839 66.0002 163.461 66.7555 162.706 67.5107C161.951 68.266 161.196 68.2659 159.685 68.2659H157.797ZM157.797 66.7555H159.685C160.44 66.7555 160.818 66.7555 160.818 66.3778C161.196 66.0002 161.196 65.6226 161.196 65.245C161.196 64.8674 161.196 64.4897 160.818 64.1121C160.818 63.3569 160.44 63.3569 160.063 63.3569H158.175V66.7555H157.797ZM171.391 69.7764H167.615L166.86 72.0422H164.594L168.37 61.4688H170.259L174.412 72.0422H172.147L171.391 69.7764ZM168.37 68.2659H171.014L169.503 64.1121L168.37 68.2659ZM179.699 66.3778L181.965 61.4688H184.231L180.832 68.2659V72.0422H178.566V68.2659L175.168 61.4688H177.433L179.699 66.3778Z" fill="white"/>
<path d="M221.993 32.0136H184.23C184.23 28.9926 186.496 26.7269 189.517 26.7269C190.272 26.7269 190.65 26.7269 191.405 27.1045C192.916 22.9507 196.692 19.9297 201.223 19.9297C205.377 19.9297 209.154 22.573 210.664 25.9716C211.797 25.2164 212.93 24.8388 214.44 24.8388C218.594 24.4612 221.993 27.8598 221.993 32.0136Z" fill="url(#paint8_linear_756_348)"/>
<path d="M266.552 85.6369H233.699C233.699 82.9935 235.965 80.7278 238.608 80.7278C238.986 80.7278 239.741 80.7278 240.119 81.1054C241.252 77.7068 244.65 75.0635 248.804 75.0635C252.58 75.0635 255.601 77.3292 257.112 80.3502C258.245 79.9726 259.378 79.5949 260.51 79.5949C263.154 79.5949 266.175 82.2383 266.552 85.6369Z" fill="url(#paint9_linear_756_348)"/>
<path d="M62.6368 115.09H33.9375C33.9375 112.825 35.8256 110.936 38.0913 110.936C38.469 110.936 38.8466 110.936 39.2242 111.314C40.3571 108.293 43.0004 106.027 46.7767 106.027C49.7976 106.027 52.441 107.915 53.9515 110.559C54.7067 110.181 55.8396 109.804 56.9725 109.804C59.9934 109.426 62.6368 112.069 62.6368 115.09Z" fill="url(#paint10_linear_756_348)"/>
<path d="M226.526 88.2803C225.393 89.0355 224.638 89.7908 224.26 90.9236C223.883 92.0565 223.505 93.1894 224.26 94.3222C224.638 95.4551 225.771 96.2104 226.904 96.588C226.904 98.4761 226.526 99.9866 226.148 101.497C228.036 101.497 229.925 101.497 231.813 101.875C232.19 98.8537 232.568 96.2104 232.946 93.1894C231.057 91.3013 228.792 89.4132 226.526 88.2803C226.526 87.9027 226.526 87.9027 226.526 88.2803Z" fill="url(#paint11_linear_756_348)"/>
<path d="M246.539 125.665C246.539 125.665 246.539 126.798 246.917 128.686C247.295 130.574 247.672 132.84 248.05 135.106C248.427 137.371 249.183 139.637 249.56 141.148C249.938 142.658 250.693 143.791 250.693 143.791C253.337 144.546 252.959 145.301 251.448 146.057C250.316 146.812 248.05 146.812 247.295 145.679C247.295 145.679 246.539 144.546 245.784 143.036C244.651 141.525 243.896 138.882 242.763 136.616C242.008 134.35 241.253 131.707 240.497 130.197C240.12 128.308 239.742 127.176 239.742 127.176L246.539 125.665Z" fill="#FFC08F"/>
<path d="M230.678 111.316C230.678 111.316 231.434 112.071 232.567 113.204C233.699 114.337 235.21 116.225 236.343 118.491C237.476 120.757 238.231 123.022 238.986 124.91C239.741 126.799 240.119 127.931 240.119 127.931L246.916 126.421C246.916 126.421 246.539 124.91 246.539 123.022C246.161 120.757 245.783 118.113 244.65 115.092C243.518 112.071 242.385 109.428 240.874 107.162C239.364 104.896 237.853 103.386 237.853 103.386C236.343 101.875 234.832 101.498 233.322 101.875C231.811 102.253 231.056 103.008 230.301 104.141C229.546 105.274 229.168 106.785 229.168 107.917C229.546 109.428 229.923 110.561 230.678 111.316Z" fill="#FFA15A"/>
<path d="M219.35 190.238C219.35 190.238 219.35 187.217 219.35 182.308C219.35 177.777 219.728 171.357 220.483 165.315C220.861 162.294 221.238 159.273 221.993 157.007C222.749 154.742 223.881 152.476 225.014 150.588C227.28 146.812 229.546 144.168 229.923 143.791C231.434 141.525 231.434 136.238 228.035 133.973C225.014 131.707 219.728 133.217 218.217 135.861C217.84 136.616 215.951 139.637 213.686 145.301C212.553 147.945 211.798 151.343 211.42 154.742C211.042 158.14 211.042 161.917 211.42 165.315C212.553 178.532 215.951 190.616 215.951 190.616L219.35 190.238Z" fill="url(#paint12_linear_756_348)"/>
<path d="M219.351 190.238L220.106 191.371C220.484 191.749 220.106 192.504 219.351 192.504L212.554 193.637C211.421 193.637 211.043 192.504 212.176 192.126L215.952 190.616L219.351 190.238Z" fill="url(#paint13_linear_756_348)"/>
<path d="M243.142 189.861C243.142 189.861 242.387 186.84 241.632 182.308C240.499 177.777 239.366 172.113 238.611 166.071C237.855 160.406 237.855 154.364 237.855 149.833C238.233 145.301 238.611 141.903 238.611 141.525C238.611 138.882 235.967 134.728 232.191 134.35C228.415 133.973 224.639 137.749 224.639 141.148C224.639 141.903 224.639 145.679 225.772 150.588C226.527 155.875 228.037 162.294 230.303 168.336C232.569 174.378 234.834 180.043 236.723 184.197C238.611 188.35 240.121 190.994 240.121 190.994L243.142 189.861Z" fill="url(#paint14_linear_756_348)"/>
<path d="M243.141 189.86L244.273 190.993C244.651 191.371 244.273 192.126 243.896 192.126L237.476 194.392C236.343 194.769 235.966 193.637 236.721 193.259L240.12 190.993L243.141 189.86Z" fill="url(#paint15_linear_756_348)"/>
<path d="M217.084 136.994C216.707 141.525 238.609 143.791 238.609 138.882C238.609 133.973 243.895 108.672 236.343 101.875C234.077 99.9866 228.79 98.4762 224.637 99.9866C209.532 106.029 220.105 116.602 217.084 136.994Z" fill="url(#paint16_linear_756_348)"/>
<path d="M200.47 90.9239C200.47 90.9239 200.47 90.5463 200.092 89.791C200.092 89.0358 199.715 87.9029 199.715 86.7701C199.715 84.5043 200.47 82.2386 200.848 79.5952C201.603 74.6861 202.358 69.777 202.358 69.777C198.96 65.2456 206.512 67.5113 206.134 70.1547C206.134 70.1547 206.134 75.0638 206.134 79.9728C206.134 82.6162 206.134 84.8819 206.134 86.3924C206.512 87.9029 206.89 88.2805 206.89 88.2805L200.47 90.9239Z" fill="url(#paint17_linear_756_348)"/>
<path d="M223.129 101.121C223.129 101.121 218.597 97.7221 214.066 94.3235C212.933 93.5683 211.8 92.813 210.667 92.0578C209.534 91.3025 208.779 90.5473 208.401 90.1697C208.024 89.792 207.646 89.4144 207.269 89.0368C207.269 88.6592 206.891 88.6592 206.891 88.6592L200.094 90.5473C200.094 90.5473 200.094 90.9249 200.471 92.0578C200.849 92.813 201.227 93.9459 202.359 95.0788C203.115 96.2116 204.248 97.3445 205.003 98.0997C205.758 99.2326 206.891 99.9878 208.024 101.121C211.8 105.275 215.954 109.051 215.954 109.051C220.863 113.205 227.66 105.275 223.129 101.121Z" fill="#FFA15A"/>
<path d="M226.904 89.7902C224.638 89.7902 223.128 87.9021 222.75 85.6363C222.75 84.1258 223.505 82.6153 224.26 81.8601C225.393 81.1049 226.904 80.3496 228.037 80.3496C229.547 80.3496 230.68 80.7272 232.191 81.4825C234.079 82.6153 235.967 84.5035 236.722 86.3916C237.855 88.6573 237.855 90.923 237.477 93.1888C237.1 95.0769 236.344 96.5874 235.212 98.0979C234.456 99.2307 233.323 99.986 232.191 100.364C231.435 100.741 230.302 100.741 229.17 99.986C228.414 99.6084 227.281 98.8531 227.281 98.0979C227.281 97.3426 227.659 96.5874 228.037 95.8321C228.414 95.0769 229.17 94.6993 229.17 93.944C229.17 93.1888 228.792 92.0559 228.037 92.0559C227.281 92.0559 226.904 92.4335 226.149 92.4335C225.771 92.4335 225.393 91.6783 225.771 91.3007C226.149 90.923 226.904 90.1678 226.904 89.7902Z" fill="url(#paint18_linear_756_348)"/>
<path d="M88.3152 74.3073C90.9586 82.2374 89.4481 91.3004 83.4061 96.5871L83.7837 97.7199L79.6299 99.2304C79.2523 99.2304 78.8746 99.608 78.497 99.608C70.1893 102.251 59.9935 97.3423 56.2173 86.0136C52.4411 74.685 56.9725 64.4892 65.2802 61.4682L66.7907 61.0906L70.9446 59.5801L71.3222 60.7129C78.497 60.3353 85.6719 66.3773 88.3152 74.3073Z" fill="url(#paint19_linear_756_348)"/>
<path d="M93.225 72.7967C96.2459 81.1044 93.9802 91.3002 86.8054 95.8317C78.1201 101.874 64.9033 97.3422 60.3718 84.1254C55.8403 70.9086 63.0152 59.2023 73.9662 58.4471C82.2739 57.6918 90.204 64.1114 93.225 72.7967Z" fill="url(#paint20_linear_756_348)"/>
<path d="M74.7211 92.4332C66.0358 88.657 61.882 76.9507 66.4134 68.643C70.1897 61.4682 78.875 60.3353 84.9169 65.2444C90.2036 69.3983 93.2246 77.3283 91.3365 83.7479C89.4484 91.3004 82.2736 95.4542 74.7211 92.4332Z" fill="url(#paint21_linear_756_348)"/>
<path d="M76.6089 70.5312C76.9865 70.5312 77.7418 70.5312 78.1194 70.5312C78.497 70.5312 78.8747 70.5313 79.2523 70.9089C79.6299 70.9089 79.6299 71.2865 80.0075 71.6641C80.0075 72.0417 80.3851 72.0417 80.3851 72.4194C80.3851 72.797 80.3851 73.1746 80.3851 73.5522C80.3851 73.9299 80.0075 73.9299 79.6299 73.9299C79.6299 73.5522 79.2523 73.5522 79.2523 73.1746C79.2523 72.797 78.8747 72.797 78.8747 72.4194C78.497 72.0417 78.497 72.0417 78.1194 72.0417C77.7418 72.0417 77.7418 71.6641 77.3642 72.0417L78.8747 76.5732C79.6299 76.5732 80.0075 76.9508 80.3851 76.9508C80.7628 76.9508 81.1404 77.3285 81.518 77.3285C81.8956 77.7061 82.2733 77.7061 82.2733 78.0837C82.6509 78.4613 82.6509 78.8389 83.0285 79.2166C83.4061 79.9718 83.4061 81.1047 83.0285 81.8599C82.6509 82.6152 82.2733 83.3704 81.1404 84.1257L81.8956 86.3914L81.1404 86.769L80.3851 84.5033C80.0075 84.5033 79.6299 84.8809 79.6299 84.8809C79.2523 84.8809 78.8747 85.2585 78.497 85.2585C78.1194 85.2585 77.7418 85.2585 77.3642 85.6361C76.9865 85.6361 76.6089 85.6361 76.2313 85.6361L75.0984 82.2375L75.8537 81.8599C75.8537 82.2375 76.2313 82.6152 76.6089 82.9928C76.9865 83.3704 77.3642 83.3704 77.7418 83.748C78.1194 83.748 78.497 84.1257 78.8747 84.1257C79.2523 84.1257 79.6299 84.1257 80.0075 83.748L78.1194 78.8389C77.3642 78.8389 76.9865 78.4613 76.2313 78.4613C75.8537 78.4613 75.0984 78.0837 74.7208 77.7061C74.3432 77.3285 73.9656 77.3285 73.5879 76.9508C73.2103 76.5732 73.2103 76.1956 72.8327 75.818C72.8327 75.4403 72.4551 74.6851 72.4551 74.3075C72.4551 73.9299 72.4551 73.5522 72.8327 73.1746C73.2103 72.797 73.2103 72.4194 73.5879 72.4194C73.9656 72.0417 74.3432 72.0417 75.0984 72.0417L74.7208 70.5312H75.8537H76.6089ZM75.0984 74.3075C75.0984 74.6851 75.4761 74.6851 75.4761 75.0627C75.4761 75.4403 75.8537 75.4403 75.8537 75.4403C76.2313 75.4403 76.2313 75.818 76.6089 75.818C76.9865 75.818 76.9865 75.818 77.3642 76.1956L75.8537 72.0417C75.4761 72.0417 75.4761 72.4194 75.0984 72.4194C75.0984 72.4194 74.7208 72.797 74.7208 73.1746C74.7208 73.5522 74.7208 73.5522 74.7208 73.9299C75.0984 73.5522 75.0984 73.9299 75.0984 74.3075ZM81.518 79.5942C81.518 79.2166 81.1404 79.2166 81.1404 78.8389L80.7628 78.4613C80.7628 78.4613 80.3851 78.0837 80.0075 78.0837C79.6299 78.0837 79.6299 78.0837 79.2523 78.0837L80.7628 82.6152C81.1404 82.2375 81.518 81.8599 81.518 81.4823C81.8956 80.7271 81.518 80.3494 81.518 79.5942Z" fill="url(#paint22_linear_756_348)"/>
</g>
<defs>
<linearGradient id="paint0_linear_756_348" x1="187.666" y1="147.62" x2="171.374" y2="178.799" gradientUnits="userSpaceOnUse">
<stop stop-color="#FF9646"/>
<stop offset="1" stop-color="#CD5900"/>
</linearGradient>
<linearGradient id="paint1_linear_756_348" x1="202.501" y1="172.134" x2="155.776" y2="202.43" gradientUnits="userSpaceOnUse">
<stop stop-color="#FF9646"/>
<stop offset="1" stop-color="#CD5900"/>
</linearGradient>
<linearGradient id="paint2_linear_756_348" x1="69.0818" y1="162.625" x2="80.8193" y2="183.306" gradientUnits="userSpaceOnUse">
<stop stop-color="#FFBD8A"/>
<stop offset="1" stop-color="#FF7F1E"/>
</linearGradient>
<linearGradient id="paint3_linear_756_348" x1="59.6204" y1="179.541" x2="91.901" y2="198.935" gradientUnits="userSpaceOnUse">
<stop stop-color="#FFBD8A"/>
<stop offset="1" stop-color="#FF7F1E"/>
</linearGradient>
<linearGradient id="paint4_linear_756_348" x1="132.612" y1="30.9623" x2="132.612" y2="194.181" gradientUnits="userSpaceOnUse">
<stop stop-color="#FFF6EF"/>
<stop offset="1" stop-color="#FFCBA4"/>
</linearGradient>
<linearGradient id="paint5_linear_756_348" x1="221.238" y1="66.8045" x2="147.541" y2="66.8045" gradientUnits="userSpaceOnUse">
<stop stop-color="#FFC294"/>
<stop offset="1" stop-color="#FFB176"/>
</linearGradient>
<linearGradient id="paint6_linear_756_348" x1="189.487" y1="66.8043" x2="214.943" y2="66.8043" gradientUnits="userSpaceOnUse">
<stop stop-color="#FFC294"/>
<stop offset="1" stop-color="#FFB176"/>
</linearGradient>
<linearGradient id="paint7_linear_756_348" x1="215.196" y1="66.7552" x2="189.518" y2="66.7552" gradientUnits="userSpaceOnUse">
<stop stop-color="#FF9966"/>
<stop offset="1" stop-color="#641A15"/>
</linearGradient>
<linearGradient id="paint8_linear_756_348" x1="203.059" y1="31.7266" x2="203.059" y2="20.1865" gradientUnits="userSpaceOnUse">
<stop stop-color="white"/>
<stop offset="1" stop-color="#FFF6EF"/>
</linearGradient>
<linearGradient id="paint9_linear_756_348" x1="249.914" y1="85.652" x2="249.914" y2="75.6337" gradientUnits="userSpaceOnUse">
<stop stop-color="white"/>
<stop offset="1" stop-color="#FFF6EF"/>
</linearGradient>
<linearGradient id="paint10_linear_756_348" x1="48.3853" y1="114.879" x2="48.3853" y2="106.19" gradientUnits="userSpaceOnUse">
<stop stop-color="white"/>
<stop offset="1" stop-color="#FFF6EF"/>
</linearGradient>
<linearGradient id="paint11_linear_756_348" x1="233.153" y1="94.6848" x2="223.837" y2="94.6848" gradientUnits="userSpaceOnUse">
<stop stop-color="#FFC99F"/>
<stop offset="1" stop-color="#FFC08F"/>
</linearGradient>
<linearGradient id="paint12_linear_756_348" x1="220.996" y1="189.634" x2="220.996" y2="137.284" gradientUnits="userSpaceOnUse">
<stop stop-color="#DA5E00"/>
<stop offset="1" stop-color="#9B4300"/>
</linearGradient>
<linearGradient id="paint13_linear_756_348" x1="220.306" y1="192.066" x2="211.719" y2="192.066" gradientUnits="userSpaceOnUse">
<stop stop-color="#DA5E00"/>
<stop offset="1" stop-color="#9B4300"/>
</linearGradient>
<linearGradient id="paint14_linear_756_348" x1="233.879" y1="189.634" x2="233.879" y2="137.285" gradientUnits="userSpaceOnUse">
<stop stop-color="#DA5E00"/>
<stop offset="1" stop-color="#9B4300"/>
</linearGradient>
<linearGradient id="paint15_linear_756_348" x1="244.277" y1="192.153" x2="236.038" y2="192.153" gradientUnits="userSpaceOnUse">
<stop stop-color="#DA5E00"/>
<stop offset="1" stop-color="#9B4300"/>
</linearGradient>
<linearGradient id="paint16_linear_756_348" x1="228.481" y1="114.657" x2="228.481" y2="138.904" gradientUnits="userSpaceOnUse">
<stop stop-color="#FFA15A"/>
<stop offset="1" stop-color="#FB6D00"/>
</linearGradient>
<linearGradient id="paint17_linear_756_348" x1="203.197" y1="69.3692" x2="203.502" y2="89.1528" gradientUnits="userSpaceOnUse">
<stop stop-color="#FFC99F"/>
<stop offset="1" stop-color="#FFC08F"/>
</linearGradient>
<linearGradient id="paint18_linear_756_348" x1="228.713" y1="81.0671" x2="233.667" y2="98.5019" gradientUnits="userSpaceOnUse">
<stop stop-color="#DA5E00"/>
<stop offset="1" stop-color="#9B4300"/>
</linearGradient>
<linearGradient id="paint19_linear_756_348" x1="65.7064" y1="61.5005" x2="70.271" y2="74.7019" gradientUnits="userSpaceOnUse">
<stop stop-color="#FF9748"/>
<stop offset="1" stop-color="#FF750B"/>
</linearGradient>
<linearGradient id="paint20_linear_756_348" x1="61.7871" y1="65.7406" x2="90.5565" y2="90.1031" gradientUnits="userSpaceOnUse">
<stop stop-color="#FF9748"/>
<stop offset="1" stop-color="#FF750B"/>
</linearGradient>
<linearGradient id="paint21_linear_756_348" x1="90.1021" y1="83.0122" x2="65.5308" y2="72.2815" gradientUnits="userSpaceOnUse">
<stop stop-color="#FF9748"/>
<stop offset="1" stop-color="#FF750B"/>
</linearGradient>
<linearGradient id="paint22_linear_756_348" x1="74.2388" y1="79.1397" x2="81.9119" y2="76.4865" gradientUnits="userSpaceOnUse">
<stop stop-color="#FFEBDC"/>
<stop offset="1" stop-color="#FFCDA7"/>
</linearGradient>
<clipPath id="clip0_756_348">
<rect width="302.098" height="240" fill="white" transform="translate(-0.0488281)"/>
</clipPath>
</defs>
</svg>
