<svg width="218" height="40" viewBox="0 0 218 40" fill="none" xmlns="http://www.w3.org/2000/svg">
<path d="M38.4505 19.34C38.5879 21.9813 38.1307 24.6197 37.1127 27.0608C34.1456 34.0592 26.399 38.7124 18.8265 38.0506C14.0276 37.6313 9.5383 35.0951 6.45642 31.4263C3.32422 27.6929 1.83294 22.8785 2.43023 18.0306C3.02364 13.2227 5.50695 8.62628 9.32158 5.61664C9.87447 5.18048 10.4544 4.77977 11.058 4.41691C17.5726 0.500375 26.5745 1.28987 32.3112 6.27326C36.0536 9.52543 38.2196 14.4018 38.4505 19.34ZM19.0033 20.7371C21.9332 22.2136 25.0043 23.3913 28.1702 24.2524C28.7069 23.0563 29.0851 21.7951 29.2951 20.501C29.7143 17.8979 29.4589 15.2307 28.5534 12.7544C28.1251 11.5934 27.0505 9.57187 26.7189 9.30226C23.6287 12.7372 21.0319 16.5858 19.0033 20.7371ZM26.6931 26.8518C23.6303 25.9695 20.6544 24.8097 17.8022 23.3868C16.4703 26.5798 15.4847 29.9065 14.8623 33.3097C17.1962 33.2103 19.4762 32.5763 21.5265 31.4567C23.5768 30.3371 25.3426 28.7616 26.688 26.8518H26.6931ZM11.5043 16.0749C12.1648 16.6683 16.0633 19.2303 16.4542 19.3284C18.4682 15.2445 20.9951 11.4344 23.9738 7.9903C22.7208 8.05687 21.4822 8.28983 20.2907 8.68304C18.2597 9.34266 16.3897 10.4212 14.8016 11.8488C13.4582 13.0485 12.3413 14.48 11.5043 16.0749ZM34.6578 25.5425C35.4181 23.6041 35.7733 21.5306 35.7017 19.4497C35.63 17.3689 35.1329 15.3247 34.2411 13.4433C33.6459 12.1896 32.8844 11.0219 31.9771 9.97178C31.1579 9.01974 29.29 7.39172 28.8733 7.26917C30.7145 9.78237 31.8808 12.7255 32.2611 15.8176C32.6415 18.9098 32.223 22.0478 31.0457 24.9323C32.2506 25.1825 33.4426 25.3838 34.6578 25.5425ZM10.3781 18.8653C9.61308 21.3967 9.52413 24.0844 10.1201 26.6609C10.5232 28.4106 11.2381 30.0733 12.2306 31.5695C12.9292 28.2951 13.9356 25.0941 15.2364 22.0091C13.5606 21.0509 11.9387 20.0014 10.3781 18.8653ZM7.11691 12.3841C7.79676 13.0292 8.48306 13.6381 9.19515 14.2366C10.6758 11.6199 12.7859 9.41395 15.3344 7.81872C17.8735 6.21944 20.7677 5.2708 23.7609 5.05677C20.4855 4.34209 17.3004 4.6117 14.2314 5.97269C11.1624 7.33367 8.81588 9.49189 7.11691 12.3841ZM20.1462 35.2499C22.7178 35.3137 25.2623 34.712 27.5329 33.5032C29.8506 32.2843 31.8173 30.4918 33.2452 28.2967L29.6705 27.631C27.3665 31.2521 24.2008 33.8077 20.1436 35.2525L20.1462 35.2499ZM5.87461 15.2093C5.52236 16.274 5.29043 17.3748 5.18316 18.4911C5.07519 19.6043 5.0886 20.7259 5.22315 21.8362C5.35957 22.9507 5.61917 24.0466 5.99717 25.1039C6.36482 26.1436 7.22399 27.8735 7.48199 28.0954C6.46811 24.4369 6.62327 20.553 7.92576 16.987L5.87461 15.2093Z" fill="white"/>
<path d="M6.87825 12.4888C6.87825 12.4888 10.7238 16.2415 16.507 19.5839C16.5303 19.6794 15.4118 22.164 15.4118 22.164C15.4118 22.164 12.5647 20.447 10.3201 18.846C8.71913 24.4138 10.5781 29.3121 12.2293 31.5696C14.1643 34.2297 13.6367 36.2731 13.6367 36.2731C13.6367 36.2731 9.21192 33.8556 7.48199 28.0956C6.54155 24.9634 6.49253 21.2584 7.92576 16.9871C7.68839 16.7704 5.68884 15.2069 5.68884 15.2069L6.87825 12.4888Z" fill="black" stroke="white" stroke-width="0.645016" stroke-miterlimit="10"/>
<path d="M52.2035 11.6401V22.3732C52.2035 23.1119 51.7955 23.4817 50.9793 23.4826C50.1262 23.4826 49.7 23.1128 49.7009 22.3732V11.6401H48.4624C47.7744 11.6401 47.4304 11.2875 47.4304 10.5823C47.4304 9.91146 47.7744 9.57605 48.4624 9.57605H49.7009V6.29937C49.7009 5.56061 50.1356 5.1908 51.0051 5.18994C51.8032 5.18994 52.2027 5.55975 52.2035 6.29937V9.57605H57.2347C57.9227 9.57605 58.2667 9.92006 58.2667 10.6081C58.2667 11.2961 57.9227 11.6401 57.2347 11.6401H52.2035Z" fill="white"/>
<path d="M79.1135 19.174C79.1135 21.9605 76.9463 23.3537 72.6118 23.3537H67.5548C63.1352 23.3537 60.9249 21.9605 60.9241 19.174V13.8591C60.9241 11.0038 63.1601 9.57617 67.6322 9.57617H72.6118C76.9463 9.57617 79.1135 10.9952 79.1135 13.8333V19.174ZM76.5335 13.6269C76.5335 12.3024 75.3552 11.6402 72.9988 11.6402H67.271C64.7073 11.6402 63.4259 12.3798 63.4267 13.8591V19.174C63.4267 20.5672 64.7082 21.2639 67.271 21.2639H72.9988C75.3552 21.2639 76.5335 20.5672 76.5335 19.174V13.6269Z" fill="white"/>
<path d="M86.6733 22.3732C86.6733 23.1119 86.2605 23.4817 85.4349 23.4826C84.5929 23.4826 84.1715 23.1128 84.1707 22.3732V6.29937C84.1707 5.56061 84.5835 5.1908 85.4091 5.18994C86.251 5.18994 86.6725 5.55975 86.6733 6.29937V22.3732Z" fill="white"/>
<path d="M110.126 16.5423C110.126 17.3163 109.756 17.7033 109.017 17.7033H94.2329V19.4062C94.2329 20.6446 95.5143 21.2638 98.0772 21.2638H100.838C101.544 21.2638 101.897 21.6078 101.896 22.2958C101.896 23.0019 101.543 23.3545 100.838 23.3537H98.7222C94.0617 23.3537 91.7311 21.9346 91.7302 19.0966V13.8036C91.7302 10.9818 94.0351 9.57141 98.6448 9.57227H104.321C108.191 9.57227 110.126 10.7935 110.126 13.236V16.5423ZM94.2329 15.5619H107.701V13.5107C107.701 12.2628 106.738 11.6393 104.811 11.6402H98.0772C95.5135 11.6402 94.232 12.2981 94.2329 13.6139V15.5619Z" fill="white"/>
<path d="M140.416 22.3732C140.416 23.112 139.995 23.4818 139.152 23.4827C138.326 23.4827 137.913 23.1129 137.913 22.3732V13.601C137.913 12.2938 136.551 11.6402 133.825 11.6402C130.598 11.6402 128.985 12.4228 128.986 13.988V22.3732C128.986 23.112 128.586 23.4818 127.787 23.4827C126.917 23.4827 126.483 23.1129 126.484 22.3732V13.988C126.484 12.4228 124.884 11.6402 121.685 11.6402C118.933 11.6402 117.557 12.3024 117.557 13.6268V22.3732C117.557 23.112 117.135 23.4818 116.292 23.4827C115.467 23.4827 115.054 23.1129 115.054 22.3732V13.9326C115.054 11.0266 117.262 9.57313 121.677 9.57227C124.924 9.57227 126.977 10.3291 127.837 11.8427C128.715 10.3291 130.712 9.57227 133.829 9.57227C138.22 9.57227 140.416 11.0257 140.416 13.9326V22.3732Z" fill="white"/>
<path d="M163.972 19.3288C163.972 22.0121 162.02 23.3537 158.115 23.3537H150.762C146.634 23.3537 144.57 22.0637 144.57 19.4836V17.7034C144.57 15.0201 146.591 13.6785 150.633 13.6785H161.572C161.4 12.3196 160.377 11.6402 158.502 11.6402H155.458C154.856 11.6402 154.555 11.2876 154.555 10.5824C154.555 9.91158 154.856 9.57617 155.458 9.57617H158.115C162.019 9.57617 163.971 10.9522 163.972 13.7043V19.3288ZM161.598 15.7683H150.065C148.105 15.7683 147.124 16.3875 147.124 17.626V19.5094C147.124 20.6799 148.173 21.2647 150.272 21.2639H158.554C160.583 21.2639 161.598 20.378 161.598 18.6064V15.7683Z" fill="white"/>
<path d="M171.738 7.58927C171.738 8.46649 171.153 8.9051 169.983 8.9051C168.882 8.9051 168.331 8.46649 168.332 7.58927C168.333 6.71205 168.883 6.27344 169.983 6.27344C171.152 6.27344 171.737 6.71205 171.738 7.58927ZM171.299 22.373C171.299 23.1118 170.895 23.4816 170.086 23.4825C169.278 23.4833 168.874 23.1135 168.874 22.373V11.4336C168.874 10.7283 169.261 10.3757 170.035 10.3757C170.877 10.3757 171.298 10.7283 171.299 11.4336V22.373Z" fill="white"/>
<path d="M182.779 23.3498C178.238 23.3498 175.968 21.991 175.968 19.2733V13.623C175.968 10.9234 178.032 9.57313 182.16 9.57227H191.371C192.163 9.57227 192.558 9.90767 192.558 10.5785C192.558 11.2837 192.162 11.6363 191.371 11.6363H181.825C179.588 11.6363 178.47 12.2727 178.47 13.5456V19.1701C178.47 20.5633 179.752 21.2599 182.315 21.2599H191.371C192.093 21.2599 192.454 21.6298 192.454 22.3694C192.454 23.023 192.093 23.3498 191.371 23.3498H182.779Z" fill="white"/>
<path d="M215.133 19.3288C215.133 22.0121 213.181 23.3537 209.277 23.3537H201.923C197.795 23.3537 195.731 22.0637 195.731 19.4836V17.7034C195.731 15.0201 197.752 13.6785 201.794 13.6785H212.734C212.562 12.3196 211.538 11.6402 209.664 11.6402H206.619C206.017 11.6402 205.716 11.2876 205.716 10.5824C205.716 9.91158 206.017 9.57617 206.619 9.57617H209.277C213.181 9.57617 215.133 10.9522 215.133 13.7043V19.3288ZM212.76 15.7683H201.227C199.266 15.7683 198.285 16.3875 198.285 17.626V19.5094C198.285 20.6799 199.335 21.2647 201.433 21.2639H209.715C211.745 21.2639 212.76 20.378 212.76 18.6064V15.7683Z" fill="white"/>
<path d="M49.8693 34.2603V26.7497H51.6042V34.2603H49.8693ZM53.0408 34.2603V26.7497H58.1395V28.273H54.7756V29.8914H57.5471V31.2983H54.7756V34.2603H53.0408ZM61.2637 34.2603V26.7497H62.9985V34.2603H61.2637ZM70.1579 28.273H67.873V34.2603H66.1382V28.273H63.8427V26.7497H70.1579V28.273ZM78.4428 32.737V34.2603H73.1642V26.7497H78.3476V28.273H74.8991V29.7328H77.861V31.1397H74.8991V32.737H78.4428ZM80.5969 26.7497L82.2259 29.3414L83.855 26.7497H85.7379L83.252 30.5579L85.6533 34.2603H83.7703L82.2259 31.7744L80.6815 34.2603H78.788L81.1892 30.5579L78.7034 26.7497H80.5969ZM86.3871 34.2603V26.7497H88.1219V34.2603H86.3871ZM94.0648 28.95C94.0436 28.9147 93.9696 28.8618 93.8427 28.7913C93.7157 28.7137 93.557 28.6326 93.3666 28.548C93.1762 28.4634 92.9682 28.3893 92.7425 28.3259C92.5169 28.2624 92.2912 28.2306 92.0655 28.2306C91.7693 28.2306 91.5401 28.2835 91.3779 28.3893C91.2157 28.4881 91.1346 28.6432 91.1346 28.8548C91.1346 29.024 91.1946 29.158 91.3145 29.2567C91.4414 29.3555 91.6212 29.4436 91.8539 29.5212C92.0867 29.5917 92.3723 29.6763 92.7108 29.7751C93.1903 29.902 93.6064 30.0572 93.959 30.2405C94.3116 30.4168 94.5796 30.646 94.763 30.9281C94.9534 31.2102 95.0486 31.584 95.0486 32.0494C95.0486 32.4725 94.971 32.8322 94.8159 33.1284C94.6607 33.4175 94.4491 33.6538 94.1812 33.8371C93.9202 34.0134 93.6205 34.1439 93.282 34.2285C92.9435 34.3061 92.5944 34.3449 92.2348 34.3449C91.8681 34.3449 91.4908 34.3096 91.1029 34.2391C90.7221 34.1615 90.3554 34.0557 90.0028 33.9217C89.6501 33.7807 89.3257 33.6115 89.0296 33.414L89.7912 31.9013C89.8194 31.9366 89.9111 32.0036 90.0662 32.1023C90.2214 32.194 90.4118 32.2927 90.6374 32.3985C90.8702 32.4972 91.1276 32.5854 91.4097 32.6629C91.6917 32.7405 91.9774 32.7793 92.2665 32.7793C92.5768 32.7793 92.806 32.7299 92.9541 32.6312C93.1092 32.5325 93.1868 32.395 93.1868 32.2187C93.1868 32.0282 93.1057 31.8801 92.9435 31.7744C92.7884 31.6686 92.5733 31.5734 92.2982 31.4888C92.0303 31.4041 91.72 31.3089 91.3673 31.2031C90.909 31.0621 90.5281 30.9034 90.2249 30.7271C89.9287 30.5508 89.7066 30.3357 89.5585 30.0818C89.4174 29.828 89.3469 29.5106 89.3469 29.1298C89.3469 28.6009 89.4703 28.1566 89.7171 27.7969C89.971 27.4302 90.3095 27.1552 90.7327 26.9718C91.1558 26.7814 91.6177 26.6862 92.1184 26.6862C92.471 26.6862 92.8095 26.7285 93.1339 26.8132C93.4654 26.8978 93.7721 27.0036 94.0542 27.1305C94.3434 27.2574 94.6008 27.3844 94.8264 27.5113L94.0648 28.95ZM101.789 28.273H99.5045V34.2603H97.7697V28.273H95.4742V26.7497H101.789V28.273ZM107.143 28.95C107.122 28.9147 107.048 28.8618 106.921 28.7913C106.794 28.7137 106.635 28.6326 106.445 28.548C106.254 28.4634 106.046 28.3893 105.821 28.3259C105.595 28.2624 105.369 28.2306 105.144 28.2306C104.848 28.2306 104.618 28.2835 104.456 28.3893C104.294 28.4881 104.213 28.6432 104.213 28.8548C104.213 29.024 104.273 29.158 104.393 29.2567C104.52 29.3555 104.699 29.4436 104.932 29.5212C105.165 29.5917 105.45 29.6763 105.789 29.7751C106.269 29.902 106.685 30.0572 107.037 30.2405C107.39 30.4168 107.658 30.646 107.841 30.9281C108.032 31.2102 108.127 31.584 108.127 32.0494C108.127 32.4725 108.049 32.8322 107.894 33.1284C107.739 33.4175 107.527 33.6538 107.259 33.8371C106.998 34.0134 106.699 34.1439 106.36 34.2285C106.022 34.3061 105.673 34.3449 105.313 34.3449C104.946 34.3449 104.569 34.3096 104.181 34.2391C103.8 34.1615 103.434 34.0557 103.081 33.9217C102.728 33.7807 102.404 33.6115 102.108 33.414L102.869 31.9013C102.898 31.9366 102.989 32.0036 103.144 32.1023C103.3 32.194 103.49 32.2927 103.716 32.3985C103.948 32.4972 104.206 32.5854 104.488 32.6629C104.77 32.7405 105.056 32.7793 105.345 32.7793C105.655 32.7793 105.884 32.7299 106.032 32.6312C106.187 32.5325 106.265 32.395 106.265 32.2187C106.265 32.0282 106.184 31.8801 106.022 31.7744C105.867 31.6686 105.651 31.5734 105.376 31.4888C105.108 31.4041 104.798 31.3089 104.446 31.2031C103.987 31.0621 103.606 30.9034 103.303 30.7271C103.007 30.5508 102.785 30.3357 102.637 30.0818C102.496 29.828 102.425 29.5106 102.425 29.1298C102.425 28.6009 102.549 28.1566 102.795 27.7969C103.049 27.4302 103.388 27.1552 103.811 26.9718C104.234 26.7814 104.696 26.6862 105.197 26.6862C105.549 26.6862 105.888 26.7285 106.212 26.8132C106.544 26.8978 106.85 27.0036 107.132 27.1305C107.422 27.2574 107.679 27.3844 107.905 27.5113L107.143 28.95ZM110.102 26.7497L111.72 30.0713L113.36 26.7497H115.253L112.577 31.7003V34.2603H110.853V31.6792L108.219 26.7497H110.102ZM118.757 34.3237C118.193 34.3237 117.681 34.2179 117.223 34.0064C116.772 33.7878 116.38 33.4986 116.049 33.139C115.724 32.7722 115.474 32.3632 115.298 31.9119C115.121 31.4535 115.033 30.981 115.033 30.4944C115.033 29.9937 115.125 29.5177 115.308 29.0663C115.499 28.615 115.76 28.213 116.091 27.8604C116.43 27.5007 116.828 27.2187 117.286 27.0141C117.745 26.8096 118.245 26.7074 118.789 26.7074C119.346 26.7074 119.85 26.8167 120.301 27.0353C120.76 27.2469 121.151 27.536 121.475 27.9027C121.807 28.2694 122.061 28.682 122.237 29.1404C122.413 29.5917 122.501 30.0536 122.501 30.5261C122.501 31.0268 122.41 31.5029 122.226 31.9542C122.043 32.4055 121.782 32.811 121.444 33.1707C121.105 33.5233 120.707 33.8054 120.248 34.017C119.797 34.2215 119.3 34.3237 118.757 34.3237ZM116.8 30.5156C116.8 30.8047 116.842 31.0868 116.927 31.3618C117.011 31.6298 117.135 31.8696 117.297 32.0811C117.466 32.2927 117.674 32.462 117.921 32.5889C118.168 32.7158 118.45 32.7793 118.767 32.7793C119.099 32.7793 119.388 32.7158 119.635 32.5889C119.882 32.4549 120.086 32.2786 120.248 32.06C120.411 31.8414 120.53 31.5981 120.608 31.3301C120.693 31.055 120.735 30.7765 120.735 30.4944C120.735 30.2053 120.693 29.9267 120.608 29.6587C120.523 29.3907 120.396 29.151 120.227 28.9394C120.058 28.7208 119.85 28.5515 119.603 28.4316C119.356 28.3117 119.078 28.2518 118.767 28.2518C118.436 28.2518 118.147 28.3153 117.9 28.4422C117.66 28.5692 117.456 28.7419 117.286 28.9605C117.124 29.1721 117.001 29.4154 116.916 29.6904C116.839 29.9584 116.8 30.2335 116.8 30.5156ZM126.73 34.3237C126.131 34.3237 125.62 34.225 125.196 34.0275C124.773 33.823 124.428 33.548 124.16 33.2024C123.899 32.8498 123.705 32.4514 123.578 32.0071C123.458 31.5557 123.398 31.0833 123.398 30.5896V26.7497H125.133V30.5896C125.133 30.8717 125.161 31.1467 125.218 31.4147C125.274 31.6756 125.366 31.9084 125.493 32.1129C125.62 32.3174 125.782 32.4796 125.979 32.5995C126.184 32.7194 126.434 32.7793 126.73 32.7793C127.034 32.7793 127.287 32.7194 127.492 32.5995C127.696 32.4725 127.859 32.3068 127.979 32.1023C128.098 31.8907 128.187 31.6545 128.243 31.3935C128.299 31.1326 128.328 30.8646 128.328 30.5896V26.7497H130.062V30.5896C130.062 31.1115 129.995 31.5981 129.861 32.0494C129.735 32.5007 129.537 32.8992 129.269 33.2447C129.001 33.5832 128.656 33.8477 128.232 34.0381C127.816 34.2285 127.316 34.3237 126.73 34.3237ZM133.442 30.4415C133.442 29.9831 133.526 29.5353 133.696 29.0981C133.865 28.6538 134.112 28.2518 134.436 27.8921C134.761 27.5325 135.156 27.2469 135.621 27.0353C136.086 26.8167 136.615 26.7074 137.208 26.7074C137.913 26.7074 138.523 26.859 139.038 27.1622C139.56 27.4655 139.947 27.8604 140.201 28.347L138.869 29.2779C138.756 29.0099 138.604 28.8019 138.414 28.6538C138.23 28.5057 138.026 28.4034 137.8 28.347C137.581 28.2835 137.37 28.2518 137.165 28.2518C136.834 28.2518 136.545 28.3188 136.298 28.4528C136.051 28.5797 135.847 28.7525 135.684 28.9711C135.522 29.1897 135.402 29.433 135.325 29.701C135.247 29.969 135.208 30.237 135.208 30.505C135.208 30.8012 135.254 31.0868 135.346 31.3618C135.438 31.6368 135.568 31.8801 135.737 32.0917C135.914 32.3033 136.125 32.4725 136.372 32.5995C136.619 32.7194 136.89 32.7793 137.187 32.7793C137.398 32.7793 137.613 32.744 137.832 32.6735C138.05 32.603 138.251 32.4937 138.435 32.3456C138.625 32.1904 138.77 31.9895 138.869 31.7426L140.286 32.5783C140.138 32.945 139.895 33.2588 139.556 33.5198C139.218 33.7807 138.833 33.9817 138.403 34.1227C137.98 34.2567 137.56 34.3237 137.144 34.3237C136.601 34.3237 136.101 34.2144 135.642 33.9958C135.191 33.7701 134.799 33.4739 134.468 33.1072C134.144 32.7335 133.89 32.3174 133.706 31.859C133.53 31.3935 133.442 30.9211 133.442 30.4415ZM142.938 26.7497H144.811L147.392 34.2603H145.615L145.033 32.5783H142.695L142.124 34.2603H140.347L142.938 26.7497ZM144.747 31.383L143.869 28.4951L142.97 31.383H144.747ZM149.866 29.9655V34.2603H148.131V26.7497H149.507L152.987 31.1714V26.7497H154.722V34.2603H153.304L149.866 29.9655ZM158.193 30.4415C158.193 29.9831 158.278 29.5353 158.447 29.0981C158.616 28.6538 158.863 28.2518 159.188 27.8921C159.512 27.5325 159.907 27.2469 160.372 27.0353C160.838 26.8167 161.367 26.7074 161.959 26.7074C162.664 26.7074 163.274 26.859 163.789 27.1622C164.311 27.4655 164.699 27.8604 164.953 28.347L163.62 29.2779C163.507 29.0099 163.356 28.8019 163.165 28.6538C162.982 28.5057 162.777 28.4034 162.552 28.347C162.333 28.2835 162.121 28.2518 161.917 28.2518C161.585 28.2518 161.296 28.3188 161.049 28.4528C160.803 28.5797 160.598 28.7525 160.436 28.9711C160.274 29.1897 160.154 29.433 160.076 29.701C159.999 29.969 159.96 30.237 159.96 30.505C159.96 30.8012 160.006 31.0868 160.097 31.3618C160.189 31.6368 160.32 31.8801 160.489 32.0917C160.665 32.3033 160.877 32.4725 161.124 32.5995C161.37 32.7194 161.642 32.7793 161.938 32.7793C162.15 32.7793 162.365 32.744 162.583 32.6735C162.802 32.603 163.003 32.4937 163.186 32.3456C163.377 32.1904 163.521 31.9895 163.62 31.7426L165.037 32.5783C164.889 32.945 164.646 33.2588 164.308 33.5198C163.969 33.7807 163.585 33.9817 163.155 34.1227C162.731 34.2567 162.312 34.3237 161.896 34.3237C161.353 34.3237 160.852 34.2144 160.394 33.9958C159.942 33.7701 159.551 33.4739 159.219 33.1072C158.895 32.7335 158.641 32.3174 158.458 31.859C158.281 31.3935 158.193 30.9211 158.193 30.4415ZM171.188 32.737V34.2603H165.91V26.7497H171.093V28.273H167.645V29.7328H170.607V31.1397H167.645V32.737H171.188ZM172.242 34.2603V26.7497H175.627C175.98 26.7497 176.304 26.8237 176.601 26.9718C176.904 27.1129 177.165 27.3068 177.383 27.5536C177.602 27.7934 177.771 28.0649 177.891 28.3682C178.018 28.6714 178.082 28.9782 178.082 29.2885C178.082 29.5988 178.032 29.895 177.934 30.177C177.835 30.4521 177.694 30.7024 177.51 30.9281C177.327 31.1467 177.108 31.3266 176.855 31.4676L178.505 34.2603H176.59L175.151 31.8378H173.977V34.2603H172.242ZM173.977 30.3251H175.564C175.705 30.3251 175.828 30.2828 175.934 30.1982C176.047 30.1065 176.139 29.9831 176.209 29.828C176.28 29.6728 176.315 29.493 176.315 29.2885C176.315 29.084 176.273 28.9077 176.188 28.7596C176.111 28.6044 176.012 28.4845 175.892 28.3999C175.772 28.3153 175.645 28.273 175.511 28.273H173.977V30.3251ZM184.959 28.273H182.674V34.2603H180.939V28.273H178.644V26.7497H184.959V28.273ZM185.806 34.2603V26.7497H187.541V34.2603H185.806ZM188.978 34.2603V26.7497H194.076V28.273H190.712V29.8914H193.484V31.2983H190.712V34.2603H188.978ZM196.164 26.7497L197.782 30.0713L199.422 26.7497H201.315L198.639 31.7003V34.2603H196.915V31.6792L194.281 26.7497H196.164ZM204.091 34.2603V26.7497H205.826V34.2603H204.091ZM212.985 28.273H210.7V34.2603H208.965V28.273H206.67V26.7497H212.985V28.273Z" fill="#919090"/>
</svg>
