<svg width="18" height="14" viewBox="0 0 18 14" fill="none" xmlns="http://www.w3.org/2000/svg">
<path d="M17 1.5H1C0.867392 1.5 0.740215 1.44732 0.646447 1.35355C0.552678 1.25979 0.5 1.13261 0.5 1C0.5 0.867392 0.552678 0.740215 0.646447 0.646447C0.740215 0.552678 0.867392 0.5 1 0.5H17C17.1326 0.5 17.2598 0.552679 17.3536 0.646447C17.4473 0.740214 17.5 0.867391 17.5 1C17.5 1.13261 17.4473 1.25979 17.3536 1.35355C17.2598 1.44732 17.1326 1.5 17 1.5Z" fill="#55ABFF" stroke="url(#paint0_linear_789_68876)"/>
<path d="M17 13.5H10C9.86739 13.5 9.74021 13.4473 9.64645 13.3536C9.55268 13.2598 9.5 13.1326 9.5 13C9.5 12.8674 9.55268 12.7402 9.64645 12.6464C9.74021 12.5527 9.86739 12.5 10 12.5H17C17.1326 12.5 17.2598 12.5527 17.3536 12.6464C17.4473 12.7402 17.5 12.8674 17.5 13C17.5 13.1326 17.4473 13.2598 17.3536 13.3536C17.2598 13.4473 17.1326 13.5 17 13.5Z" fill="#0078EE" stroke="url(#paint1_linear_789_68876)"/>
<path d="M17 7.5H1C0.867392 7.5 0.740215 7.44732 0.646447 7.35355C0.552678 7.25979 0.5 7.13261 0.5 7C0.5 6.86739 0.552678 6.74022 0.646447 6.64645C0.740215 6.55268 0.867392 6.5 1 6.5H17C17.1326 6.5 17.2598 6.55268 17.3536 6.64645C17.4473 6.74021 17.5 6.86739 17.5 7C17.5 7.13261 17.4473 7.25979 17.3536 7.35355C17.2598 7.44732 17.1326 7.5 17 7.5Z" fill="#55ABFF" stroke="url(#paint2_linear_789_68876)"/>
<defs>
<linearGradient id="paint0_linear_789_68876" x1="0" y1="1" x2="18" y2="1" gradientUnits="userSpaceOnUse">
<stop stop-color="#FF9966"/>
<stop offset="1" stop-color="white"/>
</linearGradient>
<linearGradient id="paint1_linear_789_68876" x1="9" y1="13" x2="18" y2="13" gradientUnits="userSpaceOnUse">
<stop stop-color="#FF9966"/>
<stop offset="1" stop-color="white"/>
</linearGradient>
<linearGradient id="paint2_linear_789_68876" x1="0" y1="7" x2="18" y2="7" gradientUnits="userSpaceOnUse">
<stop stop-color="#FF9966"/>
<stop offset="1" stop-color="white"/>
</linearGradient>
</defs>
</svg>
