<svg width="35" height="35" viewBox="0 0 35 35" fill="none" xmlns="http://www.w3.org/2000/svg">
<rect x="0.545898" y="1" width="33.4542" height="33.4542" rx="4" fill="url(#paint0_linear_789_69157)" fill-opacity="0.24"/>
<rect x="0.545898" y="1" width="33.4542" height="33.4542" rx="4" stroke="url(#paint1_linear_789_69157)" stroke-linecap="round" stroke-linejoin="round"/>
<path d="M11.1807 23.1114L16.7191 17.7271L11.1807 12.3428" stroke="url(#paint2_linear_789_69157)" stroke-width="1.38462" stroke-linecap="round" stroke-linejoin="round"/>
<path d="M11.1807 23.1114L16.7191 17.7271L11.1807 12.3428" stroke="url(#paint3_linear_789_69157)" stroke-width="1.38462" stroke-linecap="round" stroke-linejoin="round"/>
<path d="M16.7188 24.1887L23.3649 17.7272L16.7188 11.2656" stroke="url(#paint4_linear_789_69157)" stroke-width="1.38462" stroke-linecap="round" stroke-linejoin="round"/>
<path d="M16.7188 24.1887L23.3649 17.7272L16.7188 11.2656" stroke="url(#paint5_linear_789_69157)" stroke-width="1.38462" stroke-linecap="round" stroke-linejoin="round"/>
<defs>
<linearGradient id="paint0_linear_789_69157" x1="34" y1="17.7271" x2="0.545898" y2="17.7271" gradientUnits="userSpaceOnUse">
<stop stop-color="#990939"/>
<stop offset="1" stop-color="#C84A01"/>
</linearGradient>
<linearGradient id="paint1_linear_789_69157" x1="34" y1="17.7271" x2="0.545898" y2="17.7271" gradientUnits="userSpaceOnUse">
<stop stop-color="#FF9966"/>
<stop offset="1" stop-color="white"/>
</linearGradient>
<linearGradient id="paint2_linear_789_69157" x1="16.7191" y1="17.7271" x2="11.1807" y2="17.7271" gradientUnits="userSpaceOnUse">
<stop stop-color="#990939"/>
<stop offset="1" stop-color="#C84A01"/>
</linearGradient>
<linearGradient id="paint3_linear_789_69157" x1="16.7191" y1="17.7271" x2="11.1807" y2="17.7271" gradientUnits="userSpaceOnUse">
<stop stop-color="#FF9966"/>
<stop offset="1" stop-color="white"/>
</linearGradient>
<linearGradient id="paint4_linear_789_69157" x1="23.3649" y1="17.7272" x2="16.7188" y2="17.7272" gradientUnits="userSpaceOnUse">
<stop stop-color="#990939"/>
<stop offset="1" stop-color="#C84A01"/>
</linearGradient>
<linearGradient id="paint5_linear_789_69157" x1="23.3649" y1="17.7272" x2="16.7188" y2="17.7272" gradientUnits="userSpaceOnUse">
<stop stop-color="#FF9966"/>
<stop offset="1" stop-color="white"/>
</linearGradient>
</defs>
</svg>
