<svg width="121" height="121" viewBox="0 0 121 121" fill="none" xmlns="http://www.w3.org/2000/svg">
<g clip-path="url(#clip0_1425_14351)">
<path d="M60.1954 119.891C93.1643 119.891 119.891 93.1643 119.891 60.1954C119.891 27.2266 93.1643 0.5 60.1954 0.5C27.2266 0.5 0.5 27.2266 0.5 60.1954C0.5 93.1643 27.2266 119.891 60.1954 119.891Z" fill="black"/>
<path d="M60.1953 107.708C86.4358 107.708 107.708 86.4358 107.708 60.1953C107.708 33.9548 86.4358 12.6826 60.1953 12.6826C33.9548 12.6826 12.6826 33.9548 12.6826 60.1953C12.6826 86.4358 33.9548 107.708 60.1953 107.708Z" fill="white"/>
<path d="M60.1959 93.6984C78.6988 93.6984 93.6984 78.6988 93.6984 60.1959C93.6984 41.693 78.6988 26.6934 60.1959 26.6934C41.693 26.6934 26.6934 41.693 26.6934 60.1959C26.6934 78.6988 41.693 93.6984 60.1959 93.6984Z" fill="black"/>
<path d="M60.196 78.4691C70.2885 78.4691 78.4701 70.2875 78.4701 60.195C78.4701 50.1025 70.2885 41.9209 60.196 41.9209C50.1035 41.9209 41.9219 50.1025 41.9219 60.195C41.9219 70.2875 50.1035 78.4691 60.196 78.4691Z" fill="white"/>
<path d="M97.9619 52.2764H70.5508V67.5048H97.9619V52.2764Z" fill="white"/>
</g>
<defs>
<clipPath id="clip0_1425_14351">
<rect width="120" height="120" fill="white" transform="translate(0.5 0.5)"/>
</clipPath>
</defs>
</svg>
