<svg width="107" height="119" viewBox="0 0 107 119" fill="none" xmlns="http://www.w3.org/2000/svg">
<path d="M12.2688 32.4625C12.4776 32.0866 12.7491 31.6897 13.0834 31.2719C13.4175 30.8542 14.2739 29.8934 15.6525 28.3894C18.911 24.1702 21.5428 20.118 23.548 16.2329L26.6185 8.3374C26.702 7.96153 26.6393 7.68999 26.4305 7.52279C26.1798 7.43934 25.3025 8.04508 23.7987 9.34C23.3809 9.75785 22.6289 10.656 21.5428 12.0345C20.4566 13.4132 19.3496 15.2826 18.2217 17.6428C17.0937 20.0032 16.4253 21.5175 16.2165 22.1858L15.0259 25.1936C17.7413 19.6794 20.1224 15.6481 22.1694 13.0997C23.0467 12.0972 23.2764 12.0764 22.8587 13.0371C21.4801 14.8753 20.4357 16.5254 19.7256 17.9874C17.3862 22.9587 15.381 26.802 13.71 29.5173L12.5194 31.3972L12.2688 32.4625ZM34.326 19.6793C34.493 19.8047 34.681 19.8256 34.8899 19.742C35.976 19.1154 37.0413 18.5933 38.0857 18.1754C38.3363 18.0502 38.4407 17.8413 38.399 17.5488L38.023 14.541V14.353C36.3938 15.105 34.5348 15.8988 32.4461 16.7342L31.8195 16.9848L32.3834 17.4861L34.326 19.6793ZM31.6941 14.541C34.0753 12.9536 36.5191 11.3453 39.0256 9.71597C40.5295 8.79703 41.9081 8.02419 43.1614 7.39746C44.2892 7.14692 44.3728 7.31402 43.412 7.89876C39.7775 9.90406 35.8298 12.4941 31.5688 15.6689V16.0449C35.0779 14.4993 37.929 13.1625 40.1222 12.0345C42.3154 10.9067 44.143 9.6743 45.6052 8.3374C46.566 7.37668 47.0464 6.4994 47.0464 5.70557C46.1691 5.37148 44.9785 5.37148 43.4747 5.70557C40.425 6.91715 36.5191 9.61164 31.7568 13.789L31.6941 14.541ZM31.5061 12.4731L32.3834 11.9092C34.8063 9.90406 37.0726 8.29573 39.1823 7.08415C41.2919 5.87278 42.9524 5.18349 44.164 5.01629L45.5425 3.19907C45.7931 2.69788 45.6469 2.38457 45.1039 2.25914C43.9759 2.21747 42.6391 2.40546 41.0935 2.8231C37.9186 3.86758 35.1927 5.32971 32.916 7.20947C30.6393 9.08945 28.4565 11.4497 26.3678 14.2903L30.0649 10.9692C33.9082 8.12863 36.6653 6.2592 38.3363 5.36093C40.0073 4.46288 41.3023 3.88847 42.2214 3.63771C41.929 4.0138 40.8637 4.66131 39.0256 5.58025C36.1849 7.25135 32.8429 9.69519 28.9996 12.9118C30.2111 12.2852 31.0466 12.139 31.5061 12.4731ZM20.4149 75.3863L20.5402 70.4986L20.6029 66.9268C20.7282 61.4961 21.125 57.0471 21.7935 53.5797C22.0441 53.1203 22.0858 53.3082 21.9188 54.1437C21.6263 57.5693 21.4488 60.6293 21.3861 63.3237C21.3235 66.0183 21.2608 68.1801 21.1982 69.8093C21.1355 71.4386 21.1041 73.5482 21.1042 76.1382L21.9188 74.3837C22.6707 73.214 23.2347 70.9582 23.6107 67.6161C23.9031 64.9843 23.9031 62.0288 23.6107 58.7494C23.3182 55.4701 22.9422 53.2247 22.4827 52.0132C21.689 52.2221 20.8535 54.0602 19.9762 57.5275C19.3496 60.2847 18.9736 62.8538 18.8483 65.2349C18.7647 68.4517 19.0154 71.5221 19.6003 74.4463L20.4149 75.3863ZM12.3941 61.3499C12.9371 61.8512 13.0416 62.3943 12.7074 62.9791C12.582 63.3551 12.6865 64.0966 13.0207 65.2036C13.3549 66.3107 13.71 67.1566 14.086 67.7414L14.1486 67.4908C13.6473 66.3629 13.2504 65.1305 12.958 63.7937C12.8327 63.3342 12.958 63.0418 13.334 62.9164L16.0285 61.6005C16.2791 61.4752 16.3836 61.2664 16.3418 60.9739C16.1329 59.8878 15.9867 58.7181 15.9032 57.4648C15.9032 57.2142 15.7778 57.068 15.5272 57.0262L12.6447 56.5875C12.2687 56.5458 12.0807 56.316 12.0808 55.8982C11.9972 54.4362 11.9972 52.974 12.0808 51.5119C12.0807 51.1777 12.2478 50.9688 12.5821 50.8852L15.5272 50.4466C15.7778 50.4049 15.9032 50.2587 15.9032 50.0079C15.9449 48.7965 16.0911 47.6268 16.3418 46.4989C16.4671 46.2065 16.4045 45.9976 16.1538 45.8722L15.0259 45.3709C13.5638 47.8775 12.4985 50.008 11.8301 51.7625C11.1617 53.5171 10.8066 54.833 10.7649 55.7102C11.4332 59.0523 11.9763 60.9322 12.3941 61.3499ZM42.2841 97.1301C43.4955 97.0884 44.6234 97.0048 45.6679 96.8795C45.3754 96.3782 44.6025 95.4592 43.3493 94.1223L38.211 92.1798L35.2032 90.7386C34.6601 90.4879 34.211 90.4462 33.856 90.6133C33.5009 90.7804 33.2398 91.219 33.0727 91.9292L33.198 92.0545C33.5322 91.3026 33.8455 90.8848 34.138 90.8012C34.5557 90.6759 35.0987 90.8013 35.7672 91.1772C36.2267 91.4279 36.7071 91.8456 37.2084 92.4305C37.7097 93.0153 38.5034 93.9553 39.5896 95.2503L42.2841 97.1301ZM53.1247 108.221C53.793 108.347 54.4405 108.138 55.0672 107.595L56.4458 106.718L58.1377 104.587L58.451 105.59C58.7851 105.882 59.3491 105.506 60.1429 104.462C60.3517 103.668 60.3204 102.853 60.0489 102.018C59.7773 101.182 58.5763 99.6158 56.4458 97.3181L55.2552 96.1902L54.5033 96.1275L56.0698 96.8795L55.1926 97.2555L53.6887 96.6288C52.2265 96.1693 50.9523 96.2111 49.8662 96.7542C51.7043 96.5453 52.6651 96.6289 52.7487 97.0048C53.0829 97.4644 53.5842 98.5818 54.2526 100.357C54.921 102.133 55.1925 103.584 55.0672 104.712L53.1247 106.592C52.4145 107.386 52.1638 107.469 52.3727 106.843L52.0594 106.592L50.9315 107.156L53.1247 108.221ZM73.114 109.6C77.9181 110.227 82.0329 110.498 85.4585 110.415C90.2626 107.198 94.0641 104.587 96.8631 102.582L100.122 100.451C100.957 99.4487 101.5 98.5714 101.751 97.8194C100.623 96.1902 99.9126 94.4775 99.6203 92.6811C99.4531 91.971 99.3904 91.2086 99.4323 90.3939C99.4739 89.5793 98.6176 89.1511 96.8631 89.1093L95.3592 89.172L91.9754 88.984C91.3069 88.8169 90.8474 88.5036 90.5969 88.0441L90.4715 87.4175L91.6621 87.7308V86.3522L90.7849 86.6029C89.6986 86.9371 89.3017 87.313 89.5943 87.7308C90.0537 88.3156 90.3043 88.984 90.3462 89.736C90.2208 92.0754 90.0746 93.7255 89.9076 94.6863C91.7873 93.2242 94.1267 91.7621 96.9258 90.2999C96.675 90.1746 96.2573 90.1329 95.6725 90.1746C95.1711 89.9658 95.1293 89.6942 95.5472 89.36C96.8421 89.36 97.8134 89.454 98.461 89.642C99.1084 89.83 99.0771 90.1329 98.367 90.5506C96.0275 91.5532 93.1659 93.3286 89.7823 95.8769C86.2731 98.8429 83.9545 100.556 82.8267 101.015C82.2 101.224 81.281 101.276 80.0696 101.172C78.858 101.067 76.8946 100.765 74.1793 100.263C71.3803 99.8455 68.9678 99.386 66.9418 98.8847C64.9156 98.3834 62.6075 98.0492 60.0176 97.8821L59.0776 98.0074V98.3834C60.3726 99.8873 61.1559 101.193 61.4275 102.3C61.6989 103.407 61.8034 104.117 61.7408 104.43C61.6781 104.744 61.2916 105.36 60.5815 106.279L60.1429 106.718L61.1455 106.968C65.6571 108.263 69.6466 109.14 73.114 109.6ZM91.9754 73.8197C91.9753 74.3628 92.2051 75.0939 92.6647 76.0129C92.8317 76.2636 92.6542 76.4933 92.1321 76.7022C91.6098 76.9111 91.3487 77.1826 91.3488 77.5168C91.6829 79.3967 91.3487 81.1095 90.3462 82.6551C91.1398 82.0285 91.944 81.2557 92.7587 80.3366C93.5732 79.4176 94.2312 78.3523 94.7326 77.1408C94.3983 76.5978 93.9596 76.0547 93.4167 75.5116C92.9988 75.0521 92.9988 74.9268 93.4167 75.1356C93.9596 75.4281 94.4818 75.9503 94.9832 76.7022C95.6515 75.3654 96.2364 73.6944 96.7378 71.6892C96.1111 69.4334 95.3173 67.6162 94.3566 66.2375C93.7717 65.1932 93.9179 65.2141 94.7952 66.3002C95.756 67.637 96.5288 69.1409 97.1138 70.8119C97.7403 68.8903 98.1371 67.4073 98.3044 66.3629L97.4897 63.731C97.8656 64.1906 98.1998 64.859 98.4923 65.7362L99.119 63.5431C99.453 62.7076 99.5157 62.9374 99.3069 64.2323C98.8473 66.4465 98.3251 68.4517 97.7404 70.2479C99.0353 69.0783 99.9961 67.9712 100.623 66.9268C101.166 66.4256 101.145 66.6136 100.56 67.4908C100.142 68.4099 99.1189 69.6631 97.4897 71.2505C97.1554 73.0887 96.5915 74.8015 95.7979 76.3889C96.6332 75.7623 97.427 75.3027 98.179 75.0103C98.5549 74.9686 98.4505 75.1357 97.8657 75.5116C97.1972 75.7623 96.4244 76.2845 95.5472 77.0781C94.9205 79.4176 93.2495 81.6108 90.5342 83.6577C91.9962 83.1564 93.333 82.5716 94.5446 81.9032C95.5889 81.3183 95.9022 80.6082 95.4845 79.7726C96.9883 78.3941 98.1998 77.1408 99.119 76.0129C99.7455 75.0103 99.829 74.1122 99.3696 73.3184C99.0771 72.9425 99.7872 71.7728 101.5 69.8093C102.043 69.0574 102.388 68.1592 102.534 67.1148C102.68 66.0705 102.649 65.4856 102.44 65.3603C101.228 65.4856 100.685 64.4413 100.811 62.2271C100.518 60.5562 100.101 60.0131 99.5576 60.5979C99.0144 61.8094 98.4191 62.3003 97.7717 62.0705C97.1241 61.8408 96.8003 61.9348 96.8005 62.3525C96.8421 64.2324 96.3199 64.9634 95.2339 64.5457L93.6047 63.5431C92.226 63.0836 91.9127 63.6893 92.6647 65.3603L93.73 66.8015C94.1059 67.8459 94.0641 68.389 93.6047 68.4307C92.602 68.2219 92.1007 68.4934 92.1008 69.2453C92.2678 70.5404 92.6751 71.5326 93.3227 72.2218C93.9701 72.9111 94.0223 73.4438 93.4793 73.8197C92.8108 73.6526 92.3095 73.6526 91.9754 73.8197ZM84.7379 72.5351C84.9676 72.7231 85.1034 73.0156 85.1452 73.4124C85.1869 73.8093 85.354 74.0913 85.6465 74.2583C86.1477 73.7153 86.5864 73.1931 86.9624 72.6918C86.9206 72.4829 86.7952 72.2323 86.5865 71.9398C86.3775 71.6474 85.7822 71.0521 84.8006 70.1539C83.8188 69.2558 83.0773 68.4725 82.5761 67.8041C82.2836 67.4282 82.3671 67.3864 82.8267 67.6788C83.3697 68.3054 84.0068 68.8903 84.7379 69.4333C85.4689 69.9764 86.1895 70.624 86.8998 71.3759C86.7744 69.5378 86.5446 67.637 86.2105 65.6736C86.0433 64.4621 86.1477 64.4413 86.5238 65.6109C86.9832 67.3237 87.2548 68.5143 87.3384 69.1827C87.589 68.8067 87.8083 68.4308 87.9964 68.0547C88.1843 67.6788 88.4036 67.2402 88.6543 66.7388C89.1138 65.9034 89.1764 65.9869 88.8423 66.9895C88.7169 67.4073 88.5602 67.8773 88.3723 68.3994C88.1843 68.9216 87.9754 69.3916 87.7457 69.8093C87.5159 70.2271 87.5263 70.9582 87.777 72.0025C88.4871 71.0417 89.6568 69.8302 91.2861 68.3681C91.5785 65.9452 91.4949 64.7337 91.0355 64.7336C90.5759 64.7337 90.2626 65.1828 90.0956 66.0809C89.9284 66.9791 89.8239 66.8642 89.7823 65.7362C89.7404 64.6084 89.5837 64.0026 89.3123 63.919C89.0406 63.8355 88.7273 63.9504 88.3723 64.2637C88.0172 64.577 87.7143 64.7441 87.4637 64.765C87.213 64.7859 87.0459 63.7102 86.9624 61.5379C86.9623 60.9948 87.1294 60.5353 87.4637 60.1593C87.7978 59.7834 87.9336 59.0418 87.871 57.9348C87.8083 56.8278 87.7352 56.0654 87.6517 55.6476C87.5681 55.2299 87.4323 54.833 87.2444 54.457C87.0563 54.0811 86.8788 53.8304 86.7118 53.705C86.5446 53.5798 86.3357 53.7155 86.0852 54.1123C85.8344 54.5093 85.6464 54.5615 85.5212 54.269C85.3958 53.9766 85.1242 53.7051 84.7066 53.4544C84.2887 53.2038 83.8814 53.3813 83.4847 53.987C83.0877 54.5928 82.7013 55.7938 82.3254 57.5901C83.1608 56.6293 83.8083 56.1698 84.268 56.2115C84.7274 56.2534 84.978 56.4309 85.0199 56.7442C85.0616 57.0575 85.1765 57.4962 85.3645 58.0601C85.5524 58.6241 85.6569 59.4492 85.6779 60.5353C85.6986 61.6215 85.7404 62.2794 85.8032 62.5091C85.8657 62.7389 85.8449 62.9687 85.7405 63.1984C85.636 63.4282 85.3958 63.6058 85.0199 63.731C85.354 63.7729 85.5211 63.846 85.5212 63.9504C85.5211 64.0548 85.4062 64.4935 85.1766 65.2663C84.9467 66.0392 84.8109 66.53 84.7692 66.7388C84.7274 66.9895 84.7483 67.3655 84.8319 67.8668C84.6229 67.5326 84.5185 67.1984 84.5186 66.8642C84.8109 65.235 84.9154 64.2951 84.8319 64.0444L84.5813 63.7937L84.8319 63.5431C84.9989 62.3316 84.978 61.1619 84.7692 60.034C84.5603 58.9061 84.2887 58.1019 83.9546 57.6214C83.6203 57.1411 82.9311 57.4648 81.8868 58.5927C81.3436 58.1332 80.9468 57.9661 80.6962 58.0914C80.4454 58.2168 80.5499 58.7599 81.0095 59.7206C81.5107 60.4309 82.0329 61.2873 82.5761 62.2898C82.8684 62.9165 83.119 63.5431 83.328 64.1697C83.5368 64.7963 83.5368 65.4647 83.328 66.1749C82.1165 65.2559 81.3436 65.0366 81.0095 65.5169C80.6752 65.9974 80.623 66.4882 80.8528 66.9895C81.0825 67.4908 81.3436 67.9295 81.6361 68.3054C81.2601 69.0574 81.5943 69.8929 82.6387 70.8119C83.8083 71.7728 84.5081 72.3472 84.7379 72.5351ZM13.5847 75.1983C13.7517 73.8615 13.9606 72.7127 14.2113 71.7518C15.2139 68.6188 16.6342 65.4647 18.4723 62.2898C18.5141 61.4544 18.7439 60.1802 19.1616 58.4674C16.6969 61.7677 15.1199 64.953 14.4306 68.0234C13.7413 71.0939 13.4593 73.4855 13.5847 75.1983ZM70.7329 8.08675C69.7719 6.79183 69.2707 5.72657 69.229 4.89096C69.2289 4.09734 69.3542 4.18089 69.6049 5.14161C69.8555 5.89367 70.5866 7.0007 71.7981 8.46272L72.6754 8.8387C74.0121 8.08685 75.14 8.14952 76.0592 9.02668L75.8712 7.52279C75.4951 6.68739 74.8685 6.56207 73.9913 7.14681C72.9469 5.93544 72.0069 5.00595 71.1715 4.35833C70.3359 3.71093 69.4378 3.15741 68.477 2.69777C67.6832 2.44723 67.1192 2.63522 66.7851 3.26174L65.5319 2.50979C63.4013 1.46552 62.3151 1.19399 62.2734 1.69517C62.1063 2.19658 62.2107 2.677 62.5867 3.13641C60.9574 2.92765 59.84 2.99031 59.2343 3.3244C58.6285 3.65871 58.4614 4.09734 58.733 4.64031C59.0045 5.18349 59.7042 5.68479 60.8322 6.14421C60.2473 6.77094 60.0802 7.29313 60.3309 7.71077C60.7068 8.21218 61.4796 8.54638 62.6494 8.71337L64.4666 8.52539C64.9261 8.56726 65.0096 8.90146 64.7173 9.52799C64.5919 10.2383 64.9052 10.5307 65.6572 10.4053C66.785 11.4497 67.913 11.7839 69.041 11.4079L70.2316 11.1572L70.1062 12.5984L72.2368 13.2877L72.926 13.0371C72.2993 11.8675 72.0278 10.7187 72.1114 9.59065L71.0462 9.15201C69.7093 9.27744 68.7067 9.59075 68.0384 10.0919C67.3699 10.468 67.2028 10.4471 67.5371 10.0293C68.4143 9.40276 69.3124 8.98501 70.2316 8.77604C68.7276 8.23306 67.4117 7.6691 66.2838 7.08415C64.7381 7.58555 63.2133 7.75265 61.7095 7.58545C61.2916 7.502 61.041 7.41845 60.9575 7.3348C60.8739 7.25135 61.229 7.23047 62.0228 7.27214C63.2759 7.31402 64.4874 7.08425 65.6572 6.58285C65.4065 6.29053 64.9156 5.96677 64.1846 5.61158C63.4535 5.2566 62.2733 4.87018 60.6442 4.45232C60.2264 4.28533 60.2473 4.20178 60.7069 4.20167C61.6676 4.24356 62.8791 4.57776 64.3413 5.20427C64.9261 5.49681 65.5527 5.78923 66.2212 6.08155C65.3438 5.28793 64.6545 4.43154 64.1533 3.51239C64.0697 2.76055 64.2577 2.76055 64.7173 3.51239C65.1767 4.13912 65.8347 4.91196 66.6911 5.8309C67.5474 6.75005 68.8947 7.502 70.7329 8.08675ZM74.1793 16.5462C74.9729 16.7969 75.6622 16.8805 76.2472 16.7968C75.9546 16.1285 75.8502 15.4601 75.9338 14.7916C75.2654 15.0006 74.6805 15.0424 74.1793 14.917C73.6779 14.8753 73.6152 14.7708 73.9913 14.6036C75.0774 14.6873 76.08 14.3531 76.9991 13.601C76.4559 12.8492 75.8293 12.1181 75.1192 11.4079C74.409 10.6978 74.6179 10.6351 75.7459 11.2199C76.3306 11.6377 76.8319 12.139 77.2498 12.7238C77.1243 11.763 77.1243 10.9484 77.2498 10.2799C77.4585 9.23566 78.1687 8.71348 79.3803 8.71337C78.2523 8.08685 77.2914 8.54638 76.4978 10.0919C74.7014 9.08945 73.5735 9.08945 73.114 10.0919C73.1557 11.3453 73.4168 12.1181 73.8973 12.4105C74.3776 12.703 74.3672 13.1416 73.866 13.7264L72.7381 14.165C72.7797 15.2513 73.2602 16.045 74.1793 16.5462ZM78.5657 20.4939C79.0251 22.0815 80.1739 23.1676 82.0121 23.7524L82.3881 23.0631C84.6438 24.0658 86.0642 25.0057 86.6491 25.8829C87.025 26.3425 87.0877 26.8438 86.8371 27.3868C87.5054 26.5096 88.0276 26.3007 88.4037 26.7602L87.965 25.5069C87.8814 24.9222 87.9858 24.4626 88.2784 24.1283L88.153 23.7524C86.7326 22.8752 85.26 22.2799 83.7353 21.9665C82.2104 21.6533 81.3227 21.3713 81.0722 21.1205C80.2366 20.5776 80.3619 20.5358 81.4481 20.9952C81.6987 21.2042 82.5342 21.4339 83.9546 21.6845C85.3749 21.9352 86.6699 22.3739 87.8397 23.0004L87.0878 21.3085C86.1686 19.93 85.4376 19.0737 84.8946 18.7394C83.8919 18.2382 82.8162 17.8831 81.6675 17.6741C80.5186 17.4653 79.7562 17.2356 79.3803 16.9848C78.7118 16.5672 78.6909 16.421 79.3176 16.5462C79.9859 16.8805 80.717 17.0998 81.5108 17.2041C82.3044 17.3087 83.2444 17.528 84.3306 17.8621C83.7874 17.2773 83.0773 16.4836 82.2001 15.4809C81.3227 14.4784 80.4872 13.2252 79.6936 11.7212C79.6517 11.3871 79.7979 11.5124 80.1322 12.0971C81.4272 13.9353 82.5551 15.3348 83.516 16.2955C83.3488 15.2095 83.307 14.0398 83.3907 12.7864C83.4741 12.2435 83.5786 12.4732 83.704 13.4757C83.6203 14.6455 83.7039 15.6899 83.9546 16.6088C85.2496 17.7786 86.461 19.0946 87.5891 20.5566C87.5054 19.7212 87.5263 18.6977 87.6517 17.4861C87.7352 16.9014 87.7978 16.9014 87.8397 17.4861C87.7978 18.8648 87.9232 20.1807 88.2157 21.4339L88.717 22.5618C88.7587 21.5175 89.0511 20.6402 89.5943 19.93C89.6359 18.2173 89.2391 16.9849 88.4037 16.2329C88.0694 14.8544 87.7352 14.1651 87.4011 14.165C87.1921 14.1651 86.9206 14.562 86.5865 15.3556L85.5839 14.9796C84.9571 12.0972 84.2783 10.5411 83.5473 10.3113C82.8162 10.0816 82.4298 10.2591 82.3881 10.8439C81.3018 10.0085 80.1948 9.6743 79.067 9.8413C78.2732 10.3009 77.9598 11.0946 78.127 12.2225L78.691 14.4157L78.2523 14.9796L77.3124 15.2303C76.7693 15.5228 76.7693 16.0241 77.3124 16.7342C78.1061 17.7369 79.1087 18.447 80.3202 18.8647C80.9467 19.3243 80.8005 19.5854 79.8816 19.648C78.9624 19.7107 78.5238 19.9927 78.5657 20.4939ZM63.2134 96.9422C63.9652 96.5662 64.8007 96.1276 65.7199 95.6263C66.0122 95.5009 66.242 95.1876 66.4091 94.6863C66.4926 93.9762 66.9939 93.4226 67.913 93.0257C68.832 92.6289 69.5631 92.4514 70.1062 92.4931C70.7328 92.5349 71.255 92.3887 71.6728 92.0545L72.3621 91.6158L71.8608 90.9892C71.6936 90.7804 71.5056 90.7177 71.2968 90.8012C70.127 91.0937 67.7668 92.1172 64.216 93.8717C63.4222 94.3312 62.7747 94.8534 62.2734 95.4383L61.2708 96.8168L63.2134 96.9422ZM73.114 94.8743L77.3124 92.3051L77.5631 90.7386C78.482 91.407 79.2966 91.5741 80.0069 91.2399C80.6334 91.0728 81.2287 90.5715 81.7928 89.736C82.3567 88.9005 83.1817 87.877 84.268 86.6655C85.354 85.4541 86.4819 84.535 87.6517 83.9084C87.3592 82.9058 87.6308 81.945 88.4663 81.0259L90.5342 79.146C90.0746 77.4333 90.3461 76.2218 91.3488 75.5116C91.0145 74.6761 91.0354 73.6944 91.4115 72.5665C89.6986 76.2427 88.6229 78.4881 88.1844 79.3027C87.7456 80.1173 87.401 80.462 87.1504 80.3366C86.8997 80.2113 86.7952 79.5429 86.8371 78.3314L86.1478 79.522L86.2105 81.7152C83.2026 85.6003 81.2392 87.7726 80.3202 88.2321C79.8188 88.441 79.3593 88.7543 78.9416 89.172C78.3149 89.4227 78.1478 89.2765 78.4403 88.7334C78.7745 88.3574 79.2758 88.0023 79.9442 87.6681C80.8214 87.0415 81.4898 86.206 81.9494 85.1616C82.7013 83.2818 84.1425 80.7335 86.2732 77.5168C86.8997 76.3889 88.4662 74.2793 90.9728 71.1879L91.0355 69.6213C90.2417 70.4569 89.2809 71.4803 88.153 72.6918C87.025 73.9033 85.9597 75.2088 84.9572 76.6082C83.9545 78.0077 83.0146 79.522 82.1374 81.1512C81.5943 81.569 80.9885 81.4019 80.3202 80.6499L80.5082 82.2165L80.4455 83.7204C80.153 84.723 79.6726 85.5689 79.0043 86.2582C78.3358 86.9475 77.7092 87.8143 77.1244 88.8587C76.6648 90.112 74.9938 91.4905 72.1114 92.9944L73.114 94.8743ZM66.5971 97.5061C68.8111 96.6706 70.0435 95.9605 70.2942 95.3756C70.5866 94.2059 70.5657 93.6002 70.2316 93.5584C69.4378 93.4748 68.7067 93.6837 68.0384 94.185C67.3281 94.6028 67.0775 95.1667 67.2864 95.8769L67.5997 96.8795H67.2864L66.7225 96.0022L64.5293 97.2555L66.5971 97.5061ZM70.1062 98.5714C72.5291 99.0309 74.2836 99.3442 75.3699 99.5113C74.8267 98.7594 74.4716 97.9448 74.3046 97.0675C74.1374 97.8195 73.469 98.0701 72.2994 97.8194L70.1062 98.5714ZM91.4741 62.5405C92.3513 62.081 93.0615 62.0601 93.6047 62.4778C94.1476 60.6815 94.5236 58.6972 94.7326 56.5249L93.542 54.5823V55.8356C93.5001 56.2534 93.2913 56.504 92.9154 56.5875L90.0329 57.0262C89.7822 57.068 89.6777 57.2142 89.7196 57.4648C89.5942 58.7181 89.4271 59.8878 89.2183 60.9739C89.1764 61.2664 89.2809 61.4752 89.5316 61.6005L91.4741 62.5405ZM100.56 58.906C100.936 58.6972 101.458 58.5301 102.127 58.4047C102.753 58.3212 102.837 58.3839 102.377 58.5927C101.751 58.8434 101.291 59.0941 100.999 59.3447C101.709 60.2638 102.043 61.2246 102.001 62.2271L102.691 63.4804C103.401 63.2716 103.881 63.0314 104.132 62.7598C104.382 62.4883 104.476 62.1436 104.414 61.7258C104.351 61.3081 103.86 61.0157 102.941 60.8486C103.944 60.222 104.612 59.1985 104.947 57.7781C104.905 57.1515 104.487 56.8382 103.693 56.8382C104.069 56.0863 104.278 55.4074 104.32 54.8016C104.362 54.196 104.195 53.5798 103.819 52.9531C103.108 52.4519 102.252 52.5981 101.249 53.3917C100.539 53.0576 99.7037 53.3709 98.743 54.3317C98.1998 56.5458 97.7612 58.6554 97.4271 60.6606C97.97 60.953 98.7011 60.3891 99.6203 58.9687C99.3695 58.551 99.1815 57.8617 99.0563 56.9008C99.1397 56.1489 99.2651 56.1698 99.4323 56.9635C99.5575 57.6319 99.7455 58.0915 99.9962 58.3421C100.539 57.2142 101.166 56.1489 101.876 55.1463C102.336 54.5615 102.461 54.5406 102.252 55.0836C101.416 56.2951 100.811 57.5693 100.435 58.906H100.56ZM31.1928 99.1353L34.9526 98.5087L32.0701 96.6288L31.1928 99.1353ZM32.0701 114.738L32.6967 115.24C33.2398 115.448 33.7828 115.824 34.326 116.368L35.8298 117.182C36.7489 117.642 37.4173 117.558 37.8351 116.931C37.9603 116.43 37.6261 115.929 36.8325 115.428L35.4539 115.24L35.1406 114.864L36.9578 113.986C38.2945 113.318 39.4747 112.618 40.4982 111.887C41.5216 111.156 42.4302 110.435 43.224 109.725L43.788 109.788L42.7227 110.979C40.3415 112.775 38.5034 114.07 37.2084 114.864L37.9604 115.114C40.1744 113.569 42.1587 111.939 43.9133 110.227C44.5817 109.684 44.6025 109.203 43.976 108.785C42.9733 108.869 41.9081 109.172 40.7802 109.694C39.6522 110.216 38.6078 110.373 37.6471 110.164L37.4591 111.292C37.5426 111.793 37.2919 112.148 36.7071 112.357L34.4513 113.736L34.7646 114.864H34.2006L32.3208 114.112L32.0701 114.738ZM79.3176 26.0709C79.5264 26.2798 79.7562 26.3216 80.0069 26.1962L81.5735 24.8803C80.4037 24.4209 79.4533 23.7942 78.7223 23.0004C77.9912 22.2068 77.5421 21.6219 77.3751 21.2459L76.4978 23.2511C76.3724 23.5018 76.4142 23.6689 76.6231 23.7524C77.6674 24.5044 78.5656 25.2772 79.3176 26.0709ZM35.0152 93.3077C35.6 93.6002 36.1849 93.6002 36.7698 93.3077L36.3312 92.6184L35.3286 91.7412C34.7854 91.4488 34.3468 91.7203 34.0126 92.5558L35.0152 93.3077ZM95.4219 63.4804C95.9648 61.3081 96.5288 58.6345 97.1138 55.4596C96.5706 55.4596 96.1737 55.5014 95.9232 55.5849C95.756 57.5066 95.2964 59.9713 94.5446 62.9791L95.4219 63.4804ZM47.7357 97.7568C46.3989 97.7986 45.2918 97.8821 44.4146 98.0074C42.0334 98.2999 39.7358 98.6549 37.5217 99.0727L32.1328 100.075C28.5819 100.577 25.8247 100.848 23.8613 100.89C21.8561 99.4278 19.0363 97.5479 15.4019 95.2503C13.1042 93.7464 10.4515 92.2425 7.44375 90.7386C7.02598 90.3626 6.96332 90.0075 7.25576 89.6733C7.63172 89.4645 8.46722 89.36 9.76226 89.36C10.3471 89.4018 10.5768 89.548 10.4515 89.7986C10.3262 90.0493 10.0756 90.1851 9.69959 90.2059C9.3236 90.2269 8.9894 90.2582 8.69699 90.2999C11.2452 91.4279 13.6264 92.7229 15.8405 94.185L15.7779 90.9266C15.7361 89.7569 15.9867 88.7125 16.5298 87.7934C16.6551 87.0833 15.8405 86.4984 14.086 86.0389C13.8353 85.9554 13.71 86.018 13.71 86.2269L13.7727 87.6681L14.5873 86.4149L15.1512 86.6655L14.2113 88.5454C14.0859 88.8378 13.8144 88.9632 13.3967 88.9214C12.4358 88.8378 10.556 88.8796 7.75706 89.0467C6.62912 89.0885 6.29492 89.8195 6.75446 91.2399C6.83799 91.5741 6.79622 92.0336 6.62913 92.6184C6.25314 93.997 5.52208 95.5845 4.43595 97.3808C4.10173 97.7568 4.77013 98.8429 6.44115 100.639C7.90325 102.018 10.4724 103.814 14.1486 106.028C19.3287 108.952 22.4618 110.561 23.548 110.853C27.809 110.352 32.1327 109.704 36.5191 108.911C38.2736 108.535 40.2371 108.107 42.4094 107.626C44.5817 107.146 48.1534 105.986 53.1247 104.148C53.4588 104.065 53.5633 103.626 53.438 102.832C53.1873 101.287 52.5189 99.4904 51.4328 97.4435C50.3048 97.6106 49.0725 97.715 47.7357 97.7568ZM37.8977 72.8171L52.6234 61.6632L67.3491 72.8171L61.6468 55.0836L76.9364 44.055H58.3257L52.6234 26.9482L46.9211 44.055H28.3104L43.6 55.0836L37.8977 72.8171ZM16.6551 101.892C17.1146 102.31 17.5428 102.488 17.9397 102.425C18.3365 102.362 18.6707 102.112 18.9423 101.673C19.2138 101.235 19.3078 100.827 19.2243 100.451C19.1407 100.075 18.8065 99.7411 18.2217 99.4487L16.6551 101.892ZM40.4669 13.1624C41.4276 12.7865 42.1378 12.5777 42.5974 12.5358C43.0151 12.4941 43.3075 12.5985 43.4747 12.8491L44.7906 15.7316C45.0412 15.9405 45.2501 16.0032 45.4172 15.9196C46.5033 15.7108 47.673 15.5646 48.9263 15.4809C49.1769 15.481 49.3231 15.3557 49.365 15.1049L49.8036 12.1598C49.8871 11.8257 50.096 11.6586 50.4302 11.6585C51.8923 11.5751 53.3544 11.5751 54.8166 11.6585C55.2343 11.6586 55.464 11.8466 55.5059 12.2225L55.9445 15.1049C55.9862 15.3557 56.1324 15.481 56.3831 15.4809C57.6363 15.5646 58.806 15.7108 59.8922 15.9196C60.1846 15.9614 60.3935 15.857 60.5189 15.6062L61.8348 12.9118C62.0018 12.5359 62.2942 12.4106 62.7121 12.5358C64.0906 12.8283 65.4482 13.2878 66.7851 13.9144C67.0775 14.0816 67.2237 14.3113 67.2238 14.6036L66.8478 17.4861C66.8895 17.7786 67.0357 17.9875 67.2864 18.1127C68.2054 18.4888 69.2498 19.011 70.4195 19.6793C70.6283 19.8047 70.8163 19.7838 70.9835 19.6166L72.9887 17.3608C73.0722 17.2773 73.1766 17.2356 73.302 17.2355L73.4273 16.9848C72.4247 16.4836 71.8816 15.6481 71.7981 14.4783L69.3543 13.4757L69.5423 12.2851C67.7459 12.9119 66.242 12.5985 65.0306 11.3452C64.1532 11.0946 63.819 10.4889 64.028 9.52799C63.1088 9.73696 62.1689 9.71607 61.2082 9.46532C59.9131 9.04768 59.2447 8.52549 59.203 7.89876C59.1611 7.27224 59.2656 6.81272 59.5163 6.52019C58.5554 6.01899 57.9392 5.37148 57.6677 4.57765C57.3961 3.78403 57.5423 3.16785 58.1064 2.7291C58.6703 2.29058 59.7042 2.02948 61.2082 1.94582C61.0828 0.859786 61.5005 0.337599 62.4614 0.379262C63.088 0.588249 63.7564 0.776236 64.4666 0.943224C65.1767 1.11044 65.8451 1.5073 66.4718 2.13381C66.8477 1.5073 67.6414 1.40286 68.853 1.8205C70.315 2.48901 72.0696 3.88847 74.1166 6.01889C75.3698 5.14172 76.2053 5.47592 76.6231 7.02149L76.8111 8.3374C77.9807 7.08425 79.2758 7.20958 80.6962 8.71337C81.1556 8.71348 81.7196 8.92235 82.3881 9.34C82.7222 9.173 83.0773 9.11034 83.4533 9.15201C84.4558 9.19389 85.1869 9.71607 85.6465 10.7186C86.106 11.7213 86.3984 12.6821 86.5238 13.601C86.8161 12.4732 87.3383 12.0555 88.0904 12.3478C88.6333 12.9745 89.0929 14.0816 89.4689 15.6689C90.1372 16.5045 90.4923 17.4444 90.5342 18.4887C91.9545 18.0711 93.4792 19.0737 95.1086 21.4965C95.6933 20.7864 96.487 21.1833 97.4897 22.6871C98.158 23.8569 98.5758 25.0893 98.743 26.3842C99.7872 25.9665 100.372 26.99 100.498 29.4547C101.291 31.3346 101.678 32.567 101.657 33.1517C101.636 33.7367 101.521 34.238 101.312 34.6556C101.897 34.238 102.336 34.3633 102.628 35.0316C103.338 36.2014 103.651 37.1622 103.568 37.9141C103.568 38.7079 102.962 39.6478 101.751 40.7339C103.965 40.1074 104.612 40.8175 103.693 42.8644C102.356 44.9115 101.625 46.3318 101.5 47.1255C101.5 48.4206 101.343 49.371 101.03 49.9766C100.717 50.5824 100.017 51.1359 98.931 51.6372C99.098 52.055 99.0771 52.5354 98.8683 53.0784C100.08 51.9923 101.04 51.6372 101.751 52.0132C102.962 51.0524 103.986 50.8644 104.821 51.4492C105.615 52.0341 105.845 53.4544 105.511 55.7102C106.429 57.0889 106.283 58.6345 105.072 60.3473C105.531 60.7651 105.761 61.2873 105.761 61.9138C105.761 62.5405 105.604 63.0314 105.291 63.3864C104.978 63.7415 104.424 64.1697 103.631 64.671C103.839 65.8825 103.86 67.0104 103.693 68.0547C103.484 69.2245 102.544 70.8119 100.874 72.8171C101.249 74.0286 101.082 75.1356 100.372 76.1382C98.5758 78.2688 97.2808 79.5638 96.4871 80.0233C96.9048 80.8588 96.9048 81.5063 96.4871 81.9658C93.8134 83.7204 91.6411 84.6603 89.9702 84.7856C88.5916 84.9528 87.3174 85.5376 86.1478 86.5402L82.5134 90.9266C82.2627 91.6367 81.8658 92.0963 81.3228 92.3051C81.3227 93.1406 81.0512 93.6524 80.5082 93.8404C79.965 94.0284 79.2966 94.185 78.503 94.3103C77.3332 95.1876 76.2262 95.9396 75.1819 96.5662C75.4742 97.9865 75.9546 98.9892 76.6231 99.574C79.6726 100.117 81.636 100.242 82.5134 99.95C83.5995 99.4069 85.6673 97.9239 88.717 95.5009C88.9258 94.5401 89.1555 92.6811 89.4063 89.924C89.4062 89.3809 89.1764 88.9005 88.717 88.4827C88.132 87.8143 88.1112 87.1877 88.6543 86.6029C89.0302 86.1433 90.1372 85.6838 91.9754 85.2243C92.4766 85.1408 92.6646 85.4332 92.5394 86.1015L92.4767 87.6054C92.602 87.8979 93.0615 88.0859 93.8553 88.1694C95.5262 88.0023 97.0301 87.9814 98.367 88.1068C99.1189 88.1903 99.5993 88.3783 99.8083 88.6707C100.309 89.172 100.497 89.7047 100.372 90.2686C100.247 90.8326 100.268 91.4697 100.435 92.1798C100.56 92.9318 100.863 93.8508 101.343 94.937C101.824 96.0231 102.377 96.8586 103.004 97.4435C102.377 98.9056 101.542 100.201 100.498 101.329C93.4375 106.342 89.2077 109.36 87.8084 110.383C86.4088 111.407 85.2913 111.835 84.4559 111.668C77.6883 111.208 72.0278 110.582 67.4744 109.788L68.477 110.54C70.0226 111.751 71.5474 112.712 73.0514 113.422L74.242 113.736L74.8059 114.3C74.8894 114.843 74.5761 115.386 73.866 115.929L72.4874 116.368C71.3594 117.328 70.1479 117.788 68.853 117.746L67.9757 117.433L67.0984 115.804C65.8033 115.553 65.0096 115.24 64.7173 114.864C64.2159 114.362 63.9861 113.924 64.028 113.548C60.3517 110.247 57.7825 108.43 56.3205 108.096L54.6913 109.036C54.0646 109.328 53.3335 109.37 52.4981 109.161C50.7852 108.242 49.8871 107.887 49.8036 108.096L47.6104 109.6C47.3179 109.767 47.1299 110.185 47.0464 110.853C46.6286 111.605 45.7096 112.106 44.2893 112.357L42.4721 113.736C42.472 114.655 42.2423 115.26 41.7828 115.553L39.7149 116.493C39.4642 117.495 38.9629 118.143 38.211 118.435C37.4173 118.686 36.5818 118.686 35.7045 118.435L33.386 117.057L32.5714 116.117C31.903 115.908 31.4434 115.532 31.1928 114.989C30.8586 113.777 31.1301 113.13 32.0074 113.046C32.634 113.339 34.0544 112.65 36.2685 110.979L36.2058 110.289C28.4774 111.459 24.2999 112.023 23.6733 111.981C20.6655 110.686 17.5115 109.057 14.2113 107.093C11.4123 105.464 9.45937 104.253 8.35235 103.459C7.2453 102.665 6.42024 101.997 5.87718 101.454C4.62392 100.201 3.84064 99.2816 3.52734 98.6967C3.21402 98.1119 3.14091 97.6732 3.30802 97.3808C4.56126 95.4592 5.33409 93.8299 5.62653 92.4931C5.71007 92.1589 5.73096 91.7621 5.6892 91.3025C5.35498 90.0493 5.36542 89.2138 5.72053 88.796C6.0756 88.3783 6.52468 88.1694 7.06777 88.1694L13.0207 88.0441V85.9762C13.0625 85.6003 13.2087 85.3705 13.4593 85.2869C14.0442 85.1616 15.0259 85.4332 16.4045 86.1015C17.3235 86.6864 17.7204 87.3339 17.5951 88.0441C17.052 88.9214 16.8222 90.0075 16.9058 91.3025L17.0938 95.0623C20.0598 97.0675 22.3574 98.655 23.9866 99.8246C25.7412 99.7829 27.6628 99.6158 29.7516 99.3233L30.9422 95.9396C29.8978 95.1876 28.7281 94.185 27.4331 92.9318L26.4931 93.0571C25.5741 93.0571 24.8848 92.5558 24.4253 91.5532C23.3391 91.6368 22.2947 90.9057 21.2922 89.36C19.7047 87.5219 18.3888 85.7674 17.3444 84.0963C16.6342 84.3053 15.8614 84.1904 15.0259 83.7517C14.1904 83.3131 13.3131 82.6343 12.3941 81.7152L7.81972 76.3262C4.77013 72.6083 2.61872 67.9712 1.36548 62.4151C1.11482 60.7024 0.968612 59.0732 0.926847 57.5275C0.885062 55.9818 0.885062 55.021 0.926847 54.645C1.09394 53.6842 1.51169 53.0785 2.1801 52.8278C3.55866 52.3683 5.45942 54.833 7.88238 60.2219C9.13561 63.188 10.7648 67.5744 12.7701 73.3811C12.77 72.4621 12.8536 71.543 13.0207 70.6239C12.1016 68.9112 11.3706 67.0522 10.8275 65.047C10.6186 64.4204 10.3575 64.0026 10.0442 63.7937C9.73091 63.5849 9.59514 63.2193 9.63693 62.6971C9.67869 62.175 9.53248 61.4126 9.19829 60.4099C8.57165 58.2795 8.07035 56.7547 7.6944 55.8356C7.10953 55.6268 6.4829 54.8957 5.81452 53.6424C5.14611 52.3892 4.47771 50.4467 3.80932 47.8148C3.26623 45.183 3.09913 42.7183 3.30802 40.4206C3.64221 36.828 4.13306 33.9455 4.78059 31.7732C5.42809 29.601 6.18004 27.7211 7.03644 26.1335C7.89281 24.5462 8.63431 23.3243 9.26096 22.4678C9.88756 21.6115 10.5351 20.7238 11.2035 19.8046C11.8719 18.8857 12.5403 18.1964 13.2087 17.7368C13.9188 17.4862 14.3784 17.6324 14.5873 18.1754C14.9632 19.5123 15.005 21.1206 14.7126 23.0004C15.2556 21.3295 16.2687 19.0528 17.7517 16.1702C19.2347 13.2878 20.937 10.8649 22.8587 8.90136C24.6132 7.31402 25.8247 6.43674 26.4931 6.26954C27.1197 6.10254 27.527 6.20698 27.7151 6.58285C27.903 6.95893 27.8926 7.58555 27.6837 8.46272C26.9735 10.3009 26.3051 11.9093 25.6785 13.2877L24.4253 16.1702C25.4696 14.0398 26.8586 11.9824 28.5923 9.99795C30.326 8.01375 32.2789 6.33231 34.4513 4.95362C36.5818 3.44983 39.0674 2.3428 41.9081 1.63251C44.6234 1.13132 46.2527 1.25665 46.7958 2.00849C46.754 2.92765 46.3571 3.80492 45.6052 4.64031C47.0255 4.68219 47.8819 4.89107 48.1744 5.26694C48.049 6.85449 47.1508 8.37928 45.4799 9.8413C43.8924 11.1364 42.2214 12.1599 40.4669 12.9118V13.1624ZM68.665 116.618L69.7303 116.806C70.691 116.597 71.5265 116.18 72.2368 115.553L73.866 115.052L74.1166 114.738L73.4273 114.613L72.4247 114.864L70.9208 114.613C70.2941 114.738 69.7824 114.885 69.3856 115.052C68.9887 115.219 68.6649 115.49 68.4143 115.866L68.665 116.618ZM16.3418 102.331L15.4019 103.772C15.2765 103.981 15.3183 104.148 15.5272 104.274L15.3392 104.65L13.522 103.522L13.7727 103.146C13.9397 103.271 14.1068 103.25 14.274 103.083L17.0311 98.8847C17.1146 98.6758 17.052 98.5087 16.8431 98.3834L17.0938 98.0074L19.287 99.386C20.0389 99.9709 20.3313 100.65 20.1642 101.423C19.9971 102.195 19.5689 102.759 18.8796 103.114C18.1903 103.47 17.4488 103.313 16.6551 102.644L16.3418 102.331ZM9.76226 101.141L12.8954 103.146L14.086 102.519L13.898 102.206C13.3967 102.415 12.6238 102.164 11.5795 101.454L12.8327 99.5113L13.3967 99.8873C13.6055 100.013 13.6264 100.222 13.4593 100.514L13.8353 100.765L14.7126 99.3233L14.3993 99.1353C14.1904 99.4278 13.9815 99.5113 13.7727 99.386L13.2087 99.01L14.4619 97.0048C15.2556 97.4644 15.6734 97.9239 15.7152 98.3834L16.0285 98.5087L16.2792 97.5061L13.2087 95.5636L13.0207 95.8769C13.3131 96.0022 13.3758 96.2111 13.2087 96.5035L10.5142 100.639C10.3889 100.89 10.2009 100.932 9.95024 100.765L9.76226 101.141ZM9.57427 101.391L9.44895 101.705C8.6552 101.161 8.18523 100.535 8.03904 99.8246C7.89281 99.1145 7.86148 98.1954 7.94504 97.0675L7.88238 97.0048L6.94245 98.4461C6.85888 98.6132 6.90065 98.7385 7.06777 98.822L6.75446 99.2607L4.99991 98.1327L5.31322 97.6941C5.52208 97.8194 5.68918 97.8403 5.81452 97.7568L8.50901 93.621C8.59254 93.4122 8.52988 93.2451 8.32102 93.1198L8.63433 92.6811L10.9528 94.1223C11.7465 94.7072 12.0599 95.3965 11.8928 96.1902C11.7257 96.9839 11.3392 97.5375 10.7335 97.8508C10.1278 98.1641 9.53248 98.1119 8.94765 97.6941C9.03118 98.0283 9.03118 98.5296 8.94765 99.198C8.90585 100.326 9.11473 101.057 9.57427 101.391ZM8.25836 96.4409C8.71786 96.9839 9.16695 97.2242 9.6056 97.1615C10.0442 97.0988 10.3889 96.8168 10.6395 96.3155C10.8902 95.8142 10.9633 95.4069 10.8589 95.0936C10.7544 94.7803 10.3889 94.4566 9.76226 94.1223L8.25836 96.4409ZM20.4149 100.075L22.2948 101.266L22.1694 101.517C21.877 101.391 21.7099 101.433 21.6681 101.642L21.0415 105.402L23.736 103.02C23.9031 102.812 23.8822 102.624 23.6733 102.456L23.7987 102.206L25.1772 103.083L24.9892 103.334C24.7803 103.208 24.5715 103.229 24.3626 103.396L19.5376 107.532L20.4775 101.078C20.5193 100.785 20.4566 100.535 20.2896 100.326L20.4149 100.075ZM17.1564 71.5012L18.535 73.2557C18.2426 71.7937 18.1172 70.3733 18.159 68.9947L17.1564 71.5012ZM21.1668 82.5298L20.4775 83.4071L21.5428 84.8483L22.5454 86.1642C22.9631 86.7491 23.4644 87.1877 24.0493 87.4801L23.736 86.5402L22.7961 84.8483L21.1668 82.5298ZM31.6941 104.587L32.0074 107.219L32.8221 107.093C33.4069 106.968 33.6366 106.446 33.5113 105.527C33.386 104.775 33.0727 104.42 32.5714 104.462L31.6941 104.587ZM31.3808 102.018L31.6315 104.086L32.5087 103.96C32.9264 103.835 33.1144 103.48 33.0727 102.895C32.9891 102.143 32.6967 101.809 32.1954 101.892L31.3808 102.018ZM24.0493 57.0888L25.2399 55.3343C25.5741 54.7077 25.4696 54.4571 24.9266 54.5823C24.5506 54.7495 24.1537 54.9792 23.736 55.2716C23.8613 55.773 23.9657 56.3787 24.0493 57.0888ZM65.2186 111.981C65.9287 112.691 66.8895 113.464 68.101 114.3H68.9783C69.2707 114.049 69.9808 113.924 71.1088 113.924L65.7825 109.976C63.9861 109.475 62.8164 109.37 62.2734 109.663L65.2186 111.981ZM64.9679 113.61C64.8007 113.903 64.9052 114.195 65.2812 114.488C65.6571 114.78 65.9704 114.843 66.2212 114.676L64.9679 113.61ZM7.88238 52.4518L8.13303 52.9531C8.42544 51.0733 8.78053 48.4623 9.19829 45.1203C8.07035 49.632 7.63172 52.0759 7.88238 52.4518ZM29.8769 101.705L32.3834 101.329C33.3442 101.245 33.9499 101.642 34.2006 102.519C34.3259 103.229 34.1588 103.751 33.6993 104.086C34.2841 104.211 34.6392 104.629 34.7646 105.339C35.0987 106.759 34.3259 107.574 32.4461 107.783L30.4409 108.096V107.657C30.7333 107.616 30.8795 107.449 30.8795 107.156L30.3782 102.456C30.3364 102.248 30.1902 102.143 29.9396 102.143L29.8769 101.705ZM25.2399 102.331L27.6837 102.018C28.6445 101.934 29.2711 102.331 29.5636 103.208C29.6889 103.919 29.5218 104.441 29.0623 104.775C29.6889 104.859 30.0649 105.255 30.1902 105.966C30.4408 107.469 29.6471 108.284 27.8091 108.409L25.7412 108.723V108.284C26.0336 108.242 26.1798 108.075 26.1798 107.783L25.7412 103.083C25.6994 102.874 25.5532 102.77 25.3026 102.77L25.2399 102.331ZM27.1198 105.214L27.4331 107.845L28.3104 107.72C28.8116 107.553 28.9996 107.01 28.8743 106.091C28.749 105.381 28.4356 105.047 27.9344 105.088L27.1198 105.214ZM26.8065 102.707L27.0571 104.775L27.8091 104.65C28.3103 104.524 28.5401 104.169 28.4983 103.584C28.4148 102.832 28.1223 102.498 27.6211 102.582L26.8065 102.707ZM17.5324 77.5168L19.4749 80.4619L19.6629 80.0859L17.9084 77.1408L17.5324 77.5168ZM45.3546 99.3233L45.5425 100.577L45.2919 100.639C44.9159 99.8038 44.3101 99.4487 43.4747 99.574C42.3049 99.9917 41.8245 101.141 42.0334 103.02C42.5347 104.817 43.4955 105.506 44.9159 105.088C45.4172 104.838 45.6678 104.315 45.6679 103.522L46.0438 103.334L46.2318 104.838C45.7722 105.297 45.1247 105.61 44.2893 105.778C42.6182 106.028 41.5321 105.423 41.0308 103.96C40.4877 102.289 40.5922 100.994 41.3442 100.075C42.3049 99.1562 43.6417 98.9056 45.3546 99.3233ZM48.6757 98.0701L47.0464 104.086C46.9211 104.378 46.754 104.545 46.5451 104.587L46.6078 104.963L48.3624 104.587V104.211C48.0699 104.253 47.9237 104.211 47.9237 104.086L48.2997 102.77L50.1169 102.331L50.6809 103.271C50.7644 103.564 50.6599 103.751 50.3675 103.835L50.4302 104.211L52.5607 103.71V103.334C52.2265 103.334 51.9967 103.229 51.8714 103.02L48.6757 98.0701ZM38.2737 100.326L40.3415 99.95L40.4669 100.451C40.1744 100.451 40.0282 100.577 40.0282 100.827L40.7175 105.339C40.7175 105.631 40.8846 105.736 41.2188 105.652L41.2815 106.154L39.2763 106.53L39.2136 106.028C39.4642 105.945 39.5896 105.778 39.5896 105.527L38.9003 101.078C38.8167 100.869 38.6496 100.785 38.399 100.827L38.2737 100.326ZM49.7409 101.767L48.3624 102.08L48.8636 100.201L49.7409 101.767ZM34.4513 101.141L36.5191 100.765L36.6445 101.203C36.3102 101.245 36.164 101.391 36.2058 101.642L37.0204 106.279C37.8977 106.112 38.4407 105.715 38.6497 105.088L39.0256 105.151L38.7123 106.655L35.4539 107.281L35.3912 106.843C35.6418 106.759 35.7671 106.571 35.7672 106.279L35.0779 101.83C34.9943 101.621 34.8063 101.537 34.5139 101.579L34.4513 101.141ZM11.2035 45.4963L10.7649 47.3135L10.4515 49.82L11.3288 46.8748L12.5821 43.4911L11.5795 43.679L11.2035 45.4963ZM11.7048 35.3449C11.2035 36.8907 10.8066 38.6035 10.5142 40.4833L12.2061 35.9716L11.7048 35.3449ZM14.2113 36.9115L12.8954 40.9846L13.3967 41.0472C13.8562 39.7523 14.5246 38.2901 15.4019 36.6608L14.2113 36.9115ZM39.7776 115.114L40.2789 115.428L40.8428 115.114L41.3442 114.425L41.2188 114.112L40.9055 114.174L39.8403 114.864L39.7776 115.114ZM71.3595 93.621C71.3176 94.6237 71.2132 95.3338 71.0462 95.7516L72.2368 95.2503L71.3595 93.621ZM81.0722 78.958C80.4454 79.3758 80.3515 79.7727 80.7902 80.1486C81.2287 80.5246 81.5525 80.5037 81.7615 80.0859L82.2627 79.4593L81.0722 78.958ZM94.8579 94.4983L95.7979 100.514C95.8395 100.723 95.7351 100.932 95.4845 101.141L95.6099 101.517L97.3644 100.326L97.1764 100.075C96.7586 100.326 96.5497 100.326 96.5498 100.075L96.2991 99.0727L97.991 97.9448L98.8683 98.5087C99.0353 98.6341 98.9935 98.7803 98.743 98.9474L98.9936 99.386L100.999 98.0701L100.686 97.6941C100.518 97.7777 100.289 97.7777 99.9962 97.6941L94.8579 94.4983ZM88.529 100.201L90.7849 103.772C90.8683 104.023 90.8056 104.232 90.5969 104.399L90.8475 104.712L92.3514 103.772L92.1008 103.459C91.85 103.584 91.6411 103.564 91.4741 103.396L89.7823 100.639L95.3592 101.955L92.4141 97.6941C92.2469 97.3181 92.3095 96.9631 92.6021 96.6288L92.2887 96.3155L90.7222 97.3181L90.9728 97.7568C91.2234 97.6315 91.4949 97.6941 91.7875 97.9448L92.9154 99.8246L88.529 98.7594L87.3384 99.6993L87.5264 100.013C87.8605 99.9291 88.1947 99.9918 88.529 100.201ZM97.4271 97.5688L96.2365 98.3834L95.8605 96.5662L97.4271 97.5688ZM84.6439 101.329L85.5839 107.344C85.5838 107.637 85.4793 107.866 85.2706 108.033L85.3959 108.472L87.1504 107.219L86.8998 106.968C86.5655 107.135 86.3775 107.114 86.3358 106.905L86.0852 105.966L87.777 104.838L88.529 105.339C88.696 105.464 88.6751 105.59 88.4663 105.715L88.7796 106.216L90.6595 104.9L90.3462 104.524C90.179 104.608 89.991 104.629 89.7823 104.587L84.6439 101.329ZM87.1504 104.462L85.9598 105.276L85.5839 103.396L87.1504 104.462ZM81.5108 102.519L83.6413 102.707L83.5787 103.208C83.2861 103.25 83.0982 103.417 83.0147 103.71L82.8267 107.908C82.8684 108.159 83.0146 108.305 83.2654 108.347L83.2027 108.911L81.0095 108.723L81.0722 108.159C81.4063 108.159 81.6152 108.033 81.6988 107.783L81.8868 103.584C81.8867 103.292 81.7614 103.104 81.5108 103.02V102.519ZM65.6572 100.389L65.2186 101.642L65.5319 101.83C65.7824 101.37 66.3464 101.245 67.2238 101.454L66.4091 105.84C66.2837 106.133 66.054 106.258 65.7199 106.216L65.6572 106.655L67.8504 107.031L67.913 106.592C67.6205 106.509 67.4952 106.321 67.5371 106.028L68.289 101.642C69.1662 101.725 69.6675 102.039 69.7929 102.582L70.1689 102.519L70.2316 101.141C68.6858 100.973 67.161 100.723 65.6572 100.389ZM62.8374 99.8873L64.9052 100.263L64.7799 100.702C64.4456 100.66 64.2577 100.806 64.216 101.141L63.5893 105.339C63.5475 105.59 63.6728 105.736 63.9653 105.778L63.9026 106.342L61.7095 106.028L61.7721 105.464C62.1062 105.506 62.3151 105.402 62.3987 105.151L63.0254 100.953C63.0671 100.66 62.9835 100.451 62.7747 100.326L62.8374 99.8873ZM85.3959 80.3366L83.892 83.1564L85.3959 81.4019V80.3366ZM84.4559 73.4437L84.2053 75.8249L84.8319 74.7596C84.6229 74.509 84.4976 74.0704 84.4559 73.4437ZM89.7823 81.2139L88.8423 82.2165C88.8004 82.8431 89.0511 82.8849 89.5943 82.3418L89.7823 81.2139ZM89.1556 44.6816C88.9049 45.5172 88.8213 46.0498 88.905 46.2795C88.9884 46.5094 89.166 46.6765 89.4376 46.7808C89.709 46.8853 89.9493 46.9376 90.1582 46.9375C89.6568 46.2274 89.3226 45.4754 89.1556 44.6816ZM96.3618 45.4336C96.3617 45.8932 96.6959 46.2274 97.3644 46.4362L96.3618 45.4336ZM29.2503 88.984C30.5035 90.2791 31.4434 91.0728 32.0701 91.3652C32.3625 90.655 32.822 90.112 33.4487 89.736C34.0335 89.4436 37.5008 90.6342 43.8507 93.3077L46.9211 96.6288C47.297 96.796 47.8819 96.7333 48.6757 96.4409C49.9706 95.6054 51.2656 95.3338 52.5607 95.6263C53.9392 94.9161 54.9001 94.7699 55.4432 95.1876C56.1951 95.856 56.9053 96.3782 57.5737 96.7542H60.0176C61.3961 94.9161 62.4613 93.8091 63.2134 93.4331C67.5161 91.3026 70.3777 90.0493 71.7981 89.6733C72.0487 89.6316 72.2158 89.6942 72.2994 89.8613C72.8842 90.4044 73.2184 90.8013 73.302 91.0519C74.7223 90.1746 75.5369 89.36 75.7459 88.608C76.1217 87.6055 76.905 86.5089 78.0957 85.3183C79.2862 84.1277 79.7979 83.052 79.6309 82.0912L79.3803 79.7726C79.8397 79.0625 80.1739 78.6656 80.3829 78.5821L80.0069 78.3314C79.7562 78.2061 79.5264 78.2479 79.3176 78.4567C78.5656 79.2505 77.6674 80.0233 76.6231 80.7752C76.4142 80.8588 76.3724 81.0259 76.4978 81.2765L77.6884 83.971C77.8554 84.3053 77.7719 84.5768 77.4377 84.7856C76.268 85.6212 75.0356 86.4358 73.7407 87.2295C73.4899 87.3966 73.2393 87.3757 72.9887 87.1668L70.9835 84.911C70.8163 84.7439 70.6283 84.723 70.4195 84.8483C69.2498 85.5167 68.2054 86.0389 67.2864 86.4149C67.0357 86.5402 66.8895 86.7491 66.8478 87.0415L67.2238 89.924C67.2655 90.3 67.1192 90.5297 66.7851 90.6133C65.4482 91.2399 64.0906 91.6994 62.7121 91.9918C62.2942 92.1172 62.0018 91.9918 61.8348 91.6158L60.5189 88.9214C60.3935 88.6707 60.1846 88.5663 59.8922 88.608C58.806 88.8169 57.6363 88.9632 56.3831 89.0467C56.1324 89.0467 55.9862 89.172 55.9445 89.4227L55.5059 92.3051C55.464 92.6811 55.2343 92.8691 54.8166 92.8691C53.3544 92.9527 51.8923 92.9527 50.4302 92.8691C50.096 92.8691 49.8871 92.702 49.8036 92.3678L49.365 89.4227C49.3231 89.172 49.1769 89.0467 48.9263 89.0467C47.7148 89.0049 46.5451 88.8587 45.4172 88.608C45.1247 88.4827 44.9159 88.5454 44.7906 88.796L43.4747 91.6785C43.3075 91.9292 43.0151 92.0336 42.5974 91.9918C41.177 91.6994 39.8402 91.2817 38.587 90.7386C38.1692 90.6133 37.9812 90.3626 38.023 89.9866L38.399 86.9788C38.4407 86.6864 38.3363 86.4775 38.0857 86.3522C37.0413 85.9345 35.976 85.4123 34.8899 84.7856C34.681 84.6186 34.493 84.6395 34.326 84.8483L32.3834 87.0415C32.1327 87.2504 31.8612 87.2504 31.5688 87.0415C30.232 86.3731 28.9787 85.6003 27.8091 84.723C27.5584 84.5141 27.4748 84.2426 27.5584 83.9084L28.8743 81.2765C28.9578 81.0259 28.8952 80.8379 28.6863 80.7126C27.6837 80.0024 26.7855 79.2296 25.9918 78.3941C25.8247 78.1434 25.6367 78.0808 25.4279 78.2061L24.4253 78.77C24.843 78.8536 25.2816 79.146 25.7412 79.6473C25.8665 79.8144 25.9083 80.0442 25.8665 80.3366L25.5532 82.2791C25.3025 83.6995 25.8874 85.2034 27.3078 86.7908L29.2503 88.984ZM24.1746 59.4073L24.5506 58.718C24.8012 58.2168 24.9057 58.2377 24.8639 58.7807L24.3 60.3473C24.467 61.141 24.5715 62.6867 24.6133 64.9843C25.3234 62.1854 25.7412 59.846 25.8665 57.9661C25.95 56.6711 25.6785 56.3369 25.0519 56.9635L24.112 58.1541L24.1746 59.4073ZM18.723 42.1125L18.2217 42.6764H44.0386L41.9708 42.1125H18.723ZM20.0389 40.4833L19.5376 41.0472H37.9604L35.8298 40.4833H20.0389ZM21.3548 38.854L20.9162 39.418H31.7568L29.6263 38.854H21.3548ZM21.9188 37.7888H26.0545L26.3678 37.2248H22.2948L21.9188 37.7888ZM63.4013 42.1125L61.3335 42.6764H87.3384L86.8998 42.1125H63.4013ZM69.5423 40.4833L67.4117 41.0472H86.1478L85.5839 40.4833H69.5423ZM75.7459 38.854L73.6153 39.418H85.0826L84.268 38.854H75.7459ZM81.9494 37.2248H79.0043L79.3176 37.7888H82.8267L81.9494 37.2248ZM17.1564 43.7417L16.2792 44.3057H26.1798L25.4279 43.7417H17.1564ZM16.4671 45.3709L17.7204 45.9349H28.4357L27.6837 45.3709H16.4671ZM16.9684 47.0002L16.8431 47.5641H30.6915L29.8769 47.0002H16.9684ZM16.6551 48.6294L16.5925 49.1933H22.7961L22.9214 48.6294H16.6551ZM16.8431 50.2586C16.7178 50.5511 16.3627 50.7391 15.7779 50.8226H22.6081L22.6707 50.2586H16.8431ZM12.7074 51.8878V52.4518H21.1042C21.2712 52.2012 21.4383 52.0132 21.6055 51.8878H12.7074ZM12.6447 53.5171V54.081H20.2269L20.4775 53.5171H12.6447ZM12.7074 55.1463V55.7102H19.6629L19.7883 55.1463H12.7074ZM16.4045 56.7755C16.5716 56.8173 16.676 57.0053 16.7178 57.3395H19.2243L19.4123 56.7755H16.4045ZM16.6551 58.9687H17.971L18.4097 58.4047H16.5925L16.6551 58.9687ZM16.8431 60.034L16.9058 60.5979L17.2191 60.034H16.8431ZM13.71 63.2924C13.6682 63.4595 13.6682 63.6475 13.71 63.8564H15.1512L15.4645 63.2924H13.71ZM13.9606 64.9216L14.086 65.4856H14.5246L14.7126 64.9216H13.9606ZM79.8189 43.7417L79.067 44.3057H87.965L88.0904 43.7417H79.8189ZM77.5631 45.3709L76.8111 45.9349H87.8397V45.3709H77.5631ZM75.3699 47.0002L74.5553 47.5641H88.4037L87.965 47.0002H75.3699ZM82.3254 48.6294L82.4507 49.1933H88.6543L88.5917 48.6294H82.3254ZM82.5761 50.2586L82.6387 50.8226H88.9676C88.7169 50.7391 88.5916 50.5511 88.5917 50.2586H82.5761ZM82.7014 51.8878V52.4518H92.5394V51.8878H82.7014ZM87.777 53.5171L88.153 54.081H92.6021V53.5171H87.777ZM88.4663 55.1463L88.5917 55.7102H92.5394V55.1463H88.4663ZM88.4663 56.7755L88.529 57.3395C88.5707 57.0053 88.6751 56.8173 88.8423 56.7755H88.4663ZM88.6543 58.4047H88.4663L88.5917 58.9687L88.6543 58.4047ZM87.965 60.5979H88.341L88.4037 60.034L87.965 60.5979ZM87.777 61.6632V62.2271H89.1556L88.2784 61.6632H87.777ZM87.5891 63.2924L87.9024 63.8564L88.6543 63.2924H87.5891ZM90.1582 63.2924L90.4715 63.8564H91.2861L91.3488 63.2924H90.1582ZM89.5316 49.9453C89.5733 50.196 89.6986 50.3631 89.9076 50.4466L92.3514 50.8226C91.5576 49.82 90.9101 48.7965 90.4089 47.7521L89.281 47.5015C89.4062 48.337 89.4897 49.1516 89.5316 49.9453ZM25.2399 48.6294L26.6185 49.1933H32.9474L32.1328 48.6294H25.2399ZM29.4383 50.2586L30.8169 50.8226H35.2032L34.4513 50.2586H29.4383ZM33.6993 51.8878L35.0779 52.4518H37.4591L36.7071 51.8878H33.6993ZM37.8977 53.5171L39.2763 54.081H39.7149L38.963 53.5171H37.8977ZM73.114 48.6294L72.2994 49.1933H78.6283L80.0069 48.6294H73.114ZM70.7955 50.2586L70.0436 50.8226H74.4299L75.8085 50.2586H70.7955ZM68.5397 51.8878L67.7877 52.4518H70.1689L71.5475 51.8878H68.5397ZM66.2838 53.5171L65.5319 54.081H65.9705L67.3491 53.5171H66.2838ZM47.4851 24.191L47.4224 24.755H51.8714L52.0594 24.191H47.4851ZM30.3156 19.3033L30.0649 19.8673H33.5113L33.01 19.3033H30.3156ZM47.4851 23.1257H52.4354L52.6234 22.5618H47.5477L47.4851 23.1257ZM47.2971 27.4495L47.2344 28.0134H50.8062L50.9942 27.4495H47.2971ZM47.2344 29.0787L47.1718 29.6426H50.2422L50.4302 29.0787H47.2344ZM47.1091 30.7079L47.0464 31.2719H49.6783L49.8662 30.7079H47.1091ZM47.0464 32.3371L46.9838 32.9011H49.177L49.365 32.3371H47.0464ZM46.9838 33.9664L46.9211 34.5303H48.613L48.801 33.9664H46.9838ZM46.8584 35.5956L46.7958 36.1595H48.1117L48.237 35.5956H46.8584ZM46.7958 37.2248L46.7331 37.7888H47.5477L47.7357 37.2248H46.7958ZM46.7331 38.854L46.6705 39.418H46.9838L47.1718 38.854H46.7331ZM53.1874 24.191L53.3753 24.755H57.8244L57.7617 24.191H53.1874ZM53.7513 25.8202L53.9393 26.3842H57.8871V25.8202H53.7513ZM57.6991 22.5618H52.6234L52.8114 23.1257H57.7617L57.6991 22.5618ZM54.2526 27.4495L54.4406 28.0134H58.0124L57.9497 27.4495H54.2526ZM54.8166 29.0787L55.0046 29.6426H58.075L58.0124 29.0787H54.8166ZM55.3805 30.7079L55.5685 31.2719H58.1377V30.7079H55.3805ZM55.8819 32.3371L56.0698 32.9011H58.263L58.2004 32.3371H55.8819ZM56.4458 33.9664L56.6338 34.5303H58.3257L58.263 33.9664H56.4458ZM57.0098 35.5956L57.1351 36.1595H58.3883V35.5956H57.0098ZM57.5111 37.2248L57.6991 37.7888H58.5137L58.451 37.2248H57.5111ZM58.075 38.854L58.263 39.418H58.5763L58.5137 38.854H58.075ZM40.7175 58.4047L40.3415 58.9687H40.9055L41.0935 58.4047H40.7175ZM39.6523 60.034L39.2763 60.5979H40.4042L40.5922 60.034H39.6523ZM38.587 61.6632L38.2737 62.2271H39.9029L40.0909 61.6632H38.587ZM37.5844 63.2924L37.2084 63.8564H39.339L39.5269 63.2924H37.5844ZM36.5191 64.9216L36.1432 65.4856H38.8377L39.0256 64.9216H36.5191ZM35.4539 66.5508L35.0779 67.1148H38.3363L38.5243 66.5508H35.4539ZM34.3886 68.1801L34.0126 68.744H37.7724L37.9604 68.1801H34.3886ZM33.3234 69.8093L32.9474 70.3733H37.2711L37.4591 69.8093H33.3234ZM32.2581 71.4385L31.8821 72.0025H36.7698L36.9578 71.4385H32.2581ZM50.7435 64.9216L49.9916 65.4856H50.3049L50.7435 64.9216ZM48.5503 66.5508L47.861 67.1148H48.989L49.4276 66.5508H48.5503ZM46.4198 68.1801L45.6679 68.744H47.6731L48.1117 68.1801H46.4198ZM44.2893 69.8093L43.5373 70.3733H46.3571L46.7958 69.8093H44.2893ZM42.0961 71.4385L41.4068 72.0025H45.0412L45.4799 71.4385H42.0961ZM39.9656 73.0677L39.2136 73.6317H43.7253L44.164 73.0677H39.9656ZM37.8351 74.697L37.0831 75.2609H42.4094L42.848 74.697H37.8351ZM35.2659 76.6395L35.3286 76.3262H21.7935L21.4175 76.8902H41.0935L41.5321 76.3262H35.7045L35.2659 76.6395ZM22.984 73.6317H36.2058L36.3938 73.0677H23.2974L22.984 73.6317ZM22.6707 74.697L22.3574 75.2609H35.7045L35.8925 74.697H22.6707ZM23.736 71.4385L23.548 72.0025H30.3156L29.7516 71.4385H23.736ZM23.9866 69.8093L23.8613 70.3733H28.8117L28.373 69.8093H23.9866ZM24.3 68.1801L24.112 68.744H27.4957L27.1824 68.1801H24.3ZM24.8013 66.5508L24.5506 67.1148H26.5558L26.3052 66.5508H24.8013ZM25.3652 64.9216L24.9892 65.4856H25.8039L25.6785 64.859L25.3652 64.9216ZM64.1533 58.4047L64.3413 58.9687H64.9052L64.5293 58.4047H64.1533ZM64.6546 60.034L64.8426 60.5979H65.9705L65.5945 60.034H64.6546ZM80.6962 61.6632L80.5082 62.2271H81.5735L81.1975 61.6632H80.6962ZM80.1322 63.2924L79.9442 63.8564H82.2627L82.0121 63.2924H80.1322ZM66.2212 64.9216L66.4091 65.4856H69.1036L68.7277 64.9216H66.2212ZM66.7225 66.5508L66.9104 67.1148H70.1689L69.7929 66.5508H66.7225ZM67.2864 68.1801L67.4744 68.744H71.2342L70.8582 68.1801H67.2864ZM67.7877 69.8093L67.9757 70.3733H72.2994L71.9234 69.8093H67.7877ZM68.289 71.4385L68.477 72.0025H73.3647L72.9887 71.4385H68.289ZM54.9419 65.4856H55.2552L54.5033 64.9216L54.9419 65.4856ZM55.8192 66.5508L56.2578 67.1148H57.3857L56.6965 66.5508H55.8192ZM57.1351 68.1801L57.5737 68.744H59.5789L58.827 68.1801H57.1351ZM58.451 69.8093L58.8896 70.3733H61.7095L60.9575 69.8093H58.451ZM59.7669 71.4385L60.2056 72.0025H63.84L63.1507 71.4385H59.7669ZM61.0828 73.0677L61.5215 73.6317H66.0332L65.2812 73.0677H61.0828ZM62.3987 74.697L62.8374 75.2609H68.1637L67.4117 74.697H62.3987ZM69.5423 76.3262H63.7147L64.1533 76.8902H83.6413L83.5787 76.3262H69.9182L69.9809 76.6395L69.5423 76.3262ZM83.7667 73.0677H68.853L69.041 73.6317H83.6413L83.7667 73.0677ZM69.3543 74.697L69.5423 75.2609H83.516L83.5787 74.697H69.3543ZM75.4952 71.4385L74.9312 72.0025H82.952L82.2627 71.4385H75.4952ZM76.8738 69.8093L76.4351 70.3733H81.2602L80.8842 69.8093H76.8738ZM77.8764 68.1801L77.5631 68.744H80.6335L80.6962 68.3681L80.4455 68.1801H77.8764ZM78.7537 66.5508L78.503 67.1148H80.1322L80.0069 66.5508H78.7537ZM82.8267 65.047L82.7014 64.859L82.4507 64.9216L82.8267 65.047ZM65.7199 63.2924L65.9078 63.8564H68.0384L67.6624 63.2924H65.7199ZM79.255 65.4856H80.1949L80.6335 64.859L79.5683 64.9216L79.255 65.4856ZM65.1559 61.6632L65.3439 62.2271H66.9731L66.6598 61.6632H65.1559ZM50.4929 12.7864L50.3675 13.3504H54.8792L54.8166 12.7864H50.4929ZM50.2422 14.4157L50.1796 14.9796H55.0672L55.0046 14.4157H50.2422ZM39.151 17.6741C39.2762 17.8831 39.2136 18.0711 38.963 18.2381H66.4718C66.0958 18.0293 65.9287 17.8413 65.9705 17.6741H39.151ZM37.1458 19.3033L36.0178 19.8673H69.2916C68.9573 19.6585 68.6231 19.4705 68.289 19.3033H37.1458ZM29.313 20.9326L28.9996 21.4965H76.5605L76.8738 20.9326H29.313ZM28.4983 22.5618L28.185 23.1257H43.224C44.1012 22.8752 44.8532 22.6872 45.4799 22.5618H28.4983ZM27.6211 24.191L27.3078 24.755H38.6497L39.9029 24.191H27.6211ZM26.8065 25.8202V26.3842H35.7045L36.5818 25.8202H26.8065ZM26.6811 27.4495L26.5558 28.0134H33.574L34.326 27.4495H26.6811ZM26.3678 29.0787L26.1172 29.6426H31.8195L32.3834 29.0787H26.3678ZM25.7412 30.7079L25.5532 31.2719H30.3156L30.7542 30.7079H25.7412ZM25.0519 32.3371L24.7386 32.9011H28.8117L29.313 32.3371H25.0519ZM24.1746 33.9664L23.7987 34.5303H27.6837L28.1224 33.9664H24.1746ZM23.2347 35.5956L22.9214 36.1595H26.6811L26.9944 35.5956H23.2347ZM47.3597 25.8202V26.3842H51.3075L51.4955 25.8202H47.3597ZM31.1302 17.6741L30.8795 18.2381H32.1328L31.6315 17.6741H31.1302ZM41.8455 13.3504H43.036C42.9107 13.2252 42.7645 13.1625 42.5974 13.1624C42.4302 13.1625 42.1796 13.2252 41.8455 13.3504ZM38.6497 14.9796H43.8507L43.6 14.4157H38.587L38.6497 14.9796ZM38.963 16.6088H44.4146C44.331 16.4836 44.1848 16.2747 43.976 15.9822H38.8377L38.963 16.6088ZM63.464 13.3504C63.088 13.1834 62.8269 13.0998 62.6807 13.0997C62.5344 13.0998 62.3987 13.1834 62.2734 13.3504H63.464ZM66.5971 14.4157H61.7095L61.4588 14.9796H66.5345L66.5971 14.4157ZM66.4091 15.9822H61.0828C61.041 16.2747 60.9366 16.4836 60.7695 16.6088H66.3465L66.4091 15.9822ZM48.7383 16.0449C47.5268 16.1285 46.2318 16.3165 44.8532 16.6088H60.3935C58.9731 16.3165 57.6154 16.1285 56.3205 16.0449H48.7383ZM59.3909 22.5618C60.1011 22.6872 60.8948 22.8752 61.7721 23.1257H75.9338L76.2472 22.5618H59.3909ZM65.0932 24.191L66.4718 24.755H77.0618L76.3098 24.191H65.0932ZM68.289 25.8202L69.2916 26.3842H78.8163L78.1897 25.8202H68.289ZM70.8582 27.4495L71.6728 28.0134H80.8842L80.9468 27.4495H70.8582ZM72.6754 29.0787L73.3647 29.6426H81.1348L80.8842 29.0787H72.6754ZM74.4299 30.7079L74.9939 31.2719H80.1322C80.0904 31.1049 80.1113 30.9169 80.1949 30.7079H74.4299ZM75.9965 32.3371L76.4351 32.9011H80.6962L80.3829 32.3371H75.9965ZM77.2498 33.9664L77.6257 34.5303H80.5709C80.6543 34.2798 80.9259 34.0918 81.3855 33.9664H77.2498ZM78.315 35.5956L78.6283 36.1595H80.5709L80.3829 35.5956H78.315ZM73.866 19.0527C73.6988 19.4288 74.7849 19.5958 77.1244 19.554C77.2497 19.2617 77.4585 19.0737 77.7511 18.99L76.6858 18.1127L74.9939 17.9248C74.1165 18.4262 73.7406 18.8021 73.866 19.0527ZM72.2368 19.3033L71.7981 19.8673H73.866C73.3228 19.8256 73.0513 19.6376 73.0514 19.3033H72.2368ZM73.678 17.6741L73.1767 18.1754H73.3647L73.8033 17.6741H73.678ZM45.9812 23.1257C44.3519 23.4183 42.9315 23.7733 41.7201 24.191H46.8584L46.9211 23.1257H45.9812ZM40.2162 24.755C39.2554 25.1728 38.5243 25.5279 38.023 25.8202H46.7958L46.8584 24.755H40.2162ZM37.0204 26.3842C36.3938 26.802 35.8298 27.1571 35.3286 27.4495H46.6705L46.7331 26.3842H37.0204ZM34.6393 28.0134C34.2215 28.3477 33.8037 28.7028 33.386 29.0787H46.6078L46.6705 28.0134H34.6393ZM32.7594 29.6426L31.6941 30.7079H46.4825L46.6078 29.6426H32.7594ZM31.1302 31.2719L30.2529 32.3371H46.4198L46.4825 31.2719H31.1302ZM29.8143 32.9011L28.9996 33.9664H46.3571L46.4198 32.9011H29.8143ZM28.6237 34.5303L27.9344 35.5956H46.2945V34.5303H28.6237ZM26.9944 37.2248H46.1692L46.2318 36.1595H27.6211L26.9944 37.2248ZM27.4957 37.7888L31.5688 38.854H46.1065L46.1692 37.7888H27.4957ZM33.6993 39.418L37.7097 40.4833H46.0438L46.1065 39.418H33.6993ZM39.8403 41.0472L43.788 42.1125H45.9185L45.9812 41.0472H39.8403ZM58.3257 23.1257L58.3883 24.191H63.5267C62.3151 23.7733 60.8948 23.4183 59.2656 23.1257H58.3257ZM58.3883 24.755L58.451 25.8202H67.2238C66.7224 25.5279 65.9913 25.1728 65.0306 24.755H58.3883ZM58.5137 26.3842L58.5763 27.4495H69.9182C69.4169 27.1571 68.8529 26.802 68.2264 26.3842H58.5137ZM58.5763 28.0134L58.639 29.0787H71.8608C71.4429 28.7028 71.0252 28.3477 70.6075 28.0134H58.5763ZM58.639 29.6426L58.7643 30.7079H73.5527L72.4874 29.6426H58.639ZM58.7643 31.2719L58.827 32.3371H74.9939L74.1166 31.2719H58.7643ZM58.827 32.9011L58.8896 33.9664H76.2472L75.4325 32.9011H58.827ZM58.9523 34.5303V35.5956H77.3124L76.6231 34.5303H58.9523ZM77.6257 36.1595H59.015L59.0776 37.2248H78.2523L77.6257 36.1595ZM59.0776 37.7888L59.1403 38.854H73.678L77.7511 37.7888H59.0776ZM59.1403 39.418L59.203 40.4833H67.5371L71.5475 39.418H59.1403ZM59.2656 41.0472L59.3283 42.1125H61.4588L65.4065 41.0472H59.2656ZM50.2422 90.9892L50.3049 91.5532H55.0672L55.1299 90.9892H50.2422ZM49.9916 89.36L50.0542 89.924H55.3179L55.3805 89.36H49.9916ZM44.7906 87.7308C46.2109 88.065 47.3806 88.253 48.2997 88.2947H56.5085C57.5528 88.2112 58.7016 88.0232 59.9549 87.7308H44.7906ZM38.7123 89.36L38.6497 89.924H43.5373L43.788 89.36H38.7123ZM38.963 87.7308L38.8377 88.2947H44.2893C44.3728 88.0023 44.4981 87.8143 44.6653 87.7308H38.963ZM41.4695 90.9892L42.2841 91.2399C42.6182 91.2817 42.8689 91.1981 43.036 90.9892H41.4695ZM38.6497 86.1015C38.942 86.2269 39.0882 86.4149 39.0883 86.6655H66.0958C66.0958 86.4567 66.3255 86.2687 66.7851 86.1015H38.6497ZM35.5165 84.4723L36.7071 85.0363H68.853L69.7929 84.4723H35.5165ZM61.4588 89.36L61.7095 89.924H66.5971L66.5345 89.36H61.4588ZM60.5815 87.7308C60.7486 87.8143 60.8739 88.0023 60.9575 88.2947H66.4091L66.2838 87.7308H60.5815ZM62.2108 90.9892C62.3778 91.1981 62.6284 91.2817 62.9627 91.2399L63.7773 90.9892H62.2108ZM28.8743 82.8431L28.561 83.4071H76.7485L76.4978 82.8431H28.8743ZM60.3309 81.2139C59.7042 81.4228 58.6389 81.6108 57.1351 81.7778H76.0592L75.7459 81.2139H60.3309ZM64.9052 79.5846L63.7147 80.1486H76.3725L77.0618 79.5846H64.9052ZM65.3439 77.9554L65.7199 78.5194H78.3777L78.9416 77.9554H65.3439ZM29.6263 81.2139L29.313 81.7778H48.237C46.7331 81.6108 45.6678 81.4228 45.0412 81.2139H29.6263ZM28.3104 79.5846L28.9996 80.1486H41.6575L40.4669 79.5846H28.3104ZM26.4305 77.9554L26.9944 78.5194H39.6523L40.0282 77.9554H26.4305ZM31.0675 86.1015L31.5061 86.3522C31.8403 86.4775 32.091 86.4567 32.2581 86.2895L32.4461 86.1015H31.0675ZM28.373 84.4723L29.2503 85.0363H33.4487L33.95 84.4723H28.373ZM22.0441 77.9554L22.4827 78.5194H23.2974L24.0493 77.9554H22.0441ZM72.926 86.1015L73.114 86.2895C73.2811 86.4567 73.5317 86.4775 73.866 86.3522L74.3046 86.1015H72.926ZM71.4221 84.4723L71.9234 85.0363H76.1218L76.9991 84.4723H71.4221ZM81.0095 77.9554L82.0748 78.5194H82.5761L83.0147 77.9554H81.0095ZM80.2576 49.1933L77.4377 50.2586H81.8241L81.7615 49.1933H80.2576ZM75.9965 50.8226L73.1767 51.8878H81.9494L81.8868 50.8226H75.9965ZM71.7355 52.4518L68.9783 53.5171H81.9494V52.4518H71.7355ZM67.5371 54.081L64.7173 55.1463H81.8241L81.9494 54.081H67.5371ZM63.276 55.7102L63.9653 56.7755H81.6361L81.7615 55.7102H63.276ZM64.3413 57.3395L65.0306 58.4047H79.6309C79.5891 57.8617 79.6726 57.5066 79.8816 57.3395H64.3413ZM65.4065 58.9687L66.0958 60.034H80.1949C80.0277 59.7416 79.8815 59.3865 79.7563 58.9687H65.4065ZM66.4718 60.5979L67.1611 61.6632H80.2576L80.5709 60.7232L80.5082 60.5979H66.4718ZM67.5371 62.2271L68.2264 63.2924H79.6309L80.0696 62.2271H67.5371ZM68.6023 63.8564L69.2916 64.9216H79.0043L79.4429 63.8564H68.6023ZM69.6676 65.4856L70.3569 66.5508H78.1897L78.7537 65.4856H69.6676ZM70.7329 67.1148L71.4221 68.1801H77.3124L77.939 67.1148H70.7329ZM71.7981 68.744L72.4247 69.8093H76.1845L76.9991 68.744H71.7981ZM72.8007 70.3733L73.5527 71.4385H74.8686L75.8085 70.3733H72.8007ZM73.866 72.0025L74.054 72.2531L74.3046 72.0025H73.866ZM23.4853 49.1933L23.36 50.2586H27.8091L24.9892 49.1933H23.4853ZM23.2974 50.8226V51.8878H32.0701L29.2503 50.8226H23.2974ZM23.2974 52.4518V53.5171H36.2685L33.5113 52.4518H23.2974ZM25.9292 54.081C26.138 54.2482 26.138 54.6033 25.9292 55.1463H40.5295L37.7097 54.081H25.9292ZM25.6785 55.7102L25.5532 55.8982C25.7203 55.773 25.8978 55.7207 26.0858 55.7416C26.2738 55.7625 26.4304 56.1072 26.5558 56.7755H41.2815L41.9708 55.7102H25.6785ZM26.5558 57.3395V58.4047H40.2162L40.9055 57.3395H26.5558ZM26.5558 58.9687L26.4305 60.034H39.151L39.8403 58.9687H26.5558ZM26.3678 60.5979L26.1798 61.6632H38.0857L38.775 60.5979H26.3678ZM26.0545 62.2271L25.8039 63.2924H37.0204L37.7097 62.2271H26.0545ZM25.6785 63.8564V63.919L26.0545 64.9216H35.9552L36.6445 63.8564H25.6785ZM26.2425 65.4856L26.8065 66.5508H34.8899L35.5792 65.4856H26.2425ZM27.0571 67.1148L27.6837 68.1801H33.8246L34.5139 67.1148H27.0571ZM28.0597 68.744L28.8743 69.8093H32.8221L33.4487 68.744H28.0597ZM29.3756 70.3733L30.3156 71.4385H31.6941L32.4461 70.3733H29.3756ZM30.9422 72.0025L31.1928 72.2531L31.3808 72.0025H30.9422ZM52.3101 63.8564L51.4955 64.9216H53.814L52.9367 63.8564H52.3101ZM50.9942 65.4856L50.1796 66.5508H55.1299L54.2526 65.4856H50.9942ZM49.6783 67.1148L48.801 68.1801H56.4458L55.5685 67.1148H49.6783ZM48.3624 68.744L47.5477 69.8093H57.7617L56.8844 68.744H48.3624ZM47.0464 70.3733L46.2318 71.4385H59.0776L58.2004 70.3733H47.0464ZM45.7305 72.0025L44.9159 73.0677H60.3935L59.5163 72.0025H45.7305ZM44.4146 73.6317L43.5373 74.697H61.7095L60.8322 73.6317H44.4146ZM43.0987 75.2609L42.2214 76.3262H63.0254L62.1481 75.2609H43.0987ZM41.7828 76.8902L40.9055 77.9554H64.2786L63.464 76.8902H41.7828ZM40.4669 78.5194L40.1536 78.8327L41.7201 79.5846H63.5893L65.0306 78.8327L64.7799 78.5194H40.4669ZM43.1614 80.1486C44.9576 80.7335 46.5242 81.0886 47.861 81.2139H57.6364C59.182 80.9633 60.6859 80.6082 62.1481 80.1486H43.1614ZM74.6179 107.407C74.7014 107.699 74.8685 107.845 75.1192 107.845V108.221L72.5501 107.971L72.6127 107.595C72.9051 107.637 73.0722 107.532 73.114 107.281L72.926 106.53L70.7329 106.216L70.4195 106.718C70.3359 106.968 70.4821 107.135 70.8582 107.219V107.72L68.853 107.344L68.9156 106.968C69.1662 106.968 69.3751 106.864 69.5423 106.655L72.7381 101.329L74.6179 107.407ZM76.4978 103.146C76.5395 102.812 76.4142 102.644 76.1218 102.644V102.08L78.2523 102.268L78.1897 102.832C77.939 102.832 77.7927 102.979 77.7511 103.271L77.4377 107.971C78.7327 108.096 79.6308 107.866 80.1322 107.281H80.4455L80.0069 108.785L75.6205 108.347L75.6832 107.971C75.9755 107.971 76.1635 107.783 76.2472 107.407L76.4978 103.146ZM72.2368 103.647L71.0462 105.715L72.8634 105.966L72.2368 103.647ZM14.5246 72.3785C14.0651 74.2166 13.7935 75.5116 13.71 76.2635C13.5429 77.4333 13.9397 77.9972 14.9006 77.9554C15.4854 77.7884 15.924 78.0181 16.2165 78.6447L17.9084 82.0912C17.4488 82.5507 16.7178 82.4254 15.7152 81.7152C14.9632 81.1721 14.2113 80.1486 13.4593 78.6447C12.958 77.6421 12.5298 76.6604 12.1748 75.6996C11.8197 74.7388 11.4646 73.6109 11.1095 72.3158C10.7544 71.0208 9.80401 68.295 8.25836 64.1383C6.71267 59.9818 5.49075 57.3082 4.5926 56.1175C3.69443 54.927 3.12002 54.3317 2.86938 54.3317C2.4934 54.2482 2.20097 54.5197 1.99211 55.1463C1.90855 55.3552 1.88766 56.3683 1.92945 58.1854C1.97121 60.0027 2.09654 61.3499 2.30542 62.2271C2.76493 64.6919 3.68398 67.3655 5.06257 70.2479C6.44113 73.1722 8.67609 76.3053 11.7675 79.6473C10.4306 77.3079 9.07295 74.7179 7.6944 71.8772C6.10693 68.3681 5.02078 65.705 4.43595 63.8877C3.85108 62.0705 3.53777 60.9008 3.49601 60.3786C3.45422 59.8565 3.53777 59.8669 3.74666 60.4099C3.95552 60.9531 4.39416 62.2481 5.06257 64.295C5.98161 66.7598 7.71527 70.4151 10.2636 75.2609C12.1852 79.0207 13.4384 81.1721 14.0233 81.7152C15.6525 83.3027 16.9893 83.7622 18.0337 83.0938L18.723 83.595L20.6655 86.9162L22.7334 89.4227C23.9031 90.5924 25.0519 90.843 26.1798 90.1746C26.4304 90.843 26.7751 91.0937 27.2138 90.9266C27.6524 90.7595 27.997 90.8221 28.2477 91.1145L29.0623 92.1798L33.386 95.0623L38.0857 97.8821L40.8428 97.3808C40.0491 96.8795 39.1091 96.2111 38.023 95.3756C37.7723 94.7072 37.459 94.2477 37.0831 93.997L36.3312 94.185L36.6445 95.6889L35.4539 95.4383C35.4956 94.8952 35.0883 94.3417 34.232 93.7777C33.3755 93.2138 32.2894 92.4827 30.9735 91.5845C29.6576 90.6864 28.4043 89.5793 27.2138 88.2634C26.0231 86.9475 25.3652 86.0807 25.2399 85.6629C25.031 84.9945 24.7908 84.6081 24.5193 84.5037C24.2477 84.3992 24.1328 84.0546 24.1746 83.4697L24.3 82.7178L24.6759 80.2739L24.112 79.9606L23.736 81.1512C23.6106 81.7779 23.1824 81.4959 22.4514 80.3053C21.7203 79.1147 20.4566 77.3706 18.6603 75.073L16.6551 72.6291L16.4671 73.3184C17.4697 74.7806 18.3157 76.0965 19.005 77.2661C19.6942 78.4359 20.2686 79.4385 20.7282 80.2739C21.1877 81.1095 21.9605 82.3001 23.0467 83.8457L24.3626 86.4775L26.6811 88.6707L26.7438 90.1119C26.2842 89.1511 25.8665 88.5245 25.4905 88.2321C25.1145 87.9397 24.8012 87.8979 24.5506 88.1068C23.7568 88.9005 22.7334 88.3783 21.4801 86.5402C20.8535 85.7047 20.1642 84.5977 19.4123 83.2191C19.2452 82.9685 19.5794 82.4254 20.4149 81.5899L19.9136 81.0259L19.2243 81.5899L16.4045 77.5168L16.7805 76.9528L16.4045 76.3889L15.9658 76.7022L15.2139 75.3863L14.9632 76.0755L15.3392 76.9528L14.8379 77.2035C14.4201 77.2453 14.3993 76.4933 14.7753 74.9476C15.4854 72.8171 16.6133 70.0182 18.159 66.5508C18.159 65.6318 18.2634 64.5039 18.4723 63.1671C16.7595 66.2167 15.4436 69.2872 14.5246 72.3785ZM85.6465 33.9037C85.9389 32.8176 86.4193 31.6479 87.0878 30.3946C87.8814 29.1414 88.0067 29.0997 87.4637 30.2693C86.4193 32.4834 85.918 33.9873 85.9598 34.781L87.9024 39.1047C88.2783 37.392 89.0929 35.7001 90.3462 34.029C90.8474 33.4025 90.8892 33.4651 90.4715 34.217C89.0929 36.4312 88.3409 38.2484 88.2157 39.6686L89.4689 43.2404C89.6777 42.405 90.0328 41.5486 90.5342 40.6712C90.743 40.3789 90.7639 40.4624 90.5969 40.9219C90.4297 41.3815 90.2208 42.0499 89.9702 42.9271C89.7195 43.8044 89.7822 44.6608 90.1582 45.4963C90.5341 46.3318 91.1294 47.418 91.9441 48.7547C92.7586 50.0916 93.3852 51.0837 93.824 51.7312C94.2625 52.3787 94.8996 53.2873 95.7352 54.457L97.3018 54.3943L97.5524 51.3865C98.6802 51.0106 99.2651 50.4258 99.3069 49.632C99.3486 46.4989 99.1606 44.3475 98.743 43.1777C97.2808 41.2979 95.8813 39.8776 94.5446 38.9167C93.9596 38.3319 94.0014 38.2484 94.6699 38.666C96.2155 39.6687 97.4688 40.6504 98.4297 41.6112L97.4897 37.7888C96.2782 36.7445 95.2129 35.533 94.294 34.1543C93.8343 33.486 93.8552 33.4025 94.3566 33.9037C95.4844 35.2823 96.4453 36.2014 97.2391 36.6608C96.7795 35.2823 96.299 33.862 95.7979 32.3998C94.2521 30.6035 92.9153 29.3503 91.7875 28.64C90.9936 28.0553 90.9936 27.9091 91.7875 28.2014C92.414 28.3686 93.521 29.1205 95.1086 30.4573C94.5654 29.037 94.0223 27.6584 93.4793 26.3215C92.8108 25.4026 92.0171 24.5462 91.0982 23.7524C90.7639 23.3765 90.8683 23.3556 91.4115 23.6897C91.9544 24.024 92.5393 24.5462 93.166 25.2563L92.3514 22.6244C92.2678 21.9561 92.3722 21.9561 92.6647 22.6244L93.542 24.6296L94.9206 28.1387C95.1293 27.5122 95.2338 26.7603 95.2339 25.8829C95.4009 24.7968 95.5053 24.8386 95.5472 26.0082C95.5889 27.178 95.5053 28.2015 95.2965 29.0787C95.9231 30.6244 96.5079 32.2746 97.0511 34.029C97.7194 33.1518 98.1789 31.9195 98.4297 30.3319C98.6384 29.2041 98.722 29.3085 98.6803 30.6452C98.5131 32.2328 98.1162 33.5487 97.4897 34.593C98.0327 36.8071 98.534 38.687 98.9936 40.2326C99.453 39.9403 99.9126 39.1674 100.372 37.9141C100.79 37.2875 100.853 37.392 100.56 38.2274C99.9752 39.8985 99.5157 40.8802 99.1816 41.1725C99.5575 42.8018 99.8186 44.2744 99.9649 45.5902C100.111 46.9062 100.142 48.1699 100.059 49.3813C100.351 49.2143 100.518 48.6503 100.56 47.6894C100.56 47.23 100.696 46.6242 100.967 45.8722C101.239 45.1203 101.667 44.2013 102.252 43.1151C102.795 42.1126 102.774 41.653 102.189 41.7365L101.062 42.0498C100.685 42.0499 100.497 41.8619 100.498 41.4859C100.581 40.734 100.905 40.0865 101.469 39.5433C102.033 39.0003 102.315 38.499 102.315 38.0394C102.398 37.6635 102.168 36.8907 101.625 35.7209C100.79 35.9716 100.236 36.2849 99.9649 36.6608C99.6933 37.0369 99.547 37.0473 99.5263 36.6922C99.5053 36.3372 99.6933 35.8254 100.09 35.1569C100.487 34.4886 100.612 33.768 100.466 32.9951C100.32 32.2223 99.9126 31.1466 99.2443 29.768C99.7037 27.8046 99.1606 27.2407 97.6151 28.0761C97.7821 26.4469 97.4896 25.0475 96.7378 23.8777C96.1111 22.5828 95.4635 22.3112 94.7952 23.0631C93.4166 21.1415 92.414 20.0345 91.7875 19.742C91.1607 19.4496 90.7848 19.4914 90.6595 19.8673C90.5341 20.2434 90.3252 20.7238 90.0329 21.3085C89.7404 21.8517 89.7404 22.7707 90.0329 24.0657C89.1138 24.3164 88.7378 24.7759 88.905 25.4443L89.5316 27.3868C90.0328 28.0135 90.3566 28.661 90.5029 29.3293C90.649 29.9978 90.5759 30.6871 90.2836 31.3972C91.5785 30.6453 92.4557 30.6035 92.9154 31.2719C93.0824 31.8986 93.1242 32.4417 93.0407 32.9011C92.9571 33.3607 92.9362 34.238 92.978 35.5329C92.9362 35.8254 93.2913 36.0865 94.0433 36.3162C94.7951 36.546 95.0249 36.9533 94.7326 37.5381C94.5654 37.7471 94.1999 37.6531 93.636 37.2561C93.0719 36.8593 92.6855 36.8489 92.4767 37.2248C91.9336 37.9768 92.3513 38.8332 93.73 39.794C96.4035 41.5486 97.5105 42.5512 97.0511 42.8018C96.2573 42.9689 95.9857 43.4076 96.2365 44.1177C96.3617 44.5355 96.863 44.995 97.7404 45.4963C98.5758 46.0812 98.8891 46.9167 98.6803 48.0028C98.5549 49.1725 98.1163 49.8618 97.3644 50.0706C97.1137 48.901 97.0092 48.1386 97.0511 47.7834C97.0928 47.4284 96.8212 47.1151 96.2365 46.8435C95.6515 46.572 94.8787 44.6817 93.918 41.1725L92.6021 41.1099C93.8134 45.2039 94.5863 47.2926 94.9206 47.3761C95.2547 47.4597 95.5889 47.8984 95.9232 48.692C96.0066 49.3187 96.0171 50.196 95.9545 51.3239C95.8917 52.4518 96.2782 52.9949 97.1138 52.9531L96.5498 53.6424C96.0902 53.5171 95.7142 53.2456 95.4219 52.8278C95.0458 52.243 94.8474 51.6477 94.8266 51.0419C94.8056 50.4362 94.7951 49.8096 94.7952 49.162C94.7951 48.5146 94.4818 48.3266 93.8553 48.598C93.2286 48.8697 92.8213 48.9114 92.6334 48.7234C92.4453 48.5355 92.3304 48.3057 92.2887 48.0341C92.2469 47.7626 92.414 47.1882 92.7901 46.3109C92.8735 45.6843 92.8422 45.2457 92.6961 44.995C92.5497 44.7444 92.1633 44.6608 91.5368 44.7443C90.9101 44.8279 90.7012 44.2222 90.9102 42.9271L91.6621 40.2326C91.9127 38.8541 91.3696 38.6661 90.0329 39.6686C90.2417 38.5408 90.6385 37.7262 91.2235 37.2248C91.8082 36.7236 92.0484 36.1178 91.9441 35.4076C91.8396 34.6975 91.8396 34.0187 91.9441 33.3711C92.0484 32.7236 91.9545 32.2954 91.6621 32.0865C90.7848 32.003 89.6359 32.9012 88.2157 34.781L88.905 33.0264C89.6151 30.896 89.7613 29.4339 89.3436 28.64C88.9258 28.0971 88.4871 27.7211 88.0277 27.5121C87.6934 27.6375 87.2548 28.0762 86.7118 28.828C86.1686 29.4547 85.8344 29.5801 85.7092 29.204L86.0225 27.2615C85.9806 26.4261 85.636 25.8517 84.9886 25.5383C84.341 25.225 83.6203 24.8386 82.8267 24.379C82.7013 24.8804 82.5133 25.3817 82.2627 25.8829C81.8449 26.6349 81.6569 27.4078 81.6988 28.2014C81.5316 28.661 81.7196 29.3085 82.2627 30.1439C80.8005 30.144 80.4037 30.8333 81.0722 32.2118L81.5735 32.9638C81.9076 33.3816 82.2 33.9455 82.4507 34.6556C81.5734 34.5722 81.093 34.7602 81.0095 35.2196C80.9676 35.8881 81.1974 36.3267 81.6988 36.5355C84.2052 37.6217 85.7718 38.7497 86.3985 39.9193C87.1503 41.2979 87.7561 41.9872 88.2157 41.9872L86.9624 38.666C86.4193 37.7888 85.0198 36.8907 82.7641 35.9716C82.0956 35.6792 82.0956 35.5957 82.7641 35.7209C84.5603 36.4312 85.8344 37.0578 86.5865 37.6008C86.1686 36.64 85.7091 35.5748 85.2079 34.405C84.5812 33.6949 83.6621 32.9847 82.4507 32.2745C81.9076 31.8568 81.9076 31.7941 82.4507 32.0865C83.4532 32.5461 84.3514 33.1309 85.1452 33.841C84.5603 32.2954 84.1008 30.4782 83.7667 28.3894L83.516 27.7001L83.9546 27.8254C84.4976 29.4965 85.0616 31.5226 85.6465 33.9037ZM9.76226 54.3943C9.84579 52.2639 9.92934 50.8226 10.0129 50.0706C10.0964 49.3187 10.1487 48.5668 10.1696 47.8148C10.1904 47.0629 10.4097 45.7261 10.8275 43.8044L10.5769 43.5537C10.2009 44.4311 9.93978 45.5277 9.79359 46.8435C9.64736 48.1595 9.53248 49.3083 9.44895 50.2899C9.36538 51.2717 9.19828 52.5563 8.94765 54.1437C8.61343 54.3526 8.30011 54.3735 8.00771 54.2063C7.46462 53.9975 6.9842 53.2351 6.56647 51.9192C6.14871 50.6033 5.98161 48.4623 6.06517 45.4963C6.4829 37.016 7.96592 30.6035 10.5142 26.2589C11.099 25.4235 11.1199 25.6114 10.5769 26.8228C9.44893 29.1623 8.51943 33.0787 7.78839 38.572C7.05731 44.0655 6.85888 47.6686 7.19309 49.3813C7.94503 45.8305 8.63431 42.9481 9.26096 40.7339C9.59514 38.8541 10.5768 35.1988 12.2061 29.768C12.8327 27.8464 13.24 26.1023 13.428 24.5356C13.616 22.9692 13.6264 21.3504 13.4593 19.6793C13.2922 19.2617 12.8536 19.4496 12.1434 20.2433C8.92674 24.0031 6.79622 27.9717 5.75186 32.1491C5.04167 35.157 4.58214 38.2484 4.37328 41.4232C4.28972 44.0969 4.46726 46.3945 4.90591 48.3161C5.34454 50.2378 5.81451 51.7939 6.31582 52.9844C6.8171 54.1751 7.63172 55.021 8.75966 55.5223C8.92674 56.3996 9.19828 57.3917 9.57427 58.4987C9.95023 59.6058 10.2322 60.4413 10.4202 61.0052C10.6082 61.5692 10.7962 61.9557 10.9842 62.1645C11.1721 62.3734 11.2661 62.8956 11.2662 63.731C11.8928 65.8198 12.6029 67.7415 13.3967 69.496L13.5847 68.8694C12.8327 67.1149 12.3523 65.7363 12.1434 64.7336C11.851 63.8146 11.7674 63.188 11.8928 62.8538C12.1852 62.4778 12.1539 62.1332 11.7988 61.8198C11.4437 61.5066 11.0155 60.4518 10.5142 58.6554C10.0129 56.8591 9.76224 55.773 9.76226 55.3969C10.556 53.35 11.0781 51.9297 11.3288 51.1359C11.5794 50.3422 12.1016 49.2352 12.8954 47.8148C13.6891 46.3945 14.5037 44.8697 15.3392 43.2404C16.1747 41.6113 18.7021 37.6217 22.9214 31.2719C23.4226 30.8542 23.2764 31.3555 22.4827 32.7758L20.4149 36.5355L16.0912 43.5537C18.6394 41.2979 21.2712 37.6635 23.9866 32.6504C24.6968 31.2302 25.1981 29.8725 25.4905 28.5774C25.7829 27.2824 25.7829 26.4261 25.4905 26.0082C24.3626 26.1336 23.0676 27.0527 21.6055 28.7654C19.1407 32.191 17.2191 35.2406 15.8405 37.9141L13.334 43.867L11.3915 49.5067C10.8066 51.0524 10.2635 52.6816 9.76226 54.3943ZM21.9814 26.8228C23.4435 25.5279 24.9892 24.7759 26.6185 24.567L28.937 20.0553C29.9395 17.716 30.4826 16.1807 30.5662 15.4496C30.6497 14.7186 30.6079 14.1442 30.4409 13.7264C30.1902 13.6429 29.7307 13.7891 29.0623 14.165C26.8482 15.8779 24.8848 18.2591 23.172 21.3085L19.5376 28.0761L15.7152 34.8436C15.381 35.345 15.0259 35.5121 14.6499 35.3449L14.0233 35.1569C15.4436 31.6479 17.4906 28.1179 20.1642 24.567C20.9579 24.4 21.1459 24.0867 20.7282 23.627L23.2974 19.178L20.1642 23.6897C19.8718 23.4391 19.7256 23.46 19.7256 23.7524L19.7883 24.2537C18.2843 26.259 16.9789 28.2328 15.8718 30.1753C14.7648 32.1179 13.9188 33.6531 13.334 34.781C12.958 34.6975 12.5612 34.2171 12.1434 33.3397L11.8301 34.2797L13.146 35.9089L10.9528 41.4859L10.4515 41.4232L10.3889 41.9872L10.6395 42.9271L11.1408 43.3031C11.9763 43.2196 12.6029 42.7809 13.0207 41.9872C12.1434 42.405 11.6212 42.4885 11.4541 42.2378L13.522 36.1595C14.5664 36.1178 15.193 35.9925 15.4019 35.7836C18.2008 31.4808 19.9553 28.7863 20.6655 27.7001C23.2555 23.3138 25.3234 20.0763 26.8691 17.9874C28.4148 15.8988 29.3651 14.6977 29.7203 14.3843C30.0753 14.0711 30.0649 14.2278 29.6889 14.8543C27.433 18.1964 25.7725 20.7029 24.7073 22.3738C23.642 24.0449 22.7334 25.5279 21.9814 26.8228Z" fill="white"/>
</svg>
