<svg width="200" height="200" viewBox="0 0 200 200" fill="none" xmlns="http://www.w3.org/2000/svg">
<g clip-path="url(#clip0_270_10391)">
<rect width="200" height="200" rx="20" fill="black" fill-opacity="0.24"/>
<g filter="url(#filter1_f_270_10391)">
<circle cx="186" cy="186" r="86" fill="#FF9966" fill-opacity="0.64"/>
</g>
<g clip-path="url(#clip1_270_10391)">
<path d="M52.8569 150.857H57.8093L61.3331 164.096H61.4284L65.1426 150.857H70.095L73.9046 164.096L77.4284 150.857H82.3807L76.6665 169.048H71.5236L67.7141 156.096H67.6188L63.8093 169.048H58.6665L52.8569 150.857Z" fill="white"/>
<path d="M92.3806 150.857H87.4282V169.048H92.3806V150.857Z" fill="white"/>
<path d="M99.7144 150.857H112C117.238 150.857 118.476 153.905 118.476 156.381C118.476 160.286 116.381 162.572 112.381 162.572H104.667V169.048H99.7144V150.857ZM104.667 159.238H110C111.524 159.238 113.333 159.143 113.333 156.762C113.333 154.381 111.905 154.191 110.476 154.191H104.667V159.238Z" fill="white"/>
<path d="M135.047 150.381C144.857 150.381 146.476 156.19 146.476 160C146.476 163.809 144.952 169.619 135.047 169.619C125.142 169.619 123.714 163.809 123.714 160C123.714 156.19 125.238 150.381 135.047 150.381ZM135.047 166.095C139.523 166.095 141.142 162.762 141.142 160C141.142 157.238 139.523 153.905 135.047 153.905C130.571 153.905 128.952 157.238 128.952 160C128.952 162.762 130.571 166.095 135.047 166.095Z" fill="white"/>
<path d="M144.476 42.381H144.667C141.524 37.619 133.524 33.4286 122.381 30V31.619C133.905 34.5714 141.809 38.2857 144.476 42.381Z" fill="white"/>
<path d="M144.571 54.0948H144.762C141.619 49.3329 133.524 45.1424 122.381 41.7139V43.3329C133.905 46.2853 141.809 49.9996 144.571 54.0948Z" fill="white"/>
<path d="M144.571 65.714H144.762C141.619 60.9521 133.524 56.7616 122.381 53.333V54.9521C133.905 57.9044 141.809 61.5235 144.571 65.714Z" fill="white"/>
<path d="M144.571 77.2374H144.762C141.619 72.4755 133.524 68.285 122.381 64.8564V66.4755C133.905 69.4279 141.809 73.1422 144.571 77.2374Z" fill="white"/>
<path d="M144.571 88.8565H144.762C141.619 84.0946 133.524 79.9042 122.381 76.4756V78.0946C133.905 81.047 141.809 84.7613 144.571 88.8565Z" fill="white"/>
<path d="M144.571 100.477H144.762C141.619 95.7148 133.524 91.5243 122.381 88.0957V89.7148C133.905 92.6671 141.809 96.2862 144.571 100.477Z" fill="white"/>
<path d="M144.571 112.096H144.762C141.619 107.334 133.524 103.143 122.381 99.7148V101.334C133.905 104.191 141.809 107.905 144.571 112.096Z" fill="white"/>
<path d="M144.666 112.19C145.238 113.142 145.619 114.19 145.619 115.238C145.619 124.476 121.809 132.476 87.333 136.38V141.809C120.571 137.333 144 128.38 146.095 118V115.047C145.904 113.904 145.428 112.857 144.762 111.904L144.666 112.19Z" fill="white"/>
<path d="M144.666 100.571C145.238 101.524 145.619 102.571 145.619 103.619C145.619 112.857 121.809 120.857 87.333 124.762V130.19C120.571 125.714 144 116.762 146.095 106.381V103.524C145.904 102.381 145.428 101.333 144.762 100.381L144.666 100.571Z" fill="white"/>
<path d="M144.666 88.9527C145.238 89.905 145.619 90.9527 145.619 92.0003C145.619 101.238 121.809 109.238 87.333 113.143V118.572C120.666 114.191 144.095 105.238 146.19 94.8574V91.905C146 90.7622 145.523 89.7146 144.857 88.8574L144.666 88.9527Z" fill="white"/>
<path d="M144.666 77.4292C145.238 78.3816 145.619 79.4292 145.619 80.4768C145.619 89.7149 121.809 97.7149 87.333 101.715V107.144C120.571 102.667 144 93.7149 146.095 83.334V80.4768C145.904 79.334 145.428 78.2864 144.762 77.334L144.666 77.4292Z" fill="white"/>
<path d="M144.666 65.8096C145.238 66.762 145.619 67.8096 145.619 68.8572C145.619 78.0953 121.809 86.0953 87.333 90.0001V95.4287C120.571 90.9525 144 82.0001 146.095 71.6191V68.6668C145.904 67.5239 145.428 66.4763 144.762 65.6191L144.666 65.8096Z" fill="white"/>
<path d="M144.762 42.6665C145.333 43.5237 145.619 44.5713 145.619 45.6189C145.619 54.857 121.809 62.857 87.333 66.7618V72.1903C120.571 67.7141 144 58.7618 146.095 48.3808V45.5237C145.904 44.4761 145.428 43.4284 144.857 42.5713L144.762 42.6665Z" fill="white"/>
<path d="M144.666 54.1905C145.238 55.1429 145.619 56.1905 145.619 57.2381C145.619 66.4762 121.809 74.4762 87.333 78.381V83.8095C120.571 79.3333 144 70.381 146.095 60V57.0476C145.904 55.9048 145.428 54.8571 144.762 54L144.666 54.1905Z" fill="white"/>
</g>
</g>
<rect x="1" y="1" width="198" height="198" rx="19" stroke="white" stroke-opacity="0.64" stroke-width="2"/>
<defs>
<filter id="filter1_f_270_10391" x="-100" y="-100" width="572" height="572" filterUnits="userSpaceOnUse" color-interpolation-filters="sRGB">
<feFlood flood-opacity="0" result="BackgroundImageFix"/>
<feBlend mode="normal" in="SourceGraphic" in2="BackgroundImageFix" result="shape"/>
<feGaussianBlur stdDeviation="100" result="effect1_foregroundBlur_270_10391"/>
</filter>
<clipPath id="clip0_270_10391">
<rect width="200" height="200" rx="20" fill="white"/>
</clipPath>
<clipPath id="clip1_270_10391">
<rect width="94.2857" height="140" fill="white" transform="translate(52.8569 30)"/>
</clipPath>
</defs>
</svg>
