<svg width="152" height="80" viewBox="0 0 152 80" fill="none" xmlns="http://www.w3.org/2000/svg">
<g clip-path="url(#clip0_1641_3474)">
<mask id="mask0_1641_3474" style="mask-type:luminance" maskUnits="userSpaceOnUse" x="0" y="-1" width="152" height="81">
<path d="M151.172 -0.00195312H0.827637V79.998H151.172V-0.00195312Z" fill="white"/>
</mask>
<g mask="url(#mask0_1641_3474)">
<path fill-rule="evenodd" clip-rule="evenodd" d="M36 0.224609H30.0207C29.4069 0.224609 28.9448 0.686678 28.9448 1.30047V70.3419V78.6177C28.9448 79.2246 29.4069 79.6867 30.0207 79.6867H36C36.531 79.6867 37.069 79.2246 37.069 78.6177V72.7143V1.30047C37.069 0.686678 36.531 0.224609 36 0.224609Z" fill="white"/>
<path fill-rule="evenodd" clip-rule="evenodd" d="M91.0894 0.224609H78.7583H72.1652C71.5514 0.224609 71.0894 0.686678 71.0894 1.30047V70.3419V78.6177C71.0894 79.2246 71.5514 79.6867 72.1652 79.6867L90.6342 79.7625C91.248 79.7625 91.779 79.3074 91.779 78.6936V73.1763C91.779 72.5625 91.248 72.1005 90.6342 72.1005H79.0618V42.9832H88.4894C89.0204 42.9832 89.4825 42.4453 89.4825 41.9074V38.0039C89.4825 37.3901 89.0204 36.9281 88.4894 36.9281H79.0618V7.88668H91.0894C91.4756 7.88668 91.779 7.58323 91.779 7.19702V0.914265C91.779 0.528058 91.4756 0.224609 91.0894 0.224609Z" fill="white"/>
<path fill-rule="evenodd" clip-rule="evenodd" d="M57.1446 14.7839V36.9287H51.0135V11.1839V10.8736C51.1722 9.34252 52.4687 8.19769 54.0067 8.19769C55.6894 8.19769 57.0687 9.577 57.0687 11.1839H57.1446V14.7839ZM65.117 78.6942V17.0804V11.1839C65.117 11.108 65.117 11.0322 65.117 10.9563C65.0411 6.04597 61.6687 1.90803 57.1446 0.611483C56.0756 0.301138 55.0756 0.149414 54.0067 0.149414C52.9308 0.149414 51.9377 0.301138 51.0135 0.611483C50.9377 0.611483 50.8618 0.611483 50.786 0.687345C50.7101 0.687345 50.6342 0.687345 50.6342 0.687345C50.4825 0.763207 50.3239 0.839069 50.1722 0.839069C49.9446 0.914931 49.7101 1.06666 49.5584 1.14252C49.4067 1.14252 49.3308 1.21838 49.2549 1.21838C49.0204 1.377 48.8687 1.45286 48.6411 1.60459C48.5653 1.60459 48.4894 1.60459 48.4894 1.68045C45.1929 3.59769 42.9722 7.12183 42.9722 11.1839V13.9425V78.6942C42.9722 79.308 43.4273 79.7632 44.0411 79.7632H49.9446C50.5584 79.7632 51.0135 79.308 51.0135 78.6942V42.9839H57.1446V78.6942C57.1446 79.308 57.6067 79.7632 58.1446 79.7632H64.0411C64.6549 79.7632 65.117 79.308 65.117 78.6942Z" fill="white"/>
<path fill-rule="evenodd" clip-rule="evenodd" d="M22.9725 52.4115V51.4873C22.9725 47.6598 21.3587 42.5218 19.0621 39.4598L11.3242 29.1908C10.0966 27.508 8.94488 24.0598 8.86902 21.9908V11.2598C8.86902 9.65286 10.0966 8.27355 11.7035 8.11493C13.5449 8.03907 15.0001 9.41838 15.0001 11.1839V11.4115V11.4873V14.3218V15.0115V16.4736C15.0001 17.0804 15.4621 17.5425 16.0759 17.5425H21.8966C22.5104 17.5425 22.9725 17.0804 22.9725 16.4736V11.4873C22.9725 11.4115 22.9725 11.3356 22.9725 11.2598C22.9725 11.1839 22.9725 11.1839 22.9725 11.1839C22.9725 5.05286 18.069 0.149414 11.8621 0.149414C5.80695 0.149414 0.827637 5.05286 0.827637 11.1839C0.827637 11.2598 0.827637 21.9908 0.827637 21.9908C0.827637 25.8184 2.58626 30.9563 4.80695 34.0184L12.6276 44.2873C13.8483 45.8942 15.0001 49.4184 15.0001 51.4873V52.4115V58.0046V65.1287V68.7287C15.0001 70.646 13.0828 72.2529 10.8621 71.5632C9.63453 71.1839 8.86902 69.9563 8.86902 68.7287V65.9701V65.0529V63.446C8.86902 62.908 8.41384 62.3701 7.80005 62.3701H1.8966C1.35867 62.3701 0.827637 62.908 0.827637 63.446V65.9701V67.1977V68.7287C0.827637 68.9632 0.903499 69.2667 0.903499 69.577C0.903499 69.577 0.903499 69.6529 0.903499 69.7287C0.903499 69.9563 0.979361 70.2667 0.979361 70.4942C0.979361 70.5701 0.979361 70.5701 1.05522 70.646C1.13108 71.1839 1.28281 71.7218 1.43453 72.2529V72.3287C1.59315 72.6391 1.66902 72.8667 1.74488 73.1011L1.82074 73.177C2.04833 73.708 2.28281 74.1701 2.58626 74.6322C2.58626 74.708 2.58626 74.708 2.66212 74.708C2.81384 74.9356 2.97246 75.1701 3.12419 75.3977L3.27591 75.5494C3.58626 76.0115 3.88971 76.3908 4.27591 76.7011C6.26212 78.6184 8.94488 79.7632 11.8621 79.7632C13.0069 79.7632 14.0069 79.6115 15.0001 79.308C15.8414 79.0736 16.6069 78.6942 17.3794 78.308H17.4552C17.9104 78.0046 18.3725 77.6942 18.8345 77.3149C19.0621 77.1563 19.2897 76.9287 19.4483 76.777C19.5242 76.777 19.5242 76.777 19.5242 76.7011C19.9035 76.3908 20.2897 75.9356 20.5932 75.5494C20.669 75.5494 20.669 75.4735 20.669 75.4735C20.8276 75.246 20.9794 75.0115 21.1311 74.7839H21.2069C21.3587 74.5563 21.4345 74.3218 21.5932 74.0942V74.0184C21.7449 73.7908 21.8966 73.5563 21.9725 73.3287C21.9725 73.2529 22.0483 73.2529 22.0483 73.177C22.1242 72.9425 22.2828 72.7149 22.3587 72.4873V72.4115C22.4345 72.177 22.5104 71.9494 22.5863 71.7218C22.5863 71.646 22.5863 71.646 22.5863 71.5632C22.6621 71.3356 22.738 71.0322 22.8138 70.7977C22.8138 70.7218 22.8138 70.7218 22.8138 70.646C22.8966 70.4184 22.8966 70.108 22.8966 69.8804C22.8966 69.8804 22.9725 69.8804 22.9725 69.8046C22.9725 69.577 22.9725 69.2667 22.9725 69.0391C22.9725 68.9632 22.9725 68.9632 22.9725 68.9632C22.9725 68.8873 22.9725 68.8046 22.9725 68.7287V67.8115V62.7563V52.4115Z" fill="white"/>
<path fill-rule="evenodd" clip-rule="evenodd" d="M109.869 14.6328C111.173 14.6328 111.779 13.8673 111.779 12.3363V3.97767C111.779 2.52249 111.173 1.68112 109.869 1.68112H107.876V14.6328H109.869ZM109.945 0.0742188C112.393 0.0742188 113.545 1.60525 113.545 4.06043V12.2535C113.545 14.7846 112.393 16.2397 109.945 16.2397H106.035V0.0742188H109.945Z" fill="white"/>
<path fill-rule="evenodd" clip-rule="evenodd" d="M117.758 11.488H121.434L119.676 2.06732L117.758 11.488ZM117.531 13.0259L116.917 16.2397H115.31L118.372 0.0742188H121.055L124.117 16.2397H122.358L121.745 13.0259H117.531Z" fill="white"/>
<path fill-rule="evenodd" clip-rule="evenodd" d="M126.035 16.2397V0.0742188H127.876V14.6328H132.552V16.2397H126.035Z" fill="white"/>
<path fill-rule="evenodd" clip-rule="evenodd" d="M134.386 16.2397V0.0742188H136.228V14.6328H140.903V16.2397H134.386Z" fill="white"/>
<path fill-rule="evenodd" clip-rule="evenodd" d="M144.807 11.488H148.49L146.648 2.06732L144.807 11.488ZM144.579 13.0259L143.965 16.2397H142.283L145.497 0.0742188H148.103L151.172 16.2397H149.331L148.717 13.0259H144.579Z" fill="white"/>
<path fill-rule="evenodd" clip-rule="evenodd" d="M109.407 29.4178C110.862 29.4178 111.476 28.804 111.476 27.2729V25.1281C111.476 23.5971 110.938 22.8316 109.559 22.8316H107.876V29.4178H109.407ZM109.559 21.2178C112.166 21.2178 113.317 22.6798 113.317 25.204V27.1971C113.317 29.7281 112.09 31.0316 109.407 31.0316H107.876V37.466H106.035V21.2178H109.559Z" fill="white"/>
<path fill-rule="evenodd" clip-rule="evenodd" d="M116.917 32.6385H120.593L118.759 23.2109L116.917 32.6385ZM116.69 34.1695L116.076 37.466H114.462L117.531 21.2178H120.214L123.276 37.466H121.517L120.904 34.1695H116.69Z" fill="white"/>
<path fill-rule="evenodd" clip-rule="evenodd" d="M128.414 28.8867C129.869 28.8867 130.71 28.4247 130.71 26.6592V25.1281C130.71 23.5971 130.172 22.8316 128.793 22.8316H127.11V28.8867H128.414ZM128.869 21.2178C131.4 21.2178 132.469 22.5212 132.469 24.9764V26.2798C132.469 28.0385 131.862 29.1902 130.483 29.6523C131.938 30.0316 132.469 31.2592 132.469 32.9419V35.4729C132.469 36.2385 132.551 36.8523 132.855 37.466H131.014C130.786 37.004 130.71 36.5488 130.71 35.4729V32.9419C130.71 31.1074 129.869 30.5695 128.331 30.5695H127.11V37.466H125.193V21.2178H128.869Z" fill="white"/>
<path fill-rule="evenodd" clip-rule="evenodd" d="M137.221 37.466V22.8316H134.235V21.2178H142.049V22.8316H139.062V37.466H137.221Z" fill="white"/>
<path fill-rule="evenodd" clip-rule="evenodd" d="M149.559 28.4247V30.0316H145.655V35.7833H150.483V37.466H143.738V21.2178H150.483V22.8316H145.655V28.4247H149.559Z" fill="white"/>
<path fill-rule="evenodd" clip-rule="evenodd" d="M109.869 56.9287C111.173 56.9287 111.779 56.0874 111.779 54.6322V46.2805C111.779 44.8253 111.173 43.977 109.869 43.977H107.876V56.9287H109.869ZM109.945 42.3701C112.393 42.3701 113.545 43.9012 113.545 46.3563V54.5563C113.545 57.0805 112.393 58.6184 109.945 58.6184H106.035V42.3701H109.945Z" fill="white"/>
<path fill-rule="evenodd" clip-rule="evenodd" d="M115.766 58.6184H117.607V42.3701H115.766V58.6184Z" fill="white"/>
<path fill-rule="evenodd" clip-rule="evenodd" d="M131.324 46.3557V47.8109H129.634V46.2798C129.634 44.8247 129.021 43.9005 127.724 43.9005C126.345 43.9005 125.807 44.8247 125.807 46.2798V54.7833C125.807 56.2385 126.345 57.0798 127.724 57.0798C129.021 57.0798 129.634 56.2385 129.634 54.7833V52.7143H131.324V54.7074C131.324 57.1626 130.172 58.7695 127.724 58.7695C125.193 58.7695 123.965 57.1626 123.965 54.7074V46.3557C123.965 43.9005 125.193 42.2178 127.724 42.2178C130.172 42.2178 131.324 43.9005 131.324 46.3557Z" fill="white"/>
<path fill-rule="evenodd" clip-rule="evenodd" d="M135.386 51.2598V58.6184H133.469V42.3701H135.386V49.6529H139.29V42.3701H141.131V58.6184H139.29V51.2598H135.386Z" fill="white"/>
<path fill-rule="evenodd" clip-rule="evenodd" d="M143.504 58.6184H145.345V42.3701H143.504V58.6184Z" fill="white"/>
<path fill-rule="evenodd" clip-rule="evenodd" d="M113.241 67.4253V68.8874H111.475V67.3494C111.475 65.8943 110.862 64.977 109.558 64.977C108.255 64.977 107.724 65.8943 107.724 67.3494V75.9356C107.724 77.3908 108.255 78.308 109.558 78.308C110.862 78.308 111.475 77.3908 111.475 75.9356V73.7908H113.241V75.8598C113.241 78.308 112.013 79.9149 109.558 79.9149C107.034 79.9149 105.882 78.308 105.882 75.8598V67.4253C105.882 64.977 107.034 63.3701 109.558 63.3701C112.013 63.3701 113.241 64.977 113.241 67.4253Z" fill="white"/>
<path fill-rule="evenodd" clip-rule="evenodd" d="M118.524 71.1077C120.055 71.1077 120.903 70.6456 120.903 68.9629V67.3491C120.903 65.8939 120.366 65.1284 119.062 65.1284H117.221V71.1077H118.524ZM119.062 63.5215C121.593 63.5215 122.662 64.8249 122.662 67.1973V68.5008C122.662 70.3422 122.048 71.4111 120.669 71.8732C122.124 72.2525 122.662 73.556 122.662 75.3215V77.8456C122.662 78.5353 122.738 79.2249 123.048 79.7629H121.207C120.979 79.3077 120.903 78.8456 120.903 77.7698V75.2456C120.903 73.4042 120.055 72.8663 118.448 72.8663H117.221V79.7629H115.386V63.5215H119.062Z" fill="white"/>
<path fill-rule="evenodd" clip-rule="evenodd" d="M130.862 70.6456V72.2525H126.952V78.0801H131.779V79.7629H125.042V63.5215H131.779V65.1284H126.952V70.6456H130.862Z" fill="white"/>
<path fill-rule="evenodd" clip-rule="evenodd" d="M136 74.9353H139.676L137.835 65.5904L136 74.9353ZM135.766 76.4663L135.152 79.7629H133.469L136.69 63.5215H139.29L142.359 79.7629H140.518L139.904 76.4663H135.766Z" fill="white"/>
<path fill-rule="evenodd" clip-rule="evenodd" d="M99.2144 79.9971H99.9799V-0.00292969H99.2144V79.9971Z" fill="white"/>
</g>
</g>
<defs>
<clipPath id="clip0_1641_3474">
<rect width="150.345" height="80" fill="white" transform="translate(0.827637)"/>
</clipPath>
</defs>
</svg>
