<svg width="200" height="200" viewBox="0 0 200 200" fill="none" xmlns="http://www.w3.org/2000/svg">
<rect width="200" height="200" rx="20" fill="black" fill-opacity="0.08"/>
<rect x="0.75" y="0.75" width="198.5" height="198.5" rx="19.25" stroke="white" stroke-opacity="0.64" stroke-width="1.5"/>
<g clip-path="url(#clip0_270_10384)">
<mask id="mask0_270_10384" style="mask-type:luminance" maskUnits="userSpaceOnUse" x="24" y="59" width="152" height="81">
<path d="M175.172 59.998H24.8276V139.998H175.172V59.998Z" fill="white"/>
</mask>
<g mask="url(#mask0_270_10384)">
<path fill-rule="evenodd" clip-rule="evenodd" d="M60 60.2246H54.0207C53.4069 60.2246 52.9448 60.6867 52.9448 61.3005V130.342V138.618C52.9448 139.225 53.4069 139.687 54.0207 139.687H60C60.531 139.687 61.069 139.225 61.069 138.618V132.714V61.3005C61.069 60.6867 60.531 60.2246 60 60.2246Z" fill="white"/>
<path fill-rule="evenodd" clip-rule="evenodd" d="M115.09 60.2246H102.759H96.1657C95.5519 60.2246 95.0898 60.6867 95.0898 61.3005V130.342V138.618C95.0898 139.225 95.5519 139.687 96.1657 139.687L114.635 139.763C115.248 139.763 115.779 139.307 115.779 138.694V133.176C115.779 132.563 115.248 132.1 114.635 132.1H103.062V102.983H112.49C113.021 102.983 113.483 102.445 113.483 101.907V98.0039C113.483 97.3901 113.021 96.9281 112.49 96.9281H103.062V67.8867H115.09C115.476 67.8867 115.779 67.5832 115.779 67.197V60.9143C115.779 60.5281 115.476 60.2246 115.09 60.2246Z" fill="white"/>
<path fill-rule="evenodd" clip-rule="evenodd" d="M81.1448 74.7839V96.9287H75.0138V71.1839V70.8736C75.1724 69.3425 76.469 68.1977 78.0069 68.1977C79.6897 68.1977 81.069 69.577 81.069 71.1839H81.1448V74.7839ZM89.1172 138.694V77.0804V71.1839C89.1172 71.108 89.1172 71.0322 89.1172 70.9563C89.0414 66.046 85.669 61.908 81.1448 60.6115C80.0759 60.3011 79.0759 60.1494 78.0069 60.1494C76.931 60.1494 75.9379 60.3011 75.0138 60.6115C74.9379 60.6115 74.8621 60.6115 74.7862 60.6873C74.7103 60.6873 74.6345 60.6873 74.6345 60.6873C74.4828 60.7632 74.3241 60.8391 74.1724 60.8391C73.9448 60.9149 73.7103 61.0667 73.5586 61.1425C73.4069 61.1425 73.331 61.2184 73.2552 61.2184C73.0207 61.377 72.869 61.4529 72.6414 61.6046C72.5655 61.6046 72.4897 61.6046 72.4897 61.6804C69.1931 63.5977 66.9724 67.1218 66.9724 71.1839V73.9425V138.694C66.9724 139.308 67.4276 139.763 68.0414 139.763H73.9448C74.5586 139.763 75.0138 139.308 75.0138 138.694V102.984H81.1448V138.694C81.1448 139.308 81.6069 139.763 82.1448 139.763H88.0414C88.6552 139.763 89.1172 139.308 89.1172 138.694Z" fill="white"/>
<path fill-rule="evenodd" clip-rule="evenodd" d="M46.9725 112.411V111.487C46.9725 107.66 45.3587 102.522 43.0621 99.4598L35.3242 89.1908C34.0966 87.508 32.9449 84.0598 32.869 81.9908V71.2598C32.869 69.6529 34.0966 68.2736 35.7035 68.1149C37.5449 68.0391 39.0001 69.4184 39.0001 71.1839V71.4115V71.4873V74.3218V75.0115V76.4736C39.0001 77.0804 39.4621 77.5425 40.0759 77.5425H45.8966C46.5104 77.5425 46.9725 77.0804 46.9725 76.4736V71.4873C46.9725 71.4115 46.9725 71.3356 46.9725 71.2598C46.9725 71.1839 46.9725 71.1839 46.9725 71.1839C46.9725 65.0529 42.069 60.1494 35.8621 60.1494C29.8069 60.1494 24.8276 65.0529 24.8276 71.1839C24.8276 71.2598 24.8276 81.9908 24.8276 81.9908C24.8276 85.8184 26.5863 90.9563 28.8069 94.0184L36.6276 104.287C37.8483 105.894 39.0001 109.418 39.0001 111.487V112.411V118.005V125.129V128.729C39.0001 130.646 37.0828 132.253 34.8621 131.563C33.6345 131.184 32.869 129.956 32.869 128.729V125.97V125.053V123.446C32.869 122.908 32.4138 122.37 31.8001 122.37H25.8966C25.3587 122.37 24.8276 122.908 24.8276 123.446V125.97V127.198V128.729C24.8276 128.963 24.9035 129.267 24.9035 129.577C24.9035 129.577 24.9035 129.653 24.9035 129.729C24.9035 129.956 24.9794 130.267 24.9794 130.494C24.9794 130.57 24.9794 130.57 25.0552 130.646C25.1311 131.184 25.2828 131.722 25.4345 132.253V132.329C25.5932 132.639 25.669 132.867 25.7449 133.101L25.8207 133.177C26.0483 133.708 26.2828 134.17 26.5863 134.632C26.5863 134.708 26.5863 134.708 26.6621 134.708C26.8138 134.936 26.9725 135.17 27.1242 135.398L27.2759 135.549C27.5863 136.011 27.8897 136.391 28.2759 136.701C30.2621 138.618 32.9449 139.763 35.8621 139.763C37.0069 139.763 38.0069 139.611 39.0001 139.308C39.8414 139.074 40.6069 138.694 41.3794 138.308H41.4552C41.9104 138.005 42.3725 137.694 42.8345 137.315C43.0621 137.156 43.2897 136.929 43.4483 136.777C43.5242 136.777 43.5242 136.777 43.5242 136.701C43.9035 136.391 44.2897 135.936 44.5932 135.549C44.669 135.549 44.669 135.474 44.669 135.474C44.8276 135.246 44.9794 135.011 45.1311 134.784H45.2069C45.3587 134.556 45.4345 134.322 45.5932 134.094V134.018C45.7449 133.791 45.8966 133.556 45.9725 133.329C45.9725 133.253 46.0483 133.253 46.0483 133.177C46.1242 132.943 46.2828 132.715 46.3587 132.487V132.411C46.4345 132.177 46.5104 131.949 46.5863 131.722C46.5863 131.646 46.5863 131.646 46.5863 131.563C46.6621 131.336 46.738 131.032 46.8138 130.798C46.8138 130.722 46.8138 130.722 46.8138 130.646C46.8966 130.418 46.8966 130.108 46.8966 129.88C46.8966 129.88 46.9725 129.88 46.9725 129.805C46.9725 129.577 46.9725 129.267 46.9725 129.039C46.9725 128.963 46.9725 128.963 46.9725 128.963C46.9725 128.887 46.9725 128.805 46.9725 128.729V127.811V122.756V112.411Z" fill="white"/>
<path fill-rule="evenodd" clip-rule="evenodd" d="M133.869 74.6328C135.173 74.6328 135.779 73.8673 135.779 72.3363V63.9777C135.779 62.5225 135.173 61.6811 133.869 61.6811H131.876V74.6328H133.869ZM133.945 60.0742C136.393 60.0742 137.545 61.6053 137.545 64.0604V72.2535C137.545 74.7846 136.393 76.2397 133.945 76.2397H130.035V60.0742H133.945Z" fill="white"/>
<path fill-rule="evenodd" clip-rule="evenodd" d="M141.759 71.488H145.434L143.676 62.0673L141.759 71.488ZM141.531 73.0259L140.917 76.2397H139.31L142.372 60.0742H145.055L148.117 76.2397H146.359L145.745 73.0259H141.531Z" fill="white"/>
<path fill-rule="evenodd" clip-rule="evenodd" d="M150.035 76.2397V60.0742H151.876V74.6328H156.552V76.2397H150.035Z" fill="white"/>
<path fill-rule="evenodd" clip-rule="evenodd" d="M158.386 76.2397V60.0742H160.228V74.6328H164.903V76.2397H158.386Z" fill="white"/>
<path fill-rule="evenodd" clip-rule="evenodd" d="M168.807 71.488H172.49L170.648 62.0673L168.807 71.488ZM168.579 73.0259L167.965 76.2397H166.283L169.497 60.0742H172.103L175.172 76.2397H173.331L172.717 73.0259H168.579Z" fill="white"/>
<path fill-rule="evenodd" clip-rule="evenodd" d="M133.407 89.4178C134.862 89.4178 135.476 88.804 135.476 87.2729V85.1281C135.476 83.5971 134.938 82.8316 133.559 82.8316H131.876V89.4178H133.407ZM133.559 81.2178C136.166 81.2178 137.317 82.6798 137.317 85.204V87.1971C137.317 89.7281 136.09 91.0316 133.407 91.0316H131.876V97.466H130.035V81.2178H133.559Z" fill="white"/>
<path fill-rule="evenodd" clip-rule="evenodd" d="M140.917 92.6385H144.593L142.759 83.2109L140.917 92.6385ZM140.69 94.1695L140.076 97.466H138.462L141.531 81.2178H144.214L147.276 97.466H145.517L144.904 94.1695H140.69Z" fill="white"/>
<path fill-rule="evenodd" clip-rule="evenodd" d="M152.414 88.8867C153.869 88.8867 154.71 88.4247 154.71 86.6592V85.1281C154.71 83.5971 154.172 82.8316 152.793 82.8316H151.11V88.8867H152.414ZM152.869 81.2178C155.4 81.2178 156.469 82.5212 156.469 84.9764V86.2798C156.469 88.0385 155.862 89.1902 154.483 89.6523C155.938 90.0316 156.469 91.2592 156.469 92.9419V95.4729C156.469 96.2385 156.552 96.8523 156.855 97.466H155.014C154.786 97.004 154.71 96.5488 154.71 95.4729V92.9419C154.71 91.1074 153.869 90.5695 152.331 90.5695H151.11V97.466H149.193V81.2178H152.869Z" fill="white"/>
<path fill-rule="evenodd" clip-rule="evenodd" d="M161.221 97.466V82.8316H158.235V81.2178H166.048V82.8316H163.062V97.466H161.221Z" fill="white"/>
<path fill-rule="evenodd" clip-rule="evenodd" d="M173.559 88.4247V90.0316H169.655V95.7833H174.483V97.466H167.738V81.2178H174.483V82.8316H169.655V88.4247H173.559Z" fill="white"/>
<path fill-rule="evenodd" clip-rule="evenodd" d="M133.869 116.929C135.173 116.929 135.779 116.087 135.779 114.632V106.28C135.779 104.825 135.173 103.977 133.869 103.977H131.876V116.929H133.869ZM133.945 102.37C136.393 102.37 137.545 103.901 137.545 106.356V114.556C137.545 117.08 136.393 118.618 133.945 118.618H130.035V102.37H133.945Z" fill="white"/>
<path fill-rule="evenodd" clip-rule="evenodd" d="M139.766 118.618H141.607V102.37H139.766V118.618Z" fill="white"/>
<path fill-rule="evenodd" clip-rule="evenodd" d="M155.324 106.356V107.811H153.635V106.28C153.635 104.825 153.021 103.901 151.724 103.901C150.345 103.901 149.807 104.825 149.807 106.28V114.783C149.807 116.238 150.345 117.08 151.724 117.08C153.021 117.08 153.635 116.238 153.635 114.783V112.714H155.324V114.707C155.324 117.163 154.172 118.769 151.724 118.769C149.193 118.769 147.966 117.163 147.966 114.707V106.356C147.966 103.901 149.193 102.218 151.724 102.218C154.172 102.218 155.324 103.901 155.324 106.356Z" fill="white"/>
<path fill-rule="evenodd" clip-rule="evenodd" d="M159.386 111.26V118.618H157.469V102.37H159.386V109.653H163.29V102.37H165.131V118.618H163.29V111.26H159.386Z" fill="white"/>
<path fill-rule="evenodd" clip-rule="evenodd" d="M167.504 118.618H169.345V102.37H167.504V118.618Z" fill="white"/>
<path fill-rule="evenodd" clip-rule="evenodd" d="M137.241 127.425V128.887H135.476V127.349C135.476 125.894 134.862 124.977 133.559 124.977C132.255 124.977 131.724 125.894 131.724 127.349V135.936C131.724 137.391 132.255 138.308 133.559 138.308C134.862 138.308 135.476 137.391 135.476 135.936V133.791H137.241V135.86C137.241 138.308 136.014 139.915 133.559 139.915C131.035 139.915 129.883 138.308 129.883 135.86V127.425C129.883 124.977 131.035 123.37 133.559 123.37C136.014 123.37 137.241 124.977 137.241 127.425Z" fill="white"/>
<path fill-rule="evenodd" clip-rule="evenodd" d="M142.524 131.108C144.055 131.108 144.903 130.646 144.903 128.963V127.349C144.903 125.894 144.366 125.128 143.062 125.128H141.221V131.108H142.524ZM143.062 123.521C145.593 123.521 146.662 124.825 146.662 127.197V128.501C146.662 130.342 146.048 131.411 144.669 131.873C146.124 132.253 146.662 133.556 146.662 135.321V137.846C146.662 138.535 146.738 139.225 147.048 139.763H145.207C144.979 139.308 144.903 138.846 144.903 137.77V135.246C144.903 133.404 144.055 132.866 142.448 132.866H141.221V139.763H139.386V123.521H143.062Z" fill="white"/>
<path fill-rule="evenodd" clip-rule="evenodd" d="M154.862 130.646V132.253H150.952V138.08H155.779V139.763H149.042V123.521H155.779V125.128H150.952V130.646H154.862Z" fill="white"/>
<path fill-rule="evenodd" clip-rule="evenodd" d="M160 134.935H163.676L161.835 125.59L160 134.935ZM159.766 136.466L159.152 139.763H157.469L160.69 123.521H163.29L166.359 139.763H164.517L163.903 136.466H159.766Z" fill="white"/>
<path fill-rule="evenodd" clip-rule="evenodd" d="M123.214 139.997H123.979V59.9971H123.214V139.997Z" fill="white"/>
</g>
</g>
<defs>
<clipPath id="clip0_270_10384">
<rect width="150.345" height="80" fill="white" transform="translate(24.8276 60)"/>
</clipPath>
</defs>
</svg>
