<svg width="200" height="200" viewBox="0 0 200 200" fill="none" xmlns="http://www.w3.org/2000/svg">
<rect width="200" height="200" rx="20" fill="black" fill-opacity="0.08"/>
<rect x="0.75" y="0.75" width="198.5" height="198.5" rx="19.25" stroke="white" stroke-opacity="0.64" stroke-width="1.5"/>
<path d="M58.7685 72.9625C58.9774 72.5866 59.2489 72.1897 59.5831 71.7719C59.9173 71.3542 60.7737 70.3934 62.1523 68.8894C65.4107 64.6702 68.0425 60.618 70.0478 56.7329L73.1182 48.8374C73.2017 48.4615 73.1391 48.19 72.9302 48.0228C72.6795 47.9393 71.8023 48.5451 70.2984 49.84C69.8806 50.2579 69.1287 51.156 68.0426 52.5345C66.9564 53.9132 65.8493 55.7826 64.7214 58.1428C63.5935 60.5032 62.9251 62.0175 62.7162 62.6858L61.5257 65.6936C64.241 60.1794 66.6222 56.1481 68.6692 53.5997C69.5464 52.5972 69.7762 52.5764 69.3585 53.5371C67.9799 55.3753 66.9355 57.0254 66.2253 58.4874C63.8859 63.4587 61.8807 67.302 60.2097 70.0173L59.0192 71.8972L58.7685 72.9625ZM80.8257 60.1793C80.9928 60.3047 81.1808 60.3256 81.3897 60.242C82.4758 59.6154 83.541 59.0933 84.5855 58.6754C84.8361 58.5502 84.9405 58.3413 84.8988 58.0488L84.5228 55.041V54.853C82.8935 55.605 81.0345 56.3988 78.9458 57.2342L78.3192 57.4848L78.8832 57.9861L80.8257 60.1793ZM78.1939 55.041C80.575 53.4536 83.0188 51.8453 85.5254 50.216C87.0292 49.297 88.4078 48.5242 89.6611 47.8975C90.789 47.6469 90.8725 47.814 89.9118 48.3988C86.2773 50.4041 82.3296 52.9941 78.0686 56.1689V56.5449C81.5776 54.9993 84.4288 53.6625 86.622 52.5345C88.8151 51.4067 90.6428 50.1743 92.105 48.8374C93.0657 47.8767 93.5461 46.9994 93.5462 46.2056C92.6689 45.8715 91.4783 45.8715 89.9744 46.2056C86.9248 47.4172 83.0188 50.1116 78.2565 54.289L78.1939 55.041ZM78.0059 52.9731L78.8832 52.4092C81.3061 50.4041 83.5724 48.7957 85.682 47.5841C87.7916 46.3728 89.4522 45.6835 90.6637 45.5163L92.0423 43.6991C92.2929 43.1979 92.1467 42.8846 91.6037 42.7591C90.4757 42.7175 89.1389 42.9055 87.5933 43.3231C84.4183 44.3676 81.6925 45.8297 79.4158 47.7095C77.139 49.5895 74.9563 51.9497 72.8676 54.7903L76.5647 51.4692C80.4079 48.6286 83.1651 46.7592 84.8361 45.8609C86.5071 44.9629 87.8021 44.3885 88.7212 44.1377C88.4287 44.5138 87.3634 45.1613 85.5254 46.0802C82.6847 47.7514 79.3427 50.1952 75.4994 53.4118C76.7108 52.7852 77.5463 52.639 78.0059 52.9731ZM66.9146 115.886L67.04 110.999L67.1026 107.427C67.2279 101.996 67.6248 97.5471 68.2932 94.0797C68.5438 93.6203 68.5856 93.8082 68.4185 94.6437C68.1261 98.0693 67.9485 101.129 67.8859 103.824C67.8232 106.518 67.7605 108.68 67.6979 110.309C67.6352 111.939 67.6039 114.048 67.6039 116.638L68.4185 114.884C69.1705 113.714 69.7344 111.458 70.1104 108.116C70.4028 105.484 70.4028 102.529 70.1104 99.2494C69.818 95.9701 69.442 93.7247 68.9825 92.5132C68.1887 92.7221 67.3532 94.5602 66.476 98.0275C65.8493 100.785 65.4734 103.354 65.3481 105.735C65.2645 108.952 65.5151 112.022 66.1 114.946L66.9146 115.886ZM58.8938 101.85C59.4369 102.351 59.5413 102.894 59.2072 103.479C59.0818 103.855 59.1862 104.597 59.5205 105.704C59.8546 106.811 60.2097 107.657 60.5857 108.241L60.6484 107.991C60.1471 106.863 59.7502 105.631 59.4578 104.294C59.3325 103.834 59.4578 103.542 59.8338 103.416L62.5283 102.101C62.7789 101.975 62.8833 101.766 62.8416 101.474C62.6327 100.388 62.4865 99.2181 62.4029 97.9648C62.4029 97.7142 62.2776 97.568 62.027 97.5262L59.1445 97.0875C58.7685 97.0458 58.5805 96.816 58.5805 96.3982C58.497 94.9362 58.497 93.474 58.5805 92.0119C58.5805 91.6777 58.7476 91.4688 59.0818 91.3852L62.027 90.9466C62.2776 90.9049 62.4029 90.7587 62.4029 90.5079C62.4447 89.2965 62.5909 88.1268 62.8416 86.9989C62.9669 86.7065 62.9042 86.4976 62.6536 86.3722L61.5257 85.8709C60.0635 88.3775 58.9983 90.508 58.3299 92.2625C57.6615 94.0171 57.3064 95.333 57.2646 96.2102C57.933 99.5523 58.4761 101.432 58.8938 101.85ZM88.7838 137.63C89.9953 137.588 91.1232 137.505 92.1676 137.38C91.8751 136.878 91.1023 135.959 89.8491 134.622L84.7108 132.68L81.703 131.239C81.1599 130.988 80.7108 130.946 80.3557 131.113C80.0006 131.28 79.7395 131.719 79.5725 132.429L79.6978 132.554C80.0319 131.803 80.3453 131.385 80.6377 131.301C81.0554 131.176 81.5985 131.301 82.2669 131.677C82.7264 131.928 83.2068 132.346 83.7082 132.93C84.2094 133.515 85.0032 134.455 86.0894 135.75L88.7838 137.63ZM99.6245 148.721C100.293 148.847 100.94 148.638 101.567 148.095L102.946 147.218L104.637 145.087L104.951 146.09C105.285 146.382 105.849 146.006 106.643 144.962C106.851 144.168 106.82 143.353 106.549 142.518C106.277 141.682 105.076 140.116 102.946 137.818L101.755 136.69L101.003 136.628L102.57 137.38L101.692 137.755L100.188 137.129C98.7262 136.669 97.4521 136.711 96.366 137.254C98.204 137.045 99.1649 137.129 99.2485 137.505C99.5826 137.964 100.084 139.082 100.752 140.857C101.421 142.633 101.692 144.084 101.567 145.212L99.6245 147.092C98.9142 147.886 98.6636 147.969 98.8725 147.343L98.5592 147.092L97.4313 147.656L99.6245 148.721ZM119.614 150.1C124.418 150.727 128.533 150.998 131.958 150.915C136.762 147.698 140.564 145.087 143.363 143.082L146.621 140.951C147.457 139.949 148 139.071 148.251 138.319C147.123 136.69 146.412 134.977 146.12 133.181C145.953 132.471 145.89 131.709 145.932 130.894C145.974 130.079 145.117 129.651 143.363 129.609L141.859 129.672L138.475 129.484C137.807 129.317 137.347 129.004 137.097 128.544L136.971 127.917L138.162 128.231V126.852L137.285 127.103C136.198 127.437 135.801 127.813 136.094 128.231C136.553 128.816 136.804 129.484 136.846 130.236C136.721 132.575 136.574 134.226 136.407 135.186C138.287 133.724 140.627 132.262 143.426 130.8C143.175 130.675 142.757 130.633 142.172 130.675C141.671 130.466 141.629 130.194 142.047 129.86C143.342 129.86 144.313 129.954 144.961 130.142C145.608 130.33 145.577 130.633 144.867 131.051C142.527 132.053 139.666 133.829 136.282 136.377C132.773 139.343 130.454 141.056 129.326 141.515C128.7 141.724 127.781 141.776 126.569 141.672C125.358 141.567 123.394 141.265 120.679 140.763C117.88 140.346 115.468 139.886 113.442 139.385C111.415 138.883 109.107 138.549 106.517 138.382L105.577 138.507V138.883C106.872 140.387 107.656 141.693 107.927 142.8C108.199 143.907 108.303 144.617 108.241 144.93C108.178 145.244 107.791 145.86 107.081 146.779L106.643 147.218L107.645 147.468C112.157 148.763 116.146 149.64 119.614 150.1ZM138.475 114.32C138.475 114.863 138.705 115.594 139.164 116.513C139.331 116.764 139.154 116.993 138.632 117.202C138.11 117.411 137.848 117.683 137.849 118.017C138.183 119.897 137.848 121.609 136.846 123.155C137.64 122.529 138.444 121.756 139.258 120.837C140.073 119.918 140.731 118.852 141.232 117.641C140.898 117.098 140.459 116.555 139.916 116.012C139.499 115.552 139.499 115.427 139.916 115.636C140.459 115.928 140.982 116.45 141.483 117.202C142.151 115.865 142.736 114.194 143.238 112.189C142.611 109.933 141.817 108.116 140.856 106.738C140.271 105.693 140.418 105.714 141.295 106.8C142.256 108.137 143.029 109.641 143.614 111.312C144.24 109.39 144.637 107.907 144.804 106.863L143.989 104.231C144.365 104.691 144.7 105.359 144.992 106.236L145.619 104.043C145.953 103.208 146.015 103.437 145.807 104.732C145.347 106.946 144.825 108.952 144.24 110.748C145.535 109.578 146.496 108.471 147.123 107.427C147.666 106.926 147.645 107.114 147.06 107.991C146.642 108.91 145.619 110.163 143.989 111.751C143.655 113.589 143.091 115.301 142.298 116.889C143.133 116.262 143.927 115.803 144.679 115.51C145.055 115.469 144.95 115.636 144.365 116.012C143.697 116.262 142.924 116.784 142.047 117.578C141.42 119.918 139.749 122.111 137.034 124.158C138.496 123.656 139.833 123.072 141.044 122.403C142.089 121.818 142.402 121.108 141.984 120.273C143.488 118.894 144.7 117.641 145.619 116.513C146.245 115.51 146.329 114.612 145.869 113.818C145.577 113.442 146.287 112.273 148 110.309C148.543 109.557 148.887 108.659 149.034 107.615C149.18 106.57 149.149 105.986 148.94 105.86C147.728 105.986 147.185 104.941 147.311 102.727C147.018 101.056 146.6 100.513 146.057 101.098C145.514 102.309 144.919 102.8 144.271 102.57C143.624 102.341 143.3 102.435 143.3 102.852C143.342 104.732 142.82 105.463 141.734 105.046L140.104 104.043C138.726 103.584 138.412 104.189 139.164 105.86L140.23 107.302C140.606 108.346 140.564 108.889 140.104 108.931C139.102 108.722 138.6 108.993 138.601 109.745C138.768 111.04 139.175 112.033 139.822 112.722C140.47 113.411 140.522 113.944 139.979 114.32C139.311 114.153 138.809 114.153 138.475 114.32ZM131.238 113.035C131.467 113.223 131.603 113.516 131.645 113.912C131.687 114.309 131.854 114.591 132.146 114.758C132.647 114.215 133.086 113.693 133.462 113.192C133.42 112.983 133.295 112.732 133.086 112.44C132.877 112.147 132.282 111.552 131.3 110.654C130.319 109.756 129.577 108.973 129.076 108.304C128.783 107.928 128.867 107.886 129.326 108.179C129.869 108.805 130.507 109.39 131.238 109.933C131.969 110.476 132.689 111.124 133.4 111.876C133.274 110.038 133.044 108.137 132.71 106.174C132.543 104.962 132.647 104.941 133.024 106.111C133.483 107.824 133.755 109.014 133.838 109.683C134.089 109.307 134.308 108.931 134.496 108.555C134.684 108.179 134.903 107.74 135.154 107.239C135.614 106.403 135.676 106.487 135.342 107.489C135.217 107.907 135.06 108.377 134.872 108.899C134.684 109.422 134.475 109.892 134.245 110.309C134.016 110.727 134.026 111.458 134.277 112.502C134.987 111.542 136.157 110.33 137.786 108.868C138.078 106.445 137.995 105.234 137.535 105.234C137.076 105.234 136.762 105.683 136.595 106.581C136.428 107.479 136.324 107.364 136.282 106.236C136.24 105.108 136.083 104.503 135.812 104.419C135.54 104.336 135.227 104.45 134.872 104.764C134.517 105.077 134.214 105.244 133.963 105.265C133.713 105.286 133.546 104.21 133.462 102.038C133.462 101.495 133.629 101.035 133.963 100.659C134.298 100.283 134.433 99.5418 134.371 98.4348C134.308 97.3278 134.235 96.5654 134.151 96.1476C134.068 95.7299 133.932 95.333 133.744 94.957C133.556 94.5811 133.379 94.3304 133.212 94.205C133.044 94.0798 132.835 94.2155 132.585 94.6123C132.334 95.0093 132.146 95.0615 132.021 94.769C131.896 94.4766 131.624 94.2051 131.206 93.9544C130.789 93.7038 130.381 93.8813 129.984 94.487C129.587 95.0928 129.201 96.2938 128.825 98.0901C129.661 97.1293 130.308 96.6698 130.768 96.7115C131.227 96.7534 131.478 96.9309 131.52 97.2442C131.561 97.5575 131.676 97.9962 131.864 98.5601C132.052 99.1241 132.157 99.9492 132.178 101.035C132.198 102.121 132.24 102.779 132.303 103.009C132.366 103.239 132.345 103.469 132.24 103.698C132.136 103.928 131.896 104.106 131.52 104.231C131.854 104.273 132.021 104.346 132.021 104.45C132.021 104.555 131.906 104.993 131.676 105.766C131.446 106.539 131.311 107.03 131.269 107.239C131.227 107.49 131.248 107.866 131.332 108.367C131.123 108.033 131.018 107.698 131.018 107.364C131.311 105.735 131.415 104.795 131.332 104.544L131.081 104.294L131.332 104.043C131.499 102.832 131.478 101.662 131.269 100.534C131.06 99.4061 130.788 98.6019 130.454 98.1214C130.12 97.6411 129.431 97.9648 128.387 99.0927C127.843 98.6332 127.447 98.4661 127.196 98.5914C126.945 98.7168 127.05 99.2599 127.509 100.221C128.01 100.931 128.533 101.787 129.076 102.79C129.368 103.416 129.619 104.043 129.828 104.67C130.037 105.296 130.037 105.965 129.828 106.675C128.616 105.756 127.843 105.537 127.509 106.017C127.175 106.497 127.123 106.988 127.353 107.489C127.582 107.991 127.843 108.429 128.136 108.805C127.76 109.557 128.094 110.393 129.138 111.312C130.308 112.273 131.008 112.847 131.238 113.035ZM60.0844 115.698C60.2515 114.362 60.4604 113.213 60.711 112.252C61.7136 109.119 63.134 105.965 64.9721 102.79C65.0138 101.954 65.2436 100.68 65.6614 98.9674C63.1966 102.268 61.6196 105.453 60.9304 108.523C60.2411 111.594 59.9591 113.986 60.0844 115.698ZM117.233 48.5867C116.272 47.2918 115.77 46.2266 115.729 45.391C115.729 44.5973 115.854 44.6809 116.105 45.6416C116.355 46.3937 117.086 47.5007 118.298 48.9627L119.175 49.3387C120.512 48.5869 121.64 48.6495 122.559 49.5267L122.371 48.0228C121.995 47.1874 121.368 47.0621 120.491 47.6468C119.447 46.4354 118.507 45.506 117.671 44.8583C116.836 44.2109 115.938 43.6574 114.977 43.1978C114.183 42.9472 113.619 43.1352 113.285 43.7617L112.032 43.0098C109.901 41.9655 108.815 41.694 108.773 42.1952C108.606 42.6966 108.71 43.177 109.086 43.6364C107.457 43.4276 106.34 43.4903 105.734 43.8244C105.128 44.1587 104.961 44.5973 105.233 45.1403C105.504 45.6835 106.204 46.1848 107.332 46.6442C106.747 47.2709 106.58 47.7931 106.831 48.2108C107.207 48.7122 107.979 49.0464 109.149 49.2134L110.966 49.0254C111.426 49.0673 111.509 49.4015 111.217 50.028C111.092 50.7383 111.405 51.0307 112.157 50.9053C113.285 51.9497 114.413 52.2839 115.541 51.9079L116.731 51.6572L116.606 53.0984L118.737 53.7877L119.426 53.5371C118.799 52.3675 118.528 51.2187 118.611 50.0906L117.546 49.652C116.209 49.7774 115.206 50.0908 114.538 50.5919C113.87 50.968 113.703 50.9471 114.037 50.5293C114.914 49.9028 115.812 49.485 116.731 49.276C115.227 48.7331 113.911 48.1691 112.784 47.5841C111.238 48.0856 109.713 48.2527 108.209 48.0854C107.791 48.002 107.541 47.9185 107.457 47.8348C107.374 47.7514 107.729 47.7305 108.523 47.7721C109.776 47.814 110.987 47.5843 112.157 47.0828C111.906 46.7905 111.415 46.4668 110.684 46.1116C109.953 45.7566 108.773 45.3702 107.144 44.9523C106.726 44.7853 106.747 44.7018 107.207 44.7017C108.167 44.7436 109.379 45.0778 110.841 45.7043C111.426 45.9968 112.052 46.2892 112.721 46.5815C111.844 45.7879 111.154 44.9315 110.653 44.0124C110.569 43.2605 110.757 43.2605 111.217 44.0124C111.676 44.6391 112.334 45.412 113.191 46.3309C114.047 47.2501 115.394 48.002 117.233 48.5867ZM120.679 57.0462C121.473 57.2969 122.162 57.3805 122.747 57.2968C122.454 56.6285 122.35 55.9601 122.434 55.2916C121.765 55.5006 121.18 55.5424 120.679 55.417C120.178 55.3753 120.115 55.2708 120.491 55.1036C121.577 55.1873 122.58 54.8531 123.499 54.101C122.956 53.3492 122.329 52.6181 121.619 51.9079C120.909 51.1978 121.118 51.1351 122.246 51.7199C122.83 52.1377 123.332 52.639 123.75 53.2238C123.624 52.263 123.624 51.4484 123.75 50.7799C123.958 49.7357 124.668 49.2135 125.88 49.2134C124.752 48.5869 123.791 49.0464 122.998 50.5919C121.201 49.5895 120.073 49.5895 119.614 50.5919C119.655 51.8453 119.917 52.6181 120.397 52.9105C120.877 53.203 120.867 53.6416 120.366 54.2264L119.238 54.665C119.28 55.7513 119.76 56.545 120.679 57.0462ZM125.065 60.9939C125.525 62.5815 126.674 63.6676 128.512 64.2524L128.888 63.5631C131.144 64.5658 132.564 65.5057 133.149 66.3829C133.525 66.8425 133.587 67.3438 133.337 67.8868C134.005 67.0096 134.527 66.8007 134.903 67.2602L134.465 66.0069C134.381 65.4222 134.486 64.9626 134.778 64.6283L134.653 64.2524C133.232 63.3752 131.76 62.7799 130.235 62.4665C128.71 62.1533 127.822 61.8713 127.572 61.6205C126.736 61.0776 126.862 61.0358 127.948 61.4952C128.198 61.7042 129.034 61.9339 130.454 62.1845C131.875 62.4352 133.17 62.8739 134.339 63.5004L133.588 61.8085C132.668 60.43 131.937 59.5737 131.394 59.2394C130.392 58.7382 129.316 58.3831 128.167 58.1741C127.018 57.9653 126.256 57.7356 125.88 57.4848C125.212 57.0672 125.191 56.921 125.817 57.0462C126.486 57.3805 127.217 57.5998 128.011 57.7041C128.804 57.8087 129.744 58.028 130.83 58.3621C130.287 57.7773 129.577 56.9836 128.7 55.9809C127.822 54.9784 126.987 53.7252 126.193 52.2212C126.151 51.8871 126.298 52.0124 126.632 52.5971C127.927 54.4353 129.055 55.8348 130.016 56.7955C129.849 55.7095 129.807 54.5398 129.89 53.2864C129.974 52.7435 130.078 52.9732 130.204 53.9757C130.12 55.1455 130.204 56.1899 130.454 57.1088C131.749 58.2786 132.961 59.5946 134.089 61.0566C134.005 60.2212 134.026 59.1977 134.151 57.9861C134.235 57.4014 134.298 57.4014 134.339 57.9861C134.298 59.3648 134.423 60.6807 134.715 61.9339L135.217 63.0618C135.258 62.0175 135.551 61.1402 136.094 60.43C136.136 58.7173 135.739 57.4849 134.903 56.7329C134.569 55.3544 134.235 54.6651 133.901 54.665C133.692 54.6651 133.42 55.062 133.086 55.8556L132.084 55.4796C131.457 52.5972 130.778 51.0411 130.047 50.8113C129.316 50.5816 128.93 50.7591 128.888 51.3439C127.802 50.5085 126.695 50.1743 125.567 50.3413C124.773 50.8009 124.46 51.5946 124.627 52.7225L125.191 54.9157L124.752 55.4796L123.812 55.7303C123.269 56.0228 123.269 56.5241 123.812 57.2342C124.606 58.2369 125.608 58.947 126.82 59.3647C127.447 59.8243 127.3 60.0854 126.381 60.148C125.462 60.2107 125.024 60.4927 125.065 60.9939ZM109.713 137.442C110.465 137.066 111.3 136.628 112.22 136.126C112.512 136.001 112.742 135.688 112.909 135.186C112.992 134.476 113.494 133.923 114.413 133.526C115.332 133.129 116.063 132.951 116.606 132.993C117.233 133.035 117.755 132.889 118.173 132.554L118.862 132.116L118.361 131.489C118.193 131.28 118.005 131.218 117.797 131.301C116.627 131.594 114.267 132.617 110.716 134.372C109.922 134.831 109.274 135.353 108.773 135.938L107.771 137.317L109.713 137.442ZM119.614 135.374L123.812 132.805L124.063 131.239C124.982 131.907 125.796 132.074 126.507 131.74C127.133 131.573 127.728 131.071 128.293 130.236C128.856 129.4 129.681 128.377 130.768 127.166C131.854 125.954 132.982 125.035 134.151 124.408C133.859 123.406 134.131 122.445 134.966 121.526L137.034 119.646C136.574 117.933 136.846 116.722 137.849 116.012C137.514 115.176 137.535 114.194 137.911 113.066C136.198 116.743 135.123 118.988 134.684 119.803C134.245 120.617 133.901 120.962 133.65 120.837C133.399 120.711 133.295 120.043 133.337 118.831L132.648 120.022L132.71 122.215C129.702 126.1 127.739 128.273 126.82 128.732C126.319 128.941 125.859 129.254 125.441 129.672C124.815 129.923 124.648 129.776 124.94 129.233C125.274 128.857 125.776 128.502 126.444 128.168C127.321 127.542 127.99 126.706 128.449 125.662C129.201 123.782 130.642 121.233 132.773 118.017C133.399 116.889 134.966 114.779 137.473 111.688L137.535 110.121C136.741 110.957 135.781 111.98 134.653 113.192C133.525 114.403 132.459 115.709 131.457 117.108C130.454 118.508 129.514 120.022 128.637 121.651C128.094 122.069 127.488 121.902 126.82 121.15L127.008 122.716L126.945 124.22C126.653 125.223 126.172 126.069 125.504 126.758C124.836 127.448 124.209 128.314 123.624 129.359C123.165 130.612 121.494 131.991 118.611 133.494L119.614 135.374ZM113.097 138.006C115.311 137.171 116.543 136.46 116.794 135.876C117.086 134.706 117.065 134.1 116.731 134.058C115.938 133.975 115.206 134.184 114.538 134.685C113.828 135.103 113.577 135.667 113.786 136.377L114.099 137.38H113.786L113.222 136.502L111.029 137.755L113.097 138.006ZM116.606 139.071C119.029 139.531 120.783 139.844 121.87 140.011C121.326 139.259 120.971 138.445 120.804 137.567C120.637 138.319 119.969 138.57 118.799 138.319L116.606 139.071ZM137.974 103.04C138.851 102.581 139.561 102.56 140.104 102.978C140.647 101.182 141.023 99.1972 141.232 97.0249L140.042 95.0823V96.3356C140 96.7534 139.791 97.004 139.415 97.0875L136.533 97.5262C136.282 97.568 136.177 97.7142 136.219 97.9648C136.094 99.2181 135.927 100.388 135.718 101.474C135.676 101.766 135.781 101.975 136.031 102.101L137.974 103.04ZM147.06 99.406C147.436 99.1972 147.958 99.0301 148.627 98.9047C149.253 98.8212 149.337 98.8839 148.877 99.0927C148.25 99.3434 147.791 99.5941 147.499 99.8447C148.209 100.764 148.543 101.725 148.501 102.727L149.19 103.98C149.901 103.772 150.381 103.531 150.632 103.26C150.882 102.988 150.976 102.644 150.914 102.226C150.851 101.808 150.36 101.516 149.441 101.349C150.444 100.722 151.112 99.6985 151.446 98.2781C151.404 97.6515 150.987 97.3382 150.193 97.3382C150.569 96.5863 150.778 95.9074 150.82 95.3016C150.861 94.696 150.694 94.0798 150.318 93.4531C149.608 92.9519 148.752 93.0981 147.749 93.8917C147.039 93.5576 146.203 93.8709 145.243 94.8317C144.7 97.0458 144.261 99.1554 143.927 101.161C144.47 101.453 145.201 100.889 146.12 99.4687C145.869 99.051 145.681 98.3617 145.556 97.4008C145.639 96.6489 145.765 96.6698 145.932 97.4635C146.057 98.1319 146.245 98.5915 146.496 98.8421C147.039 97.7142 147.666 96.6489 148.376 95.6463C148.835 95.0615 148.961 95.0406 148.752 95.5836C147.916 96.7951 147.31 98.0693 146.935 99.406H147.06ZM77.6926 139.635L81.4523 139.009L78.5699 137.129L77.6926 139.635ZM78.5699 155.238L79.1965 155.74C79.7395 155.948 80.2826 156.324 80.8257 156.868L82.3296 157.682C83.2486 158.142 83.917 158.058 84.3348 157.431C84.4601 156.93 84.1259 156.429 83.3322 155.928L81.9536 155.74L81.6403 155.364L83.4575 154.486C84.7943 153.818 85.9744 153.118 86.998 152.387C88.0214 151.656 88.93 150.935 89.7238 150.225L90.2877 150.288L89.2225 151.479C86.8413 153.275 85.0032 154.57 83.7082 155.364L84.4601 155.614C86.6742 154.069 88.6585 152.439 90.4131 150.727C91.0814 150.184 91.1023 149.703 90.4757 149.285C89.4731 149.369 88.4078 149.672 87.2799 150.194C86.152 150.716 85.1076 150.873 84.1468 150.664L83.9588 151.792C84.0423 152.293 83.7917 152.648 83.2069 152.857L80.951 154.236L81.2643 155.364H80.7004L78.8205 154.612L78.5699 155.238ZM125.817 66.5709C126.026 66.7798 126.256 66.8216 126.507 66.6962L128.073 65.3803C126.903 64.9209 125.953 64.2942 125.222 63.5004C124.491 62.7068 124.042 62.1219 123.875 61.7459L122.998 63.7511C122.872 64.0018 122.914 64.1689 123.123 64.2524C124.167 65.0044 125.065 65.7772 125.817 66.5709ZM81.515 133.808C82.0998 134.1 82.6846 134.1 83.2695 133.808L82.8309 133.118L81.8283 132.241C81.2852 131.949 80.8465 132.22 80.5124 133.056L81.515 133.808ZM141.922 103.98C142.465 101.808 143.029 99.1345 143.614 95.9596C143.07 95.9596 142.673 96.0014 142.423 96.0849C142.256 98.0066 141.796 100.471 141.044 103.479L141.922 103.98ZM94.2355 138.257C92.8986 138.299 91.7916 138.382 90.9144 138.507C88.5331 138.8 86.2355 139.155 84.0215 139.573L78.6325 140.575C75.0816 141.077 72.3245 141.348 70.3611 141.39C68.3558 139.928 65.536 138.048 61.9016 135.75C59.604 134.246 56.9513 132.742 53.9435 131.239C53.5257 130.863 53.4631 130.508 53.7555 130.173C54.1315 129.964 54.967 129.86 56.262 129.86C56.8468 129.902 57.0766 130.048 56.9513 130.299C56.826 130.549 56.5753 130.685 56.1994 130.706C55.8234 130.727 55.4892 130.758 55.1968 130.8C57.745 131.928 60.1262 133.223 62.3403 134.685L62.2776 131.427C62.2358 130.257 62.4865 129.213 63.0296 128.293C63.1549 127.583 62.3402 126.998 60.5857 126.539C60.3351 126.455 60.2097 126.518 60.2097 126.727L60.2724 128.168L61.087 126.915L61.651 127.166L60.711 129.045C60.5857 129.338 60.3142 129.463 59.8964 129.421C58.9356 129.338 57.0557 129.38 54.2568 129.547C53.1289 129.588 52.7947 130.32 53.2542 131.74C53.3377 132.074 53.296 132.534 53.1289 133.118C52.7529 134.497 52.0218 136.084 50.9357 137.881C50.6015 138.257 51.2699 139.343 52.9409 141.139C54.403 142.518 56.9722 144.314 60.6484 146.528C65.8285 149.452 68.9616 151.061 70.0478 151.353C74.3088 150.852 78.6325 150.204 83.0189 149.411C84.7734 149.035 86.7368 148.607 88.9092 148.126C91.0814 147.646 94.6532 146.486 99.6245 144.648C99.9586 144.565 100.063 144.126 99.9378 143.332C99.6871 141.787 99.0187 139.99 97.9326 137.943C96.8046 138.111 95.5722 138.215 94.2355 138.257ZM84.3975 113.317L99.1231 102.163L113.849 113.317L108.147 95.5836L123.436 84.555H104.825L99.1231 67.4482L93.4209 84.555H74.8101L90.0998 95.5836L84.3975 113.317ZM63.1549 142.392C63.6144 142.81 64.0426 142.988 64.4395 142.925C64.8363 142.862 65.1705 142.612 65.4421 142.173C65.7136 141.735 65.8076 141.327 65.724 140.951C65.6405 140.575 65.3063 140.241 64.7214 139.949L63.1549 142.392ZM86.9666 53.6624C87.9274 53.2865 88.6376 53.0777 89.0972 53.0358C89.5149 52.9941 89.8073 53.0985 89.9744 53.3491L91.2903 56.2316C91.5409 56.4405 91.7498 56.5032 91.917 56.4196C93.0031 56.2108 94.1728 56.0646 95.4261 55.9809C95.6767 55.981 95.8229 55.8557 95.8647 55.6049L96.3033 52.6598C96.3868 52.3257 96.5957 52.1586 96.93 52.1585C98.392 52.0751 99.8542 52.0751 101.316 52.1585C101.734 52.1586 101.964 52.3466 102.006 52.7225L102.444 55.6049C102.486 55.8557 102.632 55.981 102.883 55.9809C104.136 56.0646 105.306 56.2108 106.392 56.4196C106.684 56.4614 106.893 56.357 107.019 56.1062L108.335 53.4118C108.502 53.0359 108.794 52.9106 109.212 53.0358C110.59 53.3283 111.948 53.7878 113.285 54.4144C113.577 54.5816 113.723 54.8113 113.724 55.1036L113.348 57.9861C113.389 58.2786 113.535 58.4875 113.786 58.6127C114.705 58.9888 115.75 59.511 116.919 60.1793C117.128 60.3047 117.316 60.2838 117.483 60.1166L119.488 57.8608C119.572 57.7773 119.676 57.7356 119.802 57.7355L119.927 57.4848C118.924 56.9836 118.381 56.1481 118.298 54.9783L115.854 53.9757L116.042 52.7851C114.246 53.4119 112.742 53.0985 111.53 51.8452C110.653 51.5946 110.319 50.9889 110.528 50.028C109.609 50.237 108.669 50.2161 107.708 49.9653C106.413 49.5477 105.744 49.0255 105.703 48.3988C105.661 47.7722 105.765 47.3127 106.016 47.0202C105.055 46.519 104.439 45.8715 104.167 45.0776C103.896 44.284 104.042 43.6679 104.606 43.2291C105.17 42.7906 106.204 42.5295 107.708 42.4458C107.583 41.3598 108 40.8376 108.961 40.8793C109.588 41.0882 110.256 41.2762 110.966 41.4432C111.676 41.6104 112.345 42.0073 112.972 42.6338C113.347 42.0073 114.141 41.9029 115.353 42.3205C116.815 42.989 118.569 44.3885 120.616 46.5189C121.87 45.6417 122.705 45.9759 123.123 47.5215L123.311 48.8374C124.48 47.5843 125.776 47.7096 127.196 49.2134C127.655 49.2135 128.219 49.4224 128.888 49.84C129.222 49.673 129.577 49.6103 129.953 49.652C130.956 49.6939 131.687 50.2161 132.146 51.2186C132.606 52.2213 132.898 53.1821 133.024 54.101C133.316 52.9732 133.838 52.5555 134.59 52.8478C135.133 53.4745 135.593 54.5816 135.969 56.1689C136.637 57.0045 136.992 57.9444 137.034 58.9887C138.454 58.5711 139.979 59.5737 141.608 61.9965C142.193 61.2864 142.987 61.6833 143.989 63.1871C144.658 64.3569 145.076 65.5893 145.243 66.8842C146.287 66.4665 146.872 67.49 146.997 69.9547C147.791 71.8346 148.177 73.067 148.157 73.6517C148.136 74.2367 148.021 74.738 147.812 75.1556C148.397 74.738 148.835 74.8633 149.128 75.5316C149.838 76.7014 150.151 77.6622 150.068 78.4141C150.068 79.2079 149.462 80.1478 148.251 81.2339C150.465 80.6074 151.112 81.3175 150.193 83.3644C148.856 85.4115 148.125 86.8318 148 87.6255C148 88.9206 147.843 89.871 147.53 90.4766C147.216 91.0824 146.517 91.6359 145.431 92.1372C145.598 92.555 145.577 93.0354 145.368 93.5784C146.579 92.4923 147.54 92.1372 148.251 92.5132C149.462 91.5524 150.485 91.3644 151.321 91.9492C152.115 92.5341 152.344 93.9544 152.01 96.2102C152.929 97.5889 152.783 99.1345 151.572 100.847C152.031 101.265 152.261 101.787 152.261 102.414C152.261 103.04 152.104 103.531 151.791 103.886C151.478 104.242 150.924 104.67 150.13 105.171C150.339 106.382 150.36 107.51 150.193 108.555C149.984 109.724 149.044 111.312 147.373 113.317C147.749 114.529 147.582 115.636 146.872 116.638C145.076 118.769 143.781 120.064 142.987 120.523C143.405 121.359 143.405 122.006 142.987 122.466C140.313 124.22 138.141 125.16 136.47 125.286C135.091 125.453 133.817 126.038 132.648 127.04L129.013 131.427C128.762 132.137 128.366 132.596 127.823 132.805C127.822 133.641 127.551 134.152 127.008 134.34C126.465 134.528 125.796 134.685 125.003 134.81C123.833 135.688 122.726 136.44 121.682 137.066C121.974 138.487 122.454 139.489 123.123 140.074C126.172 140.617 128.136 140.742 129.013 140.45C130.099 139.907 132.167 138.424 135.217 136.001C135.426 135.04 135.655 133.181 135.906 130.424C135.906 129.881 135.676 129.4 135.217 128.983C134.632 128.314 134.611 127.688 135.154 127.103C135.53 126.643 136.637 126.184 138.475 125.724C138.976 125.641 139.164 125.933 139.039 126.602L138.976 128.105C139.102 128.398 139.561 128.586 140.355 128.669C142.026 128.502 143.53 128.481 144.867 128.607C145.619 128.69 146.099 128.878 146.308 129.171C146.809 129.672 146.997 130.205 146.872 130.769C146.747 131.333 146.767 131.97 146.935 132.68C147.06 133.432 147.363 134.351 147.843 135.437C148.324 136.523 148.877 137.359 149.504 137.943C148.877 139.406 148.042 140.701 146.997 141.829C139.937 146.842 135.707 149.86 134.308 150.883C132.909 151.907 131.791 152.335 130.956 152.168C124.188 151.708 118.528 151.082 113.974 150.288L114.977 151.04C116.522 152.251 118.047 153.212 119.551 153.922L120.742 154.236L121.306 154.8C121.389 155.343 121.076 155.886 120.366 156.429L118.987 156.868C117.859 157.828 116.648 158.288 115.353 158.246L114.475 157.933L113.598 156.304C112.303 156.053 111.509 155.74 111.217 155.364C110.716 154.862 110.486 154.424 110.528 154.048C106.851 150.747 104.282 148.93 102.82 148.596L101.191 149.536C100.564 149.828 99.8333 149.87 98.9978 149.661C97.285 148.742 96.3868 148.387 96.3033 148.596L94.1102 150.1C93.8177 150.267 93.6297 150.685 93.5462 151.353C93.1284 152.105 92.2093 152.606 90.789 152.857L88.9718 154.236C88.9718 155.155 88.742 155.76 88.2825 156.053L86.2147 156.993C85.964 157.995 85.4627 158.643 84.7108 158.935C83.917 159.186 83.0815 159.186 82.2043 158.935L79.8858 157.557L79.0712 156.617C78.4027 156.408 77.9432 156.032 77.6926 155.489C77.3583 154.277 77.6299 153.63 78.5072 153.546C79.1338 153.839 80.5541 153.15 82.7682 151.479L82.7056 150.789C74.9772 151.959 70.7997 152.523 70.1731 152.481C67.1653 151.186 64.0112 149.557 60.711 147.593C57.9121 145.964 55.9591 144.753 54.8521 143.959C53.7451 143.165 52.92 142.497 52.3769 141.954C51.1237 140.701 50.3404 139.782 50.0271 139.197C49.7138 138.612 49.6407 138.173 49.8078 137.881C51.061 135.959 51.8338 134.33 52.1263 132.993C52.2098 132.659 52.2307 132.262 52.189 131.803C51.8547 130.549 51.8652 129.714 52.2203 129.296C52.5754 128.878 53.0244 128.669 53.5675 128.669L59.5205 128.544V126.476C59.5622 126.1 59.7084 125.871 59.9591 125.787C60.5439 125.662 61.5256 125.933 62.9042 126.602C63.8233 127.186 64.2201 127.834 64.0948 128.544C63.5517 129.421 63.322 130.508 63.4055 131.803L63.5935 135.562C66.5595 137.567 68.8571 139.155 70.4864 140.325C72.2409 140.283 74.1626 140.116 76.2513 139.823L77.4419 136.44C76.3975 135.688 75.2278 134.685 73.9328 133.432L72.9929 133.557C72.0738 133.557 71.3845 133.056 70.925 132.053C69.8389 132.137 68.7945 131.406 67.7919 129.86C66.2044 128.022 64.8885 126.267 63.8442 124.596C63.134 124.805 62.3611 124.69 61.5257 124.252C60.6901 123.813 59.8129 123.134 58.8938 122.215L54.3195 116.826C51.2699 113.108 49.1185 108.471 47.8652 102.915C47.6146 101.202 47.4684 99.5732 47.4266 98.0275C47.3848 96.4818 47.3848 95.521 47.4266 95.145C47.5937 94.1842 48.0114 93.5785 48.6799 93.3278C50.0584 92.8683 51.9592 95.333 54.3821 100.722C55.6354 103.688 57.2646 108.074 59.2698 113.881C59.2698 112.962 59.3533 112.043 59.5205 111.124C58.6014 109.411 57.8703 107.552 57.3273 105.547C57.1184 104.92 56.8573 104.503 56.544 104.294C56.2307 104.085 56.0949 103.719 56.1367 103.197C56.1784 102.675 56.0322 101.913 55.6981 100.91C55.0714 98.7795 54.5701 97.2547 54.1942 96.3356C53.6093 96.1268 52.9827 95.3957 52.3143 94.1424C51.6459 92.8892 50.9775 90.9467 50.3091 88.3148C49.766 85.683 49.5989 83.2183 49.8078 80.9206C50.142 77.328 50.6328 74.4455 51.2803 72.2732C51.9278 70.101 52.6798 68.2211 53.5362 66.6335C54.3926 65.0462 55.1341 63.8243 55.7607 62.9678C56.3873 62.1115 57.0348 61.2238 57.7032 60.3046C58.3716 59.3857 59.04 58.6964 59.7084 58.2368C60.4186 57.9862 60.8781 58.1324 61.087 58.6754C61.463 60.0123 61.5048 61.6206 61.2123 63.5004C61.7554 61.8295 62.7684 59.5528 64.2515 56.6702C65.7345 53.7878 67.4368 51.3649 69.3585 49.4014C71.113 47.814 72.3245 46.9367 72.9929 46.7695C73.6195 46.6025 74.0268 46.707 74.2148 47.0828C74.4028 47.4589 74.3923 48.0856 74.1835 48.9627C73.4733 50.8009 72.8049 52.4093 72.1783 53.7877L70.925 56.6702C71.9694 54.5398 73.3584 52.4824 75.0921 50.498C76.8257 48.5137 78.7787 46.8323 80.951 45.4536C83.0815 43.9498 85.5671 42.8428 88.4079 42.1325C91.1232 41.6313 92.7524 41.7566 93.2955 42.5085C93.2537 43.4276 92.8568 44.3049 92.105 45.1403C93.5252 45.1822 94.3816 45.3911 94.6741 45.7669C94.5487 47.3545 93.6506 48.8793 91.9796 50.3413C90.3921 51.6364 88.7211 52.6599 86.9666 53.4118V53.6624ZM115.165 157.118L116.23 157.306C117.191 157.097 118.026 156.68 118.737 156.053L120.366 155.552L120.616 155.238L119.927 155.113L118.924 155.364L117.421 155.113C116.794 155.238 116.282 155.385 115.885 155.552C115.488 155.719 115.165 155.99 114.914 156.366L115.165 157.118ZM62.8416 142.831L61.9016 144.272C61.7763 144.481 61.8181 144.648 62.027 144.774L61.839 145.15L60.0218 144.022L60.2724 143.646C60.4395 143.771 60.6066 143.75 60.7737 143.583L63.5309 139.385C63.6144 139.176 63.5517 139.009 63.3429 138.883L63.5935 138.507L65.7867 139.886C66.5386 140.471 66.8311 141.15 66.664 141.923C66.4969 142.695 66.0687 143.259 65.3794 143.614C64.6901 143.97 63.9486 143.813 63.1549 143.144L62.8416 142.831ZM56.262 141.641L59.3951 143.646L60.5857 143.019L60.3977 142.706C59.8964 142.915 59.1236 142.664 58.0792 141.954L59.3325 140.011L59.8964 140.387C60.1053 140.513 60.1262 140.722 59.9591 141.014L60.3351 141.265L61.2123 139.823L60.899 139.635C60.6901 139.928 60.4813 140.011 60.2724 139.886L59.7084 139.51L60.9617 137.505C61.7554 137.964 62.1731 138.424 62.2149 138.883L62.5283 139.009L62.7789 138.006L59.7084 136.064L59.5205 136.377C59.8129 136.502 59.8755 136.711 59.7084 137.004L57.014 141.139C56.8886 141.39 56.7006 141.432 56.45 141.265L56.262 141.641ZM56.074 141.891L55.9487 142.205C55.155 141.661 54.685 141.035 54.5388 140.325C54.3926 139.614 54.3612 138.695 54.4448 137.567L54.3821 137.505L53.4422 138.946C53.3586 139.113 53.4004 139.238 53.5675 139.322L53.2542 139.761L51.4997 138.633L51.813 138.194C52.0218 138.319 52.1889 138.34 52.3143 138.257L55.0088 134.121C55.0923 133.912 55.0296 133.745 54.8208 133.62L55.1341 133.181L57.4526 134.622C58.2463 135.207 58.5596 135.896 58.3925 136.69C58.2254 137.484 57.839 138.037 57.2333 138.351C56.6275 138.664 56.0322 138.612 55.4474 138.194C55.5309 138.528 55.5309 139.03 55.4474 139.698C55.4056 140.826 55.6145 141.557 56.074 141.891ZM54.7581 136.941C55.2176 137.484 55.6667 137.724 56.1054 137.661C56.544 137.599 56.8886 137.317 57.1393 136.816C57.3899 136.314 57.463 135.907 57.3586 135.594C57.2541 135.28 56.8886 134.957 56.262 134.622L54.7581 136.941ZM66.9146 140.575L68.7945 141.766L68.6692 142.017C68.3767 141.891 68.2096 141.933 68.1679 142.142L67.5413 145.902L70.2357 143.52C70.4028 143.312 70.3819 143.124 70.1731 142.956L70.2984 142.706L71.677 143.583L71.489 143.834C71.2801 143.708 71.0712 143.729 70.8624 143.896L66.0374 148.032L66.9773 141.578C67.019 141.285 66.9564 141.035 66.7893 140.826L66.9146 140.575ZM63.6562 112.001L65.0348 113.756C64.7423 112.294 64.617 110.873 64.6588 109.495L63.6562 112.001ZM67.6666 123.03L66.9773 123.907L68.0426 125.348L69.0452 126.664C69.4629 127.249 69.9642 127.688 70.5491 127.98L70.2357 127.04L69.2958 125.348L67.6666 123.03ZM78.1939 145.087L78.5072 147.719L79.3218 147.593C79.9066 147.468 80.1364 146.946 80.0111 146.027C79.8857 145.275 79.5724 144.92 79.0712 144.962L78.1939 145.087ZM77.8806 142.518L78.1312 144.586L79.0085 144.46C79.4262 144.335 79.6142 143.98 79.5725 143.395C79.4889 142.643 79.1964 142.309 78.6952 142.392L77.8806 142.518ZM70.5491 97.5888L71.7396 95.8343C72.0738 95.2077 71.9694 94.9571 71.4263 95.0823C71.0503 95.2495 70.6535 95.4792 70.2357 95.7716C70.361 96.273 70.4655 96.8787 70.5491 97.5888ZM111.718 152.481C112.428 153.191 113.389 153.964 114.601 154.8H115.478C115.77 154.549 116.481 154.424 117.609 154.424L112.282 150.476C110.486 149.975 109.316 149.87 108.773 150.163L111.718 152.481ZM111.468 154.11C111.3 154.403 111.405 154.695 111.781 154.988C112.157 155.28 112.47 155.343 112.721 155.176L111.468 154.11ZM54.3821 92.9518L54.6328 93.4531C54.9252 91.5733 55.2803 88.9623 55.6981 85.6203C54.5701 90.132 54.1315 92.5759 54.3821 92.9518ZM76.3767 142.205L78.8832 141.829C79.844 141.745 80.4497 142.142 80.7004 143.019C80.8257 143.729 80.6586 144.251 80.1991 144.586C80.7839 144.711 81.139 145.129 81.2643 145.839C81.5985 147.259 80.8257 148.074 78.9458 148.283L76.9406 148.596V148.157C77.233 148.116 77.3792 147.949 77.3793 147.656L76.878 142.956C76.8362 142.748 76.6899 142.643 76.4393 142.643L76.3767 142.205ZM71.7396 142.831L74.1835 142.518C75.1443 142.434 75.7709 142.831 76.0634 143.708C76.1886 144.419 76.0215 144.941 75.5621 145.275C76.1886 145.359 76.5646 145.755 76.69 146.466C76.9406 147.969 76.1469 148.784 74.3088 148.909L72.2409 149.223V148.784C72.5333 148.742 72.6795 148.575 72.6796 148.283L72.2409 143.583C72.1991 143.374 72.0529 143.27 71.8023 143.27L71.7396 142.831ZM73.6195 145.714L73.9328 148.345L74.8101 148.22C75.3114 148.053 75.4994 147.51 75.3741 146.591C75.2487 145.881 74.9354 145.547 74.4341 145.588L73.6195 145.714ZM73.3062 143.207L73.5569 145.275L74.3088 145.15C74.8101 145.024 75.0398 144.669 74.9981 144.084C74.9145 143.332 74.6221 142.998 74.1208 143.082L73.3062 143.207ZM64.0322 118.017L65.9747 120.962L66.1627 120.586L64.4081 117.641L64.0322 118.017ZM91.8543 139.823L92.0423 141.077L91.7916 141.139C91.4156 140.304 90.8099 139.949 89.9744 140.074C88.8047 140.492 88.3243 141.641 88.5332 143.52C89.0344 145.317 89.9953 146.006 91.4157 145.588C91.9169 145.338 92.1676 144.815 92.1676 144.022L92.5436 143.834L92.7316 145.338C92.272 145.797 91.6245 146.11 90.789 146.278C89.118 146.528 88.0318 145.923 87.5306 144.46C86.9875 142.789 87.0919 141.494 87.8439 140.575C88.8047 139.656 90.1415 139.406 91.8543 139.823ZM95.1754 138.57L93.5462 144.586C93.4208 144.878 93.2537 145.045 93.0449 145.087L93.1076 145.463L94.8621 145.087V144.711C94.5696 144.753 94.4234 144.711 94.4235 144.586L94.7994 143.27L96.6167 142.831L97.1806 143.771C97.2641 144.064 97.1597 144.251 96.8673 144.335L96.93 144.711L99.0605 144.21V143.834C98.7262 143.834 98.4965 143.729 98.3712 143.52L95.1754 138.57ZM84.7734 140.826L86.8413 140.45L86.9666 140.951C86.6742 140.951 86.5279 141.077 86.528 141.327L87.2173 145.839C87.2172 146.131 87.3843 146.236 87.7186 146.152L87.7812 146.654L85.776 147.03L85.7134 146.528C85.964 146.445 86.0893 146.278 86.0894 146.027L85.4001 141.578C85.3165 141.369 85.1494 141.285 84.8988 141.327L84.7734 140.826ZM96.2407 142.267L94.8621 142.58L95.3634 140.701L96.2407 142.267ZM80.951 141.641L83.0189 141.265L83.1442 141.703C82.81 141.745 82.6638 141.891 82.7056 142.142L83.5202 146.779C84.3974 146.612 84.9405 146.215 85.1494 145.588L85.5254 145.651L85.2121 147.155L81.9536 147.781L81.891 147.343C82.1416 147.259 82.2669 147.071 82.2669 146.779L81.5777 142.33C81.4941 142.121 81.3061 142.037 81.0137 142.079L80.951 141.641ZM57.7032 85.9963L57.2646 87.8135L56.9513 90.32L57.8286 87.3748L59.0818 83.9911L58.0792 84.179L57.7032 85.9963ZM58.2046 75.8449C57.7032 77.3907 57.3064 79.1035 57.014 80.9833L58.7059 76.4716L58.2046 75.8449ZM60.711 77.4115L59.3951 81.4846L59.8964 81.5472C60.3559 80.2523 61.0243 78.7901 61.9016 77.1608L60.711 77.4115ZM86.2773 155.614L86.7786 155.928L87.3426 155.614L87.8439 154.925L87.7186 154.612L87.4053 154.674L86.34 155.364L86.2773 155.614ZM117.859 134.121C117.817 135.124 117.713 135.834 117.546 136.252L118.737 135.75L117.859 134.121ZM127.572 119.458C126.945 119.876 126.851 120.273 127.29 120.649C127.728 121.025 128.052 121.004 128.261 120.586L128.763 119.959L127.572 119.458ZM141.358 134.998L142.298 141.014C142.339 141.223 142.235 141.432 141.984 141.641L142.11 142.017L143.864 140.826L143.676 140.575C143.258 140.826 143.049 140.826 143.05 140.575L142.799 139.573L144.491 138.445L145.368 139.009C145.535 139.134 145.493 139.28 145.243 139.447L145.493 139.886L147.499 138.57L147.185 138.194C147.018 138.278 146.788 138.278 146.496 138.194L141.358 134.998ZM135.029 140.701L137.285 144.272C137.368 144.523 137.305 144.732 137.097 144.899L137.347 145.212L138.851 144.272L138.601 143.959C138.35 144.084 138.141 144.064 137.974 143.896L136.282 141.139L141.859 142.455L138.914 138.194C138.747 137.818 138.809 137.463 139.102 137.129L138.789 136.816L137.222 137.818L137.473 138.257C137.723 138.131 137.995 138.194 138.287 138.445L139.415 140.325L135.029 139.259L133.838 140.199L134.026 140.513C134.36 140.429 134.694 140.492 135.029 140.701ZM143.927 138.069L142.736 138.883L142.36 137.066L143.927 138.069ZM131.144 141.829L132.084 147.844C132.084 148.137 131.979 148.366 131.77 148.533L131.896 148.972L133.65 147.719L133.4 147.468C133.065 147.635 132.877 147.614 132.836 147.405L132.585 146.466L134.277 145.338L135.029 145.839C135.196 145.964 135.175 146.09 134.966 146.215L135.279 146.716L137.159 145.4L136.846 145.024C136.679 145.108 136.491 145.129 136.282 145.087L131.144 141.829ZM133.65 144.962L132.46 145.776L132.084 143.896L133.65 144.962ZM128.011 143.019L130.141 143.207L130.078 143.708C129.786 143.75 129.598 143.917 129.514 144.21L129.326 148.408C129.368 148.659 129.514 148.805 129.765 148.847L129.702 149.411L127.509 149.223L127.572 148.659C127.906 148.659 128.115 148.533 128.199 148.283L128.387 144.084C128.386 143.792 128.261 143.604 128.011 143.52V143.019ZM112.157 140.889L111.718 142.142L112.032 142.33C112.282 141.87 112.846 141.745 113.724 141.954L112.909 146.34C112.784 146.633 112.554 146.758 112.22 146.716L112.157 147.155L114.35 147.531L114.413 147.092C114.12 147.009 113.995 146.821 114.037 146.528L114.789 142.142C115.666 142.225 116.167 142.539 116.293 143.082L116.669 143.019L116.731 141.641C115.186 141.473 113.661 141.223 112.157 140.889ZM109.337 140.387L111.405 140.763L111.28 141.202C110.945 141.16 110.757 141.306 110.716 141.641L110.089 145.839C110.047 146.09 110.173 146.236 110.465 146.278L110.402 146.842L108.209 146.528L108.272 145.964C108.606 146.006 108.815 145.902 108.898 145.651L109.525 141.453C109.567 141.16 109.483 140.951 109.274 140.826L109.337 140.387ZM131.896 120.837L130.392 123.656L131.896 121.902V120.837ZM130.956 113.944L130.705 116.325L131.332 115.26C131.123 115.009 130.997 114.57 130.956 113.944ZM136.282 121.714L135.342 122.716C135.3 123.343 135.551 123.385 136.094 122.842L136.282 121.714ZM135.655 85.1816C135.405 86.0172 135.321 86.5498 135.405 86.7795C135.488 87.0094 135.666 87.1765 135.937 87.2808C136.209 87.3853 136.449 87.4376 136.658 87.4375C136.157 86.7274 135.822 85.9754 135.655 85.1816ZM142.862 85.9336C142.861 86.3932 143.196 86.7274 143.864 86.9362L142.862 85.9336ZM75.75 129.484C77.0033 130.779 77.9432 131.573 78.5699 131.865C78.8622 131.155 79.3218 130.612 79.9484 130.236C80.5332 129.944 84.0006 131.134 90.3504 133.808L93.4209 137.129C93.7968 137.296 94.3816 137.233 95.1754 136.941C96.4704 136.105 97.7654 135.834 99.0605 136.126C100.439 135.416 101.4 135.27 101.943 135.688C102.695 136.356 103.405 136.878 104.073 137.254H106.517C107.896 135.416 108.961 134.309 109.713 133.933C114.016 131.803 116.877 130.549 118.298 130.173C118.548 130.132 118.716 130.194 118.799 130.361C119.384 130.904 119.718 131.301 119.802 131.552C121.222 130.675 122.037 129.86 122.246 129.108C122.621 128.105 123.405 127.009 124.595 125.818C125.786 124.628 126.298 123.552 126.131 122.591L125.88 120.273C126.339 119.562 126.674 119.166 126.883 119.082L126.507 118.831C126.256 118.706 126.026 118.748 125.817 118.957C125.065 119.75 124.167 120.523 123.123 121.275C122.914 121.359 122.872 121.526 122.998 121.777L124.188 124.471C124.355 124.805 124.272 125.077 123.937 125.286C122.768 126.121 121.535 126.936 120.24 127.729C119.99 127.897 119.739 127.876 119.488 127.667L117.483 125.411C117.316 125.244 117.128 125.223 116.919 125.348C115.75 126.017 114.705 126.539 113.786 126.915C113.535 127.04 113.389 127.249 113.348 127.541L113.724 130.424C113.765 130.8 113.619 131.03 113.285 131.113C111.948 131.74 110.59 132.199 109.212 132.492C108.794 132.617 108.502 132.492 108.335 132.116L107.019 129.421C106.893 129.171 106.684 129.066 106.392 129.108C105.306 129.317 104.136 129.463 102.883 129.547C102.632 129.547 102.486 129.672 102.444 129.923L102.006 132.805C101.964 133.181 101.734 133.369 101.316 133.369C99.8542 133.453 98.392 133.453 96.93 133.369C96.5957 133.369 96.3868 133.202 96.3033 132.868L95.8647 129.923C95.8229 129.672 95.6767 129.547 95.4261 129.547C94.2145 129.505 93.0448 129.359 91.917 129.108C91.6245 128.983 91.4156 129.045 91.2903 129.296L89.9744 132.179C89.8073 132.429 89.5149 132.534 89.0972 132.492C87.6768 132.199 86.34 131.782 85.0868 131.239C84.669 131.113 84.481 130.863 84.5228 130.487L84.8988 127.479C84.9405 127.186 84.8361 126.978 84.5855 126.852C83.541 126.434 82.4758 125.912 81.3897 125.286C81.1808 125.119 80.9928 125.139 80.8257 125.348L78.8832 127.541C78.6325 127.75 78.3609 127.75 78.0686 127.541C76.7317 126.873 75.4785 126.1 74.3088 125.223C74.0581 125.014 73.9746 124.743 74.0582 124.408L75.3741 121.777C75.4576 121.526 75.3949 121.338 75.1861 121.213C74.1834 120.502 73.2853 119.73 72.4916 118.894C72.3245 118.643 72.1365 118.581 71.9276 118.706L70.925 119.27C71.3428 119.354 71.7814 119.646 72.2409 120.147C72.3662 120.314 72.408 120.544 72.3663 120.837L72.053 122.779C71.8023 124.2 72.3871 125.703 73.8075 127.291L75.75 129.484ZM70.6744 99.9073L71.0504 99.218C71.301 98.7168 71.4054 98.7377 71.3637 99.2807L70.7997 100.847C70.9668 101.641 71.0712 103.187 71.113 105.484C71.8232 102.685 72.2409 100.346 72.3663 98.4661C72.4498 97.1711 72.1782 96.8369 71.5517 97.4635L70.6117 98.6541L70.6744 99.9073ZM65.2227 82.6125L64.7214 83.1764H90.5384L88.4705 82.6125H65.2227ZM66.5387 80.9833L66.0374 81.5472H84.4601L82.3296 80.9833H66.5387ZM67.8546 79.354L67.4159 79.918H78.2565L76.126 79.354H67.8546ZM68.4185 78.2888H72.5543L72.8676 77.7248H68.7945L68.4185 78.2888ZM109.901 82.6125L107.833 83.1764H133.838L133.4 82.6125H109.901ZM116.042 80.9833L113.911 81.5472H132.648L132.084 80.9833H116.042ZM122.246 79.354L120.115 79.918H131.582L130.768 79.354H122.246ZM128.449 77.7248H125.504L125.817 78.2888H129.326L128.449 77.7248ZM63.6562 84.2417L62.7789 84.8057H72.6796L71.9276 84.2417H63.6562ZM62.9669 85.8709L64.2201 86.4349H74.9354L74.1835 85.8709H62.9669ZM63.4682 87.5002L63.3429 88.0641H77.1913L76.3767 87.5002H63.4682ZM63.1549 89.1294L63.0922 89.6933H69.2958L69.4211 89.1294H63.1549ZM63.3429 90.7586C63.2175 91.0511 62.8624 91.2391 62.2776 91.3226H69.1078L69.1705 90.7586H63.3429ZM59.2072 92.3878V92.9518H67.6039C67.771 92.7012 67.9381 92.5132 68.1052 92.3878H59.2072ZM59.1445 94.0171V94.581H66.7266L66.9773 94.0171H59.1445ZM59.2072 95.6463V96.2102H66.1627L66.288 95.6463H59.2072ZM62.9042 97.2755C63.0713 97.3173 63.1757 97.5053 63.2175 97.8395H65.724L65.912 97.2755H62.9042ZM63.1549 99.4687H64.4708L64.9094 98.9047H63.0922L63.1549 99.4687ZM63.3429 100.534L63.4055 101.098L63.7188 100.534H63.3429ZM60.2097 103.792C60.168 103.96 60.168 104.148 60.2097 104.356H61.651L61.9643 103.792H60.2097ZM60.4604 105.422L60.5857 105.986H61.0244L61.2123 105.422H60.4604ZM126.319 84.2417L125.567 84.8057H134.465L134.59 84.2417H126.319ZM124.063 85.8709L123.311 86.4349H134.339V85.8709H124.063ZM121.87 87.5002L121.055 88.0641H134.903L134.465 87.5002H121.87ZM128.825 89.1294L128.951 89.6933H135.154L135.091 89.1294H128.825ZM129.076 90.7586L129.138 91.3226H135.467C135.217 91.2391 135.091 91.0511 135.091 90.7586H129.076ZM129.201 92.3878V92.9518H139.039V92.3878H129.201ZM134.277 94.0171L134.653 94.581H139.102V94.0171H134.277ZM134.966 95.6463L135.091 96.2102H139.039V95.6463H134.966ZM134.966 97.2755L135.029 97.8395C135.07 97.5053 135.175 97.3173 135.342 97.2755H134.966ZM135.154 98.9047H134.966L135.091 99.4687L135.154 98.9047ZM134.465 101.098H134.841L134.903 100.534L134.465 101.098ZM134.277 102.163V102.727H135.655L134.778 102.163H134.277ZM134.089 103.792L134.402 104.356L135.154 103.792H134.089ZM136.658 103.792L136.971 104.356H137.786L137.849 103.792H136.658ZM136.031 90.4453C136.073 90.696 136.198 90.8631 136.407 90.9466L138.851 91.3226C138.057 90.32 137.41 89.2965 136.909 88.2521L135.781 88.0015C135.906 88.837 135.989 89.6516 136.031 90.4453ZM71.7396 89.1294L73.1182 89.6933H79.4471L78.6325 89.1294H71.7396ZM75.938 90.7586L77.3166 91.3226H81.703L80.951 90.7586H75.938ZM80.1991 92.3878L81.5777 92.9518H83.9588L83.2069 92.3878H80.1991ZM84.3975 94.0171L85.776 94.581H86.2147L85.4627 94.0171H84.3975ZM119.614 89.1294L118.799 89.6933H125.128L126.507 89.1294H119.614ZM117.295 90.7586L116.543 91.3226H120.93L122.308 90.7586H117.295ZM115.039 92.3878L114.287 92.9518H116.669L118.047 92.3878H115.039ZM112.784 94.0171L112.032 94.581H112.47L113.849 94.0171H112.784ZM93.9848 64.691L93.9222 65.255H98.3712L98.5592 64.691H93.9848ZM76.8153 59.8033L76.5647 60.3673H80.0111L79.5098 59.8033H76.8153ZM93.9848 63.6257H98.9352L99.1231 63.0618H94.0475L93.9848 63.6257ZM93.7968 67.9495L93.7342 68.5134H97.3059L97.4939 67.9495H93.7968ZM93.7342 69.5787L93.6715 70.1426H96.742L96.93 69.5787H93.7342ZM93.6089 71.2079L93.5462 71.7719H96.178L96.366 71.2079H93.6089ZM93.5462 72.8371L93.4835 73.4011H95.6767L95.8647 72.8371H93.5462ZM93.4835 74.4664L93.4209 75.0303H95.1128L95.3007 74.4664H93.4835ZM93.3582 76.0956L93.2955 76.6595H94.6115L94.7368 76.0956H93.3582ZM93.2955 77.7248L93.2329 78.2888H94.0475L94.2355 77.7248H93.2955ZM93.2329 79.354L93.1702 79.918H93.4835L93.6715 79.354H93.2329ZM99.6871 64.691L99.8751 65.255H104.324L104.261 64.691H99.6871ZM100.251 66.3202L100.439 66.8842H104.387V66.3202H100.251ZM104.199 63.0618H99.1231L99.3111 63.6257H104.261L104.199 63.0618ZM100.752 67.9495L100.94 68.5134H104.512L104.449 67.9495H100.752ZM101.316 69.5787L101.504 70.1426H104.575L104.512 69.5787H101.316ZM101.88 71.2079L102.068 71.7719H104.637V71.2079H101.88ZM102.382 72.8371L102.57 73.4011H104.763L104.7 72.8371H102.382ZM102.946 74.4664L103.134 75.0303H104.825L104.763 74.4664H102.946ZM103.51 76.0956L103.635 76.6595H104.888V76.0956H103.51ZM104.011 77.7248L104.199 78.2888H105.013L104.951 77.7248H104.011ZM104.575 79.354L104.763 79.918H105.076L105.013 79.354H104.575ZM87.2173 98.9047L86.8413 99.4687H87.4053L87.5933 98.9047H87.2173ZM86.152 100.534L85.776 101.098H86.904L87.092 100.534H86.152ZM85.0868 102.163L84.7734 102.727H86.4027L86.5907 102.163H85.0868ZM84.0842 103.792L83.7082 104.356H85.8387L86.0267 103.792H84.0842ZM83.0189 105.422L82.6429 105.986H85.3374L85.5254 105.422H83.0189ZM81.9536 107.051L81.5777 107.615H84.8361L85.0241 107.051H81.9536ZM80.8884 108.68L80.5124 109.244H84.2721L84.4601 108.68H80.8884ZM79.8231 110.309L79.4471 110.873H83.7708L83.9588 110.309H79.8231ZM78.7578 111.939L78.3819 112.502H83.2695L83.4575 111.939H78.7578ZM97.2433 105.422L96.4913 105.986H96.8046L97.2433 105.422ZM95.0501 107.051L94.3608 107.615H95.4887L95.9274 107.051H95.0501ZM92.9196 108.68L92.1676 109.244H94.1728L94.6115 108.68H92.9196ZM90.789 110.309L90.0371 110.873H92.8569L93.2955 110.309H90.789ZM88.5959 111.939L87.9066 112.502H91.541L91.9796 111.939H88.5959ZM86.4653 113.568L85.7134 114.132H90.2251L90.6637 113.568H86.4653ZM84.3348 115.197L83.5829 115.761H88.9092L89.3478 115.197H84.3348ZM81.7656 117.14L81.8283 116.826H68.2932L67.9172 117.39H87.5933L88.0319 116.826H82.2043L81.7656 117.14ZM69.4838 114.132H82.7056L82.8936 113.568H69.7971L69.4838 114.132ZM69.1705 115.197L68.8572 115.761H82.2043L82.3923 115.197H69.1705ZM70.2357 111.939L70.0478 112.502H76.8153L76.2513 111.939H70.2357ZM70.4864 110.309L70.3611 110.873H75.3114L74.8728 110.309H70.4864ZM70.7997 108.68L70.6117 109.244H73.9955L73.6822 108.68H70.7997ZM71.301 107.051L71.0504 107.615H73.0556L72.8049 107.051H71.301ZM71.865 105.422L71.489 105.986H72.3036L72.1783 105.359L71.865 105.422ZM110.653 98.9047L110.841 99.4687H111.405L111.029 98.9047H110.653ZM111.154 100.534L111.342 101.098H112.47L112.094 100.534H111.154ZM127.196 102.163L127.008 102.727H128.073L127.697 102.163H127.196ZM126.632 103.792L126.444 104.356H128.763L128.512 103.792H126.632ZM112.721 105.422L112.909 105.986H115.603L115.227 105.422H112.721ZM113.222 107.051L113.41 107.615H116.669L116.293 107.051H113.222ZM113.786 108.68L113.974 109.244H117.734L117.358 108.68H113.786ZM114.287 110.309L114.475 110.873H118.799L118.423 110.309H114.287ZM114.789 111.939L114.977 112.502H119.864L119.488 111.939H114.789ZM101.442 105.986H101.755L101.003 105.422L101.442 105.986ZM102.319 107.051L102.758 107.615H103.886L103.196 107.051H102.319ZM103.635 108.68L104.073 109.244H106.079L105.327 108.68H103.635ZM104.951 110.309L105.389 110.873H108.209L107.457 110.309H104.951ZM106.267 111.939L106.705 112.502H110.34L109.65 111.939H106.267ZM107.583 113.568L108.021 114.132H112.533L111.781 113.568H107.583ZM108.898 115.197L109.337 115.761H114.663L113.911 115.197H108.898ZM116.042 116.826H110.214L110.653 117.39H130.141L130.078 116.826H116.418L116.481 117.14L116.042 116.826ZM130.266 113.568H115.353L115.541 114.132H130.141L130.266 113.568ZM115.854 115.197L116.042 115.761H130.016L130.078 115.197H115.854ZM121.995 111.939L121.431 112.502H129.452L128.763 111.939H121.995ZM123.374 110.309L122.935 110.873H127.76L127.384 110.309H123.374ZM124.376 108.68L124.063 109.244H127.133L127.196 108.868L126.945 108.68H124.376ZM125.253 107.051L125.003 107.615H126.632L126.507 107.051H125.253ZM129.326 105.547L129.201 105.359L128.951 105.422L129.326 105.547ZM112.22 103.792L112.408 104.356H114.538L114.162 103.792H112.22ZM125.755 105.986H126.695L127.133 105.359L126.068 105.422L125.755 105.986ZM111.656 102.163L111.844 102.727H113.473L113.16 102.163H111.656ZM96.9926 53.2864L96.8673 53.8504H101.379L101.316 53.2864H96.9926ZM96.742 54.9157L96.6793 55.4796H101.567L101.504 54.9157H96.742ZM85.6507 58.1741C85.776 58.3831 85.7133 58.5711 85.4627 58.7381H112.972C112.596 58.5293 112.428 58.3413 112.47 58.1741H85.6507ZM83.6455 59.8033L82.5176 60.3673H115.791C115.457 60.1585 115.123 59.9705 114.789 59.8033H83.6455ZM75.8127 61.4326L75.4994 61.9965H123.06L123.374 61.4326H75.8127ZM74.9981 63.0618L74.6848 63.6257H89.7238C90.601 63.3752 91.353 63.1872 91.9796 63.0618H74.9981ZM74.1208 64.691L73.8075 65.255H85.1494L86.4027 64.691H74.1208ZM73.3062 66.3202V66.8842H82.2043L83.0816 66.3202H73.3062ZM73.1809 67.9495L73.0556 68.5134H80.0738L80.8257 67.9495H73.1809ZM72.8676 69.5787L72.6169 70.1426H78.3192L78.8832 69.5787H72.8676ZM72.2409 71.2079L72.053 71.7719H76.8153L77.2539 71.2079H72.2409ZM71.5517 72.8371L71.2383 73.4011H75.3114L75.8127 72.8371H71.5517ZM70.6744 74.4664L70.2984 75.0303H74.1835L74.6221 74.4664H70.6744ZM69.7344 76.0956L69.4211 76.6595H73.1809L73.4942 76.0956H69.7344ZM93.8595 66.3202V66.8842H97.8072L97.9952 66.3202H93.8595ZM77.6299 58.1741L77.3793 58.7381H78.6325L78.1312 58.1741H77.6299ZM88.3452 53.8504H89.5358C89.4104 53.7252 89.2642 53.6625 89.0972 53.6624C88.93 53.6625 88.6794 53.7252 88.3452 53.8504ZM85.1494 55.4796H90.3504L90.0998 54.9157H85.0868L85.1494 55.4796ZM85.4627 57.1088H90.9144C90.8308 56.9836 90.6846 56.7747 90.4757 56.4822H85.3374L85.4627 57.1088ZM109.964 53.8504C109.588 53.6834 109.327 53.5998 109.18 53.5997C109.034 53.5998 108.898 53.6834 108.773 53.8504H109.964ZM113.097 54.9157H108.209L107.959 55.4796H113.034L113.097 54.9157ZM112.909 56.4822H107.583C107.541 56.7747 107.436 56.9836 107.269 57.1088H112.846L112.909 56.4822ZM95.2381 56.5449C94.0265 56.6285 92.7315 56.8165 91.353 57.1088H106.893C105.473 56.8165 104.115 56.6285 102.82 56.5449H95.2381ZM105.891 63.0618C106.601 63.1872 107.395 63.3752 108.272 63.6257H122.434L122.747 63.0618H105.891ZM111.593 64.691L112.972 65.255H123.562L122.81 64.691H111.593ZM114.789 66.3202L115.791 66.8842H125.316L124.689 66.3202H114.789ZM117.358 67.9495L118.173 68.5134H127.384L127.447 67.9495H117.358ZM119.175 69.5787L119.864 70.1426H127.635L127.384 69.5787H119.175ZM120.93 71.2079L121.494 71.7719H126.632C126.59 71.6049 126.611 71.4169 126.695 71.2079H120.93ZM122.496 72.8371L122.935 73.4011H127.196L126.883 72.8371H122.496ZM123.75 74.4664L124.125 75.0303H127.071C127.154 74.7798 127.426 74.5918 127.885 74.4664H123.75ZM124.815 76.0956L125.128 76.6595H127.071L126.883 76.0956H124.815ZM120.366 59.5527C120.199 59.9288 121.285 60.0958 123.624 60.054C123.749 59.7617 123.958 59.5737 124.251 59.49L123.186 58.6127L121.494 58.4248C120.616 58.9262 120.24 59.3021 120.366 59.5527ZM118.737 59.8033L118.298 60.3673H120.366C119.823 60.3256 119.551 60.1376 119.551 59.8033H118.737ZM120.178 58.1741L119.676 58.6754H119.864L120.303 58.1741H120.178ZM92.4809 63.6257C90.8517 63.9183 89.4313 64.2733 88.2199 64.691H93.3582L93.4209 63.6257H92.4809ZM86.716 65.255C85.7551 65.6728 85.024 66.0279 84.5228 66.3202H93.2955L93.3582 65.255H86.716ZM83.5202 66.8842C82.8935 67.302 82.3296 67.6571 81.8283 67.9495H93.1702L93.2329 66.8842H83.5202ZM81.139 68.5134C80.7212 68.8477 80.3035 69.2028 79.8858 69.5787H93.1076L93.1702 68.5134H81.139ZM79.2591 70.1426L78.1939 71.2079H92.9822L93.1076 70.1426H79.2591ZM77.6299 71.7719L76.7526 72.8371H92.9196L92.9822 71.7719H77.6299ZM76.314 73.4011L75.4994 74.4664H92.8569L92.9196 73.4011H76.314ZM75.1234 75.0303L74.4341 76.0956H92.7942V75.0303H75.1234ZM73.4942 77.7248H92.6689L92.7316 76.6595H74.1208L73.4942 77.7248ZM73.9955 78.2888L78.0686 79.354H92.6063L92.6689 78.2888H73.9955ZM80.1991 79.918L84.2095 80.9833H92.5436L92.6063 79.918H80.1991ZM86.34 81.5472L90.2877 82.6125H92.4183L92.4809 81.5472H86.34ZM104.825 63.6257L104.888 64.691H110.026C108.815 64.2733 107.395 63.9183 105.765 63.6257H104.825ZM104.888 65.255L104.951 66.3202H113.724C113.222 66.0279 112.491 65.6728 111.53 65.255H104.888ZM105.013 66.8842L105.076 67.9495H116.418C115.917 67.6571 115.353 67.302 114.726 66.8842H105.013ZM105.076 68.5134L105.139 69.5787H118.361C117.943 69.2028 117.525 68.8477 117.107 68.5134H105.076ZM105.139 70.1426L105.264 71.2079H120.052L118.987 70.1426H105.139ZM105.264 71.7719L105.327 72.8371H121.494L120.616 71.7719H105.264ZM105.327 73.4011L105.389 74.4664H122.747L121.932 73.4011H105.327ZM105.452 75.0303V76.0956H123.812L123.123 75.0303H105.452ZM124.125 76.6595H105.515L105.577 77.7248H124.752L124.125 76.6595ZM105.577 78.2888L105.64 79.354H120.178L124.251 78.2888H105.577ZM105.64 79.918L105.703 80.9833H114.037L118.047 79.918H105.64ZM105.765 81.5472L105.828 82.6125H107.959L111.906 81.5472H105.765ZM96.742 131.489L96.8046 132.053H101.567L101.63 131.489H96.742ZM96.4913 129.86L96.554 130.424H101.818L101.88 129.86H96.4913ZM91.2903 128.231C92.7106 128.565 93.8803 128.753 94.7994 128.795H103.008C104.053 128.711 105.201 128.523 106.455 128.231H91.2903ZM85.2121 129.86L85.1494 130.424H90.0371L90.2877 129.86H85.2121ZM85.4627 128.231L85.3374 128.795H90.789C90.8725 128.502 90.9979 128.314 91.165 128.231H85.4627ZM87.9692 131.489L88.7838 131.74C89.118 131.782 89.3686 131.698 89.5358 131.489H87.9692ZM85.1494 126.602C85.4418 126.727 85.588 126.915 85.5881 127.166H112.596C112.596 126.957 112.825 126.769 113.285 126.602H85.1494ZM82.0163 124.972L83.2069 125.536H115.353L116.293 124.972H82.0163ZM107.959 129.86L108.209 130.424H113.097L113.034 129.86H107.959ZM107.081 128.231C107.248 128.314 107.374 128.502 107.457 128.795H112.909L112.784 128.231H107.081ZM108.711 131.489C108.878 131.698 109.128 131.782 109.462 131.74L110.277 131.489H108.711ZM75.3741 123.343L75.0608 123.907H123.248L122.998 123.343H75.3741ZM106.831 121.714C106.204 121.923 105.139 122.111 103.635 122.278H122.559L122.246 121.714H106.831ZM111.405 120.085L110.214 120.649H122.872L123.562 120.085H111.405ZM111.844 118.455L112.22 119.019H124.877L125.441 118.455H111.844ZM76.126 121.714L75.8127 122.278H94.7368C93.2328 122.111 92.1676 121.923 91.541 121.714H76.126ZM74.8101 120.085L75.4994 120.649H88.1572L86.9666 120.085H74.8101ZM72.9302 118.455L73.4942 119.019H86.152L86.528 118.455H72.9302ZM77.5673 126.602L78.0059 126.852C78.3401 126.978 78.5907 126.957 78.7578 126.79L78.9458 126.602H77.5673ZM74.8728 124.972L75.75 125.536H79.9484L80.4497 124.972H74.8728ZM68.5439 118.455L68.9825 119.019H69.7971L70.5491 118.455H68.5439ZM119.426 126.602L119.614 126.79C119.781 126.957 120.031 126.978 120.366 126.852L120.804 126.602H119.426ZM117.922 124.972L118.423 125.536H122.622L123.499 124.972H117.922ZM127.509 118.455L128.575 119.019H129.076L129.514 118.455H127.509ZM126.757 89.6933L123.937 90.7586H128.324L128.261 89.6933H126.757ZM122.496 91.3226L119.676 92.3878H128.449L128.387 91.3226H122.496ZM118.235 92.9518L115.478 94.0171H128.449V92.9518H118.235ZM114.037 94.581L111.217 95.6463H128.324L128.449 94.581H114.037ZM109.776 96.2102L110.465 97.2755H128.136L128.261 96.2102H109.776ZM110.841 97.8395L111.53 98.9047H126.131C126.089 98.3617 126.172 98.0066 126.381 97.8395H110.841ZM111.906 99.4687L112.596 100.534H126.695C126.527 100.242 126.381 99.8865 126.256 99.4687H111.906ZM112.972 101.098L113.661 102.163H126.757L127.071 101.223L127.008 101.098H112.972ZM114.037 102.727L114.726 103.792H126.131L126.569 102.727H114.037ZM115.102 104.356L115.791 105.422H125.504L125.943 104.356H115.102ZM116.167 105.986L116.857 107.051H124.689L125.253 105.986H116.167ZM117.233 107.615L117.922 108.68H123.812L124.439 107.615H117.233ZM118.298 109.244L118.924 110.309H122.684L123.499 109.244H118.298ZM119.3 110.873L120.052 111.939H121.368L122.308 110.873H119.3ZM120.366 112.502L120.554 112.753L120.804 112.502H120.366ZM69.9851 89.6933L69.8598 90.7586H74.3088L71.489 89.6933H69.9851ZM69.7971 91.3226V92.3878H78.5699L75.75 91.3226H69.7971ZM69.7971 92.9518V94.0171H82.7682L80.0111 92.9518H69.7971ZM72.4289 94.581C72.6378 94.7482 72.6378 95.1033 72.4289 95.6463H87.0293L84.2095 94.581H72.4289ZM72.1783 96.2102L72.053 96.3982C72.22 96.273 72.3976 96.2207 72.5856 96.2416C72.7735 96.2625 72.9302 96.6072 73.0556 97.2755H87.7812L88.4705 96.2102H72.1783ZM73.0556 97.8395V98.9047H86.716L87.4053 97.8395H73.0556ZM73.0556 99.4687L72.9302 100.534H85.6507L86.34 99.4687H73.0556ZM72.8676 101.098L72.6796 102.163H84.5855L85.2747 101.098H72.8676ZM72.5543 102.727L72.3036 103.792H83.5202L84.2095 102.727H72.5543ZM72.1783 104.356V104.419L72.5543 105.422H82.4549L83.1442 104.356H72.1783ZM72.7422 105.986L73.3062 107.051H81.3897L82.079 105.986H72.7422ZM73.5569 107.615L74.1835 108.68H80.3244L81.0137 107.615H73.5569ZM74.5595 109.244L75.3741 110.309H79.3218L79.9484 109.244H74.5595ZM75.8754 110.873L76.8153 111.939H78.1939L78.9458 110.873H75.8754ZM77.4419 112.502L77.6926 112.753L77.8806 112.502H77.4419ZM98.8098 104.356L97.9952 105.422H100.314L99.4365 104.356H98.8098ZM97.4939 105.986L96.6793 107.051H101.63L100.752 105.986H97.4939ZM96.178 107.615L95.3007 108.68H102.946L102.068 107.615H96.178ZM94.8621 109.244L94.0475 110.309H104.261L103.384 109.244H94.8621ZM93.5462 110.873L92.7316 111.939H105.577L104.7 110.873H93.5462ZM92.2303 112.502L91.4157 113.568H106.893L106.016 112.502H92.2303ZM90.9144 114.132L90.0371 115.197H108.209L107.332 114.132H90.9144ZM89.5985 115.761L88.7212 116.826H109.525L108.648 115.761H89.5985ZM88.2825 117.39L87.4053 118.455H110.778L109.964 117.39H88.2825ZM86.9666 119.019L86.6533 119.333L88.2199 120.085H110.089L111.53 119.333L111.28 119.019H86.9666ZM89.6611 120.649C91.4574 121.233 93.024 121.589 94.3608 121.714H104.136C105.682 121.463 107.186 121.108 108.648 120.649H89.6611ZM121.118 147.907C121.201 148.199 121.368 148.345 121.619 148.345V148.721L119.05 148.471L119.112 148.095C119.405 148.137 119.572 148.032 119.614 147.781L119.426 147.03L117.233 146.716L116.919 147.218C116.836 147.468 116.982 147.635 117.358 147.719V148.22L115.353 147.844L115.415 147.468C115.666 147.468 115.875 147.364 116.042 147.155L119.238 141.829L121.118 147.907ZM122.998 143.646C123.039 143.312 122.914 143.144 122.622 143.144V142.58L124.752 142.768L124.689 143.332C124.439 143.332 124.292 143.479 124.251 143.771L123.937 148.471C125.232 148.596 126.131 148.366 126.632 147.781H126.945L126.507 149.285L122.12 148.847L122.183 148.471C122.475 148.471 122.663 148.283 122.747 147.907L122.998 143.646ZM118.737 144.147L117.546 146.215L119.363 146.466L118.737 144.147ZM61.0244 112.878C60.5648 114.717 60.2933 116.012 60.2097 116.764C60.0426 117.933 60.4395 118.497 61.4003 118.455C61.9852 118.288 62.4238 118.518 62.7162 119.145L64.4081 122.591C63.9486 123.051 63.2175 122.925 62.2149 122.215C61.463 121.672 60.711 120.649 59.9591 119.145C59.4578 118.142 59.0296 117.16 58.6745 116.2C58.3194 115.239 57.9643 114.111 57.6093 112.816C57.2541 111.521 56.3038 108.795 54.7581 104.638C53.2124 100.482 51.9905 97.8082 51.0924 96.6175C50.1942 95.427 49.6198 94.8317 49.3691 94.8317C48.9932 94.7482 48.7007 95.0197 48.4919 95.6463C48.4083 95.8552 48.3874 96.8683 48.4292 98.6854C48.471 100.503 48.5963 101.85 48.8052 102.727C49.2647 105.192 50.1837 107.866 51.5623 110.748C52.9409 113.672 55.1758 116.805 58.2672 120.147C56.9304 117.808 55.5727 115.218 54.1942 112.377C52.6067 108.868 51.5205 106.205 50.9357 104.388C50.3508 102.571 50.0375 101.401 49.9958 100.879C49.954 100.356 50.0375 100.367 50.2464 100.91C50.4553 101.453 50.8939 102.748 51.5623 104.795C52.4814 107.26 54.215 110.915 56.7633 115.761C58.6849 119.521 59.9382 121.672 60.5231 122.215C62.1523 123.803 63.4891 124.262 64.5335 123.594L65.2227 124.095L67.1653 127.416L69.2331 129.923C70.4028 131.092 71.5516 131.343 72.6796 130.675C72.9302 131.343 73.2748 131.594 73.7135 131.427C74.1521 131.259 74.4968 131.322 74.7474 131.615L75.5621 132.68L79.8858 135.562L84.5855 138.382L87.3426 137.881C86.5488 137.38 85.6089 136.711 84.5228 135.876C84.2721 135.207 83.9588 134.748 83.5829 134.497L82.8309 134.685L83.1442 136.189L81.9536 135.938C81.9954 135.395 81.5881 134.842 80.7317 134.278C79.8753 133.714 78.7891 132.983 77.4733 132.085C76.1573 131.186 74.9041 130.079 73.7135 128.763C72.5229 127.448 71.8649 126.581 71.7396 126.163C71.5307 125.495 71.2905 125.108 71.019 125.004C70.7475 124.899 70.6326 124.555 70.6744 123.97L70.7997 123.218L71.1757 120.774L70.6117 120.461L70.2357 121.651C70.1104 122.278 69.6822 121.996 68.9512 120.805C68.2201 119.615 66.9564 117.871 65.1601 115.573L63.1549 113.129L62.9669 113.818C63.9695 115.281 64.8154 116.596 65.5047 117.766C66.194 118.936 66.7684 119.938 67.2279 120.774C67.6874 121.609 68.4603 122.8 69.5465 124.346L70.8624 126.978L73.1809 129.171L73.2435 130.612C72.784 129.651 72.3662 129.025 71.9903 128.732C71.6143 128.44 71.301 128.398 71.0504 128.607C70.2566 129.4 69.2331 128.878 67.9799 127.04C67.3532 126.205 66.664 125.098 65.912 123.719C65.7449 123.468 66.0791 122.925 66.9146 122.09L66.4133 121.526L65.724 122.09L62.9042 118.017L63.2802 117.453L62.9042 116.889L62.4656 117.202L61.7136 115.886L61.463 116.576L61.839 117.453L61.3377 117.703C60.9199 117.745 60.899 116.993 61.275 115.448C61.9852 113.317 63.1131 110.518 64.6588 107.051C64.6588 106.132 64.7632 105.004 64.9721 103.667C63.2593 106.717 61.9434 109.787 61.0244 112.878ZM132.146 74.4037C132.439 73.3176 132.919 72.1479 133.588 70.8946C134.381 69.6414 134.506 69.5997 133.963 70.7693C132.919 72.9834 132.418 74.4873 132.46 75.281L134.402 79.6047C134.778 77.892 135.593 76.2001 136.846 74.529C137.347 73.9025 137.389 73.9651 136.971 74.717C135.593 76.9312 134.841 78.7484 134.715 80.1686L135.969 83.7404C136.177 82.905 136.533 82.0486 137.034 81.1712C137.243 80.8789 137.264 80.9624 137.097 81.4219C136.929 81.8815 136.721 82.5499 136.47 83.4271C136.219 84.3044 136.282 85.1608 136.658 85.9963C137.034 86.8318 137.629 87.918 138.444 89.2547C139.258 90.5916 139.885 91.5837 140.324 92.2312C140.762 92.8787 141.399 93.7873 142.235 94.957L143.802 94.8943L144.052 91.8865C145.18 91.5106 145.765 90.9258 145.807 90.132C145.848 86.9989 145.66 84.8475 145.243 83.6777C143.781 81.7979 142.381 80.3776 141.044 79.4167C140.459 78.8319 140.501 78.7484 141.17 79.166C142.715 80.1687 143.969 81.1504 144.929 82.1112L143.989 78.2888C142.778 77.2445 141.713 76.033 140.794 74.6543C140.334 73.986 140.355 73.9025 140.856 74.4037C141.984 75.7823 142.945 76.7014 143.739 77.1608C143.279 75.7823 142.799 74.362 142.298 72.8998C140.752 71.1035 139.415 69.8503 138.287 69.14C137.493 68.5553 137.493 68.4091 138.287 68.7014C138.914 68.8686 140.021 69.6205 141.608 70.9573C141.065 69.537 140.522 68.1584 139.979 66.8215C139.311 65.9026 138.517 65.0462 137.598 64.2524C137.264 63.8765 137.368 63.8556 137.911 64.1897C138.454 64.524 139.039 65.0462 139.666 65.7563L138.851 63.1244C138.768 62.4561 138.872 62.4561 139.164 63.1244L140.042 65.1296L141.42 68.6387C141.629 68.0122 141.734 67.2603 141.734 66.3829C141.901 65.2968 142.005 65.3386 142.047 66.5082C142.089 67.678 142.005 68.7015 141.796 69.5787C142.423 71.1244 143.008 72.7746 143.551 74.529C144.219 73.6518 144.679 72.4195 144.929 70.8319C145.138 69.7041 145.222 69.8085 145.18 71.1452C145.013 72.7328 144.616 74.0487 143.989 75.093C144.532 77.3071 145.034 79.187 145.493 80.7326C145.953 80.4403 146.412 79.6674 146.872 78.4141C147.29 77.7875 147.352 77.892 147.06 78.7274C146.475 80.3985 146.015 81.3802 145.681 81.6725C146.057 83.3018 146.318 84.7744 146.465 86.0902C146.611 87.4062 146.642 88.6699 146.559 89.8813C146.851 89.7143 147.018 89.1503 147.06 88.1894C147.06 87.73 147.196 87.1242 147.467 86.3722C147.739 85.6203 148.167 84.7013 148.752 83.6151C149.295 82.6126 149.274 82.153 148.689 82.2365L147.561 82.5498C147.185 82.5499 146.997 82.3619 146.997 81.9859C147.081 81.234 147.404 80.5865 147.969 80.0433C148.532 79.5003 148.814 78.999 148.815 78.5394C148.898 78.1635 148.668 77.3907 148.125 76.2209C147.29 76.4716 146.736 76.7849 146.465 77.1608C146.193 77.5369 146.047 77.5473 146.026 77.1922C146.005 76.8372 146.193 76.3254 146.59 75.6569C146.987 74.9886 147.112 74.268 146.966 73.4951C146.82 72.7223 146.412 71.6466 145.744 70.268C146.203 68.3046 145.66 67.7407 144.115 68.5761C144.282 66.9469 143.989 65.5475 143.238 64.3777C142.611 63.0828 141.963 62.8112 141.295 63.5631C139.916 61.6415 138.914 60.5345 138.287 60.242C137.66 59.9496 137.285 59.9914 137.159 60.3673C137.034 60.7434 136.825 61.2238 136.533 61.8085C136.24 62.3517 136.24 63.2707 136.533 64.5657C135.614 64.8164 135.238 65.2759 135.405 65.9443L136.031 67.8868C136.533 68.5135 136.856 69.161 137.003 69.8293C137.149 70.4978 137.076 71.1871 136.783 71.8972C138.078 71.1453 138.956 71.1035 139.415 71.7719C139.582 72.3986 139.624 72.9417 139.54 73.4011C139.457 73.8607 139.436 74.738 139.478 76.0329C139.436 76.3254 139.791 76.5865 140.543 76.8162C141.295 77.046 141.525 77.4533 141.232 78.0381C141.065 78.2471 140.7 78.1531 140.136 77.7561C139.572 77.3593 139.185 77.3489 138.976 77.7248C138.433 78.4768 138.851 79.3332 140.23 80.294C142.903 82.0486 144.01 83.0512 143.551 83.3018C142.757 83.4689 142.485 83.9076 142.736 84.6177C142.861 85.0355 143.363 85.495 144.24 85.9963C145.076 86.5812 145.389 87.4167 145.18 88.5028C145.055 89.6725 144.616 90.3618 143.864 90.5706C143.613 89.401 143.509 88.6386 143.551 88.2834C143.593 87.9284 143.321 87.6151 142.736 87.3435C142.151 87.072 141.378 85.1817 140.418 81.6725L139.102 81.6099C140.313 85.7039 141.086 87.7926 141.42 87.8761C141.754 87.9597 142.089 88.3984 142.423 89.192C142.506 89.8187 142.517 90.696 142.454 91.8239C142.391 92.9518 142.778 93.4949 143.614 93.4531L143.05 94.1424C142.59 94.0171 142.214 93.7456 141.922 93.3278C141.546 92.743 141.347 92.1477 141.326 91.5419C141.305 90.9362 141.295 90.3096 141.295 89.662C141.295 89.0146 140.982 88.8266 140.355 89.098C139.728 89.3697 139.321 89.4114 139.133 89.2234C138.945 89.0355 138.83 88.8057 138.789 88.5341C138.747 88.2626 138.914 87.6882 139.29 86.8109C139.373 86.1843 139.342 85.7457 139.196 85.495C139.049 85.2444 138.663 85.1608 138.037 85.2443C137.41 85.3279 137.201 84.7222 137.41 83.4271L138.162 80.7326C138.412 79.3541 137.869 79.1661 136.533 80.1686C136.741 79.0408 137.138 78.2262 137.723 77.7248C138.308 77.2236 138.548 76.6178 138.444 75.9076C138.339 75.1975 138.339 74.5187 138.444 73.8711C138.548 73.2236 138.454 72.7954 138.162 72.5865C137.285 72.503 136.136 73.4012 134.715 75.281L135.405 73.5264C136.115 71.396 136.261 69.9339 135.843 69.14C135.426 68.5971 134.987 68.2211 134.527 68.0121C134.193 68.1375 133.755 68.5762 133.212 69.328C132.668 69.9547 132.334 70.0801 132.209 69.704L132.522 67.7615C132.48 66.9261 132.136 66.3517 131.488 66.0383C130.841 65.725 130.12 65.3386 129.326 64.879C129.201 65.3804 129.013 65.8817 128.763 66.3829C128.345 67.1349 128.157 67.9078 128.199 68.7014C128.031 69.161 128.219 69.8085 128.763 70.6439C127.3 70.644 126.903 71.3333 127.572 72.7118L128.073 73.4638C128.407 73.8816 128.7 74.4455 128.951 75.1556C128.073 75.0722 127.593 75.2602 127.509 75.7196C127.467 76.3881 127.697 76.8267 128.199 77.0355C130.705 78.1217 132.272 79.2497 132.898 80.4193C133.65 81.7979 134.256 82.4872 134.715 82.4872L133.462 79.166C132.919 78.2888 131.52 77.3907 129.264 76.4716C128.595 76.1792 128.595 76.0957 129.264 76.2209C131.06 76.9312 132.334 77.5578 133.086 78.1008C132.668 77.14 132.209 76.0748 131.708 74.905C131.081 74.1949 130.162 73.4847 128.951 72.7745C128.407 72.3568 128.407 72.2941 128.951 72.5865C129.953 73.0461 130.851 73.6309 131.645 74.341C131.06 72.7954 130.601 70.9782 130.266 68.8894L130.016 68.2001L130.454 68.3254C130.997 69.9965 131.561 72.0226 132.146 74.4037ZM56.262 94.8943C56.3455 92.7639 56.4291 91.3226 56.5127 90.5706C56.5962 89.8187 56.6484 89.0668 56.6693 88.3148C56.6902 87.5629 56.9095 86.2261 57.3273 84.3044L57.0766 84.0537C56.7006 84.9311 56.4395 86.0277 56.2933 87.3435C56.1471 88.6595 56.0322 89.8083 55.9487 90.7899C55.8651 91.7717 55.698 93.0563 55.4474 94.6437C55.1132 94.8526 54.7999 94.8735 54.5075 94.7063C53.9644 94.4975 53.484 93.7351 53.0662 92.4192C52.6485 91.1033 52.4814 88.9623 52.5649 85.9963C52.9827 77.516 54.4657 71.1035 57.014 66.7589C57.5988 65.9235 57.6197 66.1114 57.0766 67.3228C55.9487 69.6623 55.0192 73.5787 54.2881 79.072C53.5571 84.5655 53.3586 88.1686 53.6929 89.8813C54.4448 86.3305 55.1341 83.4481 55.7607 81.2339C56.0949 79.3541 57.0766 75.6988 58.7059 70.268C59.3325 68.3464 59.7398 66.6023 59.9278 65.0356C60.1157 63.4692 60.1262 61.8504 59.9591 60.1793C59.792 59.7617 59.3533 59.9496 58.6432 60.7433C55.4265 64.5031 53.296 68.4717 52.2516 72.6491C51.5414 75.657 51.0819 78.7484 50.873 81.9232C50.7895 84.5969 50.967 86.8945 51.4057 88.8161C51.8443 90.7378 52.3143 92.2939 52.8156 93.4844C53.3169 94.6751 54.1315 95.521 55.2594 96.0223C55.4265 96.8996 55.698 97.8917 56.074 98.9987C56.45 100.106 56.732 100.941 56.92 101.505C57.1079 102.069 57.2959 102.456 57.4839 102.664C57.6719 102.873 57.7659 103.396 57.7659 104.231C58.3925 106.32 59.1027 108.241 59.8964 109.996L60.0844 109.369C59.3325 107.615 58.852 106.236 58.6432 105.234C58.3507 104.315 58.2672 103.688 58.3925 103.354C58.6849 102.978 58.6536 102.633 58.2985 102.32C57.9434 102.007 57.5152 100.952 57.014 99.1554C56.5126 97.3591 56.262 96.273 56.262 95.8969C57.0557 93.85 57.5779 92.4297 57.8286 91.6359C58.0792 90.8422 58.6014 89.7352 59.3951 88.3148C60.1888 86.8945 61.0035 85.3697 61.839 83.7404C62.6744 82.1113 65.2018 78.1217 69.4211 71.7719C69.9224 71.3542 69.7762 71.8555 68.9825 73.2758L66.9146 77.0355L62.5909 84.0537C65.1392 81.7979 67.771 78.1635 70.4864 73.1504C71.1965 71.7302 71.6978 70.3725 71.9903 69.0774C72.2827 67.7824 72.2827 66.9261 71.9903 66.5082C70.8623 66.6336 69.5673 67.5527 68.1052 69.2654C65.6405 72.691 63.7188 75.7406 62.3403 78.4141L59.8338 84.367L57.8912 90.0067C57.3064 91.5524 56.7633 93.1816 56.262 94.8943ZM68.4812 67.3228C69.9433 66.0279 71.489 65.2759 73.1182 65.067L75.4367 60.5553C76.4393 58.216 76.9824 56.6807 77.066 55.9496C77.1495 55.2186 77.1077 54.6442 76.9406 54.2264C76.6899 54.1429 76.2304 54.2891 75.5621 54.665C73.3479 56.3779 71.3845 58.7591 69.6718 61.8085L66.0374 68.5761L62.2149 75.3436C61.8807 75.845 61.5256 76.0121 61.1497 75.8449L60.5231 75.6569C61.9434 72.1479 63.9904 68.6179 66.664 65.067C67.4577 64.9 67.6457 64.5867 67.2279 64.127L69.7971 59.678L66.664 64.1897C66.3715 63.9391 66.2253 63.96 66.2253 64.2524L66.288 64.7537C64.7841 66.759 63.4786 68.7328 62.3716 70.6753C61.2645 72.6179 60.4186 74.1531 59.8338 75.281C59.4578 75.1975 59.0609 74.7171 58.6432 73.8397L58.3299 74.7797L59.6458 76.4089L57.4526 81.9859L56.9513 81.9232L56.8886 82.4872L57.1393 83.4271L57.6406 83.8031C58.4761 83.7196 59.1027 83.2809 59.5205 82.4872C58.6432 82.905 58.121 82.9885 57.9539 82.7378L60.0218 76.6595C61.0661 76.6178 61.6927 76.4925 61.9016 76.2836C64.7005 71.9808 66.4551 69.2863 67.1653 68.2001C69.7553 63.8138 71.8232 60.5763 73.3689 58.4874C74.9145 56.3988 75.8649 55.1977 76.22 54.8843C76.5751 54.5711 76.5646 54.7278 76.1887 55.3543C73.9328 58.6964 72.2722 61.2029 71.207 62.8738C70.1417 64.5449 69.2331 66.0279 68.4812 67.3228Z" fill="white"/>
</svg>
