<svg width="151" height="80" viewBox="0 0 151 80" fill="none" xmlns="http://www.w3.org/2000/svg">
<mask id="mask0_1410_3455" style="mask-type:luminance" maskUnits="userSpaceOnUse" x="0" y="-1" width="151" height="81">
<path d="M150.672 -0.00195312H0.327637V79.998H150.672V-0.00195312Z" fill="white"/>
</mask>
<g mask="url(#mask0_1410_3455)">
<path fill-rule="evenodd" clip-rule="evenodd" d="M35.5 0.224609H29.5207C28.9069 0.224609 28.4448 0.686678 28.4448 1.30047V70.3419V78.6177C28.4448 79.2246 28.9069 79.6867 29.5207 79.6867H35.5C36.031 79.6867 36.569 79.2246 36.569 78.6177V72.7143V1.30047C36.569 0.686678 36.031 0.224609 35.5 0.224609Z" fill="white"/>
<path fill-rule="evenodd" clip-rule="evenodd" d="M90.5894 0.224609H78.2583H71.6652C71.0514 0.224609 70.5894 0.686678 70.5894 1.30047V70.3419V78.6177C70.5894 79.2246 71.0514 79.6867 71.6652 79.6867L90.1342 79.7625C90.748 79.7625 91.279 79.3074 91.279 78.6936V73.1763C91.279 72.5625 90.748 72.1005 90.1342 72.1005H78.5618V42.9832H87.9894C88.5204 42.9832 88.9825 42.4453 88.9825 41.9074V38.0039C88.9825 37.3901 88.5204 36.9281 87.9894 36.9281H78.5618V7.88668H90.5894C90.9756 7.88668 91.279 7.58323 91.279 7.19702V0.914265C91.279 0.528058 90.9756 0.224609 90.5894 0.224609Z" fill="white"/>
<path fill-rule="evenodd" clip-rule="evenodd" d="M56.6446 14.7839V36.9287H50.5135V11.1839V10.8736C50.6722 9.34252 51.9687 8.19769 53.5067 8.19769C55.1894 8.19769 56.5687 9.577 56.5687 11.1839H56.6446V14.7839ZM64.617 78.6942V17.0804V11.1839C64.617 11.108 64.617 11.0322 64.617 10.9563C64.5411 6.04597 61.1687 1.90803 56.6446 0.611483C55.5756 0.301138 54.5756 0.149414 53.5067 0.149414C52.4308 0.149414 51.4377 0.301138 50.5135 0.611483C50.4377 0.611483 50.3618 0.611483 50.286 0.687345C50.2101 0.687345 50.1342 0.687345 50.1342 0.687345C49.9825 0.763207 49.8239 0.839069 49.6722 0.839069C49.4446 0.914931 49.2101 1.06666 49.0584 1.14252C48.9067 1.14252 48.8308 1.21838 48.7549 1.21838C48.5204 1.377 48.3687 1.45286 48.1411 1.60459C48.0653 1.60459 47.9894 1.60459 47.9894 1.68045C44.6929 3.59769 42.4722 7.12183 42.4722 11.1839V13.9425V78.6942C42.4722 79.308 42.9273 79.7632 43.5411 79.7632H49.4446C50.0584 79.7632 50.5135 79.308 50.5135 78.6942V42.9839H56.6446V78.6942C56.6446 79.308 57.1067 79.7632 57.6446 79.7632H63.5411C64.1549 79.7632 64.617 79.308 64.617 78.6942Z" fill="white"/>
<path fill-rule="evenodd" clip-rule="evenodd" d="M22.4725 52.4115V51.4873C22.4725 47.6598 20.8587 42.5218 18.5621 39.4598L10.8242 29.1908C9.5966 27.508 8.44488 24.0598 8.36902 21.9908V11.2598C8.36902 9.65286 9.5966 8.27355 11.2035 8.11493C13.0449 8.03907 14.5001 9.41838 14.5001 11.1839V11.4115V11.4873V14.3218V15.0115V16.4736C14.5001 17.0804 14.9621 17.5425 15.5759 17.5425H21.3966C22.0104 17.5425 22.4725 17.0804 22.4725 16.4736V11.4873C22.4725 11.4115 22.4725 11.3356 22.4725 11.2598C22.4725 11.1839 22.4725 11.1839 22.4725 11.1839C22.4725 5.05286 17.569 0.149414 11.3621 0.149414C5.30695 0.149414 0.327637 5.05286 0.327637 11.1839C0.327637 11.2598 0.327637 21.9908 0.327637 21.9908C0.327637 25.8184 2.08626 30.9563 4.30695 34.0184L12.1276 44.2873C13.3483 45.8942 14.5001 49.4184 14.5001 51.4873V52.4115V58.0046V65.1287V68.7287C14.5001 70.646 12.5828 72.2529 10.3621 71.5632C9.13453 71.1839 8.36902 69.9563 8.36902 68.7287V65.9701V65.0529V63.446C8.36902 62.908 7.91384 62.3701 7.30005 62.3701H1.3966C0.858671 62.3701 0.327637 62.908 0.327637 63.446V65.9701V67.1977V68.7287C0.327637 68.9632 0.403499 69.2667 0.403499 69.577C0.403499 69.577 0.403499 69.6529 0.403499 69.7287C0.403499 69.9563 0.479361 70.2667 0.479361 70.4942C0.479361 70.5701 0.479361 70.5701 0.555223 70.646C0.631085 71.1839 0.782809 71.7218 0.934533 72.2529V72.3287C1.09315 72.6391 1.16902 72.8667 1.24488 73.1011L1.32074 73.177C1.54833 73.708 1.78281 74.1701 2.08626 74.6322C2.08626 74.708 2.08626 74.708 2.16212 74.708C2.31384 74.9356 2.47246 75.1701 2.62419 75.3977L2.77591 75.5494C3.08626 76.0115 3.38971 76.3908 3.77591 76.7011C5.76212 78.6184 8.44488 79.7632 11.3621 79.7632C12.5069 79.7632 13.5069 79.6115 14.5001 79.308C15.3414 79.0736 16.1069 78.6942 16.8794 78.308H16.9552C17.4104 78.0046 17.8725 77.6942 18.3345 77.3149C18.5621 77.1563 18.7897 76.9287 18.9483 76.777C19.0242 76.777 19.0242 76.777 19.0242 76.7011C19.4035 76.3908 19.7897 75.9356 20.0932 75.5494C20.169 75.5494 20.169 75.4735 20.169 75.4735C20.3276 75.246 20.4794 75.0115 20.6311 74.7839H20.7069C20.8587 74.5563 20.9345 74.3218 21.0932 74.0942V74.0184C21.2449 73.7908 21.3966 73.5563 21.4725 73.3287C21.4725 73.2529 21.5483 73.2529 21.5483 73.177C21.6242 72.9425 21.7828 72.7149 21.8587 72.4873V72.4115C21.9345 72.177 22.0104 71.9494 22.0863 71.7218C22.0863 71.646 22.0863 71.646 22.0863 71.5632C22.1621 71.3356 22.238 71.0322 22.3138 70.7977C22.3138 70.7218 22.3138 70.7218 22.3138 70.646C22.3966 70.4184 22.3966 70.108 22.3966 69.8804C22.3966 69.8804 22.4725 69.8804 22.4725 69.8046C22.4725 69.577 22.4725 69.2667 22.4725 69.0391C22.4725 68.9632 22.4725 68.9632 22.4725 68.9632C22.4725 68.8873 22.4725 68.8046 22.4725 68.7287V67.8115V62.7563V52.4115Z" fill="white"/>
<path fill-rule="evenodd" clip-rule="evenodd" d="M109.369 14.6328C110.673 14.6328 111.279 13.8673 111.279 12.3363V3.97767C111.279 2.52249 110.673 1.68112 109.369 1.68112H107.376V14.6328H109.369ZM109.445 0.0742188C111.893 0.0742188 113.045 1.60525 113.045 4.06043V12.2535C113.045 14.7846 111.893 16.2397 109.445 16.2397H105.535V0.0742188H109.445Z" fill="white"/>
<path fill-rule="evenodd" clip-rule="evenodd" d="M117.258 11.488H120.934L119.176 2.06732L117.258 11.488ZM117.031 13.0259L116.417 16.2397H114.81L117.872 0.0742188H120.555L123.617 16.2397H121.858L121.245 13.0259H117.031Z" fill="white"/>
<path fill-rule="evenodd" clip-rule="evenodd" d="M125.535 16.2397V0.0742188H127.376V14.6328H132.052V16.2397H125.535Z" fill="white"/>
<path fill-rule="evenodd" clip-rule="evenodd" d="M133.886 16.2397V0.0742188H135.728V14.6328H140.403V16.2397H133.886Z" fill="white"/>
<path fill-rule="evenodd" clip-rule="evenodd" d="M144.307 11.488H147.99L146.148 2.06732L144.307 11.488ZM144.079 13.0259L143.465 16.2397H141.783L144.997 0.0742188H147.603L150.672 16.2397H148.831L148.217 13.0259H144.079Z" fill="white"/>
<path fill-rule="evenodd" clip-rule="evenodd" d="M108.907 29.4178C110.362 29.4178 110.976 28.804 110.976 27.2729V25.1281C110.976 23.5971 110.438 22.8316 109.059 22.8316H107.376V29.4178H108.907ZM109.059 21.2178C111.666 21.2178 112.817 22.6798 112.817 25.204V27.1971C112.817 29.7281 111.59 31.0316 108.907 31.0316H107.376V37.466H105.535V21.2178H109.059Z" fill="white"/>
<path fill-rule="evenodd" clip-rule="evenodd" d="M116.418 32.6385H120.093L118.259 23.2109L116.418 32.6385ZM116.19 34.1695L115.576 37.466H113.962L117.031 21.2178H119.714L122.776 37.466H121.018L120.404 34.1695H116.19Z" fill="white"/>
<path fill-rule="evenodd" clip-rule="evenodd" d="M127.914 28.8867C129.369 28.8867 130.21 28.4247 130.21 26.6592V25.1281C130.21 23.5971 129.672 22.8316 128.293 22.8316H126.61V28.8867H127.914ZM128.369 21.2178C130.9 21.2178 131.969 22.5212 131.969 24.9764V26.2798C131.969 28.0385 131.362 29.1902 129.983 29.6523C131.438 30.0316 131.969 31.2592 131.969 32.9419V35.4729C131.969 36.2385 132.051 36.8523 132.355 37.466H130.514C130.286 37.004 130.21 36.5488 130.21 35.4729V32.9419C130.21 31.1074 129.369 30.5695 127.831 30.5695H126.61V37.466H124.693V21.2178H128.369Z" fill="white"/>
<path fill-rule="evenodd" clip-rule="evenodd" d="M136.721 37.466V22.8316H133.735V21.2178H141.549V22.8316H138.562V37.466H136.721Z" fill="white"/>
<path fill-rule="evenodd" clip-rule="evenodd" d="M149.058 28.4247V30.0316H145.155V35.7833H149.983V37.466H143.238V21.2178H149.983V22.8316H145.155V28.4247H149.058Z" fill="white"/>
<path fill-rule="evenodd" clip-rule="evenodd" d="M109.369 56.9287C110.673 56.9287 111.279 56.0874 111.279 54.6322V46.2805C111.279 44.8253 110.673 43.977 109.369 43.977H107.376V56.9287H109.369ZM109.445 42.3701C111.893 42.3701 113.045 43.9012 113.045 46.3563V54.5563C113.045 57.0805 111.893 58.6184 109.445 58.6184H105.535V42.3701H109.445Z" fill="white"/>
<path fill-rule="evenodd" clip-rule="evenodd" d="M115.266 58.6184H117.107V42.3701H115.266V58.6184Z" fill="white"/>
<path fill-rule="evenodd" clip-rule="evenodd" d="M130.824 46.3557V47.8109H129.134V46.2798C129.134 44.8247 128.521 43.9005 127.224 43.9005C125.845 43.9005 125.307 44.8247 125.307 46.2798V54.7833C125.307 56.2385 125.845 57.0798 127.224 57.0798C128.521 57.0798 129.134 56.2385 129.134 54.7833V52.7143H130.824V54.7074C130.824 57.1626 129.672 58.7695 127.224 58.7695C124.693 58.7695 123.465 57.1626 123.465 54.7074V46.3557C123.465 43.9005 124.693 42.2178 127.224 42.2178C129.672 42.2178 130.824 43.9005 130.824 46.3557Z" fill="white"/>
<path fill-rule="evenodd" clip-rule="evenodd" d="M134.886 51.2598V58.6184H132.969V42.3701H134.886V49.6529H138.79V42.3701H140.631V58.6184H138.79V51.2598H134.886Z" fill="white"/>
<path fill-rule="evenodd" clip-rule="evenodd" d="M143.003 58.6184H144.845V42.3701H143.003V58.6184Z" fill="white"/>
<path fill-rule="evenodd" clip-rule="evenodd" d="M112.741 67.4253V68.8874H110.975V67.3494C110.975 65.8943 110.362 64.977 109.058 64.977C107.755 64.977 107.224 65.8943 107.224 67.3494V75.9356C107.224 77.3908 107.755 78.308 109.058 78.308C110.362 78.308 110.975 77.3908 110.975 75.9356V73.7908H112.741V75.8598C112.741 78.308 111.513 79.9149 109.058 79.9149C106.534 79.9149 105.382 78.308 105.382 75.8598V67.4253C105.382 64.977 106.534 63.3701 109.058 63.3701C111.513 63.3701 112.741 64.977 112.741 67.4253Z" fill="white"/>
<path fill-rule="evenodd" clip-rule="evenodd" d="M118.024 71.1077C119.555 71.1077 120.403 70.6456 120.403 68.9629V67.3491C120.403 65.8939 119.866 65.1284 118.562 65.1284H116.721V71.1077H118.024ZM118.562 63.5215C121.093 63.5215 122.162 64.8249 122.162 67.1973V68.5008C122.162 70.3422 121.548 71.4111 120.169 71.8732C121.624 72.2525 122.162 73.556 122.162 75.3215V77.8456C122.162 78.5353 122.238 79.2249 122.548 79.7629H120.707C120.479 79.3077 120.403 78.8456 120.403 77.7698V75.2456C120.403 73.4042 119.555 72.8663 117.948 72.8663H116.721V79.7629H114.886V63.5215H118.562Z" fill="white"/>
<path fill-rule="evenodd" clip-rule="evenodd" d="M130.362 70.6456V72.2525H126.452V78.0801H131.279V79.7629H124.542V63.5215H131.279V65.1284H126.452V70.6456H130.362Z" fill="white"/>
<path fill-rule="evenodd" clip-rule="evenodd" d="M135.5 74.9353H139.176L137.335 65.5904L135.5 74.9353ZM135.266 76.4663L134.652 79.7629H132.969L136.19 63.5215H138.79L141.859 79.7629H140.018L139.404 76.4663H135.266Z" fill="white"/>
<path fill-rule="evenodd" clip-rule="evenodd" d="M98.7144 79.9971H99.4799V-0.00292969H98.7144V79.9971Z" fill="white"/>
</g>
</svg>
