<svg width="94" height="141" viewBox="0 0 94 141" fill="none" xmlns="http://www.w3.org/2000/svg">
<path d="M0.356934 121.357H5.30931L8.83312 134.596H8.92836L12.6426 121.357H17.595L21.4046 134.596L24.9284 121.357H29.8807L24.1665 139.548H19.0236L15.2141 126.596H15.1188L11.3093 139.548H6.16646L0.356934 121.357Z" fill="white"/>
<path d="M39.8806 121.357H34.9282V139.548H39.8806V121.357Z" fill="white"/>
<path d="M47.2144 121.357H59.5001C64.7382 121.357 65.9763 124.405 65.9763 126.881C65.9763 130.786 63.881 133.072 59.881 133.072H52.1667V139.548H47.2144V121.357ZM52.1667 129.738H57.5001C59.0239 129.738 60.8334 129.643 60.8334 127.262C60.8334 124.881 59.4048 124.691 57.9763 124.691H52.1667V129.738Z" fill="white"/>
<path d="M82.5477 120.881C92.3572 120.881 93.9763 126.69 93.9763 130.5C93.9763 134.309 92.4525 140.119 82.5477 140.119C72.6429 140.119 71.2144 134.309 71.2144 130.5C71.2144 126.69 72.7382 120.881 82.5477 120.881ZM82.5477 136.595C87.0239 136.595 88.6429 133.262 88.6429 130.5C88.6429 127.738 87.0239 124.405 82.5477 124.405C78.0715 124.405 76.4525 127.738 76.4525 130.5C76.4525 133.262 78.0715 136.595 82.5477 136.595Z" fill="white"/>
<path d="M91.9756 12.881H92.1661C89.0232 8.11905 81.0232 3.92857 69.8804 0.5V2.11905C81.4042 5.07143 89.3089 8.78572 91.9756 12.881Z" fill="white"/>
<path d="M92.0709 24.5948H92.2613C89.1185 19.8329 81.0232 15.6424 69.8804 12.2139V13.8329C81.4042 16.7853 89.3089 20.4996 92.0709 24.5948Z" fill="white"/>
<path d="M92.0709 36.214H92.2613C89.1185 31.4521 81.0232 27.2616 69.8804 23.833V25.4521C81.4042 28.4044 89.3089 32.0235 92.0709 36.214Z" fill="white"/>
<path d="M92.0709 47.7374H92.2613C89.1185 42.9755 81.0232 38.785 69.8804 35.3564V36.9755C81.4042 39.9279 89.3089 43.6422 92.0709 47.7374Z" fill="white"/>
<path d="M92.0709 59.3565H92.2613C89.1185 54.5946 81.0232 50.4042 69.8804 46.9756V48.5946C81.4042 51.547 89.3089 55.2613 92.0709 59.3565Z" fill="white"/>
<path d="M92.0709 70.9767H92.2613C89.1185 66.2148 81.0232 62.0243 69.8804 58.5957V60.2148C81.4042 63.1671 89.3089 66.7862 92.0709 70.9767Z" fill="white"/>
<path d="M92.0709 82.5958H92.2613C89.1185 77.8339 81.0232 73.6434 69.8804 70.2148V71.8339C81.4042 74.691 89.3089 78.4053 92.0709 82.5958Z" fill="white"/>
<path d="M92.1668 82.69C92.7383 83.6424 93.1192 84.69 93.1192 85.7376C93.1192 94.9757 69.3097 102.976 34.8335 106.88V112.309C68.0716 107.833 91.5002 98.8805 93.5954 88.4995V85.5472C93.4049 84.4043 92.9287 83.3567 92.2621 82.4043L92.1668 82.69Z" fill="white"/>
<path d="M92.1668 71.0713C92.7383 72.0237 93.1192 73.0713 93.1192 74.119C93.1192 83.3571 69.3097 91.357 34.8335 95.2618V100.69C68.0716 96.2142 91.5002 87.2618 93.5954 76.8809V74.0237C93.4049 72.8809 92.9287 71.8332 92.2621 70.8809L92.1668 71.0713Z" fill="white"/>
<path d="M92.1668 59.4527C92.7383 60.405 93.1192 61.4527 93.1192 62.5003C93.1192 71.7384 69.3097 79.7384 34.8335 83.6431V89.0717C68.1668 84.6908 91.5954 75.7384 93.6906 65.3574V62.405C93.5002 61.2622 93.024 60.2146 92.3573 59.3574L92.1668 59.4527Z" fill="white"/>
<path d="M92.1668 47.9292C92.7383 48.8816 93.1192 49.9292 93.1192 50.9768C93.1192 60.2149 69.3097 68.2149 34.8335 72.2149V77.6435C68.0716 73.1673 91.5002 64.2149 93.5954 53.834V50.9768C93.4049 49.834 92.9287 48.7864 92.2621 47.834L92.1668 47.9292Z" fill="white"/>
<path d="M92.1668 36.3096C92.7383 37.262 93.1192 38.3096 93.1192 39.3572C93.1192 48.5953 69.3097 56.5953 34.8335 60.5001V65.9287C68.0716 61.4525 91.5002 52.5001 93.5954 42.1191V39.1668C93.4049 38.0239 92.9287 36.9763 92.2621 36.1191L92.1668 36.3096Z" fill="white"/>
<path d="M92.2621 13.1665C92.8335 14.0237 93.1192 15.0713 93.1192 16.1189C93.1192 25.357 69.3097 33.357 34.8335 37.2618V42.6903C68.0716 38.2141 91.5002 29.2618 93.5954 18.8808V16.0237C93.4049 14.9761 92.9287 13.9284 92.3573 13.0713L92.2621 13.1665Z" fill="white"/>
<path d="M92.1668 24.6905C92.7383 25.6429 93.1192 26.6905 93.1192 27.7381C93.1192 36.9762 69.3097 44.9762 34.8335 48.881V54.3095C68.0716 49.8333 91.5002 40.881 93.5954 30.5V27.5476C93.4049 26.4048 92.9287 25.3571 92.2621 24.5L92.1668 24.6905Z" fill="white"/>
</svg>
