<svg width="40" height="40" viewBox="0 0 40 40" fill="none" xmlns="http://www.w3.org/2000/svg">
<path d="M20 0C16.0444 0 12.1776 1.17298 8.8886 3.37061C5.59962 5.56824 3.03617 8.69181 1.52242 12.3463C0.00866562 16.0009 -0.387401 20.0222 0.384303 23.9018C1.15601 27.7814 3.06082 31.3451 5.85787 34.1421C8.65492 36.9392 12.2186 38.844 16.0982 39.6157C19.9778 40.3874 23.9992 39.9913 27.6537 38.4776C31.3082 36.9638 34.4318 34.4004 36.6294 31.1114C38.827 27.8224 40 23.9556 40 20C39.9937 14.6976 37.8846 9.61417 34.1352 5.86481C30.3858 2.11544 25.3024 0.00628541 20 0ZM20 37.5C16.5388 37.5 13.1554 36.4736 10.2775 34.5507C7.39967 32.6278 5.15665 29.8947 3.83212 26.697C2.50758 23.4993 2.16103 19.9806 2.83627 16.5859C3.51151 13.1913 5.17822 10.073 7.62564 7.62563C10.0731 5.17821 13.1913 3.5115 16.5859 2.83626C19.9806 2.16102 23.4993 2.50757 26.697 3.83211C29.8947 5.15664 32.6278 7.39966 34.5507 10.2775C36.4737 13.1554 37.5 16.5388 37.5 20C37.495 24.6398 35.6497 29.0881 32.3689 32.3689C29.0881 35.6497 24.6398 37.495 20 37.5Z" fill="url(#paint0_linear_252_198)"/>
<defs>
<linearGradient id="paint0_linear_252_198" x1="0" y1="20" x2="40" y2="20" gradientUnits="userSpaceOnUse">
<stop offset="0.155" stop-color="#FF9966"/>
<stop offset="1" stop-color="white"/>
</linearGradient>
</defs>
</svg>
