<svg width="36" height="35" viewBox="0 0 36 35" fill="none" xmlns="http://www.w3.org/2000/svg">
<g opacity="0.4">
<rect width="33.4542" height="33.4542" rx="4" transform="matrix(-1 0 0 1 34.5459 1)" fill="url(#paint0_linear_789_69153)" fill-opacity="0.24"/>
<rect width="33.4542" height="33.4542" rx="4" transform="matrix(-1 0 0 1 34.5459 1)" stroke="url(#paint1_linear_789_69153)" stroke-linecap="round" stroke-linejoin="round"/>
<path d="M23.9111 23.1114L18.3727 17.7271L23.9111 12.3428" stroke="url(#paint2_linear_789_69153)" stroke-width="1.38462" stroke-linecap="round" stroke-linejoin="round"/>
<path d="M23.9111 23.1114L18.3727 17.7271L23.9111 12.3428" stroke="url(#paint3_linear_789_69153)" stroke-width="1.38462" stroke-linecap="round" stroke-linejoin="round"/>
<path d="M18.373 24.1887L11.7269 17.7272L18.373 11.2656" stroke="url(#paint4_linear_789_69153)" stroke-width="1.38462" stroke-linecap="round" stroke-linejoin="round"/>
<path d="M18.373 24.1887L11.7269 17.7272L18.373 11.2656" stroke="url(#paint5_linear_789_69153)" stroke-width="1.38462" stroke-linecap="round" stroke-linejoin="round"/>
</g>
<defs>
<linearGradient id="paint0_linear_789_69153" x1="33.4542" y1="16.7271" x2="0" y2="16.7271" gradientUnits="userSpaceOnUse">
<stop stop-color="#990939"/>
<stop offset="1" stop-color="#C84A01"/>
</linearGradient>
<linearGradient id="paint1_linear_789_69153" x1="33.4542" y1="16.7271" x2="0" y2="16.7271" gradientUnits="userSpaceOnUse">
<stop stop-color="#FF9966"/>
<stop offset="1" stop-color="white"/>
</linearGradient>
<linearGradient id="paint2_linear_789_69153" x1="18.3727" y1="17.7271" x2="23.9111" y2="17.7271" gradientUnits="userSpaceOnUse">
<stop stop-color="#990939"/>
<stop offset="1" stop-color="#C84A01"/>
</linearGradient>
<linearGradient id="paint3_linear_789_69153" x1="18.3727" y1="17.7271" x2="23.9111" y2="17.7271" gradientUnits="userSpaceOnUse">
<stop stop-color="#FF9966"/>
<stop offset="1" stop-color="white"/>
</linearGradient>
<linearGradient id="paint4_linear_789_69153" x1="11.7269" y1="17.7272" x2="18.373" y2="17.7272" gradientUnits="userSpaceOnUse">
<stop stop-color="#990939"/>
<stop offset="1" stop-color="#C84A01"/>
</linearGradient>
<linearGradient id="paint5_linear_789_69153" x1="11.7269" y1="17.7272" x2="18.373" y2="17.7272" gradientUnits="userSpaceOnUse">
<stop stop-color="#FF9966"/>
<stop offset="1" stop-color="white"/>
</linearGradient>
</defs>
</svg>
