<svg width="66" height="66" viewBox="0 0 66 66" fill="none" xmlns="http://www.w3.org/2000/svg">
<rect width="64" height="64" rx="7.65226" transform="matrix(-1 0 0 1 65 1)" fill="url(#paint0_linear_928_17236)" fill-opacity="0.24"/>
<rect width="64" height="64" rx="7.65226" transform="matrix(-1 0 0 1 65 1)" stroke="url(#paint1_linear_928_17236)" stroke-width="2" stroke-linecap="round" stroke-linejoin="round"/>
<path d="M44.6543 43.3008L34.0589 33.0002L44.6543 22.6997" stroke="url(#paint2_linear_928_17236)" stroke-width="2.64886" stroke-linecap="round" stroke-linejoin="round"/>
<path d="M44.6543 43.3008L34.0589 33.0002L44.6543 22.6997" stroke="url(#paint3_linear_928_17236)" stroke-width="2.64886" stroke-linecap="round" stroke-linejoin="round"/>
<path d="M34.0586 45.3614L21.3441 33L34.0586 20.6387" stroke="url(#paint4_linear_928_17236)" stroke-width="2.64886" stroke-linecap="round" stroke-linejoin="round"/>
<path d="M34.0586 45.3614L21.3441 33L34.0586 20.6387" stroke="url(#paint5_linear_928_17236)" stroke-width="2.64886" stroke-linecap="round" stroke-linejoin="round"/>
<defs>
<linearGradient id="paint0_linear_928_17236" x1="64" y1="32" x2="0" y2="32" gradientUnits="userSpaceOnUse">
<stop stop-color="#990939"/>
<stop offset="1" stop-color="#C84A01"/>
</linearGradient>
<linearGradient id="paint1_linear_928_17236" x1="64" y1="32" x2="0" y2="32" gradientUnits="userSpaceOnUse">
<stop stop-color="#FF9966"/>
<stop offset="1" stop-color="white"/>
</linearGradient>
<linearGradient id="paint2_linear_928_17236" x1="34.0589" y1="33.0002" x2="44.6543" y2="33.0002" gradientUnits="userSpaceOnUse">
<stop stop-color="#990939"/>
<stop offset="1" stop-color="#C84A01"/>
</linearGradient>
<linearGradient id="paint3_linear_928_17236" x1="34.0589" y1="33.0002" x2="44.6543" y2="33.0002" gradientUnits="userSpaceOnUse">
<stop stop-color="#FF9966"/>
<stop offset="1" stop-color="white"/>
</linearGradient>
<linearGradient id="paint4_linear_928_17236" x1="21.3441" y1="33" x2="34.0586" y2="33" gradientUnits="userSpaceOnUse">
<stop stop-color="#990939"/>
<stop offset="1" stop-color="#C84A01"/>
</linearGradient>
<linearGradient id="paint5_linear_928_17236" x1="21.3441" y1="33" x2="34.0586" y2="33" gradientUnits="userSpaceOnUse">
<stop stop-color="#FF9966"/>
<stop offset="1" stop-color="white"/>
</linearGradient>
</defs>
</svg>
