<svg width="256" height="236" viewBox="0 0 256 236" fill="none" xmlns="http://www.w3.org/2000/svg">
<path d="M197.59 37.0459L184.089 37.7386L184.649 47.6774L202.737 46.6263L197.59 37.0459Z" fill="#61132A"/>
<path d="M215.79 38.2867L197.59 37.0459L198.147 46.9847L216.236 45.9306L215.79 38.2867Z" fill="#61132A"/>
<path d="M203.685 158.812H149.157L150.983 51.3157L176.694 49.584L203.685 158.812Z" fill="#61132A"/>
<path d="M159.322 95.4677H152.591L152.919 80.9811L159.033 80.4932L159.322 95.4677Z" fill="white"/>
<path d="M159.322 138.235H152.591L152.919 123.752L159.033 123.261L159.322 138.235Z" fill="white"/>
<path d="M228.554 158.811H174.026L176.695 49.583L226.205 45.8936L228.554 158.811Z" fill="#61132A"/>
<path d="M172.665 73.4463L145.788 74.4402L145.98 77.7471H172.857L172.665 73.4463Z" fill="white"/>
<path d="M171.487 142.316H142.86L142.872 138.235H171.499L171.487 142.316Z" fill="white"/>
<path d="M171.559 122.415H142.929L143.294 118.776L171.457 119.364L171.559 122.415Z" fill="white"/>
<path d="M171.517 99.5457H142.89L142.845 95.4678H171.475L171.517 99.5457Z" fill="white"/>
<path d="M231.081 142.5L171.487 142.316L171.499 138.235L231.129 139.202L231.081 142.5Z" fill="white"/>
<path d="M231.129 120.834L171.559 122.415L171.457 119.364L231.023 116.756L231.129 120.834Z" fill="white"/>
<path d="M231.108 98.9072L171.517 99.5457L171.475 95.4678L231.108 95.7629V98.9072Z" fill="white"/>
<path d="M186.386 92.0502H179.932L180.248 81.9156L186.109 81.5723L186.386 92.0502Z" fill="white"/>
<path d="M191.807 81.5723H198.262L197.948 91.7069L192.087 92.0502L191.807 81.5723Z" fill="white"/>
<path d="M210.14 92.0502H203.685L203.999 81.9156L209.859 81.5723L210.14 92.0502Z" fill="white"/>
<path d="M215.561 81.5723H222.015L221.699 91.7069L215.838 92.0502L215.561 81.5723Z" fill="white"/>
<path d="M186.386 67.5472H179.932L180.248 57.4156L186.109 57.0723L186.386 67.5472Z" fill="white"/>
<path d="M191.807 57.0723H198.262L197.948 67.2069L192.087 67.5472L191.807 57.0723Z" fill="white"/>
<path d="M210.14 67.5472H203.685L203.999 57.4156L209.859 57.0723L210.14 67.5472Z" fill="white"/>
<path d="M215.561 57.0723H222.015L221.699 67.2069L215.838 67.5472L215.561 57.0723Z" fill="white"/>
<path d="M186.386 114.942H179.932L180.248 104.807L186.109 104.464L186.386 114.942Z" fill="white"/>
<path d="M191.807 104.464H198.262L197.948 114.598L192.087 114.942L191.807 104.464Z" fill="white"/>
<path d="M159.891 114.942H153.437L153.753 104.807L159.614 104.464L159.891 114.942Z" fill="white"/>
<path d="M165.316 104.464H171.77L171.454 114.598L165.593 114.942L165.316 104.464Z" fill="white"/>
<path d="M159.891 69.3343H153.437L153.753 59.1997L159.614 58.8594L159.891 69.3343Z" fill="white"/>
<path d="M165.316 58.8594H171.77L171.454 68.991L165.593 69.3343L165.316 58.8594Z" fill="white"/>
<path d="M159.891 155.812H153.437L153.753 145.68L159.614 145.337L159.891 155.812Z" fill="white"/>
<path d="M165.316 145.337H171.77L171.454 155.468L165.593 155.812L165.316 145.337Z" fill="white"/>
<path d="M210.14 114.942H203.685L203.999 104.807L209.859 104.464L210.14 114.942Z" fill="white"/>
<path d="M215.561 104.464H222.015L221.699 114.598L215.838 114.942L215.561 104.464Z" fill="white"/>
<path d="M186.386 135.561H179.932L180.248 125.426L186.109 125.086L186.386 135.561Z" fill="white"/>
<path d="M191.807 125.086H198.262L197.948 135.218L192.087 135.561L191.807 125.086Z" fill="white"/>
<path d="M210.14 135.561H203.685L203.999 125.426L209.859 125.086L210.14 135.561Z" fill="white"/>
<path d="M215.561 125.086H222.015L221.699 135.218L215.838 135.561L215.561 125.086Z" fill="white"/>
<path d="M186.386 155.812H179.932L180.248 145.68L186.109 145.337L186.386 155.812Z" fill="white"/>
<path d="M191.807 145.337H198.262L197.948 155.468L192.087 155.812L191.807 145.337Z" fill="white"/>
<path d="M210.14 155.812H203.685L203.999 145.68L209.859 145.337L210.14 155.812Z" fill="white"/>
<path d="M215.561 145.337H222.015L221.699 155.468L215.838 155.812L215.561 145.337Z" fill="white"/>
<path d="M229.722 71.124L172.665 73.4461L172.857 77.7469L229.915 74.4279L229.722 71.124Z" fill="white"/>
<path d="M172.665 47.6777L145.788 48.6746L145.98 51.9785H172.857L172.665 47.6777Z" fill="#61132A"/>
<path d="M229.722 45.3555L172.665 47.6775L172.857 51.9783L229.915 48.6624L229.722 45.3555Z" fill="#61132A"/>
<path d="M176.272 88.3945H156.647V89.4637H176.272V88.3945Z" fill="white"/>
<path d="M157.714 88.3945H142.845V89.4637H157.714V88.3945Z" fill="white"/>
<path d="M143.914 88.3945H142.845V95.4692H143.914V88.3945Z" fill="white"/>
<path d="M176.27 88.3945H170.448V95.4692H176.27V88.3945Z" fill="white"/>
<path d="M176.273 131.161H156.648V132.23H176.273V131.161Z" fill="white"/>
<path d="M157.714 131.161H142.845V132.23H157.714V131.161Z" fill="white"/>
<path d="M143.914 131.161H142.845V138.236H143.914V131.161Z" fill="white"/>
<path d="M176.27 131.161H170.448V138.236H176.27V131.161Z" fill="white"/>
<path d="M158.891 153.662H157.626C157.217 151.527 155.783 149.991 154.072 150.295H152.561V73.8021H172.929C172.95 73.6244 172.962 73.4467 172.962 73.263C172.962 71.721 172.167 70.3446 170.923 69.4953L171.056 69.3417L147.145 48.5575V46.9101C147.145 44.8349 145.462 43.1514 143.387 43.1514H143.236C141.339 43.1514 139.785 44.5639 139.529 46.392L101.623 68.652H100.541C97.4332 68.2906 94.9124 70.5193 94.9124 73.266C94.9124 73.4467 94.9244 73.6274 94.9455 73.8051H96.4815V110.479H96.0297V115.419H99.1228L99.168 117.156C99.168 117.156 100.716 117.536 100.722 118.695C100.734 120.843 99.6529 121.361 98.5777 121.322C97.9693 121.301 96.861 120.981 96.6321 120.234C96.617 120.183 96.5327 119.864 96.5809 119.831C96.3128 120.009 96.1893 120.313 96.2285 120.671C96.4212 122.427 98.3367 122.797 99.6077 122.671C100.903 122.541 102.165 121.614 102.496 120.129C102.912 118.259 101.647 116.991 100.373 115.994C100.355 115.979 100.373 115.753 100.406 115.422H102.58V110.482H101.897V73.8021H133.315V150.292H130.057C128.346 149.988 126.912 151.524 126.503 153.659H124.16C121.732 153.298 119.762 155.526 119.762 158.273C119.762 158.454 119.771 158.634 119.79 158.812H163.258C163.276 158.634 163.285 158.457 163.285 158.273C163.288 155.526 161.319 153.301 158.891 153.662ZM137.827 78.3589H145.423L137.827 86.1232V78.3589ZM148.052 110.437H138.387L148.052 100.562V110.437ZM148.052 92.2281H137.827V90.0355L148.052 79.5877V92.2281ZM137.827 94.9929H148.052V96.6493L137.827 107.097V94.9929ZM137.827 113.202H148.052V114.627L137.827 125.077V113.202ZM137.827 133.947H146.889L137.827 143.208V133.947ZM137.827 131.182V128.99L148.052 118.539V131.182H137.827ZM168.942 68.7002C168.433 68.6098 167.893 68.5887 167.336 68.652H151.061V65.6342H147.151V49.7532L168.942 68.7002ZM139.48 47.3889V65.6342H135.571V68.652H104.023L139.48 47.3889ZM100.999 110.476H97.391V73.8021H100.999V110.476ZM148.052 73.8021V75.5911H137.827V73.8021H148.052ZM137.827 147.124L148.052 136.673V150.295H137.827V147.124Z" fill="#FFDECC"/>
<path d="M172.965 75.3379H156.47V91.1346H172.965V75.3379Z" fill="#FFDECC"/>
<path fill-rule="evenodd" clip-rule="evenodd" d="M58.9525 91.2791C37.5539 96.6853 17.0438 143.705 27.844 161.42C32.1809 168.531 45.8845 162.288 45.8845 162.288V178.955H103.831V147.28C103.831 147.28 110.424 160.378 120.832 150.487C131.241 140.6 113.721 106.166 103.313 96.7967C92.9071 87.4301 80.3511 85.87 58.9525 91.2791Z" fill="black"/>
<path fill-rule="evenodd" clip-rule="evenodd" d="M58.9525 91.2784C54.1397 92.4952 49.3721 95.8232 44.9929 100.443C53.3235 120.456 48.4053 142.105 45.4176 147.261C44.0713 149.583 43.4208 156.326 43.1196 163.344C44.7881 162.79 45.8844 162.29 45.8844 162.29V178.957H103.831V147.279C103.831 147.279 104.614 148.836 106.069 150.472C105.087 131.778 103.117 108.918 99.1686 93.5673C96.452 91.7573 93.5516 90.411 90.3742 89.5195C89.2237 98.5488 86.3113 113.93 79.1825 125.037C79.1825 125.037 70.4484 101.518 59.1272 91.2332L58.9525 91.2784Z" fill="white"/>
<path fill-rule="evenodd" clip-rule="evenodd" d="M49.5321 127.979C49.1104 137.223 46.9962 144.538 45.421 147.261C44.0748 149.583 43.4242 156.326 43.123 163.344C44.7916 162.789 45.8878 162.29 45.8878 162.29V178.957H49.5351C49.5321 178.954 55.3207 146.46 49.5321 127.979Z" fill="white"/>
<path fill-rule="evenodd" clip-rule="evenodd" d="M45.8842 165.175V171.129C68.2857 177.646 88.6995 175.535 103.831 171.602V165.753C89.0368 169.807 68.4905 172.171 45.8842 165.175ZM43.8964 153.39C43.6645 155.142 43.4838 157.121 43.3423 159.208C66.7377 166.656 88.1272 164.536 103.831 160.458V154.609C88.6031 158.778 67.2828 161.163 43.8964 153.39Z" fill="#8C2F00"/>
<path fill-rule="evenodd" clip-rule="evenodd" d="M25.8716 156.764C26.3475 158.472 27.001 160.035 27.8443 161.42C32.1813 168.531 45.8848 162.288 45.8848 162.288C50.297 160.432 52.2155 158.918 52.2155 158.918L50.9626 149.473C50.9626 149.473 42.3189 144.919 32.377 147.861C27.3715 149.343 25.7903 153.123 25.8716 156.764ZM103.831 147.28C103.831 147.28 109.704 158.942 119.113 151.942C126.151 139.91 107.605 117.259 107.605 117.259L97.8859 120.024C97.8859 120.024 99.1358 138.835 103.831 147.28Z" fill="black"/>
<path d="M99.8525 87.9518L89.6877 105.558L97.2543 109.926L107.419 92.3204L99.8525 87.9518Z" fill="#FF8447"/>
<path fill-rule="evenodd" clip-rule="evenodd" d="M101.671 88.9989L105.608 91.2728L107.74 85.2975L105.779 84.165L101.671 88.9989Z" fill="#FF8447"/>
<path d="M112.183 74.5735L106.433 84.5352L107.091 84.9146L112.84 74.9529L112.183 74.5735Z" fill="#FFE0D1"/>
<path fill-rule="evenodd" clip-rule="evenodd" d="M67.5149 145.286L73.5685 122.697H115.065L105.864 157.034H69.1473L67.5149 145.286Z" fill="#FFDECC"/>
<path fill-rule="evenodd" clip-rule="evenodd" d="M68.9182 63.2959H85.769V98.7654H77.3451C72.71 98.7654 68.9212 94.9736 68.9212 90.3415V63.2959H68.9182Z" fill="#FFB38D"/>
<path fill-rule="evenodd" clip-rule="evenodd" d="M73.1891 63.2959H85.7692V93.2961C85.3988 93.3292 85.0223 93.3443 84.6428 93.3443C77.4748 93.3443 71.6079 87.4774 71.6079 80.3094V69.5001C71.6079 67.2564 72.1832 65.1421 73.1891 63.2959Z" fill="#FF7631"/>
<path fill-rule="evenodd" clip-rule="evenodd" d="M82.5918 50.7373C89.7628 50.7373 95.6267 56.6042 95.6267 63.7722V74.5814C95.6267 81.7525 89.7598 87.6164 82.5918 87.6164C75.4238 87.6164 69.5569 81.7494 69.5569 74.5814V63.7722C69.5539 56.6042 75.4208 50.7373 82.5918 50.7373Z" fill="#FFB38D"/>
<path fill-rule="evenodd" clip-rule="evenodd" d="M64.8253 58.7603C64.3916 65.8922 65.0422 69.4159 67.4185 73.2409L71.4753 67.9643C71.4753 67.9643 70.0116 58.1128 76.4959 57.6791C76.4959 57.6821 72.174 54.8721 64.8253 58.7603Z" fill="#5D1F00"/>
<path fill-rule="evenodd" clip-rule="evenodd" d="M97.3523 59.1465H62.9851C62.1538 59.1465 61.4731 59.8271 61.4731 60.6584C61.4731 61.4896 62.1538 62.1703 62.9851 62.1703H97.3523C98.1835 62.1703 98.8642 61.4896 98.8642 60.6584C98.8672 59.8271 98.1866 59.1465 97.3523 59.1465Z" fill="#8C2F00"/>
<path fill-rule="evenodd" clip-rule="evenodd" d="M80.1705 41.8555C71.1322 41.8555 63.7202 49.4963 63.0396 59.1972C63.16 59.1641 63.2895 59.149 63.419 59.149H96.9219C97.0544 59.149 97.1809 59.1671 97.3014 59.1972C96.6177 49.4933 89.2088 41.8555 80.1705 41.8555Z" fill="white"/>
<path fill-rule="evenodd" clip-rule="evenodd" d="M71.4785 67.9646C70.2076 63.5132 67.3434 63.8325 66.0724 65.1034C64.8015 66.3744 63.2112 70.5096 66.0724 74.0062C68.9336 77.5029 71.7948 74.9609 71.7948 74.9609C71.7948 74.9609 74.3397 72.7352 71.4785 67.9646ZM98.7621 119.773C96.7593 116.906 96.1419 113.09 97.0093 109.334C97.1056 108.919 97.0906 108.542 96.9641 108.136C95.8347 104.546 91.9887 104.573 91.9766 104.573C91.0309 104.573 90.2659 103.808 90.2659 102.862C90.2659 101.916 91.0309 101.151 91.9766 101.151C91.9917 101.151 96.44 101.118 98.985 104.579C99.1356 104.338 99.2922 104.1 99.4548 103.862C97.7712 99.8652 93.2717 99.8983 93.2566 99.8983C92.3109 99.8983 91.5459 99.1334 91.5459 98.1877C91.5459 97.242 92.3109 96.477 93.2566 96.477C93.2777 96.477 98.988 96.4348 101.882 101.085C102.048 100.934 102.214 100.784 102.388 100.636C100.569 95.7602 95.2022 95.8023 95.1871 95.8023C94.2415 95.8023 93.4765 95.0374 93.4765 94.0917C93.4765 93.146 94.2415 92.381 95.1871 92.381C95.2112 92.381 102.403 92.3268 105.271 98.6214C105.599 98.4316 105.939 98.2509 106.289 98.0792C104.855 93.926 100.952 92.0527 100.934 92.0467C100.087 91.628 99.7409 90.604 100.157 89.7607C100.575 88.9144 101.599 88.5681 102.442 88.9837C107.653 91.5317 110.978 97.6877 110.436 103.407C110.035 107.642 105.855 106.925 106.831 117.493L98.7621 119.773ZM50.9624 149.472C59.3411 142.647 68.3885 142.024 68.3885 142.024L67.5151 145.286C67.5151 145.286 76.2582 144.364 78.24 144.253C80.2247 144.141 80.4928 146.192 78.8634 147.105C80.6915 146.704 82.2516 149.222 78.8182 150.448C80.0651 150.204 82.1854 152.767 77.5021 154.327C78.8604 154.372 79.5742 156.176 76.0323 157.959C72.4875 159.742 67.4488 161.7 64.4672 162.073C61.4855 162.447 56.6576 158.402 52.2153 158.917L50.9624 149.472Z" fill="#FFB38D"/>
<path fill-rule="evenodd" clip-rule="evenodd" d="M63.1479 143.091C66.2772 142.169 68.3884 142.024 68.3884 142.024L67.515 145.286L63.1479 143.091Z" fill="#FF7631"/>
<path d="M78.8391 146.981C78.9084 146.966 78.9746 147.012 78.9897 147.081C79.0048 147.15 78.9596 147.216 78.8903 147.231L70.2194 148.969C70.1502 148.984 70.0839 148.939 70.0689 148.87C70.0538 148.801 70.099 148.734 70.1682 148.719L78.8391 146.981ZM78.7939 150.324C78.8632 150.309 78.9295 150.352 78.9445 150.421C78.9596 150.49 78.9174 150.556 78.8481 150.571L69.605 152.61C69.5358 152.625 69.4695 152.583 69.4545 152.514C69.4394 152.445 69.4816 152.378 69.5508 152.363L78.7939 150.324ZM77.4688 154.207C77.535 154.186 77.6073 154.222 77.6284 154.291C77.6495 154.357 77.6133 154.43 77.5441 154.451L69.6141 156.92C69.5478 156.941 69.4755 156.905 69.4545 156.836C69.4334 156.77 69.4725 156.697 69.5388 156.676L77.4688 154.207Z" fill="#FF7631"/>
<path fill-rule="evenodd" clip-rule="evenodd" d="M61.9701 156.85C61.6599 155.489 61.419 154.013 61.2744 152.447C60.91 154.284 60.4733 155.992 59.9643 157.293C59.9281 157.384 59.892 157.471 59.8589 157.558C59.3951 158.67 58.8349 159.501 58.1572 160.139C60.2444 160.986 62.193 161.967 63.7531 162.088C63.1417 160.832 62.5905 159.32 62.1538 157.612C62.1237 157.498 62.0966 157.384 62.0695 157.269C62.0334 157.128 62.0002 156.989 61.9701 156.85Z" fill="#FF7631"/>
</svg>
