<svg width="304" height="283" viewBox="0 0 304 283" fill="none" xmlns="http://www.w3.org/2000/svg">
<g clip-path="url(#clip0_270_7600)">
<g clip-path="url(#clip1_270_7600)">
<path d="M289.435 65.9944C262.557 30.0033 216.141 10.8737 167.844 8.42298C113.333 5.65505 56.5498 16.2509 22.1139 46.7458C-38.2528 100.201 -20.315 179.488 9.85242 213.694C59.1672 269.608 127.604 250.7 181.667 261.939C321.433 290.998 357.91 157.717 289.435 65.9944Z" fill="black"/>
<path d="M144.034 125.916L170.314 55.1155C167.572 54.9803 164.831 54.8962 162.089 54.8633L133.074 134.211L164.935 131.727L129.845 226.767L137.921 227.052L175.895 123.52L144.034 125.916Z" fill="#87523C"/>
<path d="M88.898 98.4848L74.9661 96.6426L83.3603 149.525C83.3603 149.525 93.8271 147.683 93.9971 143.444C94.2931 136.037 105.122 108.787 88.898 98.4848Z" fill="#C84A01"/>
<path d="M124.669 156.263C115.348 150.999 100.155 142.161 95.5167 143.417C95.5167 143.417 91.2072 184.626 97.8086 171.379C101.318 164.339 125.711 172.931 131.561 166.505C131.561 166.505 132.301 160.572 124.669 156.263Z" fill="#51392F"/>
<path d="M96.2233 117.982C95.357 116.463 93.8712 132.445 93.8712 132.445C93.8712 132.445 89.9016 134.397 90.6472 135.187C91.3929 135.976 91.1352 136.218 93.3887 136.102C95.6421 135.987 103.291 129.825 103.291 129.825C103.291 129.825 103.318 129.753 102.457 128.728C102.457 128.728 98.0875 121.238 96.2233 117.982Z" fill="#E88358"/>
<path d="M102.37 127.927C101.762 127.659 97.4356 133.958 97.8084 134.649C101.202 141.262 116.73 164.586 123.062 166.806C123.062 166.806 137.142 171.675 131.693 157.447C128.578 149.338 108.73 130.745 102.37 127.927ZM26.3942 178.106C26.4765 182.345 35.7535 190.306 35.7535 190.306C39.087 188.184 52.997 173.89 53.8469 171.379C58.5621 157.162 48.9123 144.913 48.9123 144.913C42.2506 148.208 26.3339 173.797 26.3942 178.106Z" fill="#51392F"/>
<path d="M100.758 174.016C99.8039 159.761 99.5901 145.341 96.4265 143.663C94.3923 142.567 87.6539 141.157 84.2271 140.066C84.2271 140.066 73.1189 137.643 66.1337 139.447C53.8356 142.632 48.9011 144.93 48.9011 144.93C50.2389 157.491 49.1094 193.179 46.856 209.079C63.6938 218.921 73.9687 222.013 92.8352 223.965C95.9879 220.144 101.547 185.75 100.758 174.016Z" fill="#C84A01"/>
<path d="M81.6006 97.175C76.6661 96.2155 69.9989 98.6061 65.2562 108.398C62.0597 115.005 65.7387 118.816 71.3587 126.865C79.2924 132.216 94.2606 115.63 94.2606 115.63C94.2606 115.63 98.0657 110.257 95.5819 104.665C93.7068 100.41 86.8532 98.2003 81.6006 97.175Z" fill="#C07F63"/>
<path d="M84.9621 140.757C85.324 137.177 85.3569 127.215 85.3569 127.215L73.64 122.987C74.3802 132.758 70.3174 139.578 66.9564 140.532C66.4739 140.67 66.8961 141.53 67.2799 141.854C67.2799 141.854 80.6526 150.626 85.1814 147.627C86.8208 146.558 84.8196 142.106 84.9621 140.757Z" fill="#E88358"/>
<path d="M94.4474 118.891C94.1744 118.518 93.7653 118.269 93.3093 118.197C92.8533 118.125 92.3873 118.237 92.013 118.507L86.256 122.696C85.8825 122.968 85.6323 123.377 85.5603 123.833C85.4884 124.29 85.6006 124.756 85.8722 125.13L94.6722 137.192C94.8065 137.378 94.9761 137.535 95.1713 137.655C95.3665 137.775 95.5834 137.855 95.8096 137.89C96.0359 137.926 96.2669 137.917 96.4895 137.863C96.7121 137.809 96.9218 137.711 97.1066 137.576L102.864 133.393C103.237 133.121 103.487 132.711 103.559 132.255C103.631 131.799 103.519 131.332 103.247 130.958L94.4474 118.891Z" fill="#C84A01"/>
<g style="mix-blend-mode:screen">
<path d="M93.7563 118.635C93.4833 118.262 93.0742 118.013 92.6182 117.941C92.1621 117.869 91.6962 117.981 91.3219 118.251L85.5649 122.44C85.1914 122.712 84.9411 123.121 84.8692 123.578C84.7972 124.034 84.9094 124.5 85.1811 124.874L93.9811 136.937C94.2532 137.31 94.6624 137.56 95.1188 137.632C95.5753 137.704 96.0417 137.592 96.4155 137.32L102.172 133.131C102.357 132.997 102.514 132.828 102.633 132.633C102.752 132.438 102.832 132.222 102.868 131.997C102.903 131.771 102.894 131.541 102.841 131.319C102.787 131.096 102.691 130.887 102.556 130.703L93.7563 118.635Z" fill="#FFF9F7"/>
</g>
<path d="M95.1714 116.666C93.395 115.536 91.5637 114.917 90.988 118.245C90.4123 121.573 94.6505 120.24 99.0149 125.142C99.0149 125.164 96.9479 117.823 95.1714 116.666Z" fill="#E88358"/>
<path d="M90.39 107.52C76.469 106.621 79.2927 119.303 78.9747 122.368C78.9089 122.976 77.0831 122.368 77.1653 123.547C76.3484 132.555 84.2327 139.82 88.2901 138.652C92.9724 137.303 95.9222 124.627 95.4671 115.043C95.4781 115.021 94.8311 107.805 90.39 107.52Z" fill="#FFC1AA"/>
<path d="M77.9988 115.787C77.2586 118.994 77.6863 121.878 77.5437 123.282C79.4846 124.433 84.8962 127.74 90.9383 124.313C92.0623 123.671 93.6798 125.695 94.8421 125.409C94.9463 124.697 95.034 123.978 95.1053 123.26C93.7401 124.099 92.1555 121.665 92.0349 120.617C91.8595 119.044 95.4672 116.949 95.4672 116.949C95.5989 116.012 95.5107 115.056 95.2095 114.159C91.4482 117.086 85.0607 110.973 77.9988 115.787ZM86.0367 123.282C83.5803 123.282 78.3607 119.269 83.6571 116.494C86.6178 114.943 89.14 118.139 90.5545 120.491C91.1631 121.484 88.6739 123.282 86.0367 123.282Z" fill="#C84A01"/>
<path d="M62.5809 99.2142C49.3288 109.889 60.5796 138.718 60.936 141.597C61.2924 144.475 64.7302 146.657 68.8258 148.028C76.7979 150.693 84.4465 150.55 83.5638 148.363C68.4146 110.673 88.8876 98.4685 88.8876 98.4685C88.8876 98.4685 71.507 92.0426 62.5809 99.2142Z" fill="#51392F"/>
<path d="M86.908 120.854C86.6485 120.789 86.4236 120.627 86.279 120.402C86.1344 120.177 86.0809 119.906 86.1294 119.643C86.1409 119.502 86.1704 119.364 86.2171 119.231C85.8576 119.33 85.5407 119.545 85.3157 119.843C85.0906 120.14 84.97 120.503 84.9725 120.876C84.9012 121.869 85.4495 122.718 86.1952 122.773C86.9409 122.828 87.5988 122.077 87.6701 121.09C87.6848 120.87 87.6682 120.648 87.6207 120.432C87.5513 120.56 87.4483 120.667 87.3227 120.742C87.1972 120.816 87.0539 120.855 86.908 120.854ZM94.6169 120.756C94.2495 120.756 93.9699 120.207 93.9918 119.582C93.9973 119.442 94.0175 119.302 94.0521 119.166C93.5532 119.286 93.1529 120.004 93.12 120.893C93.0871 121.885 93.5258 122.708 94.107 122.735C94.6881 122.762 95.1761 121.978 95.2035 120.986C95.211 120.765 95.1926 120.544 95.1487 120.328C95.0281 120.597 94.8307 120.767 94.6169 120.756ZM84.9396 117.055C84.8251 117.066 84.7196 117.121 84.6458 117.21C84.5719 117.298 84.5357 117.412 84.5449 117.526C84.5529 117.597 84.5774 117.666 84.6165 117.725C84.6555 117.785 84.7079 117.835 84.7697 117.872C84.8448 117.913 84.931 117.93 85.0164 117.921C86.3014 118.012 87.4998 118.603 88.3554 119.566C88.3953 119.607 88.443 119.64 88.4958 119.662C88.5485 119.684 88.6052 119.696 88.6625 119.696C88.7198 119.696 88.7764 119.684 88.8292 119.662C88.8819 119.64 88.9297 119.607 88.9695 119.566C89.0516 119.484 89.0976 119.372 89.0976 119.256C89.0976 119.14 89.0516 119.029 88.9695 118.946C88.4608 118.375 87.8413 117.912 87.1486 117.587C86.4559 117.262 85.7044 117.081 84.9396 117.055ZM95.1651 117.241C94.715 117.251 94.2741 117.371 93.8806 117.59C93.487 117.809 93.1526 118.12 92.9062 118.497C92.8785 118.547 92.8609 118.602 92.8544 118.659C92.848 118.715 92.8528 118.773 92.8686 118.828C92.8843 118.883 92.9108 118.934 92.9464 118.979C92.9821 119.024 93.0261 119.061 93.0762 119.089C93.1262 119.117 93.1812 119.134 93.2381 119.141C93.2949 119.147 93.3525 119.142 93.4075 119.126C93.4624 119.111 93.5138 119.084 93.5585 119.049C93.6033 119.013 93.6406 118.969 93.6683 118.919C93.8408 118.676 94.0673 118.477 94.33 118.337C94.5926 118.198 94.8841 118.121 95.1816 118.113C95.2731 118.108 95.361 118.075 95.4338 118.02C95.4893 117.98 95.534 117.927 95.5637 117.866C95.5934 117.805 95.6072 117.737 95.6038 117.669C95.6031 117.612 95.5912 117.556 95.5687 117.503C95.5463 117.451 95.5138 117.404 95.473 117.364C95.4323 117.324 95.3842 117.293 95.3313 117.272C95.2785 117.251 95.222 117.24 95.1651 117.241Z" fill="#C84A01"/>
<path d="M91.9144 129.95C91.2345 129.889 88.3067 129.747 88.1148 129.878C87.9229 130.01 87.9393 130.355 88.3834 130.465C90.4998 131.013 90.9549 130.602 92.0679 130.712C92.5011 130.756 92.671 130.076 91.9144 129.95Z" fill="#E88358"/>
<path d="M25.0724 145.067C21.5469 152.365 24.5241 179.932 28.1702 185.558C28.1702 185.558 35.6817 198.119 40.0351 183.518C42.5188 175.195 32.9348 153.675 32.4249 149.563C32.3646 148.888 25.4123 144.371 25.0724 145.067Z" fill="#51392F"/>
<path d="M32.178 137.808C32.1396 135.823 32.2822 124.506 30.1274 124.879C28.6964 125.131 28.965 135.143 28.2303 135.329C24.8693 136.185 21.8867 137.391 21.6893 139.409C21.5412 140.916 20.9107 144.782 23.2629 146.268C25.615 147.754 27.7095 149.985 29.5353 150.029C31.6242 150.078 33.132 146.575 33.8283 141.969C34.1738 139.694 32.178 137.808 32.178 137.808Z" fill="#EB8F67"/>
<g style="mix-blend-mode:multiply" opacity="0.5">
<path d="M30.7035 139.979C27.7209 138.883 28.4282 136.35 28.4282 136.35C26.6298 140.144 31.356 140.533 30.2923 141.953C29.6728 142.776 27.1068 143.751 25.2645 143.993C23.4223 144.234 23.0385 143.9 21.5088 141.586C21.5088 141.586 21.9036 144.525 23.3401 145.045C24.7766 145.566 29.4315 144.875 29.7057 143.669C30.1059 141.887 32.3868 140.61 30.7035 139.979Z" fill="#EB8F67"/>
</g>
<g style="mix-blend-mode:multiply" opacity="0.5">
<path d="M28.4284 136.35C29.0095 136.618 31.115 137.21 32.1786 137.808V136.574C32.1786 136.574 27.8417 136.081 28.4284 136.35Z" fill="#EB8F67"/>
</g>
<g style="mix-blend-mode:screen">
<path d="M135.87 48.1582C131.972 47.4534 127.966 47.6132 124.136 48.6265C120.306 49.6398 116.745 51.4818 113.705 54.0223C110.665 56.5629 108.22 59.74 106.543 63.3292C104.866 66.9184 103.997 70.8322 103.999 74.794V101.863H131.067C137.826 101.858 144.338 99.3249 149.323 94.7621C154.308 90.1993 157.407 83.9366 158.009 77.2052C158.611 70.4738 156.673 63.7608 152.576 58.3857C148.48 53.0106 142.521 49.3624 135.87 48.1582Z" fill="#FFF9F7"/>
</g>
<path d="M137.455 57.3474C135.124 55.9493 124.943 56.8594 124.038 57.4406C123.133 58.0218 123.002 63.6527 123.693 69.1958L131.166 74.1304C131.166 74.1304 137.674 70.4953 138.102 69.4261C138.529 68.357 138.354 57.8847 137.455 57.3474Z" fill="#53443D"/>
<path d="M134.478 71.6181C134.779 57.911 126.708 72.0293 126.708 72.0293C126.708 76.3553 127.169 80.9006 126.412 82.5838C125.59 84.3987 127.361 85.2156 131.111 85.1279C134.861 85.0402 136.347 83.9162 135.497 82.6716C134.373 81.0267 134.373 76.3608 134.478 71.6181Z" fill="#E88358"/>
<path d="M138.94 67.7316C138.42 67.7316 137.773 68.6473 137.471 69.3381C137.457 69.3656 137.434 69.3877 137.406 69.4011C137.378 69.4144 137.346 69.4183 137.316 69.4121C137.286 69.4059 137.258 69.39 137.238 69.3667C137.217 69.3435 137.205 69.3142 137.202 69.2833C137.12 67.5342 137.537 62.8574 135.415 62.3475C132.637 61.7479 129.769 61.6958 126.971 62.1939C123.397 62.9341 125.699 69.7329 124.274 69.5136C123.895 68.2635 123.117 67.7426 122.404 67.7919C121.488 67.8577 122.064 69.2668 122.673 70.4347C123.353 71.7341 123.917 72.3427 124.235 72.3701C125.551 78.2697 128.797 79.4101 130.908 79.3443C132.915 79.273 136.095 77.9188 137.487 72.4304C137.8 72.3208 138.299 71.6848 138.858 70.4018C139.417 69.1188 139.851 67.7371 138.94 67.7316Z" fill="#FFC1AA"/>
<path opacity="0.3" d="M131.846 71.5908V71.9582C131.85 72.0661 131.818 72.1723 131.755 72.2604C131.693 72.3486 131.604 72.4138 131.5 72.4461L131.32 72.4955C131.05 72.5669 130.767 72.5669 130.497 72.4955L130.311 72.4516C130.208 72.4228 130.117 72.3611 130.053 72.276C129.989 72.1908 129.954 72.0869 129.954 71.9801V71.6128L129.713 72.2159C129.685 72.2821 129.67 72.3536 129.671 72.4256C129.673 72.4977 129.689 72.5687 129.72 72.634C129.75 72.6993 129.794 72.7573 129.849 72.8044C129.903 72.8514 129.967 72.8862 130.037 72.9067L130.514 73.0218C130.785 73.0903 131.07 73.0903 131.341 73.0218L131.818 72.8903C131.887 72.8664 131.949 72.8285 132.002 72.779C132.055 72.7294 132.096 72.6693 132.124 72.6026C132.152 72.5359 132.166 72.4641 132.164 72.3918C132.162 72.3195 132.146 72.2483 132.115 72.183L131.846 71.5908Z" fill="#E88358"/>
<path d="M136.43 66.7726C135.229 66.3577 133.957 66.1899 132.69 66.2792C132.61 66.2879 132.537 66.328 132.487 66.3908C132.436 66.4535 132.413 66.5336 132.422 66.6136C132.43 66.6936 132.471 66.7668 132.533 66.8172C132.596 66.8676 132.676 66.891 132.756 66.8823C133.93 66.8 135.109 66.9548 136.221 67.3374C136.256 67.3446 136.291 67.3446 136.326 67.3374C136.388 67.3374 136.449 67.3179 136.501 67.2815C136.552 67.2452 136.59 67.1938 136.611 67.1345C136.631 67.0625 136.623 66.9856 136.59 66.9187C136.556 66.8519 136.499 66.7998 136.43 66.7726ZM129.269 66.3779C127.993 66.2637 126.709 66.4868 125.546 67.0248C125.496 67.0593 125.457 67.1083 125.435 67.1654C125.413 67.2225 125.409 67.2849 125.423 67.3444C125.437 67.4039 125.469 67.4576 125.515 67.4985C125.56 67.5393 125.617 67.5654 125.678 67.5731C125.721 67.5834 125.766 67.5834 125.809 67.5731C126.869 67.0937 128.033 66.89 129.192 66.981C129.272 66.9903 129.352 66.968 129.416 66.9188C129.48 66.8696 129.521 66.7974 129.532 66.7178C129.538 66.6781 129.535 66.6378 129.525 66.5992C129.514 66.5605 129.496 66.5243 129.472 66.4927C129.447 66.4611 129.417 66.4346 129.382 66.4149C129.347 66.3952 129.309 66.3826 129.269 66.3779ZM128.469 68.9658C128.312 68.9364 128.174 68.8471 128.083 68.717C127.992 68.5868 127.955 68.4262 127.981 68.2694C127.985 68.1228 128.035 67.9811 128.123 67.8637C128.056 67.8338 127.983 67.8171 127.909 67.8144C127.776 67.8248 127.646 67.8614 127.526 67.9221C127.407 67.9829 127.3 68.0665 127.213 68.1684C127.126 68.2702 127.06 68.3882 127.019 68.5156C126.977 68.643 126.961 68.7774 126.972 68.9109C126.93 69.0436 126.92 69.1839 126.941 69.3213C126.962 69.4586 127.014 69.5893 127.094 69.7033C127.173 69.8172 127.278 69.9115 127.399 69.9789C127.521 70.0462 127.656 70.0848 127.795 70.0917C127.934 70.0986 128.072 70.0737 128.2 70.0188C128.328 69.9639 128.441 69.8804 128.532 69.7749C128.622 69.6694 128.687 69.5446 128.722 69.41C128.756 69.2755 128.76 69.1348 128.732 68.9987C128.734 68.9677 128.734 68.9365 128.732 68.9055C128.652 68.9511 128.56 68.9721 128.469 68.9658ZM134.746 68.7958C134.589 68.7677 134.45 68.6789 134.357 68.5486C134.265 68.4184 134.228 68.2571 134.253 68.0995C134.26 67.9532 134.31 67.8122 134.396 67.6937C134.327 67.6658 134.255 67.6492 134.182 67.6444C133.928 67.6945 133.699 67.8279 133.531 68.0233C133.362 68.2187 133.263 68.4649 133.251 68.7228C133.238 68.9807 133.312 69.2353 133.461 69.4463C133.61 69.6572 133.825 69.8123 134.072 69.8869C134.205 69.8765 134.335 69.8399 134.455 69.7791C134.574 69.7182 134.68 69.6345 134.766 69.5325C134.853 69.4306 134.919 69.3126 134.959 69.1852C135 69.0578 135.015 68.9236 135.004 68.7903C135.007 68.7575 135.007 68.7245 135.004 68.6916C134.933 68.7552 134.842 68.792 134.746 68.7958Z" fill="#53443D"/>
<path d="M128.594 85.1295L130.689 85.6997L130.003 82.9912L128.594 85.1295Z" fill="#DBDBDB"/>
<path d="M137.74 83.96L124.312 84.3328C124.312 84.3328 116.91 86.5259 116.576 86.6904C116.389 86.7946 116.373 91.3125 116.417 95.6549C120.616 98.6045 125.611 100.21 130.742 100.259C135.873 100.308 140.898 98.798 145.152 95.929C145.224 91.6305 145.279 87.0468 145.202 86.7069C145.054 86.0873 137.74 83.96 137.74 83.96Z" fill="#DBDBDB"/>
<path d="M131.117 96.8502C134.264 96.8502 137.745 83.96 137.745 83.96L124.318 84.3328C124.318 84.3328 127.958 96.8502 131.117 96.8502Z" fill="#DBDBDB"/>
<path d="M124.312 84.3332L128.594 86.6909L130.003 82.9899L126.006 81.5918L124.312 84.3332Z" fill="#F4F4F4"/>
<path d="M131.61 85.6997L134.527 84.8225L131.945 82.9912L131.61 85.6997Z" fill="#DBDBDB"/>
<path d="M131.944 82.9899L133.83 86.6634L137.739 83.9603L135.815 81.6904L131.944 82.9899Z" fill="#F4F4F4"/>
<path d="M130.272 86.0221C130.272 86.0221 128.759 93.1005 127.388 100.003C129.828 100.361 132.307 100.361 134.746 100.003C133.589 93.2376 132.334 86.2305 132.23 86.1099C132.043 85.8467 130.272 86.0221 130.272 86.0221Z" fill="#FFDA90"/>
<path d="M129.236 84.4047C128.578 84.772 129.609 87.8095 131.276 87.8095C132.942 87.8095 133.436 84.772 133.069 84.4047C132.701 84.0373 130.952 83.4506 129.236 84.4047Z" fill="#FFDA90"/>
<path d="M131.737 74.8708C131.675 74.8491 131.607 74.8491 131.545 74.8708C131.144 75.0353 130.695 75.0353 130.295 74.8708C130.227 74.8287 130.147 74.8111 130.068 74.8211C129.99 74.8311 129.916 74.868 129.862 74.9256C129.836 74.9576 129.817 74.9945 129.807 75.0339C129.796 75.0734 129.793 75.1146 129.799 75.1551C129.804 75.1957 129.818 75.2346 129.839 75.2696C129.861 75.3046 129.889 75.335 129.922 75.3588C130.203 75.5172 130.519 75.6049 130.842 75.6144C131.165 75.624 131.485 75.5551 131.775 75.4136C131.835 75.3892 131.885 75.3467 131.919 75.2921C131.953 75.2374 131.969 75.1735 131.965 75.1092C131.961 75.0449 131.937 74.9836 131.896 74.9339C131.855 74.8843 131.799 74.8487 131.737 74.8324V74.8708Z" fill="#E88358"/>
<path d="M112.59 92.3497C114.323 94.1758 116.316 95.7352 118.506 96.9772L116.582 86.6914C114.301 86.6914 113.248 89.2519 112.59 92.3497ZM144.824 86.6914L142.834 97.3282C145.074 96.1465 147.124 94.6346 148.914 92.8432C148.24 89.5535 147.198 86.6914 144.824 86.6914Z" fill="#DBDBDB"/>
<path d="M138.666 68.7907C138.544 68.7632 138.418 68.7602 138.295 68.7818C138.172 68.8033 138.054 68.8491 137.948 68.9163C137.843 68.9836 137.752 69.0711 137.68 69.1737C137.609 69.2764 137.558 69.3922 137.532 69.5144L136.983 72.0201C136.948 72.2604 137.005 72.5052 137.143 72.7052C137.28 72.9052 137.489 73.0454 137.726 73.0975C137.964 73.1497 138.212 73.11 138.421 72.9863C138.63 72.8627 138.784 72.6643 138.853 72.4313L139.401 69.9202C139.452 69.6731 139.403 69.4161 139.265 69.2048C139.128 68.9934 138.913 68.8447 138.666 68.7907Z" fill="#53443D"/>
<path d="M132.91 76.2079V75.6596C133.096 75.6596 136.89 75.6102 137.724 71.7832L138.272 71.9038C137.362 76.1695 132.981 76.2079 132.91 76.2079Z" fill="#53443D"/>
<path d="M133.096 75.0792C132.93 75.0431 132.757 75.057 132.598 75.1193C132.44 75.1816 132.303 75.2894 132.206 75.4292C132.109 75.569 132.056 75.7344 132.053 75.9046C132.05 76.0748 132.097 76.242 132.189 76.3853C132.281 76.5285 132.413 76.6413 132.569 76.7094C132.725 76.7774 132.898 76.7977 133.065 76.7677C133.233 76.7376 133.388 76.6586 133.51 76.5406C133.633 76.4225 133.718 76.2708 133.754 76.1045C133.802 75.8814 133.759 75.6486 133.636 75.4567C133.513 75.2647 133.319 75.1291 133.096 75.0792Z" fill="#53443D"/>
<path d="M150.306 61.3537L151.134 61.1234C151.106 60.8504 151.053 60.5806 150.975 60.3174C150.978 60.2809 150.978 60.2442 150.975 60.2077L150.125 60.3064C150.017 59.9913 149.87 59.6911 149.686 59.4127L150.284 58.8041C150.102 58.5513 149.896 58.3164 149.67 58.1023L148.985 58.6122C148.859 58.5043 148.727 58.4037 148.59 58.3107C148.451 58.2173 148.306 58.133 148.157 58.0585L148.371 57.2306C148.089 57.1016 147.795 57.0006 147.493 56.929L147.153 57.713C146.827 57.6475 146.493 57.6254 146.161 57.6472L145.92 56.8193C145.61 56.8521 145.303 56.9127 145.004 57.0003L145.103 57.8501C144.788 57.9583 144.487 58.1057 144.209 58.2887L143.601 57.6911C143.347 57.8718 143.112 58.0775 142.899 58.3052L143.409 58.9851C143.299 59.1114 143.198 59.2451 143.107 59.3853C143.011 59.5221 142.926 59.667 142.855 59.8185L142.027 59.6046C141.898 59.8865 141.797 60.1803 141.725 60.4819L142.509 60.8218C142.444 61.1483 142.422 61.482 142.444 61.8142L141.616 62.0445C141.616 62.1706 141.649 62.2912 141.671 62.4119C141.702 62.5969 141.744 62.7799 141.797 62.9601L142.647 62.856C142.751 63.1742 142.899 63.4767 143.085 63.7552L142.487 64.3638C142.666 64.6175 142.87 64.8527 143.096 65.0656L143.781 64.5556C143.909 64.6635 144.043 64.7642 144.182 64.8572C144.319 64.9505 144.461 65.0348 144.609 65.1094L144.396 65.9373C144.68 66.0655 144.975 66.1665 145.278 66.2389L145.618 65.4548C145.945 65.5203 146.278 65.5425 146.611 65.5206L146.841 66.3431C147.149 66.3153 147.454 66.2566 147.751 66.1676L147.652 65.3178C147.97 65.2107 148.272 65.0633 148.552 64.8791L149.16 65.4768C149.414 65.2963 149.649 65.0905 149.862 64.8627L149.352 64.1773C149.461 64.0526 149.562 63.9207 149.654 63.7826C149.747 63.6438 149.831 63.4991 149.906 63.3494L150.734 63.5633C150.863 63.2817 150.964 62.9878 151.035 62.686L150.251 62.3461C150.313 62.0191 150.332 61.6854 150.306 61.3537ZM148.661 63.1411C148.311 63.6635 147.795 64.0527 147.197 64.2458C146.599 64.439 145.953 64.4248 145.363 64.2056C144.774 63.9864 144.276 63.5749 143.949 63.0377C143.622 62.5005 143.486 61.8688 143.563 61.2447C143.639 60.6205 143.924 60.0404 144.37 59.5979C144.817 59.1555 145.4 58.8765 146.025 58.8061C146.65 58.7357 147.28 58.8779 147.814 59.2098C148.348 59.5417 148.755 60.044 148.968 60.6354C149.118 61.0478 149.168 61.4896 149.114 61.9249C149.061 62.3603 148.906 62.7769 148.661 63.1411Z" fill="#FFDA90"/>
<path d="M245.412 127.11C246.028 126.113 246.375 124.973 246.42 123.803C246.464 122.632 246.205 121.469 245.668 120.428C245.13 119.387 244.332 118.503 243.351 117.862C242.371 117.22 241.241 116.844 240.072 116.769C240.667 115.475 240.841 114.027 240.57 112.628C240.299 111.23 239.596 109.952 238.559 108.975C237.523 107.997 236.207 107.37 234.795 107.18C233.383 106.991 231.947 107.25 230.69 107.92C230.644 106.816 230.328 105.741 229.769 104.789C229.312 104.018 228.707 103.345 227.989 102.808C227.271 102.271 226.454 101.881 225.586 101.66C224.717 101.439 223.813 101.392 222.926 101.52C222.039 101.649 221.186 101.951 220.415 102.409C219.779 101.33 218.856 100.447 217.749 99.8593C216.643 99.2712 215.395 99.0006 214.144 99.0772C212.893 99.1537 211.688 99.5746 210.661 100.293C209.634 101.012 208.826 102 208.326 103.149C206.781 103.018 205.238 103.423 203.957 104.297C202.677 105.171 201.737 106.46 201.297 107.947C200.114 107.702 198.888 107.777 197.744 108.163C196.6 108.55 195.58 109.235 194.788 110.147C193.997 111.059 193.463 112.165 193.241 113.353C193.02 114.54 193.118 115.764 193.528 116.9C193.254 117.007 192.989 117.131 192.733 117.273C191.636 117.918 190.742 118.858 190.154 119.986C189.565 121.114 189.305 122.385 189.404 123.653C189.503 124.921 189.957 126.137 190.713 127.16C191.469 128.183 192.497 128.973 193.681 129.44C193.558 130.449 193.665 131.472 193.992 132.435C194.32 133.397 194.86 134.273 195.573 134.997C196.286 135.722 197.153 136.276 198.11 136.619C199.067 136.962 200.089 137.085 201.099 136.979C201.119 138.055 201.395 139.111 201.906 140.059C202.416 141.007 203.145 141.82 204.033 142.429C204.92 143.038 205.941 143.427 207.009 143.562C208.077 143.698 209.162 143.576 210.173 143.207C210.161 144.431 210.484 145.635 211.106 146.689C212.032 148.244 213.537 149.367 215.291 149.812C217.045 150.257 218.904 149.988 220.459 149.063C220.715 148.897 220.958 148.714 221.189 148.515C221.218 150.261 221.92 151.929 223.146 153.173C224.373 154.417 226.032 155.14 227.778 155.194C229.524 155.247 231.223 154.627 232.524 153.461C233.825 152.295 234.627 150.673 234.764 148.931C236.021 149.215 237.332 149.136 238.545 148.702C239.758 148.267 240.822 147.497 241.613 146.48C242.404 145.463 242.889 144.241 243.011 142.959C243.133 141.676 242.888 140.386 242.303 139.238C243.409 139.072 244.458 138.637 245.356 137.969C246.254 137.302 246.974 136.424 247.452 135.413C247.93 134.402 248.151 133.288 248.097 132.171C248.042 131.053 247.713 129.967 247.139 129.007C246.689 128.27 246.103 127.626 245.412 127.11Z" fill="#F4F4F4"/>
<path d="M184.618 157.326C165.012 166.274 162.402 174.789 166.24 177.097C172.211 180.689 198.347 178.347 202.366 166.104C205.524 156.487 191.592 154.141 184.618 157.326Z" fill="#FFDA90"/>
<path d="M195.266 160.073C183.204 172.881 176.23 179.899 176.444 184.131C176.657 188.364 177.968 191.945 183.39 196.506C183.39 196.506 173.784 211.814 174.897 229.787C175.753 229.919 176.608 230.05 177.458 230.193C208.71 235.435 233.931 233.033 253.121 225.489C241.448 204.489 248.499 167.919 244.722 163.242C235.077 151.366 195.266 160.073 195.266 160.073Z" fill="#FFDA90"/>
<path d="M227.473 173.874C228.367 189.544 233.63 210.609 236.69 212.484C242.173 215.872 251.45 209.573 251.34 205.099C250.994 201.606 253.632 172.569 244.76 163.242C237.753 155.917 226.793 162.036 227.473 173.874ZM187.108 142.539C174.887 150.67 165.572 159.24 162.742 171.121C161.394 176.785 171.46 182.257 181.433 173.314C187.541 167.327 192.246 158.725 195.141 147.879C195.782 145.407 187.547 142.249 187.108 142.539Z" fill="#F7986F"/>
<path d="M234.063 157.54C229.216 155.078 226.436 155.994 226.436 155.994L207.964 160.073C206.133 164.558 207.515 167.749 212.724 167.612C217.932 167.475 237.161 159.108 234.063 157.54Z" fill="#FFEBE2"/>
<path d="M193.396 155.83C191.982 156.181 195.814 162.173 200.88 165.282C202.799 166.467 206.062 165.068 207.964 160.074C207.964 160.074 201.144 155.687 200.403 155.435C199.663 155.183 194.816 155.479 193.396 155.83Z" fill="#FFEBE2"/>
<path d="M202.432 185.201C202.355 184.88 202.176 184.593 201.922 184.383C201.668 184.172 201.352 184.049 201.023 184.033L183.67 183.967C183.526 183.96 183.382 183.987 183.25 184.047C183.118 184.106 183.003 184.196 182.912 184.309C182.822 184.422 182.761 184.555 182.732 184.697C182.704 184.838 182.709 184.985 182.749 185.124L184.849 195.168C184.924 195.489 185.102 195.776 185.355 195.987C185.609 196.197 185.923 196.32 186.252 196.336L203.606 196.402C203.75 196.409 203.894 196.382 204.026 196.323C204.157 196.263 204.273 196.173 204.363 196.06C204.453 195.947 204.515 195.814 204.543 195.672C204.572 195.531 204.566 195.384 204.527 195.245L202.432 185.201Z" fill="#FE7338"/>
<path d="M201.955 192.999C201.802 192.992 201.65 193.021 201.511 193.084C201.372 193.147 201.25 193.242 201.154 193.361C201.059 193.48 200.994 193.621 200.963 193.77C200.933 193.92 200.938 194.075 200.979 194.222C201.058 194.562 201.246 194.867 201.514 195.09C201.783 195.314 202.116 195.444 202.465 195.461C202.618 195.467 202.77 195.438 202.909 195.374C203.048 195.31 203.17 195.215 203.265 195.095C203.36 194.975 203.426 194.835 203.456 194.685C203.487 194.535 203.482 194.38 203.441 194.233C203.362 193.893 203.174 193.588 202.906 193.366C202.637 193.143 202.303 193.014 201.955 192.999Z" fill="#FA7238"/>
<g style="mix-blend-mode:screen">
<path d="M200.283 192.992C200.13 192.985 199.978 193.014 199.839 193.077C199.7 193.14 199.578 193.235 199.483 193.354C199.387 193.474 199.322 193.614 199.291 193.763C199.261 193.913 199.266 194.068 199.307 194.215C199.387 194.555 199.576 194.86 199.845 195.083C200.115 195.305 200.449 195.434 200.798 195.449C200.951 195.456 201.103 195.427 201.242 195.365C201.381 195.302 201.503 195.206 201.598 195.087C201.693 194.967 201.758 194.827 201.788 194.677C201.817 194.527 201.811 194.373 201.769 194.226C201.691 193.886 201.503 193.581 201.235 193.358C200.966 193.135 200.632 193.006 200.283 192.992Z" fill="#FFF9F7"/>
</g>
<path d="M195.031 192.215L185.397 192.171C185.382 192.17 185.367 192.173 185.354 192.179C185.34 192.186 185.328 192.195 185.319 192.207C185.31 192.219 185.304 192.233 185.301 192.247C185.299 192.262 185.3 192.277 185.304 192.291L185.414 192.812C185.421 192.845 185.439 192.875 185.464 192.897C185.49 192.919 185.522 192.931 185.556 192.933L195.201 192.971C195.22 192.965 195.237 192.953 195.249 192.936C195.261 192.919 195.267 192.899 195.266 192.878L195.157 192.357C195.156 192.322 195.143 192.289 195.12 192.263C195.096 192.237 195.065 192.22 195.031 192.215ZM191.84 185.076L183.9 185.043C183.885 185.042 183.871 185.045 183.857 185.052C183.843 185.058 183.832 185.067 183.822 185.079C183.813 185.091 183.807 185.105 183.804 185.12C183.802 185.134 183.803 185.149 183.807 185.164L184.059 186.386C184.067 186.419 184.085 186.448 184.111 186.47C184.137 186.491 184.168 186.504 184.202 186.507L192.147 186.54C192.161 186.541 192.176 186.538 192.19 186.531C192.203 186.525 192.215 186.516 192.224 186.504C192.234 186.492 192.24 186.478 192.242 186.463C192.245 186.449 192.244 186.434 192.24 186.419L191.977 185.202C191.971 185.169 191.954 185.139 191.929 185.116C191.905 185.093 191.873 185.079 191.84 185.076ZM188.298 193.295H185.616C185.602 193.294 185.587 193.297 185.573 193.303C185.56 193.31 185.548 193.319 185.539 193.331C185.529 193.343 185.523 193.357 185.521 193.371C185.518 193.386 185.519 193.401 185.523 193.415L185.633 193.964C185.64 193.997 185.658 194.026 185.684 194.048C185.71 194.07 185.742 194.083 185.775 194.084H188.457C188.472 194.085 188.486 194.082 188.5 194.076C188.514 194.069 188.525 194.06 188.534 194.048C188.544 194.036 188.55 194.022 188.552 194.008C188.555 193.993 188.554 193.978 188.55 193.964L188.44 193.443C188.439 193.405 188.424 193.369 188.397 193.341C188.371 193.314 188.335 193.297 188.298 193.295ZM193.254 194.43L185.847 194.397C185.832 194.396 185.817 194.399 185.803 194.405C185.79 194.412 185.778 194.421 185.769 194.433C185.76 194.445 185.754 194.459 185.751 194.473C185.748 194.488 185.749 194.503 185.754 194.517L185.863 195.038C185.871 195.07 185.89 195.099 185.915 195.119C185.941 195.14 185.973 195.152 186.006 195.153L193.413 195.186C193.428 195.186 193.442 195.182 193.455 195.176C193.468 195.169 193.479 195.16 193.488 195.148C193.497 195.137 193.503 195.123 193.506 195.109C193.51 195.095 193.51 195.08 193.506 195.066L193.397 194.545C193.388 194.513 193.37 194.484 193.344 194.464C193.319 194.443 193.287 194.431 193.254 194.43Z" fill="#7F7D7C"/>
<g style="mix-blend-mode:screen">
<path d="M188.928 187.992C188.89 187.828 188.799 187.682 188.669 187.575C188.539 187.468 188.378 187.406 188.21 187.4H185.277C185.203 187.396 185.129 187.41 185.062 187.441C184.994 187.471 184.935 187.517 184.889 187.575C184.843 187.633 184.811 187.701 184.797 187.774C184.782 187.846 184.785 187.921 184.805 187.992L185.353 190.624C185.39 190.788 185.48 190.935 185.609 191.043C185.738 191.151 185.898 191.214 186.066 191.222H189C189.073 191.225 189.147 191.211 189.214 191.181C189.282 191.15 189.341 191.104 189.387 191.046C189.433 190.989 189.465 190.921 189.479 190.848C189.494 190.775 189.491 190.701 189.471 190.629L188.928 187.992Z" fill="#FFF9F7"/>
</g>
<path d="M186.565 191.216L185.77 187.394L185.858 187.378L186.653 191.199L186.565 191.216Z" fill="#858585"/>
<path d="M188.423 191.221L187.628 187.405L187.716 187.383L188.511 191.204L188.423 191.221Z" fill="#858585"/>
<path d="M187.508 188.842H186.565V188.749L187.508 188.755V188.842Z" fill="#858585"/>
<path d="M187.716 189.852L186.773 189.847V189.759H187.716V189.852Z" fill="#858585"/>
<path d="M186.581 188.88C186.548 188.74 186.47 188.614 186.359 188.522C186.249 188.43 186.111 188.377 185.967 188.37H184.871L185.26 190.229H186.356C186.42 190.233 186.483 190.222 186.542 190.197C186.6 190.171 186.651 190.132 186.691 190.082C186.731 190.033 186.758 189.974 186.77 189.912C186.783 189.85 186.78 189.785 186.762 189.724L186.581 188.88ZM187.93 188.376C187.866 188.372 187.803 188.384 187.745 188.41C187.687 188.437 187.636 188.476 187.596 188.526C187.556 188.576 187.529 188.635 187.517 188.697C187.504 188.76 187.507 188.824 187.524 188.886L187.7 189.719C187.732 189.86 187.809 189.987 187.92 190.08C188.031 190.173 188.169 190.227 188.314 190.234H189.41L189.021 188.376H187.93Z" fill="#D5D3D2"/>
<path d="M186.357 190.274H185.26V190.18H186.357C186.411 190.182 186.466 190.172 186.516 190.15C186.566 190.128 186.611 190.096 186.647 190.054C186.682 190.008 186.705 189.954 186.717 189.897C186.728 189.84 186.727 189.782 186.713 189.725L186.537 188.886C186.507 188.76 186.438 188.647 186.339 188.562C186.241 188.478 186.118 188.426 185.989 188.415H184.893V188.327H185.989C186.143 188.335 186.291 188.393 186.41 188.491C186.528 188.59 186.612 188.725 186.647 188.875L186.823 189.714C186.84 189.783 186.841 189.855 186.826 189.925C186.81 189.994 186.779 190.059 186.735 190.115C186.689 190.17 186.631 190.213 186.565 190.24C186.499 190.268 186.428 190.279 186.357 190.274ZM189.394 190.285H188.297C188.143 190.278 187.995 190.22 187.876 190.121C187.757 190.022 187.674 189.887 187.639 189.736L187.464 188.897C187.451 188.825 187.456 188.75 187.478 188.679C187.5 188.609 187.538 188.544 187.59 188.492C187.633 188.439 187.688 188.398 187.75 188.37C187.812 188.343 187.879 188.33 187.947 188.333H189.043V188.42H187.947C187.891 188.419 187.837 188.431 187.786 188.453C187.736 188.476 187.692 188.51 187.656 188.552C187.621 188.597 187.597 188.65 187.586 188.706C187.575 188.762 187.576 188.82 187.59 188.875L187.766 189.714C187.797 189.841 187.866 189.954 187.964 190.04C188.062 190.125 188.184 190.178 188.314 190.191H189.41L189.394 190.285Z" fill="#858585"/>
<path d="M186.669 189.347L185.084 189.336V189.248L186.669 189.254V189.347Z" fill="#858585"/>
<path d="M189.202 189.352L187.612 189.347V189.259L189.202 189.264V189.352Z" fill="#858585"/>
<path d="M189.004 191.26H186.071C185.893 191.251 185.722 191.185 185.585 191.071C185.448 190.957 185.351 190.802 185.308 190.629L184.76 187.998C184.741 187.918 184.74 187.836 184.758 187.756C184.775 187.676 184.809 187.602 184.859 187.537C184.911 187.478 184.975 187.431 185.047 187.398C185.119 187.366 185.197 187.35 185.276 187.351H188.209C188.387 187.361 188.558 187.428 188.695 187.543C188.832 187.657 188.929 187.813 188.971 187.987L189.519 190.618C189.537 190.697 189.538 190.778 189.521 190.857C189.504 190.936 189.469 191.009 189.421 191.073C189.369 191.133 189.304 191.18 189.233 191.212C189.161 191.244 189.083 191.261 189.004 191.26ZM185.276 187.422C185.211 187.419 185.146 187.431 185.086 187.456C185.026 187.482 184.973 187.521 184.93 187.57C184.889 187.624 184.861 187.686 184.847 187.753C184.832 187.819 184.833 187.888 184.848 187.954L185.396 190.585C185.436 190.737 185.522 190.871 185.644 190.97C185.765 191.069 185.914 191.126 186.071 191.134H189.004C189.069 191.136 189.134 191.123 189.194 191.096C189.254 191.07 189.307 191.03 189.349 190.98C189.39 190.926 189.419 190.864 189.433 190.798C189.448 190.731 189.447 190.663 189.432 190.596L188.883 187.965C188.845 187.813 188.758 187.678 188.637 187.579C188.515 187.48 188.365 187.423 188.209 187.416H185.276V187.422Z" fill="#858585"/>
<path d="M203.035 188.097L203.474 190.18C200.93 189.632 196.938 189.528 194.652 190.405C192.75 191.134 194.246 195 195.645 196.239C199.367 199.528 202.18 200.005 204.686 199.868C208.639 199.66 212.214 197.127 211.199 194.227C210.525 192.329 204.763 188.387 203.035 188.097Z" fill="#FFC1AA"/>
<path d="M237.627 194.999C229.951 191.227 221.326 189.697 210.141 190.58C207.581 190.783 207.339 199.6 207.756 199.901C219.484 208.734 229.605 214.623 241.75 213.351C247.54 212.753 249.366 201.442 237.627 194.999Z" fill="#F7986F"/>
<path d="M197.541 143.631C197.541 143.631 192.607 130.335 191.548 131.744C188.226 136.235 186.296 144.146 186.822 145.232C188.144 147.973 196.543 147.464 198.758 147.135C200.974 146.806 200.672 146.636 201.242 145.698C201.812 144.761 197.541 143.631 197.541 143.631Z" fill="#FFC1AA"/>
<path d="M202.942 132.692L196.735 129.37C195.863 128.97 194.542 129.715 194.158 130.587L187.261 146.005C187.069 146.424 187.051 146.903 187.211 147.336C187.372 147.768 187.697 148.12 188.116 148.313L194.591 151.279C195.469 151.68 196.911 151.279 197.333 150.375L203.819 135.023C203.917 134.812 203.971 134.585 203.98 134.353C203.989 134.121 203.951 133.89 203.87 133.673C203.788 133.456 203.664 133.258 203.504 133.089C203.345 132.921 203.154 132.786 202.942 132.692Z" fill="#C84A01"/>
<path d="M203.54 132.303L197.064 129.337C196.644 129.145 196.165 129.128 195.732 129.29C195.299 129.451 194.948 129.777 194.756 130.197L187.859 145.615C187.667 146.035 187.649 146.513 187.809 146.946C187.97 147.379 188.295 147.73 188.714 147.924L195.189 150.89C195.609 151.081 196.089 151.098 196.521 150.937C196.954 150.775 197.305 150.449 197.497 150.029L204.4 134.611C204.592 134.191 204.609 133.712 204.447 133.279C204.286 132.846 203.96 132.495 203.54 132.303Z" fill="#BF8C76"/>
<path d="M191.91 131.25C190.391 132.714 189.585 140.752 189.585 140.752C192.387 137.111 197.541 135.121 196.318 131.979C195.096 128.838 193.423 129.792 191.91 131.25Z" fill="#FFC1AA"/>
<path d="M221.628 141.416C221.792 138.773 205.502 144.848 205.502 144.848C205.502 144.848 205.119 153.961 200.403 155.436C200.403 155.436 199.236 160.233 208.732 161.385C218.321 162.541 226.436 155.995 226.436 155.995C226.436 155.995 220.8 154.717 221.628 141.416Z" fill="#E88358"/>
<path d="M212.356 120.504C203.874 120.504 197.728 127.697 197.728 136.58C197.728 145.462 202.893 152.617 211.375 152.617C219.857 152.617 227.714 145.456 227.714 136.58C227.714 127.703 220.838 120.504 212.356 120.504Z" fill="#FFC1AA"/>
<path d="M207.504 141.833C205.009 139.815 205.311 145.857 207.126 146.082C209.094 146.318 208.973 143.022 207.504 141.833Z" fill="#D16638"/>
<path d="M212.909 128.246C212.858 128.253 212.808 128.271 212.763 128.297C212.719 128.324 212.68 128.359 212.648 128.401C212.617 128.443 212.595 128.49 212.582 128.541C212.57 128.591 212.567 128.644 212.575 128.695C212.581 128.747 212.599 128.797 212.625 128.842C212.651 128.888 212.687 128.927 212.729 128.958C212.771 128.989 212.818 129.012 212.869 129.024C212.92 129.036 212.973 129.038 213.024 129.03C215.064 128.734 216.862 130.406 216.862 130.428C216.921 130.481 216.993 130.517 217.071 130.532C217.135 130.541 217.201 130.535 217.263 130.514C217.325 130.493 217.381 130.458 217.427 130.412C217.496 130.337 217.534 130.239 217.534 130.137C217.534 130.036 217.496 129.938 217.427 129.863C217.339 129.77 215.327 127.895 212.909 128.246ZM204.4 128.262C204.285 128.262 201.56 127.824 199.761 129.469C199.684 129.541 199.638 129.642 199.634 129.748C199.631 129.855 199.669 129.958 199.742 130.036C199.815 130.114 199.916 130.16 200.022 130.163C200.128 130.167 200.232 130.128 200.31 130.055C201.828 128.668 204.257 129.041 204.279 129.046C204.358 129.061 204.438 129.049 204.51 129.013C204.57 128.988 204.624 128.948 204.664 128.896C204.704 128.844 204.73 128.782 204.74 128.717C204.748 128.665 204.745 128.612 204.732 128.561C204.719 128.51 204.696 128.461 204.665 128.419C204.633 128.377 204.593 128.341 204.548 128.314C204.502 128.287 204.452 128.27 204.4 128.262ZM202.75 134.677C202.499 134.617 202.281 134.463 202.141 134.246C202.002 134.03 201.95 133.768 201.998 133.515C202.007 133.38 202.036 133.246 202.086 133.12C201.737 133.218 201.43 133.429 201.213 133.719C200.995 134.01 200.88 134.364 200.885 134.727C200.82 135.681 201.346 136.498 202.064 136.552C202.782 136.607 203.413 135.883 203.479 134.908C203.493 134.696 203.476 134.484 203.429 134.277C203.363 134.399 203.265 134.501 203.145 134.572C203.025 134.642 202.889 134.679 202.75 134.677ZM213.962 134.677C213.712 134.617 213.494 134.463 213.354 134.246C213.214 134.03 213.163 133.768 213.211 133.515C213.222 133.38 213.251 133.247 213.299 133.12C212.949 133.218 212.642 133.429 212.425 133.719C212.208 134.01 212.093 134.364 212.098 134.727C212.032 135.681 212.558 136.498 213.277 136.552C213.995 136.607 214.625 135.883 214.691 134.908C214.708 134.696 214.692 134.483 214.642 134.277C214.576 134.399 214.478 134.501 214.358 134.572C214.238 134.642 214.101 134.679 213.962 134.677Z" fill="#C84A01"/>
<path d="M212.592 140.006C211.621 140.006 210.673 139.718 209.866 139.179C209.059 138.64 208.43 137.873 208.058 136.976C207.687 136.08 207.59 135.093 207.779 134.141C207.968 133.189 208.436 132.315 209.122 131.629C209.808 130.942 210.683 130.475 211.634 130.286C212.586 130.096 213.573 130.194 214.47 130.565C215.366 130.936 216.133 131.565 216.672 132.372C217.211 133.179 217.499 134.128 217.499 135.099C217.492 136.398 216.972 137.642 216.054 138.561C215.135 139.479 213.891 139.999 212.592 140.006ZM212.592 130.745C211.731 130.745 210.889 131.001 210.173 131.479C209.457 131.957 208.899 132.637 208.57 133.433C208.24 134.228 208.154 135.103 208.322 135.948C208.49 136.792 208.905 137.568 209.513 138.177C210.122 138.786 210.898 139.2 211.743 139.368C212.587 139.536 213.462 139.45 214.258 139.121C215.053 138.791 215.733 138.233 216.212 137.517C216.69 136.801 216.945 135.96 216.945 135.099C216.944 133.944 216.485 132.838 215.669 132.022C214.852 131.206 213.746 130.747 212.592 130.745ZM200.88 140.006C199.91 140.007 198.96 139.72 198.153 139.181C197.345 138.643 196.715 137.877 196.343 136.98C195.971 136.084 195.873 135.097 196.061 134.145C196.25 133.192 196.717 132.317 197.403 131.631C198.089 130.944 198.964 130.476 199.916 130.286C200.868 130.096 201.855 130.193 202.752 130.564C203.649 130.936 204.415 131.565 204.955 132.372C205.494 133.179 205.782 134.128 205.782 135.099C205.775 136.397 205.256 137.64 204.339 138.559C203.421 139.477 202.179 139.997 200.88 140.006ZM200.88 130.745C200.019 130.745 199.178 131.001 198.462 131.479C197.746 131.957 197.188 132.637 196.858 133.433C196.529 134.228 196.443 135.103 196.611 135.948C196.779 136.792 197.193 137.568 197.802 138.177C198.411 138.786 199.187 139.2 200.031 139.368C200.876 139.536 201.751 139.45 202.546 139.121C203.342 138.791 204.022 138.233 204.5 137.517C204.978 136.801 205.234 135.96 205.234 135.099C205.232 133.944 204.773 132.838 203.957 132.022C203.141 131.206 202.035 130.747 200.88 130.745Z" fill="#C84A01"/>
<path d="M208.239 135.1H207.69C207.69 135.007 207.666 134.917 207.62 134.836C207.575 134.756 207.511 134.688 207.433 134.639C207.231 134.513 206.996 134.451 206.758 134.458C206.369 134.458 205.782 134.628 205.782 135.1H205.234C205.234 133.937 206.945 133.647 207.745 134.184C207.897 134.284 208.021 134.42 208.107 134.579C208.193 134.739 208.239 134.918 208.239 135.1ZM218.195 135.39H216.77C216.624 135.39 216.485 135.332 216.382 135.23C216.279 135.127 216.222 134.987 216.222 134.842C216.222 134.696 216.279 134.557 216.382 134.454C216.485 134.351 216.624 134.294 216.77 134.294H218.195C218.341 134.294 218.48 134.351 218.583 134.454C218.686 134.557 218.744 134.696 218.744 134.842C218.744 134.987 218.686 135.127 218.583 135.23C218.48 135.332 218.341 135.39 218.195 135.39ZM197.24 135.39H195.814C195.669 135.39 195.53 135.332 195.427 135.23C195.324 135.127 195.266 134.987 195.266 134.842C195.266 134.696 195.324 134.557 195.427 134.454C195.53 134.351 195.669 134.294 195.814 134.294H197.24C197.385 134.294 197.525 134.351 197.628 134.454C197.73 134.557 197.788 134.696 197.788 134.842C197.788 134.987 197.73 135.127 197.628 135.23C197.525 135.332 197.385 135.39 197.24 135.39Z" fill="#C84A01"/>
<path d="M218.196 135.109C218.123 135.117 218.05 135.095 217.994 135.049C217.937 135.002 217.901 134.935 217.894 134.863C217.887 134.79 217.909 134.717 217.955 134.661C218.001 134.604 218.068 134.568 218.141 134.561L227.281 132.713C227.353 132.699 227.429 132.714 227.491 132.755C227.552 132.796 227.595 132.86 227.61 132.933C227.624 133.005 227.609 133.081 227.568 133.143C227.527 133.204 227.463 133.247 227.39 133.262L218.25 135.109H218.196Z" fill="#C84A01"/>
<path d="M201.588 122.791C201.199 122.79 200.819 122.904 200.495 123.12C200.172 123.335 199.919 123.641 199.77 124C199.621 124.359 199.581 124.754 199.657 125.135C199.732 125.517 199.919 125.867 200.194 126.142C200.469 126.417 200.819 126.604 201.201 126.679C201.582 126.755 201.977 126.716 202.336 126.566C202.695 126.417 203.001 126.165 203.217 125.841C203.432 125.517 203.546 125.137 203.545 124.748C203.545 124.229 203.339 123.731 202.972 123.364C202.605 122.997 202.107 122.791 201.588 122.791Z" fill="#F4F4F4"/>
<path d="M199.099 128.668C200.18 128.668 201.056 127.791 201.056 126.71C201.056 125.629 200.18 124.753 199.099 124.753C198.018 124.753 197.141 125.629 197.141 126.71C197.141 127.791 198.018 128.668 199.099 128.668Z" fill="#F4F4F4"/>
<path d="M204.735 119.276C204.162 119.275 203.602 119.444 203.125 119.762C202.648 120.079 202.276 120.531 202.056 121.06C201.836 121.589 201.778 122.171 201.889 122.733C202 123.295 202.276 123.811 202.68 124.216C203.085 124.622 203.601 124.898 204.162 125.01C204.724 125.122 205.306 125.065 205.836 124.846C206.365 124.627 206.818 124.256 207.136 123.78C207.454 123.304 207.624 122.744 207.624 122.171C207.625 121.791 207.551 121.415 207.406 121.064C207.261 120.713 207.048 120.394 206.78 120.125C206.511 119.856 206.193 119.642 205.842 119.497C205.491 119.351 205.115 119.276 204.735 119.276ZM216.287 118.438C215.716 118.438 215.157 118.607 214.682 118.924C214.207 119.242 213.836 119.693 213.618 120.221C213.399 120.749 213.342 121.33 213.453 121.891C213.565 122.451 213.84 122.966 214.244 123.37C214.648 123.774 215.163 124.049 215.723 124.161C216.284 124.272 216.865 124.215 217.393 123.996C217.921 123.778 218.372 123.407 218.69 122.932C219.007 122.457 219.177 121.898 219.177 121.327C219.177 120.561 218.872 119.826 218.33 119.284C217.788 118.742 217.053 118.437 216.287 118.438ZM224.484 127.084C223.912 127.084 223.354 127.253 222.879 127.571C222.403 127.888 222.033 128.34 221.814 128.868C221.596 129.396 221.538 129.977 221.65 130.537C221.761 131.098 222.037 131.613 222.441 132.017C222.845 132.421 223.36 132.696 223.92 132.807C224.481 132.919 225.062 132.862 225.59 132.643C226.118 132.424 226.569 132.054 226.886 131.579C227.204 131.104 227.373 130.545 227.373 129.973C227.373 129.207 227.069 128.472 226.527 127.93C225.985 127.388 225.25 127.084 224.484 127.084Z" fill="#F4F4F4"/>
<path d="M210.141 113.402C209.072 113.402 208.026 113.719 207.137 114.313C206.248 114.907 205.555 115.752 205.146 116.74C204.737 117.727 204.63 118.814 204.838 119.863C205.047 120.912 205.562 121.875 206.318 122.631C207.074 123.387 208.037 123.902 209.086 124.111C210.135 124.319 211.222 124.212 212.21 123.803C213.197 123.394 214.042 122.701 214.636 121.812C215.23 120.923 215.547 119.878 215.547 118.808C215.548 118.098 215.408 117.395 215.137 116.739C214.865 116.083 214.467 115.486 213.965 114.984C213.463 114.482 212.867 114.084 212.21 113.812C211.554 113.541 210.851 113.402 210.141 113.402ZM222.768 117.849C221.696 117.846 220.648 118.161 219.755 118.754C218.863 119.347 218.166 120.192 217.755 121.182C217.343 122.171 217.235 123.261 217.443 124.312C217.651 125.363 218.167 126.329 218.925 127.087C219.683 127.845 220.648 128.361 221.7 128.569C222.751 128.777 223.84 128.669 224.83 128.257C225.819 127.845 226.664 127.149 227.258 126.257C227.851 125.364 228.166 124.316 228.163 123.244C228.159 121.815 227.589 120.445 226.578 119.434C225.567 118.423 224.197 117.853 222.768 117.849Z" fill="#F4F4F4"/>
<path d="M232.187 139.194C234.298 137.083 234.298 133.66 232.187 131.548C230.075 129.437 226.652 129.437 224.541 131.548C222.43 133.66 222.43 137.083 224.541 139.194C226.652 141.305 230.075 141.305 232.187 139.194Z" fill="#F4F4F4"/>
<path d="M229.889 147.936C232.785 147.159 234.504 144.182 233.727 141.286C232.951 138.39 229.974 136.672 227.078 137.448C224.182 138.224 222.463 141.201 223.24 144.097C224.016 146.994 226.993 148.712 229.889 147.936Z" fill="#F4F4F4"/>
<path d="M290.52 81.6751C290.52 69.6676 273.759 59.9355 253.077 59.9355C242.693 59.9355 233.301 62.3864 226.518 66.356C219.736 70.3256 215.635 75.6768 215.635 81.6751C215.635 93.6771 232.401 103.409 253.077 103.409C256.351 103.342 259.619 103.087 262.864 102.647L261.06 116.798L276.012 101.951L285.985 92.0815C286.298 91.7471 286.599 91.4072 286.879 91.0617L286.912 91.0288C289.22 88.1558 290.52 85.0141 290.52 81.6751Z" fill="#FFF9F7"/>
<path d="M228.059 79.1571C227.854 78.7598 227.533 78.4346 227.138 78.225C226.657 77.9788 226.121 77.8598 225.581 77.8796H222.708V85.9613H223.92V83.1047H225.565C226.104 83.1228 226.639 83.006 227.122 82.7648C227.516 82.5506 227.839 82.2243 228.048 81.8272C228.251 81.4112 228.356 80.9547 228.356 80.4922C228.356 80.0296 228.251 79.5731 228.048 79.1571H228.059ZM226.963 81.3064C226.841 81.5413 226.649 81.7328 226.414 81.8547C226.115 82.0024 225.783 82.0721 225.449 82.0575H223.903V78.9268H225.433C225.77 78.9123 226.104 78.9801 226.409 79.1242C226.644 79.2454 226.836 79.4371 226.957 79.6725C227.075 79.9265 227.133 80.204 227.127 80.4839C227.139 80.7662 227.087 81.0475 226.974 81.3064H226.963ZM231.223 77.8796L228.322 85.9613H229.611L230.351 83.8285H233.498L234.233 85.9613H235.527L232.627 77.9015L231.223 77.8796ZM230.702 82.7867L231.892 79.3435H231.958L233.142 82.7867H230.702ZM241.525 82.1233C241.295 81.9483 241.042 81.8045 240.774 81.6957C240.515 81.5941 240.249 81.5099 239.979 81.4434L239.195 81.2351C239.028 81.1944 238.863 81.145 238.702 81.0871C238.535 81.0241 238.375 80.9452 238.225 80.8513C238.082 80.764 237.96 80.646 237.868 80.5059C237.774 80.357 237.726 80.1832 237.731 80.0069C237.729 79.788 237.798 79.5744 237.928 79.3983C238.069 79.2086 238.258 79.0608 238.477 78.9707C238.755 78.8645 239.052 78.8179 239.348 78.8336C239.753 78.8188 240.152 78.9258 240.494 79.1406C240.642 79.2365 240.766 79.3649 240.856 79.516C240.946 79.6671 241.001 79.837 241.015 80.0124H242.189C242.184 79.5988 242.052 79.1967 241.81 78.861C241.556 78.5161 241.216 78.2439 240.823 78.0715C240.367 77.8718 239.874 77.7727 239.376 77.7809C238.875 77.7738 238.378 77.8728 237.917 78.0715C237.511 78.2457 237.159 78.5259 236.898 78.8829C236.643 79.2351 236.511 79.6604 236.519 80.0947C236.506 80.3467 236.548 80.5986 236.643 80.8326C236.738 81.0666 236.883 81.277 237.068 81.4489C237.51 81.8221 238.034 82.0868 238.597 82.222L239.551 82.4852C239.817 82.5538 240.077 82.6417 240.33 82.7484C240.538 82.8325 240.726 82.9617 240.878 83.1267C241.014 83.291 241.085 83.5001 241.076 83.7133C241.079 83.9613 240.997 84.2029 240.845 84.3987C240.683 84.6058 240.47 84.7665 240.226 84.8647C239.934 84.9785 239.623 85.0343 239.31 85.0292C239.017 85.0314 238.726 84.9832 238.449 84.8867C238.201 84.8035 237.98 84.6559 237.808 84.459C237.637 84.2552 237.536 84.0011 237.523 83.7353H236.306C236.316 84.1852 236.459 84.6219 236.717 84.9909C236.979 85.355 237.338 85.6381 237.753 85.8078C238.249 86.0095 238.781 86.1066 239.316 86.0929C239.869 86.1099 240.419 86.0051 240.928 85.7859C241.339 85.609 241.692 85.3203 241.947 84.9525C242.184 84.5911 242.306 84.167 242.298 83.7353C242.308 83.4114 242.234 83.0906 242.084 82.8032C241.95 82.5381 241.759 82.3059 241.525 82.1233ZM248.653 82.1233C248.422 81.9483 248.17 81.8045 247.902 81.6957C247.645 81.5934 247.381 81.5091 247.112 81.4434L246.323 81.2351C246.156 81.1944 245.991 81.145 245.829 81.0871C245.663 81.0241 245.503 80.9452 245.352 80.8513C245.209 80.764 245.088 80.646 244.996 80.5059C244.901 80.357 244.854 80.1832 244.859 80.0069C244.857 79.788 244.926 79.5744 245.056 79.3983C245.199 79.211 245.388 79.0637 245.604 78.9707C245.882 78.8652 246.179 78.8185 246.476 78.8336C246.882 78.8194 247.283 78.9263 247.628 79.1406C247.774 79.2377 247.896 79.3665 247.985 79.5174C248.074 79.6684 248.128 79.8376 248.143 80.0124H249.316C249.312 79.5988 249.18 79.1967 248.938 78.861C248.684 78.5161 248.343 78.2439 247.951 78.0715C247.495 77.8706 247.002 77.7714 246.504 77.7809C246.004 77.7737 245.509 77.8728 245.051 78.0715C244.642 78.2439 244.287 78.5244 244.025 78.8829C243.771 79.2351 243.638 79.6604 243.647 80.0947C243.635 80.3466 243.678 80.5982 243.773 80.832C243.867 81.0658 244.011 81.2763 244.195 81.4489C244.64 81.8232 245.165 82.088 245.731 82.222L246.679 82.4852C246.945 82.5538 247.205 82.6417 247.458 82.7484C247.666 82.8325 247.853 82.9617 248.006 83.1267C248.144 83.2905 248.216 83.4994 248.209 83.7133C248.213 83.9624 248.129 84.2049 247.973 84.3987C247.811 84.6058 247.597 84.7665 247.353 84.8647C247.062 84.979 246.751 85.0349 246.438 85.0292C246.145 85.0314 245.854 84.9832 245.577 84.8867C245.329 84.8035 245.108 84.6559 244.936 84.459C244.764 84.2552 244.664 84.0011 244.65 83.7353H243.433C243.443 84.185 243.586 84.6216 243.844 84.9904C244.101 85.3592 244.462 85.6436 244.881 85.8078C245.376 86.0095 245.908 86.1066 246.443 86.0929C246.997 86.1099 247.547 86.0051 248.055 85.7859C248.467 85.609 248.82 85.3203 249.075 84.9525C249.311 84.5911 249.434 84.167 249.426 83.7353C249.435 83.4114 249.362 83.0906 249.212 82.8032C249.078 82.5381 248.887 82.3059 248.653 82.1233Z" fill="#87523C"/>
<path d="M257.842 83.774L257.749 84.1249H257.677L257.518 83.5163L256.043 77.8799H254.777L253.987 80.9064L253.143 84.1194H253.072L251.893 79.4425L251.498 77.8799H250.221L250.38 78.4556L252.458 85.9397H253.686L254.914 81.5644L255.38 79.9031H255.44L256.17 82.5019L257.14 85.9397H258.363L258.758 84.5032L260.6 77.8799H259.317L257.842 83.774Z" fill="#87523C"/>
<path d="M266.543 78.2857C265.975 77.959 265.332 77.7871 264.676 77.7871C264.021 77.7871 263.377 77.959 262.81 78.2857C262.254 78.6299 261.808 79.1241 261.521 79.7112C261.21 80.4083 261.05 81.163 261.05 81.9263C261.05 82.6895 261.21 83.4443 261.521 84.1414C261.806 84.7295 262.253 85.2241 262.81 85.5669C263.377 85.8935 264.021 86.0654 264.676 86.0654C265.332 86.0654 265.975 85.8935 266.543 85.5669C267.1 85.2241 267.547 84.7295 267.832 84.1414C268.143 83.4443 268.303 82.6895 268.303 81.9263C268.303 81.163 268.143 80.4083 267.832 79.7112C267.545 79.1241 267.099 78.6299 266.543 78.2857ZM266.785 83.5876C266.603 84.0054 266.301 84.3602 265.918 84.6074C265.545 84.8367 265.115 84.9581 264.676 84.9581C264.238 84.9581 263.808 84.8367 263.435 84.6074C263.055 84.3582 262.756 84.0038 262.574 83.5876C262.157 82.5306 262.157 81.3549 262.574 80.2979C262.757 79.8809 263.056 79.5251 263.435 79.2726C263.809 79.0468 264.239 78.9275 264.676 78.9275C265.114 78.9275 265.543 79.0468 265.918 79.2726C266.3 79.5234 266.601 79.8796 266.785 80.2979C267.201 81.3549 267.201 82.5306 266.785 83.5876ZM274.247 82.5787C274.637 82.3892 274.96 82.0851 275.173 81.707C275.386 81.3077 275.492 80.8599 275.48 80.4075C275.491 79.9517 275.386 79.5006 275.173 79.0971C274.964 78.7105 274.641 78.3982 274.247 78.2034C273.763 77.9726 273.231 77.8617 272.695 77.8799H269.833V85.9617H271.05V82.8913H272.777L274.422 85.9452H275.804L274.006 82.6719C274.088 82.6465 274.169 82.6154 274.247 82.5787ZM271.039 78.9272H272.574C272.909 78.9156 273.241 78.9754 273.55 79.1026C273.786 79.2085 273.979 79.3899 274.099 79.618C274.213 79.8637 274.272 80.1312 274.272 80.402C274.272 80.6728 274.213 80.9404 274.099 81.1861C273.977 81.4069 273.784 81.5792 273.55 81.6741C273.247 81.7992 272.919 81.8572 272.591 81.844H271.039V78.9272ZM282.992 79.7441C282.702 79.1652 282.248 78.6846 281.687 78.3624C281.062 78.0288 280.361 77.8626 279.653 77.8799H276.961V85.9617H279.571C280.297 85.9823 281.017 85.8142 281.66 85.4737C282.233 85.1573 282.696 84.6733 282.986 84.0865C283.285 83.4054 283.439 82.6699 283.439 81.9263C283.439 81.1827 283.285 80.4471 282.986 79.766L282.992 79.7441ZM281.945 83.5163C281.757 83.9425 281.438 84.2978 281.035 84.5306C280.561 84.7758 280.032 84.8947 279.499 84.8761H278.178V78.9436H279.576C280.09 78.9258 280.599 79.045 281.051 79.289C281.45 79.5169 281.764 79.8693 281.945 80.2924C282.347 81.3294 282.347 82.4793 281.945 83.5163Z" fill="#87523C"/>
</g>
</g>
<defs>
<clipPath id="clip0_270_7600">
<rect width="322" height="283" fill="white" transform="translate(-12)"/>
</clipPath>
<clipPath id="clip1_270_7600">
<rect width="321" height="283" fill="white" transform="translate(-4)"/>
</clipPath>
</defs>
</svg>
