<svg width="220" height="220" viewBox="0 0 220 220" fill="none" xmlns="http://www.w3.org/2000/svg">
<g clip-path="url(#clip0_261_1697)">
<g clip-path="url(#clip1_261_1697)">
<g opacity="0.53">
<path opacity="0.02" d="M75.0927 219.499C112.717 218.362 142.964 209.071 142.652 198.746C142.34 188.421 111.587 180.972 73.9627 182.109C36.3387 183.246 6.09133 192.538 6.40336 202.863C6.71539 213.188 37.4687 220.637 75.0927 219.499Z" fill="#2C0F04"/>
<path opacity="0.039" d="M75.2774 219.111C112.402 217.989 142.247 208.821 141.939 198.633C141.632 188.445 111.287 181.096 74.1624 182.218C37.0381 183.34 7.19246 192.508 7.50035 202.696C7.80823 212.884 38.153 220.233 75.2774 219.111Z" fill="#2C0F04"/>
<path opacity="0.059" d="M75.4603 218.722C112.085 217.616 141.529 208.571 141.225 198.52C140.921 188.47 110.985 181.219 74.3604 182.326C37.7358 183.433 8.29188 192.478 8.59562 202.528C8.89936 212.579 38.8357 219.829 75.4603 218.722Z" fill="#2C0F04"/>
<path opacity="0.078" d="M75.6449 218.333C111.77 217.241 140.812 208.32 140.512 198.406C140.213 188.493 110.685 181.342 74.56 182.433C38.4351 183.525 9.39301 192.447 9.6926 202.36C9.9922 212.273 39.5201 219.425 75.6449 218.333Z" fill="#2C0F04"/>
<path opacity="0.098" d="M75.828 217.946C111.453 216.869 140.093 208.071 139.798 198.294C139.503 188.517 110.383 181.464 74.758 182.541C39.1328 183.617 10.4925 192.416 10.7879 202.193C11.0834 211.97 40.2028 219.022 75.828 217.946Z" fill="#2C0F04"/>
<path opacity="0.118" d="M76.0126 217.557C111.138 216.496 139.377 207.821 139.085 198.181C138.794 188.542 110.083 181.588 74.9577 182.649C39.8322 183.711 11.5936 192.386 11.8849 202.025C12.1762 211.665 40.8872 218.619 76.0126 217.557Z" fill="#2C0F04"/>
<path opacity="0.137" d="M76.197 217.17C110.823 216.123 138.66 207.572 138.372 198.069C138.085 188.567 109.783 181.712 75.1571 182.759C40.5314 183.805 12.6945 192.357 12.9816 201.859C13.2688 211.361 41.5713 218.216 76.197 217.17Z" fill="#2C0F04"/>
<path opacity="0.157" d="M76.38 216.779C110.505 215.748 137.94 207.32 137.657 197.955C137.374 188.59 109.48 181.834 75.3551 182.865C41.2297 183.896 13.7951 192.324 14.0781 201.69C14.3612 211.055 42.2547 217.811 76.38 216.779Z" fill="#2C0F04"/>
<path opacity="0.176" d="M76.5644 216.391C110.19 215.375 137.223 207.07 136.944 197.842C136.665 188.614 109.18 181.957 75.5545 182.973C41.9289 183.99 14.896 192.294 15.1749 201.522C15.4537 210.75 42.9388 217.407 76.5644 216.391Z" fill="#2C0F04"/>
<path opacity="0.196" d="M76.7491 216.003C109.875 215.002 136.506 206.821 136.231 197.73C135.957 188.64 108.88 182.082 75.7542 183.083C42.6283 184.084 15.9971 192.265 16.2719 201.356C16.5466 210.446 43.6231 217.004 76.7491 216.003Z" fill="#2C0F04"/>
<path opacity="0.216" d="M76.932 215.615C109.558 214.629 135.788 206.571 135.517 197.618C135.246 188.664 108.578 182.205 75.9521 183.191C43.3259 184.177 17.0965 192.235 17.3671 201.188C17.6377 210.142 44.3058 216.601 76.932 215.615Z" fill="#2C0F04"/>
<path opacity="0.235" d="M77.1166 215.225C109.243 214.254 135.071 206.32 134.804 197.504C134.538 188.688 108.278 182.328 76.1518 183.299C44.0253 184.27 18.1977 192.204 18.4641 201.02C18.7306 209.836 44.9902 216.196 77.1166 215.225Z" fill="#2C0F04"/>
<path opacity="0.255" d="M77.3001 214.837C108.927 213.881 134.353 206.07 134.09 197.391C133.828 188.712 107.977 182.451 76.3502 183.407C44.7235 184.363 19.2976 192.173 19.5599 200.853C19.8222 209.532 45.6733 215.793 77.3001 214.837Z" fill="#2C0F04"/>
<path opacity="0.275" d="M77.4845 214.448C108.611 213.508 133.635 205.821 133.376 197.279C133.118 188.737 107.676 182.575 76.5497 183.516C45.4233 184.456 20.3997 192.143 20.6578 200.685C20.916 209.227 46.3582 215.389 77.4845 214.448Z" fill="#2C0F04"/>
<path opacity="0.294" d="M77.6687 214.06C108.295 213.134 132.917 205.571 132.663 197.166C132.409 188.761 107.376 182.698 76.7489 183.624C46.1222 184.549 21.5003 192.113 21.7543 200.518C22.0083 208.922 47.042 214.985 77.6687 214.06Z" fill="#2C0F04"/>
<path opacity="0.314" d="M77.8522 213.673C107.979 212.762 132.199 205.322 131.949 197.053C131.7 188.785 107.074 182.821 76.9473 183.731C46.8204 184.642 22.6003 192.082 22.8501 200.351C23.1 208.619 47.7253 214.583 77.8522 213.673Z" fill="#2C0F04"/>
<path opacity="0.333" d="M78.0364 213.283C107.664 212.388 131.482 205.071 131.236 196.94C130.991 188.809 106.774 182.943 77.1465 183.839C47.5193 184.734 23.7009 192.051 23.9466 200.182C24.1923 208.313 48.4092 214.179 78.0364 213.283Z" fill="#2C0F04"/>
<path opacity="0.353" d="M78.2208 212.895C107.348 212.014 130.765 204.821 130.523 196.827C130.282 188.833 106.473 183.067 77.3459 183.947C48.2185 184.827 24.8018 192.021 25.0434 200.015C25.2849 208.008 49.0933 213.775 78.2208 212.895Z" fill="#2C0F04"/>
<path opacity="0.372" d="M78.4044 212.507C107.032 211.642 130.047 204.572 129.81 196.715C129.572 188.859 106.172 183.191 77.5446 184.057C48.9169 184.922 25.9019 191.992 26.1394 199.848C26.3768 207.705 49.7767 213.372 78.4044 212.507Z" fill="#2C0F04"/>
<path opacity="0.392" d="M78.5883 212.119C106.716 211.269 129.33 204.322 129.096 196.603C128.863 188.883 105.872 183.315 77.7436 184.165C49.6155 185.015 27.0023 191.962 27.2356 199.681C27.4689 207.4 50.4603 212.969 78.5883 212.119Z" fill="#2C0F04"/>
<path opacity="0.412" d="M78.7718 211.728C106.4 210.893 128.61 204.07 128.381 196.488C128.152 188.906 105.57 183.436 77.9421 184.271C50.3144 185.106 28.1035 191.93 28.3326 199.512C28.5617 207.094 51.1442 212.563 78.7718 211.728Z" fill="#2C0F04"/>
<path opacity="0.431" d="M78.9563 211.341C106.084 210.521 127.893 203.821 127.668 196.376C127.443 188.932 105.269 183.561 78.1415 184.381C51.0135 185.201 29.2044 191.9 29.4293 199.345C29.6543 206.79 51.8283 212.161 78.9563 211.341Z" fill="#2C0F04"/>
<path opacity="0.451" d="M79.1404 210.952C105.769 210.147 127.176 203.571 126.955 196.264C126.734 188.956 104.969 183.684 78.3407 184.489C51.7124 185.294 30.305 191.87 30.5258 199.178C30.7467 206.485 52.5122 211.757 79.1404 210.952Z" fill="#2C0F04"/>
<path opacity="0.471" d="M79.3238 210.565C105.452 209.775 126.458 203.322 126.241 196.152C126.025 188.982 104.668 183.809 78.5391 184.599C52.4106 185.388 31.4049 191.841 31.6216 199.011C31.8383 206.182 53.1953 211.354 79.3238 210.565Z" fill="#2C0F04"/>
<path opacity="0.49" d="M79.5085 210.174C105.137 209.4 125.741 203.07 125.529 196.037C125.316 189.004 104.368 183.93 78.7388 184.705C53.11 185.48 32.506 191.809 32.7186 198.842C32.9311 205.875 53.8797 210.949 79.5085 210.174Z" fill="#2C0F04"/>
<path opacity="0.51" d="M79.6926 209.786C104.822 209.026 125.024 202.82 124.816 195.925C124.607 189.029 104.067 184.054 78.938 184.813C53.8089 185.573 33.6067 191.779 33.8151 198.675C34.0235 205.571 54.5636 210.545 79.6926 209.786Z" fill="#2C0F04"/>
<path opacity="0.529" d="M79.8759 209.398C104.505 208.654 124.305 202.572 124.1 195.813C123.896 189.054 103.765 184.179 79.1362 184.923C54.5075 185.667 34.7076 191.75 34.9118 198.508C35.1161 205.267 55.2472 210.143 79.8759 209.398Z" fill="#2C0F04"/>
<path opacity="0.549" d="M80.0606 209.011C104.19 208.282 123.588 202.322 123.388 195.7C123.188 189.078 103.465 184.301 79.3359 185.03C55.2069 185.759 35.8087 191.719 36.0088 198.341C36.209 204.963 55.9316 209.74 80.0606 209.011Z" fill="#2C0F04"/>
<path opacity="0.569" d="M80.2445 208.621C103.874 207.907 122.87 202.071 122.674 195.586C122.478 189.101 103.164 184.423 79.5348 185.137C55.9056 185.851 36.9091 191.687 37.1051 198.172C37.3011 204.657 56.6153 209.335 80.2445 208.621Z" fill="#2C0F04"/>
<path opacity="0.588" d="M80.4282 208.233C103.558 207.534 122.152 201.822 121.961 195.474C121.769 189.126 102.863 184.547 79.7335 185.246C56.604 185.945 38.0093 191.658 38.2011 198.005C38.3929 204.353 57.2987 208.932 80.4282 208.233Z" fill="#2C0F04"/>
<path opacity="0.608" d="M80.6126 207.845C103.242 207.161 121.435 201.572 121.248 195.361C121.06 189.151 102.563 184.671 79.9329 185.354C57.3031 186.038 39.1102 191.627 39.2978 197.838C39.4855 204.048 57.9828 208.528 80.6126 207.845Z" fill="#2C0F04"/>
<path opacity="0.627" d="M80.7958 207.456C102.926 206.787 120.717 201.322 120.534 195.249C120.35 189.175 102.261 184.794 80.1311 185.463C58.001 186.132 40.2098 191.597 40.3934 197.67C40.5769 203.744 58.6657 208.125 80.7958 207.456Z" fill="#2C0F04"/>
<path opacity="0.647" d="M80.9802 207.069C102.611 206.415 120 201.073 119.821 195.137C119.641 189.201 101.961 184.919 80.3306 185.572C58.7002 186.226 41.3107 191.568 41.4901 197.504C41.6695 203.44 59.3498 207.722 80.9802 207.069Z" fill="#2C0F04"/>
<path opacity="0.667" d="M81.1647 206.678C102.295 206.04 119.282 200.821 119.107 195.022C118.931 189.223 101.66 185.04 80.53 185.679C59.4 186.317 42.4128 191.536 42.5881 197.335C42.7633 203.133 60.0346 207.317 81.1647 206.678Z" fill="#2C0F04"/>
<path opacity="0.686" d="M81.3476 206.29C101.978 205.666 118.563 200.571 118.392 194.909C118.221 189.248 101.358 185.164 80.728 185.787C60.0977 186.411 43.5122 191.506 43.6833 197.167C43.8544 202.829 60.7173 206.913 81.3476 206.29Z" fill="#2C0F04"/>
<path opacity="0.706" d="M81.5322 205.902C101.663 205.294 117.847 200.322 117.68 194.798C117.513 189.273 101.058 185.288 80.9277 185.897C60.7971 186.505 44.6134 191.476 44.7803 197.001C44.9473 202.525 61.4017 206.51 81.5322 205.902Z" fill="#2C0F04"/>
<path opacity="0.726" d="M81.7169 205.514C101.348 204.92 117.13 200.072 116.967 194.685C116.804 189.298 100.758 185.412 81.1273 186.005C61.4965 186.598 45.7145 191.446 45.8773 196.833C46.0401 202.221 62.086 206.107 81.7169 205.514Z" fill="#2C0F04"/>
<path opacity="0.745" d="M81.8998 205.123C101.031 204.545 116.411 199.82 116.253 194.57C116.094 189.32 100.456 185.533 81.3253 186.111C62.1941 186.69 46.8139 191.414 46.9726 196.664C47.1312 201.914 62.7687 205.701 81.8998 205.123Z" fill="#2C0F04"/>
<path opacity="0.765" d="M82.0846 204.737C100.716 204.174 115.694 199.572 115.54 194.459C115.385 189.345 100.156 185.657 81.5249 186.22C62.8935 186.783 47.9151 191.384 48.0696 196.498C48.2241 201.611 63.4531 205.3 82.0846 204.737Z" fill="#2C0F04"/>
<path opacity="0.784" d="M82.2678 204.348C100.399 203.801 114.975 199.322 114.825 194.346C114.674 189.37 99.8543 185.78 81.7232 186.328C63.5922 186.876 49.016 191.354 49.1663 196.33C49.3167 201.307 64.1368 204.896 82.2678 204.348Z" fill="#2C0F04"/>
<path opacity="0.804" d="M82.452 203.96C100.083 203.427 114.258 199.072 114.112 194.233C113.965 189.395 99.5537 185.904 81.9224 186.437C64.2911 186.969 50.1166 191.324 50.2628 196.163C50.4091 201.002 64.8206 204.493 82.452 203.96Z" fill="#2C0F04"/>
<path opacity="0.824" d="M82.6364 203.57C99.768 203.053 113.541 198.822 113.399 194.12C113.257 189.418 99.2534 186.026 82.1218 186.544C64.9902 187.062 51.2175 191.293 51.3596 195.995C51.5017 200.696 65.5048 204.088 82.6364 203.57Z" fill="#2C0F04"/>
<path opacity="0.843" d="M82.8195 203.182C99.4514 202.679 112.822 198.572 112.684 194.007C112.547 189.443 98.9519 186.15 82.32 186.652C65.6881 187.155 52.3171 191.263 52.4551 195.827C52.593 200.392 66.1877 203.685 82.8195 203.182Z" fill="#2C0F04"/>
<path opacity="0.863" d="M83.0039 202.793C99.1361 202.306 112.105 198.322 111.972 193.894C111.838 189.467 98.6516 186.273 82.5194 186.761C66.3873 187.248 53.418 191.233 53.5518 195.66C53.6856 200.087 66.8718 203.281 83.0039 202.793Z" fill="#2C0F04"/>
<path opacity="0.882" d="M83.1886 202.406C98.821 201.934 111.389 198.073 111.259 193.783C111.129 189.493 98.3515 186.398 82.7191 186.87C67.0867 187.343 54.5192 191.203 54.6488 195.493C54.7785 199.784 67.5562 202.878 83.1886 202.406Z" fill="#2C0F04"/>
<path opacity="0.902" d="M83.3715 202.015C98.5042 201.558 110.67 197.821 110.544 193.668C110.419 189.515 98.0498 186.519 82.917 186.977C67.7843 187.434 55.6186 191.171 55.7441 195.324C55.8696 199.477 68.2388 202.473 83.3715 202.015Z" fill="#2C0F04"/>
<path opacity="0.922" d="M83.556 201.627C98.1884 201.185 109.952 197.571 109.83 193.555C109.709 189.54 97.7489 186.643 83.1165 187.085C68.4842 187.527 56.7207 191.141 56.842 195.157C56.9634 199.172 68.9237 202.069 83.556 201.627Z" fill="#2C0F04"/>
<path opacity="0.941" d="M83.7397 201.239C97.8723 200.812 109.234 197.322 109.117 193.444C109 189.565 97.4479 186.767 83.3152 187.194C69.1826 187.622 57.8208 191.112 57.9381 194.99C58.0553 198.869 69.607 201.667 83.7397 201.239Z" fill="#2C0F04"/>
<path opacity="0.961" d="M83.9241 200.851C97.557 200.439 108.517 197.072 108.404 193.331C108.291 189.59 97.1476 186.891 83.5146 187.303C69.8817 187.715 58.9217 191.082 59.0348 194.823C59.1479 198.564 70.2912 201.263 83.9241 200.851Z" fill="#2C0F04"/>
<path opacity="0.98" d="M84.1082 200.463C97.2414 200.067 107.8 196.823 107.691 193.219C107.582 189.615 96.847 187.015 83.7138 187.412C70.5806 187.809 60.0224 191.052 60.1313 194.656C60.2402 198.26 70.9751 200.86 84.1082 200.463Z" fill="#2C0F04"/>
<path d="M84.2917 200.074C96.9252 199.693 107.082 196.572 106.977 193.105C106.872 189.637 96.5457 187.136 83.9123 187.518C71.2788 187.899 61.1223 191.02 61.2271 194.487C61.3319 197.955 71.6583 200.456 84.2917 200.074Z" fill="#2C0F04"/>
</g>
<path d="M4.08654 146.91C2.44369 142.953 1.64597 138.948 1.65753 134.977L1.61707 149.149C1.60551 153.121 2.40323 157.125 4.04607 161.083L18.2016 195.09L18.242 180.916L4.08654 146.91Z" fill="url(#paint0_linear_261_1697)"/>
<path d="M158.804 175.57C157.409 176.38 155.968 177.156 154.493 177.904C154.005 178.151 153.494 178.379 152.997 178.619C151.993 179.106 150.989 179.592 149.954 180.049C149.342 180.319 148.711 180.57 148.09 180.829C147.138 181.228 146.184 181.625 145.207 182C144.527 182.26 143.832 182.504 143.142 182.752C142.191 183.096 141.237 183.436 140.266 183.756C139.729 183.933 139.182 184.097 138.639 184.267C136.371 184.978 134.067 185.646 131.707 186.236C131.609 186.26 131.514 186.29 131.414 186.314C128.983 186.916 126.495 187.431 123.984 187.902C123.351 188.021 122.719 188.141 122.082 188.252C121.108 188.421 120.126 188.574 119.142 188.722C118.306 188.848 117.471 188.974 116.629 189.085C115.632 189.216 114.629 189.331 113.624 189.443C112.871 189.526 112.12 189.611 111.363 189.683C108.609 189.946 105.828 190.129 103.032 190.237C102.486 190.258 101.938 190.274 101.391 190.289C98.7749 190.362 96.1505 190.39 93.5169 190.325C93.3597 190.322 93.2024 190.31 93.0464 190.305C90.6555 190.24 88.2623 190.102 85.8715 189.922C85.2576 189.875 84.6448 189.83 84.0321 189.776C81.6829 189.569 79.3348 189.325 76.9983 189.005L18.2409 180.917L18.2004 195.091L76.9578 203.179C79.2943 203.5 81.6413 203.743 83.9916 203.95C84.2749 203.975 84.5547 204.019 84.8379 204.042C85.1686 204.07 85.4992 204.07 85.831 204.096C88.2219 204.277 90.615 204.415 93.0059 204.479C93.1308 204.483 93.2568 204.497 93.3828 204.499C93.4152 204.5 93.4464 204.498 93.4776 204.499C96.1112 204.563 98.7356 204.537 101.352 204.463C101.656 204.455 101.963 204.469 102.266 204.459C102.51 204.451 102.748 204.419 102.992 204.41C105.789 204.301 108.568 204.12 111.323 203.856C111.505 203.839 111.691 203.838 111.873 203.819C112.448 203.763 113.013 203.679 113.586 203.616C114.591 203.504 115.594 203.39 116.59 203.259C117.432 203.146 118.267 203.022 119.103 202.896C120.087 202.748 121.067 202.594 122.042 202.426C122.387 202.366 122.74 202.322 123.085 202.26C123.377 202.206 123.655 202.13 123.946 202.076C126.458 201.605 128.945 201.091 131.376 200.488C131.475 200.464 131.569 200.434 131.669 200.41C134.03 199.82 136.334 199.152 138.603 198.44C138.883 198.352 139.18 198.286 139.459 198.197C139.719 198.114 139.967 198.016 140.225 197.93C141.198 197.61 142.151 197.269 143.104 196.925C143.794 196.677 144.489 196.434 145.168 196.174C146.145 195.799 147.097 195.402 148.051 195.003C148.673 194.743 149.304 194.493 149.915 194.223C150.948 193.767 151.949 193.282 152.952 192.797C153.451 192.555 153.965 192.326 154.456 192.078C155.93 191.33 157.37 190.554 158.766 189.744L218.344 155.12L218.385 140.947L158.804 175.57Z" fill="url(#paint1_linear_261_1697)"/>
<path d="M187.338 82.6489C189.82 102.864 200.155 122.501 217.559 140.115L218.382 140.948L158.804 175.572C137.452 187.981 106.498 193.057 76.9982 189.006L18.2409 180.918L4.0865 146.909C-3.00281 129.835 5.65998 111.889 27.0123 99.4808L86.5905 64.8574L88.0091 65.3187C118.473 75.3423 152.431 81.2778 187.338 82.6489Z" fill="url(#paint2_linear_261_1697)"/>
<path d="M209.097 139.624L206.4 141.178C193.587 126.136 185.376 109.656 182.297 92.9134C149.134 91.1839 116.41 85.3189 87.2645 75.848L29.9372 109.158C16.3609 117.046 8.61955 127.103 7.62297 137.454C6.42061 125.491 14.3377 113.586 29.9372 104.495L87.2622 71.1865C116.408 80.6574 149.132 86.5224 182.295 88.252C185.581 106.167 194.758 123.761 209.097 139.624Z" fill="#8B310D"/>
<path d="M206.399 141.178L155.876 170.529C140.541 179.443 119.165 184.545 97.1734 184.545C90.6633 184.545 84.1543 184.104 77.7911 183.226L22.3425 175.602L22.2546 175.396L9.47028 144.667C8.47371 142.292 7.85749 139.887 7.6228 137.483V137.454C8.61938 127.103 16.3607 117.045 29.937 109.158L87.262 75.8477C114.474 84.7035 144.822 90.3916 175.727 92.5027C177.926 92.6495 180.096 92.7963 182.295 92.9131C185.375 109.657 193.586 126.135 206.399 141.178Z" fill="url(#paint3_linear_261_1697)"/>
<path d="M206.399 141.179L155.876 170.53C140.541 179.444 119.165 184.546 97.1734 184.546C90.6633 184.546 84.1544 184.105 77.7911 183.227L22.3425 175.603L22.2546 175.397C22.2546 175.397 180.096 92.7963 182.296 92.9142C185.375 109.658 193.586 126.136 206.399 141.179Z" fill="url(#paint4_linear_261_1697)"/>
<g opacity="0.44">
<path opacity="0.02" d="M189.091 141.541C189.267 131.367 159.304 122.597 122.168 121.955C85.0317 121.313 54.784 129.04 54.608 139.215C54.432 149.39 84.3943 158.159 121.531 158.802C158.667 159.444 188.915 151.716 189.091 141.541Z" fill="#2C0F04"/>
<path opacity="0.039" d="M187.581 141.363C187.755 131.323 158.19 122.671 121.546 122.037C84.9029 121.403 55.0567 129.028 54.8831 139.068C54.7094 149.107 84.274 157.76 120.918 158.394C157.561 159.028 187.407 151.403 187.581 141.363Z" fill="#2C0F04"/>
<path opacity="0.059" d="M186.07 141.186C186.241 131.281 157.075 122.745 120.925 122.12C84.7747 121.495 55.3304 129.017 55.1591 138.921C54.9878 148.825 84.1543 157.361 120.304 157.987C156.454 158.612 185.899 151.09 186.07 141.186Z" fill="#2C0F04"/>
<path opacity="0.078" d="M184.559 141.007C184.728 131.237 155.959 122.818 120.303 122.201C84.6465 121.584 55.6041 129.004 55.4351 138.773C55.2661 148.543 84.0345 156.963 119.691 157.58C155.348 158.196 184.39 150.777 184.559 141.007Z" fill="#2C0F04"/>
<path opacity="0.098" d="M183.048 140.828C183.214 131.193 154.844 122.89 119.681 122.282C84.5182 121.674 55.8778 128.991 55.7112 138.625C55.5445 148.259 83.9147 156.562 119.078 157.171C154.241 157.779 182.881 150.462 183.048 140.828Z" fill="#2C0F04"/>
<path opacity="0.118" d="M181.538 140.649C181.702 131.15 153.729 122.964 119.059 122.364C84.389 121.764 56.1501 128.979 55.9857 138.477C55.8214 147.976 83.794 156.163 118.464 156.763C153.134 157.362 181.373 150.148 181.538 140.649Z" fill="#2C0F04"/>
<path opacity="0.137" d="M180.027 140.471C180.188 131.107 152.614 123.037 118.437 122.446C84.2607 121.855 56.4237 128.966 56.2618 138.33C56.0998 147.694 83.6742 155.763 117.851 156.355C152.028 156.946 179.865 149.834 180.027 140.471Z" fill="#2C0F04"/>
<path opacity="0.157" d="M178.515 140.294C178.675 131.065 151.499 123.111 117.816 122.529C84.1325 121.946 56.6975 128.955 56.5378 138.184C56.3782 147.413 83.5544 155.367 117.238 155.95C150.921 156.532 178.356 149.523 178.515 140.294Z" fill="#2C0F04"/>
<path opacity="0.176" d="M177.004 140.115C177.161 131.021 150.383 123.184 117.194 122.61C84.004 122.036 56.9709 128.942 56.8136 138.036C56.6563 147.129 83.4344 154.966 116.624 155.541C149.814 156.115 176.847 149.208 177.004 140.115Z" fill="#2C0F04"/>
<path opacity="0.196" d="M175.494 139.936C175.649 130.978 149.269 123.258 116.572 122.692C83.8753 122.126 57.2436 128.93 57.0887 137.888C56.9337 146.846 83.3141 154.567 116.011 155.132C148.708 155.698 175.339 148.895 175.494 139.936Z" fill="#2C0F04"/>
<path opacity="0.216" d="M173.983 139.758C174.136 130.934 148.154 123.33 115.95 122.773C83.7471 122.216 57.5174 128.917 57.3647 137.74C57.2121 146.564 83.1944 154.168 115.398 154.725C147.601 155.282 173.831 148.581 173.983 139.758Z" fill="#2C0F04"/>
<path opacity="0.235" d="M172.472 139.58C172.623 130.892 147.039 123.404 115.329 122.856C83.6188 122.307 57.7911 128.906 57.6408 137.594C57.4905 146.282 83.0746 153.77 114.784 154.318C146.494 154.867 172.322 148.268 172.472 139.58Z" fill="#2C0F04"/>
<path opacity="0.255" d="M170.961 139.401C171.109 130.848 145.923 123.477 114.707 122.937C83.4906 122.397 58.0648 128.893 57.9168 137.445C57.7689 145.998 82.9548 153.369 114.171 153.909C145.388 154.449 170.813 147.954 170.961 139.401Z" fill="#2C0F04"/>
<path opacity="0.275" d="M169.452 139.222C169.598 130.805 144.809 123.551 114.086 123.019C83.3623 122.488 58.338 128.88 58.1924 137.298C58.0467 145.715 82.835 152.97 113.559 153.501C144.282 154.033 169.306 147.64 169.452 139.222Z" fill="#2C0F04"/>
<path opacity="0.294" d="M167.941 139.044C168.084 130.761 143.694 123.623 113.464 123.1C83.2341 122.577 58.6117 128.867 58.4684 137.15C58.3251 145.433 82.7153 152.571 112.945 153.094C143.175 153.617 167.798 147.327 167.941 139.044Z" fill="#2C0F04"/>
<path opacity="0.314" d="M166.43 138.865C166.571 130.718 142.579 123.696 112.843 123.182C83.1061 122.668 58.8856 128.855 58.7447 137.003C58.6038 145.15 82.5957 152.172 112.332 152.686C142.069 153.201 166.289 147.013 166.43 138.865Z" fill="#2C0F04"/>
<path opacity="0.333" d="M164.919 138.687C165.058 130.675 141.464 123.77 112.221 123.264C82.9778 122.758 59.1593 128.843 59.0207 136.855C58.8821 144.867 82.4759 151.772 111.719 152.278C140.962 152.784 164.781 146.699 164.919 138.687Z" fill="#2C0F04"/>
<path opacity="0.353" d="M163.408 138.508C163.544 130.631 140.348 123.842 111.599 123.345C82.8491 122.847 59.4325 128.83 59.2963 136.708C59.16 144.585 82.3557 151.374 111.105 151.871C139.855 152.368 163.271 146.386 163.408 138.508Z" fill="#2C0F04"/>
<path opacity="0.372" d="M161.898 138.331C162.032 130.589 139.234 123.917 110.977 123.428C82.7204 122.939 59.7053 128.819 59.5713 136.561C59.4374 144.303 82.2354 150.975 110.492 151.464C138.749 151.953 161.764 146.073 161.898 138.331Z" fill="#2C0F04"/>
<path opacity="0.392" d="M160.387 138.153C160.518 130.546 138.119 123.99 110.355 123.51C82.5922 123.03 59.979 128.807 59.8474 136.413C59.7158 144.02 82.1157 150.576 109.879 151.056C137.642 151.536 160.255 145.759 160.387 138.153Z" fill="#2C0F04"/>
<path opacity="0.412" d="M158.876 137.973C159.005 130.502 137.003 124.063 109.734 123.591C82.4639 123.119 60.2526 128.794 60.1234 136.265C59.9942 143.736 81.9959 150.175 109.266 150.647C136.535 151.119 158.747 145.444 158.876 137.973Z" fill="#2C0F04"/>
<path opacity="0.431" d="M157.365 137.796C157.492 130.459 135.888 124.136 109.112 123.673C82.3357 123.21 60.5264 128.782 60.3995 136.118C60.2726 143.455 81.8761 149.778 108.652 150.241C135.429 150.704 157.238 145.132 157.365 137.796Z" fill="#2C0F04"/>
<path opacity="0.451" d="M155.855 137.617C155.979 130.416 134.773 124.21 108.49 123.755C82.2065 123.3 60.7986 128.769 60.674 135.971C60.5495 143.172 81.7554 149.378 108.039 149.833C134.322 150.288 155.73 144.818 155.855 137.617Z" fill="#2C0F04"/>
<path opacity="0.471" d="M154.344 137.438C154.466 130.372 133.658 124.282 107.868 123.836C82.0784 123.39 61.0725 128.756 60.9503 135.822C60.8281 142.888 81.6358 148.978 107.426 149.424C133.216 149.87 154.222 144.504 154.344 137.438Z" fill="#2C0F04"/>
<path opacity="0.49" d="M152.832 137.259C152.952 130.328 132.543 124.354 107.246 123.917C81.9497 123.479 61.3458 128.743 61.2259 135.675C61.106 142.606 81.5156 148.579 106.812 149.017C132.108 149.454 152.712 144.19 152.832 137.259Z" fill="#2C0F04"/>
<path opacity="0.51" d="M151.321 137.082C151.439 130.286 131.427 124.429 106.624 124C81.8215 123.571 61.6195 128.732 61.5019 135.528C61.3844 142.324 81.3958 148.181 106.199 148.61C131.002 149.039 151.204 143.878 151.321 137.082Z" fill="#2C0F04"/>
<path opacity="0.529" d="M149.811 136.903C149.927 130.243 130.313 124.502 106.003 124.082C81.6928 123.661 61.8922 128.72 61.777 135.38C61.6618 142.041 81.2756 147.781 105.586 148.202C129.896 148.622 149.696 143.564 149.811 136.903Z" fill="#2C0F04"/>
<path opacity="0.549" d="M148.301 136.724C148.414 130.199 129.199 124.575 105.382 124.163C81.5655 123.751 62.1669 128.707 62.054 135.232C61.9411 141.757 81.1567 147.381 104.973 147.793C128.79 148.205 148.188 143.249 148.301 136.724Z" fill="#2C0F04"/>
<path opacity="0.569" d="M146.79 136.546C146.901 130.156 128.083 124.648 104.76 124.245C81.4373 123.841 62.4406 128.695 62.33 135.085C62.2195 141.476 81.037 146.983 104.36 147.387C127.683 147.79 146.68 142.937 146.79 136.546Z" fill="#2C0F04"/>
<path opacity="0.588" d="M145.279 136.368C145.387 130.113 126.968 124.722 104.138 124.327C81.3088 123.932 62.714 128.683 62.6058 134.938C62.4976 141.193 80.9169 146.584 103.747 146.979C126.576 147.374 145.171 142.623 145.279 136.368Z" fill="#2C0F04"/>
<path opacity="0.608" d="M143.769 136.19C143.875 130.071 125.853 124.796 103.517 124.41C81.1801 124.024 62.9867 128.671 62.8809 134.791C62.775 140.911 80.7967 146.185 103.133 146.572C125.47 146.958 143.663 142.31 143.769 136.19Z" fill="#2C0F04"/>
<path opacity="0.627" d="M142.258 136.011C142.362 130.027 124.738 124.869 102.895 124.491C81.0518 124.113 63.2604 128.658 63.1569 134.643C63.0534 140.627 80.6769 145.785 102.52 146.163C124.363 146.541 142.155 141.995 142.258 136.011Z" fill="#2C0F04"/>
<path opacity="0.647" d="M140.747 135.832C140.848 129.983 123.623 124.941 102.273 124.572C80.9231 124.202 63.5337 128.645 63.4325 134.495C63.3313 140.345 80.5566 145.386 101.906 145.756C123.256 146.125 140.646 141.682 140.747 135.832Z" fill="#2C0F04"/>
<path opacity="0.667" d="M139.236 135.654C139.335 129.94 122.507 125.015 101.651 124.654C80.7948 124.293 63.8074 128.633 63.7085 134.347C63.6097 140.062 80.4369 144.987 101.293 145.348C122.149 145.708 139.137 141.368 139.236 135.654Z" fill="#2C0F04"/>
<path opacity="0.686" d="M137.726 135.476C137.822 129.896 121.393 125.088 101.029 124.736C80.6661 124.384 64.0801 128.621 63.9836 134.2C63.8871 139.779 80.3166 144.587 100.68 144.94C121.043 145.292 137.629 141.055 137.726 135.476Z" fill="#2C0F04"/>
<path opacity="0.706" d="M136.215 135.297C136.309 129.853 120.278 125.16 100.408 124.817C80.5379 124.473 64.3538 128.608 64.2596 134.052C64.1655 139.497 80.1968 144.189 100.067 144.532C119.937 144.876 136.121 140.741 136.215 135.297Z" fill="#2C0F04"/>
<path opacity="0.726" d="M134.704 135.119C134.796 129.809 119.162 125.234 99.786 124.899C80.4096 124.564 64.6275 128.596 64.5357 133.905C64.4438 139.214 80.0771 143.789 99.4535 144.124C118.83 144.46 134.612 140.428 134.704 135.119Z" fill="#2C0F04"/>
<path opacity="0.745" d="M133.192 134.94C133.282 129.766 118.047 125.308 99.1638 124.981C80.2809 124.654 64.9007 128.584 64.8112 133.757C64.7217 138.931 79.9568 143.39 98.8397 143.716C117.723 144.043 133.103 140.114 133.192 134.94Z" fill="#2C0F04"/>
<path opacity="0.765" d="M131.681 134.762C131.769 129.723 116.932 125.381 98.5423 125.063C80.1529 124.745 65.1746 128.571 65.0875 133.61C65.0003 138.648 79.8373 142.99 98.2267 143.308C116.616 143.626 131.594 139.8 131.681 134.762Z" fill="#2C0F04"/>
<path opacity="0.784" d="M130.172 134.584C130.257 129.68 115.817 125.454 97.9208 125.145C80.0242 124.835 65.4474 128.559 65.3626 133.463C65.2777 138.367 79.717 142.593 97.6136 142.902C115.51 143.212 130.087 139.488 130.172 134.584Z" fill="#2C0F04"/>
<path opacity="0.804" d="M128.66 134.406C128.743 129.637 114.702 125.528 97.2985 125.227C79.8954 124.926 65.7206 128.547 65.6381 133.315C65.5556 138.084 79.5968 142.193 96.9998 142.494C114.403 142.795 128.578 139.174 128.66 134.406Z" fill="#2C0F04"/>
<path opacity="0.824" d="M127.149 134.227C127.229 129.594 113.586 125.601 96.6768 125.309C79.7672 125.016 65.9943 128.535 65.9142 133.168C65.834 137.801 79.477 141.794 96.3866 142.086C113.296 142.379 127.069 138.86 127.149 134.227Z" fill="#2C0F04"/>
<path opacity="0.843" d="M125.639 134.049C125.717 129.55 112.472 125.674 96.056 125.39C79.6399 125.106 66.269 128.522 66.1912 133.02C66.1134 137.518 79.3582 141.395 95.7743 141.679C112.19 141.963 125.561 138.547 125.639 134.049Z" fill="#2C0F04"/>
<path opacity="0.863" d="M124.129 133.869C124.205 129.506 111.358 125.746 95.4345 125.471C79.5112 125.195 66.5417 128.509 66.4662 132.872C66.3908 137.235 79.2379 140.995 95.1612 141.27C111.084 141.546 124.054 138.232 124.129 133.869Z" fill="#2C0F04"/>
<path opacity="0.882" d="M122.619 133.692C122.692 129.464 110.243 125.821 94.813 125.554C79.3832 125.287 66.8156 128.498 66.7425 132.725C66.6694 136.953 79.1184 140.596 94.5482 140.863C109.978 141.13 122.545 137.919 122.619 133.692Z" fill="#2C0F04"/>
<path opacity="0.902" d="M121.107 133.513C121.178 129.421 109.127 125.894 94.1907 125.636C79.2545 125.378 67.0889 128.485 67.0181 132.578C66.9473 136.67 78.9981 140.197 93.9344 140.455C108.871 140.713 121.036 137.606 121.107 133.513Z" fill="#2C0F04"/>
<path opacity="0.922" d="M119.596 133.335C119.664 129.377 108.012 125.966 93.569 125.717C79.1262 125.467 67.3626 128.472 67.2941 132.43C67.2257 136.388 78.8783 139.798 93.3211 140.048C107.764 140.298 119.528 137.292 119.596 133.335Z" fill="#2C0F04"/>
<path opacity="0.941" d="M118.086 133.155C118.152 129.333 106.897 126.039 92.9475 125.798C78.9975 125.556 67.6353 128.459 67.5692 132.282C67.5031 136.104 78.7581 139.398 92.708 139.639C106.658 139.88 118.02 136.978 118.086 133.155Z" fill="#2C0F04"/>
<path opacity="0.961" d="M116.575 132.977C116.639 129.29 105.782 126.113 92.3257 125.88C78.8693 125.647 67.909 128.447 67.8452 132.134C67.7814 135.821 78.6383 138.998 92.0947 139.231C105.551 139.464 116.511 136.664 116.575 132.977Z" fill="#2C0F04"/>
<path opacity="0.98" d="M115.064 132.798C115.125 129.246 104.666 126.185 91.7035 125.961C78.7406 125.736 68.1822 128.434 68.1208 131.986C68.0593 135.538 78.5181 138.6 91.481 138.824C104.444 139.048 115.002 136.35 115.064 132.798Z" fill="#2C0F04"/>
<path d="M113.553 132.622C113.612 129.205 103.551 126.26 91.0817 126.045C78.6123 125.829 68.4559 128.424 68.3968 131.841C68.3377 135.257 78.3983 138.202 90.8677 138.418C103.337 138.634 113.494 136.039 113.553 132.622Z" fill="#2C0F04"/>
</g>
<path d="M29.417 72.467C29.417 111.896 61.3698 143.848 100.799 143.848C127.404 143.848 150.619 129.284 162.877 107.723C163.269 107.071 163.616 106.375 163.964 105.68C169.224 95.7685 172.18 84.4652 172.18 72.467C172.18 41.1674 152.052 14.6056 124.013 4.99824C116.754 2.43397 108.928 1.08594 100.799 1.08594C83.8019 1.08594 68.1955 7.0411 55.936 16.9537C39.7642 30.0386 29.417 50.036 29.417 72.467Z" fill="url(#paint5_linear_261_1697)" stroke="#862F0C" stroke-width="3.7262" stroke-miterlimit="10"/>
<g opacity="0.53">
<path d="M29.4172 72.4656C29.4172 111.895 61.37 143.847 100.799 143.847C127.404 143.847 150.619 129.283 162.877 107.721L156.747 111.286L145.661 115.025L138.185 120.98L134.881 119.197C134.881 119.197 133.142 118.328 131.794 118.328C130.49 118.328 129.272 118.328 129.272 118.328C129.272 118.328 127.403 116.328 126.968 115.676C126.533 115.023 120.361 116.11 120.361 116.11V118.11C120.361 118.11 119.057 119.414 116.839 123.805C114.622 128.239 111.102 127.11 110.45 126.457C109.754 125.805 106.493 126.24 106.493 126.24L95.0605 126.675L91.0175 127.544C91.0175 127.544 83.845 124.501 84.497 122.067C85.1491 119.632 83.845 117.241 83.845 117.241H80.1061L77.4539 115.676L75.4538 110.198L75.2365 105.068L74.8018 102.677C74.8018 102.677 73.7151 103.156 72.1936 102.677C70.6282 102.243 67.1078 102.677 67.1078 102.677L62.0648 101.158L57.8913 95.5071L54.0229 92.9856L52.3708 89.7242V81.8117L54.8056 79.5943L56.9791 74.5513L57.8913 71.5084C57.8913 71.5084 66.2384 70.1176 67.5425 70.1176C68.8906 70.1176 69.1079 71.5084 69.1079 71.5084L72.1948 75.8554C72.1948 75.8554 76.803 78.7249 77.6724 78.4636C78.5418 78.2023 83.1929 78.4636 83.1929 78.4636H84.497L82.7143 70.5523L83.4103 63.7705L86.3664 60.4663C86.3664 60.4663 84.2797 59.3356 83.6276 58.4662C82.9316 57.5968 82.3235 54.2926 82.3235 54.2926V50.859L77.7591 49.7722L75.4122 49.1202L74.1521 56.0326L70.6745 57.3806L67.3275 52.6856H64.8916L60.0231 50.7295C60.0231 50.7295 65.8916 45.5131 66.4569 44.6876C67.0223 43.8621 64.4141 42.2528 64.4141 42.2528L63.1539 39.3833L59.6324 37.1231L57.8936 32.7322H54.8067L57.8936 25.0371L55.9374 16.9512C39.7645 30.0373 29.4172 50.0346 29.4172 72.4656Z" fill="url(#paint6_linear_261_1697)"/>
<path d="M80.8887 87.03L81.8887 91.9424L88.4092 93.5078C88.4092 93.5078 94.8869 92.3771 97.1032 91.5077C99.3634 90.5955 103.146 90.5955 103.146 90.5955V97.116C103.146 97.116 101.712 94.6385 101.277 99.5508C100.798 104.507 100.451 106.723 100.451 106.723L102.494 111.853H109.449L112.362 106.506V105.071L117.578 99.7681L126.447 100.464C126.447 100.464 128.229 104.768 128.229 105.072C128.229 105.376 138.533 103.378 138.533 103.378L140.576 102.899C140.576 102.899 146.748 100.464 148.14 100.464C149.531 100.464 156.009 93.9436 156.009 93.9436L160.921 99.7693C161.66 100.812 163.094 103.768 163.964 105.682C169.224 95.7703 172.18 84.4669 172.18 72.4687C172.18 41.1692 152.052 14.6073 124.013 5L124.665 7.73884L130.012 10.9124L127.795 14.9114L129.273 17.8237L130.012 26.083L126.578 24.9962H119.753L117.579 26.083L112.102 29.2565L107.189 26.083L103.408 24.1268C103.408 24.1268 101.365 24.1268 100.451 24.7789C99.5819 25.4309 97.1044 27.0391 97.1044 27.0391L98.4524 32.1688L98.6698 36.8638C98.6698 36.8638 98.0177 38.2985 98.0177 39.3853C98.0177 40.472 103.626 41.6027 103.626 41.6027L109.452 37.9944L112.104 35.5169L119.059 36.8649H132.057L133.623 43.2987L127.362 44.6895L126.145 49.1672C126.145 49.1672 126.666 50.5152 126.014 50.9927C125.318 51.4274 121.537 54.3396 121.537 54.3396L130.927 61.9469L135.187 66.6419L138.534 65.2939L143.36 60.5989L150.185 57.4693C150.185 57.4693 152.88 59.6867 152.88 60.3815C152.88 61.0336 152.88 69.5542 152.88 69.5542L136.1 78.4655L144.534 82.8992L143.361 84.5513L136.97 89.4637L129.276 87.6809C129.276 87.6809 124.233 83.6819 123.321 83.6819C122.407 83.6819 114.756 79.595 114.756 79.595C114.756 79.595 109.888 80.0297 108.322 80.8564C106.757 81.6391 100.802 82.9859 100.802 82.9859H97.1067L91.0209 80.8564L89.2821 85.2473C89.2821 85.2473 87.0219 85.4647 86.3698 85.8994C85.7143 86.3341 80.8887 87.03 80.8887 87.03Z" fill="url(#paint7_linear_261_1697)"/>
<path d="M114.755 59.6299H118.279L119.377 61.0947L121.575 64.2081L120.659 66.2221L117.56 68.6025H116.448L114.755 64.1156H113.152H111.138L114.755 59.6299Z" fill="url(#paint8_linear_261_1697)"/>
<path d="M91.9087 72.4658L97.0361 74.6451L95.3886 76.4764L93.5573 75.5608L91.9087 72.4658Z" fill="url(#paint9_linear_261_1697)"/>
<path d="M70.678 86.3652L73.2307 88.563H74.3291C74.3291 88.563 74.4921 91.3504 73.6759 91.0625C72.8585 90.7747 70.063 89.711 70.063 89.711L70.678 86.3652Z" fill="url(#paint10_linear_261_1697)"/>
<path d="M91.0278 31.2451L93.7401 32.8937C93.7401 32.8937 94.8384 34.5424 94.4731 35.2742C94.1077 36.006 94.3991 37.1298 92.7874 36.843C91.177 36.5563 80.8887 34.0672 80.8887 34.0672L91.0278 31.2451Z" fill="url(#paint11_linear_261_1697)"/>
<path d="M111.869 39.3779H113.884L114.755 40.5849V42.4162H110.446L111.869 39.3779Z" fill="url(#paint12_linear_261_1697)"/>
<path d="M146.479 105.08H151.424V107.241L148.14 107.973L146.479 105.08Z" fill="url(#paint13_linear_261_1697)"/>
<path d="M100.464 119.51L107.291 120.243L106.375 123.539H104.728L100.464 119.51Z" fill="url(#paint14_linear_261_1697)"/>
</g>
<g opacity="0.48">
<path d="M100.79 17.8339C108.764 17.8339 115.227 14.7401 115.227 10.9238C115.227 7.10744 108.764 4.01367 100.79 4.01367C92.8162 4.01367 86.3523 7.10744 86.3523 10.9238C86.3523 14.7401 92.8162 17.8339 100.79 17.8339Z" stroke="#612209" stroke-width="2.2358" stroke-miterlimit="10"/>
<path d="M100.79 17.834V143.866" stroke="#612209" stroke-width="2.2358" stroke-miterlimit="10"/>
<path d="M112.194 14.9295C112.194 14.9295 148.473 36.6633 148.138 82.2444C147.803 127.701 110.446 143.183 110.446 143.183M172.006 77.4096C172.006 77.4096 172.253 15.2659 114.755 9.19629M89.2796 16.007C89.2796 16.007 53.0006 37.7408 53.3359 83.3219C53.67 128.778 91.0277 143.183 91.0277 143.183M29.469 78.457C29.469 78.457 28.854 16.9931 86.3523 10.9235" stroke="#612209" stroke-width="2.2358" stroke-miterlimit="10"/>
<path d="M34.1055 51.4824C39.7809 76.5227 67.478 95.527 100.79 95.527C135.868 95.527 164.72 74.4544 168.19 47.4521" stroke="#612209" stroke-width="2.2358" stroke-miterlimit="10"/>
<path d="M46.93 26.0699C50.4412 41.0925 73.2167 52.686 100.789 52.686C127.014 52.686 148.901 42.1977 153.997 28.2457M30.4033 87.6863C35.9342 112.16 65.3424 130.838 100.789 130.838C135.834 130.838 164.977 112.581 170.978 88.5164C171.721 85.5337 172.11 82.4618 172.11 79.3241M124.673 5.19386C124.673 5.19386 114.912 3.60882 110.446 5.79041M91.1423 5.78926C91.1423 5.78926 84.9073 2.99954 70.6778 7.7431" stroke="#612209" stroke-width="2.2358" stroke-miterlimit="10"/>
</g>
</g>
</g>
<defs>
<linearGradient id="paint0_linear_261_1697" x1="44.753" y1="171.817" x2="-6.49957" y2="161.833" gradientUnits="userSpaceOnUse">
<stop stop-color="#EF8358"/>
<stop offset="1" stop-color="#FCE9E1"/>
</linearGradient>
<linearGradient id="paint1_linear_261_1697" x1="271.364" y1="140.575" x2="-43.1399" y2="220.782" gradientUnits="userSpaceOnUse">
<stop stop-color="#EF8358"/>
<stop offset="1" stop-color="#FCE9E1"/>
</linearGradient>
<linearGradient id="paint2_linear_261_1697" x1="1.65727" y1="127.616" x2="218.383" y2="127.616" gradientUnits="userSpaceOnUse">
<stop stop-color="#FEFBF9"/>
<stop offset="1" stop-color="#FCE4DB"/>
</linearGradient>
<linearGradient id="paint3_linear_261_1697" x1="76.1567" y1="203.143" x2="134.977" y2="78.1503" gradientUnits="userSpaceOnUse">
<stop stop-color="#F18F68"/>
<stop offset="1" stop-color="#AD3C10"/>
</linearGradient>
<linearGradient id="paint4_linear_261_1697" x1="106.147" y1="141.014" x2="131.128" y2="185.093" gradientUnits="userSpaceOnUse">
<stop stop-color="#F18F68"/>
<stop offset="1" stop-color="#AD3C10"/>
</linearGradient>
<linearGradient id="paint5_linear_261_1697" x1="138.09" y1="26.9595" x2="60.6731" y2="121.445" gradientUnits="userSpaceOnUse">
<stop stop-color="white"/>
<stop offset="0.15" stop-color="#F18F68"/>
<stop offset="0.393" stop-color="#E65015"/>
<stop offset="1" stop-color="#AD3C10"/>
</linearGradient>
<linearGradient id="paint6_linear_261_1697" x1="56.1869" y1="115.572" x2="143.64" y2="31.0834" gradientUnits="userSpaceOnUse">
<stop stop-color="#5D2109"/>
<stop offset="0.995" stop-color="#E95216"/>
</linearGradient>
<linearGradient id="paint7_linear_261_1697" x1="67.4868" y1="127.269" x2="154.94" y2="42.7808" gradientUnits="userSpaceOnUse">
<stop stop-color="#5D2109"/>
<stop offset="0.995" stop-color="#E95216"/>
</linearGradient>
<linearGradient id="paint8_linear_261_1697" x1="59.5791" y1="119.083" x2="147.032" y2="34.5952" gradientUnits="userSpaceOnUse">
<stop stop-color="#5D2109"/>
<stop offset="0.995" stop-color="#E95216"/>
</linearGradient>
<linearGradient id="paint9_linear_261_1697" x1="53.734" y1="113.033" x2="141.187" y2="28.5447" gradientUnits="userSpaceOnUse">
<stop stop-color="#5D2109"/>
<stop offset="0.995" stop-color="#E95216"/>
</linearGradient>
<linearGradient id="paint10_linear_261_1697" x1="50.5444" y1="109.732" x2="137.997" y2="25.2437" gradientUnits="userSpaceOnUse">
<stop stop-color="#5D2109"/>
<stop offset="0.995" stop-color="#E95216"/>
</linearGradient>
<linearGradient id="paint11_linear_261_1697" x1="31.1817" y1="89.6891" x2="118.635" y2="5.20069" gradientUnits="userSpaceOnUse">
<stop stop-color="#5D2109"/>
<stop offset="0.995" stop-color="#E95216"/>
</linearGradient>
<linearGradient id="paint12_linear_261_1697" x1="46.4496" y1="105.493" x2="133.902" y2="21.005" gradientUnits="userSpaceOnUse">
<stop stop-color="#5D2109"/>
<stop offset="0.995" stop-color="#E95216"/>
</linearGradient>
<linearGradient id="paint13_linear_261_1697" x1="96.2674" y1="157.059" x2="183.72" y2="72.5705" gradientUnits="userSpaceOnUse">
<stop stop-color="#5D2109"/>
<stop offset="0.995" stop-color="#E95216"/>
</linearGradient>
<linearGradient id="paint14_linear_261_1697" x1="81.9633" y1="142.253" x2="169.416" y2="57.765" gradientUnits="userSpaceOnUse">
<stop stop-color="#5D2109"/>
<stop offset="0.995" stop-color="#E95216"/>
</linearGradient>
<clipPath id="clip0_261_1697">
<rect width="220" height="220" fill="white"/>
</clipPath>
<clipPath id="clip1_261_1697">
<rect width="220" height="220" fill="white"/>
</clipPath>
</defs>
</svg>
