<svg width="259" height="264" viewBox="0 0 259 264" fill="none" xmlns="http://www.w3.org/2000/svg">
<path d="M227.06 100.302H189.636V267.267H227.06V100.302Z" fill="white"/>
<path d="M216.264 100.302H178.84V267.267H216.264V100.302Z" fill="#F2A15F"/>
<path d="M167.445 172.63H130.021V267.268H167.445V172.63Z" fill="#915626"/>
<path d="M156.651 172.63H119.228V267.268H156.651V172.63Z" fill="#9D5E2A"/>
<path d="M107.833 133.047H70.4092V267.267H107.833V133.047Z" fill="#FF7300"/>
<path d="M97.037 133.047H59.6133V267.267H97.037V133.047Z" fill="#FF7300"/>
<path d="M48.2197 186.664H10.7959V267.268H48.2197V186.664Z" fill="#E07722"/>
<path d="M37.4238 186.664H0V267.268H37.4238V186.664Z" fill="white"/>
<path d="M239.179 36.3458L238.225 39.5344L239.507 40.1688C239.507 40.1688 243.153 43.689 245.052 39.8372C245.793 38.3371 244.254 36.7108 242.723 37.387C242.701 37.3963 242.68 37.4065 242.658 37.4167C242.605 37.4408 242.558 37.374 242.6 37.3331L243.606 36.3755C243.777 36.212 243.788 35.9427 243.63 35.7662C243.485 35.6046 243.245 35.573 243.063 35.6919L241.84 36.4972C241.566 36.6774 241.233 36.7433 240.912 36.6811L239.179 36.3458Z" fill="#F4C29A"/>
<path d="M240.923 40.3852L239.425 44.2138L226.174 38.6929C222.568 35.3315 217 28.6236 217 28.6236L221.65 24L228.876 34.0535L240.923 40.3852Z" fill="white"/>
<path d="M202.821 91.7181L202.799 96.8906L207.325 96.91L207.347 91.7374L202.821 91.7181Z" fill="#F4C29A"/>
<path d="M202.585 99.6698L213.338 99.7153C213.499 99.7163 213.594 99.5751 213.647 99.3708C213.847 98.5989 213.338 97.8196 212.625 97.7045C211.312 97.4927 209.34 96.497 207.462 94.9933C207.417 94.958 207.363 94.9375 207.309 94.9375L202.891 94.919C202.753 94.918 202.637 95.035 202.622 95.1883L202.245 99.25C202.225 99.4748 202.383 99.6689 202.585 99.6698Z" fill="#353434"/>
<path d="M215.244 91.7454L215.222 96.918L219.749 96.9373L219.771 91.7647L215.244 91.7454Z" fill="#F4C29A"/>
<path d="M215.011 99.6959L225.763 99.7414C225.925 99.7423 226.02 99.6012 226.073 99.3968C226.272 98.625 225.763 97.8457 225.051 97.7305C223.738 97.5188 221.766 96.5231 219.888 95.0193C219.843 94.984 219.789 94.9636 219.735 94.9636L215.317 94.945C215.179 94.9441 215.063 95.0611 215.048 95.2144L214.671 99.2761C214.651 99.5008 214.808 99.695 215.011 99.6959ZM204.548 46.2808C204.703 45.0036 204.837 43.9401 204.945 43.1544C205.076 42.168 205.156 41.6172 205.156 41.6172L211.678 42.4633L211.674 42.337L220.728 41.6803C220.728 41.6803 220.778 42.2348 220.852 43.2268C220.915 44.0172 220.99 45.0872 221.071 46.3709C221.427 52.0636 220.644 93.6196 220.644 93.6196L214.38 93.5342L212.354 60.5798L208.273 93.6948L202.395 93.692C202.395 93.692 203.872 51.9447 204.548 46.2808Z" fill="#353434"/>
<path d="M259 267V24L229 24V267H259Z" fill="#FF7300"/>
<path d="M239.286 253.096V249.333H229.333V253.096H239.286Z" fill="#353434"/>
<path d="M239.286 261.763V258H229.333V261.763H239.286Z" fill="#353434"/>
<path d="M239.286 241.444V237.682H229.333V241.444H239.286Z" fill="#353434"/>
<path d="M239.285 229.792V226.029H229.332V229.792H239.285Z" fill="#353434"/>
<path d="M239.286 218.141V214.378H229.333V218.141H239.286Z" fill="#353434"/>
<path d="M249.988 206.487V202.725H229.333V206.487H249.988Z" fill="#353434"/>
<path d="M239.286 194.835V191.072H229.333V194.835H239.286Z" fill="#353434"/>
<path d="M239.286 183.184V179.421H229.333V183.184H239.286Z" fill="#353434"/>
<path d="M239.286 171.531V167.769H229.333V171.531H239.286Z" fill="#353434"/>
<path d="M239.286 159.879V156.116H229.333V159.879H239.286Z" fill="#353434"/>
<path d="M249.988 148.227V144.465H229.333V148.227H249.988Z" fill="#353434"/>
<path d="M239.286 136.574V132.812H229.333V136.574H239.286Z" fill="#353434"/>
<path d="M239.286 124.922V121.159H229.333V124.922H239.286Z" fill="#353434"/>
<path d="M239.285 113.269V109.507H229.332V113.269H239.285Z" fill="#353434"/>
<path d="M239.286 101.617V97.8545H229.333V101.617H239.286Z" fill="#353434"/>
<path d="M249.988 89.9657V86.2031H229.333V89.9657H249.988Z" fill="#353434"/>
<path d="M239.285 78.3124V74.5498H229.332V78.3124H239.285Z" fill="#353434"/>
<path d="M239.286 66.6601V62.8975H229.333V66.6601H239.286Z" fill="#353434"/>
<path d="M239.286 55.0087V51.2461H229.333V55.0087H239.286Z" fill="#353434"/>
<path d="M239.286 43.3564V39.5938H229.333V43.3564H239.286Z" fill="#353434"/>
<path d="M228.582 39.7925L228.089 43.0842L229.449 43.53C229.449 43.53 233.557 46.4967 234.891 42.4145C235.41 40.8244 233.656 39.433 232.237 40.32C232.217 40.3321 232.197 40.3451 232.178 40.3581C232.129 40.3897 232.073 40.3293 232.109 40.2838L232.969 39.1925C233.115 39.0067 233.088 38.7383 232.907 38.586C232.74 38.4466 232.497 38.4494 232.334 38.5934L231.238 39.564C230.992 39.7804 230.672 39.8937 230.345 39.8779L228.582 39.7925Z" fill="#F4C29A"/>
<path d="M229.833 39.8528L228.893 43.8551L214.238 39.6197C210.192 36.8035 205.755 30.6901 205.755 30.6901L209.222 24.5664L216.252 34.6431L229.833 39.8528Z" fill="white"/>
<path d="M216.706 22.5C216.76 22.0783 216.706 20.07 216.706 20.07C216.706 20.07 218.6 19.8801 218.787 19.7987C219.16 19.6359 219.789 18.3396 219.912 16.7531C220.034 15.1677 219.999 13.55 219.981 12.881C219.962 12.213 219.883 9.51814 217.671 8.4212C215.459 7.3253 212.457 8.4452 211.582 10.8844C210.707 13.3225 210.975 15.2481 211.372 16.0194C211.768 16.7907 212.061 18.1308 212.091 18.6475C212.102 18.85 212.147 21.7861 212.091 22.5C211.986 23.837 212.802 23.2829 214 23.5C215.283 23.7307 216.523 23.9236 216.706 22.5Z" fill="#F4C29A"/>
<path d="M212.732 12.8705C212.894 13.1278 213.094 13.7166 213.094 13.7166C213.461 13.3228 214.034 10.646 213.729 9.91966C213.86 10.4101 217.787 9.8147 218.808 9.57693C219.02 9.5277 219.297 9.62244 219.415 9.84814C219.543 10.0924 219.838 11.2618 219.902 11.5646C219.963 11.1318 219.962 10.7092 219.985 10.2745C220.006 9.863 221.365 8.34253 220.827 7.53539C220.046 6.36323 215.192 6.79049 214.605 6.89173C213.96 7.00226 211.929 7.71001 211.749 8.61746C211.011 8.97134 210.491 9.40231 210.532 10.7937C210.551 11.4633 210.599 12.1395 210.642 12.8101C210.685 13.4761 210.895 14.0445 211.097 14.677C211.27 15.2176 211.489 15.7396 211.679 16.2727C211.712 16.3666 211.978 17.1458 212.157 17.091C212.188 17.0817 212.413 16.4102 212.468 16.2374C212.555 15.9644 212.553 15.6848 212.563 15.4043C212.567 15.2993 212.594 15.1777 212.548 15.0783C212.476 14.9232 212.29 14.9399 212.15 14.899C211.705 14.7681 211.489 14.3167 211.433 13.8876C211.373 13.425 211.415 12.8166 211.928 12.6272C212.194 12.5287 212.529 12.603 212.706 12.8324C212.715 12.8445 212.724 12.8566 212.732 12.8705Z" fill="#323131"/>
<path d="M220.923 52C221.243 52.0008 221.506 51.7858 221.516 51.4988C221.599 48.9445 221.968 37.2272 221.989 29.9759L222 25.8545C222.006 23.7403 220.097 22.0218 217.73 22.0142C216.526 22.0109 213.416 22.005 210.41 22C206.605 21.9933 203.521 24.7484 203.531 28.1461C203.55 35.5062 203.1 48.65 203 51.4369C202.99 51.7348 203.258 51.9657 203.591 51.9665L220.923 52Z" fill="white"/>
</svg>
