<svg width="287" height="261" viewBox="0 0 287 261" fill="none" xmlns="http://www.w3.org/2000/svg">
<path d="M198.49 124.181C198.933 127.502 199.516 128.47 201.469 130.218C202.727 131.344 204.05 132.397 205.43 133.369C200.688 137.107 200.88 137.001 200.613 137.064C200.342 137.127 200.064 137.011 199.813 136.889C196.336 135.193 193.736 131.801 193.002 128.002C191.838 121.983 194.995 117.23 194.332 105.911C194.077 101.557 192.969 98.2631 193.116 98.0327C193.152 97.9771 193.223 97.9582 193.287 97.9438C194.454 97.6828 194.791 97.3839 195.171 98.6178C195.441 99.497 195.669 100.39 195.871 101.288C197.413 108.136 197.064 113.51 198.49 124.181Z" fill="#FF7A33"/>
<path d="M179.28 206.679C173.77 208.46 168.505 207.812 162.853 208.585C156.11 209.515 149.894 213.725 146.515 219.643C141.788 227.948 142.77 238.441 138.774 247.128C135.955 253.236 130.805 258.071 124.875 261.361C118.972 264.635 112.335 266.458 105.747 267.65C86.0367 271.225 65.6817 269.43 47.3299 263.116C32.8242 258.099 18.2013 245.795 10.9655 232.602C8.60982 228.303 6.92264 223.67 5.57506 218.958C1.22926 203.733 0.42485 187.509 3.2455 171.933C4.358 165.78 6.02426 159.742 7.0793 153.584C9.35971 140.229 10.0376 123.674 6.45253 110.555C4.33832 102.795 1.05974 97.2194 3.6111 84.95C5.94937 73.7246 12.5326 63.141 22.5141 57.6845C32.5324 52.2157 46.0659 52.8477 54.4441 60.5991C59.3114 65.1003 62.107 71.4219 66.7814 76.0966C73.3978 82.7048 82.7183 85.2677 92.1666 85.8327C94.5536 85.9737 97.3846 85.5193 99.6724 86.308C103.224 87.5355 107.131 90.7896 110.124 93.0356C117.541 98.6036 123.663 106.089 126.572 114.979C128.609 121.205 129.048 127.838 129.173 134.388C129.252 138.447 129.299 142.803 131.628 146.13C135.118 151.113 142.456 151.766 148.228 149.849C154 147.927 158.899 144.057 164.384 141.434C170.996 138.264 178.669 136.958 185.768 138.771C197.567 141.785 206.086 153.422 207.084 165.561C208.529 183.228 195.46 201.478 179.28 206.679Z" fill="#61132A"/>
<path d="M76.1676 186.238C75.1291 204.239 76.1805 228.483 65.8256 243.913C62.4044 249.011 57.5467 253.284 51.7383 255.274C46.5729 257.042 39.2488 257.388 32.1197 255.263C23.4073 249.262 15.6664 241.171 10.9655 232.599C8.60982 228.301 6.92264 223.668 5.57506 218.956C1.22926 203.73 0.42485 187.507 3.2455 171.931C4.358 165.778 6.02426 159.74 7.0793 153.582C8.42695 145.689 9.2209 136.627 8.89183 127.82C9.96779 126.593 11.1065 125.386 12.3444 124.436C13.4361 123.59 16.732 122.66 16.7633 121.041C16.7772 120.263 16.8872 120.036 17.411 119.526C19.751 117.223 22.0911 114.919 24.4363 112.616C26.3323 112.581 28.1907 112.71 30.0886 112.513C30.8693 112.432 31.6681 99.8469 31.7228 98.732C29.371 95.696 27.5652 91.8931 27.0166 88.0766C25.5889 87.8081 24.588 86.6497 23.7469 85.4859C20.6714 81.2308 17.883 72.4855 16.6379 67.3819C15.7879 63.8935 15.9178 61.0562 16.5492 58.8367C16.779 58.0218 17.1185 57.207 17.6095 56.528L11.6863 49.8108L14.721 18.5391L20.5292 44.1331L26.9382 48.8863C28.1291 48.1185 29.5708 47.7006 30.9915 47.5909C35.8439 47.2253 40.336 49.9571 45.0943 50.9704L53.1121 44.2689L57.4683 19.2024L62.2163 49.8108L59.73 52.5165C61.6098 53.3691 62.1431 54.6649 61.7619 56.4339C61.5007 57.651 60.9105 58.8001 60.08 59.7246C64.4094 59.6167 68.2361 65.9226 63.308 71.9889C62.373 73.1484 61.2187 74.1461 59.9911 74.8669C58.6853 75.6347 57.3169 75.9586 55.9274 76.0056C55.9274 82.6004 56.1777 86.7559 56.5334 90.2651C56.6692 90.4897 60.7381 97.2643 53.4516 104.086C53.4516 104.086 51.6862 104.932 49.017 105.423C49.0188 105.488 49.2156 112.903 49.2104 112.704C56.5386 112.887 63.8564 113.237 71.1481 113.786C69.8632 119.087 67.6329 124.159 64.6033 128.698C68.0663 129.502 71.8584 128.782 74.7835 126.755C74.3134 127.084 75.802 136.099 75.9797 137.123C76.6112 140.713 78.0312 141.26 78.774 148.714C80.0329 161.197 76.8833 173.796 76.1676 186.238Z" fill="#FFDECD"/>
<path d="M200.968 158.005C200.896 158.495 200.807 159.02 200.461 159.376C199.948 159.905 199.036 159.838 198.428 159.42C197.82 159.003 197.449 158.327 197.119 157.667C197.154 158.723 197.064 159.783 196.851 160.817C196.658 161.759 196.34 162.822 195.476 163.365C195.073 163.618 194.542 163.705 194.115 163.493C192.656 162.77 193.252 159.461 192.778 157.641C192.528 156.678 191.99 155.792 191.251 155.126C190.318 154.284 189.331 153.981 188.681 151.77C187.818 148.836 188.586 146.467 191.205 144.84C193.063 143.685 195.481 143.237 197.465 144.16" fill="#FFB48B"/>
<path d="M191.771 146.93C193.506 146.364 195.334 146.083 197.16 146.102C195.528 142.938 192.184 141.301 189.065 139.817C188.099 139.357 187.757 139.313 186.699 139.703C185.816 140.029 184.036 140.684 183.382 141.239C181.77 142.606 182.066 145.162 181.847 146.888" fill="#FFD6C0"/>
<path d="M247.314 182.541L251.405 181.042C251.405 181.042 239.766 192.488 224.304 192.796C208.843 193.104 199.553 192.387 194.93 189.334C190.306 186.282 229.009 177.271 229.009 177.271L241.628 182.924L247.314 182.541Z" fill="#FFDECD"/>
<path d="M192.415 133.123L184.811 132.693C184.811 132.693 192.961 141.164 192.083 150.792C191.205 160.421 200.744 142.653 200.744 142.653L201.775 135.369" fill="#FFEADE"/>
<path d="M190.375 131.288L186.956 131.323C186.956 131.323 192.16 136.779 192.327 147.325C192.493 157.87 198.212 139.362 198.212 139.362L197.913 134.53" fill="#FFB68E"/>
<path d="M187.025 130.112L234.33 135.293C234.33 135.293 240.022 139.148 237.975 151.494C235.928 163.84 236.012 168.02 236.777 171.532C237.542 175.044 240.045 183.527 247.314 182.539C247.314 182.539 229.462 191.984 202.793 186.455C202.793 186.455 200.724 191.679 194.93 189.332C191.281 187.854 190.327 176.567 190.12 168.411C190.012 164.111 190.227 159.811 190.759 155.543C191.767 147.451 193.081 130.858 187.025 130.112Z" fill="black"/>
<path d="M196.713 190.282C196.713 190.282 201.273 191.475 205.877 188.2C205.877 188.2 233.554 191.986 246.696 184.827C246.696 184.827 243.717 189.249 236.491 192.012C230.023 194.484 210.447 193.175 206.403 192.873C204.546 192.734 198.363 191.421 196.713 190.282Z" fill="#FFB68E"/>
<path d="M226.889 144.626C226.855 145.23 226.338 145.681 225.745 145.647L205.642 144.51C205.046 144.476 204.587 143.965 204.621 143.366C204.654 142.774 205.166 142.311 205.765 142.345L225.868 143.482C226.467 143.515 226.923 144.029 226.889 144.626Z" fill="white"/>
<path d="M221.332 138.211L221.302 138.745L227.402 139.09L227.433 138.556L221.332 138.211Z" fill="white"/>
<path d="M228.773 138.631L228.743 139.165L232.4 139.371L232.43 138.837L228.773 138.631Z" fill="white"/>
<path d="M232.8 153.083C228.673 152.839 224.306 152.592 220.119 152.366L220.148 151.832C224.336 152.058 228.704 152.305 232.831 152.55L232.8 153.083ZM216.983 152.189C210.84 151.831 204.471 151.47 198.307 151.133L198.336 150.599C204.501 150.936 210.87 151.297 217.014 151.655L216.983 152.189ZM231.378 160.418C223.184 160.013 214.895 159.544 206.74 159.025L206.775 158.491C214.926 159.01 223.213 159.479 231.404 159.884L231.378 160.418ZM203.455 158.839C201.33 158.777 199.116 158.652 196.875 158.466L196.919 157.933C199.151 158.118 201.355 158.243 203.47 158.304L203.455 158.839ZM230.953 167.81C228.026 167.59 224.918 167.414 221.963 167.301L221.984 166.766C224.944 166.88 228.06 167.056 230.993 167.276L230.953 167.81ZM217.406 167.043C210.499 166.598 203.454 166.2 196.466 165.859L196.492 165.325C203.483 165.666 210.531 166.064 217.44 166.509L217.406 167.043Z" fill="white"/>
<path d="M197.082 172.773L197.052 173.308L231.546 175.259L231.577 174.724L197.082 172.773Z" fill="white"/>
<path d="M203.63 184.556C201.223 184.419 199.395 182.362 199.531 179.966C199.666 177.569 201.719 175.727 204.121 175.867C206.527 176.003 208.356 178.061 208.22 180.457C208.085 182.848 206.029 184.692 203.63 184.556ZM200.065 179.996C199.946 182.102 201.554 183.903 203.66 184.022C205.762 184.151 207.567 182.528 207.686 180.427C207.805 178.321 206.197 176.52 204.091 176.401C202.002 176.282 200.185 177.874 200.065 179.996Z" fill="white"/>
<path d="M203.874 183.477C205.679 183.477 207.142 182.014 207.142 180.21C207.142 178.405 205.679 176.942 203.874 176.942C202.07 176.942 200.607 178.405 200.607 180.21C200.607 182.014 202.07 183.477 203.874 183.477Z" fill="white"/>
<path d="M203.875 181.572C204.627 181.572 205.237 180.962 205.237 180.21C205.237 179.458 204.627 178.849 203.875 178.849C203.123 178.849 202.513 179.458 202.513 180.21C202.513 180.962 203.123 181.572 203.875 181.572Z" fill="white"/>
<path d="M223.711 183.659L224.231 183.531C224.671 185.312 227.383 185.449 227.849 182.974C228.147 181.384 227.297 179.965 227.702 178.769C228.075 177.664 229.508 177.233 230.119 178.408C230.878 179.865 229.493 181.407 229.757 182.721C229.925 183.564 230.759 184.056 231.146 183.987C231.461 183.928 231.614 183.463 231.574 183.067C231.526 182.569 231.317 182.06 231.425 181.497C231.614 180.516 232.708 180.715 232.81 181.611C232.877 182.21 232.469 182.831 234.043 182.967C234.354 182.994 234.673 183.021 234.953 182.942C235.887 182.677 236.419 181.269 237.614 181.187L237.65 181.721C236.736 181.783 236.199 183.145 235.1 183.456C234.724 183.563 234.338 183.529 233.997 183.5C231.919 183.32 232.334 182.16 232.278 181.671C232.264 181.539 232.147 181.361 232.07 181.379C232.028 181.392 231.975 181.472 231.95 181.599C231.868 182.022 232.058 182.513 232.107 183.013C232.17 183.651 231.889 184.393 231.245 184.512C230.572 184.643 229.457 183.954 229.232 182.826C228.945 181.391 230.256 179.828 229.644 178.655C229.584 178.54 229.479 178.384 229.318 178.301C228.908 178.087 228.361 178.489 228.209 178.94C227.881 179.911 228.686 181.42 228.375 183.073C228.205 183.976 227.696 184.737 227.014 185.11C225.756 185.8 224.079 185.144 223.711 183.659Z" fill="white"/>
<path d="M168.756 157.485C168.756 157.485 181.82 160.375 186.447 174.351C186.447 174.351 178.462 177.202 177.835 177.28C177.208 177.358 163.185 167.957 163.185 167.957" fill="#471900"/>
<path d="M205.991 145.102C204.246 147.795 202.237 150.32 200.003 152.625C195.789 156.982 191.737 164.808 187.229 168.743C186.909 169.025 186.564 169.283 186.21 169.532C184.78 170.532 183.183 171.33 181.978 172.516C181.939 172.555 181.896 172.598 181.858 172.641C180.906 173.583 180.045 174.611 179.223 175.673C178.941 176.036 178.663 176.405 178.386 176.778C178.094 177.175 177.802 177.572 177.515 177.969C176.698 177.371 175.88 176.773 175.067 176.166C171.47 173.506 167.921 170.776 164.416 167.982C164.162 167.786 163.923 167.595 163.67 167.385C163.795 167.385 167.873 164.039 168.247 163.759C169.774 162.601 171.463 161.283 172.838 159.967C175.813 157.121 177.845 153.491 179.252 149.636C180.131 147.221 180.825 144.696 182.269 142.534C182.831 141.691 183.232 141.539 184.23 141.941C187.076 143.079 189.692 144.768 191.916 146.877C190.988 148.374 189.969 149.923 189.716 151.702C189.706 151.784 189.692 151.865 189.716 151.942C189.831 152.248 190.295 152.08 190.539 151.87C193.8 149.12 197.158 146.489 200.611 143.978C201.856 143.077 203.747 141.72 205.269 142.018C205.857 142.128 206.412 142.534 206.575 143.103C206.771 143.792 206.383 144.5 205.991 145.102Z" fill="#FFD6C0"/>
<path d="M186.21 169.53C184.78 170.53 183.183 171.329 181.978 172.515C181.939 172.553 181.896 172.596 181.858 172.639C180.906 173.581 180.045 174.61 179.223 175.671C178.941 176.035 178.663 176.403 178.386 176.776C177.267 176.661 176.152 176.456 175.067 176.164C171.47 173.505 167.921 170.774 164.416 167.981C164.162 167.785 163.923 167.594 163.67 167.383C163.745 167.383 170.404 162.08 170.743 161.802C175.397 165.284 180.528 168.426 186.21 169.53Z" fill="#FFB48B"/>
<path d="M102.527 155.257L129.196 183.188L168.756 157.484C172.524 166.457 178.178 172.461 186.447 174.35L141.116 209.033C137.266 212.17 132.302 213.599 127.373 212.988L79.7192 182.952" fill="white"/>
<path d="M63.6548 110.53C64.5421 112.851 65.7327 115.055 67.1867 117.07C67.7034 117.786 68.2633 118.487 68.9801 119.003C71.1667 120.575 73.2749 119.484 74.3479 116.941C75.7746 113.56 75.1707 109.812 74.5684 106.259" fill="black"/>
<path d="M90.6639 150.908C94.2164 153.202 98.8981 153.892 101.58 157.161C102.808 158.659 103.461 160.537 104.023 162.391C105.922 168.65 107.06 175.108 108.424 181.504C108.954 183.99 109.919 186.445 110.39 188.894C110.944 191.775 110.468 195.178 110.602 198.125C110.895 204.54 111.545 210.939 112.549 217.282C112.832 219.065 113.543 221.249 115.335 221.461C116.452 221.594 117.473 220.838 118.256 220.03C121.388 216.803 120.76 213.724 120.797 209.502C120.845 204.033 120.243 172.235 118.225 158.652C115.299 160.675 111.509 161.398 108.044 160.595C111.075 156.056 113.302 150.983 114.592 145.68C99.0743 144.513 83.4342 144.266 67.875 144.51C68.0186 144.73 67.523 146.299 67.4483 146.609C67.0017 148.461 66.9991 150.765 68.0794 152.345C69.0797 153.809 70.8825 154.527 72.6386 154.769C74.4071 155.013 76.212 154.905 77.9859 154.932C78.9619 154.946 80.2751 156.694 81.4349 157.876C85.4466 161.966 91.6982 162.934 96.7607 160.241C101.765 157.579 98.7444 154.339 99.0872 151.3L90.6639 150.908Z" fill="#FF813D"/>
<path d="M94.3634 169.612C93.6372 171.871 92.4037 174.303 90.1306 174.989C89.1507 175.283 88.0963 175.203 87.0866 175.029C80.2626 173.818 74.9715 168.324 74.0351 161.45C73.5082 157.543 74.4097 153.501 73.1597 149.727L73.1547 149.717V149.712L72.3738 146.802C73.8752 145.509 75.1669 143.912 76.149 142.142C77.4728 144.071 80.6367 144.153 82.9383 144.221C86.892 144.331 87.5564 144.216 89.3795 143.952C90.0062 143.868 90.3197 143.499 90.7026 142.992C91.477 147.638 92.5242 147.06 94.0501 149.801C94.8857 151.284 95.2985 152.806 95.5671 154.427C96.4055 159.317 96.061 164.344 94.3634 169.612Z" fill="#FFD6C0"/>
<path d="M92.8795 152.94C76.0398 151.883 79.7736 152.11 70.1506 151.511C70.8547 150.735 71.4342 149.887 71.9538 148.896V148.891C75.2978 142.59 74.9582 131.688 75.5659 122.322C76.3338 122.901 71.3923 119.174 92.3952 135.014C92.4187 135.885 92.8813 153.01 92.8795 152.94Z" fill="#FFD6C0"/>
<path d="M96.836 172.238C95.984 174.887 94.5368 177.741 91.87 178.546C90.7205 178.89 89.4834 178.797 88.2988 178.593C80.2929 177.172 74.0853 170.727 72.9867 162.662C72.4965 159.027 73.0625 155.251 72.5782 151.657C72.1795 151.633 70.0119 151.502 70.1507 151.511C70.8547 150.735 71.4342 149.887 71.9538 148.896V148.891L71.0377 145.477C72.1755 144.497 73.1967 143.382 74.0837 142.168C75.1563 136.456 75.1314 129.019 75.5659 122.322C76.3339 122.901 71.3923 119.174 92.3952 135.014C92.3967 135.068 92.4636 137.471 92.4594 137.319C91.6833 137.669 90.7905 137.768 89.9269 137.815C85.3694 138.083 80.526 137.196 77.0482 134.244C77.0482 136.455 76.7564 138.661 76.1904 140.791C75.7645 142.344 75.0775 144.568 73.9437 145.71C76.4472 149.209 80.2129 151.722 82.7318 155.111C85.5911 158.951 88.3163 162.826 90.6621 167.01C93.1189 161.705 95.2137 156.232 96.9235 150.641C97.437 151.878 97.8805 153.139 98.2482 154.423C99.2319 160.159 98.8277 166.057 96.836 172.238Z" fill="#FFB48B"/>
<path d="M127.261 259.92C120.928 264.09 113.207 266.286 105.75 267.649C92.7253 270.009 79.1675 270.061 66.0051 267.847C67.1291 258.456 70.2386 232.475 71.2767 223.801C118.809 211.49 109.042 214.019 120.807 210.975C128.177 266.863 126.997 257.922 127.261 259.92Z" fill="#FF813D"/>
<path d="M114.932 235.118C114.917 236.533 114.875 237.996 114.723 239.437C114.368 242.859 113.433 246.16 110.91 248.364C108.743 250.26 105.791 250.955 102.945 251.43C99.2937 252.041 95.6113 252.402 91.9132 252.511C88.9359 252.592 85.6468 252.38 83.5716 250.26C80.1034 246.703 81.1219 240.587 81.1481 236.147C81.1794 231.592 81.1115 227.016 80.96 222.462C80.8033 217.724 80.1817 212.987 79.1684 208.364C71.4305 172.881 71.3848 171.783 69.4583 167.649C68.5704 165.747 67.4161 163.648 68.1525 161.694C69.1032 159.161 72.4147 158.701 75.1152 158.644C77.2254 158.607 79.158 159.38 80.8869 160.581C83.6636 162.52 86.7524 167.65 88.7374 170.945C89.3735 172.02 90.0627 172.303 90.8633 171.357C92.9092 168.974 93.4212 165.176 98.8759 156.889L103.629 158.205C106.141 158.79 108.309 160.691 109.208 163.115C113.121 173.576 113.031 186.653 113.809 197.615C114.702 210.093 115.073 222.608 114.932 235.118Z" fill="#FFF2EB"/>
<path d="M88.1206 244.068C87.7602 246.685 87.2013 249.448 86.1045 251.84C85.1538 251.501 84.292 250.994 83.5712 250.258C80.103 246.701 81.1215 240.584 81.1476 236.144C81.1789 231.59 81.111 227.014 80.9595 222.459C80.8028 217.722 80.1813 212.984 79.168 208.362C77.2145 199.404 75.261 190.446 73.3022 181.493L75.7833 177.602C78.4054 180.861 80.1603 184.726 81.6647 188.628C88.4393 206.168 90.6801 225.436 88.1206 244.068ZM114.934 235.113C114.914 236.056 115.29 238.769 114.549 239.45C113.75 240.184 110.983 239.358 109.998 239.25C109.352 231.371 109.66 223.459 109.921 215.569C110.175 207.909 110.024 200.268 110.467 192.629C110.968 184.008 111.278 177.198 110.577 167.463C113.112 177.057 113.126 187.976 113.81 197.613C114.7 210.091 115.073 222.607 114.934 235.113Z" fill="#FFDECD"/>
<path d="M116.327 265.038C108.42 267.665 98.0103 269.09 89.5783 269.387L89.5735 268.562C89.5663 268.615 89.4553 269.446 89.4625 269.392C82.2597 269.744 72.3139 269.099 63.5293 267.403C64.3068 263.937 70.9636 234.268 71.6201 231.342C78.5537 231.178 114.418 230.331 114.961 230.318L116.327 265.038Z" fill="#FF7A33"/>
<path d="M80.7247 258.274C80.4013 261.953 80.0827 265.641 79.7496 269.324C74.9014 269.119 68.8267 268.426 63.5293 267.403C64.3068 263.938 70.9636 234.268 71.6201 231.342C73.7091 231.293 66.2963 231.466 81.7964 231.105L81.9461 231.207C82.3084 240.341 81.5012 249.311 80.7247 258.274ZM111.427 266.71C111.282 266.71 111.163 266.594 111.16 266.448C110.788 249.011 110.799 244.395 110.067 239.458C110.045 239.311 110.146 239.176 110.292 239.154C110.435 239.133 110.575 239.234 110.596 239.379C111.333 244.342 111.314 248.57 111.695 266.437C111.698 266.584 111.581 266.707 111.433 266.71C111.431 266.71 111.429 266.71 111.427 266.71ZM83.0842 235.752C83.0727 235.605 83.1824 235.477 83.3297 235.465C85.6838 235.28 83.505 235.432 108.839 235.374C108.987 235.374 109.106 235.493 109.106 235.641C109.106 235.789 108.987 235.909 108.839 235.909C90.6205 235.932 85.3125 235.849 83.3715 235.998C83.2459 236.016 83.0961 235.912 83.0842 235.752Z" fill="#F45500"/>
<path d="M75.0653 97.0114C74.4154 98.4289 75.298 100.025 75.5491 101.558C75.9835 104.246 74.1096 107.133 71.4152 107.808C70.7783 112.306 70.2737 116.935 71.3067 121.36C72.3281 125.722 74.8691 129.719 78.3901 132.489C82.3517 135.607 87.6064 137.289 92.6412 136.601C94.463 136.353 96.3392 135.67 97.7078 134.402C100.941 131.41 100.493 127.17 100.103 123.2C99.6756 118.876 99.3448 114.512 99.4134 109.21C99.421 108.823 99.2602 106.614 99.5052 106.451C97.8397 107.565 96.3655 107.154 94.672 106.335C90.3082 104.238 86.2476 101.501 82.6566 98.2519C81.5373 97.2426 80.4122 96.1517 78.9784 95.6928C77.5471 95.2296 75.696 95.6436 75.0653 97.0114Z" fill="#FFD6C0"/>
<path d="M76.05 106.766C76.2426 107.267 77.3412 119.725 77.3412 119.725C77.3412 119.725 81.5731 118.444 83.2637 121.283C83.2637 121.283 91.459 114.364 99.97 121.842C99.97 121.842 104.307 128.731 96.8954 135.67C96.8954 135.67 81.0423 143.281 72.3748 125.799C72.3748 125.799 69.8644 120.909 70.3616 116.328C70.8588 111.747 70.9035 103.153 70.9035 103.153" fill="black"/>
<path d="M94.3237 106.871C97.3915 107.695 100.564 108.139 103.434 106.448C107.521 104.041 110.769 98.6313 108.128 94.1253C107.173 92.4965 105.41 91.26 103.522 91.3101C104.663 90.0396 105.668 87.7335 105.216 86.1746C104.767 84.6233 103.014 83.8775 101.43 83.5626C97.3849 82.7582 93.1639 83.4042 89.1064 82.6648C84.1315 81.7582 79.4779 78.792 74.4357 79.1768C72.3549 79.3356 70.2408 80.1435 68.9207 81.7598C67.6006 83.3761 67.284 85.8815 68.5232 87.5607C66.5967 86.7133 64.3399 85.8697 62.4736 86.8425C61.149 87.533 60.3986 88.9848 59.9906 90.4218C59.2041 93.1922 59.3952 96.167 60.0787 98.9646C60.921 102.412 62.5796 105.505 63.2844 108.957C63.4876 109.952 63.7392 110.984 64.3969 111.758C65.0545 112.532 66.2403 112.953 67.1175 112.441C68.577 111.588 67.9581 109.945 68.362 108.659C68.5852 107.948 69.2362 107.303 69.9786 107.37C70.8666 107.45 71.4465 108.36 72.3167 108.578C73.3924 108.848 74.609 108.709 75.4971 108.021C76.434 107.295 76.9867 106.185 77.4129 105.079C78.0231 103.496 78.4391 101.837 78.6485 100.153C79.4065 101.76 80.7236 102.976 82.2334 103.896C82.9545 104.335 83.7844 104.705 84.6186 104.574C85.4527 104.443 86.2179 103.622 86.0054 102.805C86.2192 103.627 89.156 104.838 89.8896 105.2C91.3078 105.899 92.795 106.46 94.3237 106.871Z" fill="black"/>
<path d="M70.3687 105.198C69.7926 104.288 68.5608 103.837 67.5215 103.856C64.0569 103.919 62.9158 108.307 64.2109 111.412C65.3612 114.171 68.128 115.704 70.0861 115.333C70.6173 115.232 71.0337 115.097 71.2709 114.595C71.5497 114.006 71.6442 113.345 71.6846 112.701C71.8105 110.69 71.4525 108.678 70.9493 106.727C70.813 106.199 70.6624 105.665 70.3687 105.198Z" fill="#FFD6C0"/>
<path d="M68.0862 110.394C68.3884 109.743 68.7188 108.962 68.2924 108.314C68.092 108.01 67.7004 107.818 67.35 107.919C66.9789 108.026 66.7511 108.427 66.7363 108.813C66.7215 109.199 66.8774 109.571 67.0575 109.913C67.1811 110.147 67.6705 111.017 67.9225 111.1C68.1382 111.17 68.363 110.96 68.3971 110.736C68.4312 110.512 68.3348 110.29 68.2406 110.084M89.6383 117.024C89.7016 116.89 89.862 116.835 89.9947 116.897C90.2251 117.006 90.538 116.827 90.6645 116.597C91.0575 115.882 90.4846 114.246 89.5093 113.324C89.4022 113.223 89.3975 113.053 89.4988 112.946C89.6007 112.839 89.7695 112.833 89.8771 112.935C90.5944 113.614 91.0887 114.522 91.2684 115.494C91.7052 117.846 89.3137 117.711 89.6383 117.024Z" fill="#FFB48B"/>
<path d="M86.2655 108.835C84.9913 107.722 83.0715 107.663 81.729 108.759C81.6151 108.851 81.4469 108.835 81.3523 108.721C81.2593 108.606 81.276 108.438 81.3904 108.344C82.1193 107.749 83.0994 107.407 84.02 107.432C84.962 107.448 85.9087 107.813 86.6177 108.433C86.729 108.53 86.7404 108.699 86.6427 108.81C86.546 108.921 86.377 108.933 86.2655 108.835ZM93.8344 108.766C93.754 108.642 93.7884 108.477 93.9123 108.396C94.9363 107.727 96.3161 107.626 97.4284 108.139C97.5627 108.202 97.6207 108.36 97.559 108.495C97.4964 108.629 97.338 108.687 97.2038 108.625C96.2566 108.187 95.0784 108.273 94.2048 108.844C94.0823 108.924 93.9168 108.891 93.8344 108.766ZM96.8534 111.116C96.9922 111.925 96.7705 112.637 96.3515 112.709C95.9401 112.78 95.4863 112.183 95.3476 111.374C95.2088 110.565 95.438 109.851 95.8494 109.781C96.2685 109.709 96.7147 110.307 96.8534 111.116ZM84.4269 110.875C84.5657 111.684 84.344 112.396 83.925 112.468C83.5136 112.539 83.0598 111.942 82.9211 111.133C82.7823 110.324 83.0115 109.61 83.4229 109.539C83.842 109.468 84.2882 110.065 84.4269 110.875Z" fill="black"/>
<path d="M84.7728 159.88C87.2113 163.739 88.922 167.464 89.8053 171.943C88.3414 171.221 87.1542 170.65 85.9981 169.498C83.066 166.575 80.2106 163.576 77.4358 160.504C78.8365 159.521 80.4851 158.894 82.185 158.699" fill="#FFDECD"/>
<path d="M89.8054 171.945C90.4371 172.003 91.2009 171.141 91.6259 170.768C97.2043 165.872 97.1303 162.237 102.815 158.721C103.627 158.218 104.536 157.779 105.49 157.83C102.189 153.533 97.744 150.124 92.738 148.051C94.1833 151.873 93.3958 156.52 92.4876 160.37C92.0328 162.298 91.598 164.23 91.1491 166.159C90.7027 168.077 90.0961 169.994 89.7336 171.926C89.755 171.936 89.779 171.942 89.8054 171.945Z" fill="white"/>
<path d="M81.5842 231.111C81.1898 242.932 79.4905 253.751 77.3601 269.185C66.0088 268.407 54.6271 265.972 43.5051 261.727C43.8754 253.654 43.7772 253.584 44.2727 180.548C44.2872 177.492 44.2196 174.548 43.9154 171.545C43.6932 169.342 43.7303 167.197 44.3647 165.055C44.7459 163.768 45.3633 161.796 46.3936 160.878C47.0195 160.321 48.0226 159.95 48.7563 159.541C53.1177 157.113 58.1315 154.576 60.9999 153.244C61.0277 153.298 78.3971 187.08 77.2974 184.941C80.2566 196.764 81.5552 208.929 81.7097 221.104C81.7518 224.721 81.6749 228.842 81.5842 231.111Z" fill="white"/>
<path d="M42.9719 275.422C42.9719 275.422 57.638 272.085 57.7788 261.349L50.3753 259.012C50.3753 259.012 43.3506 264.986 42.9719 265.073" fill="#471900"/>
<path d="M74.4664 288.322C74.3898 288.934 73.9738 289.551 73.3616 289.661C72.7302 289.781 72.142 289.336 71.6733 288.896C70.2768 287.586 69.1003 286.046 68.1915 284.362C69.0428 286.113 69.6072 287.987 69.8559 289.92C69.9372 290.556 69.9372 291.316 69.4255 291.704C69.0811 291.967 68.5837 291.971 68.182 291.799C67.7755 291.641 67.4406 291.34 67.1346 291.029C65.6758 289.566 64.5615 287.815 63.5571 285.998C64.1009 287.068 65.3751 289.781 65.1928 290.972C65.1354 291.441 64.8436 291.905 64.3989 292.058C63.5907 292.33 62.8493 291.536 62.3615 290.828C61.9454 290.216 61.5197 289.599 61.1036 288.997C61.3858 289.48 61.6489 289.972 61.8928 290.479C62.0602 290.8 62.2084 291.144 62.2228 291.508C62.2323 291.861 62.065 292.258 61.7349 292.397C61.3189 292.579 60.855 292.34 60.4819 292.091C48.0799 283.969 48.855 279.141 47.1192 276.586C46.4353 275.543 45.5314 274.677 44.6992 273.726C43.4222 272.253 42.1452 270.78 40.8635 269.311C53.3993 259.001 52.7398 259.393 53.0401 259.411C53.1501 259.421 53.2457 259.483 53.3366 259.545C55.5127 261.052 57.311 262.788 58.9515 264.82C59.7215 265.772 60.9171 266.394 61.8784 267.145C63.0024 268.025 64.0785 268.976 65.0063 270.072C68.8983 274.726 71.5287 279.84 73.6963 285.553C74.0502 286.471 74.6003 287.284 74.4664 288.322Z" fill="#FFD6C0"/>
<path d="M56.1869 261.95C52.124 265.9 49.0171 271.366 47.119 276.585C46.435 275.542 45.5311 274.677 44.699 273.725C43.422 272.252 42.145 270.779 40.8633 269.31C42.9588 267.587 40.1359 269.905 52.6238 259.606L56.1869 261.95Z" fill="#FFB48B"/>
<path d="M59.2902 193.094C50.7266 226.935 48.8321 237.397 47.3277 263.111C46.0436 262.672 44.7692 262.209 43.5044 261.726C43.8821 253.492 43.7888 251.052 44.1706 195.493C44.2302 195.484 43.6045 195.583 59.2902 193.094Z" fill="#FF813D"/>
<path d="M59.2881 173.727C62.4734 176.031 66.1739 178.288 69.0674 180.95C68.83 180.831 66.2838 183.24 65.9592 183.503C64.8796 184.378 64.0344 185.287 63.1268 186.351C72.8464 205.976 74.8964 209.889 77.0302 215.512C78.9689 220.622 80.7641 225.938 81.5759 231.342C82.4564 226.94 82.3854 222.526 82.872 218.096C83.9531 208.255 82.7639 202.908 80.5833 194.403C77.6768 183.066 75.0115 172.721 70.495 162.195C67.6793 155.632 67.6129 152.4 67.9924 144.623L67.8754 144.511C60.1973 152.067 60.5017 151.704 60.3384 152.073C60.2197 152.341 60.2123 152.644 60.2064 152.937C60.0668 159.928 59.7606 166.916 59.2881 173.892V173.727Z" fill="#FFB48B"/>
<path d="M76.9722 150.855C79.8898 153.675 82.5535 156.758 84.9203 160.054C81.8909 159.241 77.8595 160.888 75.2078 162.229C72.3454 163.677 69.7548 165.6 67.1799 167.514C67.4517 167.312 67.3254 164.618 67.3668 164.169C67.4465 163.304 67.4139 163.888 67.3708 153.563C67.3629 151.662 66.9709 148.66 68.1628 147.033C68.5449 146.512 68.7777 146.367 72.1674 143.85C72.3276 143.731 72.6245 143.58 72.7356 143.816C72.816 143.987 72.6669 144.211 72.8513 145.092C73.0447 146.017 75.2783 149.218 76.9722 150.855Z" fill="white"/>
<path d="M89.1157 269.755C88.9704 269.729 88.8733 269.591 88.8989 269.445C90.1679 262.215 90.5937 254.833 90.1632 247.504C90.1422 247.155 90.6754 247.112 90.6972 247.473C91.1298 254.843 90.7024 262.267 89.4255 269.538C89.3993 269.689 89.2518 269.782 89.1157 269.755Z" fill="#F45500"/>
<path d="M92.8569 269.222C91.7659 269.295 90.6749 269.348 89.5791 269.386C89.6078 268.647 89.4762 269.575 89.7529 265.703C89.7529 265.698 89.7577 265.693 89.7529 265.688C89.7529 265.674 89.7529 265.664 89.7577 265.65C89.7577 264.988 90.3251 259.39 90.6315 257.173C92.5238 260.373 92.8135 265.08 92.8569 269.222Z" fill="#F45500"/>
<path d="M129.882 190.36C129.515 188.037 129.194 185.677 128.927 183.344C128.91 183.198 129.015 183.065 129.162 183.048C129.306 183.034 129.442 183.136 129.458 183.284C129.724 185.609 130.045 187.961 130.411 190.276C130.434 190.422 130.334 190.56 130.188 190.583C130.036 190.605 129.904 190.5 129.882 190.36Z" fill="#FF813D"/>
<path d="M125.463 190.957C125.344 190.868 125.321 190.7 125.41 190.582C126.728 188.831 127.671 186.773 128.135 184.632C128.211 184.284 128.733 184.401 128.658 184.745C128.178 186.962 127.202 189.091 125.837 190.904C125.748 191.023 125.581 191.045 125.463 190.957Z" fill="#FF813D"/>
<path d="M58.2535 196.347C58.1082 196.321 58.0121 196.181 58.0393 196.036L60.1625 184.594C60.1892 184.448 60.3323 184.35 60.4739 184.379C60.6192 184.406 60.7153 184.545 60.6881 184.691L58.5649 196.133C58.5378 196.282 58.3943 196.375 58.2535 196.347Z" fill="#FF813D"/>
<path d="M140.098 209.624C139.999 209.515 140.008 209.346 140.117 209.246C145.53 204.351 150.059 198.284 153.213 191.7C153.276 191.566 153.438 191.511 153.57 191.574C153.703 191.638 153.759 191.798 153.695 191.931C150.512 198.577 145.941 204.702 140.476 209.643C140.365 209.743 140.196 209.733 140.098 209.624Z" fill="#FF813D"/>
<path d="M89.0117 123.475C88.565 123.175 88.2431 122.892 87.9986 122.583C87.6371 122.127 87.4082 121.557 87.3544 120.977C87.3408 120.831 87.449 120.7 87.5963 120.686C87.7405 120.674 87.8737 120.781 87.8873 120.928C87.9312 121.405 88.1198 121.875 88.4176 122.251C88.6271 122.515 88.9108 122.763 89.31 123.031C90.7285 123.984 92.4019 124.385 93.8993 124.131C94.043 124.108 94.183 124.204 94.2081 124.349C94.2326 124.495 94.1344 124.633 93.9892 124.658C92.295 124.945 90.4845 124.465 89.0117 123.475Z" fill="#FFB48B"/>
<path d="M34.7417 265.522C41.4806 273.831 41.8997 274.419 42.9723 275.418C45.1665 270.529 48.7012 266.25 53.0877 263.172C54.4858 262.19 56.0717 261.301 57.7791 261.345C54.505 257.464 52.2793 252.311 47.7767 249.65C47.399 249.427 47.2429 249.463 46.9411 249.733C42.7342 253.497 38.8112 257.579 35.2162 261.932" fill="#FFF2EB"/>
<path d="M43.5433 163.557C41.8802 165.689 41.0459 167.565 34.9281 180.599C31.3021 188.324 27.7796 196.098 24.2718 203.877C21.6743 209.638 17.984 215.16 16.811 221.462C15.3165 229.49 19.8372 237.729 23.2559 244.752C27.0645 252.575 31.5379 260.049 36.0065 267.508C38.3212 264.414 40.9077 261.579 44.0556 259.31C44.8842 258.713 52.7387 253.73 53.4026 254.57C47.5084 247.155 42.5154 238.71 39.9758 229.52C41.4471 230.349 43.4135 229.438 44.2969 227.999C45.1804 226.56 45.2538 224.78 45.2463 223.092C47.9881 221.106 49.055 217.609 50.4001 214.502C53.4501 207.458 58.7059 201.407 60.7157 193.906C61.8172 189.796 60.2645 185.019 59.2071 180.992C57.9555 176.225 56.2387 171.486 54.0342 166.878C53.0598 164.841 51.7137 161.726 49.6641 160.528C47.6063 159.325 45.1848 161.451 43.5433 163.557Z" fill="white"/>
<path d="M44.8922 223.692C44.4366 221.395 43.1054 219.266 41.2402 217.851C41.1221 217.761 41.0991 217.594 41.1885 217.476C41.2783 217.358 41.4466 217.336 41.5631 217.424C43.5317 218.918 44.9361 221.164 45.4167 223.587C45.4455 223.733 45.3514 223.873 45.2067 223.902C45.0641 223.931 44.921 223.838 44.8922 223.692Z" fill="#FF813D"/>
<path d="M39.4958 230.17C37.2853 228.341 35.2754 226.261 33.5215 223.988C33.4311 223.871 33.4525 223.702 33.5696 223.613C33.6856 223.522 33.8548 223.544 33.9447 223.661C35.6746 225.903 37.6573 227.955 39.8365 229.759C39.9504 229.853 39.9666 230.022 39.872 230.135C39.778 230.249 39.609 230.265 39.4958 230.17Z" fill="#FF813D"/>
<path d="M55.7653 205.397C55.6273 205.346 55.5568 205.191 55.609 205.053C57.5683 199.819 59.1283 194.386 60.2448 188.907C60.6973 186.69 61.0818 184.344 60.4063 182.185C60.3624 182.044 60.4408 181.894 60.5818 181.85C60.7255 181.806 60.8728 181.885 60.9173 182.026C61.6304 184.306 61.2354 186.728 60.7694 189.013C59.6466 194.521 58.0792 199.98 56.1101 205.241C56.0574 205.381 55.9001 205.449 55.7653 205.397Z" fill="#FF813D"/>
<path d="M52.356 254.933C50.8602 252.188 49.2567 249.454 47.5906 246.806C47.5117 246.68 47.5493 246.515 47.6742 246.437C47.7991 246.358 47.9647 246.396 48.043 246.52C49.7154 249.179 51.3246 251.923 52.8262 254.677C52.8967 254.807 52.8486 254.969 52.7191 255.041C52.5878 255.111 52.426 255.062 52.356 254.933Z" fill="#FF813D"/>
<path d="M26.8144 215.977C26.8129 215.977 26.8113 215.977 26.8097 215.977C26.6619 215.975 26.5443 215.853 26.5469 215.705C26.701 206.768 28.1603 197.921 30.8844 189.406C30.9298 189.266 31.0803 189.189 31.2209 189.233C31.3614 189.278 31.4392 189.429 31.3943 189.57C28.6859 198.034 27.235 206.83 27.0819 215.714C27.0793 215.861 26.9602 215.977 26.8144 215.977Z" fill="#FF813D"/>
<path d="M194.769 102.69C196.477 102.69 197.861 101.306 197.861 99.5982C197.861 97.8903 196.477 96.5059 194.769 96.5059C193.061 96.5059 191.677 97.8903 191.677 99.5982C191.677 101.306 193.061 102.69 194.769 102.69Z" fill="#FF7A33"/>
<path d="M194.769 101.172C195.638 101.172 196.342 100.468 196.342 99.5997C196.342 98.7313 195.638 98.0273 194.769 98.0273C193.901 98.0273 193.197 98.7313 193.197 99.5997C193.197 100.468 193.901 101.172 194.769 101.172Z" fill="white"/>
<path d="M205.159 138.204L226.475 124.536L207.378 125.408C207.378 125.408 208.329 129.053 212.608 129.132L202.581 133.253C201.039 133.887 200.388 135.72 201.185 137.184C201.963 138.613 203.789 139.082 205.159 138.204Z" fill="#FF7A33"/>
<path d="M132.835 110.674C120.496 99.8134 126.186 70.3916 109.673 56.1816C103.517 50.8849 94.8934 49.4136 88.7049 52.6027C85.6693 54.167 83.2007 56.7437 80.4568 58.8085C76.9218 61.4694 73.6241 62.5243 70.6492 61.937L70.7526 61.4125C73.5687 61.9684 76.727 60.947 80.135 58.3812C82.8828 56.3128 85.3516 53.7292 88.4593 52.1273C94.8386 48.84 103.705 50.341 110.022 55.7762C126.637 70.0743 121.101 99.6305 133.188 110.273C141.606 117.686 160.157 117.055 170.738 104.852C173.214 101.997 175.142 98.6801 177.771 95.9215C179.604 93.9978 183.358 90.838 187.956 91.2351C191.897 91.5801 195.524 95.4724 194.492 99.2925L193.976 99.153C194.913 95.6801 191.544 92.0868 187.909 91.768C183.552 91.384 179.925 94.4362 178.159 96.2904C175.574 99.0027 173.62 102.345 171.142 105.203C160.338 117.663 141.421 118.236 132.835 110.674Z" fill="#FFB48B"/>
</svg>
