<svg width="180" height="180" viewBox="0 0 180 180" fill="none" xmlns="http://www.w3.org/2000/svg">
<g clip-path="url(#clip0_268_4990)">
<path fill-rule="evenodd" clip-rule="evenodd" d="M50.3612 83.9075C44.5466 84.3138 38.4458 93.5549 37.2185 96.133C31.0485 109.115 30.9076 128.019 43.0912 137.407C62.0239 151.995 77.6301 120.879 94.7878 119.853C106.806 119.135 113.6 133.702 125.781 133.655C133.058 133.626 140.965 128.499 143.723 121.303C148.61 108.55 132.646 99.8703 130.174 88.5333C127.681 77.0966 137.824 70.318 143.909 62.7847C148.105 57.5901 148.004 51.1985 142.814 46.7327C139.628 43.9924 135.729 42.79 131.667 42.568C120.181 41.9404 111.57 50.4238 103.491 57.7886C100.886 60.1635 98.2081 62.86 94.9823 64.2781C82.0989 69.9416 72.8148 47.7202 58.2973 58.8801C56.4292 60.3191 54.8109 62.0865 53.5133 64.1046C51.8254 66.7272 50.6786 69.7667 50.1085 72.8714C49.4267 76.5717 49.5742 80.2456 50.3612 83.9075Z" fill="#FFEDE7"/>
<path d="M103.247 50.1067C105.148 50.1067 106.688 48.5663 106.688 46.6662C106.688 44.766 105.148 43.2256 103.247 43.2256C101.347 43.2256 99.8069 44.766 99.8069 46.6662C99.8069 48.5663 101.347 50.1067 103.247 50.1067Z" fill="#FFEDE7"/>
<path d="M71.6819 46.855C72.7146 46.855 73.5518 46.0179 73.5518 44.9851C73.5518 43.9524 72.7146 43.1152 71.6819 43.1152C70.6492 43.1152 69.812 43.9524 69.812 44.9851C69.812 46.0179 70.6492 46.855 71.6819 46.855Z" fill="#FFEDE7"/>
<path d="M90.0885 61.8356C94.7275 61.8356 98.4882 58.0749 98.4882 53.4359C98.4882 48.7968 94.7275 45.0361 90.0885 45.0361C85.4494 45.0361 81.6887 48.7968 81.6887 53.4359C81.6887 58.0749 85.4494 61.8356 90.0885 61.8356Z" fill="#FFEDE7"/>
<path fill-rule="evenodd" clip-rule="evenodd" d="M89.2328 121.707C72.2671 115.967 58.5622 118.648 53.2997 120.173C48.5887 121.54 42.8804 123.965 41.3377 127.697C40.4781 129.776 40.8857 131.964 40.2327 134.061C39.7802 135.517 38.6481 136.292 37.3319 137.381C36.9712 137.678 36.6963 138.117 37.2346 138.353C38.5608 138.932 40.9165 138.746 42.3745 138.393C45.716 137.587 48.3382 135.959 52.0115 136.292C57.5884 136.8 63.1603 141.794 69.2563 139.432C73.165 137.918 71.5292 133.708 75.2947 131.914C79.8037 129.769 85.9242 130.259 88.5726 126.186C89.0099 125.512 89.3351 124.8 89.4843 124.074C89.656 123.251 89.522 122.487 89.2328 121.707Z" fill="#FF7A4E"/>
<mask id="mask0_268_4990" style="mask-type:luminance" maskUnits="userSpaceOnUse" x="36" y="118" width="54" height="23">
<path d="M89.233 121.706C72.2673 115.966 58.5624 118.647 53.2999 120.172C48.589 121.539 42.8806 123.964 41.3379 127.696C40.4784 129.775 40.886 131.963 40.233 134.06C39.7805 135.516 38.6483 136.291 37.3321 137.38C36.9714 137.677 36.6966 138.116 37.2348 138.352C38.561 138.931 40.9167 138.745 42.3748 138.392C45.7163 137.586 48.3385 135.958 52.0117 136.291C57.5887 136.799 63.1606 141.793 69.2565 139.431C73.1652 137.917 71.5294 133.707 75.295 131.913C79.8039 129.768 85.9245 130.258 88.5728 126.185C89.0101 125.511 89.3354 124.799 89.4846 124.073C89.6563 123.25 89.5223 122.486 89.233 121.706Z" fill="white"/>
</mask>
<g mask="url(#mask0_268_4990)">
<path fill-rule="evenodd" clip-rule="evenodd" d="M38.0262 138.565C37.8723 138.414 38.7174 138.5 38.9928 138.475C39.7063 138.403 40.414 138.298 41.1115 138.159C43.13 137.762 45.2482 137.233 47.0342 136.401C48.5848 135.677 49.5685 134.499 50.9398 133.626C52.1669 132.843 53.7808 132.403 55.3677 132.323C60.0977 132.081 64.2005 135.269 68.9356 133.063C73.4875 130.942 75.1998 126.222 73.0745 122.771C72.3745 121.632 71.2932 120.658 70.5603 119.532C70.2646 119.074 69.8896 118.523 70.0551 117.992C70.2523 117.344 71.2842 117.06 72.0442 116.901C74.2897 116.431 76.6651 116.581 78.8815 116.957C80.5908 117.246 82.2687 117.661 83.8599 118.192C85.2862 118.665 86.6844 119.243 87.8331 120.035C93.6205 124.022 88.5188 130.587 84.284 134.17C76.6329 140.645 54.431 144.848 38.0262 138.565Z" fill="#D73600"/>
</g>
<path fill-rule="evenodd" clip-rule="evenodd" d="M45.9588 129.687C46.1032 129.484 46.3861 129.318 46.7021 129.166C47.2492 128.904 47.9005 128.703 48.2969 128.544C50.6126 127.619 53.042 126.872 55.5537 126.412C60.2093 125.558 65.1334 125.798 69.9294 125.646C74.7938 125.492 79.5246 124.933 83.7257 122.484C83.8708 122.398 83.921 122.21 83.8359 122.063C83.7501 121.918 83.5618 121.869 83.4173 121.953C79.303 124.349 74.6705 124.88 69.9099 125.032C65.0833 125.186 60.1281 124.949 55.4429 125.808C52.8911 126.275 50.4223 127.035 48.0695 127.973C47.6634 128.136 46.9972 128.343 46.4362 128.614C46.0137 128.816 45.6513 129.06 45.4585 129.331C45.3602 129.47 45.3928 129.663 45.5309 129.761C45.6695 129.857 45.8609 129.825 45.9588 129.687ZM49.5558 123.463C49.6458 123.404 49.7775 123.378 49.9108 123.358C50.0882 123.33 50.2719 123.315 50.4151 123.294C51.1211 123.192 51.8374 123.125 52.5523 123.073C54.4733 122.935 56.344 123.038 58.2606 123.374C60.4023 123.749 62.6068 124.329 64.715 123.738C64.8784 123.692 64.9736 123.523 64.9278 123.36C64.8822 123.197 64.7128 123.101 64.5495 123.147C62.5298 123.712 60.4187 123.127 58.3661 122.769C56.3991 122.425 54.4794 122.32 52.5077 122.463C51.7788 122.515 51.0478 122.585 50.3284 122.687C50.001 122.731 49.4924 122.77 49.218 122.952C49.0762 123.045 49.0372 123.235 49.1307 123.375C49.2233 123.518 49.4135 123.559 49.5558 123.463Z" fill="white"/>
<path fill-rule="evenodd" clip-rule="evenodd" d="M51.5529 131.371C52.1431 131.044 52.6672 130.571 53.2595 130.227C55.4172 128.978 57.742 127.81 60.2682 127.21C60.4318 127.17 60.5357 127.005 60.4966 126.84C60.4573 126.676 60.2911 126.573 60.1246 126.612C57.5394 127.227 55.1612 128.418 52.9514 129.696C52.3636 130.038 51.841 130.509 51.2554 130.836C51.1082 130.918 51.0531 131.104 51.1371 131.253C51.2179 131.4 51.4058 131.454 51.5529 131.371Z" fill="white"/>
<path fill-rule="evenodd" clip-rule="evenodd" d="M62.0616 129.927C61.9473 129.956 61.857 130.057 61.8412 130.183C61.8207 130.35 61.94 130.505 62.1079 130.525C62.174 130.533 62.2794 130.52 62.3908 130.447C62.5212 130.361 62.7321 130.126 62.7854 130.084C63.1916 129.753 63.6359 129.457 64.0784 129.169C65.6849 128.12 67.3583 127.293 69.2847 126.765C69.4484 126.719 69.5446 126.55 69.4998 126.388C69.4549 126.225 69.2858 126.129 69.1228 126.172C67.1322 126.719 65.4023 127.574 63.7438 128.653C63.2828 128.955 62.8208 129.265 62.3993 129.605C62.3564 129.641 62.1137 129.875 62.0616 129.927Z" fill="white"/>
<path fill-rule="evenodd" clip-rule="evenodd" d="M88.6234 123.224C89.8683 123.177 75.2308 102.576 47.658 92.9475C46.7439 92.6292 45.8493 92.2635 44.9308 91.9579C42.465 91.134 33.8562 90.0146 34.0494 94.7727C34.1358 96.8688 35.9069 97.5354 37.6605 97.948C40.4702 98.6094 48.1568 99.1842 48.6468 102.968C48.9572 105.35 42.1784 107.132 40.5572 108.247C39.4113 109.036 38.4921 110.487 39.4046 111.799C40.5103 113.39 42.7382 112.961 44.2977 112.47C47.3838 111.499 53.6033 107.78 56.3104 111.45C58.3423 114.2 52.3957 116.549 50.8371 117.492C50.228 117.861 48.1674 119.166 49.4476 119.966C50.851 120.844 52.8772 120.267 54.2637 119.699C57.4163 118.408 60.1585 116.043 63.6142 115.522C69.0776 114.697 69.8511 121.384 73.4189 123.785C75.8849 125.445 78.674 122.433 81.1643 122.201C83.7123 121.964 86.1004 123.323 88.6234 123.224Z" fill="#FF7A4E"/>
<mask id="mask1_268_4990" style="mask-type:luminance" maskUnits="userSpaceOnUse" x="34" y="91" width="55" height="34">
<path d="M88.6236 123.224C89.8685 123.177 75.2311 102.576 47.6582 92.9475C46.7441 92.6292 45.8495 92.2635 44.931 91.9579C42.4653 91.134 33.8565 90.0146 34.0497 94.7727C34.136 96.8688 35.9072 97.5354 37.6607 97.948C40.4704 98.6094 48.1571 99.1842 48.6471 102.968C48.9574 105.35 42.1786 107.132 40.5575 108.247C39.4116 109.036 38.4924 110.487 39.4049 111.799C40.5105 113.39 42.7384 112.961 44.2979 112.47C47.384 111.499 53.6035 107.78 56.3107 111.45C58.3426 114.2 52.3959 116.549 50.8374 117.492C50.2283 117.861 48.1676 119.166 49.4478 119.966C50.8512 120.844 52.8774 120.267 54.2639 119.699C57.4165 118.408 60.1588 116.043 63.6144 115.522C69.0779 114.697 69.8514 121.384 73.4192 123.785C75.8852 125.445 78.6743 122.433 81.1645 122.201C83.7125 121.964 86.1007 123.323 88.6236 123.224Z" fill="white"/>
</mask>
<g mask="url(#mask1_268_4990)">
<path fill-rule="evenodd" clip-rule="evenodd" d="M33.9318 93.0142C33.8286 93.3811 34.1873 93.9328 34.3372 94.2386C34.9981 95.5865 35.9762 96.5198 37.3798 97.0522C39.6237 97.9054 41.5779 96.9368 43.8433 96.9118C45.8234 96.8907 47.6955 97.9979 48.8775 99.5461C49.7139 100.642 50.3912 102.316 49.6246 103.629C48.2986 105.905 44.5826 106.35 42.2869 106.074C36.8608 105.423 31.7438 98.2447 33.9318 93.0142ZM38.8595 109.647C38.7543 109.698 38.8974 109.902 38.932 109.959C39.1277 110.272 39.3619 110.583 39.6136 110.853C40.4288 111.732 41.5462 112.33 42.7681 112.253C44.3982 112.149 45.9533 111.383 47.46 110.816C49.7823 109.943 52.3888 109.178 54.8912 109.475C56.2563 109.636 58.8892 110.558 58.6928 112.364C58.6189 113.052 58.0328 113.589 57.5046 113.972C56.0741 115.009 54.3812 115.094 52.6939 115.267C51.42 115.397 50.1712 115.677 48.9098 115.883C45.0231 116.515 36.4487 114.98 38.8595 109.647ZM49.1794 119.071C49.2116 119.341 49.7201 119.461 49.9367 119.529C50.8923 119.833 51.8488 119.714 52.8016 119.441C54.9626 118.823 56.808 117.338 58.6371 116.098C59.7329 115.355 60.8648 114.579 62.178 114.292C65.1914 113.631 68.3152 116.067 69.9769 118.371C70.8993 119.649 71.7397 121.059 72.9419 122.141C76.0162 124.901 80.3645 121.351 82.0992 121.426C82.8298 121.459 83.5807 121.274 84.3069 121.406C84.507 121.442 84.9553 121.555 84.9028 121.837C84.7819 122.486 83.5219 122.769 83.0267 122.894C80.9922 123.4 74.7661 125.599 72.6982 125.354C68.5553 124.859 64.5798 123.598 60.3797 123.472C57.5035 123.383 54.5755 124.426 51.7186 123.961C49.707 123.633 47.2995 120.955 49.1794 119.071Z" fill="#D73600"/>
</g>
<path fill-rule="evenodd" clip-rule="evenodd" d="M62.9826 106.805C59.9998 105.854 56.954 105.846 53.7729 106.293C52.5373 106.465 51.2992 106.701 50.0914 107.025C49.6861 107.132 49.2834 107.25 48.8837 107.377C48.7499 107.42 48.6161 107.468 48.4828 107.518C48.4526 107.529 48.397 107.567 48.3554 107.598C48.3194 107.6 48.2845 107.611 48.2534 107.629C48.2223 107.647 48.196 107.672 48.1765 107.702C48.157 107.733 48.145 107.767 48.1413 107.803C48.1376 107.839 48.1425 107.875 48.1554 107.909C48.2055 108.041 48.2983 108.077 48.3993 108.074C48.4386 108.073 48.4863 108.062 48.536 108.032C48.5678 108.014 48.6379 107.957 48.6565 107.942C48.779 107.896 48.9 107.853 49.0249 107.813C49.4151 107.688 49.8124 107.574 50.2084 107.468C51.3983 107.149 52.6181 106.917 53.8369 106.746C57.4936 106.234 60.9703 106.326 64.3765 107.823C66.1829 109.164 67.9522 110.565 69.7007 111.957C66.9899 111.322 64.4651 111.843 61.7202 112.767C60.9142 113.039 60.1291 113.347 59.3739 113.735C59.331 113.757 58.946 113.929 58.8043 114.04C58.6699 114.144 58.658 114.272 58.674 114.338C58.7045 114.46 58.8274 114.537 58.9496 114.508C59.0175 114.492 59.0706 114.447 59.1008 114.39C59.234 114.294 59.5461 114.162 59.5829 114.143C60.3197 113.764 61.0838 113.465 61.8659 113.202C64.8742 112.189 67.6056 111.661 70.6407 112.704C70.8359 112.861 71.0333 113.017 71.2305 113.173C73.2051 114.742 75.1883 116.296 77.3138 117.533C76.0874 117.542 74.8697 117.71 73.6603 117.949C73.2113 118.036 72.7651 118.13 72.3176 118.226C72.1463 118.263 71.9775 118.311 71.8077 118.357C71.7588 118.371 71.6562 118.37 71.6021 118.384C71.5387 118.399 71.4949 118.43 71.4668 118.457C71.4233 118.501 71.4009 118.553 71.3978 118.609C71.392 118.659 71.3995 118.728 71.4614 118.796C71.5433 118.893 71.6895 118.902 71.7833 118.819C71.8338 118.815 71.8999 118.806 71.9291 118.799C72.0895 118.754 72.2499 118.71 72.414 118.673C72.8573 118.579 73.3035 118.485 73.7495 118.397C75.1683 118.117 76.5971 117.936 78.0428 118.006C78.0765 118.009 78.1065 118.003 78.1339 117.991C80.2915 119.141 82.6069 119.941 85.2138 120.088C85.3395 120.096 85.4495 119.998 85.4554 119.873C85.4633 119.747 85.3658 119.637 85.241 119.632C81.3436 119.41 78.1162 117.697 75.0908 115.546C75.093 115.499 75.0836 115.449 75.0548 115.405C74.3658 114.304 73.9692 113.007 73.635 111.757C73.5871 111.571 73.4558 111.228 73.3922 110.914C73.3596 110.758 73.3337 110.612 73.3777 110.517C73.3906 110.49 73.3979 110.46 73.3994 110.43C73.4008 110.4 73.3963 110.37 73.3861 110.342C73.376 110.314 73.3603 110.288 73.3401 110.265C73.3198 110.243 73.2954 110.225 73.2682 110.212C73.1528 110.159 73.017 110.209 72.962 110.324C72.9026 110.452 72.8882 110.632 72.9152 110.832C72.9606 111.197 73.1337 111.648 73.194 111.874C73.4704 112.916 73.7943 113.987 74.2826 114.959C73.3493 114.268 72.4312 113.542 71.5147 112.815L70.9323 112.352C70.9152 112.332 70.8946 112.316 70.8715 112.303C70.3845 111.916 69.8968 111.528 69.4088 111.139C69.4113 111.126 69.4125 111.114 69.4124 111.101C69.45 109.654 68.6147 108.025 68.0551 106.755C67.5879 105.694 67.1254 104.424 66.3634 103.528C66.3244 103.482 66.2686 103.453 66.2084 103.448C66.1481 103.443 66.0884 103.462 66.0422 103.501C65.9455 103.584 65.9334 103.729 66.015 103.825C66.7482 104.688 67.1854 105.917 67.6358 106.94C68.1296 108.063 68.868 109.475 68.949 110.774C67.5519 109.669 66.1433 108.566 64.7081 107.499C64.6847 107.469 64.6546 107.445 64.6203 107.429L64.6057 107.424C62.5862 105.924 60.5161 104.498 58.3684 103.239L58.3601 103.22C57.5073 101.371 56.3179 99.7536 55.0667 98.1551C54.7147 97.7053 54.3518 97.2591 53.9596 96.8434C53.9175 96.798 53.8154 96.7179 53.711 96.6323C53.6511 96.5804 53.5643 96.4894 53.5462 96.4708C53.5166 96.3621 53.4101 96.2889 53.2964 96.3031C53.2361 96.3109 53.1813 96.3423 53.1441 96.3904C53.1069 96.4385 53.0904 96.4994 53.0981 96.5598C53.1075 96.6335 53.1589 96.7348 53.2512 96.8327C53.3692 96.9555 53.5662 97.0934 53.6265 97.1576C54.0091 97.563 54.3645 97.9974 54.7069 98.4367C55.8003 99.838 56.8513 101.251 57.6591 102.828C55.3372 101.489 52.9562 100.193 50.5094 99.101C50.2277 98.9749 49.3168 98.4795 48.6417 98.2691C48.4462 98.2097 48.2703 98.1723 48.1259 98.1674C47.9966 98.1628 47.8906 98.1832 47.8064 98.2249C47.6934 98.281 47.648 98.4183 47.7045 98.5314C47.7609 98.6444 47.8983 98.6908 48.0113 98.6348C48.0482 98.6164 48.0983 98.6224 48.1609 98.6285C48.2604 98.6393 48.3798 98.6673 48.5066 98.7065C49.1642 98.9109 50.0484 99.3967 50.3235 99.5189C52.9344 100.684 55.47 102.084 57.9383 103.519C59.665 104.521 61.3416 105.633 62.9826 106.805Z" fill="white"/>
<path fill-rule="evenodd" clip-rule="evenodd" d="M104.137 76.9606C104.079 76.9276 103.324 78.8144 103.223 79.0273C102.558 80.4339 101.84 81.8186 101.14 83.2086C99.2177 87.0312 97.0955 90.7667 94.9277 94.4534C88.281 105.751 80.9047 116.105 71.2977 125.057C74.2539 128.65 82.7049 129.194 86.7642 129.524C102.795 130.824 118.445 125.167 131.578 116.153C131.542 116.148 132.244 114.211 132.301 114.042C132.741 112.772 133.197 111.509 133.667 110.248C135.089 106.413 136.543 102.59 138.007 98.7711C142.356 87.4213 144.912 75.439 144.519 63.2519C142.191 63.8462 139.509 66.4868 137.35 67.643C129.547 71.8257 113.224 77.4324 104.137 76.9606Z" fill="#852100"/>
<path fill-rule="evenodd" clip-rule="evenodd" d="M98.2022 65.107C98.1513 65.0639 97.0615 66.779 96.9226 66.9694C96.0093 68.2291 95.0485 69.4575 94.1035 70.6944C91.5086 74.0964 88.7334 77.3759 85.9223 80.599C77.3042 90.4758 68.1434 99.2898 57.0491 106.314C59.2911 110.392 67.4963 112.486 71.425 113.559C86.9403 117.797 103.366 115.125 117.936 108.691C117.902 108.68 118.95 106.906 119.037 106.75C119.703 105.583 120.385 104.426 121.079 103.274C123.185 99.767 125.32 96.2783 127.463 92.7949C133.833 82.4431 138.557 71.1387 140.421 59.0886C138.023 59.243 134.899 61.343 132.565 62.0809C124.123 64.7511 107.046 67.2481 98.2022 65.107Z" fill="#FF9A78"/>
<mask id="mask2_268_4990" style="mask-type:luminance" maskUnits="userSpaceOnUse" x="57" y="59" width="84" height="57">
<path d="M98.2022 65.107C98.1513 65.0639 97.0615 66.779 96.9226 66.9694C96.0093 68.2291 95.0485 69.4575 94.1035 70.6944C91.5086 74.0964 88.7334 77.3759 85.9223 80.599C77.3042 90.4758 68.1434 99.2898 57.0491 106.314C59.2911 110.392 67.4963 112.486 71.425 113.559C86.9403 117.797 103.366 115.125 117.936 108.691C117.902 108.68 118.95 106.906 119.037 106.75C119.703 105.583 120.385 104.426 121.079 103.274C123.185 99.767 125.32 96.2783 127.463 92.7949C133.833 82.4431 138.557 71.1387 140.421 59.0886C138.023 59.243 134.899 61.343 132.565 62.0809C124.123 64.7511 107.046 67.2481 98.2022 65.107Z" fill="white"/>
</mask>
<g mask="url(#mask2_268_4990)">
<path fill-rule="evenodd" clip-rule="evenodd" d="M131.443 54.2759C128.25 54.4009 121.574 61.3768 119.952 63.7276C119.062 65.0182 117.972 66.8231 118.739 68.4166C120.465 71.9943 127.779 69.9394 130.703 69.6573C131.651 69.5657 134.896 69.1613 133.652 71.0395C130.136 76.3316 117.558 79.9419 112.083 84.5561C110.215 86.1311 107.394 88.5154 106.904 91.0618C106.362 93.8887 113.485 92.6938 114.874 92.5875C115.222 92.5608 117.4 92.1881 117.134 93.0485C116.51 95.0747 107.678 98.6983 105.638 99.8777C104.593 100.482 101.961 101.767 102.534 103.363C103.143 105.061 105.919 105.408 107.416 105.599C112.607 106.26 117.818 105.283 123.01 105.801C124.912 105.991 128.552 106.529 128.894 108.921C129.602 113.866 117.885 118.6 114.521 119.775C100.522 124.666 77.4887 125.914 64.0193 118.923C57.405 115.489 56.4059 110.376 63.2932 106.649C71.1082 102.421 84.3059 102.111 90.2684 95.4663C94.0638 91.2363 89.7667 86.1835 91.8245 81.7017C94.3926 76.1166 102.158 76.2223 106.568 72.7999C109.799 70.2927 108.294 67.8236 108.848 64.4281C109.644 59.5608 126.742 53.56 131.443 54.2759Z" fill="#FFC2AE"/>
</g>
<path fill-rule="evenodd" clip-rule="evenodd" d="M99.4944 74.3401C100.118 74.4999 101.061 74.3054 101.692 74.2687C103.1 74.1868 104.505 74.0751 105.913 73.9867C110.437 73.7024 114.969 73.4846 119.5 73.4152C119.759 73.4111 120.006 73.3043 120.187 73.1182C120.368 72.9322 120.467 72.6821 120.463 72.4229C120.461 72.2944 120.434 72.1677 120.383 72.0498C120.333 71.9319 120.259 71.8251 120.167 71.7357C120.075 71.6463 119.966 71.5759 119.846 71.5286C119.727 71.4813 119.599 71.458 119.471 71.4601C114.908 71.53 110.344 71.749 105.791 72.0352C104.388 72.1234 102.985 72.2349 101.579 72.3165C101.291 72.3334 100.932 72.3945 100.575 72.4351C100.362 72.4593 100.149 72.4893 99.9808 72.4461C99.7295 72.3817 99.463 72.4198 99.2398 72.5518C99.0166 72.6838 98.855 72.8991 98.7904 73.1503C98.7585 73.2746 98.7514 73.404 98.7695 73.5311C98.7876 73.6582 98.8305 73.7805 98.8959 73.891C98.9613 74.0015 99.0478 74.098 99.1505 74.1751C99.2532 74.2521 99.37 74.3082 99.4944 74.3401ZM95.1021 79.7332C95.2145 79.7279 95.5812 79.7103 95.6936 79.7025C96.5246 79.6445 97.3581 79.6528 98.1891 79.6519C101.745 79.6484 105.304 79.7465 108.843 80.1072C108.971 80.1203 109.1 80.1081 109.223 80.0712C109.346 80.0344 109.461 79.9736 109.56 79.8925C109.659 79.8114 109.742 79.7114 109.803 79.5983C109.863 79.4853 109.901 79.3614 109.914 79.2337C109.927 79.106 109.915 78.9769 109.879 78.8538C109.842 78.7308 109.781 78.6162 109.7 78.5166C109.619 78.4171 109.519 78.3345 109.406 78.2736C109.293 78.2127 109.169 78.1748 109.041 78.1619C105.436 77.7945 101.811 77.6931 98.1891 77.6965C97.3117 77.6975 96.4342 77.6906 95.5592 77.7517C95.371 77.7649 94.9823 77.7588 94.6866 77.8175C94.3811 77.8788 94.1317 78.0079 93.968 78.154C93.7753 78.3273 93.6592 78.5699 93.645 78.8286C93.6308 79.0874 93.7197 79.3412 93.8922 79.5345C94.041 79.7006 94.2421 79.8108 94.4622 79.847C94.6822 79.8831 94.908 79.843 95.1021 79.7332Z" fill="white"/>
<path fill-rule="evenodd" clip-rule="evenodd" d="M89.6618 86.3837C89.7254 86.387 89.7865 86.3888 89.8207 86.3871C90.0967 86.3729 90.3707 86.3878 90.647 86.395C91.3904 86.4148 92.1334 86.4035 92.8766 86.4135C95.2579 86.4463 97.6375 86.5275 100.017 86.5934C106.773 86.7802 113.514 87.0329 120.253 87.5546C120.791 87.5962 121.26 87.1931 121.301 86.6553C121.321 86.3968 121.238 86.1409 121.069 85.944C120.901 85.7471 120.661 85.6251 120.402 85.6051C113.631 85.0809 106.859 84.8266 100.071 84.6388C97.6819 84.5726 95.2926 84.4913 92.9015 84.4584C92.168 84.4485 91.4324 84.4599 90.6988 84.4402C90.3834 84.4318 90.0654 84.4182 89.7503 84.433C89.7062 84.4302 89.4151 84.4119 89.3126 84.4211C89.1174 84.4367 88.93 84.5046 88.7701 84.6176C88.5634 84.7635 88.4216 84.9842 88.3751 85.2329C88.3338 85.4346 88.3254 85.7141 88.5521 86.0305C88.6749 86.2004 88.849 86.3263 89.0488 86.3899C89.2485 86.4534 89.4634 86.4513 89.6618 86.3837Z" fill="white"/>
<path fill-rule="evenodd" clip-rule="evenodd" d="M102.185 98.1255C101.034 99.7497 99.5526 101.107 98.3428 102.683C98.2303 102.827 97.7708 103.388 97.4702 103.917C97.2869 104.24 97.1622 104.562 97.1231 104.82C97.0351 105.373 97.2258 105.792 97.5851 106.065C97.9712 106.36 98.6116 106.45 99.3473 106.173C100.21 105.848 101.337 105.005 101.672 104.796C103.561 103.619 105.438 102.424 107.342 101.27C107.914 100.924 108.533 100.432 109.183 100.115C108.978 100.897 108.665 101.634 108.41 102.405C108.327 102.658 108.21 103.063 108.225 103.403C108.249 103.908 108.472 104.329 108.96 104.578C109.288 104.747 109.699 104.801 110.146 104.731C110.747 104.636 111.454 104.284 111.84 104.111C113.617 103.316 115.743 102.168 117.183 100.813C117.371 100.635 117.481 100.39 117.489 100.131C117.496 99.8721 117.401 99.6206 117.224 99.4315C117.046 99.2428 116.801 99.1325 116.541 99.1246C116.282 99.1168 116.03 99.2121 115.841 99.3897C114.55 100.604 112.634 101.614 111.04 102.326C110.882 102.398 110.652 102.514 110.402 102.618C110.686 101.811 110.996 101.026 111.177 100.182C111.238 99.8941 111.314 99.451 111.27 99.1051C111.221 98.7136 111.048 98.398 110.791 98.1851C110.537 97.9735 110.17 97.81 109.613 97.9158C108.454 98.1358 107.313 99.0015 106.328 99.5977C104.417 100.755 102.535 101.955 100.638 103.136C100.562 103.184 100.442 103.269 100.291 103.374C101.442 101.973 102.759 100.707 103.806 99.2217C103.974 98.9844 104.512 98.2157 104.622 97.6518C104.747 97.0156 104.539 96.5072 104.033 96.1956C103.568 95.9096 102.943 95.8494 102.256 96.0264C101.242 96.2877 100.024 97.097 99.4964 97.4208C97.1573 98.8507 95.0284 100.639 92.9728 102.441C92.1736 103.14 90.9637 103.882 90.3599 104.772C90.2852 104.878 90.2323 104.997 90.2044 105.124C90.1764 105.251 90.1739 105.382 90.1971 105.509C90.2202 105.637 90.2685 105.759 90.3392 105.867C90.4099 105.976 90.5015 106.07 90.6087 106.143C90.7159 106.216 90.8365 106.267 90.9636 106.293C91.0907 106.318 91.2217 106.319 91.3489 106.294C91.4761 106.268 91.5971 106.218 91.7047 106.146C91.8122 106.073 91.9044 105.98 91.9756 105.872C92.4962 105.107 93.5741 104.512 94.2609 103.911C96.2334 102.182 98.2719 100.461 100.516 99.089C100.853 98.8827 101.515 98.4271 102.185 98.1255Z" fill="white"/>
<path fill-rule="evenodd" clip-rule="evenodd" d="M71.3377 71.0152C69.3758 71.4595 63.3015 75.7445 62.2249 77.4436C61.1491 79.1421 62.9194 81.6517 64.8804 81.208C66.8422 80.7637 72.9166 76.4787 73.9932 74.7796C75.069 73.0811 73.2986 70.5715 71.3377 71.0152Z" fill="#FF4E13"/>
<mask id="mask3_268_4990" style="mask-type:luminance" maskUnits="userSpaceOnUse" x="61" y="70" width="14" height="12">
<path d="M71.3382 71.0152C69.3763 71.4595 63.302 75.7445 62.2254 77.4436C61.1496 79.1421 62.9199 81.6517 64.8809 81.208C66.8427 80.7637 72.9171 76.4787 73.9937 74.7796C75.0695 73.0811 73.2991 70.5715 71.3382 71.0152Z" fill="white"/>
</mask>
<g mask="url(#mask3_268_4990)">
<path fill-rule="evenodd" clip-rule="evenodd" d="M73.5547 71.5332C73.6625 71.7209 73.6202 72.0149 73.5932 72.219C73.5067 72.8519 73.2681 73.4661 72.9238 74.0016C72.4948 74.6683 71.9081 75.2137 71.306 75.7212C70.5904 76.3227 69.8383 76.8894 69.038 77.3724C68.4744 77.7121 67.88 77.997 67.3144 78.3317C67.1586 78.424 67.0028 78.5191 66.8528 78.6195C66.2583 79.0138 65.0407 80.0058 65.9063 80.7513C66.874 81.5848 68.5687 81.2084 69.6402 80.8369C72.1582 79.9621 74.2704 77.9417 75.0649 75.3722C75.4265 74.199 74.4935 72.4658 73.5547 71.5332Z" fill="#DA3600"/>
</g>
<path fill-rule="evenodd" clip-rule="evenodd" d="M75.045 74.4391C73.0831 74.8834 67.0088 79.1683 65.9322 80.8674C64.8564 82.5659 66.6267 85.0755 68.5877 84.6318C70.5495 84.1875 76.6238 79.9026 77.7005 78.2035C78.7763 76.505 77.0059 73.9954 75.045 74.4391Z" fill="#FF4E13"/>
<mask id="mask4_268_4990" style="mask-type:luminance" maskUnits="userSpaceOnUse" x="65" y="74" width="14" height="11">
<path d="M75.0455 74.4401C73.0836 74.8843 67.0093 79.1693 65.9326 80.8684C64.8568 82.5669 66.6272 85.0765 68.5882 84.6328C70.55 84.1885 76.6243 79.9035 77.701 78.2045C78.7768 76.5059 77.0064 73.9963 75.0455 74.4401Z" fill="white"/>
</mask>
<g mask="url(#mask4_268_4990)">
<path fill-rule="evenodd" clip-rule="evenodd" d="M77.5205 74.6748C77.6283 74.8625 77.586 75.1565 77.559 75.3606C77.4725 75.9935 77.234 76.6077 76.8896 77.1432C76.4607 77.8099 75.8739 78.3553 75.2718 78.8628C74.5562 79.4643 73.8041 80.031 73.0038 80.514C72.4402 80.8537 71.8458 81.1386 71.2803 81.4733C71.1244 81.5656 70.9686 81.6607 70.8186 81.7611C70.2242 82.1554 69.0065 83.1474 69.8722 83.8929C70.8398 84.7264 72.5345 84.35 73.606 83.9785C76.1241 83.1037 78.2362 81.0833 79.0307 78.5138C79.3923 77.3406 78.4593 75.6074 77.5205 74.6748Z" fill="#DA3600"/>
</g>
<path fill-rule="evenodd" clip-rule="evenodd" d="M75.7783 79.3786C74.3086 76.5026 71.5578 73.7263 69.3552 73.6482C65.8619 73.5246 56.7631 79.9426 55.707 83.2755C54.6528 86.6084 59.5292 93.5218 63.0226 93.6457C65.6695 93.7394 71.5328 90.0785 74.6799 86.8493C76.8132 85.4058 78.9773 83.6475 79.5794 82.6978C80.6547 80.9991 78.885 78.4895 76.9248 78.9335C76.6266 79.0008 76.2342 79.1568 75.7783 79.3786Z" fill="#FF4E13"/>
<mask id="mask5_268_4990" style="mask-type:luminance" maskUnits="userSpaceOnUse" x="55" y="73" width="25" height="21">
<path d="M75.7788 79.3786C74.3091 76.5026 71.5583 73.7263 69.3557 73.6482C65.8624 73.5246 56.7635 79.9426 55.7075 83.2755C54.6533 86.6084 59.5297 93.5218 63.0231 93.6457C65.67 93.7394 71.5333 90.0785 74.6804 86.8493C76.8137 85.4058 78.9778 83.6475 79.5799 82.6978C80.6552 80.9991 78.8854 78.4895 76.9252 78.9335C76.6271 79.0008 76.2347 79.1568 75.7788 79.3786Z" fill="white"/>
</mask>
<g mask="url(#mask5_268_4990)">
<path fill-rule="evenodd" clip-rule="evenodd" d="M78.6063 78.4158C78.6159 78.3979 78.6659 78.5212 78.6698 78.5299C78.7063 78.6251 78.7429 78.7211 78.7698 78.8192C78.8487 79.0939 78.9006 79.378 78.9372 79.6606C79.0584 80.5599 78.8083 81.3642 78.3139 82.1148C76.9808 84.1396 74.5147 85.4192 72.6353 86.8783C71.0675 88.095 69.2459 89.6836 67.1529 88.6829C66.5431 88.3915 65.9756 87.98 65.487 87.5137C64.9292 86.9791 64.3906 86.3351 63.5307 86.4559C62.6747 86.5763 62.1822 87.501 61.9841 88.2491C61.5032 90.0477 61.8725 92.087 63.1479 93.4703C64.2982 94.7172 66.1411 95.2954 67.7723 95.5368C73.4028 96.3696 78.5409 92.8314 81.3283 88.1535C81.638 87.632 81.9246 87.0967 82.1766 86.5448C83.1557 84.4109 81.1801 79.8963 78.6063 78.4158Z" fill="#DA3600"/>
</g>
<path fill-rule="evenodd" clip-rule="evenodd" d="M59.2604 80.7684C56.7905 79.9221 51.7906 83.4493 51.7593 86.0599C51.7287 88.6698 56.6056 95.5833 59.0747 96.4301C61.5444 97.2762 66.5444 93.749 66.5758 91.1386C66.6063 88.5285 61.7294 81.615 59.2604 80.7684Z" fill="#852100"/>
<mask id="mask6_268_4990" style="mask-type:luminance" maskUnits="userSpaceOnUse" x="51" y="80" width="16" height="17">
<path d="M59.2609 80.7674C56.791 79.9212 51.791 83.4483 51.7598 86.0589C51.7292 88.6689 56.6061 95.5823 59.0752 96.4291C61.5449 97.2752 66.5449 93.7481 66.5763 91.1376C66.6068 88.5275 61.7299 81.6141 59.2609 80.7674Z" fill="white"/>
</mask>
<g mask="url(#mask6_268_4990)">
<path fill-rule="evenodd" clip-rule="evenodd" d="M54.5542 81.1992C54.5638 81.1467 54.4926 81.2862 54.4676 81.3339C54.4291 81.4127 54.3945 81.4941 54.3599 81.5751C54.2358 81.8635 54.126 82.1578 54.0309 82.4569C53.7481 83.347 53.5423 84.265 53.5539 85.2035C53.5866 87.8956 55.3121 90.7024 57.4646 92.2588C58.0937 92.7126 58.8535 93.1029 59.6364 93.1743C61.4196 93.3364 63.1028 91.891 63.7165 90.3036C64.0204 89.5172 64.1512 88.6793 64.5552 87.9315C64.7302 87.6068 64.9937 87.2252 65.4189 87.3566C66.223 87.6045 66.625 88.7414 66.8578 89.4414C67.6445 91.8025 67.0636 94.6518 65.0457 96.2251C62.2352 98.4185 58.1552 97.7072 55.3717 95.8865C50.78 92.8841 47.9041 84.451 54.5542 81.1992Z" fill="#5B1700"/>
</g>
<path fill-rule="evenodd" clip-rule="evenodd" d="M87.3268 89.8856C90.6395 93.6589 95.5382 101.811 94.61 102.736C93.6828 103.661 85.528 98.7634 81.7594 95.4364C74.0303 88.618 52.8997 68.3475 48.2417 61.8191C46.3232 59.133 51.1276 54.3429 53.8091 56.2682C60.3236 60.9456 80.5259 82.1416 87.3268 89.8856Z" fill="#852100"/>
<mask id="mask7_268_4990" style="mask-type:luminance" maskUnits="userSpaceOnUse" x="47" y="55" width="48" height="48">
<path d="M87.3268 89.8865C90.6395 93.6599 95.5382 101.812 94.61 102.737C93.6828 103.662 85.528 98.7644 81.7594 95.4374C74.0303 88.6189 52.8997 68.3485 48.2417 61.8201C46.3232 59.134 51.1276 54.3438 53.8091 56.2692C60.3236 60.9466 80.5259 82.1426 87.3268 89.8865Z" fill="white"/>
</mask>
<g mask="url(#mask7_268_4990)">
<path fill-rule="evenodd" clip-rule="evenodd" d="M89.5785 90.8831C89.6244 90.8977 90.9766 92.6141 90.9802 92.6541C91.0117 93.0897 89.8412 93.7224 89.9106 94.1521C90.1112 95.3787 90.6544 97.1754 88.4385 96.4517C87.8272 96.2525 87.6621 96.9327 87.6967 97.7989C87.7449 98.9342 85.5098 99.2794 84.9068 99.4239C84.0021 99.6405 81.2604 99.0036 81.6808 100.575C81.7241 100.742 81.7879 100.904 81.8642 101.059C81.9979 101.331 82.1663 101.59 82.3472 101.833C82.5831 102.149 82.8532 102.439 83.1426 102.706C83.7148 103.229 84.3497 103.68 85.0328 104.047C86.1646 104.654 87.3907 105.066 88.6596 105.265C89.6279 105.416 90.615 105.408 91.5711 105.184C92.3249 105.008 93.0608 104.697 93.7204 104.292C98.2945 101.48 92.3828 94.4194 89.5785 90.8831Z" fill="#FF4E13"/>
<path fill-rule="evenodd" clip-rule="evenodd" d="M92.7706 96.1935C92.9421 96.8068 93.0066 97.445 93.0472 98.0721C93.0781 98.5286 93.0955 98.9919 93.0005 99.4429C92.9446 99.7172 92.8402 99.9919 92.6815 100.234C92.5648 100.413 92.409 100.569 92.2148 100.685C90.8375 101.505 89.7143 100.256 88.7226 99.5605C88.4732 99.3844 88.2138 99.2196 87.9453 99.0664C87.6002 98.872 87.2133 98.6702 86.8015 98.6172C86.0504 98.521 85.8321 99.0213 85.8317 99.6143C85.8316 100.591 86.4959 101.482 87.2263 102.183C88.458 103.364 90.2178 104.109 92.0505 104.143C93.1182 104.162 94.2214 103.923 94.9621 103.22C95.2433 102.951 95.4667 102.63 95.635 102.298C96.477 100.636 93.6712 97.7433 92.7706 96.1935Z" fill="#DA3600"/>
<path fill-rule="evenodd" clip-rule="evenodd" d="M50.9399 54.6802C50.3932 55.2782 50.1361 56.1553 49.8936 56.9334C48.6064 61.0709 50.7632 63.916 53.6619 66.7089C56.7498 69.6845 59.859 72.7416 63.3389 75.2643C66.3157 77.4244 69.6985 79.0397 72.3737 81.6025C75.0419 84.16 76.6613 87.5591 78.7302 90.5711C80.9738 93.8341 83.6793 95.7184 86.8337 97.9692C87.4832 98.4324 88.9766 99.8188 87.9268 100.624C86.735 101.538 84.6588 100.88 83.4591 100.395C79.9241 98.9691 76.6054 96.6054 73.5903 94.3155C68.6299 90.5474 64.0281 86.2846 59.5633 81.9488C54.7302 77.2596 49.9979 72.3059 46.1755 66.7395C43.5174 62.8682 40.4235 56.4535 45.1772 52.903C46.0434 52.2553 49.927 55.0492 50.9399 54.6802Z" fill="#5B1700"/>
</g>
<path fill-rule="evenodd" clip-rule="evenodd" d="M62.7911 69.0367C63.4721 70.0248 62.1821 71.3111 61.1966 70.6265C59.4767 69.4327 53.6583 63.5971 52.4697 61.8736C51.7891 60.8872 53.0792 59.601 54.0642 60.2838C55.7841 61.4775 61.6025 67.3132 62.7911 69.0367Z" fill="#FF4E13"/>
<mask id="mask8_268_4990" style="mask-type:luminance" maskUnits="userSpaceOnUse" x="52" y="60" width="11" height="11">
<path d="M62.7904 69.0347C63.4714 70.0229 62.1813 71.3091 61.1959 70.6245C59.4759 69.4307 53.6576 63.5951 52.4689 61.8716C51.7884 60.8852 53.0784 59.599 54.0635 60.2818C55.7834 61.4756 61.6017 67.3112 62.7904 69.0347Z" fill="white"/>
</mask>
<g mask="url(#mask8_268_4990)">
<path fill-rule="evenodd" clip-rule="evenodd" d="M63.3704 69.5246C64.0868 70.4774 63.0966 71.4647 62.1464 70.7449C60.4882 69.4896 54.6698 63.6539 53.4194 61.992C52.7036 61.0408 53.6938 60.0535 54.6434 60.7717C56.3016 62.027 62.12 67.8626 63.3704 69.5246Z" fill="#FFDBCF"/>
</g>
<path fill-rule="evenodd" clip-rule="evenodd" d="M62.7924 71.9959C60.0585 73.29 59.1016 78.0351 59.1667 79.5325C59.2321 81.0292 61.8723 81.6554 63.1837 80.9788C64.4954 80.3016 63.5028 77.0418 67.0367 75.4701C68.8884 74.6464 67.259 69.8824 62.7924 71.9959Z" fill="#FF4E13"/>
<mask id="mask9_268_4990" style="mask-type:luminance" maskUnits="userSpaceOnUse" x="59" y="71" width="9" height="11">
<path d="M62.7924 71.9969C60.0585 73.291 59.1016 78.0361 59.1667 79.5334C59.2321 81.0302 61.8723 81.6563 63.1837 80.9798C64.4954 80.3026 63.5028 77.0428 67.0367 75.471C68.8884 74.6474 67.259 69.8834 62.7924 71.9969Z" fill="white"/>
</mask>
<g mask="url(#mask9_268_4990)">
<path fill-rule="evenodd" clip-rule="evenodd" d="M65.7698 70.9414C65.9064 71.1355 66.0968 71.2957 66.2276 71.507C66.8028 72.4359 66.9932 73.4418 66.4085 74.4167C65.9679 75.1534 65.2216 75.4537 64.6656 76.0594C64.0789 76.7 63.9346 77.6503 63.9789 78.4871C63.9981 78.8512 64.0327 79.3431 64.2655 79.6434C64.4963 79.9406 64.9272 79.8892 65.2504 79.8098C66.0603 79.6101 66.747 79.064 67.2914 78.4517C68.8072 76.7491 68.8265 71.5754 65.7698 70.9414Z" fill="#DA3600"/>
</g>
<path d="M84.2017 68.719C84.0864 68.8936 83.8915 69.689 83.6967 69.6514C83.5019 69.6141 83.2713 68.6024 83.0367 68.4944C82.8061 68.3864 82.5516 69.0652 82.3012 69.0033C82.0507 68.9415 81.7485 68.1896 81.5417 68.1229C81.335 68.0563 81.1442 68.8027 81.0686 68.6031C80.9891 68.396 81.0686 66.8802 81.0686 66.8802C79.9116 66.5808 78.9574 66.0018 78.2139 65.1425C77.4664 64.2836 77.0927 63.3085 77.0927 62.2179V61.1029C77.0927 61.0161 77.1364 60.9727 77.2279 60.9727H80.3768C80.4444 60.9727 80.4762 61.0161 80.4762 61.1029V62.2179C80.4762 62.7391 80.6909 63.1926 81.1163 63.5789C81.5457 63.9651 82.0427 64.1578 82.6153 64.1578C83.2117 64.1578 83.7126 63.9651 84.1142 63.5789C84.5197 63.1926 84.7225 62.7633 84.7225 62.2903C84.7225 61.6724 84.2732 61.1464 83.3746 60.7119C83.0725 60.5575 82.5954 60.3308 81.9513 60.0314C81.3072 59.7324 80.7068 59.4572 80.1581 59.206C79.0807 58.6848 78.2934 58.019 77.8004 57.2079C77.3034 56.3972 77.0569 55.4898 77.0569 54.4859C77.0569 53.3758 77.4306 52.4106 78.1781 51.5903C78.9256 50.7697 79.8599 50.2146 80.9811 49.9251V48.2022C80.9811 48.1249 81.0328 48.0863 81.1362 48.0863C81.1362 48.0863 81.6809 49.07 81.9075 48.9456C82.1382 48.8208 82.2853 47.4793 82.5119 47.3381C82.7345 47.1973 83.0487 48.0375 83.2634 48.099C83.4741 48.1608 83.645 47.711 83.7882 47.709C83.9353 47.7066 84.1341 48.0863 84.1341 48.0863C84.2454 48.0863 84.3011 48.1249 84.3011 48.2022V49.9542C85.4024 50.2437 86.3129 50.8035 87.0365 51.6337C87.7641 52.4639 88.1259 53.4144 88.1259 54.4859C88.1259 54.4859 88.1418 56.1245 88.1259 56.4697C88.1219 56.5107 88.0702 56.5551 88.0225 56.5565C87.4778 56.5708 85.4024 56.5708 84.8577 56.5565C84.8099 56.5551 84.7583 56.5103 84.7543 56.4697C84.7344 56.1245 84.7225 54.4859 84.7225 54.4859C84.7225 53.9165 84.5078 53.4579 84.0824 53.1106C83.6569 52.763 83.1679 52.5894 82.6153 52.5894C82.0427 52.5894 81.5537 52.7773 81.1521 53.154C80.7466 53.5303 80.5438 53.9743 80.5438 54.4859C80.5438 54.9781 80.671 55.3982 80.9255 55.7458C81.176 56.093 81.6332 56.4358 82.2972 56.7735L85.1598 58.1349C86.1021 58.5689 86.8457 59.112 87.3904 59.7635C87.9351 60.4153 88.2094 61.2332 88.2094 62.2179C88.2094 63.3471 87.8516 64.3222 87.1399 65.1425C86.4242 65.9631 85.5018 66.5326 84.3686 66.8511C84.3686 66.8511 84.3965 68.2917 84.3686 68.6031C84.3607 68.6646 84.2335 68.6646 84.2017 68.719Z" fill="#D03400"/>
<path d="M86.4226 68.719C86.3073 68.8936 86.1125 69.689 85.9177 69.6514C85.7228 69.6141 85.4922 68.6024 85.2576 68.4944C85.027 68.3864 84.7726 69.0652 84.5221 69.0033C84.2716 68.9415 83.9694 68.1896 83.7627 68.1229C83.5559 68.0563 83.3651 68.8027 83.2896 68.6031C83.2101 68.396 83.2896 66.8802 83.2896 66.8802C82.1326 66.5808 81.1783 66.0018 80.4348 65.1425C79.6874 64.2836 79.3137 63.3085 79.3137 62.2179V61.1029C79.3137 61.0161 79.3574 60.9727 79.4488 60.9727H82.5978C82.6654 60.9727 82.6972 61.0161 82.6972 61.1029V62.2179C82.6972 62.7391 82.9119 63.1926 83.3373 63.5789C83.7667 63.9651 84.2637 64.1578 84.8362 64.1578C85.4326 64.1578 85.9335 63.9651 86.3351 63.5789C86.7407 63.1926 86.9434 62.7633 86.9434 62.2903C86.9434 61.6724 86.4942 61.1464 85.5956 60.7119C85.2934 60.5575 84.8163 60.3308 84.1722 60.0314C83.5281 59.7324 82.9278 59.4572 82.3791 59.206C81.3016 58.6848 80.5143 58.019 80.0213 57.2079C79.5243 56.3972 79.2778 55.4898 79.2778 54.4859C79.2778 53.3758 79.6516 52.4106 80.3991 51.5903C81.1465 50.7697 82.0809 50.2146 83.2021 49.9251V48.2022C83.2021 48.1249 83.2538 48.0863 83.3571 48.0863C83.3571 48.0863 83.9019 49.07 84.1285 48.9456C84.3591 48.8208 84.5062 47.4793 84.7328 47.3381C84.9555 47.1973 85.2696 48.0375 85.4843 48.099C85.695 48.1608 85.866 47.711 86.0091 47.709C86.1562 47.7066 86.355 48.0863 86.355 48.0863C86.4663 48.0863 86.522 48.1249 86.522 48.2022V49.9542C87.6233 50.2437 88.5338 50.8035 89.2575 51.6337C89.985 52.4639 90.3469 53.4144 90.3469 54.4859C90.3469 54.4859 90.3628 56.1245 90.3469 56.4697C90.3429 56.5107 90.2912 56.5551 90.2435 56.5565C89.6988 56.5708 87.6233 56.5708 87.0786 56.5565C87.0309 56.5551 86.9793 56.5103 86.9753 56.4697C86.9554 56.1245 86.9434 54.4859 86.9434 54.4859C86.9434 53.9165 86.7287 53.4579 86.3033 53.1106C85.8779 52.763 85.3889 52.5894 84.8362 52.5894C84.2637 52.5894 83.7746 52.7773 83.3731 53.154C82.9675 53.5303 82.7647 53.9743 82.7647 54.4859C82.7647 54.9781 82.892 55.3982 83.1465 55.7458C83.3969 56.093 83.8541 56.4358 84.5181 56.7735L87.3808 58.1349C88.3231 58.5689 89.0666 59.112 89.6113 59.7635C90.156 60.4153 90.4303 61.2332 90.4303 62.2179C90.4303 63.3471 90.0725 64.3222 89.3608 65.1425C88.6452 65.9631 87.7227 66.5326 86.5896 66.8511C86.5896 66.8511 86.6174 68.2917 86.5896 68.6031C86.5816 68.6646 86.4544 68.6646 86.4226 68.719Z" fill="#FF4E13"/>
<mask id="mask10_268_4990" style="mask-type:luminance" maskUnits="userSpaceOnUse" x="79" y="47" width="12" height="23">
<path d="M86.4226 68.719C86.3073 68.8936 86.1125 69.689 85.9177 69.6514C85.7228 69.6141 85.4922 68.6024 85.2576 68.4944C85.027 68.3864 84.7726 69.0652 84.5221 69.0033C84.2716 68.9415 83.9694 68.1896 83.7627 68.1229C83.5559 68.0563 83.3651 68.8027 83.2896 68.6031C83.2101 68.396 83.2896 66.8802 83.2896 66.8802C82.1326 66.5808 81.1783 66.0018 80.4348 65.1425C79.6874 64.2836 79.3137 63.3085 79.3137 62.2179V61.1029C79.3137 61.0161 79.3574 60.9727 79.4488 60.9727H82.5978C82.6654 60.9727 82.6972 61.0161 82.6972 61.1029V62.2179C82.6972 62.7391 82.9119 63.1926 83.3373 63.5789C83.7667 63.9651 84.2637 64.1578 84.8362 64.1578C85.4326 64.1578 85.9335 63.9651 86.3351 63.5789C86.7407 63.1926 86.9434 62.7633 86.9434 62.2903C86.9434 61.6724 86.4942 61.1464 85.5956 60.7119C85.2934 60.5575 84.8163 60.3308 84.1722 60.0314C83.5281 59.7324 82.9278 59.4572 82.3791 59.206C81.3016 58.6848 80.5143 58.019 80.0213 57.2079C79.5243 56.3972 79.2778 55.4898 79.2778 54.4859C79.2778 53.3758 79.6516 52.4106 80.3991 51.5903C81.1465 50.7697 82.0809 50.2146 83.2021 49.9251V48.2022C83.2021 48.1249 83.2538 48.0863 83.3571 48.0863C83.3571 48.0863 83.9019 49.07 84.1285 48.9456C84.3591 48.8208 84.5062 47.4793 84.7328 47.3381C84.9555 47.1973 85.2696 48.0375 85.4843 48.099C85.695 48.1608 85.866 47.711 86.0091 47.709C86.1562 47.7066 86.355 48.0863 86.355 48.0863C86.4663 48.0863 86.522 48.1249 86.522 48.2022V49.9542C87.6233 50.2437 88.5338 50.8035 89.2575 51.6337C89.985 52.4639 90.3469 53.4144 90.3469 54.4859C90.3469 54.4859 90.3628 56.1245 90.3469 56.4697C90.3429 56.5107 90.2912 56.5551 90.2435 56.5565C89.6988 56.5708 87.6233 56.5708 87.0786 56.5565C87.0309 56.5551 86.9793 56.5103 86.9753 56.4697C86.9554 56.1245 86.9434 54.4859 86.9434 54.4859C86.9434 53.9165 86.7287 53.4579 86.3033 53.1106C85.8779 52.763 85.3889 52.5894 84.8362 52.5894C84.2637 52.5894 83.7746 52.7773 83.3731 53.154C82.9675 53.5303 82.7647 53.9743 82.7647 54.4859C82.7647 54.9781 82.892 55.3982 83.1465 55.7458C83.3969 56.093 83.8541 56.4358 84.5181 56.7735L87.3808 58.1349C88.3231 58.5689 89.0666 59.112 89.6113 59.7635C90.156 60.4153 90.4303 61.2332 90.4303 62.2179C90.4303 63.3471 90.0725 64.3222 89.3608 65.1425C88.6452 65.9631 87.7227 66.5326 86.5896 66.8511C86.5896 66.8511 86.6174 68.2917 86.5896 68.6031C86.5816 68.6646 86.4544 68.6646 86.4226 68.719Z" fill="white"/>
</mask>
<g mask="url(#mask10_268_4990)">
<path fill-rule="evenodd" clip-rule="evenodd" d="M75.27 67.4033L89.2177 45.7136L90.5379 46.6186L76.5902 68.3083L75.27 67.4033Z" fill="#FFDBCF"/>
<path fill-rule="evenodd" clip-rule="evenodd" d="M77.708 69.0127L91.6557 47.323L92.3475 47.7972L78.3998 69.4869L77.708 69.0127Z" fill="#FFDBCF"/>
<path fill-rule="evenodd" clip-rule="evenodd" d="M78.8845 70.332L92.8322 48.6423L93.2511 48.9295L79.3034 70.6192L78.8845 70.332Z" fill="#FFDBCF"/>
</g>
<path fill-rule="evenodd" clip-rule="evenodd" d="M99.0206 44.3076C98.7832 44.3076 98.9167 46.6439 98.3064 47.254C97.6961 47.8641 95.3607 47.7306 95.3607 47.969C95.3607 48.2072 97.6961 48.0737 98.3064 48.6838C98.9167 49.2942 98.7832 51.6302 99.0206 51.6302C99.2601 51.6302 99.1265 49.2942 99.7369 48.6838C100.347 48.0737 102.683 48.2072 102.683 47.969C102.683 47.7306 100.347 47.8641 99.7369 47.254C99.1265 46.6439 99.2601 44.3076 99.0206 44.3076Z" fill="#FF4E13"/>
<path fill-rule="evenodd" clip-rule="evenodd" d="M90.2234 42.666C90.0515 42.666 90.1482 44.3581 89.7062 44.8C89.2641 45.2419 87.5727 45.1452 87.5727 45.3178C87.5727 45.4904 89.2641 45.3937 89.7062 45.8356C90.1482 46.2776 90.0515 47.9695 90.2234 47.9695C90.3969 47.9695 90.3002 46.2776 90.7422 45.8356C91.1843 45.3937 92.8757 45.4904 92.8757 45.3178C92.8757 45.1452 91.1843 45.2419 90.7422 44.8C90.3002 44.3581 90.3969 42.666 90.2234 42.666Z" fill="#FF4E13"/>
<path fill-rule="evenodd" clip-rule="evenodd" d="M95.3597 38.707C95.2483 38.707 95.3109 39.8037 95.0244 40.09C94.738 40.3764 93.6417 40.3138 93.6417 40.4257C93.6417 40.5375 94.738 40.4748 95.0244 40.7612C95.3109 41.0477 95.2483 42.1442 95.3597 42.1442C95.4721 42.1442 95.4094 41.0477 95.6959 40.7612C95.9824 40.4748 97.0786 40.5375 97.0786 40.4257C97.0786 40.3138 95.9824 40.3764 95.6959 40.09C95.4094 39.8037 95.4721 38.707 95.3597 38.707Z" fill="#FF4E13"/>
</g>
<defs>
<clipPath id="clip0_268_4990">
<rect width="180" height="180" fill="white"/>
</clipPath>
</defs>
</svg>
