<svg width="648" height="380" viewBox="0 0 648 380" fill="none" xmlns="http://www.w3.org/2000/svg">
<g clip-path="url(#clip0_261_1830)">
<g filter="url(#filter1_f_261_1830)">
<circle cx="46" cy="64" r="177" fill="#FF9966" fill-opacity="0.64"/>
</g>
<path d="M130.212 115.99H109.782V169H97.4517V115.99H77.0217V105.1H130.212V115.99ZM158.538 105.1H171.138L194.628 169H181.848L175.908 153.07H153.588L147.738 169H134.958L158.538 105.1ZM173.658 144.34L164.838 117.97L155.658 144.34H173.658ZM210.637 169V105.1H223.057V169H210.637ZM245.389 169V105.1H257.809V158.11H290.389V169H245.389ZM332.811 169.45C328.131 169.45 323.871 168.55 320.031 166.75C316.251 164.95 312.981 162.52 310.221 159.46C307.521 156.34 305.421 152.86 303.921 149.02C302.421 145.12 301.671 141.13 301.671 137.05C301.671 132.79 302.451 128.74 304.011 124.9C305.631 121 307.821 117.55 310.581 114.55C313.401 111.49 316.701 109.09 320.481 107.35C324.321 105.55 328.521 104.65 333.081 104.65C337.701 104.65 341.901 105.58 345.681 107.44C349.521 109.3 352.791 111.79 355.491 114.91C358.191 118.03 360.291 121.51 361.791 125.35C363.291 129.19 364.041 133.15 364.041 137.23C364.041 141.43 363.261 145.48 361.701 149.38C360.141 153.22 357.951 156.67 355.131 159.73C352.371 162.73 349.071 165.1 345.231 166.84C341.451 168.58 337.311 169.45 332.811 169.45ZM314.271 137.05C314.271 139.81 314.691 142.48 315.531 145.06C316.371 147.64 317.571 149.95 319.131 151.99C320.751 153.97 322.701 155.56 324.981 156.76C327.321 157.9 329.961 158.47 332.901 158.47C335.901 158.47 338.571 157.87 340.911 156.67C343.251 155.41 345.201 153.76 346.761 151.72C348.321 149.62 349.491 147.31 350.271 144.79C351.111 142.21 351.531 139.63 351.531 137.05C351.531 134.29 351.081 131.65 350.181 129.13C349.341 126.55 348.111 124.27 346.491 122.29C344.931 120.25 342.981 118.66 340.641 117.52C338.361 116.32 335.781 115.72 332.901 115.72C329.841 115.72 327.141 116.35 324.801 117.61C322.521 118.81 320.601 120.43 319.041 122.47C317.481 124.51 316.281 126.79 315.441 129.31C314.661 131.83 314.271 134.41 314.271 137.05ZM382.568 169V105.1H410.828C413.768 105.1 416.468 105.7 418.928 106.9C421.448 108.1 423.608 109.72 425.408 111.76C427.268 113.8 428.678 116.08 429.638 118.6C430.658 121.12 431.168 123.7 431.168 126.34C431.168 129.04 430.688 131.65 429.728 134.17C428.828 136.63 427.508 138.79 425.768 140.65C424.028 142.51 421.988 143.95 419.648 144.97L434.228 169H420.548L407.408 147.58H394.988V169H382.568ZM394.988 136.69H410.558C412.118 136.69 413.498 136.24 414.698 135.34C415.898 134.38 416.858 133.12 417.578 131.56C418.298 130 418.658 128.26 418.658 126.34C418.658 124.3 418.238 122.53 417.398 121.03C416.558 119.47 415.478 118.24 414.158 117.34C412.898 116.44 411.518 115.99 410.018 115.99H394.988V136.69ZM495.792 158.11V169H451.422V105.1H494.982V115.99H463.842V131.38H490.752V141.46H463.842V158.11H495.792ZM514.474 169V105.1H537.694C544.654 105.1 550.474 106.54 555.154 109.42C559.834 112.24 563.344 116.08 565.684 120.94C568.024 125.74 569.194 131.08 569.194 136.96C569.194 143.44 567.904 149.08 565.324 153.88C562.744 158.68 559.084 162.4 554.344 165.04C549.664 167.68 544.114 169 537.694 169H514.474ZM556.684 136.96C556.684 132.82 555.934 129.19 554.434 126.07C552.934 122.89 550.774 120.43 547.954 118.69C545.134 116.89 541.714 115.99 537.694 115.99H526.894V158.11H537.694C541.774 158.11 545.224 157.21 548.044 155.41C550.864 153.55 552.994 151.03 554.434 147.85C555.934 144.61 556.684 140.98 556.684 136.96ZM124.974 227.84C124.554 227.42 123.774 226.85 122.634 226.13C121.554 225.41 120.204 224.72 118.584 224.06C117.024 223.4 115.314 222.83 113.454 222.35C111.594 221.81 109.704 221.54 107.784 221.54C104.424 221.54 101.874 222.17 100.134 223.43C98.4541 224.69 97.6141 226.46 97.6141 228.74C97.6141 230.48 98.1541 231.86 99.2341 232.88C100.314 233.9 101.934 234.77 104.094 235.49C106.254 236.21 108.954 236.99 112.194 237.83C116.394 238.85 120.024 240.11 123.084 241.61C126.204 243.05 128.574 244.97 130.194 247.37C131.874 249.71 132.714 252.83 132.714 256.73C132.714 260.15 132.084 263.09 130.824 265.55C129.564 267.95 127.824 269.9 125.604 271.4C123.384 272.9 120.864 274.01 118.044 274.73C115.224 275.39 112.224 275.72 109.044 275.72C105.864 275.72 102.684 275.39 99.5041 274.73C96.3241 274.07 93.2641 273.14 90.3241 271.94C87.3841 270.68 84.6841 269.18 82.2241 267.44L87.7141 256.73C88.2541 257.27 89.2141 257.99 90.5941 258.89C91.9741 259.73 93.6541 260.6 95.6341 261.5C97.6141 262.34 99.7741 263.06 102.114 263.66C104.454 264.26 106.824 264.56 109.224 264.56C112.584 264.56 115.134 263.99 116.874 262.85C118.614 261.71 119.484 260.09 119.484 257.99C119.484 256.07 118.794 254.57 117.414 253.49C116.034 252.41 114.114 251.48 111.654 250.7C109.194 249.86 106.284 248.96 102.924 248C98.9041 246.86 95.5441 245.6 92.8441 244.22C90.1441 242.78 88.1341 240.98 86.8141 238.82C85.4941 236.66 84.8341 233.96 84.8341 230.72C84.8341 226.34 85.8541 222.68 87.8941 219.74C89.9941 216.74 92.8141 214.49 96.3541 212.99C99.8941 211.43 103.824 210.65 108.144 210.65C111.144 210.65 113.964 210.98 116.604 211.64C119.304 212.3 121.824 213.17 124.164 214.25C126.504 215.33 128.604 216.5 130.464 217.76L124.974 227.84ZM195.469 264.11V275H151.099V211.1H194.659V221.99H163.519V237.38H190.429V247.46H163.519V264.11H195.469ZM214.152 275V211.1H242.412C245.352 211.1 248.052 211.7 250.512 212.9C253.032 214.1 255.192 215.72 256.992 217.76C258.852 219.8 260.262 222.08 261.222 224.6C262.242 227.12 262.752 229.7 262.752 232.34C262.752 235.04 262.272 237.65 261.312 240.17C260.412 242.63 259.092 244.79 257.352 246.65C255.612 248.51 253.572 249.95 251.232 250.97L265.812 275H252.132L238.992 253.58H226.572V275H214.152ZM226.572 242.69H242.142C243.702 242.69 245.082 242.24 246.282 241.34C247.482 240.38 248.442 239.12 249.162 237.56C249.882 236 250.242 234.26 250.242 232.34C250.242 230.3 249.822 228.53 248.982 227.03C248.142 225.47 247.062 224.24 245.742 223.34C244.482 222.44 243.102 221.99 241.602 221.99H226.572V242.69ZM287.466 211.1L304.746 260.24L321.846 211.1H334.896L310.686 275H298.716L274.416 211.1H287.466ZM350.717 275V211.1H363.137V275H350.717ZM381.599 242.6C381.599 238.7 382.289 234.89 383.669 231.17C385.109 227.39 387.179 223.97 389.879 220.91C392.579 217.79 395.879 215.33 399.779 213.53C403.679 211.67 408.119 210.74 413.099 210.74C418.979 210.74 424.049 212.03 428.309 214.61C432.629 217.19 435.839 220.55 437.939 224.69L428.399 231.26C427.319 228.86 425.909 226.97 424.169 225.59C422.429 224.15 420.569 223.16 418.589 222.62C416.609 222.02 414.659 221.72 412.739 221.72C409.619 221.72 406.889 222.35 404.549 223.61C402.269 224.87 400.349 226.52 398.789 228.56C397.229 230.6 396.059 232.88 395.279 235.4C394.559 237.92 394.199 240.44 394.199 242.96C394.199 245.78 394.649 248.51 395.549 251.15C396.449 253.73 397.709 256.04 399.329 258.08C401.009 260.06 402.989 261.65 405.269 262.85C407.609 263.99 410.159 264.56 412.919 264.56C414.899 264.56 416.909 264.23 418.949 263.57C420.989 262.91 422.879 261.86 424.619 260.42C426.359 258.98 427.709 257.12 428.669 254.84L438.839 260.69C437.579 263.87 435.509 266.57 432.629 268.79C429.809 271.01 426.629 272.69 423.089 273.83C419.549 274.97 416.039 275.54 412.559 275.54C407.999 275.54 403.829 274.61 400.049 272.75C396.269 270.83 392.999 268.31 390.239 265.19C387.539 262.01 385.409 258.47 383.849 254.57C382.349 250.61 381.599 246.62 381.599 242.6ZM500.538 264.11V275H456.168V211.1H499.728V221.99H468.588V237.38H495.498V247.46H468.588V264.11H500.538ZM557.291 227.84C556.871 227.42 556.091 226.85 554.951 226.13C553.871 225.41 552.521 224.72 550.901 224.06C549.341 223.4 547.631 222.83 545.771 222.35C543.911 221.81 542.021 221.54 540.101 221.54C536.741 221.54 534.191 222.17 532.451 223.43C530.771 224.69 529.931 226.46 529.931 228.74C529.931 230.48 530.471 231.86 531.551 232.88C532.631 233.9 534.251 234.77 536.411 235.49C538.571 236.21 541.271 236.99 544.511 237.83C548.711 238.85 552.341 240.11 555.401 241.61C558.521 243.05 560.891 244.97 562.511 247.37C564.191 249.71 565.031 252.83 565.031 256.73C565.031 260.15 564.401 263.09 563.141 265.55C561.881 267.95 560.141 269.9 557.921 271.4C555.701 272.9 553.181 274.01 550.361 274.73C547.541 275.39 544.541 275.72 541.361 275.72C538.181 275.72 535.001 275.39 531.821 274.73C528.641 274.07 525.581 273.14 522.641 271.94C519.701 270.68 517.001 269.18 514.541 267.44L520.031 256.73C520.571 257.27 521.531 257.99 522.911 258.89C524.291 259.73 525.971 260.6 527.951 261.5C529.931 262.34 532.091 263.06 534.431 263.66C536.771 264.26 539.141 264.56 541.541 264.56C544.901 264.56 547.451 263.99 549.191 262.85C550.931 261.71 551.801 260.09 551.801 257.99C551.801 256.07 551.111 254.57 549.731 253.49C548.351 252.41 546.431 251.48 543.971 250.7C541.511 249.86 538.601 248.96 535.241 248C531.221 246.86 527.861 245.6 525.161 244.22C522.461 242.78 520.451 240.98 519.131 238.82C517.811 236.66 517.151 233.96 517.151 230.72C517.151 226.34 518.171 222.68 520.211 219.74C522.311 216.74 525.131 214.49 528.671 212.99C532.211 211.43 536.141 210.65 540.461 210.65C543.461 210.65 546.281 210.98 548.921 211.64C551.621 212.3 554.141 213.17 556.481 214.25C558.821 215.33 560.921 216.5 562.781 217.76L557.291 227.84Z" fill="url(#paint0_linear_261_1830)"/>
<g filter="url(#filter3_f_261_1830)">
<circle cx="624" cy="350" r="193" fill="white" fill-opacity="0.4"/>
</g>
</g>
<rect x="1" y="1" width="646" height="378" rx="19" stroke="white" stroke-width="2"/>
<defs>
<filter id="filter1_f_261_1830" x="-531" y="-513" width="1154" height="1154" filterUnits="userSpaceOnUse" color-interpolation-filters="sRGB">
<feFlood flood-opacity="0" result="BackgroundImageFix"/>
<feBlend mode="normal" in="SourceGraphic" in2="BackgroundImageFix" result="shape"/>
<feGaussianBlur stdDeviation="200" result="effect1_foregroundBlur_261_1830"/>
</filter>
<filter id="filter3_f_261_1830" x="31" y="-243" width="1186" height="1186" filterUnits="userSpaceOnUse" color-interpolation-filters="sRGB">
<feFlood flood-opacity="0" result="BackgroundImageFix"/>
<feBlend mode="normal" in="SourceGraphic" in2="BackgroundImageFix" result="shape"/>
<feGaussianBlur stdDeviation="200" result="effect1_foregroundBlur_261_1830"/>
</filter>
<linearGradient id="paint0_linear_261_1830" x1="88.5591" y1="190.658" x2="546.581" y2="190.658" gradientUnits="userSpaceOnUse">
<stop stop-color="#FF9966"/>
<stop offset="1" stop-color="white"/>
</linearGradient>
<clipPath id="clip0_261_1830">
<rect width="648" height="380" rx="20" fill="white"/>
</clipPath>
</defs>
</svg>
