<svg width="20" height="20" viewBox="0 0 20 20" fill="none" xmlns="http://www.w3.org/2000/svg">
<path d="M19.5833 18.4992H19.4562L14.8908 6.31088C14.8621 6.23126 14.8094 6.16248 14.7401 6.11399C14.6707 6.0655 14.588 6.03967 14.5033 6.04005C14.345 6.02338 14.1742 6.14422 14.1117 6.30672L11.7408 12.3817L9.9675 8.45338V4.01088H13.6742C13.9033 4.01088 14.0908 3.82338 14.0908 3.59422V1.08589C14.0908 0.852552 13.9033 0.669219 13.6742 0.669219H9.55875C9.55583 0.669219 9.55375 0.667969 9.55042 0.667969C9.46128 0.66979 9.37521 0.700823 9.30542 0.756302C9.25249 0.793558 9.2092 0.842885 9.17913 0.900199C9.14906 0.957513 9.13308 1.02117 9.1325 1.08589V3.59422C9.1325 3.59672 9.13417 3.5988 9.13417 3.6013V8.56672L7.31167 12.5942L5.86583 9.84005C5.72417 9.56505 5.27417 9.56505 5.12833 9.84005L0.58375 18.4992H0.416667C0.30616 18.4992 0.200179 18.5431 0.122039 18.6213C0.0438984 18.6994 0 18.8054 0 18.9159C0 19.0264 0.0438984 19.1324 0.122039 19.2105C0.200179 19.2887 0.30616 19.3326 0.416667 19.3326H19.5833C19.6938 19.3326 19.7998 19.2887 19.878 19.2105C19.9561 19.1324 20 19.0264 20 18.9159C20 18.8054 19.9561 18.6994 19.878 18.6213C19.7998 18.5431 19.6938 18.4992 19.5833 18.4992ZM15.5479 16.8046C15.5479 16.6941 15.5918 16.5881 15.67 16.51C15.7481 16.4319 15.8541 16.388 15.9646 16.388C16.0751 16.388 16.1811 16.4319 16.2592 16.51C16.3374 16.5881 16.3813 16.6941 16.3813 16.8046V17.013C16.3813 17.1235 16.3374 17.2295 16.2592 17.3076C16.1811 17.3857 16.0751 17.4296 15.9646 17.4296C15.8541 17.4296 15.7481 17.3857 15.67 17.3076C15.5918 17.2295 15.5479 17.1235 15.5479 17.013V16.8046ZM14.0083 13.7355C14.0083 13.625 14.0522 13.519 14.1304 13.4408C14.2085 13.3627 14.3145 13.3188 14.425 13.3188C14.5355 13.3188 14.6415 13.3627 14.7196 13.4408C14.7978 13.519 14.8417 13.625 14.8417 13.7355V13.9438C14.8417 14.0543 14.7978 14.1603 14.7196 14.2384C14.6415 14.3166 14.5355 14.3605 14.425 14.3605C14.3145 14.3605 14.2085 14.3166 14.1304 14.2384C14.0522 14.1603 14.0083 14.0543 14.0083 13.9438V13.7355ZM12.3883 16.0938C12.3883 15.9833 12.4322 15.8773 12.5104 15.7992C12.5885 15.721 12.6945 15.6771 12.805 15.6771C12.9155 15.6771 13.0215 15.721 13.0996 15.7992C13.1778 15.8773 13.2217 15.9833 13.2217 16.0938V16.3021C13.2217 16.4126 13.1778 16.5186 13.0996 16.5968C13.0215 16.6749 12.9155 16.7188 12.805 16.7188C12.6945 16.7188 12.5885 16.6749 12.5104 16.5968C12.4322 16.5186 12.3883 16.4126 12.3883 16.3021V16.0938ZM9.13417 13.9438C9.13417 13.8333 9.17807 13.7273 9.25621 13.6492C9.33435 13.571 9.44033 13.5271 9.55083 13.5271C9.66134 13.5271 9.76732 13.571 9.84546 13.6492C9.9236 13.7273 9.9675 13.8333 9.9675 13.9438V14.1521C9.9675 14.2626 9.9236 14.3686 9.84546 14.4468C9.76732 14.5249 9.66134 14.5688 9.55083 14.5688C9.44033 14.5688 9.33435 14.5249 9.25621 14.4468C9.17807 14.3686 9.13417 14.2626 9.13417 14.1521V13.9438ZM7.04542 16.9088C7.04542 16.7983 7.08931 16.6923 7.16746 16.6142C7.2456 16.536 7.35158 16.4921 7.46208 16.4921C7.57259 16.4921 7.67857 16.536 7.75671 16.6142C7.83485 16.6923 7.87875 16.7983 7.87875 16.9088V17.1171C7.87875 17.2276 7.83485 17.3336 7.75671 17.4118C7.67857 17.4899 7.57259 17.5338 7.46208 17.5338C7.35158 17.5338 7.2456 17.4899 7.16746 17.4118C7.08931 17.3336 7.04542 17.2276 7.04542 17.1171V16.9088ZM4.16458 15.9896C4.16458 15.8791 4.20848 15.7731 4.28662 15.695C4.36476 15.6169 4.47074 15.573 4.58125 15.573C4.69176 15.573 4.79774 15.6169 4.87588 15.695C4.95402 15.7731 4.99792 15.8791 4.99792 15.9896V16.198C4.99792 16.3085 4.95402 16.4145 4.87588 16.4926C4.79774 16.5707 4.69176 16.6146 4.58125 16.6146C4.47074 16.6146 4.36476 16.5707 4.28662 16.4926C4.20848 16.4145 4.16458 16.3085 4.16458 16.198V15.9896Z" fill="white"/>
</svg>
