<svg width="461" height="460" viewBox="0 0 461 460" fill="none" xmlns="http://www.w3.org/2000/svg">
<g clip-path="url(#clip0_928_34010)">
<path d="M127.038 289.703C129.904 288.557 132.806 287.48 135.705 286.24L144.486 282.49C147.433 281.188 150.368 279.784 153.353 278.396C156.337 277.009 159.301 275.531 162.285 274.045C168.299 271.13 174.231 267.814 180.265 264.535L189.218 259.324L191.47 258.01L193.684 256.622C195.161 255.697 196.641 254.77 198.126 253.842L202.584 251.05C204.062 250.096 205.511 249.097 206.977 248.123C209.892 246.142 212.855 244.222 215.75 242.179L224.383 235.969L226.541 234.413L228.653 232.776L232.874 229.525C238.564 225.276 243.964 220.65 249.437 216.184C252.135 213.903 254.759 211.529 257.408 209.224L261.362 205.745C262.685 204.602 263.929 203.362 265.214 202.179L272.821 195.044C274.098 193.877 275.277 192.632 276.505 191.416C277.733 190.201 278.937 188.985 280.144 187.773C281.352 186.561 282.564 185.358 283.763 184.154C284.963 182.951 286.174 181.768 287.313 180.515L294.206 173.187L297.6 169.568L300.875 165.884L307.29 158.601C309.431 156.231 311.433 153.77 313.431 151.359L319.334 144.224C326.973 134.718 334.022 125.597 340.212 116.947L344.822 110.643L349.05 104.502C351.789 100.494 354.425 96.7239 356.829 93.1378L363.407 82.9567L366.33 78.4535C366.797 77.7385 367.251 77.0357 367.693 76.3453L368.921 74.2984L379.103 57.5918L402.281 72.1123L390.901 88.778C390.45 89.4412 389.985 90.1235 389.505 90.8249L387.982 92.9331L384.707 97.4363L377.338 107.581C374.657 111.163 371.726 114.917 368.676 118.904L363.976 125.02L358.867 131.292C351.986 139.888 344.195 148.94 335.783 158.343C333.64 160.663 331.473 163.017 329.282 165.405C327.092 167.787 324.893 170.215 322.543 172.557L315.531 179.737L311.965 183.364L308.256 186.926L300.744 194.135C299.496 195.363 298.186 196.525 296.871 197.704L292.937 201.25L288.975 204.815C287.648 206.003 286.342 207.218 284.955 208.356L276.702 215.316C275.314 216.466 273.963 217.674 272.53 218.787L268.252 222.165C265.386 224.408 262.558 226.713 259.655 228.919C253.756 233.242 247.939 237.709 241.835 241.79L237.303 244.914L235.044 246.469L232.731 247.955L223.495 253.887C220.404 255.832 217.244 257.653 214.133 259.528C212.573 260.453 211.03 261.403 209.458 262.304L204.709 264.936L199.993 267.552L197.639 268.858L195.256 270.086L185.763 274.958C179.393 277.987 173.134 281.07 166.813 283.718C163.673 285.09 160.574 286.477 157.434 287.689C154.294 288.901 151.228 290.207 148.15 291.374L138.976 294.771C135.954 295.881 132.917 296.818 129.969 297.838C118.036 301.731 106.565 304.637 96.0239 307.462C59.913 317.176 29.4473 319.891 29.4473 319.891C29.4473 319.891 82.3058 309.624 127.038 289.703Z" fill="#A83300"/>
<path d="M379.242 58.2386L401.618 72.2515L390.512 88.516L389.796 89.564L389.12 90.5424L387.597 92.6507L384.629 96.7444L384.33 97.1538L380.237 102.836L377.011 107.29C375.267 109.619 373.433 111.998 371.496 114.515C370.465 115.855 369.415 117.22 368.348 118.609L365.659 122.109L363.657 124.717L361.152 127.791L358.544 130.989C352.162 138.963 344.625 147.806 335.484 158.007L328.983 165.065L328.107 166.023C326.228 168.07 324.287 170.182 322.253 172.209L321.774 172.696L315.224 179.385L313.586 181.072L311.634 183.012L310.254 184.334L307.925 186.574L300.408 193.783C299.287 194.884 298.087 195.961 296.925 197.004L296.552 197.34L293.953 199.715L292.634 200.902L290.203 203.092L288.676 204.463L287.697 205.343C286.719 206.228 285.708 207.141 284.664 207.996C281.935 210.308 279.185 212.628 276.415 214.956C275.924 215.365 275.437 215.774 274.945 216.184C274.073 216.925 273.173 217.69 272.252 218.407L270.434 219.856L267.953 221.813C266.949 222.601 265.946 223.395 264.944 224.195C263.123 225.64 261.26 227.13 259.36 228.559C257.868 229.651 256.379 230.742 254.894 231.834C250.575 235.039 246.105 238.355 241.549 241.401L237.017 244.521L234.769 246.072L232.456 247.558L223.225 253.486C221.211 254.751 219.131 255.987 217.121 257.17C216.036 257.817 214.951 258.46 213.875 259.111L212.237 260.101C211.255 260.691 210.235 261.301 209.232 261.878L207.304 262.947L204.492 264.506L200.525 266.705L199.772 267.114L197.434 268.412L195.052 269.64L185.583 274.499L182.5 275.977C177.052 278.613 171.922 281.074 166.637 283.309L165.155 283.956C162.576 285.086 159.907 286.252 157.266 287.272C156.169 287.706 155.076 288.148 153.991 288.586C152.022 289.38 149.988 290.199 147.998 290.956L138.8 294.317C136.851 295.033 134.874 295.688 132.958 296.319C131.893 296.671 130.833 297.023 129.789 297.379C119.809 300.654 110.274 303.18 101.055 305.636L95.8847 307.02C77.1908 311.991 58.1979 315.761 39.0225 318.306C56.3268 314.38 94.1776 304.846 127.214 290.137C128.216 289.736 129.224 289.339 130.239 288.946C132.09 288.221 134.002 287.476 135.885 286.67L138.881 285.389L144.674 282.9C146.59 282.052 148.534 281.147 150.405 280.271L153.537 278.818C156.092 277.676 158.662 276.382 161.151 275.134L162.482 274.462C167.484 272.039 172.528 269.284 177.412 266.615L180.49 264.936L185.853 261.817L189.447 259.725L191.707 258.398L193.926 257.015C195.4 256.09 196.88 255.163 198.368 254.235L202.83 251.439C203.784 250.825 204.738 250.178 205.663 249.556L207.231 248.504C208.262 247.804 209.302 247.112 210.342 246.416C212.209 245.188 214.141 243.882 216.016 242.556L220.617 239.248L224.645 236.345L226.819 234.782L228.932 233.144L233.144 229.898C237.352 226.754 241.458 223.348 245.425 220.073C246.855 218.891 248.287 217.712 249.72 216.536C251.451 215.074 253.171 213.555 254.837 212.086C255.791 211.243 256.74 210.399 257.702 209.568L258.374 208.979L261.649 206.113C262.513 205.368 263.348 204.574 264.158 203.808C264.609 203.399 265.059 202.953 265.517 202.531L273.115 195.4C274.09 194.515 275.027 193.57 275.936 192.661L276.833 191.76L280.472 188.117L282.625 185.964L284.091 184.498L284.463 184.13C285.524 183.069 286.625 181.972 287.648 180.855L294.53 173.515L295.811 172.151L297.936 169.887L299.25 168.401L301.199 166.195L307.609 158.92C309.46 156.873 311.22 154.736 312.931 152.673L313.75 151.662L318.757 145.612L319.661 144.518C327.992 134.149 334.833 125.216 340.568 117.221L345.182 110.905L345.878 109.898L349.411 104.752C350.407 103.303 351.385 101.882 352.346 100.49C354.049 98.0135 355.662 95.6759 357.201 93.3794L363.62 83.4479L363.78 83.1982L365.442 80.6273L366.703 78.6787L367.587 77.3114L368.074 76.5622L368.344 76.1201L369.319 74.5194L379.217 58.2386H379.242ZM379.09 57.5918L368.946 74.2738L367.718 76.3207C367.276 77.0085 366.821 77.7112 366.355 78.429C365.427 79.87 364.452 81.371 363.432 82.9321L356.853 93.1133C354.446 96.7035 351.81 100.482 349.075 104.478L344.846 110.618L340.212 116.947C334.01 125.597 326.961 134.718 319.334 144.224L313.427 151.363C311.433 153.774 309.431 156.235 307.286 158.605L300.871 165.888L297.596 169.572L294.206 173.187L287.325 180.523C286.187 181.776 284.979 182.979 283.776 184.162C282.572 185.345 281.368 186.574 280.157 187.781C278.945 188.989 277.737 190.209 276.517 191.425C275.297 192.641 274.098 193.881 272.833 195.052L265.214 202.195C263.929 203.378 262.685 204.619 261.362 205.761L257.408 209.241C254.755 211.55 252.135 213.924 249.437 216.2C243.964 220.675 238.564 225.296 232.874 229.546L228.653 232.796L226.541 234.434L224.383 235.989L215.762 242.187C212.872 244.234 209.904 246.15 206.989 248.131C205.524 249.106 204.07 250.104 202.597 251.058L198.126 253.834C196.639 254.759 195.158 255.686 193.684 256.614L191.47 258.001L189.218 259.315L180.265 264.527C174.231 267.802 168.299 271.122 162.285 274.037C159.301 275.535 156.349 277.05 153.353 278.388C150.356 279.727 147.433 281.164 144.486 282.482L135.705 286.24C132.806 287.468 129.892 288.557 127.038 289.703C82.3058 309.624 29.4473 319.899 29.4473 319.899C29.4473 319.899 59.913 317.185 96.0239 307.462C106.565 304.629 118.036 301.706 129.953 297.817C132.917 296.802 135.954 295.86 138.959 294.751L148.133 291.386C151.212 290.215 154.274 288.93 157.418 287.701C160.562 286.473 163.657 285.102 166.797 283.731C173.117 281.066 179.377 277.999 185.747 274.954L195.228 270.086L197.61 268.858L199.964 267.552L204.709 264.936L209.449 262.308C211.021 261.407 212.565 260.458 214.125 259.532C217.236 257.657 220.396 255.848 223.487 253.891L232.722 247.959L235.035 246.473L237.295 244.918L241.827 241.794C247.931 237.7 253.748 233.246 259.647 228.923C262.562 226.717 265.378 224.42 268.244 222.169L272.522 218.791C273.955 217.678 275.306 216.47 276.693 215.32L284.946 208.361C286.334 207.222 287.64 206.007 288.966 204.819L292.929 201.254L296.863 197.709C298.177 196.53 299.487 195.363 300.736 194.139L308.248 186.93L311.957 183.368L315.531 179.737L322.56 172.561C324.91 170.219 327.108 167.791 329.298 165.409C331.488 163.026 333.658 160.668 335.799 158.347C344.212 148.932 352.002 139.893 358.884 131.296L363.993 125.024L368.692 118.908C371.742 114.921 374.673 111.167 377.355 107.585L384.723 97.4404L387.998 92.9372L389.521 90.829C389.999 90.133 390.464 89.4507 390.917 88.7821L402.298 72.1164L379.103 57.5918H379.09Z" fill="url(#paint0_linear_928_34010)"/>
<path d="M349.822 67.2335L421.434 15.7505L426.478 19.7665L354.866 71.2454L349.822 67.2335Z" fill="white"/>
<path d="M421.418 16.3359L425.704 19.746L354.882 70.66L350.6 67.2499L421.422 16.3359H421.418ZM421.418 15.7505L349.822 67.2335L354.866 71.2454L426.478 19.7665L421.434 15.7505H421.418Z" fill="url(#paint1_linear_928_34010)"/>
<path d="M34.2629 319.182C37.6239 318.708 42.4913 317.913 48.6852 316.833C54.879 315.752 62.3869 314.311 70.9142 312.33C79.4538 310.434 89.0086 307.966 99.3126 304.916C109.617 301.866 120.633 298.124 132.087 293.699C134.953 292.557 137.855 291.48 140.75 290.236L149.531 286.482C152.478 285.18 155.413 283.776 158.398 282.388C161.382 281 164.346 279.522 167.334 278.036C173.344 275.121 179.28 271.806 185.31 268.526L194.267 263.315L196.523 262.021L198.737 260.638L203.179 257.854L207.641 255.066C209.115 254.112 210.564 253.113 212.03 252.135C214.945 250.154 217.913 248.238 220.803 246.195L229.437 239.985L231.598 238.429L233.706 236.792L237.927 233.541C243.617 229.292 249.017 224.666 254.49 220.196C257.192 217.919 259.812 215.545 262.461 213.236L266.415 209.757C267.742 208.614 268.982 207.374 270.268 206.191L277.874 199.051C279.151 197.889 280.33 196.64 281.558 195.428C282.786 194.217 283.99 192.997 285.202 191.785L288.816 188.166C290.02 186.967 291.228 185.775 292.366 184.527L299.247 177.191L302.641 173.572L305.916 169.888L312.331 162.605C314.476 160.234 316.474 157.774 318.471 155.363L324.379 148.223C332.018 138.718 339.067 129.597 345.257 120.943C346.829 118.798 348.365 116.696 349.866 114.638L354.095 108.498C356.834 104.49 359.47 100.72 361.873 97.1293L368.46 86.9604L371.379 82.4573L372.746 80.349L373.975 78.3022C375.383 75.9851 376.655 73.8932 377.79 72.0264L354.865 71.2568L426.481 19.7656L411.408 106.66L400.543 86.0475L395.938 92.794L394.537 94.8409L393.015 96.9492L389.74 101.452L382.395 111.601C379.714 115.183 376.779 118.937 373.729 122.924L369.029 129.04L363.92 135.312C357.039 143.909 349.248 152.96 340.836 162.363C338.699 164.686 336.533 167.04 334.339 169.425C332.145 171.803 329.946 174.231 327.596 176.577L320.563 183.749L316.994 187.38L313.281 190.942L305.781 198.159C304.553 199.387 303.222 200.55 301.912 201.725L297.974 205.274L294.011 208.84C292.685 210.023 291.379 211.243 289.991 212.377L281.742 219.336C280.35 220.486 279.004 221.69 277.567 222.807L273.289 226.185C270.423 228.428 267.594 230.729 264.692 232.939C258.789 237.262 252.971 241.729 246.868 245.81L242.328 248.921L240.068 250.481L237.755 251.967L228.519 257.928C225.429 259.872 222.268 261.69 219.161 263.569C217.597 264.494 216.054 265.44 214.482 266.344L209.746 268.973L205.025 271.589L202.663 272.87L200.281 274.098L190.812 278.97C184.438 282.015 178.179 285.086 171.862 287.751C168.718 289.122 165.619 290.51 162.479 291.722C159.339 292.933 156.273 294.239 153.194 295.406L144.02 298.771C140.999 299.88 137.962 300.818 135.014 301.833C123.101 305.726 111.713 308.993 101.085 311.482C90.4578 313.971 80.6737 315.985 71.9459 317.463C63.2303 318.994 55.5913 320.001 49.2992 320.808C43.0071 321.614 38.0332 322.105 34.6723 322.404L29.4978 322.896L29.1416 319.944L34.2629 319.182Z" fill="url(#paint2_linear_928_34010)"/>
<path d="M34.2629 319.182C37.6239 318.708 42.4913 317.913 48.6852 316.833C54.879 315.752 62.3869 314.311 70.9142 312.33C79.4538 310.434 89.0086 307.966 99.3126 304.916C109.617 301.866 120.633 298.124 132.087 293.699C134.953 292.557 137.855 291.48 140.75 290.236L149.531 286.482C152.478 285.18 155.413 283.776 158.398 282.388C161.382 281 164.346 279.522 167.334 278.036C173.344 275.121 179.28 271.806 185.31 268.526L194.267 263.315L196.523 262.021L198.737 260.638L203.179 257.854L207.641 255.066C209.115 254.112 210.564 253.113 212.03 252.135C214.945 250.154 217.913 248.238 220.803 246.195L229.437 239.985L231.598 238.429L233.706 236.792L237.927 233.541C243.617 229.292 249.017 224.666 254.49 220.196C257.192 217.919 259.812 215.545 262.461 213.236L266.415 209.757C267.742 208.614 268.982 207.374 270.268 206.191L277.874 199.051C279.151 197.889 280.33 196.64 281.558 195.428C282.786 194.217 283.99 192.997 285.202 191.785L288.816 188.166C290.02 186.967 291.228 185.775 292.366 184.527L299.247 177.191L302.641 173.572L305.916 169.888L312.331 162.605C314.476 160.234 316.474 157.774 318.471 155.363L324.379 148.223C332.018 138.718 339.067 129.597 345.257 120.943C346.829 118.798 348.365 116.696 349.866 114.638L354.095 108.498C356.834 104.49 359.47 100.72 361.873 97.1293L368.46 86.9604L371.379 82.4573L372.746 80.349L373.975 78.3022C375.383 75.9851 376.655 73.8932 377.79 72.0264L354.865 71.2568L426.481 19.7656L411.408 106.66L400.543 86.0475L395.938 92.794L394.537 94.8409L393.015 96.9492L389.74 101.452L382.395 111.601C379.714 115.183 376.779 118.937 373.729 122.924L369.029 129.04L363.92 135.312C357.039 143.909 349.248 152.96 340.836 162.363C338.699 164.686 336.533 167.04 334.339 169.425C332.145 171.803 329.946 174.231 327.596 176.577L320.563 183.749L316.994 187.38L313.281 190.942L305.781 198.159C304.553 199.387 303.222 200.55 301.912 201.725L297.974 205.274L294.011 208.84C292.685 210.023 291.379 211.243 289.991 212.377L281.742 219.336C280.35 220.486 279.004 221.69 277.567 222.807L273.289 226.185C270.423 228.428 267.594 230.729 264.692 232.939C258.789 237.262 252.971 241.729 246.868 245.81L242.328 248.921L240.068 250.481L237.755 251.967L228.519 257.928C225.429 259.872 222.268 261.69 219.161 263.569C217.597 264.494 216.054 265.44 214.482 266.344L209.746 268.973L205.025 271.589L202.663 272.87L200.281 274.098L190.812 278.97C184.438 282.015 178.179 285.086 171.862 287.751C168.718 289.122 165.619 290.51 162.479 291.722C159.339 292.933 156.273 294.239 153.194 295.406L144.02 298.771C140.999 299.88 137.962 300.818 135.014 301.833C123.101 305.726 111.713 308.993 101.085 311.482C90.4578 313.971 80.6737 315.985 71.9459 317.463C63.2303 318.994 55.5913 320.001 49.2992 320.808C43.0071 321.614 38.0332 322.105 34.6723 322.404L29.4978 322.896L29.1416 319.944L34.2629 319.182Z" fill="url(#paint3_linear_928_34010)"/>
<path d="M120.46 401.647H42.1348V444.353H120.46V401.647Z" fill="#C66000"/>
<path d="M227.234 356.621H148.912V444.35H227.234V356.621Z" fill="#C66000"/>
<path d="M329.552 307.9H251.227V444.353H329.552V307.9Z" fill="#C66000"/>
<path d="M431.869 259.423H353.547V444.354H431.869V259.423Z" fill="#C66000"/>
<path d="M110.656 402.093H32.3301V444.799H110.656V402.093Z" fill="white"/>
<path d="M111.1 445.249H31.8818V401.647H111.1V445.249ZM32.7702 444.357H110.208V402.544H32.7702V444.357Z" fill="#753E0B"/>
<path d="M217.437 357.071H139.111V444.804H217.437V357.071Z" fill="white"/>
<path d="M217.882 445.251H138.664V356.625H217.882V445.251ZM139.556 444.358H216.99V357.517H139.556V444.358Z" fill="#753E0B"/>
<path d="M319.753 308.347H241.428V444.8H319.753V308.347Z" fill="white"/>
<path d="M320.197 445.25H240.979V307.9H320.197V445.25ZM241.871 444.357H319.304V308.797H241.871V444.357Z" fill="#753E0B"/>
<path d="M422.07 259.873H343.744V444.804H422.07V259.873Z" fill="white"/>
<path d="M422.497 445.25H343.295V259.423H422.497V445.25ZM344.175 444.358H421.604V260.319H344.191L344.175 444.358Z" fill="#753E0B"/>
<path d="M284.538 184.511C284.538 184.511 238.737 197.345 206.949 186.148L227.009 167.317H257.994L273.714 169.147L279.036 175.152L284.538 184.511Z" fill="#371D05"/>
<path d="M175.527 241.708C184.767 234.495 217.14 226.324 235.005 221.583C243.459 225.267 251.262 231.293 251.659 240.893C250.53 242.072 249.026 242.822 247.405 243.014C234.334 245.061 189.274 246.792 185.144 255.844C177.423 272.702 175.527 241.708 175.527 241.708Z" fill="#FBC99B"/>
<path d="M185.413 259.303C185.413 259.303 177.778 263.487 175.301 270.766C172.824 278.044 171.363 289.556 167.114 289.368C162.864 289.179 163.257 288.88 163.257 288.88C163.257 288.88 158.754 270.487 161.497 256.106C164.24 241.724 165.202 234.888 168.653 234.143C172.104 233.398 186.428 235.371 188.512 233.77C190.595 232.17 191.455 255.881 185.413 259.303Z" fill="#371D05"/>
<path d="M165.698 256.176C168.04 243.531 169.113 236.432 171.43 233.972C170.502 233.938 169.574 233.996 168.658 234.144C165.207 234.889 164.253 241.725 161.502 256.107C158.751 270.488 163.263 288.881 163.263 288.881C163.263 288.881 162.853 289.18 167.086 289.368C166.149 284.816 163.324 268.981 165.698 256.176Z" fill="#A83300"/>
<path d="M167.618 289.859L167.049 289.834C162.992 289.654 162.906 289.38 162.808 289.065L162.718 288.762L162.747 288.737C162.206 286.392 158.489 269.407 161.044 256.045C161.302 254.714 161.539 253.445 161.768 252.246C164.073 240.038 165.129 234.466 168.548 233.725C169.495 233.576 170.454 233.515 171.413 233.541H172.437L171.737 234.286C169.78 236.382 168.687 242.371 166.869 252.299L166.136 256.278C163.778 269.001 166.591 284.77 167.508 289.298L167.618 289.859ZM163.639 288.631C164.586 288.796 165.544 288.889 166.505 288.909C165.49 283.71 162.947 268.51 165.248 256.11L165.977 252.131C167.7 242.715 168.728 237.119 170.48 234.442C169.89 234.44 169.3 234.492 168.72 234.597C165.879 235.211 164.794 240.955 162.628 252.405C162.404 253.609 162.164 254.876 161.908 256.208C159.357 269.603 163.209 286.764 163.639 288.631Z" fill="#753E0B"/>
<path d="M249.974 242.839C243.531 245.811 234.487 245.152 225.669 246.253C220.757 229.878 222.268 230.611 222.083 224.147C222.083 224.147 232.866 221.69 234.426 219.549C237.185 215.754 237.451 189.235 238.659 174.195C239.867 159.154 269.28 154.786 271.704 168.226C275.122 187.307 269.215 233.972 249.974 242.839Z" fill="url(#paint4_linear_928_34010)"/>
<path d="M222.082 224.149C222.082 224.149 200.443 229.66 194.54 231.928C191.027 233.298 187.23 233.778 183.487 233.328C183.487 233.328 182.848 249.928 190.913 255.536C190.913 255.536 222.717 245.515 234.675 245.507C246.633 245.498 235.903 226.499 235.903 226.499L222.082 224.149Z" fill="url(#paint5_linear_928_34010)"/>
<path d="M243.103 224.391C242.201 222.944 240.922 221.769 239.403 220.994C237.884 220.218 236.183 219.871 234.481 219.991L234.375 219.111C236.237 218.992 238.098 219.374 239.763 220.217C241.428 221.06 242.837 222.333 243.844 223.904L243.103 224.391Z" fill="black"/>
<path d="M238.339 224.261C237.639 221.625 233.578 220.687 233.537 220.675L233.73 219.811C233.918 219.856 238.36 220.884 239.195 224.036L238.339 224.261Z" fill="black"/>
<path d="M176.377 270.496C176.534 270.158 176.603 269.785 176.578 269.413C176.553 269.041 176.435 268.681 176.234 268.367C175.342 267.098 173.008 267.09 172.91 267.09V267.716C172.91 267.716 175.014 267.716 175.722 268.727C175.861 268.961 175.94 269.225 175.952 269.497C175.963 269.768 175.907 270.039 175.788 270.283L176.377 270.496ZM175.014 274.712C175.172 274.374 175.241 274.002 175.217 273.63C175.193 273.258 175.075 272.898 174.875 272.584C173.978 271.315 171.649 271.306 171.551 271.306V271.933C171.551 271.933 173.655 271.933 174.363 272.944C174.502 273.177 174.581 273.442 174.593 273.713C174.604 273.985 174.548 274.255 174.429 274.5L175.014 274.712Z" fill="#A83300"/>
<path d="M182.726 186.288L165.651 173.794C165.269 173.514 164.958 173.148 164.745 172.725C164.531 172.302 164.421 171.834 164.424 171.36C164.426 170.886 164.541 170.42 164.759 169.999C164.976 169.578 165.291 169.215 165.676 168.939L170.871 165.226C171.384 164.859 172 164.663 172.63 164.667C173.261 164.67 173.875 164.873 174.383 165.246L188.233 175.378C188.741 175.751 189.119 176.274 189.313 176.874C189.507 177.473 189.507 178.119 189.313 178.719L187.348 184.794C187.202 185.245 186.951 185.655 186.616 185.99C186.28 186.325 185.87 186.576 185.419 186.722C184.968 186.868 184.489 186.905 184.021 186.829C183.552 186.754 183.109 186.568 182.726 186.288ZM172.811 167.375C172.753 167.329 172.681 167.304 172.607 167.304C172.532 167.304 172.46 167.329 172.402 167.375L167.211 171.088C167.166 171.118 167.13 171.159 167.105 171.207C167.08 171.255 167.067 171.308 167.068 171.362C167.067 171.417 167.079 171.47 167.103 171.519C167.127 171.567 167.163 171.609 167.207 171.641L184.282 184.131C184.325 184.164 184.376 184.186 184.429 184.194C184.483 184.203 184.538 184.198 184.589 184.18C184.64 184.165 184.687 184.137 184.725 184.099C184.763 184.061 184.791 184.014 184.806 183.963L186.775 177.888C186.797 177.82 186.797 177.747 186.775 177.679C186.753 177.612 186.71 177.553 186.652 177.511L172.811 167.375Z" fill="black"/>
<path d="M175.483 243.82L120.627 203.702C119.774 203.077 119.203 202.138 119.041 201.093C118.879 200.047 119.139 198.98 119.763 198.126L146.782 161.209C147.408 160.356 148.346 159.786 149.391 159.624C150.437 159.462 151.503 159.721 152.358 160.345L207.189 200.463C208.044 201.088 208.615 202.026 208.778 203.072C208.94 204.117 208.681 205.185 208.057 206.039L181.039 242.957C180.415 243.806 179.481 244.374 178.439 244.536C177.398 244.698 176.335 244.44 175.483 243.82Z" fill="#371D05"/>
<path d="M171.193 240.684L116.361 200.565C115.938 200.256 115.58 199.867 115.308 199.419C115.035 198.971 114.854 198.474 114.774 197.957C114.693 197.439 114.716 196.91 114.84 196.401C114.964 195.892 115.188 195.412 115.497 194.99L142.516 158.072C143.143 157.224 144.08 156.659 145.122 156.499C146.165 156.34 147.228 156.599 148.08 157.221L202.911 197.34C203.334 197.649 203.692 198.038 203.965 198.486C204.237 198.934 204.419 199.431 204.499 199.948C204.579 200.466 204.556 200.995 204.432 201.504C204.308 202.013 204.085 202.493 203.775 202.915L176.756 239.833C176.129 240.681 175.193 241.246 174.15 241.406C173.108 241.565 172.045 241.306 171.193 240.684Z" fill="url(#paint6_linear_928_34010)"/>
<path d="M137.228 165.296L136.184 166.724L197.455 211.551L198.499 210.124L137.228 165.296Z" fill="#A83300"/>
<path d="M170.452 197.272L158.879 188.81L165.155 180.213L176.724 188.679L170.452 197.272ZM160.119 188.618L170.26 196.036L175.487 188.888L165.347 181.47L160.119 188.618Z" fill="#A83300"/>
<path d="M184.805 179.357C184.805 179.357 186.933 178.444 188.301 177.72C189.668 176.995 190.347 176.209 190.757 173.659C191.166 171.108 193.819 166.642 192.693 164.366C191.567 162.09 187.691 154.594 181.075 156.956C174.46 159.318 168.9 169.303 173.412 169.123C173.412 169.123 170.898 172.807 175.205 173.626C175.205 173.626 174.386 178.514 178.521 177.544C178.508 177.544 178.058 184.159 184.805 179.357Z" fill="url(#paint7_linear_928_34010)"/>
<path d="M178.51 177.543C179.391 177.177 180.225 176.704 180.99 176.135C181.772 175.589 182.482 174.946 183.103 174.223C182.222 174.586 181.39 175.057 180.626 175.627C179.845 176.177 179.134 176.82 178.51 177.543ZM175.194 173.597C176.303 172.976 177.367 172.278 178.379 171.509C179.394 170.751 180.376 169.982 181.343 169.126C180.736 169.34 180.154 169.614 179.603 169.945C179.054 170.27 178.522 170.624 178.01 171.005C176.974 171.757 176.029 172.627 175.194 173.597ZM173.352 169.134C174.023 168.52 174.604 167.906 175.218 167.313C175.517 167.01 175.828 166.719 176.139 166.416C176.451 166.113 176.766 165.827 177.077 165.487C176.205 165.743 175.414 166.219 174.78 166.871C174.46 167.186 174.175 167.534 173.929 167.91C173.672 168.285 173.477 168.698 173.352 169.134ZM189.125 147.839L188.568 147.552C191.364 142.071 200.276 126.351 200.366 126.191L200.907 126.502C200.817 126.658 191.913 142.365 189.125 147.839ZM191.495 172.106L190.901 171.902C190.901 171.861 192.375 167.562 192.588 166.539C192.703 165.899 192.69 165.242 192.551 164.607L192.514 164.463L209.508 140.785L210.015 141.149L193.186 164.59C193.32 165.273 193.32 165.975 193.186 166.658C192.977 167.73 191.552 171.926 191.495 172.106Z" fill="#371D05"/>
<path d="M184.375 156.571C184.375 156.571 198.466 127.472 206.342 119.043C206.342 119.043 212.532 120.558 216.892 131.03L192.051 165.643L184.375 156.571Z" fill="url(#paint8_linear_928_34010)"/>
<path d="M201.2 121.452C201.2 121.452 190.921 138.699 184.375 150.763C184.375 150.763 191.678 160.179 200.635 163.937L217.559 130.777C217.559 130.777 211.009 118.246 207.93 118.029C204.852 117.812 201.2 121.452 201.2 121.452Z" fill="url(#paint9_linear_928_34010)"/>
<path d="M249.009 123.652C244.797 126.849 234.272 130.611 215.219 135.327C215.174 135.327 199.254 128.683 201.202 121.433C201.231 121.331 201.256 121.233 201.284 121.143L201.342 121.093C204.776 117.925 208.092 114.134 215.117 110.691C233.076 101.955 249.333 100.907 258.372 104.321C263.796 106.376 253.226 120.484 249.009 123.652Z" fill="url(#paint10_linear_928_34010)"/>
<path d="M282.847 237.05C284.038 238.552 286.724 243.084 291.034 239.973C297.584 235.24 318.102 211.693 307 204.787C295.898 197.881 287.96 208.221 283.895 220.732C280.489 231.265 278.303 231.339 282.847 237.05Z" fill="black"/>
<path d="M254.41 298.075C255.229 286.38 277.335 241.242 285.723 224.797C294.12 220.978 303.805 219.189 311.215 225.309C311.334 226.935 310.889 228.553 309.954 229.89C302.753 240.992 278.498 291.861 288.364 293.159C301.484 294.886 254.41 298.075 254.41 298.075Z" fill="#FBC99B"/>
<path d="M224.472 163.433C223.314 174.224 219.498 176.689 240.483 199.704C257.931 218.826 261.013 212.509 283.312 228.553C283.312 228.553 280.991 214.634 306.523 204.506C306.523 204.506 306.658 203.781 298.843 197.727C291.028 191.672 250.238 161.255 243.136 160.531C236.033 159.806 225.123 157.346 224.472 163.433Z" fill="url(#paint11_linear_928_34010)"/>
<path d="M262.075 103.668C264.183 103.954 269.096 104.597 272.309 106.071C275.523 107.545 276.927 108.449 277.909 121.566C278.892 134.682 275.74 163.596 277.173 174.089C277.173 174.089 268.645 172.451 265.145 175.509C261.645 178.567 248.496 175.145 239.571 171.248C230.647 167.35 221.85 168.812 221.85 168.812C221.85 168.812 234.188 119.15 238.466 111.729C242.744 104.307 250.285 102.055 262.075 103.668Z" fill="#A83300"/>
<path d="M260.473 177.119C254.598 177.119 245.604 174.376 239.374 171.658C230.678 167.859 221.992 169.238 221.906 169.255L221.238 169.365L221.402 168.706C221.906 166.659 233.827 118.91 238.072 111.508C242.317 104.107 249.739 101.548 262.131 103.226L262.311 103.251C264.583 103.562 269.307 104.205 272.5 105.666C275.943 107.242 277.38 108.405 278.362 121.534C278.837 127.834 278.362 137.827 277.883 147.496C277.38 157.866 276.86 168.591 277.597 174.028L277.679 174.646L277.069 174.527C276.987 174.527 268.718 172.963 265.422 175.845C264.403 176.742 262.651 177.119 260.473 177.119ZM225.962 168.112C230.689 168.08 235.373 169.009 239.73 170.843C249.375 175.051 261.713 177.905 264.837 175.178C267.96 172.452 274.588 173.234 276.635 173.541C276 167.9 276.479 157.952 276.991 147.443C277.458 137.802 277.941 127.834 277.474 121.591C276.488 108.466 275.124 107.84 272.152 106.473C269.078 105.065 264.44 104.426 262.213 104.127L262.028 104.103C250.062 102.465 242.915 104.884 238.866 111.942C234.944 118.783 223.903 162.467 222.446 168.28C223.614 168.158 224.788 168.101 225.962 168.108V168.112Z" fill="#753E0B"/>
<path d="M263.635 103.888C263.635 103.888 263.123 113.103 264.572 118.56C266.021 124.017 272.44 171.963 275.318 176.691C278.196 181.419 284.537 184.51 284.537 184.51C284.537 184.51 278.56 166.035 277.811 154.74C277.062 143.446 272.739 106.311 272.739 106.311C272.739 106.311 269.268 104.207 263.635 103.888Z" fill="url(#paint12_linear_928_34010)"/>
<path d="M263.636 103.888C263.636 103.888 266.243 103.782 268.057 104.547C268.057 104.547 267.762 110.152 268.057 112.362L265.985 113.591L268.057 115.027L267.205 143.946C267.205 143.946 264.029 119.191 263.787 113.681C263.546 108.17 263.636 103.888 263.636 103.888Z" fill="#371D05"/>
<path d="M206.936 186.148C206.936 186.148 232.386 188.273 254.832 144.801C254.832 144.801 251.426 112.731 253.973 103.176C253.973 103.176 249.961 101.743 242.121 106.504C234.282 111.265 229.967 128.103 226.868 142.808C223.769 157.512 206.936 186.148 206.936 186.148Z" fill="url(#paint13_linear_928_34010)"/>
<path d="M253.724 103C251.331 102.564 248.896 102.402 246.466 102.517C246.466 102.517 245.52 103.745 246.335 109.264L249.377 112.215L245.971 115.171L247.694 153.947C247.694 153.947 253.249 126.736 253.29 116.886C253.331 107.037 253.724 103 253.724 103ZM256.844 163.936C260.168 163.936 262.055 162.732 262.166 162.65L261.822 162.13C261.781 162.159 257.372 164.943 250.097 161.778L249.847 162.352C252.045 163.357 254.427 163.896 256.844 163.936Z" fill="#371D05"/>
<path d="M264.166 98.1775L263.413 106.275C262.86 106.856 259.291 108.322 253.498 105.411L254.554 94.0469C257.684 95.5913 260.892 96.9701 264.166 98.1775Z" fill="url(#paint14_linear_928_34010)"/>
<path d="M263.168 102.82C260.261 103.528 256.094 102.84 253.957 100.499L254.555 94.0469C257.649 95.7782 260.842 97.3256 264.118 98.681L263.741 102.709C263.548 102.735 263.357 102.772 263.168 102.82Z" fill="#753E0B"/>
<path d="M223.743 133.478L223.6 132.868C223.706 132.844 234.243 130.318 237.621 128.402L237.928 128.95C234.456 130.903 224.181 133.368 223.743 133.478Z" fill="#371D05"/>
<path d="M263.223 102.595C260.357 102.308 255.535 97.9401 254.626 95.226C254.303 94.2598 254.745 91.8732 254.863 90.6205C255.273 86.1174 257.971 83.7184 260.967 82.9652C262.228 82.65 266.138 83.1003 267.243 83.4401C270.878 84.5618 271.091 88.1847 270.763 91.9714C270.387 96.2248 268.246 103.094 263.223 102.595Z" fill="url(#paint15_linear_928_34010)"/>
<path d="M266.093 96.0732L265.986 95.4591C266.805 95.3158 267.755 94.976 267.886 94.6772C267.886 94.6567 267.91 94.6199 267.857 94.538C266.502 92.4543 267.247 89.9243 267.28 89.8179L267.305 89.7442L267.345 89.6746C267.775 89.2679 268.318 89.0007 268.903 88.9079C269.487 88.8151 270.086 88.9011 270.62 89.1547L270.367 89.7278C269.957 89.5293 269.499 89.4548 269.048 89.5138C268.597 89.5727 268.173 89.7624 267.829 90.0594C267.722 90.4688 267.28 92.5157 268.353 94.1818C268.428 94.2858 268.475 94.4078 268.489 94.5358C268.503 94.6637 268.482 94.7929 268.43 94.9105C268.127 95.6842 266.428 96.0158 266.093 96.0732Z" fill="#371D05"/>
<path d="M259.221 84.6815C261.534 87.6372 269.255 84.9272 270.847 87.7969C272.542 90.859 277.713 83.7031 273.107 79.6749C269.104 76.1829 265.947 78.5859 261.718 79.2983C257.49 80.0106 256.351 78.2134 253.474 81.4884C250.596 84.7634 252.147 91.559 254.17 95.5832C255.054 97.3476 253.797 88.7917 256.867 88.849C259.938 88.9063 259.221 84.6815 259.221 84.6815Z" fill="url(#paint16_linear_928_34010)"/>
<path d="M299.684 167.202C296.184 169.756 287.947 170.068 281.807 161.778C279.815 159.005 278.286 155.927 277.279 152.665C271.597 135.283 270.61 124.353 269.955 119.096C269.3 113.84 267.761 103.949 273.017 106.406C281.766 110.499 292.667 116.083 298.923 135.062C300.916 141.1 302.173 146.222 302.816 150.499C302.849 150.68 302.873 150.86 302.894 151.044C304.114 159.866 302.664 165 299.684 167.202Z" fill="url(#paint17_linear_928_34010)"/>
<path d="M259.828 115.817C259.23 118.809 258.026 121.647 256.291 124.156C255.362 125.449 254.271 126.617 253.045 127.632C251.792 128.652 250.417 129.512 248.951 130.191C246.058 131.444 242.956 132.142 239.806 132.25C236.784 132.438 233.538 132.012 231.246 131.935C228.785 131.882 226.325 132.083 223.906 132.536C221.571 133.015 219.303 133.775 217.151 134.8C216.799 134.96 216.459 135.148 216.115 135.332L208.271 134.514L210.032 127.386C210.474 127.182 210.916 126.977 211.358 126.785C212.103 126.502 212.84 126.183 213.602 125.941C216.577 124.942 219.663 124.311 222.792 124.062C225.845 123.856 228.912 123.971 231.942 124.406C235.122 124.93 237.325 125.524 239.822 125.679C242.196 125.876 244.586 125.639 246.876 124.979C249.097 124.283 251.096 123.012 252.668 121.295C255.882 117.778 257.499 112.37 257.712 107.253L260.36 107.085C260.611 110.006 260.431 112.948 259.828 115.817Z" fill="url(#paint18_linear_928_34010)"/>
<path d="M280.972 111.957C274.381 114.265 267.267 114.639 260.47 113.034C249.356 110.311 248.283 114.352 248.283 114.352C248.283 114.352 240.153 144.756 243.104 154.245C243.104 154.245 259.185 151.011 274.004 154.573L280.972 111.957Z" fill="url(#paint19_linear_928_34010)"/>
<path d="M250.761 157.315C250.761 157.315 272.527 156.652 276.105 155.084C276.105 155.084 273.031 144.89 279.519 141.165C285.832 137.571 290.269 139.29 290.269 139.29L274.222 130.976C274.222 130.976 253.057 131.97 250.576 137.083C248.095 142.197 250.761 157.315 250.761 157.315Z" fill="url(#paint20_linear_928_34010)"/>
<path d="M261.496 125.773C261.496 125.773 267.289 124.676 277.245 127.234C287.201 129.793 288.584 130.808 288.584 130.808L293.296 137.1L265.958 129.92L261.496 125.773Z" fill="url(#paint21_linear_928_34010)"/>
<path d="M273.514 131.145C273.514 131.145 284.694 131.787 293.458 137.334L290.269 139.291C290.269 139.291 274.381 132.929 267.909 134.268C267.909 134.268 264.515 131.034 264.585 130.948C264.655 130.862 267.041 129.769 267.041 129.769L273.514 131.145Z" fill="url(#paint22_linear_928_34010)"/>
<path d="M245.1 157.632C245.1 157.632 239.856 132.406 258.696 126.347C261.484 125.451 269.949 124.964 273.315 131.26L272.045 132.214L265.495 130.855L268.042 134.539C268.042 134.539 261.357 129.565 256.043 134.539C247.61 142.444 250.77 157.308 250.77 157.308C250.77 157.308 248.4 158.668 245.1 157.632Z" fill="url(#paint23_linear_928_34010)"/>
<path d="M244.8 157.684C244.746 157.43 239.719 132.123 258.604 126.052C261.879 124.996 270.214 124.824 273.579 131.124L273.701 131.353L272.117 132.545L266.161 131.316L268.273 134.37L267.778 134.714L264.802 130.416L271.97 131.902L272.924 131.185C269.583 125.323 261.42 125.786 258.788 126.633C240.419 132.54 245.344 157.336 245.393 157.566L244.8 157.684Z" fill="#371D05"/>
<path d="M289.039 132.995C282.899 130.13 271.637 129.127 271.526 129.118L271.576 128.517C271.69 128.517 283.079 129.536 289.293 132.447L289.039 132.995ZM280.148 118.876L281.376 111.47L280.877 111.679C280.807 111.708 273.958 114.483 267.67 113.697L267.596 114.299C273.049 114.974 278.895 113.071 280.606 112.428L279.571 118.778L280.148 118.876ZM242.78 148.764C242.35 140.761 244.827 131.161 244.856 131.051L244.27 130.899C244.246 130.997 241.74 140.696 242.178 148.797L242.78 148.764Z" fill="#371D05"/>
<path d="M242.623 138.91C242.623 138.91 244.732 137.952 246.173 137.415C247.614 136.879 248.666 136.924 250.823 138.336C252.981 139.749 258.077 140.793 259.011 143.159C259.944 145.525 262.871 153.434 256.673 156.738C250.475 160.042 239.348 157.438 242.517 154.224C242.517 154.224 238.092 153.594 240.409 149.877C240.409 149.877 236.241 147.191 239.737 144.788C239.729 144.788 234.53 140.674 242.623 138.91Z" fill="url(#paint24_linear_928_34010)"/>
<path d="M239.732 144.788C240.687 144.811 241.641 144.717 242.573 144.509C243.511 144.329 244.422 144.031 245.284 143.621C244.329 143.597 243.375 143.69 242.442 143.899C241.506 144.082 240.596 144.381 239.732 144.788ZM240.408 149.888C241.687 149.924 242.966 149.809 244.219 149.549C244.845 149.425 245.464 149.27 246.074 149.082C246.69 148.898 247.286 148.654 247.854 148.353C246.573 148.488 245.341 148.697 244.096 148.939C242.846 149.168 241.613 149.485 240.408 149.888ZM242.483 154.265C242.889 154.467 243.324 154.605 243.773 154.674C244.218 154.744 244.67 154.768 245.12 154.744C246.033 154.705 246.92 154.43 247.695 153.945C247.236 153.945 246.806 153.99 246.377 154.015C245.947 154.039 245.521 154.072 245.095 154.089C244.231 154.162 243.384 154.179 242.483 154.265Z" fill="#371D05"/>
<path d="M292.099 193.451L292.483 192.956C290.134 191.126 272.952 178.971 272.78 178.849L272.42 179.36C272.592 179.483 289.761 191.609 292.099 193.451Z" fill="#A83300"/>
<path d="M288.187 280.345C288.187 280.345 286.419 289.045 294.451 291.685C302.483 294.326 315.149 295.779 314.993 300.479C314.838 305.178 314.502 304.72 314.502 304.72C314.502 304.72 294.361 309.894 278.502 307.053C262.642 304.212 255.138 303.225 254.279 299.443C253.419 295.66 258.409 279.351 259.306 276.6C260.239 273.714 284.364 273.742 288.187 280.345Z" fill="#371D05"/>
<path d="M278.527 302.407C264.609 299.975 256.79 298.882 254.055 296.385C254.031 297.404 254.107 298.423 254.28 299.427C255.14 303.21 262.664 304.18 278.503 307.037C294.342 309.895 314.503 304.72 314.503 304.72C314.503 304.72 314.835 305.158 314.99 300.516C310 301.58 292.643 304.868 278.527 302.407Z" fill="#A83300"/>
<path d="M289.071 308.339C285.505 308.365 281.943 308.076 278.428 307.475L274.248 306.73C260.825 304.339 254.696 303.246 253.849 299.529C253.67 298.492 253.592 297.441 253.615 296.389V295.366L254.369 296.053C256.702 298.19 263.297 299.328 274.219 301.207L278.616 301.965C292.629 304.421 309.941 301.146 314.911 300.078L315.468 299.959V300.528C315.321 304.961 315.034 305.052 314.702 305.158L314.404 305.252L314.375 305.219C312.455 305.678 300.98 308.339 289.071 308.339ZM254.516 297.286C254.524 297.972 254.59 298.657 254.713 299.333C255.429 302.477 261.766 303.606 274.395 305.854L278.579 306.603C293.419 309.276 312.353 304.794 314.24 304.331C314.424 303.249 314.519 302.154 314.522 301.056C308.877 302.231 292.142 305.219 278.452 302.833L274.056 302.075C263.612 300.286 257.443 299.226 254.516 297.302V297.286Z" fill="#753E0B"/>
<path d="M294.15 290.505C293.221 290.177 292.435 290.239 291.813 290.685C290.425 291.68 290.445 294.247 290.445 294.37H291.133C291.133 294.345 291.133 292.052 292.214 291.266C292.648 290.955 293.209 290.923 293.921 291.176L294.15 290.505ZM298.801 291.95C297.875 291.623 297.089 291.684 296.463 292.134C295.079 293.129 295.1 295.692 295.1 295.819H295.788C295.788 295.794 295.788 293.502 296.864 292.716C297.302 292.4 297.863 292.372 298.576 292.621L298.801 291.95Z" fill="#A83300"/>
<path d="M261.529 89.4258L261.275 88.8568C262.675 88.2264 263.797 88.0667 264.616 88.386C264.986 88.5139 265.292 88.7793 265.471 89.127L264.898 89.3808C264.898 89.3808 264.297 88.1813 261.529 89.4258ZM262.434 91.0552C262.417 91.1866 262.437 91.3203 262.492 91.4408C262.548 91.5613 262.636 91.6637 262.747 91.7362C262.858 91.8088 262.987 91.8485 263.12 91.8508C263.252 91.8532 263.383 91.818 263.496 91.7495C263.61 91.6809 263.702 91.5816 263.761 91.4632C263.821 91.3447 263.846 91.2118 263.833 91.0798C263.82 90.9478 263.771 90.8221 263.69 90.717C263.609 90.612 263.5 90.532 263.375 90.4861C263.175 90.4411 262.966 90.4751 262.79 90.5812C262.615 90.6873 262.487 90.8571 262.434 91.0552ZM268.022 91.5669C268.005 91.6981 268.025 91.8315 268.081 91.9518C268.136 92.072 268.224 92.1741 268.335 92.2465C268.446 92.3189 268.575 92.3586 268.707 92.3611C268.839 92.3636 268.97 92.3287 269.083 92.2604C269.197 92.1922 269.289 92.0934 269.348 91.9753C269.408 91.8572 269.433 91.7247 269.421 91.5928C269.409 91.461 269.36 91.3353 269.28 91.2301C269.2 91.1248 269.091 91.0443 268.968 90.9978C268.767 90.9494 268.555 90.982 268.378 91.0885C268.201 91.195 268.073 91.3668 268.022 91.5669Z" fill="#371D05"/>
<path d="M258.229 91.4034C258.126 91.9863 257.852 92.5255 257.443 92.9529C257.034 93.3804 256.507 93.6768 255.929 93.8048C255.351 93.9329 254.748 93.8867 254.197 93.6721C253.645 93.4576 253.17 93.0843 252.83 92.5995C252.491 92.1146 252.303 91.5401 252.29 90.9484C252.277 90.3567 252.44 89.7745 252.758 89.2753C253.076 88.7762 253.534 88.3825 254.076 88.1441C254.618 87.9057 255.218 87.8333 255.801 87.936C256.188 88.0043 256.558 88.1481 256.889 88.3593C257.221 88.5704 257.508 88.8449 257.733 89.1669C257.958 89.4888 258.118 89.8521 258.203 90.2359C258.288 90.6196 258.297 91.0164 258.229 91.4034Z" fill="url(#paint25_linear_928_34010)"/>
<path d="M255.059 93.0678C254.737 93.0204 254.432 92.8969 254.167 92.7076L254.531 92.2C254.73 92.3474 254.968 92.4316 255.215 92.4415C255.243 92.4362 255.269 92.4251 255.293 92.4089C255.316 92.3927 255.335 92.3717 255.35 92.3473C255.411 92.2573 255.411 92.2573 255.268 92.073C255.116 91.9121 255.008 91.7141 254.956 91.4987C254.903 91.2833 254.908 91.0579 254.969 90.8449C255.075 90.488 255.261 90.1602 255.514 89.887C255.804 89.5349 255.804 89.5349 255.551 89.322C255.08 88.9127 254.032 89.6782 253.704 89.977L253.295 89.5145C253.467 89.3589 254.994 88.0202 255.968 88.8431C256.693 89.4571 256.283 89.9566 256.009 90.2841C255.822 90.4904 255.683 90.7348 255.6 91.0005C255.561 91.1207 255.558 91.2495 255.591 91.3714C255.624 91.4933 255.691 91.6033 255.784 91.6882C255.92 91.8133 256.006 91.983 256.027 92.1664C256.048 92.3497 256.002 92.5345 255.899 92.6871C255.839 92.7838 255.76 92.8668 255.666 92.9303C255.572 92.9939 255.466 93.0366 255.354 93.0556C255.257 93.0742 255.158 93.0783 255.059 93.0678ZM268.241 98.3938C268.241 98.3938 265.073 99.0038 262.588 97.6856C262.588 97.6856 262.412 99.8266 263.382 100.498C264.352 101.169 268.241 98.3938 268.241 98.3938Z" fill="#371D05"/>
<path d="M269.847 220.267C261.206 215.1 236.643 196.371 236.59 196.306L237.454 195.405C237.523 195.471 261.987 214.101 270.49 219.174L269.847 220.267Z" fill="black"/>
<path d="M278.423 131.453H277.797V142.805H278.423V131.453Z" fill="#371D05"/>
<path d="M264.914 149.639C264.73 154.465 263.277 158.33 261.684 158.268C260.092 158.207 258.941 154.24 259.13 149.414C259.318 144.587 260.767 140.723 262.36 140.784C263.952 140.845 265.102 144.808 264.914 149.639Z" fill="#371D05"/>
<path d="M256.782 153.854C256.782 153.854 279.584 162.332 293.134 165.001C293.966 165.164 294.825 165.139 295.646 164.928C296.467 164.717 297.232 164.325 297.883 163.782C298.534 163.238 299.055 162.556 299.409 161.786C299.763 161.015 299.941 160.175 299.93 159.327C299.897 157.314 299.612 155.313 299.082 153.371C298.808 152.322 298.242 151.373 297.45 150.633C296.658 149.893 295.673 149.393 294.608 149.191L256.049 141.994L256.782 153.854Z" fill="url(#paint26_linear_928_34010)"/>
<path d="M261.238 155.141L261.047 155.737L284.352 163.206L284.543 162.61L261.238 155.141Z" fill="#371D05"/>
<path d="M268.981 144.724L259.217 142.894C258.756 142.806 258.33 142.587 257.989 142.264C256.696 141.036 254.28 140.254 254.256 140.245L254.448 139.652C254.555 139.685 257.023 140.499 258.415 141.809C258.67 142.049 258.988 142.213 259.332 142.28L269.104 144.122L268.981 144.724Z" fill="#371D05"/>
<path d="M310.408 229.096C310.408 229.096 316.958 215.566 302.089 206.379C302.089 206.379 287.597 211.738 283.295 224.949L294.884 230.909L310.408 229.096Z" fill="#FBC99B"/>
<path d="M289.284 282.11C289.284 282.11 298.073 253.339 306.502 239.396C314.931 225.452 316.352 212.762 307.01 204.803C297.668 196.845 281.825 217.367 279.013 233.693C279.013 233.693 264.251 257.543 256.947 277.906C256.947 277.906 274.71 284.537 289.284 282.11Z" fill="url(#paint27_linear_928_34010)"/>
<path d="M281.362 226.725L280.584 226.316C280.731 226.046 284.268 219.725 291.539 219.123L291.608 220.003C284.796 220.556 281.395 226.664 281.362 226.725Z" fill="black"/>
<path d="M280.962 227.776L280.291 227.203C280.455 227.011 284.385 222.532 289.604 223.994L289.367 224.845C284.696 223.539 280.999 227.735 280.962 227.776Z" fill="black"/>
<path d="M300.769 166.179C294.857 175.12 262.394 158.618 261.723 158.274C263.307 158.274 264.732 154.43 264.916 149.641C265.096 144.994 264.048 141.162 262.546 140.814C265.227 141.285 293.945 146.312 297.007 147.835C300.22 149.444 306.746 157.14 300.769 166.179Z" fill="url(#paint28_linear_928_34010)"/>
<path d="M298.936 149.853C293.901 145.059 277.931 144.039 277.771 144.027L277.825 143.147C278.492 143.184 294.277 144.195 299.546 149.21L298.936 149.853Z" fill="black"/>
<path d="M253.498 107.909L256.839 109.21L259.414 107.716L261.542 109.513C261.542 109.513 263.372 108.695 263.618 107.327V105.17C263.618 105.17 261.731 107.495 258.079 106.885C254.428 106.275 253.494 105.411 253.494 105.411L253.498 107.909Z" fill="#A83300"/>
<path d="M261.468 110.037L259.363 108.261L256.878 109.706L253.051 108.216V104.412L253.8 105.104C253.8 105.104 254.754 105.899 258.156 106.468C261.492 107.02 263.203 104.994 263.273 104.908L264.067 103.946V107.352C263.776 109.026 261.807 109.906 261.725 109.943L261.468 110.037ZM259.752 107.421L261.603 108.981C262.061 108.731 263.023 108.109 263.179 107.249V106.181C262.182 106.92 260.991 107.351 259.752 107.421ZM253.943 107.606L256.809 108.715L259.024 107.43C258.686 107.416 258.35 107.382 258.016 107.327C256.616 107.139 255.248 106.759 253.951 106.197L253.943 107.606Z" fill="#753E0B"/>
</g>
<defs>
<linearGradient id="paint0_linear_928_34010" x1="29.4473" y1="188.745" x2="402.298" y2="188.745" gradientUnits="userSpaceOnUse">
<stop stop-color="#723700"/>
<stop offset="1" stop-color="#FF9966"/>
</linearGradient>
<linearGradient id="paint1_linear_928_34010" x1="349.822" y1="43.4979" x2="426.478" y2="43.4979" gradientUnits="userSpaceOnUse">
<stop stop-color="#723700"/>
<stop offset="1" stop-color="#FF9966"/>
</linearGradient>
<linearGradient id="paint2_linear_928_34010" x1="63.787" y1="340.638" x2="441.996" y2="48.5529" gradientUnits="userSpaceOnUse">
<stop stop-color="#B05805"/>
<stop offset="1" stop-color="#EE7503"/>
</linearGradient>
<linearGradient id="paint3_linear_928_34010" x1="426.481" y1="171.331" x2="29.1416" y2="171.331" gradientUnits="userSpaceOnUse">
<stop stop-color="#FF9966"/>
<stop offset="1" stop-color="white"/>
</linearGradient>
<linearGradient id="paint4_linear_928_34010" x1="190.856" y1="257.359" x2="273.182" y2="179.901" gradientUnits="userSpaceOnUse">
<stop stop-color="#3A1D01"/>
<stop offset="1" stop-color="#823F00"/>
</linearGradient>
<linearGradient id="paint5_linear_928_34010" x1="191.105" y1="257.628" x2="273.434" y2="180.17" gradientUnits="userSpaceOnUse">
<stop stop-color="#3A1D01"/>
<stop offset="1" stop-color="#823F00"/>
</linearGradient>
<linearGradient id="paint6_linear_928_34010" x1="129.733" y1="177.422" x2="191.231" y2="221.938" gradientUnits="userSpaceOnUse">
<stop stop-color="#DD6B00"/>
<stop offset="1" stop-color="#F87902"/>
</linearGradient>
<linearGradient id="paint7_linear_928_34010" x1="207.099" y1="129.688" x2="176.114" y2="178.67" gradientUnits="userSpaceOnUse">
<stop stop-color="#FFA550"/>
<stop offset="1" stop-color="#FFCC9D"/>
</linearGradient>
<linearGradient id="paint8_linear_928_34010" x1="207.939" y1="130.219" x2="176.957" y2="179.201" gradientUnits="userSpaceOnUse">
<stop stop-color="#FFA550"/>
<stop offset="1" stop-color="#FFCC9D"/>
</linearGradient>
<linearGradient id="paint9_linear_928_34010" x1="179.143" y1="176.787" x2="234.691" y2="89.8111" gradientUnits="userSpaceOnUse">
<stop stop-color="#3A1D01"/>
<stop offset="1" stop-color="#823F00"/>
</linearGradient>
<linearGradient id="paint10_linear_928_34010" x1="187.82" y1="182.324" x2="243.368" y2="95.352" gradientUnits="userSpaceOnUse">
<stop stop-color="#3A1D01"/>
<stop offset="1" stop-color="#823F00"/>
</linearGradient>
<linearGradient id="paint11_linear_928_34010" x1="299.437" y1="277.104" x2="256.944" y2="169.545" gradientUnits="userSpaceOnUse">
<stop stop-color="#3A1D01"/>
<stop offset="1" stop-color="#823F00"/>
</linearGradient>
<linearGradient id="paint12_linear_928_34010" x1="290.932" y1="182.328" x2="259.729" y2="107.081" gradientUnits="userSpaceOnUse">
<stop stop-color="#3A1D01"/>
<stop offset="1" stop-color="#823F00"/>
</linearGradient>
<linearGradient id="paint13_linear_928_34010" x1="204.835" y1="193.193" x2="260.384" y2="106.222" gradientUnits="userSpaceOnUse">
<stop stop-color="#3A1D01"/>
<stop offset="1" stop-color="#823F00"/>
</linearGradient>
<linearGradient id="paint14_linear_928_34010" x1="257.006" y1="106.852" x2="263.941" y2="83.3949" gradientUnits="userSpaceOnUse">
<stop stop-color="#FFA550"/>
<stop offset="1" stop-color="#FFCC9D"/>
</linearGradient>
<linearGradient id="paint15_linear_928_34010" x1="258.204" y1="107.208" x2="265.139" y2="83.7471" gradientUnits="userSpaceOnUse">
<stop stop-color="#FFA550"/>
<stop offset="1" stop-color="#FFCC9D"/>
</linearGradient>
<linearGradient id="paint16_linear_928_34010" x1="318.213" y1="145.206" x2="336.905" y2="158.737" gradientUnits="userSpaceOnUse">
<stop stop-color="#DD6B00"/>
<stop offset="1" stop-color="#F87902"/>
</linearGradient>
<linearGradient id="paint17_linear_928_34010" x1="302.14" y1="177.682" x2="270.934" y2="102.435" gradientUnits="userSpaceOnUse">
<stop stop-color="#3A1D01"/>
<stop offset="1" stop-color="#823F00"/>
</linearGradient>
<linearGradient id="paint18_linear_928_34010" x1="208.263" y1="121.209" x2="264.077" y2="121.209" gradientUnits="userSpaceOnUse">
<stop stop-color="#B05805"/>
<stop offset="1" stop-color="#EE7503"/>
</linearGradient>
<linearGradient id="paint19_linear_928_34010" x1="283.341" y1="177.286" x2="314.539" y2="199.87" gradientUnits="userSpaceOnUse">
<stop stop-color="#DD6B00"/>
<stop offset="1" stop-color="#F87902"/>
</linearGradient>
<linearGradient id="paint20_linear_928_34010" x1="282.681" y1="190.24" x2="315.683" y2="214.13" gradientUnits="userSpaceOnUse">
<stop stop-color="#DD6B00"/>
<stop offset="1" stop-color="#F87902"/>
</linearGradient>
<linearGradient id="paint21_linear_928_34010" x1="299.903" y1="186.873" x2="325.663" y2="205.52" gradientUnits="userSpaceOnUse">
<stop stop-color="#DD6B00"/>
<stop offset="1" stop-color="#F87902"/>
</linearGradient>
<linearGradient id="paint22_linear_928_34010" x1="300.513" y1="191.278" x2="323.912" y2="208.216" gradientUnits="userSpaceOnUse">
<stop stop-color="#DD6B00"/>
<stop offset="1" stop-color="#F87902"/>
</linearGradient>
<linearGradient id="paint23_linear_928_34010" x1="279.865" y1="185.451" x2="303.264" y2="202.389" gradientUnits="userSpaceOnUse">
<stop stop-color="#DD6B00"/>
<stop offset="1" stop-color="#F87902"/>
</linearGradient>
<linearGradient id="paint24_linear_928_34010" x1="299.375" y1="155.424" x2="238.734" y2="146.278" gradientUnits="userSpaceOnUse">
<stop stop-color="#FFA550"/>
<stop offset="1" stop-color="#FFCC9D"/>
</linearGradient>
<linearGradient id="paint25_linear_928_34010" x1="251.077" y1="105.101" x2="258.012" y2="81.644" gradientUnits="userSpaceOnUse">
<stop stop-color="#FFA550"/>
<stop offset="1" stop-color="#FFCC9D"/>
</linearGradient>
<linearGradient id="paint26_linear_928_34010" x1="299.107" y1="157.194" x2="238.47" y2="148.049" gradientUnits="userSpaceOnUse">
<stop stop-color="#FFA550"/>
<stop offset="1" stop-color="#FFCC9D"/>
</linearGradient>
<linearGradient id="paint27_linear_928_34010" x1="297.574" y1="277.836" x2="255.081" y2="170.277" gradientUnits="userSpaceOnUse">
<stop stop-color="#3A1D01"/>
<stop offset="1" stop-color="#823F00"/>
</linearGradient>
<linearGradient id="paint28_linear_928_34010" x1="292.565" y1="181.654" x2="261.362" y2="106.406" gradientUnits="userSpaceOnUse">
<stop stop-color="#3A1D01"/>
<stop offset="1" stop-color="#823F00"/>
</linearGradient>
<clipPath id="clip0_928_34010">
<rect width="460" height="460" fill="white" transform="translate(0.5)"/>
</clipPath>
</defs>
</svg>
