<svg width="461" height="460" viewBox="0 0 461 460" fill="none" xmlns="http://www.w3.org/2000/svg">
<g clip-path="url(#clip0_1028_86)">
<path d="M47.597 335.723H182.032C183.711 335.723 185.322 336.39 186.509 337.577C187.697 338.764 188.364 340.375 188.364 342.054V448.648C188.364 449.965 187.841 451.227 186.91 452.158C185.979 453.089 184.717 453.612 183.4 453.612H46.2288C44.9125 453.612 43.6501 453.089 42.7193 452.158C41.7885 451.227 41.2656 449.965 41.2656 448.648V342.054C41.2656 340.375 41.9327 338.764 43.1201 337.577C44.3074 336.39 45.9178 335.723 47.597 335.723Z" fill="#FF9530"/>
<path d="M108.007 453.786C107.961 453.786 107.917 453.768 107.884 453.735C107.851 453.702 107.833 453.658 107.833 453.612V343.872C107.835 341.66 108.714 339.538 110.279 337.974C111.843 336.41 113.964 335.53 116.177 335.528C116.199 335.528 116.222 335.533 116.243 335.542C116.264 335.55 116.284 335.563 116.3 335.579C116.316 335.596 116.329 335.615 116.338 335.636C116.346 335.657 116.351 335.68 116.351 335.703C116.351 335.726 116.346 335.748 116.338 335.769C116.329 335.791 116.316 335.81 116.3 335.826C116.284 335.842 116.264 335.855 116.243 335.864C116.222 335.873 116.199 335.877 116.177 335.877C114.057 335.881 112.026 336.724 110.527 338.223C109.029 339.721 108.185 341.753 108.182 343.872V453.612C108.182 453.658 108.163 453.702 108.131 453.735C108.098 453.768 108.054 453.786 108.007 453.786Z" fill="#3D2500"/>
<path d="M58.7434 324.214H81.6546C82.4995 324.214 83.3098 324.55 83.9073 325.147C84.5048 325.744 84.8404 326.555 84.8404 327.4V335.723H55.5576V327.4C55.5576 326.555 55.8933 325.744 56.4907 325.147C57.0882 324.55 57.8985 324.214 58.7434 324.214ZM103.345 324.214H126.29C127.135 324.214 127.945 324.55 128.542 325.147C129.14 325.744 129.476 326.555 129.476 327.4V335.723H100.166V327.4C100.166 326.556 100.501 325.747 101.097 325.149C101.693 324.552 102.501 324.216 103.345 324.214Z" fill="#FF9530"/>
<path d="M84.8669 335.898C84.8206 335.898 84.7763 335.879 84.7436 335.847C84.7109 335.814 84.6925 335.77 84.6925 335.723V327.4C84.6836 326.602 84.3588 325.841 83.7892 325.283C83.2196 324.724 82.4517 324.415 81.6542 324.422H59.065C59.0188 324.422 58.9744 324.404 58.9417 324.371C58.909 324.338 58.8906 324.294 58.8906 324.248C58.8906 324.201 58.909 324.157 58.9417 324.124C58.9744 324.092 59.0188 324.073 59.065 324.073H81.6542C82.5436 324.073 83.3966 324.427 84.0255 325.055C84.6544 325.684 85.0077 326.537 85.0077 327.427V335.75C85.0027 335.786 84.9864 335.82 84.9611 335.847C84.9358 335.873 84.9029 335.891 84.8669 335.898Z" fill="#3D2500"/>
<path d="M147.712 324.214H170.657C171.502 324.214 172.312 324.55 172.91 325.147C173.507 325.744 173.843 326.555 173.843 327.4V335.723H144.533V327.4C144.533 326.556 144.868 325.747 145.464 325.149C146.06 324.552 146.869 324.216 147.712 324.214Z" fill="#FF9530"/>
<path d="M178.906 335.896H50.4732C50.427 335.896 50.3826 335.877 50.3499 335.845C50.3172 335.812 50.2988 335.768 50.2988 335.721C50.2988 335.675 50.3172 335.631 50.3499 335.598C50.3826 335.565 50.427 335.547 50.4732 335.547H178.906C178.952 335.547 178.996 335.565 179.029 335.598C179.062 335.631 179.08 335.675 179.08 335.721C179.08 335.768 179.062 335.812 179.029 335.845C178.996 335.877 178.952 335.896 178.906 335.896Z" fill="#3D2500"/>
<path d="M120.803 326.902H119.401C119.298 326.902 119.199 326.861 119.126 326.788C119.053 326.715 119.012 326.616 119.012 326.513C119.012 326.41 119.053 326.311 119.126 326.238C119.199 326.165 119.298 326.124 119.401 326.124H120.803C120.906 326.124 121.005 326.165 121.078 326.238C121.151 326.311 121.192 326.41 121.192 326.513C121.192 326.616 121.151 326.715 121.078 326.788C121.005 326.861 120.906 326.902 120.803 326.902ZM115.042 326.902H104.224C104.12 326.902 104.021 326.861 103.948 326.788C103.876 326.715 103.835 326.616 103.835 326.513C103.835 326.41 103.876 326.311 103.948 326.238C104.021 326.165 104.12 326.124 104.224 326.124H115.042C115.145 326.124 115.244 326.165 115.317 326.238C115.39 326.311 115.431 326.41 115.431 326.513C115.431 326.616 115.39 326.715 115.317 326.788C115.244 326.861 115.145 326.902 115.042 326.902ZM58.2202 332.885C58.1182 332.883 58.021 332.841 57.9494 332.768C57.8779 332.696 57.8379 332.598 57.8379 332.496V326.513C57.8379 326.411 57.8779 326.313 57.9494 326.24C58.021 326.168 58.1182 326.126 58.2202 326.124H63.0559C63.1591 326.124 63.2581 326.165 63.331 326.238C63.404 326.311 63.4449 326.41 63.4449 326.513C63.4449 326.616 63.404 326.715 63.331 326.788C63.2581 326.861 63.1591 326.902 63.0559 326.902H58.6092V332.469C58.6129 332.522 58.6055 332.576 58.5877 332.626C58.5698 332.676 58.5417 332.722 58.5052 332.761C58.4687 332.8 58.4246 332.832 58.3755 332.853C58.3265 332.874 58.2736 332.885 58.2202 332.885ZM68.8106 326.902H67.4155C67.3123 326.902 67.2134 326.861 67.1404 326.788C67.0675 326.715 67.0265 326.616 67.0265 326.513C67.0265 326.41 67.0675 326.311 67.1404 326.238C67.2134 326.165 67.3123 326.124 67.4155 326.124H68.8106C68.9137 326.124 69.0127 326.165 69.0856 326.238C69.1586 326.311 69.1996 326.41 69.1996 326.513C69.1996 326.616 69.1586 326.715 69.0856 326.788C69.0127 326.861 68.9137 326.902 68.8106 326.902Z" fill="white"/>
<path d="M305.374 143.909L244.173 163.453C242.306 164.066 240.338 164.306 238.379 164.158C236.42 164.011 234.509 163.478 232.756 162.592C231.002 161.706 229.441 160.483 228.16 158.993C226.88 157.503 225.905 155.776 225.293 153.909C224.678 152.042 224.438 150.073 224.585 148.113C224.732 146.153 225.264 144.242 226.151 142.488C227.037 140.734 228.26 139.171 229.751 137.89C231.241 136.609 232.969 135.635 234.837 135.022L296.031 115.451C297.898 114.838 299.868 114.598 301.827 114.745C303.787 114.893 305.698 115.425 307.452 116.311C309.205 117.198 310.767 118.421 312.049 119.911C313.33 121.401 314.305 123.128 314.918 124.995C315.536 126.864 315.779 128.835 315.633 130.798C315.488 132.76 314.956 134.675 314.07 136.432C313.183 138.189 311.959 139.753 310.467 141.036C308.975 142.319 307.244 143.296 305.374 143.909Z" fill="#FFAA2C"/>
<path d="M174.031 438.814L182.516 411.785H209.089L202.999 429.411C202.661 430.389 202.696 431.458 203.097 432.412C203.498 433.366 204.237 434.139 205.172 434.582L182.368 445.407L174.031 438.814Z" fill="#FFEACA"/>
<path d="M224.312 454.162H175.619C174.881 454.163 174.152 453.991 173.493 453.658C172.834 453.325 172.262 452.841 171.825 452.246C171.388 451.65 171.097 450.96 170.977 450.232C170.856 449.503 170.91 448.756 171.132 448.052L171.468 446.979L175.868 432.974L183.97 433.015C188.322 428.93 191.938 428.32 195.64 431.593C196.377 430.032 197.561 428.726 199.042 427.839C200.522 426.951 202.233 426.524 203.957 426.609L202.991 429.413C202.653 430.391 202.688 431.46 203.089 432.414C203.49 433.368 204.229 434.141 205.164 434.584L217.397 440.386L221.576 442.398C222.728 442.945 223.718 443.781 224.45 444.825C225.183 445.869 225.632 447.084 225.754 448.354L225.862 449.527L226.116 452.21C226.135 452.459 226.102 452.708 226.02 452.944C225.937 453.179 225.808 453.395 225.639 453.578C225.469 453.761 225.264 453.907 225.036 454.008C224.808 454.108 224.562 454.161 224.312 454.162Z" fill="#FFDBA5"/>
<path d="M224.312 454.161H175.619C174.881 454.163 174.152 453.99 173.493 453.657C172.834 453.324 172.262 452.841 171.825 452.245C171.388 451.65 171.097 450.96 170.977 450.231C170.856 449.502 170.91 448.755 171.132 448.051L171.468 446.978C177.571 444.449 184.339 444.034 186.223 446.039C188.108 448.044 188.752 449.567 193.695 449.272C198.638 448.977 202.052 447.152 205.942 448.447C209.832 449.741 225.862 449.493 225.862 449.493L226.116 452.176C226.14 452.427 226.11 452.681 226.03 452.92C225.95 453.159 225.821 453.379 225.652 453.566C225.482 453.753 225.275 453.902 225.045 454.005C224.814 454.107 224.565 454.16 224.312 454.161Z" fill="#FFE1B5"/>
<path d="M222.609 449.695C217.7 449.695 208.706 449.561 205.882 448.615C203.454 447.81 201.187 448.24 198.605 448.743C196.991 449.092 195.355 449.329 193.709 449.454C189.289 449.715 188.209 448.515 186.734 446.858C186.532 446.637 186.325 446.402 186.096 446.187C184.272 444.249 177.471 444.712 171.536 447.173C171.492 447.191 171.443 447.191 171.4 447.173C171.356 447.154 171.322 447.12 171.304 447.076C171.286 447.032 171.287 446.984 171.305 446.94C171.323 446.897 171.358 446.862 171.401 446.845C177.558 444.289 184.406 443.873 186.351 445.946C186.579 446.187 186.803 446.422 187.022 446.65C188.491 448.293 189.463 449.38 193.729 449.125C195.359 449.009 196.979 448.785 198.578 448.454C201.261 447.938 203.515 447.495 206.036 448.334C209.846 449.608 225.742 449.373 225.903 449.373C225.949 449.373 225.993 449.392 226.026 449.424C226.059 449.457 226.077 449.501 226.077 449.548C226.077 449.594 226.059 449.64 226.026 449.673C225.994 449.707 225.949 449.727 225.903 449.729C225.688 449.675 224.427 449.695 222.609 449.695ZM210.034 442.847C207.577 442.82 205.159 442.23 202.965 441.124C198.565 438.971 195.62 435.221 195.466 431.586C195.464 431.563 195.467 431.539 195.475 431.517C195.482 431.495 195.494 431.474 195.51 431.457C195.526 431.439 195.545 431.425 195.566 431.415C195.587 431.405 195.61 431.399 195.634 431.398C195.68 431.398 195.724 431.416 195.757 431.447C195.791 431.478 195.812 431.52 195.815 431.566C195.969 435.081 198.833 438.709 203.126 440.808C208.075 443.23 213.374 443.015 217.297 440.225C217.336 440.198 217.383 440.187 217.43 440.195C217.476 440.202 217.518 440.228 217.546 440.265C217.571 440.304 217.581 440.351 217.573 440.397C217.566 440.443 217.542 440.484 217.505 440.513C215.319 442.051 212.707 442.867 210.034 442.847Z" fill="#3D2500"/>
<path d="M183.969 433.015C184.794 437.798 193.03 436.543 193.896 440.863C194.68 444.773 190.106 445.98 185.733 444.216C182.789 443.036 177.061 438.18 175.867 432.955L183.969 433.015Z" fill="white"/>
<path d="M199.33 438.662C199.293 438.664 199.256 438.655 199.226 438.635C199.195 438.615 199.171 438.586 199.158 438.552C199.144 438.517 199.142 438.48 199.151 438.444C199.16 438.409 199.18 438.377 199.209 438.354L204.226 433.94C204.243 433.925 204.263 433.913 204.285 433.905C204.306 433.898 204.329 433.895 204.352 433.896C204.376 433.897 204.398 433.903 204.419 433.913C204.44 433.923 204.458 433.937 204.474 433.954C204.489 433.971 204.501 433.991 204.509 434.013C204.516 434.035 204.52 434.058 204.518 434.081C204.517 434.104 204.511 434.126 204.501 434.147C204.492 434.168 204.478 434.187 204.46 434.202L199.444 438.615C199.429 438.63 199.411 438.643 199.391 438.651C199.372 438.659 199.351 438.663 199.33 438.662ZM203.863 441.533C203.818 441.531 203.775 441.512 203.743 441.479C203.726 441.463 203.713 441.444 203.704 441.422C203.695 441.401 203.691 441.378 203.691 441.355C203.691 441.332 203.695 441.309 203.704 441.288C203.713 441.267 203.726 441.247 203.743 441.231L208.619 436.154C208.653 436.13 208.695 436.118 208.737 436.122C208.779 436.125 208.819 436.143 208.849 436.172C208.879 436.202 208.898 436.241 208.902 436.283C208.907 436.325 208.897 436.367 208.874 436.402L203.998 441.472C203.981 441.492 203.961 441.508 203.937 441.518C203.914 441.529 203.889 441.534 203.863 441.533ZM209.088 442.834C209.064 442.835 209.04 442.831 209.018 442.821C208.996 442.812 208.977 442.798 208.961 442.78C208.929 442.747 208.912 442.702 208.912 442.656C208.912 442.61 208.929 442.566 208.961 442.532L213.273 438.354C213.308 438.322 213.354 438.304 213.401 438.304C213.448 438.304 213.494 438.322 213.528 438.354C213.56 438.387 213.577 438.432 213.577 438.478C213.577 438.524 213.56 438.568 213.528 438.602L209.216 442.78C209.199 442.797 209.179 442.811 209.157 442.82C209.136 442.83 209.112 442.834 209.088 442.834Z" fill="#3D2500"/>
<path d="M233.655 218.879C273.856 269.98 233.655 354.79 212.32 424.992H172.554C172.554 424.992 201.038 330.685 205.646 270.201L180.703 225.613L233.655 218.879Z" fill="#7E3F09"/>
<path d="M217.633 127.055C228.397 120.032 233.642 106.679 226.808 98.154C219.792 89.3947 206.808 87.9393 202.113 93.4591C197.418 98.979 202.475 99.7235 202.475 99.7235L217.633 127.055ZM186.666 422.344C186.645 422.351 186.621 422.351 186.599 422.344C186.578 422.336 186.558 422.323 186.541 422.307C186.524 422.291 186.511 422.272 186.501 422.251C186.492 422.23 186.487 422.207 186.486 422.184C186.486 422.16 186.49 422.137 186.499 422.116C200.007 387.669 217.136 302.838 220.591 273.522C220.593 273.499 220.6 273.477 220.611 273.457C220.622 273.436 220.637 273.419 220.656 273.404C220.674 273.39 220.694 273.379 220.717 273.373C220.739 273.367 220.762 273.365 220.785 273.368C220.808 273.369 220.831 273.376 220.852 273.387C220.872 273.398 220.891 273.413 220.905 273.431C220.92 273.449 220.93 273.47 220.936 273.493C220.942 273.516 220.943 273.539 220.939 273.562C217.505 302.899 200.349 387.776 186.827 422.243C186.814 422.274 186.791 422.301 186.763 422.319C186.734 422.336 186.7 422.345 186.666 422.344Z" fill="#3D2500"/>
<path d="M206.037 389.258L222.302 366.065L247.621 374.114L236.48 389.077C235.863 389.907 235.574 390.935 235.668 391.965C235.762 392.994 236.233 393.953 236.99 394.657L211.98 398.078L206.037 389.258Z" fill="#FFEACA"/>
<path d="M249.329 419.098L202.917 404.343C202.214 404.12 201.573 403.734 201.046 403.218C200.52 402.701 200.123 402.067 199.887 401.368C199.651 400.669 199.583 399.925 199.689 399.195C199.795 398.465 200.071 397.77 200.495 397.166L201.133 396.247L209.563 384.229L217.276 386.717C222.642 384.141 226.297 384.624 228.833 388.89C230.008 387.626 231.533 386.74 233.213 386.344C234.893 385.947 236.653 386.059 238.269 386.663L236.492 389.044C235.876 389.875 235.587 390.904 235.681 391.935C235.775 392.965 236.245 393.925 237.002 394.631L246.908 403.86L250.295 407.006C251.227 407.877 251.917 408.975 252.298 410.193C252.679 411.411 252.738 412.707 252.468 413.954L252.22 415.101L251.65 417.737C251.598 417.985 251.494 418.219 251.347 418.425C251.199 418.63 251.009 418.803 250.791 418.931C250.572 419.059 250.329 419.14 250.078 419.169C249.826 419.198 249.571 419.174 249.329 419.098Z" fill="#FFDBA5"/>
<path d="M249.329 419.096L202.917 404.341C202.214 404.118 201.573 403.732 201.046 403.216C200.52 402.699 200.123 402.065 199.887 401.366C199.651 400.667 199.583 399.923 199.689 399.192C199.795 398.462 200.071 397.768 200.495 397.164L201.133 396.245C207.719 395.682 214.298 397.332 215.486 399.813C216.673 402.295 216.827 403.945 221.629 405.179C226.431 406.413 230.234 405.689 233.548 408.097C236.861 410.504 252.22 415.119 252.22 415.119L251.65 417.755C251.595 418.001 251.49 418.233 251.341 418.436C251.193 418.64 251.003 418.81 250.785 418.936C250.566 419.062 250.324 419.142 250.074 419.169C249.823 419.197 249.57 419.172 249.329 419.096Z" fill="#FFE1B5"/>
<path d="M252.206 415.302H252.152C251.529 415.114 236.726 410.654 233.427 408.253C231.354 406.744 229.08 406.483 226.451 406.174C224.809 406.014 223.18 405.743 221.575 405.362C217.269 404.276 216.612 402.814 215.707 400.782C215.586 400.507 215.458 400.225 215.311 399.923C214.164 397.529 207.544 395.899 201.139 396.456C201.116 396.458 201.092 396.456 201.069 396.45C201.047 396.443 201.025 396.432 201.007 396.417C200.989 396.402 200.974 396.383 200.963 396.362C200.953 396.341 200.946 396.318 200.945 396.295C200.943 396.249 200.958 396.204 200.988 396.169C201.018 396.134 201.06 396.112 201.105 396.107C207.745 395.53 214.399 397.214 215.633 399.769C215.774 400.071 215.908 400.359 216.029 400.641C216.927 402.653 217.524 403.994 221.656 405.02C223.247 405.4 224.863 405.668 226.492 405.825C229.174 406.134 231.488 406.409 233.634 407.972C236.887 410.332 252.099 414.92 252.253 414.967C252.291 414.982 252.323 415.009 252.343 415.044C252.364 415.079 252.372 415.12 252.367 415.16C252.361 415.2 252.342 415.237 252.313 415.265C252.284 415.294 252.247 415.311 252.206 415.316V415.302ZM243.158 404.638C239.3 404.538 235.628 402.952 232.91 400.212C229.369 396.858 227.692 392.364 228.644 388.843C228.658 388.798 228.689 388.76 228.731 388.738C228.772 388.715 228.82 388.71 228.866 388.722C228.91 388.735 228.948 388.765 228.971 388.805C228.993 388.845 228.999 388.893 228.987 388.937C228.068 392.331 229.704 396.657 233.158 399.957C237.142 403.76 242.253 405.155 246.841 403.686C246.886 403.673 246.934 403.679 246.976 403.701C247.017 403.724 247.048 403.762 247.062 403.806C247.069 403.828 247.072 403.852 247.07 403.875C247.068 403.898 247.062 403.92 247.051 403.941C247.041 403.962 247.026 403.98 247.008 403.995C246.991 404.01 246.97 404.021 246.948 404.028C245.724 404.427 244.446 404.633 243.158 404.638Z" fill="#3D2500"/>
<path d="M217.265 386.736C216.594 391.545 224.83 392.846 224.347 397.219C223.911 401.183 219.189 400.955 215.554 397.964C213.106 395.952 209.116 389.58 209.552 384.248L217.265 386.736Z" fill="white"/>
<path d="M230.249 396.777C230.215 396.777 230.181 396.766 230.152 396.747C230.124 396.728 230.101 396.701 230.088 396.669C230.07 396.626 230.068 396.578 230.085 396.534C230.101 396.491 230.133 396.455 230.175 396.435L236.292 393.752C236.334 393.734 236.381 393.733 236.424 393.749C236.467 393.765 236.501 393.797 236.52 393.839C236.539 393.882 236.54 393.93 236.524 393.974C236.507 394.018 236.475 394.053 236.433 394.074L230.316 396.756C230.296 396.769 230.273 396.776 230.249 396.777ZM233.703 400.881C233.671 400.881 233.641 400.871 233.614 400.855C233.586 400.838 233.564 400.815 233.549 400.787C233.527 400.747 233.522 400.7 233.535 400.656C233.547 400.612 233.576 400.575 233.616 400.553L239.8 397.199C239.841 397.178 239.888 397.174 239.932 397.188C239.976 397.201 240.013 397.232 240.035 397.273C240.046 397.293 240.054 397.314 240.057 397.337C240.06 397.36 240.058 397.383 240.052 397.405C240.045 397.427 240.035 397.447 240.02 397.465C240.006 397.483 239.988 397.497 239.968 397.508L233.79 400.861C233.763 400.874 233.733 400.881 233.703 400.881ZM238.277 403.705C238.245 403.705 238.213 403.696 238.185 403.678C238.158 403.66 238.136 403.634 238.123 403.604C238.113 403.584 238.107 403.561 238.105 403.538C238.104 403.515 238.107 403.492 238.114 403.47C238.122 403.448 238.134 403.428 238.149 403.411C238.164 403.394 238.183 403.38 238.204 403.37L243.569 400.687C243.611 400.668 243.659 400.666 243.703 400.681C243.746 400.695 243.782 400.727 243.804 400.767C243.814 400.788 243.82 400.81 243.822 400.833C243.823 400.857 243.82 400.88 243.813 400.901C243.805 400.923 243.793 400.943 243.778 400.961C243.763 400.978 243.744 400.992 243.723 401.002L238.358 403.685C238.333 403.698 238.305 403.705 238.277 403.705Z" fill="#3D2500"/>
<path d="M174.11 224.487L170.314 242.945C168.623 251.134 169.961 259.659 174.08 266.936C178.198 274.214 184.818 279.75 192.709 282.516L250.067 302.637C251.021 302.971 251.886 303.519 252.595 304.24C253.304 304.961 253.838 305.835 254.156 306.795C254.473 307.755 254.566 308.775 254.427 309.776C254.288 310.777 253.921 311.733 253.353 312.57L204.338 384.335H250.255L290.443 327.044C293.87 322.16 296.164 316.572 297.159 310.689C298.154 304.806 297.824 298.775 296.193 293.035C294.562 287.296 291.672 281.992 287.733 277.511C283.793 273.03 278.904 269.483 273.421 267.13L174.11 224.487Z" fill="#7E3F09"/>
<path d="M249.558 257.061C249.533 257.068 249.508 257.068 249.484 257.061L211.616 240.81C211.574 240.79 211.541 240.754 211.524 240.711C211.506 240.668 211.506 240.619 211.522 240.576C211.543 240.533 211.578 240.501 211.621 240.483C211.665 240.466 211.713 240.465 211.757 240.482L249.625 256.739C249.667 256.76 249.7 256.795 249.717 256.839C249.734 256.882 249.735 256.93 249.718 256.974C249.702 257.002 249.678 257.024 249.65 257.04C249.622 257.055 249.59 257.062 249.558 257.061ZM250.235 384.501H203.957L253.153 312.468C253.708 311.656 254.07 310.727 254.211 309.753C254.351 308.779 254.265 307.785 253.961 306.849C253.656 305.914 253.14 305.06 252.454 304.355C251.767 303.65 250.928 303.112 250 302.783L203.89 286.619C203.846 286.603 203.81 286.569 203.79 286.527C203.77 286.484 203.767 286.436 203.782 286.391C203.8 286.348 203.833 286.313 203.876 286.294C203.918 286.274 203.966 286.27 204.01 286.284L250.114 302.454C251.096 302.797 251.986 303.361 252.714 304.103C253.443 304.845 253.99 305.745 254.315 306.733C254.639 307.721 254.731 308.771 254.585 309.8C254.438 310.83 254.056 311.811 253.468 312.669L204.654 384.146H250.262C250.303 384.154 250.34 384.176 250.367 384.208C250.394 384.241 250.408 384.281 250.408 384.323C250.408 384.365 250.394 384.406 250.367 384.439C250.34 384.471 250.303 384.493 250.262 384.501H250.235Z" fill="#3D2500"/>
<path d="M196.344 139.583H196.854C198.042 139.583 199.182 139.111 200.022 138.271C200.862 137.43 201.334 136.291 201.334 135.103V121.796H219.443L220.355 136.256C220.381 136.647 220.495 137.027 220.689 137.367C220.883 137.707 221.151 137.999 221.474 138.221C221.796 138.443 222.165 138.589 222.552 138.648C222.939 138.708 223.334 138.679 223.709 138.563L227.377 137.396C227.377 137.396 227.646 168.819 217.806 168.738C207.967 168.658 193.614 152.809 196.344 139.583Z" fill="#FFEACA"/>
<path d="M242.509 172.769V222.69L171.012 234.038C169.71 234.245 168.378 234.125 167.133 233.69C165.889 233.255 164.772 232.517 163.883 231.544C162.994 230.571 162.361 229.392 162.04 228.113C161.719 226.835 161.721 225.496 162.045 224.219L184.634 135.324L196.345 139.583C196.345 139.583 201.978 158.624 217.867 161.267C217.867 161.267 222.837 153.654 224.159 138.423L252.636 129.321L261.074 158.007L250.001 161.629C247.789 162.536 245.897 164.079 244.563 166.062C243.23 168.045 242.515 170.379 242.509 172.769Z" fill="#FFAA2C"/>
<path d="M190.757 159.335L142.521 213.306C141.217 214.776 139.636 215.975 137.869 216.834C136.102 217.693 134.183 218.195 132.222 218.313C130.26 218.43 128.295 218.159 126.438 217.516C124.581 216.874 122.87 215.872 121.4 214.567C119.93 213.263 118.731 211.683 117.872 209.916C117.013 208.149 116.511 206.229 116.394 204.268C116.277 202.307 116.547 200.341 117.19 198.485C117.833 196.628 118.835 194.916 120.139 193.447L168.376 139.475C169.68 138.005 171.26 136.807 173.027 135.948C174.795 135.088 176.714 134.586 178.675 134.469C180.636 134.352 182.602 134.622 184.458 135.265C186.315 135.908 188.027 136.91 189.496 138.214C190.966 139.518 192.165 141.099 193.024 142.866C193.883 144.633 194.386 146.552 194.503 148.513C194.62 150.475 194.349 152.44 193.707 154.297C193.064 156.154 192.062 157.866 190.757 159.335Z" fill="#FFAA2C"/>
<path d="M225.594 98.8112C239.491 89.8574 248.988 94.1163 253.408 96.9467C260.148 101.232 258.002 111.615 246.989 112.46C246.989 112.46 252.16 117.081 250.001 122.346C247.438 128.59 239.752 126.115 238.304 123.325C238.019 124.398 237.42 125.362 236.584 126.091C235.747 126.82 234.71 127.282 233.609 127.417C229.698 127.973 225.386 123.895 226.459 115.813C227.532 107.732 225.594 98.8112 225.594 98.8112Z" fill="#3D2500"/>
<path d="M210.571 96.4698L222.241 102.057C223.828 102.818 225.048 104.178 225.633 105.838C226.218 107.498 226.12 109.322 225.36 110.91L215.259 131.125L201.906 128.234C199.426 127.713 197.211 126.332 195.652 124.335C194.093 122.338 193.291 119.854 193.388 117.322C193.456 115.856 193.818 114.419 194.454 113.096L200.759 99.9306C201.605 98.1743 203.112 96.8244 204.951 96.1759C206.79 95.5275 208.81 95.6331 210.571 96.4698Z" fill="#FFEACA"/>
<path d="M201.159 99.1937C204.962 96.7993 211.374 98.0803 212.253 101.964C213.131 105.847 213.929 107.913 217.705 108.148C221.481 108.382 214.955 115.197 215.995 116.759C217.035 118.322 221.461 121.79 221.461 121.79L228.631 110.549C228.631 110.549 232.427 103.057 222.883 97.1011C213.339 91.1453 207.457 90.5953 204.318 93.7945C201.179 96.9938 201.159 99.1937 201.159 99.1937Z" fill="#3D2500"/>
<path d="M217.974 116.363C215.962 117.865 215.11 120.387 216.096 122.01C217.082 123.633 219.524 123.707 221.549 122.198C223.575 120.689 224.406 118.174 223.42 116.551C222.435 114.928 220 114.854 217.974 116.363Z" fill="#FFEACA"/>
<path d="M210.731 110.936C210.685 110.938 210.64 110.926 210.6 110.902C210.561 110.879 210.53 110.844 210.51 110.802C209.94 109.729 207.572 107.65 205.265 107.65C205.232 107.65 205.2 107.643 205.17 107.631C205.14 107.619 205.113 107.6 205.09 107.577C205.067 107.554 205.048 107.527 205.036 107.497C205.023 107.467 205.017 107.434 205.017 107.402C205.018 107.367 205.025 107.334 205.039 107.302C205.053 107.271 205.073 107.242 205.098 107.219C205.123 107.195 205.152 107.176 205.185 107.164C205.217 107.152 205.251 107.146 205.285 107.147C207.827 107.147 210.336 109.374 210.973 110.567C210.989 110.596 210.999 110.628 211.002 110.661C211.005 110.694 211.002 110.727 210.992 110.758C210.982 110.79 210.965 110.819 210.944 110.844C210.922 110.868 210.895 110.889 210.865 110.903C210.825 110.928 210.778 110.939 210.731 110.936ZM201.845 105.772C201.807 105.771 201.771 105.762 201.737 105.745C201.704 105.729 201.674 105.706 201.65 105.678C201.65 105.678 200.248 103.974 198.867 104.182C198.802 104.192 198.736 104.176 198.683 104.137C198.63 104.098 198.595 104.039 198.585 103.974C198.575 103.909 198.591 103.842 198.63 103.788C198.669 103.734 198.727 103.698 198.793 103.686C200.443 103.438 201.979 105.282 202.046 105.363C202.066 105.388 202.081 105.418 202.09 105.449C202.099 105.48 202.102 105.513 202.098 105.546C202.094 105.578 202.084 105.609 202.068 105.638C202.052 105.666 202.031 105.691 202.005 105.712C201.961 105.751 201.904 105.772 201.845 105.772ZM207.036 111.345C206.94 111.497 206.803 111.618 206.64 111.694C206.478 111.77 206.297 111.797 206.119 111.773C205.941 111.748 205.774 111.673 205.638 111.556C205.502 111.439 205.403 111.285 205.352 111.113C205.302 110.941 205.302 110.758 205.352 110.586C205.403 110.414 205.502 110.26 205.638 110.143C205.774 110.026 205.941 109.95 206.119 109.926C206.296 109.901 206.477 109.928 206.64 110.004C206.756 110.064 206.858 110.148 206.941 110.248C207.024 110.349 207.085 110.466 207.122 110.591C207.159 110.716 207.171 110.847 207.156 110.977C207.141 111.107 207.1 111.232 207.036 111.345ZM199.698 107.818C199.678 107.942 199.629 108.059 199.555 108.161C199.481 108.263 199.385 108.346 199.273 108.404C199.162 108.462 199.038 108.494 198.912 108.496C198.787 108.498 198.662 108.471 198.549 108.417C198.435 108.363 198.336 108.283 198.258 108.184C198.181 108.085 198.128 107.97 198.103 107.847C198.077 107.723 198.081 107.596 198.114 107.475C198.146 107.353 198.207 107.241 198.29 107.147C198.314 107.027 198.365 106.913 198.439 106.816C198.513 106.718 198.609 106.639 198.718 106.584C198.828 106.529 198.948 106.5 199.071 106.498C199.193 106.497 199.315 106.524 199.425 106.576C199.536 106.629 199.633 106.706 199.709 106.802C199.786 106.898 199.839 107.011 199.865 107.13C199.892 107.25 199.89 107.374 199.861 107.493C199.832 107.612 199.777 107.723 199.698 107.818ZM218.887 122.01C218.383 122.034 217.89 121.861 217.512 121.527C217.465 121.484 217.427 121.431 217.403 121.372C217.379 121.312 217.368 121.249 217.371 121.185C217.371 120.91 217.693 120.675 218.042 120.413C218.679 119.924 219.075 119.568 218.753 119.072C218.431 118.576 217.411 118.817 217.411 118.824C217.366 118.834 217.319 118.827 217.279 118.803C217.239 118.779 217.209 118.741 217.197 118.696C217.186 118.651 217.194 118.603 217.218 118.564C217.241 118.524 217.28 118.494 217.324 118.482C217.378 118.482 218.572 118.173 219.041 118.877C219.511 119.582 218.807 120.259 218.25 120.682C218.015 120.863 217.727 121.084 217.72 121.205C217.72 121.205 217.72 121.205 217.754 121.265C218.317 121.828 219.893 121.936 221.483 120.4C221.828 120.127 222.089 119.761 222.232 119.345C222.376 118.929 222.398 118.48 222.294 118.052C222.148 117.685 221.9 117.367 221.579 117.137C221.258 116.906 220.878 116.772 220.483 116.751C220.46 116.749 220.438 116.742 220.418 116.731C220.398 116.719 220.38 116.704 220.365 116.686C220.351 116.668 220.341 116.647 220.334 116.625C220.328 116.603 220.326 116.58 220.329 116.557C220.337 116.511 220.362 116.469 220.4 116.441C220.437 116.412 220.483 116.398 220.53 116.403C220.99 116.431 221.432 116.591 221.804 116.864C222.176 117.136 222.463 117.509 222.63 117.938C222.75 118.425 222.73 118.935 222.571 119.411C222.411 119.886 222.12 120.306 221.731 120.621C220.998 121.435 219.979 121.933 218.887 122.01ZM205.198 128.421C203.883 128.431 202.569 128.319 201.274 128.086C201.252 128.081 201.231 128.072 201.212 128.059C201.193 128.046 201.177 128.029 201.164 128.01C201.152 127.991 201.143 127.969 201.139 127.946C201.135 127.924 201.135 127.901 201.14 127.878C201.145 127.856 201.154 127.834 201.167 127.816C201.18 127.797 201.197 127.781 201.216 127.768C201.236 127.756 201.257 127.747 201.28 127.743C201.303 127.739 201.326 127.739 201.348 127.744C202.621 127.969 203.912 128.077 205.205 128.066C205.228 128.066 205.251 128.071 205.273 128.08C205.295 128.089 205.314 128.103 205.33 128.119C205.347 128.136 205.359 128.156 205.368 128.178C205.376 128.2 205.38 128.224 205.379 128.247C205.379 128.271 205.374 128.294 205.365 128.315C205.356 128.337 205.343 128.357 205.326 128.373C205.309 128.389 205.289 128.402 205.267 128.41C205.245 128.419 205.221 128.422 205.198 128.421ZM200.416 115.457C200.392 115.464 200.366 115.464 200.342 115.457L198.33 114.451C198.146 114.366 197.987 114.235 197.87 114.071C197.752 113.906 197.68 113.713 197.659 113.512C197.641 113.312 197.674 113.112 197.755 112.928C197.836 112.745 197.962 112.586 198.122 112.466L199.792 111.198C199.995 111.042 200.154 110.836 200.255 110.601L200.926 109.005C200.934 108.983 200.946 108.963 200.962 108.946C200.978 108.93 200.998 108.917 201.019 108.908C201.041 108.899 201.064 108.895 201.087 108.895C201.11 108.896 201.133 108.901 201.154 108.911C201.176 108.92 201.196 108.933 201.212 108.949C201.229 108.966 201.242 108.986 201.251 109.008C201.26 109.03 201.264 109.053 201.263 109.077C201.263 109.101 201.257 109.124 201.248 109.146L200.577 110.749C200.447 111.035 200.246 111.285 199.993 111.473L198.323 112.747C198.214 112.833 198.128 112.945 198.073 113.073C198.017 113.2 197.995 113.34 198.008 113.478C198.019 113.619 198.066 113.755 198.144 113.873C198.223 113.99 198.331 114.086 198.457 114.149L200.47 115.155C200.508 115.171 200.54 115.2 200.559 115.237C200.578 115.274 200.583 115.317 200.574 115.357C200.564 115.398 200.54 115.434 200.506 115.458C200.472 115.482 200.431 115.494 200.389 115.49L200.416 115.457Z" fill="#3D2500"/>
<path d="M211.918 116.786C211.603 117.57 210.362 117.818 209.134 117.336C207.907 116.853 207.163 115.82 207.471 115.035C207.78 114.25 209.027 114.002 210.254 114.485C211.482 114.968 212.226 115.994 211.918 116.786Z" fill="#FFEACA"/>
<path d="M200.115 117.658C202.228 116.678 204.702 115.411 205.259 117.121C205.816 118.831 202.999 121.487 200.739 120.475C198.478 119.462 199.464 117.959 200.115 117.658Z" fill="#F3AF88"/>
<path d="M233.703 376.332C233.673 376.342 233.64 376.342 233.609 376.332C233.589 376.32 233.571 376.304 233.558 376.284C233.544 376.265 233.534 376.243 233.529 376.22C233.524 376.197 233.524 376.173 233.528 376.149C233.533 376.126 233.542 376.104 233.556 376.084C234.897 374.019 237.513 370.236 240.813 365.454C250.169 351.892 265.837 329.196 270.941 318.827C274.77 311.006 275.354 304.299 272.725 298.263C268.868 289.403 257.869 282.166 240.028 276.8C218.257 270.228 204.119 264.379 195.534 258.396C187.633 252.883 184.132 247.142 184.279 239.764C184.279 239.718 184.298 239.674 184.33 239.641C184.363 239.608 184.407 239.59 184.454 239.59C184.501 239.592 184.545 239.612 184.577 239.645C184.61 239.679 184.628 239.724 184.628 239.771C184.427 252.018 193.642 262.427 240.129 276.465C258.07 281.878 269.143 289.168 273.04 298.129C275.723 304.279 275.126 311.1 271.249 318.981C266.132 329.377 251.068 351.174 241.068 365.655C237.768 370.437 235.165 374.213 233.817 376.279C233.788 376.311 233.747 376.33 233.703 376.332ZM189.202 229.986H189.169C189.115 229.986 183.24 228.906 182.737 223.044C182.734 223.02 182.736 222.997 182.743 222.974C182.749 222.951 182.761 222.93 182.776 222.912C182.791 222.894 182.809 222.879 182.83 222.868C182.851 222.857 182.874 222.851 182.898 222.849C182.921 222.846 182.944 222.849 182.966 222.855C182.989 222.862 183.009 222.873 183.027 222.888C183.045 222.904 183.059 222.922 183.069 222.943C183.079 222.964 183.085 222.987 183.086 223.01C183.568 228.597 189.175 229.63 189.229 229.643C189.275 229.643 189.32 229.662 189.352 229.695C189.385 229.727 189.403 229.772 189.403 229.818C189.403 229.864 189.385 229.908 189.352 229.941C189.32 229.974 189.275 229.992 189.229 229.992L189.202 229.986ZM175.48 232.333H175.406C171.033 230.321 169.195 226.88 169.269 220.77C169.268 220.746 169.272 220.723 169.281 220.701C169.29 220.679 169.303 220.659 169.32 220.642C169.337 220.626 169.358 220.613 169.38 220.605C169.403 220.597 169.426 220.594 169.45 220.596C169.496 220.596 169.541 220.614 169.573 220.647C169.606 220.68 169.625 220.724 169.625 220.77C169.551 226.726 171.328 230.086 175.554 232.011C175.575 232.02 175.594 232.034 175.61 232.051C175.626 232.068 175.639 232.088 175.647 232.11C175.655 232.132 175.659 232.155 175.658 232.179C175.656 232.202 175.651 232.225 175.641 232.246C175.624 232.273 175.6 232.296 175.572 232.311C175.544 232.327 175.512 232.334 175.48 232.333ZM147.713 207.678C147.671 207.676 147.63 207.659 147.599 207.631C147.582 207.615 147.569 207.596 147.56 207.574C147.551 207.553 147.547 207.53 147.547 207.507C147.547 207.484 147.551 207.461 147.56 207.44C147.569 207.418 147.582 207.399 147.599 207.383L173.441 178.449C174.304 177.486 175.453 176.825 176.72 176.564C177.986 176.303 179.303 176.456 180.476 177C180.518 177.019 180.55 177.054 180.567 177.096C180.583 177.139 180.582 177.186 180.564 177.228C180.554 177.25 180.541 177.269 180.524 177.285C180.507 177.301 180.487 177.313 180.465 177.322C180.443 177.33 180.42 177.333 180.396 177.332C180.373 177.331 180.35 177.325 180.329 177.315C179.227 176.796 177.987 176.647 176.793 176.888C175.6 177.13 174.516 177.75 173.702 178.657L147.86 207.591C147.845 207.616 147.823 207.638 147.797 207.653C147.772 207.668 147.743 207.677 147.713 207.678ZM237.654 182.969C237.618 182.969 237.583 182.957 237.553 182.936C237.534 182.923 237.517 182.905 237.505 182.886C237.492 182.866 237.484 182.844 237.48 182.82C237.476 182.797 237.477 182.774 237.483 182.751C237.489 182.728 237.499 182.706 237.513 182.688C240.705 178.221 240.155 173.164 239.719 169.106C239.404 166.155 239.149 163.828 240.39 162.58C240.425 162.548 240.47 162.53 240.518 162.53C240.565 162.53 240.61 162.548 240.645 162.58C240.677 162.614 240.694 162.658 240.694 162.704C240.694 162.75 240.677 162.795 240.645 162.828C239.512 163.955 239.753 166.182 240.062 169.066C240.511 173.184 241.061 178.315 237.788 182.896C237.773 182.917 237.753 182.935 237.729 182.948C237.706 182.961 237.68 182.968 237.654 182.969Z" fill="#3D2500"/>
<path d="M269.894 334.912H404.329C405.161 334.912 405.984 335.076 406.752 335.394C407.52 335.712 408.218 336.179 408.806 336.767C409.394 337.354 409.86 338.052 410.179 338.821C410.497 339.589 410.661 340.412 410.661 341.244V447.831C410.661 449.148 410.138 450.41 409.207 451.341C408.276 452.272 407.014 452.794 405.697 452.794H268.526C267.209 452.794 265.947 452.272 265.016 451.341C264.085 450.41 263.562 449.148 263.562 447.831V341.244C263.562 339.564 264.23 337.954 265.417 336.767C266.604 335.579 268.215 334.912 269.894 334.912Z" fill="#613E1C"/>
<path d="M315.012 452.974C314.965 452.972 314.921 452.953 314.889 452.919C314.856 452.885 314.838 452.84 314.838 452.793V343.08C314.841 340.867 315.723 338.746 317.288 337.182C318.853 335.618 320.975 334.738 323.188 334.736C323.234 334.736 323.279 334.755 323.311 334.787C323.344 334.82 323.362 334.864 323.362 334.911C323.362 334.957 323.344 335.001 323.311 335.034C323.279 335.067 323.234 335.085 323.188 335.085C321.068 335.087 319.036 335.93 317.537 337.429C316.038 338.928 315.195 340.96 315.193 343.08V452.793C315.193 452.841 315.174 452.887 315.14 452.921C315.106 452.955 315.06 452.974 315.012 452.974Z" fill="#3D2500"/>
<path d="M281.04 323.401H303.985C304.83 323.401 305.64 323.737 306.238 324.335C306.835 324.932 307.171 325.742 307.171 326.587V334.911H277.861V326.587C277.861 325.743 278.196 324.934 278.792 324.337C279.388 323.74 280.197 323.403 281.04 323.401ZM325.642 323.401H348.593C349.438 323.401 350.249 323.737 350.846 324.335C351.444 324.932 351.779 325.742 351.779 326.587V334.911H322.436V326.587C322.436 326.167 322.519 325.751 322.68 325.363C322.842 324.976 323.078 324.623 323.376 324.327C323.674 324.031 324.028 323.797 324.417 323.638C324.806 323.479 325.222 323.399 325.642 323.401Z" fill="#613E1C"/>
<path d="M307.17 335.086C307.123 335.086 307.078 335.068 307.044 335.035C307.01 335.003 306.991 334.958 306.989 334.911V326.581C306.987 325.785 306.67 325.022 306.107 324.459C305.544 323.896 304.781 323.578 303.984 323.577H281.368C281.342 323.582 281.315 323.581 281.289 323.574C281.263 323.568 281.239 323.556 281.218 323.539C281.198 323.522 281.181 323.5 281.17 323.476C281.158 323.452 281.152 323.426 281.152 323.399C281.152 323.372 281.158 323.346 281.17 323.322C281.181 323.297 281.198 323.276 281.218 323.259C281.239 323.242 281.263 323.23 281.289 323.223C281.315 323.217 281.342 323.216 281.368 323.221H303.984C304.874 323.221 305.727 323.574 306.355 324.203C306.984 324.832 307.338 325.685 307.338 326.575V334.905C307.339 334.928 307.335 334.95 307.327 334.972C307.319 334.993 307.307 335.013 307.291 335.03C307.276 335.047 307.257 335.06 307.236 335.07C307.215 335.08 307.193 335.085 307.17 335.086Z" fill="#3D2500"/>
<path d="M370.009 323.401H392.954C393.799 323.401 394.609 323.737 395.207 324.334C395.804 324.932 396.14 325.742 396.14 326.587V334.911H366.83V326.587C366.83 325.743 367.165 324.934 367.761 324.337C368.357 323.74 369.165 323.403 370.009 323.401Z" fill="#613E1C"/>
<path d="M401.223 335.085H272.804C272.758 335.085 272.714 335.067 272.681 335.034C272.648 335.001 272.63 334.957 272.63 334.911C272.63 334.865 272.648 334.82 272.681 334.788C272.714 334.755 272.758 334.736 272.804 334.736H401.223C401.246 334.736 401.27 334.739 401.291 334.748C401.313 334.756 401.332 334.769 401.349 334.785C401.365 334.802 401.378 334.821 401.386 334.843C401.395 334.865 401.399 334.888 401.398 334.911C401.398 334.957 401.379 335.001 401.347 335.034C401.314 335.067 401.27 335.085 401.223 335.085Z" fill="#3D2500"/>
<path d="M343.101 326.091H341.706C341.603 326.091 341.504 326.051 341.431 325.978C341.358 325.905 341.317 325.806 341.317 325.702C341.317 325.599 341.358 325.5 341.431 325.427C341.504 325.354 341.603 325.313 341.706 325.313H343.101C343.204 325.313 343.303 325.354 343.376 325.427C343.449 325.5 343.49 325.599 343.49 325.702C343.49 325.806 343.449 325.905 343.376 325.978C343.303 326.051 343.204 326.091 343.101 326.091ZM337.34 326.091H326.521C326.418 326.091 326.319 326.051 326.246 325.978C326.173 325.905 326.132 325.806 326.132 325.702C326.132 325.599 326.173 325.5 326.246 325.427C326.319 325.354 326.418 325.313 326.521 325.313H337.34C337.443 325.313 337.542 325.354 337.615 325.427C337.688 325.5 337.729 325.599 337.729 325.702C337.729 325.806 337.688 325.905 337.615 325.978C337.542 326.051 337.443 326.091 337.34 326.091ZM280.525 332.074C280.422 332.074 280.323 332.033 280.25 331.96C280.177 331.887 280.136 331.788 280.136 331.685V325.702C280.136 325.599 280.177 325.5 280.25 325.427C280.323 325.354 280.422 325.313 280.525 325.313H285.354C285.457 325.313 285.556 325.354 285.629 325.427C285.702 325.5 285.743 325.599 285.743 325.702C285.743 325.806 285.702 325.905 285.629 325.978C285.556 326.051 285.457 326.091 285.354 326.091H280.907V331.685C280.908 331.736 280.899 331.786 280.88 331.834C280.861 331.881 280.833 331.924 280.797 331.96C280.762 331.996 280.719 332.025 280.673 332.044C280.626 332.064 280.576 332.074 280.525 332.074ZM291.115 326.091H289.72C289.617 326.091 289.518 326.051 289.445 325.978C289.372 325.905 289.331 325.806 289.331 325.702C289.331 325.599 289.372 325.5 289.445 325.427C289.518 325.354 289.617 325.313 289.72 325.313H291.115C291.218 325.313 291.317 325.354 291.39 325.427C291.463 325.5 291.504 325.599 291.504 325.702C291.504 325.806 291.463 325.905 291.39 325.978C291.317 326.051 291.218 326.091 291.115 326.091Z" fill="white"/>
<path d="M319.754 216.786H454.169C455 216.786 455.824 216.95 456.592 217.268C457.36 217.586 458.058 218.053 458.646 218.641C459.234 219.229 459.7 219.926 460.019 220.695C460.337 221.463 460.5 222.286 460.5 223.118V329.712C460.5 331.028 459.978 332.291 459.047 333.222C458.116 334.152 456.854 334.675 455.537 334.675H318.366C317.049 334.675 315.787 334.152 314.856 333.222C313.925 332.291 313.402 331.028 313.402 329.712V223.144C313.399 222.309 313.561 221.481 313.879 220.709C314.196 219.936 314.664 219.234 315.254 218.643C315.845 218.052 316.546 217.584 317.319 217.265C318.091 216.946 318.919 216.784 319.754 216.786Z" fill="#FFDBA5"/>
<path d="M377.619 334.851C377.572 334.851 377.528 334.833 377.495 334.8C377.463 334.767 377.444 334.723 377.444 334.677V224.963C377.446 222.749 378.326 220.627 379.892 219.061C381.458 217.495 383.58 216.615 385.795 216.613C385.836 216.621 385.873 216.643 385.9 216.676C385.926 216.708 385.941 216.749 385.941 216.791C385.941 216.833 385.926 216.874 385.9 216.906C385.873 216.939 385.836 216.961 385.795 216.969C383.674 216.971 381.641 217.813 380.141 219.312C378.641 220.811 377.797 222.843 377.793 224.963V334.677C377.794 334.7 377.79 334.723 377.782 334.745C377.773 334.766 377.761 334.786 377.744 334.802C377.728 334.819 377.708 334.831 377.687 334.84C377.665 334.848 377.642 334.852 377.619 334.851Z" fill="#3D2500"/>
<path d="M330.88 205.279H353.825C354.67 205.279 355.48 205.615 356.078 206.212C356.675 206.81 357.011 207.62 357.011 208.465V216.789H327.701V208.465C327.701 207.621 328.036 206.812 328.632 206.215C329.228 205.618 330.037 205.281 330.88 205.279ZM375.482 205.279H398.427C399.271 205.279 400.082 205.615 400.679 206.212C401.277 206.81 401.612 207.62 401.612 208.465V216.789H372.303V208.465C372.303 207.621 372.637 206.812 373.234 206.215C373.83 205.618 374.638 205.281 375.482 205.279Z" fill="#FFDBA5"/>
<path d="M357.005 216.968C356.958 216.966 356.914 216.947 356.881 216.913C356.849 216.879 356.83 216.834 356.831 216.787V208.464C356.829 207.666 356.511 206.902 355.946 206.339C355.382 205.775 354.617 205.459 353.819 205.459H331.203C331.162 205.451 331.125 205.429 331.098 205.396C331.071 205.364 331.057 205.323 331.057 205.281C331.057 205.239 331.071 205.199 331.098 205.166C331.125 205.134 331.162 205.112 331.203 205.104H353.819C354.708 205.104 355.561 205.457 356.19 206.086C356.819 206.715 357.173 207.568 357.173 208.457V216.78C357.174 216.827 357.158 216.873 357.127 216.908C357.095 216.943 357.052 216.965 357.005 216.968Z" fill="#3D2500"/>
<path d="M419.849 205.279H442.794C443.639 205.279 444.449 205.615 445.046 206.212C445.644 206.81 445.98 207.62 445.98 208.465V216.789H416.67V208.465C416.67 207.621 417.005 206.812 417.601 206.215C418.197 205.618 419.005 205.281 419.849 205.279Z" fill="#FFDBA5"/>
<path d="M451.063 216.969H322.61C322.569 216.961 322.532 216.939 322.505 216.906C322.478 216.874 322.464 216.833 322.464 216.791C322.464 216.749 322.478 216.708 322.505 216.676C322.532 216.643 322.569 216.621 322.61 216.613H451.063C451.104 216.621 451.141 216.643 451.168 216.676C451.195 216.708 451.209 216.749 451.209 216.791C451.209 216.833 451.195 216.874 451.168 216.906C451.141 216.939 451.104 216.961 451.063 216.969Z" fill="#3D2500"/>
<path d="M392.94 207.968H391.518C391.463 207.975 391.407 207.971 391.354 207.955C391.301 207.939 391.252 207.911 391.211 207.875C391.169 207.838 391.136 207.793 391.113 207.743C391.09 207.692 391.078 207.638 391.078 207.582C391.078 207.527 391.09 207.472 391.113 207.422C391.136 207.371 391.169 207.326 391.211 207.29C391.252 207.253 391.301 207.226 391.354 207.21C391.407 207.194 391.463 207.189 391.518 207.197H392.913C393.007 207.209 393.093 207.255 393.155 207.326C393.217 207.397 393.251 207.488 393.251 207.582C393.251 207.677 393.217 207.768 393.155 207.839C393.093 207.91 393.007 207.956 392.913 207.968H392.94ZM387.179 207.968H376.36C376.267 207.956 376.181 207.91 376.119 207.839C376.057 207.768 376.022 207.677 376.022 207.582C376.022 207.488 376.057 207.397 376.119 207.326C376.181 207.255 376.267 207.209 376.36 207.197H387.179C387.234 207.189 387.289 207.194 387.342 207.21C387.395 207.226 387.444 207.253 387.486 207.29C387.528 207.326 387.561 207.371 387.584 207.422C387.607 207.472 387.619 207.527 387.619 207.582C387.619 207.638 387.607 207.692 387.584 207.743C387.561 207.793 387.528 207.838 387.486 207.875C387.444 207.911 387.395 207.939 387.342 207.955C387.289 207.971 387.234 207.975 387.179 207.968ZM330.357 213.957C330.255 213.956 330.158 213.914 330.086 213.841C330.015 213.768 329.975 213.67 329.975 213.568V207.586C329.975 207.484 330.015 207.386 330.086 207.313C330.158 207.24 330.255 207.198 330.357 207.197H335.179C335.234 207.189 335.29 207.194 335.343 207.21C335.396 207.226 335.445 207.253 335.487 207.29C335.528 207.326 335.562 207.371 335.585 207.422C335.607 207.472 335.619 207.527 335.619 207.582C335.619 207.638 335.607 207.692 335.585 207.743C335.562 207.793 335.528 207.838 335.487 207.875C335.445 207.911 335.396 207.939 335.343 207.955C335.29 207.971 335.234 207.975 335.179 207.968H330.733V213.568C330.733 213.669 330.693 213.766 330.623 213.839C330.553 213.911 330.458 213.954 330.357 213.957ZM340.947 207.968H339.552C339.459 207.956 339.373 207.91 339.311 207.839C339.248 207.768 339.214 207.677 339.214 207.582C339.214 207.488 339.248 207.397 339.311 207.326C339.373 207.255 339.459 207.209 339.552 207.197H340.947C341.002 207.189 341.058 207.194 341.111 207.21C341.164 207.226 341.213 207.253 341.255 207.29C341.296 207.326 341.33 207.371 341.353 207.422C341.375 207.472 341.387 207.527 341.387 207.582C341.387 207.638 341.375 207.692 341.353 207.743C341.33 207.793 341.296 207.838 341.255 207.875C341.213 207.911 341.164 207.939 341.111 207.955C341.058 207.971 341.002 207.975 340.947 207.968Z" fill="white"/>
<path d="M37.0054 31.0967H171.441C173.12 31.0967 174.73 31.7637 175.918 32.9511C177.105 34.1385 177.772 35.7489 177.772 37.4281V144.002C177.772 145.319 177.249 146.581 176.318 147.512C175.388 148.443 174.125 148.966 172.809 148.966H35.6371C34.322 148.964 33.0613 148.44 32.132 147.51C31.2026 146.579 30.6807 145.318 30.6807 144.002V37.4281C30.6807 35.7489 31.3477 34.1385 32.5351 32.9511C33.7225 31.7637 35.3329 31.0967 37.0121 31.0967H37.0054Z" fill="#DF782D"/>
<path d="M82.1246 149.161C82.0783 149.161 82.034 149.142 82.0013 149.11C81.9686 149.077 81.9502 149.033 81.9502 148.986V39.2664C81.9537 37.0535 82.8349 34.9323 84.4002 33.3682C85.9656 31.804 88.0875 30.9246 90.3004 30.9229C90.3467 30.9229 90.391 30.9412 90.4237 30.9739C90.4564 31.0066 90.4748 31.051 90.4748 31.0972C90.4748 31.1435 90.4564 31.1878 90.4237 31.2205C90.391 31.2532 90.3467 31.2716 90.3004 31.2716C88.1841 31.2787 86.1568 32.1239 84.6622 33.6223C83.1677 35.1206 82.3275 37.15 82.3258 39.2664V148.986C82.325 149.011 82.3191 149.036 82.3083 149.058C82.2976 149.081 82.2823 149.101 82.2634 149.118C82.2445 149.134 82.2224 149.146 82.1985 149.154C82.1746 149.161 82.1494 149.163 82.1246 149.161Z" fill="#3D2500"/>
<path d="M48.1201 19.587H71.0647C71.4853 19.5835 71.9025 19.6633 72.2921 19.8218C72.6818 19.9803 73.0361 20.2144 73.3348 20.5106C73.6335 20.8068 73.8706 21.1592 74.0323 21.5475C74.1941 21.9357 74.2774 22.3522 74.2774 22.7729V31.0962H44.9678V22.7729C44.9677 21.9337 45.2988 21.1284 45.889 20.5319C46.4792 19.9354 47.281 19.5959 48.1201 19.587ZM92.7552 19.587H115.7C116.545 19.587 117.355 19.9227 117.953 20.5201C118.55 21.1176 118.886 21.9279 118.886 22.7729V31.0962H89.5694V22.7729C89.5694 21.9279 89.905 21.1176 90.5025 20.5201C91.0999 19.9227 91.9103 19.587 92.7552 19.587Z" fill="#DF782D"/>
<path d="M74.2774 31.2709C74.2311 31.2709 74.1868 31.2526 74.154 31.2199C74.1213 31.1872 74.103 31.1428 74.103 31.0966V22.7732C74.103 21.9756 73.7866 21.2107 73.2233 20.6461C72.66 20.0816 71.8958 19.7635 71.0982 19.7617H48.4755C48.4343 19.7537 48.3971 19.7315 48.3704 19.6991C48.3437 19.6667 48.3291 19.626 48.3291 19.584C48.3291 19.542 48.3437 19.5013 48.3704 19.4689C48.3971 19.4364 48.4343 19.4143 48.4755 19.4062H71.0982C71.9876 19.4062 72.8406 19.7596 73.4695 20.3885C74.0984 21.0174 74.4517 21.8703 74.4517 22.7598V31.0966C74.4501 31.1423 74.4312 31.1857 74.3988 31.218C74.3665 31.2504 74.3231 31.2693 74.2774 31.2709Z" fill="#3D2500"/>
<path d="M137.122 19.5879H160.067C160.912 19.5879 161.722 19.9235 162.319 20.521C162.917 21.1185 163.253 21.9288 163.253 22.7737V31.0971H133.97V22.7737C133.97 21.9346 134.301 21.1293 134.891 20.5328C135.481 19.9363 136.283 19.5967 137.122 19.5879Z" fill="#DF782D"/>
<path d="M168.336 31.2716H39.8834C39.8371 31.2716 39.7928 31.2532 39.7601 31.2205C39.7274 31.1878 39.709 31.1435 39.709 31.0972C39.709 31.051 39.7274 31.0066 39.7601 30.9739C39.7928 30.9412 39.8371 30.9229 39.8834 30.9229H168.336C168.382 30.9229 168.427 30.9412 168.459 30.9739C168.492 31.0066 168.51 31.051 168.51 31.0972C168.51 31.1435 168.492 31.1878 168.459 31.2205C168.427 31.2532 168.382 31.2716 168.336 31.2716Z" fill="#3D2500"/>
<path d="M135.649 79.782H136.608V78.8237V75.3428V74.3844H135.649H116.139H115.18V75.3428V78.8237V79.782H116.139H123.141V110.944V111.902H124.1H127.708H128.667V110.944V79.782H135.649ZM358.643 264.346H359.601V263.388V259.84V258.882H358.643H338.24H337.282V259.84V295.461V296.419H338.24H358.502H359.46V295.461V291.926V290.968H358.502H342.733V278.941H358.502H359.46V277.982V274.475V273.516H358.502H342.733V264.346H358.643ZM93.2907 414.744H94.795L94.1592 413.381L77.5526 377.773L77.2946 377.22H76.6841H75.8189H75.2118L74.9525 377.769L58.1246 413.376L57.4782 414.744H58.991H62.9616H63.5673L63.8272 414.197L69.1341 403.027H83.2696L88.6028 414.199L88.8632 414.744H89.4677H93.2907ZM381.916 413.43H383.021L382.865 412.336L377.774 376.728L377.656 375.905H376.825H376.222H375.624L375.361 376.442L361.885 403.936L348.294 376.439L348.031 375.905H347.435H346.832H346L345.883 376.729L340.826 412.336L340.671 413.43H341.775H345.235H346.074L346.185 412.598L349.21 390.022L360.561 412.897L360.825 413.43H361.419H362.311H362.907L363.17 412.896L374.392 390.214L377.432 412.6L377.544 413.43H378.381H381.916ZM71.6543 397.649L76.2616 387.951L80.7983 397.649H71.6543Z" fill="white" stroke="white" stroke-width="1.91667"/>
<path d="M22.934 285.554C22.4615 285.556 21.9899 285.513 21.5255 285.427C18.0379 284.756 14.5569 281.53 15.06 274.373C11.1297 278.552 7.4341 279.934 4.62387 278.263C0.65332 275.903 -0.741737 267.76 1.69291 260.825C4.75801 252.106 11.7534 246.331 15.952 247.009C18.2592 247.384 19.5738 249.564 19.6476 253.146C19.7683 253.401 19.889 253.407 19.9293 253.407C20.6603 253.407 22.1493 250.724 23.2425 248.712C23.8528 247.606 24.4297 246.559 24.9126 245.855C28.5276 240.59 33.3902 239.618 36.6029 240.986C39.9564 242.401 41.6331 246.056 41.11 250.496C42.4514 247.948 44.4635 246.385 46.8042 246.157C47.8594 246.063 48.9199 246.264 49.8674 246.738C50.8149 247.211 51.612 247.939 52.1698 248.84C53.2094 250.416 55.1276 254.876 51.0162 262.831C56.8513 258.847 59.2256 259.531 60.1914 260.819C62.5724 264.065 58.4207 273.629 54.0277 276.976C51.754 278.706 49.6279 278.659 47.9914 276.855C47.68 278.909 46.5908 280.765 44.949 282.039C43.3073 283.312 41.2388 283.906 39.1716 283.696C36.4486 283.408 33.4506 281.469 33.3433 276.989C31.2641 282.791 26.7972 285.554 22.934 285.554ZM15.5026 273.367L15.449 273.89C14.7783 281.168 18.172 284.441 21.5926 285.078C25.818 285.869 31.3848 282.858 33.3902 275.735L33.7323 275.795C33.2628 280.919 36.4151 283.086 39.2052 283.388C41.2486 283.592 43.2896 282.977 44.8802 281.678C46.4709 280.379 47.4812 278.502 47.6895 276.459L47.7432 276.043L48.0048 276.372C49.9431 278.834 52.2235 277.928 53.7929 276.734C58.3269 273.28 61.9755 263.91 59.8829 261.067C58.6085 259.33 55.3087 260.208 50.6004 263.548L49.9766 263.991L50.3455 263.32C54.8258 255.124 52.8875 250.644 51.8546 249.048C51.33 248.211 50.5846 247.535 49.7006 247.095C48.8166 246.655 47.8283 246.467 46.8445 246.553C44.336 246.801 42.1496 248.719 40.9088 251.824L40.5667 251.717C41.5593 246.902 39.9497 242.83 36.4687 241.348C33.3902 240.04 28.7154 240.999 25.2144 246.097C24.7382 246.767 24.1681 247.82 23.5577 248.92C21.9414 251.851 20.8079 253.776 19.936 253.776C19.7978 253.762 19.6665 253.709 19.5582 253.622C19.4499 253.535 19.3691 253.418 19.3256 253.287V253.213C19.2653 249.792 18.058 247.72 15.9319 247.378C11.8674 246.707 5.06653 252.388 2.06179 260.959C-0.299075 267.733 1.00208 275.675 4.83849 277.955C7.56824 279.585 11.2437 278.089 15.1807 273.756L15.5026 273.367ZM385.904 175.204C383.463 175.248 381.085 174.423 379.197 172.876C376.635 170.67 375.675 167.262 376.46 163.232C374.448 165.13 372.731 165.914 371.336 165.512C370.149 165.183 369.27 164.01 368.794 162.118C367.526 157.041 369.357 147.993 373.616 143.942C375.401 142.252 377.265 141.474 379.15 141.622C381.41 141.803 383.623 143.278 385.729 146.008C386.353 139.261 389.901 134.982 395.293 134.519C397.876 134.325 400.447 135.03 402.57 136.513C404.693 137.997 406.238 140.169 406.944 142.661C409.566 139.355 412.846 138.442 415.79 140.227C418.413 141.816 420.23 145.559 419.144 148.905C419.478 148.581 419.906 148.37 420.366 148.301C420.827 148.232 421.298 148.31 421.712 148.523C423.382 149.415 424.549 152.755 423.523 156.572C421.136 165.525 410.894 174.734 403.691 174.741C403.366 174.741 403.041 174.721 402.718 174.68C400.223 174.365 397.272 172.668 396.749 166.632C396.379 168.367 395.586 169.983 394.439 171.336C393.292 172.689 391.827 173.737 390.176 174.385C388.817 174.926 387.367 175.204 385.904 175.204ZM377.084 162.112L376.943 162.715C375.977 166.86 376.863 170.368 379.445 172.588C382.128 174.908 386.4 175.492 390.042 174.043C393.805 172.548 396.212 169.234 396.662 164.949H397.01C397.084 170.609 399.07 173.842 402.758 174.305C409.841 175.183 420.72 165.68 423.174 156.458C424.127 152.896 423.094 149.61 421.538 148.778C420.666 148.315 419.72 148.617 418.795 149.67L417.95 150.629L418.506 149.476C420.116 146.122 418.312 142.098 415.609 140.475C412.759 138.744 409.573 139.724 407.011 143.104L406.789 143.399L406.702 143.037C406.079 140.549 404.597 138.361 402.516 136.861C400.435 135.361 397.891 134.645 395.334 134.841C390.022 135.29 386.548 139.63 386.058 146.437V146.558L385.937 146.598C385.81 146.632 385.77 146.598 385.555 146.303C383.482 143.62 381.329 142.118 379.143 141.944C377.359 141.803 375.588 142.547 373.885 144.164C369.773 148.067 367.936 157.115 369.156 162.004C369.465 163.232 370.109 164.768 371.45 165.136C372.791 165.505 374.589 164.607 376.648 162.541L377.084 162.112ZM263.675 71.0706C261.88 71.1237 260.124 70.5391 258.719 69.4207C257.015 67.9586 256.458 65.7252 257.109 63.0692C255.406 64.974 254.01 65.752 252.957 65.3227C251.22 64.652 251.1 61.1979 251.187 59.1925C251.422 53.6123 253.561 46.8449 256.264 46.0602C257.283 45.7584 258.276 46.3017 259.235 47.6632C259.73 48.4438 260.144 49.2731 260.469 50.1381C260.602 50.4907 260.758 50.8336 260.939 51.1642C261.119 50.3381 261.209 49.4947 261.207 48.6491C261.589 41.2714 265.506 36.2143 269.222 34.5175C271.288 33.5785 273.293 33.6724 274.715 34.7857C276.834 36.4491 277.525 40.1044 276.673 45.1078C279.578 43.0152 281.804 42.4653 283.287 43.4579C285.768 45.1346 285.339 50.735 284.212 55.0208C282.817 60.3394 279.812 66.1879 276.519 66.4227C274.977 66.5501 273.608 65.43 272.428 63.0692C272.443 64.519 272.045 65.9432 271.28 67.1749C270.515 68.4066 269.415 69.395 268.109 70.0243C266.733 70.7163 265.215 71.0747 263.675 71.0706ZM257.961 61.5064L257.672 62.3851C256.747 65.2355 257.203 67.6367 258.96 69.139C261.12 70.9969 264.889 71.2316 267.921 69.6957C269.284 69.0387 270.412 67.9786 271.152 66.6588C271.892 65.3391 272.209 63.8237 272.059 62.318L271.985 61.2985L272.394 62.2308C273.581 64.9136 274.956 66.255 276.499 66.1209C279.484 65.8794 282.468 60.3193 283.877 54.947C285.319 49.454 285.01 45.0676 283.092 43.7731C281.71 42.8409 279.437 43.4981 276.533 45.6712L276.17 45.9462L276.258 45.4968C277.203 40.4062 276.579 36.7039 274.5 35.0876C273.159 34.0413 271.348 33.9608 269.376 34.8595C265.761 36.4893 261.938 41.3854 261.569 48.6692C261.428 51.3051 261.267 51.5264 261.013 51.5667C260.758 51.6069 260.536 51.1978 260.154 50.2722C259.833 49.4327 259.431 48.6263 258.953 47.8644C258.102 46.6437 257.237 46.1474 256.371 46.3956C253.883 47.1199 251.77 53.7733 251.542 59.2059C251.408 62.4052 251.985 64.5715 253.085 64.9941C254.078 65.3764 255.56 64.4173 257.371 62.2308L257.961 61.5064Z" fill="#3D2500"/>
<path d="M402.578 69.5147L404.791 63.0156L407.239 69.4342L413.738 71.6475L407.326 74.0956L405.106 80.6014L402.658 74.1828L396.159 71.9628L402.578 69.5147Z" fill="#FFE1B5"/>
<path d="M116.51 273.448L118.724 266.942L121.172 273.361L127.671 275.574L121.252 278.022L119.039 284.528L116.591 278.11L110.092 275.89L116.51 273.448Z" fill="#FFE1B5"/>
<path d="M224.454 23.586L226.667 17.0869L229.115 23.5055L235.621 25.7188L229.202 28.1669L226.989 34.666L224.541 28.2474L218.035 26.0341L224.454 23.586Z" fill="#FFE1B5"/>
<path d="M352.41 84.3512L312.691 136.538C311.113 138.613 309.013 140.233 306.606 141.233C304.199 142.232 301.57 142.577 298.987 142.231C296.403 141.884 293.957 140.86 291.898 139.262C289.839 137.663 288.241 135.548 287.264 133.131C286.163 130.418 285.894 127.439 286.491 124.572C287.089 121.706 288.525 119.082 290.618 117.034L336.085 72.6475L352.41 84.3512ZM138.027 213.991C136.275 215.349 134.254 216.32 132.099 216.84C129.944 217.359 127.703 217.416 125.525 217.006C123.346 216.596 121.279 215.728 119.461 214.461C117.642 213.193 116.113 211.554 114.975 209.651L86.6311 160.892C86.2067 160.048 85.6131 159.302 84.8872 158.698C84.1614 158.095 83.3189 157.647 82.4124 157.384C79.0589 156.411 73.7939 154.855 72.9421 154.392L68.3746 151.904C67.4716 151.409 66.622 150.823 65.8394 150.154L61.3994 146.351C61.2743 146.239 61.1784 146.098 61.1201 145.94C61.0617 145.783 61.0426 145.614 61.0644 145.447C61.0862 145.281 61.1483 145.122 61.2452 144.985C61.3421 144.848 61.471 144.737 61.6207 144.661C62.3308 144.301 63.1318 144.16 63.9221 144.255C64.7125 144.351 65.4567 144.679 66.0607 145.197L74.3707 144.211L87.7847 141.032C90.1884 140.68 92.6427 140.993 94.8802 141.939C97.1178 142.886 99.0528 144.428 100.474 146.398L140.207 191.247C141.618 192.856 142.685 194.736 143.343 196.772C144 198.808 144.234 200.957 144.03 203.087C143.826 205.217 143.188 207.282 142.155 209.156C141.123 211.03 139.718 212.673 138.027 213.984V213.991Z" fill="#FFEACA"/>
<path d="M61.1781 141.319C61.0213 141.436 60.894 141.588 60.8063 141.762C60.7185 141.937 60.6729 142.13 60.6729 142.325C60.6729 142.521 60.7185 142.714 60.8063 142.888C60.894 143.063 61.0213 143.215 61.1781 143.331L69.079 149.643C69.4169 149.907 69.7921 150.119 70.1923 150.273L75.9067 152.466L78.6499 147.892L71.5069 146.363L65.3096 141.413C64.7296 140.949 64.0117 140.69 63.2688 140.678C62.5258 140.666 61.7999 140.901 61.205 141.346L61.1781 141.319Z" fill="#FFEACA"/>
<path d="M74.988 152.46H74.9209L70.0919 150.401C69.6763 150.236 69.2875 150.01 68.9383 149.73L62.4057 144.512C62.3692 144.483 62.3459 144.44 62.3409 144.394C62.3358 144.347 62.3495 144.301 62.3789 144.264C62.4082 144.228 62.4508 144.204 62.4974 144.199C62.5439 144.194 62.5905 144.208 62.627 144.237L69.1596 149.455C69.4925 149.704 69.8611 149.901 70.2529 150.039L75.0886 152.105C75.1302 152.124 75.163 152.158 75.1804 152.2C75.1978 152.242 75.1986 152.29 75.1825 152.333C75.1702 152.373 75.144 152.408 75.1084 152.432C75.0729 152.455 75.0302 152.465 74.988 152.46Z" fill="#3D2500"/>
<path d="M63.4921 145.177C63.4591 145.186 63.4244 145.186 63.3914 145.177C63.3533 145.151 63.3269 145.111 63.3181 145.066C63.3094 145.021 63.3188 144.974 63.3445 144.936C63.4794 144.721 63.5274 144.463 63.4789 144.213C63.4303 143.964 63.2887 143.743 63.0829 143.594C62.2311 142.863 61.9025 142.635 61.2922 143.199C61.2763 143.22 61.2559 143.238 61.2324 143.25C61.209 143.263 61.183 143.27 61.1564 143.271C61.1299 143.273 61.1033 143.268 61.0787 143.258C61.054 143.248 61.0319 143.233 61.0138 143.213C60.9958 143.194 60.9823 143.171 60.9743 143.145C60.9662 143.12 60.9639 143.093 60.9674 143.067C60.9709 143.04 60.9802 143.015 60.9946 142.993C61.009 142.97 61.0282 142.951 61.0507 142.937C61.9293 142.139 62.5128 142.635 63.3177 143.333C63.5848 143.536 63.766 143.832 63.8256 144.162C63.8852 144.493 63.8189 144.833 63.6396 145.117C63.6209 145.137 63.5981 145.153 63.5726 145.163C63.5471 145.174 63.5196 145.179 63.4921 145.177ZM63.3579 147.753C63.323 147.754 63.2884 147.746 63.2586 147.727C63.2288 147.709 63.2051 147.683 63.1907 147.651C63.1762 147.619 63.1716 147.584 63.1775 147.549C63.1834 147.515 63.1995 147.483 63.2238 147.458C63.264 147.411 63.6128 146.948 62.9287 146.364C62.3787 145.888 61.9561 145.66 61.7281 145.694C61.6817 145.703 61.6377 145.722 61.5995 145.749C61.5612 145.777 61.5296 145.813 61.5068 145.855C61.4807 145.894 61.4401 145.922 61.3937 145.932C61.3473 145.942 61.2988 145.934 61.2586 145.908C61.2202 145.881 61.1934 145.841 61.1835 145.795C61.1736 145.749 61.1812 145.701 61.205 145.66C61.2562 145.576 61.3255 145.504 61.4078 145.449C61.4902 145.395 61.5835 145.359 61.6812 145.345C62.0433 145.298 62.4994 145.526 63.1634 146.096C64.1225 146.928 63.4988 147.679 63.4921 147.692C63.4752 147.711 63.4545 147.726 63.4314 147.737C63.4083 147.747 63.3833 147.753 63.3579 147.753Z" fill="#3D2500"/>
<path d="M64.6121 140.347C64.4565 140.465 64.3303 140.617 64.2435 140.791C64.1566 140.966 64.1113 141.158 64.1113 141.353C64.1113 141.548 64.1566 141.74 64.2435 141.915C64.3303 142.09 64.4565 142.242 64.6121 142.359L72.513 148.664C72.8468 148.944 73.2225 149.17 73.6263 149.334L79.3407 151.521L82.0839 146.953L74.9476 145.344L68.7504 140.387C68.1695 139.924 67.4513 139.667 66.7083 139.656C65.9654 139.645 65.2399 139.881 64.6457 140.327L64.6121 140.347Z" fill="#FFEACA"/>
<path d="M78.6228 151.091H78.5692L73.5389 149.448C73.1175 149.286 72.7238 149.06 72.3719 148.777L71.0305 147.758C66.8923 144.673 64.1625 142.6 63.9613 141.809C63.8929 141.595 63.8792 141.368 63.9214 141.148C63.9636 140.927 64.0603 140.721 64.2028 140.548C64.219 140.532 64.2383 140.518 64.2596 140.51C64.2809 140.501 64.3038 140.496 64.3268 140.496C64.3499 140.496 64.3728 140.501 64.3941 140.51C64.4154 140.518 64.4347 140.532 64.4509 140.548C64.4825 140.582 64.5001 140.626 64.5001 140.672C64.5001 140.718 64.4825 140.763 64.4509 140.796C64.3435 140.928 64.2707 141.085 64.239 141.253C64.2074 141.42 64.218 141.593 64.2698 141.755C64.4576 142.48 68.2001 145.27 71.2116 147.51L72.553 148.529C72.878 148.787 73.2397 148.995 73.6261 149.146L78.643 150.783C78.6656 150.789 78.6868 150.8 78.7051 150.814C78.7234 150.829 78.7384 150.847 78.7492 150.868C78.7599 150.889 78.7662 150.912 78.7675 150.935C78.7688 150.959 78.7653 150.982 78.757 151.004C78.7432 151.028 78.7238 151.049 78.7005 151.064C78.6772 151.079 78.6505 151.089 78.6228 151.091Z" fill="#3D2500"/>
<path d="M66.8989 144.232C66.8684 144.241 66.8356 144.241 66.805 144.232C66.7653 144.206 66.7375 144.165 66.7274 144.119C66.7174 144.072 66.726 144.024 66.7514 143.984C66.8902 143.77 66.9412 143.512 66.8937 143.262C66.8462 143.012 66.7039 142.79 66.4965 142.642C65.5978 141.871 65.0545 141.609 64.3771 142.22C64.3599 142.235 64.3399 142.247 64.3181 142.255C64.2963 142.262 64.2733 142.266 64.2502 142.264C64.2272 142.263 64.2046 142.257 64.1838 142.247C64.163 142.237 64.1443 142.223 64.1289 142.206C64.1135 142.189 64.1016 142.169 64.094 142.147C64.0863 142.125 64.083 142.102 64.0842 142.079C64.0855 142.056 64.0913 142.034 64.1012 142.013C64.1112 141.992 64.1252 141.973 64.1423 141.958C65.1685 141.032 66.0673 141.811 66.7245 142.374C66.9917 142.577 67.1729 142.873 67.2325 143.203C67.2921 143.534 67.2257 143.874 67.0465 144.158C67.0303 144.182 67.0083 144.201 66.9824 144.214C66.9565 144.227 66.9278 144.233 66.8989 144.232Z" fill="#3D2500"/>
<path d="M67.9257 139.898C67.7764 140.024 67.6584 140.183 67.5812 140.363C67.5039 140.542 67.4695 140.737 67.4805 140.932C67.4916 141.128 67.5479 141.318 67.6449 141.487C67.7419 141.657 67.8771 141.802 68.0397 141.91L76.3765 147.631C76.7316 147.872 77.1203 148.06 77.5301 148.188L83.3853 149.958L85.7931 145.203L78.563 144.19L72.0236 139.697C71.4118 139.276 70.6774 139.069 69.9357 139.111C69.194 139.152 68.487 139.438 67.9257 139.925V139.898Z" fill="#FFEACA"/>
<path d="M83.3847 150.106H83.331L77.4758 148.336C77.0476 148.208 76.6424 148.014 76.2752 147.759L67.8781 141.991C67.6373 141.824 67.4577 141.583 67.3669 141.304C67.276 141.026 67.2789 140.725 67.375 140.448C67.4889 140.209 67.6307 139.984 67.7976 139.778C67.8312 139.746 67.8755 139.729 67.9217 139.729C67.9678 139.729 68.0122 139.746 68.0457 139.778C68.0622 139.794 68.0752 139.813 68.0841 139.835C68.093 139.856 68.0976 139.879 68.0976 139.902C68.0976 139.925 68.093 139.948 68.0841 139.969C68.0752 139.99 68.0622 140.01 68.0457 140.026C67.901 140.202 67.7793 140.396 67.6836 140.603C67.6217 140.802 67.6254 141.016 67.6942 141.212C67.7631 141.409 67.8933 141.579 68.0659 141.696L76.463 147.471C76.8017 147.7 77.1723 147.879 77.563 148L83.4249 149.771C83.4476 149.777 83.4688 149.788 83.4871 149.803C83.5054 149.817 83.5204 149.836 83.5311 149.856C83.5419 149.877 83.5481 149.9 83.5495 149.924C83.5508 149.947 83.5472 149.971 83.5389 149.992C83.5272 150.024 83.5063 150.052 83.4789 150.073C83.4515 150.093 83.4187 150.105 83.3847 150.106Z" fill="#3D2500"/>
<path d="M70.5007 143.607C70.472 143.614 70.4422 143.614 70.4135 143.607C70.393 143.596 70.3749 143.581 70.3603 143.562C70.3458 143.544 70.3351 143.523 70.3288 143.5C70.3225 143.478 70.3209 143.454 70.3239 143.431C70.3269 143.408 70.3346 143.386 70.3464 143.366C70.4588 143.143 70.4847 142.887 70.419 142.647C70.3534 142.406 70.2008 142.199 69.991 142.064C69.1257 141.394 68.8508 141.26 68.2941 141.749C68.2594 141.78 68.2138 141.796 68.1672 141.794C68.1207 141.791 68.077 141.77 68.0459 141.736C68.0148 141.701 67.9987 141.655 68.0012 141.609C68.0037 141.562 68.0247 141.519 68.0593 141.488C68.8575 140.783 69.4007 141.179 70.2056 141.783C70.4869 141.966 70.6891 142.248 70.7723 142.574C70.8555 142.899 70.8136 143.244 70.6549 143.54C70.637 143.563 70.6134 143.582 70.5864 143.593C70.5595 143.605 70.53 143.61 70.5007 143.607Z" fill="#3D2500"/>
<path d="M357.904 63.9796L363.759 72.2359C364.262 72.9571 364.461 73.8469 364.314 74.7137C364.168 75.5805 363.686 76.355 362.974 76.8705L348.775 86.931C347.248 88.0149 345.353 88.4479 343.507 88.1347C341.66 87.8216 340.014 86.7878 338.929 85.2609C338.313 84.3919 337.764 83.4771 337.286 82.5245C335.767 79.4678 335.35 75.9804 336.106 72.6518L339.459 57.675L339.607 57.5744C340.016 57.3198 340.488 57.1823 340.97 57.1769C341.452 57.1716 341.926 57.2986 342.341 57.5441C342.756 57.7896 343.096 58.1442 343.323 58.5694C343.551 58.9946 343.657 59.474 343.631 59.9554L343.349 65.5893C343.333 65.8516 343.395 66.1129 343.526 66.3406C343.657 66.5684 343.852 66.7526 344.087 66.8703C344.409 67.0202 344.764 67.0824 345.118 67.0506C345.471 67.0188 345.81 66.8942 346.099 66.6893L353.812 61.2096C353.996 61.0785 354.203 60.985 354.422 60.9346C354.642 60.8841 354.869 60.8778 355.092 60.9158C355.314 60.9539 355.526 61.0356 355.716 61.1563C355.906 61.2769 356.071 61.4341 356.2 61.6188L357.823 63.926" fill="#FFEACA"/>
<path d="M337.81 50.1372L342.354 47.335L337.299 39.137L332.755 41.9392L337.81 50.1372Z" fill="#3D2500"/>
<path d="M336.394 49.4336L355.71 80.762C356.003 81.2314 356.428 81.6037 356.931 81.8317C357.435 82.0597 357.995 82.1333 358.541 82.0431C358.89 81.9844 359.225 81.8592 359.527 81.6742L360.734 80.9297C361.359 80.5394 361.805 79.9181 361.974 79.201C362.144 78.4839 362.023 77.7289 361.639 77.1L342.323 45.7783L336.394 49.4336ZM316.173 42.0157C319.535 43.7704 323.342 44.4887 327.113 44.0796C330.883 43.6706 334.448 42.1526 337.355 39.7177C340.263 37.2828 342.384 34.0402 343.448 30.4001C344.513 26.7601 344.475 22.886 343.338 19.2678C342.201 15.6495 340.017 12.4498 337.061 10.073C334.105 7.69633 330.511 6.24944 326.734 5.91537C322.956 5.58129 319.164 6.37503 315.837 8.19621C312.51 10.0174 309.798 12.7842 308.044 16.1467C305.692 20.6552 305.227 25.9133 306.751 30.7646C308.276 35.6158 311.664 39.6629 316.173 42.0157ZM318.138 38.253C315.517 36.89 313.359 34.7801 311.938 32.1904C310.517 29.6007 309.896 26.6476 310.154 23.7049C310.411 20.7621 311.536 17.9619 313.386 15.6587C315.236 13.3555 317.727 11.6528 320.545 10.7661C323.363 9.87943 326.381 9.84861 329.216 10.6776C332.051 11.5065 334.577 13.1579 336.473 15.4229C338.37 17.6878 339.552 20.4644 339.87 23.4013C340.187 26.3383 339.627 29.3034 338.259 31.9216C336.427 35.4266 333.28 38.0618 329.508 39.2489C325.735 40.4359 321.646 40.0777 318.138 38.253Z" fill="#FFBD5C"/>
<path d="M326.508 40.7145C326.486 40.7154 326.464 40.7119 326.443 40.7043C326.422 40.6967 326.403 40.6851 326.387 40.6702C326.371 40.6552 326.358 40.6372 326.349 40.6172C326.339 40.5972 326.334 40.5755 326.333 40.5535C326.331 40.5309 326.332 40.5081 326.339 40.4862C326.345 40.4644 326.356 40.4441 326.37 40.4265C326.385 40.409 326.402 40.3945 326.423 40.3841C326.443 40.3736 326.465 40.3674 326.488 40.3657C329.296 40.1029 331.978 39.0727 334.241 37.3878C334.279 37.3702 334.322 37.3664 334.363 37.377C334.403 37.3877 334.439 37.4122 334.464 37.4463C334.488 37.4804 334.5 37.522 334.498 37.5639C334.495 37.6059 334.478 37.6456 334.449 37.6762C332.135 39.3978 329.393 40.4489 326.521 40.7145H326.508ZM339.808 30.2247H339.754C339.732 30.2172 339.711 30.2053 339.694 30.1897C339.676 30.174 339.662 30.1549 339.652 30.1336C339.642 30.1123 339.636 30.0892 339.635 30.0657C339.634 30.0421 339.638 30.0187 339.647 29.9967C340.352 27.9351 340.608 25.7467 340.398 23.5781C340.075 20.2387 338.675 17.0949 336.409 14.6209C334.143 12.1468 331.134 10.4766 327.836 9.86225C327.79 9.85253 327.75 9.82544 327.723 9.78667C327.697 9.74791 327.687 9.70048 327.695 9.65434C327.698 9.63151 327.706 9.60958 327.718 9.58992C327.73 9.57026 327.746 9.55329 327.765 9.54008C327.784 9.52686 327.805 9.51768 327.828 9.5131C327.85 9.50853 327.874 9.50866 327.896 9.51349C331.269 10.1417 334.346 11.8493 336.664 14.3789C338.982 16.9085 340.415 20.123 340.747 23.5378C340.963 25.7565 340.7 27.9958 339.975 30.104C339.964 30.1394 339.942 30.1701 339.911 30.1919C339.881 30.2136 339.845 30.2251 339.808 30.2247ZM309.512 26.6298C309.469 26.6284 309.427 26.6114 309.395 26.5818C309.363 26.5523 309.343 26.5121 309.338 26.4688C309.08 23.6848 309.565 20.8824 310.743 18.3469C311.922 15.8114 313.751 13.6336 316.045 12.0353C316.063 12.0214 316.084 12.0113 316.106 12.0058C316.128 12.0002 316.152 11.9993 316.174 12.0031C316.197 12.0069 316.219 12.0152 316.238 12.0277C316.257 12.0402 316.274 12.0565 316.286 12.0756C316.3 12.0943 316.311 12.1158 316.316 12.1386C316.322 12.1613 316.323 12.185 316.319 12.2082C316.315 12.2314 316.307 12.2536 316.294 12.2734C316.282 12.2933 316.265 12.3104 316.246 12.3237C314.006 13.8819 312.218 16.0067 311.067 18.4811C309.916 20.9554 309.442 23.691 309.693 26.4084C309.697 26.4554 309.682 26.502 309.652 26.5384C309.622 26.5747 309.579 26.5979 309.532 26.6029L309.512 26.6298Z" fill="#3D2500"/>
<path d="M358.467 64.793L356.455 61.9693C356.246 61.6714 355.98 61.4176 355.672 61.2226C355.365 61.0276 355.022 60.8951 354.663 60.8328C354.304 60.7705 353.936 60.7796 353.581 60.8595C353.226 60.9395 352.89 61.0887 352.592 61.2986L347.253 65.0881C347.025 65.2511 346.871 65.498 346.824 65.7746C346.778 66.0512 346.843 66.3349 347.005 66.5636V66.6039C347.3 67.0309 347.678 67.3947 348.116 67.6738C348.553 67.9529 349.042 68.1417 349.554 68.2292C350.066 68.3167 350.59 68.301 351.095 68.1832C351.601 68.0653 352.078 67.8476 352.498 67.5429L358.467 64.793Z" fill="#FFEACA"/>
<path d="M350.245 68.4212C349.589 68.4269 348.941 68.2738 348.357 67.9748C347.773 67.6758 347.27 67.2398 346.891 66.7042V66.664C346.704 66.397 346.629 66.0669 346.683 65.7451C346.709 65.5852 346.767 65.432 346.854 65.2949C346.94 65.1578 347.053 65.0395 347.186 64.947L348.662 63.9007C348.68 63.8868 348.701 63.8767 348.723 63.8712C348.745 63.8656 348.769 63.8647 348.791 63.8685C348.814 63.8723 348.835 63.8806 348.855 63.8931C348.874 63.9056 348.891 63.9219 348.903 63.941C348.917 63.9597 348.928 63.9812 348.933 64.0039C348.939 64.0267 348.94 64.0504 348.936 64.0736C348.932 64.0968 348.924 64.119 348.911 64.1388C348.899 64.1586 348.882 64.1758 348.863 64.1891L347.387 65.2354C347.198 65.3708 347.07 65.5759 347.032 65.8055C347.01 65.9215 347.011 66.0408 347.036 66.1561C347.062 66.2715 347.11 66.3804 347.18 66.4762V66.5232C347.751 67.3263 348.618 67.8698 349.59 68.0345C350.562 68.1993 351.56 67.9717 352.364 67.4018C352.382 67.3823 352.405 67.3671 352.43 67.3573C352.454 67.3475 352.481 67.3433 352.508 67.3451C352.534 67.3468 352.56 67.3544 352.584 67.3673C352.607 67.3803 352.627 67.3982 352.643 67.4199C352.659 67.4415 352.669 67.4664 352.674 67.4927C352.679 67.5189 352.678 67.5459 352.671 67.5718C352.664 67.5976 352.652 67.6216 352.635 67.6421C352.618 67.6625 352.596 67.679 352.572 67.6902C351.889 68.1652 351.077 68.4203 350.245 68.4212Z" fill="#3D2500"/>
<path d="M360.478 67.6231L358.466 64.7994C358.257 64.5014 357.991 64.2477 357.683 64.0527C357.375 63.8576 357.032 63.7252 356.674 63.6629C356.315 63.6006 355.947 63.6097 355.592 63.6896C355.237 63.7695 354.9 63.9187 354.603 64.1287L349.284 67.9048C349.171 67.9849 349.074 68.0868 349 68.2046C348.926 68.3223 348.876 68.4536 348.852 68.5908C348.829 68.728 348.834 68.8684 348.865 69.0039C348.897 69.1394 348.955 69.2673 349.036 69.3803V69.4205C349.332 69.8382 349.707 70.1934 350.141 70.4657C350.574 70.7381 351.057 70.9222 351.562 71.0076C352.066 71.0929 352.583 71.0778 353.082 70.9632C353.581 70.8485 354.052 70.6365 354.469 70.3394L360.478 67.6231Z" fill="#FFEACA"/>
<path d="M352.262 71.2515C352.037 71.2491 351.813 71.2311 351.591 71.1978C351.061 71.1134 350.553 70.9247 350.096 70.6427C349.639 70.3607 349.242 69.9908 348.929 69.5546V69.5144C348.741 69.2476 348.666 68.9172 348.721 68.5955C348.746 68.4362 348.803 68.2835 348.889 68.1465C348.974 68.0094 349.085 67.8907 349.217 67.7974L354.542 64.0213C355.073 63.6441 355.713 63.4533 356.364 63.4788C357.014 63.5043 357.638 63.7446 358.137 64.1622C358.329 64.3263 358.5 64.5133 358.647 64.7189C358.661 64.7371 358.671 64.758 358.677 64.7802C358.682 64.8025 358.683 64.8257 358.679 64.8483C358.676 64.8709 358.667 64.8926 358.655 64.9118C358.642 64.9311 358.626 64.9476 358.607 64.9603C358.588 64.9744 358.567 64.9846 358.544 64.9902C358.521 64.9958 358.497 64.9968 358.474 64.993C358.451 64.9893 358.429 64.9809 358.409 64.9683C358.389 64.9558 358.372 64.9394 358.359 64.9201C358.162 64.6415 357.913 64.4046 357.624 64.223C357.336 64.0414 357.014 63.9187 356.678 63.862C356.342 63.8052 355.998 63.8156 355.666 63.8924C355.334 63.9693 355.021 64.1111 354.744 64.3097L349.425 68.0858C349.329 68.1505 349.248 68.2348 349.187 68.333C349.125 68.4312 349.085 68.5412 349.07 68.6559C349.048 68.7719 349.05 68.8909 349.076 69.0061C349.101 69.1213 349.149 69.2302 349.217 69.3266V69.3668C349.792 70.1687 350.662 70.7095 351.635 70.8705C352.608 71.0314 353.606 70.7994 354.408 70.2253C354.439 70.1997 354.479 70.1857 354.519 70.1857C354.559 70.1857 354.598 70.1997 354.63 70.2253C354.655 70.2643 354.665 70.3113 354.657 70.3571C354.65 70.4029 354.626 70.4444 354.589 70.4735C353.914 70.9688 353.1 71.2408 352.262 71.2515Z" fill="#3D2500"/>
<path d="M362.155 69.9775L360.096 67.0733C359.797 66.662 359.349 66.3834 358.848 66.297C358.347 66.2105 357.832 66.323 357.413 66.6106L350.605 71.4463C350.489 71.5285 350.391 71.6327 350.315 71.7531C350.239 71.8735 350.188 72.0077 350.164 72.1479C350.141 72.2881 350.145 72.4316 350.177 72.5702C350.209 72.7088 350.268 72.8397 350.351 72.9554C350.899 73.7303 351.719 74.2704 352.647 74.468C353.576 74.6656 354.544 74.5063 355.361 74.0218L362.155 69.9775Z" fill="#FFEACA"/>
<path d="M353.416 74.7197C352.782 74.7217 352.157 74.5724 351.592 74.2843C351.028 73.9962 350.54 73.5775 350.17 73.063C349.977 72.79 349.9 72.4515 349.957 72.1219C350.013 71.7924 350.198 71.4988 350.471 71.3058L357.313 66.47C357.54 66.3086 357.796 66.1935 358.068 66.1314C358.34 66.0693 358.621 66.0614 358.896 66.1081C359.171 66.1548 359.433 66.2553 359.669 66.4037C359.905 66.5521 360.109 66.7456 360.27 66.9731C360.297 67.0105 360.307 67.0569 360.3 67.102C360.292 67.1472 360.267 67.1876 360.23 67.2145C360.211 67.2286 360.19 67.2388 360.167 67.2444C360.144 67.25 360.121 67.251 360.098 67.2472C360.074 67.2435 360.052 67.2351 360.032 67.2225C360.012 67.21 359.995 67.1936 359.982 67.1743C359.709 66.7935 359.296 66.5361 358.834 66.4582C358.371 66.3803 357.897 66.4883 357.514 66.7584L350.673 71.5674C350.477 71.7063 350.345 71.9171 350.305 72.1535C350.264 72.3898 350.32 72.6325 350.458 72.8283C350.986 73.5626 351.768 74.0734 352.653 74.2607C353.538 74.4481 354.46 74.2984 355.24 73.841C355.281 73.8179 355.329 73.812 355.375 73.8246C355.42 73.8372 355.458 73.8672 355.482 73.9081C355.505 73.949 355.511 73.9975 355.498 74.0427C355.485 74.088 355.455 74.1264 355.415 74.1496C354.812 74.517 354.121 74.7141 353.416 74.7197Z" fill="#3D2500"/>
<path d="M352.477 76.0082C352.348 75.8256 352.298 75.5997 352.335 75.3799C352.373 75.16 352.496 74.9639 352.678 74.8345L359.995 69.6164C360.159 69.5001 360.344 69.4172 360.54 69.3724C360.736 69.3277 360.939 69.3219 361.137 69.3556C361.335 69.3892 361.524 69.4615 361.694 69.5684C361.864 69.6753 362.012 69.8147 362.128 69.9786L363.355 71.709L356.367 76.6722C355.761 77.0948 355.013 77.2621 354.286 77.1379C353.558 77.0136 352.908 76.6078 352.477 76.0082Z" fill="#FFEACA"/>
<path d="M354.771 77.3623C354.295 77.3628 353.825 77.2491 353.401 77.0309C352.978 76.8127 352.613 76.4963 352.336 76.1081C352.259 75.9989 352.204 75.8755 352.174 75.7449C352.144 75.6143 352.14 75.4792 352.163 75.3471C352.185 75.2151 352.233 75.0887 352.304 74.9753C352.376 74.8619 352.469 74.7637 352.578 74.6862L359.922 69.4682C360.292 69.2078 360.75 69.1042 361.196 69.1798C361.415 69.2132 361.625 69.2896 361.814 69.4048C362.002 69.5199 362.167 69.6714 362.296 69.8505C362.314 69.8886 362.318 69.9317 362.307 69.9724C362.296 70.013 362.272 70.0487 362.238 70.0733C362.204 70.0979 362.162 70.1098 362.12 70.1071C362.078 70.1044 362.039 70.0872 362.008 70.0584C361.906 69.9133 361.777 69.7898 361.627 69.695C361.478 69.6002 361.311 69.536 361.136 69.506C360.961 69.4761 360.783 69.4811 360.61 69.5206C360.437 69.5601 360.274 69.6335 360.13 69.7364L352.752 74.9545C352.609 75.0581 352.512 75.2142 352.483 75.3888C352.454 75.5635 352.495 75.7425 352.598 75.8868C352.798 76.1683 353.052 76.4077 353.345 76.5911C353.638 76.7745 353.964 76.8984 354.304 76.9557C354.645 77.013 354.994 77.0026 355.331 76.9251C355.667 76.8475 355.985 76.7044 356.267 76.5038L359.62 74.1027C359.749 74.0133 359.895 73.9521 360.048 73.9232C360.202 73.8943 360.36 73.8983 360.512 73.935C360.657 73.9784 360.792 74.0514 360.908 74.1496C361.023 74.2477 361.117 74.3688 361.183 74.5051C361.278 74.699 361.313 74.9171 361.283 75.1311C361.254 75.3452 361.16 75.5453 361.015 75.7057C360.981 75.7309 360.94 75.7435 360.898 75.7413C360.855 75.739 360.815 75.7221 360.784 75.6935C360.753 75.6648 360.733 75.6262 360.728 75.5844C360.722 75.5425 360.731 75.5 360.754 75.4642C360.86 75.3571 360.931 75.2197 360.956 75.0707C360.981 74.9218 360.96 74.7687 360.895 74.6326C360.85 74.5372 360.784 74.4529 360.703 74.3857C360.622 74.3185 360.527 74.2699 360.425 74.2435C360.323 74.2199 360.217 74.2179 360.115 74.2375C360.012 74.2571 359.914 74.298 359.828 74.3576L356.475 76.7587C355.984 77.1335 355.388 77.3447 354.771 77.3623ZM344.161 79.5555C344.125 79.5652 344.088 79.5652 344.053 79.5555C344.034 79.5416 344.019 79.5241 344.007 79.504C343.995 79.4839 343.987 79.4617 343.984 79.4385C343.981 79.4154 343.982 79.3918 343.989 79.3693C343.995 79.3468 344.005 79.3257 344.02 79.3073C346.032 76.6245 346.206 74.3442 344.623 71.2187C344.612 71.1986 344.605 71.1764 344.602 71.1534C344.6 71.1305 344.602 71.1072 344.609 71.0852C344.616 71.0632 344.627 71.0428 344.643 71.0254C344.658 71.0079 344.676 70.9938 344.697 70.9839C344.739 70.9624 344.788 70.958 344.833 70.9718C344.878 70.9856 344.916 71.0164 344.939 71.0577C346.589 74.324 346.414 76.6916 344.301 79.5153C344.282 79.5318 344.26 79.5439 344.235 79.5509C344.211 79.5578 344.186 79.5594 344.161 79.5555ZM347.923 66.9128C347.863 66.923 347.802 66.923 347.742 66.9128C347.72 66.9073 347.698 66.8974 347.68 66.8836C347.661 66.8697 347.645 66.8523 347.633 66.8323C347.621 66.8123 347.614 66.7902 347.61 66.7671C347.607 66.7441 347.609 66.7206 347.615 66.6982C347.627 66.6534 347.657 66.6153 347.697 66.5916C347.737 66.5678 347.784 66.5604 347.829 66.5707C348.205 66.6713 349.063 66.1348 349.365 65.7525C349.667 65.3702 349.218 64.6794 348.929 64.2836C348.915 64.2649 348.905 64.2434 348.899 64.2207C348.894 64.1979 348.893 64.1742 348.897 64.151C348.9 64.1278 348.909 64.1056 348.921 64.0858C348.934 64.0659 348.95 64.0488 348.97 64.0355C348.988 64.0215 349.009 64.0115 349.031 64.0059C349.053 64.0004 349.076 63.9995 349.099 64.0033C349.122 64.007 349.143 64.0154 349.162 64.0279C349.182 64.0403 349.198 64.0566 349.211 64.0757C349.835 64.9208 349.976 65.558 349.64 65.9738C349.197 66.4801 348.589 66.8128 347.923 66.9128ZM349.935 69.723C349.788 69.7258 349.641 69.7054 349.499 69.6627C349.457 69.6448 349.422 69.6111 349.404 69.5687C349.385 69.5263 349.383 69.4783 349.399 69.4346C349.414 69.3911 349.446 69.3554 349.487 69.3353C349.529 69.3152 349.577 69.3123 349.62 69.3273C349.883 69.391 350.158 69.3802 350.416 69.2961C350.673 69.212 350.901 69.0579 351.076 68.8511C351.699 68.2408 351.558 68.0261 351.143 67.389C351.082 67.3018 351.022 67.2012 350.955 67.0939C350.93 67.0547 350.922 67.0073 350.932 66.962C350.942 66.9168 350.969 66.8773 351.008 66.8524C351.048 66.8275 351.095 66.8192 351.14 66.8292C351.186 66.8393 351.225 66.8669 351.25 66.9061L351.438 67.1945C351.867 67.8652 352.155 68.2877 351.324 69.106C351.145 69.2958 350.93 69.4482 350.692 69.5541C350.453 69.66 350.196 69.7175 349.935 69.723ZM351.129 73.204H351.055C351.009 73.2022 350.964 73.1824 350.932 73.1486C350.899 73.1148 350.881 73.0698 350.881 73.0229C350.883 72.976 350.903 72.9317 350.936 72.8991C350.97 72.8666 351.015 72.8485 351.062 72.8485C351.38 72.8617 351.697 72.7992 351.986 72.6663C352.275 72.5334 352.528 72.3338 352.725 72.0839C352.947 71.7888 352.725 71.4534 352.202 70.6888C352.188 70.6701 352.178 70.6486 352.172 70.6258C352.167 70.603 352.166 70.5794 352.17 70.5562C352.173 70.533 352.182 70.5108 352.194 70.491C352.207 70.4711 352.223 70.454 352.243 70.4407C352.281 70.4139 352.328 70.4032 352.375 70.4107C352.421 70.4182 352.463 70.4434 352.491 70.4809C353 71.1986 353.403 71.7687 353.007 72.2985C352.781 72.5794 352.495 72.8064 352.17 72.9631C351.845 73.1197 351.49 73.202 351.129 73.204Z" fill="#3D2500"/>
<path d="M353.457 76.262C353.418 76.2627 353.379 76.2498 353.349 76.2252C353.318 76.2007 353.297 76.1663 353.289 76.1278C353.283 76.1053 353.282 76.0819 353.285 76.0589C353.288 76.0358 353.296 76.0136 353.308 75.9937C353.32 75.9737 353.335 75.9562 353.354 75.9424C353.373 75.9286 353.394 75.9187 353.417 75.9132C354.168 75.7388 354.624 75.4638 354.758 75.0949C354.82 74.8847 354.832 74.6629 354.792 74.4473C354.753 74.2317 354.663 74.0285 354.53 73.8541C354.508 73.8132 354.503 73.7652 354.516 73.7205C354.529 73.6759 354.559 73.6383 354.6 73.616C354.641 73.5938 354.689 73.5887 354.734 73.6019C354.779 73.6151 354.816 73.6456 354.838 73.6865C355 73.9078 355.106 74.1645 355.148 74.4352C355.19 74.7059 355.167 74.9827 355.08 75.2425C354.872 75.7187 354.349 76.0473 353.47 76.2552L353.457 76.262Z" fill="#3D2500"/>
</g>
<defs>
<clipPath id="clip0_1028_86">
<rect width="460" height="460" fill="white" transform="translate(0.5)"/>
</clipPath>
</defs>
</svg>
