<svg width="20" height="20" viewBox="0 0 20 20" fill="none" xmlns="http://www.w3.org/2000/svg">
<path d="M4.0625 2.875V15.9375H11.1875V2.875H4.0625ZM3.46875 1.6875H11.7812C11.9387 1.6875 12.0897 1.75006 12.2011 1.86141C12.3124 1.97276 12.375 2.12378 12.375 2.28125V16.5312C12.375 16.6887 12.3124 16.8397 12.2011 16.9511C12.0897 17.0624 11.9387 17.125 11.7812 17.125H3.46875C3.31128 17.125 3.16026 17.0624 3.04891 16.9511C2.93756 16.8397 2.875 16.6887 2.875 16.5312V2.28125C2.875 2.12378 2.93756 1.97276 3.04891 1.86141C3.16026 1.75006 3.31128 1.6875 3.46875 1.6875Z" fill="white"/>
<path d="M5.25 5.25H10V6.4375H5.25V5.25ZM5.25 8.8125H10V10H5.25V8.8125ZM5.25 12.375H10V13.5625H5.25V12.375ZM12.375 10H14.75V11.1875H12.375V10ZM12.375 12.375H14.75V13.5625H12.375V12.375ZM1.6875 15.9375H18.3125V17.125H1.6875V15.9375Z" fill="white"/>
<path d="M12.375 7.625V15.9375H15.9375V7.625H12.375ZM11.7812 6.4375H16.5312C16.6887 6.4375 16.8397 6.50006 16.9511 6.61141C17.0624 6.72276 17.125 6.87378 17.125 7.03125V16.5312C17.125 16.6887 17.0624 16.8397 16.9511 16.9511C16.8397 17.0624 16.6887 17.125 16.5312 17.125H11.7812C11.6238 17.125 11.4728 17.0624 11.3614 16.9511C11.2501 16.8397 11.1875 16.6887 11.1875 16.5312V7.03125C11.1875 6.87378 11.2501 6.72276 11.3614 6.61141C11.4728 6.50006 11.6238 6.4375 11.7812 6.4375Z" fill="white"/>
</svg>
